<svg width="1024" height="512" viewBox="0 0 1024 512" xmlns="http://www.w3.org/2000/svg">
<rect x="0" y="0" width="1024" height="512" opacity="1" fill="#FFFFFF" stroke="none"/>
<line opacity="0.1" stroke="#000000" stroke-width="1" x1="105" y1="406" x2="1018" y2="406"/>
<line opacity="0.1" stroke="#000000" stroke-width="1" x1="105" y1="402" x2="1018" y2="402"/>
<line opacity="0.1" stroke="#000000" stroke-width="1" x1="105" y1="398" x2="1018" y2="398"/>
<line opacity="0.1" stroke="#000000" stroke-width="1" x1="105" y1="394" x2="1018" y2="394"/>
<line opacity="0.1" stroke="#000000" stroke-width="1" x1="105" y1="390" x2="1018" y2="390"/>
<line opacity="0.1" stroke="#000000" stroke-width="1" x1="105" y1="386" x2="1018" y2="386"/>
<line opacity="0.1" stroke="#000000" stroke-width="1" x1="105" y1="382" x2="1018" y2="382"/>
<line opacity="0.1" stroke="#000000" stroke-width="1" x1="105" y1="378" x2="1018" y2="378"/>
<line opacity="0.1" stroke="#000000" stroke-width="1" x1="105" y1="374" x2="1018" y2="374"/>
<line opacity="0.1" stroke="#000000" stroke-width="1" x1="105" y1="370" x2="1018" y2="370"/>
<line opacity="0.1" stroke="#000000" stroke-width="1" x1="105" y1="366" x2="1018" y2="366"/>
<line opacity="0.1" stroke="#000000" stroke-width="1" x1="105" y1="362" x2="1018" y2="362"/>
<line opacity="0.1" stroke="#000000" stroke-width="1" x1="105" y1="358" x2="1018" y2="358"/>
<line opacity="0.1" stroke="#000000" stroke-width="1" x1="105" y1="354" x2="1018" y2="354"/>
<line opacity="0.1" stroke="#000000" stroke-width="1" x1="105" y1="350" x2="1018" y2="350"/>
<line opacity="0.1" stroke="#000000" stroke-width="1" x1="105" y1="346" x2="1018" y2="346"/>
<line opacity="0.1" stroke="#000000" stroke-width="1" x1="105" y1="342" x2="1018" y2="342"/>
<line opacity="0.1" stroke="#000000" stroke-width="1" x1="105" y1="338" x2="1018" y2="338"/>
<line opacity="0.1" stroke="#000000" stroke-width="1" x1="105" y1="334" x2="1018" y2="334"/>
<line opacity="0.1" stroke="#000000" stroke-width="1" x1="105" y1="330" x2="1018" y2="330"/>
<line opacity="0.1" stroke="#000000" stroke-width="1" x1="105" y1="326" x2="1018" y2="326"/>
<line opacity="0.1" stroke="#000000" stroke-width="1" x1="105" y1="322" x2="1018" y2="322"/>
<line opacity="0.1" stroke="#000000" stroke-width="1" x1="105" y1="318" x2="1018" y2="318"/>
<line opacity="0.1" stroke="#000000" stroke-width="1" x1="105" y1="314" x2="1018" y2="314"/>
<line opacity="0.1" stroke="#000000" stroke-width="1" x1="105" y1="310" x2="1018" y2="310"/>
<line opacity="0.1" stroke="#000000" stroke-width="1" x1="105" y1="306" x2="1018" y2="306"/>
<line opacity="0.1" stroke="#000000" stroke-width="1" x1="105" y1="302" x2="1018" y2="302"/>
<line opacity="0.1" stroke="#000000" stroke-width="1" x1="105" y1="298" x2="1018" y2="298"/>
<line opacity="0.1" stroke="#000000" stroke-width="1" x1="105" y1="294" x2="1018" y2="294"/>
<line opacity="0.1" stroke="#000000" stroke-width="1" x1="105" y1="290" x2="1018" y2="290"/>
<line opacity="0.1" stroke="#000000" stroke-width="1" x1="105" y1="286" x2="1018" y2="286"/>
<line opacity="0.1" stroke="#000000" stroke-width="1" x1="105" y1="282" x2="1018" y2="282"/>
<line opacity="0.1" stroke="#000000" stroke-width="1" x1="105" y1="278" x2="1018" y2="278"/>
<line opacity="0.1" stroke="#000000" stroke-width="1" x1="105" y1="274" x2="1018" y2="274"/>
<line opacity="0.1" stroke="#000000" stroke-width="1" x1="105" y1="270" x2="1018" y2="270"/>
<line opacity="0.1" stroke="#000000" stroke-width="1" x1="105" y1="266" x2="1018" y2="266"/>
<line opacity="0.1" stroke="#000000" stroke-width="1" x1="105" y1="262" x2="1018" y2="262"/>
<line opacity="0.1" stroke="#000000" stroke-width="1" x1="105" y1="258" x2="1018" y2="258"/>
<line opacity="0.1" stroke="#000000" stroke-width="1" x1="105" y1="254" x2="1018" y2="254"/>
<line opacity="0.1" stroke="#000000" stroke-width="1" x1="105" y1="250" x2="1018" y2="250"/>
<line opacity="0.1" stroke="#000000" stroke-width="1" x1="105" y1="246" x2="1018" y2="246"/>
<line opacity="0.1" stroke="#000000" stroke-width="1" x1="105" y1="242" x2="1018" y2="242"/>
<line opacity="0.1" stroke="#000000" stroke-width="1" x1="105" y1="238" x2="1018" y2="238"/>
<line opacity="0.1" stroke="#000000" stroke-width="1" x1="105" y1="234" x2="1018" y2="234"/>
<line opacity="0.1" stroke="#000000" stroke-width="1" x1="105" y1="230" x2="1018" y2="230"/>
<line opacity="0.1" stroke="#000000" stroke-width="1" x1="105" y1="226" x2="1018" y2="226"/>
<line opacity="0.1" stroke="#000000" stroke-width="1" x1="105" y1="222" x2="1018" y2="222"/>
<line opacity="0.1" stroke="#000000" stroke-width="1" x1="105" y1="218" x2="1018" y2="218"/>
<line opacity="0.1" stroke="#000000" stroke-width="1" x1="105" y1="214" x2="1018" y2="214"/>
<line opacity="0.1" stroke="#000000" stroke-width="1" x1="105" y1="210" x2="1018" y2="210"/>
<line opacity="0.1" stroke="#000000" stroke-width="1" x1="105" y1="206" x2="1018" y2="206"/>
<line opacity="0.1" stroke="#000000" stroke-width="1" x1="105" y1="202" x2="1018" y2="202"/>
<line opacity="0.1" stroke="#000000" stroke-width="1" x1="105" y1="198" x2="1018" y2="198"/>
<line opacity="0.1" stroke="#000000" stroke-width="1" x1="105" y1="194" x2="1018" y2="194"/>
<line opacity="0.1" stroke="#000000" stroke-width="1" x1="105" y1="190" x2="1018" y2="190"/>
<line opacity="0.1" stroke="#000000" stroke-width="1" x1="105" y1="186" x2="1018" y2="186"/>
<line opacity="0.1" stroke="#000000" stroke-width="1" x1="105" y1="182" x2="1018" y2="182"/>
<line opacity="0.1" stroke="#000000" stroke-width="1" x1="105" y1="178" x2="1018" y2="178"/>
<line opacity="0.1" stroke="#000000" stroke-width="1" x1="105" y1="174" x2="1018" y2="174"/>
<line opacity="0.1" stroke="#000000" stroke-width="1" x1="105" y1="170" x2="1018" y2="170"/>
<line opacity="0.1" stroke="#000000" stroke-width="1" x1="105" y1="166" x2="1018" y2="166"/>
<line opacity="0.1" stroke="#000000" stroke-width="1" x1="105" y1="162" x2="1018" y2="162"/>
<line opacity="0.1" stroke="#000000" stroke-width="1" x1="105" y1="158" x2="1018" y2="158"/>
<line opacity="0.1" stroke="#000000" stroke-width="1" x1="105" y1="154" x2="1018" y2="154"/>
<line opacity="0.1" stroke="#000000" stroke-width="1" x1="105" y1="150" x2="1018" y2="150"/>
<line opacity="0.1" stroke="#000000" stroke-width="1" x1="105" y1="146" x2="1018" y2="146"/>
<line opacity="0.1" stroke="#000000" stroke-width="1" x1="105" y1="142" x2="1018" y2="142"/>
<line opacity="0.1" stroke="#000000" stroke-width="1" x1="105" y1="138" x2="1018" y2="138"/>
<line opacity="0.1" stroke="#000000" stroke-width="1" x1="105" y1="134" x2="1018" y2="134"/>
<line opacity="0.1" stroke="#000000" stroke-width="1" x1="105" y1="130" x2="1018" y2="130"/>
<line opacity="0.1" stroke="#000000" stroke-width="1" x1="105" y1="126" x2="1018" y2="126"/>
<line opacity="0.1" stroke="#000000" stroke-width="1" x1="105" y1="122" x2="1018" y2="122"/>
<line opacity="0.1" stroke="#000000" stroke-width="1" x1="105" y1="118" x2="1018" y2="118"/>
<line opacity="0.1" stroke="#000000" stroke-width="1" x1="105" y1="114" x2="1018" y2="114"/>
<line opacity="0.1" stroke="#000000" stroke-width="1" x1="105" y1="110" x2="1018" y2="110"/>
<line opacity="0.1" stroke="#000000" stroke-width="1" x1="105" y1="106" x2="1018" y2="106"/>
<line opacity="0.1" stroke="#000000" stroke-width="1" x1="105" y1="102" x2="1018" y2="102"/>
<line opacity="0.1" stroke="#000000" stroke-width="1" x1="105" y1="98" x2="1018" y2="98"/>
<line opacity="0.1" stroke="#000000" stroke-width="1" x1="105" y1="94" x2="1018" y2="94"/>
<line opacity="0.1" stroke="#000000" stroke-width="1" x1="105" y1="90" x2="1018" y2="90"/>
<line opacity="0.1" stroke="#000000" stroke-width="1" x1="105" y1="86" x2="1018" y2="86"/>
<line opacity="0.1" stroke="#000000" stroke-width="1" x1="105" y1="82" x2="1018" y2="82"/>
<line opacity="0.1" stroke="#000000" stroke-width="1" x1="105" y1="78" x2="1018" y2="78"/>
<line opacity="0.1" stroke="#000000" stroke-width="1" x1="105" y1="74" x2="1018" y2="74"/>
<line opacity="0.1" stroke="#000000" stroke-width="1" x1="105" y1="70" x2="1018" y2="70"/>
<line opacity="0.1" stroke="#000000" stroke-width="1" x1="105" y1="66" x2="1018" y2="66"/>
<line opacity="0.1" stroke="#000000" stroke-width="1" x1="105" y1="62" x2="1018" y2="62"/>
<line opacity="0.1" stroke="#000000" stroke-width="1" x1="105" y1="58" x2="1018" y2="58"/>
<line opacity="0.1" stroke="#000000" stroke-width="1" x1="105" y1="54" x2="1018" y2="54"/>
<line opacity="0.1" stroke="#000000" stroke-width="1" x1="105" y1="50" x2="1018" y2="50"/>
<line opacity="0.1" stroke="#000000" stroke-width="1" x1="105" y1="46" x2="1018" y2="46"/>
<line opacity="0.1" stroke="#000000" stroke-width="1" x1="105" y1="42" x2="1018" y2="42"/>
<line opacity="0.1" stroke="#000000" stroke-width="1" x1="105" y1="38" x2="1018" y2="38"/>
<line opacity="0.1" stroke="#000000" stroke-width="1" x1="105" y1="34" x2="1018" y2="34"/>
<line opacity="0.1" stroke="#000000" stroke-width="1" x1="105" y1="30" x2="1018" y2="30"/>
<line opacity="0.1" stroke="#000000" stroke-width="1" x1="105" y1="26" x2="1018" y2="26"/>
<line opacity="0.1" stroke="#000000" stroke-width="1" x1="105" y1="22" x2="1018" y2="22"/>
<line opacity="0.1" stroke="#000000" stroke-width="1" x1="105" y1="18" x2="1018" y2="18"/>
<line opacity="0.1" stroke="#000000" stroke-width="1" x1="105" y1="14" x2="1018" y2="14"/>
<line opacity="0.1" stroke="#000000" stroke-width="1" x1="105" y1="10" x2="1018" y2="10"/>
<text x="5" y="206" dy="0.76em" text-anchor="middle" font-family="sans-serif" font-size="40.32258064516129" opacity="1" fill="#000000" transform="rotate(270, 5, 206)">
EER
</text>
<text x="562" y="507" dy="-0.5ex" text-anchor="middle" font-family="sans-serif" font-size="40.32258064516129" opacity="1" fill="#000000">
Dataset
</text>
<line opacity="0.3" stroke="#FFFFFF" stroke-width="1" x1="105" y1="406" x2="1018" y2="406"/>
<line opacity="0.3" stroke="#FFFFFF" stroke-width="1" x1="105" y1="366" x2="1018" y2="366"/>
<line opacity="0.3" stroke="#FFFFFF" stroke-width="1" x1="105" y1="326" x2="1018" y2="326"/>
<line opacity="0.3" stroke="#FFFFFF" stroke-width="1" x1="105" y1="286" x2="1018" y2="286"/>
<line opacity="0.3" stroke="#FFFFFF" stroke-width="1" x1="105" y1="246" x2="1018" y2="246"/>
<line opacity="0.3" stroke="#FFFFFF" stroke-width="1" x1="105" y1="206" x2="1018" y2="206"/>
<line opacity="0.3" stroke="#FFFFFF" stroke-width="1" x1="105" y1="166" x2="1018" y2="166"/>
<line opacity="0.3" stroke="#FFFFFF" stroke-width="1" x1="105" y1="126" x2="1018" y2="126"/>
<line opacity="0.3" stroke="#FFFFFF" stroke-width="1" x1="105" y1="86" x2="1018" y2="86"/>
<line opacity="0.3" stroke="#FFFFFF" stroke-width="1" x1="105" y1="46" x2="1018" y2="46"/>
<line opacity="0.3" stroke="#FFFFFF" stroke-width="1" x1="105" y1="5" x2="1018" y2="5"/>
<polyline fill="none" opacity="1" stroke="#000000" stroke-width="1" points="104,5 104,406 "/>
<text x="95" y="406" dy="0.5ex" text-anchor="end" font-family="sans-serif" font-size="9.67741935483871" opacity="1" fill="#000000">
0.0
</text>
<polyline fill="none" opacity="1" stroke="#000000" stroke-width="1" points="99,406 104,406 "/>
<text x="95" y="366" dy="0.5ex" text-anchor="end" font-family="sans-serif" font-size="9.67741935483871" opacity="1" fill="#000000">
0.1
</text>
<polyline fill="none" opacity="1" stroke="#000000" stroke-width="1" points="99,366 104,366 "/>
<text x="95" y="326" dy="0.5ex" text-anchor="end" font-family="sans-serif" font-size="9.67741935483871" opacity="1" fill="#000000">
0.2
</text>
<polyline fill="none" opacity="1" stroke="#000000" stroke-width="1" points="99,326 104,326 "/>
<text x="95" y="286" dy="0.5ex" text-anchor="end" font-family="sans-serif" font-size="9.67741935483871" opacity="1" fill="#000000">
0.3
</text>
<polyline fill="none" opacity="1" stroke="#000000" stroke-width="1" points="99,286 104,286 "/>
<text x="95" y="246" dy="0.5ex" text-anchor="end" font-family="sans-serif" font-size="9.67741935483871" opacity="1" fill="#000000">
0.4
</text>
<polyline fill="none" opacity="1" stroke="#000000" stroke-width="1" points="99,246 104,246 "/>
<text x="95" y="206" dy="0.5ex" text-anchor="end" font-family="sans-serif" font-size="9.67741935483871" opacity="1" fill="#000000">
0.5
</text>
<polyline fill="none" opacity="1" stroke="#000000" stroke-width="1" points="99,206 104,206 "/>
<text x="95" y="166" dy="0.5ex" text-anchor="end" font-family="sans-serif" font-size="9.67741935483871" opacity="1" fill="#000000">
0.6
</text>
<polyline fill="none" opacity="1" stroke="#000000" stroke-width="1" points="99,166 104,166 "/>
<text x="95" y="126" dy="0.5ex" text-anchor="end" font-family="sans-serif" font-size="9.67741935483871" opacity="1" fill="#000000">
0.7
</text>
<polyline fill="none" opacity="1" stroke="#000000" stroke-width="1" points="99,126 104,126 "/>
<text x="95" y="86" dy="0.5ex" text-anchor="end" font-family="sans-serif" font-size="9.67741935483871" opacity="1" fill="#000000">
0.8
</text>
<polyline fill="none" opacity="1" stroke="#000000" stroke-width="1" points="99,86 104,86 "/>
<text x="95" y="46" dy="0.5ex" text-anchor="end" font-family="sans-serif" font-size="9.67741935483871" opacity="1" fill="#000000">
0.9
</text>
<polyline fill="none" opacity="1" stroke="#000000" stroke-width="1" points="99,46 104,46 "/>
<text x="95" y="5" dy="0.5ex" text-anchor="end" font-family="sans-serif" font-size="9.67741935483871" opacity="1" fill="#000000">
1.0
</text>
<polyline fill="none" opacity="1" stroke="#000000" stroke-width="1" points="99,5 104,5 "/>
<polyline fill="none" opacity="1" stroke="#000000" stroke-width="1" points="105,407 1018,407 "/>
<text x="105" y="417" dy="0.76em" text-anchor="middle" font-family="sans-serif" font-size="40.32258064516129" opacity="1" fill="#000000">

</text>
<polyline fill="none" opacity="1" stroke="#000000" stroke-width="1" points="105,407 105,412 "/>
<text x="257" y="417" dy="0.76em" text-anchor="middle" font-family="sans-serif" font-size="40.32258064516129" opacity="1" fill="#000000">
mnist
</text>
<polyline fill="none" opacity="1" stroke="#000000" stroke-width="1" points="257,407 257,412 "/>
<text x="409" y="417" dy="0.76em" text-anchor="middle" font-family="sans-serif" font-size="40.32258064516129" opacity="1" fill="#000000">

</text>
<polyline fill="none" opacity="1" stroke="#000000" stroke-width="1" points="409,407 409,412 "/>
<text x="561" y="417" dy="0.76em" text-anchor="middle" font-family="sans-serif" font-size="40.32258064516129" opacity="1" fill="#000000">
chime home
</text>
<polyline fill="none" opacity="1" stroke="#000000" stroke-width="1" points="561,407 561,412 "/>
<text x="713" y="417" dy="0.76em" text-anchor="middle" font-family="sans-serif" font-size="40.32258064516129" opacity="1" fill="#000000">

</text>
<polyline fill="none" opacity="1" stroke="#000000" stroke-width="1" points="713,407 713,412 "/>
<text x="865" y="417" dy="0.76em" text-anchor="middle" font-family="sans-serif" font-size="40.32258064516129" opacity="1" fill="#000000">
baved
</text>
<polyline fill="none" opacity="1" stroke="#000000" stroke-width="1" points="865,407 865,412 "/>
<text x="1018" y="417" dy="0.76em" text-anchor="middle" font-family="sans-serif" font-size="40.32258064516129" opacity="1" fill="#000000">

</text>
<polyline fill="none" opacity="1" stroke="#000000" stroke-width="1" points="1018,407 1018,412 "/>
<rect x="135" y="232" width="38" height="174" opacity="1" fill="#FFFF00" stroke="none"/>
<rect x="439" y="206" width="38" height="200" opacity="1" fill="#FFFF00" stroke="none"/>
<rect x="744" y="250" width="38" height="156" opacity="1" fill="#FFFF00" stroke="none"/>
<rect x="203" y="282" width="38" height="124" opacity="1" fill="#0000FF" stroke="none"/>
<rect x="508" y="218" width="38" height="188" opacity="1" fill="#0000FF" stroke="none"/>
<rect x="812" y="280" width="38" height="126" opacity="1" fill="#0000FF" stroke="none"/>
<rect x="272" y="278" width="38" height="128" opacity="1" fill="#00FF00" stroke="none"/>
<rect x="576" y="230" width="38" height="176" opacity="1" fill="#00FF00" stroke="none"/>
<rect x="881" y="282" width="38" height="124" opacity="1" fill="#00FF00" stroke="none"/>
<rect x="340" y="326" width="38" height="80" opacity="1" fill="#FF0000" stroke="none"/>
<rect x="645" y="246" width="38" height="160" opacity="1" fill="#FF0000" stroke="none"/>
<rect x="868" y="105" width="146" height="202" opacity="0.8" fill="#FFFFFF" stroke="none"/>
<rect x="868" y="105" width="146" height="202" opacity="1" fill="none" stroke="#000000"/>
<text x="908" y="115" dy="0.76em" text-anchor="start" font-family="sans-serif" font-size="32.25806451612903" opacity="1" fill="#000000">
fft
</text>
<text x="908" y="165" dy="0.76em" text-anchor="start" font-family="sans-serif" font-size="32.25806451612903" opacity="1" fill="#000000">
lpc
</text>
<text x="908" y="215" dy="0.76em" text-anchor="start" font-family="sans-serif" font-size="32.25806451612903" opacity="1" fill="#000000">
burg
</text>
<text x="908" y="265" dy="0.76em" text-anchor="start" font-family="sans-serif" font-size="32.25806451612903" opacity="1" fill="#000000">
liftered
</text>
<polyline fill="none" opacity="1" stroke="#FFFF00" stroke-width="10" points="878,131 898,131 "/>
<polyline fill="none" opacity="1" stroke="#0000FF" stroke-width="10" points="878,181 898,181 "/>
<polyline fill="none" opacity="1" stroke="#00FF00" stroke-width="10" points="878,231 898,231 "/>
<polyline fill="none" opacity="1" stroke="#FF0000" stroke-width="10" points="878,281 898,281 "/>
</svg>
