<svg width="1024" height="512" viewBox="0 0 1024 512" xmlns="http://www.w3.org/2000/svg">
<rect x="0" y="0" width="1024" height="512" opacity="1" fill="#FFFFFF" stroke="none"/>
<line opacity="0.1" stroke="#000000" stroke-width="1" x1="65" y1="446" x2="1018" y2="446"/>
<line opacity="0.1" stroke="#000000" stroke-width="1" x1="65" y1="442" x2="1018" y2="442"/>
<line opacity="0.1" stroke="#000000" stroke-width="1" x1="65" y1="438" x2="1018" y2="438"/>
<line opacity="0.1" stroke="#000000" stroke-width="1" x1="65" y1="433" x2="1018" y2="433"/>
<line opacity="0.1" stroke="#000000" stroke-width="1" x1="65" y1="429" x2="1018" y2="429"/>
<line opacity="0.1" stroke="#000000" stroke-width="1" x1="65" y1="424" x2="1018" y2="424"/>
<line opacity="0.1" stroke="#000000" stroke-width="1" x1="65" y1="420" x2="1018" y2="420"/>
<line opacity="0.1" stroke="#000000" stroke-width="1" x1="65" y1="416" x2="1018" y2="416"/>
<line opacity="0.1" stroke="#000000" stroke-width="1" x1="65" y1="411" x2="1018" y2="411"/>
<line opacity="0.1" stroke="#000000" stroke-width="1" x1="65" y1="407" x2="1018" y2="407"/>
<line opacity="0.1" stroke="#000000" stroke-width="1" x1="65" y1="402" x2="1018" y2="402"/>
<line opacity="0.1" stroke="#000000" stroke-width="1" x1="65" y1="398" x2="1018" y2="398"/>
<line opacity="0.1" stroke="#000000" stroke-width="1" x1="65" y1="394" x2="1018" y2="394"/>
<line opacity="0.1" stroke="#000000" stroke-width="1" x1="65" y1="389" x2="1018" y2="389"/>
<line opacity="0.1" stroke="#000000" stroke-width="1" x1="65" y1="385" x2="1018" y2="385"/>
<line opacity="0.1" stroke="#000000" stroke-width="1" x1="65" y1="380" x2="1018" y2="380"/>
<line opacity="0.1" stroke="#000000" stroke-width="1" x1="65" y1="376" x2="1018" y2="376"/>
<line opacity="0.1" stroke="#000000" stroke-width="1" x1="65" y1="372" x2="1018" y2="372"/>
<line opacity="0.1" stroke="#000000" stroke-width="1" x1="65" y1="367" x2="1018" y2="367"/>
<line opacity="0.1" stroke="#000000" stroke-width="1" x1="65" y1="363" x2="1018" y2="363"/>
<line opacity="0.1" stroke="#000000" stroke-width="1" x1="65" y1="358" x2="1018" y2="358"/>
<line opacity="0.1" stroke="#000000" stroke-width="1" x1="65" y1="354" x2="1018" y2="354"/>
<line opacity="0.1" stroke="#000000" stroke-width="1" x1="65" y1="349" x2="1018" y2="349"/>
<line opacity="0.1" stroke="#000000" stroke-width="1" x1="65" y1="345" x2="1018" y2="345"/>
<line opacity="0.1" stroke="#000000" stroke-width="1" x1="65" y1="341" x2="1018" y2="341"/>
<line opacity="0.1" stroke="#000000" stroke-width="1" x1="65" y1="336" x2="1018" y2="336"/>
<line opacity="0.1" stroke="#000000" stroke-width="1" x1="65" y1="332" x2="1018" y2="332"/>
<line opacity="0.1" stroke="#000000" stroke-width="1" x1="65" y1="327" x2="1018" y2="327"/>
<line opacity="0.1" stroke="#000000" stroke-width="1" x1="65" y1="323" x2="1018" y2="323"/>
<line opacity="0.1" stroke="#000000" stroke-width="1" x1="65" y1="319" x2="1018" y2="319"/>
<line opacity="0.1" stroke="#000000" stroke-width="1" x1="65" y1="314" x2="1018" y2="314"/>
<line opacity="0.1" stroke="#000000" stroke-width="1" x1="65" y1="310" x2="1018" y2="310"/>
<line opacity="0.1" stroke="#000000" stroke-width="1" x1="65" y1="305" x2="1018" y2="305"/>
<line opacity="0.1" stroke="#000000" stroke-width="1" x1="65" y1="301" x2="1018" y2="301"/>
<line opacity="0.1" stroke="#000000" stroke-width="1" x1="65" y1="297" x2="1018" y2="297"/>
<line opacity="0.1" stroke="#000000" stroke-width="1" x1="65" y1="292" x2="1018" y2="292"/>
<line opacity="0.1" stroke="#000000" stroke-width="1" x1="65" y1="288" x2="1018" y2="288"/>
<line opacity="0.1" stroke="#000000" stroke-width="1" x1="65" y1="283" x2="1018" y2="283"/>
<line opacity="0.1" stroke="#000000" stroke-width="1" x1="65" y1="279" x2="1018" y2="279"/>
<line opacity="0.1" stroke="#000000" stroke-width="1" x1="65" y1="275" x2="1018" y2="275"/>
<line opacity="0.1" stroke="#000000" stroke-width="1" x1="65" y1="270" x2="1018" y2="270"/>
<line opacity="0.1" stroke="#000000" stroke-width="1" x1="65" y1="266" x2="1018" y2="266"/>
<line opacity="0.1" stroke="#000000" stroke-width="1" x1="65" y1="261" x2="1018" y2="261"/>
<line opacity="0.1" stroke="#000000" stroke-width="1" x1="65" y1="257" x2="1018" y2="257"/>
<line opacity="0.1" stroke="#000000" stroke-width="1" x1="65" y1="252" x2="1018" y2="252"/>
<line opacity="0.1" stroke="#000000" stroke-width="1" x1="65" y1="248" x2="1018" y2="248"/>
<line opacity="0.1" stroke="#000000" stroke-width="1" x1="65" y1="244" x2="1018" y2="244"/>
<line opacity="0.1" stroke="#000000" stroke-width="1" x1="65" y1="239" x2="1018" y2="239"/>
<line opacity="0.1" stroke="#000000" stroke-width="1" x1="65" y1="235" x2="1018" y2="235"/>
<line opacity="0.1" stroke="#000000" stroke-width="1" x1="65" y1="230" x2="1018" y2="230"/>
<line opacity="0.1" stroke="#000000" stroke-width="1" x1="65" y1="226" x2="1018" y2="226"/>
<line opacity="0.1" stroke="#000000" stroke-width="1" x1="65" y1="222" x2="1018" y2="222"/>
<line opacity="0.1" stroke="#000000" stroke-width="1" x1="65" y1="217" x2="1018" y2="217"/>
<line opacity="0.1" stroke="#000000" stroke-width="1" x1="65" y1="213" x2="1018" y2="213"/>
<line opacity="0.1" stroke="#000000" stroke-width="1" x1="65" y1="208" x2="1018" y2="208"/>
<line opacity="0.1" stroke="#000000" stroke-width="1" x1="65" y1="204" x2="1018" y2="204"/>
<line opacity="0.1" stroke="#000000" stroke-width="1" x1="65" y1="200" x2="1018" y2="200"/>
<line opacity="0.1" stroke="#000000" stroke-width="1" x1="65" y1="195" x2="1018" y2="195"/>
<line opacity="0.1" stroke="#000000" stroke-width="1" x1="65" y1="191" x2="1018" y2="191"/>
<line opacity="0.1" stroke="#000000" stroke-width="1" x1="65" y1="186" x2="1018" y2="186"/>
<line opacity="0.1" stroke="#000000" stroke-width="1" x1="65" y1="182" x2="1018" y2="182"/>
<line opacity="0.1" stroke="#000000" stroke-width="1" x1="65" y1="177" x2="1018" y2="177"/>
<line opacity="0.1" stroke="#000000" stroke-width="1" x1="65" y1="173" x2="1018" y2="173"/>
<line opacity="0.1" stroke="#000000" stroke-width="1" x1="65" y1="169" x2="1018" y2="169"/>
<line opacity="0.1" stroke="#000000" stroke-width="1" x1="65" y1="164" x2="1018" y2="164"/>
<line opacity="0.1" stroke="#000000" stroke-width="1" x1="65" y1="160" x2="1018" y2="160"/>
<line opacity="0.1" stroke="#000000" stroke-width="1" x1="65" y1="155" x2="1018" y2="155"/>
<line opacity="0.1" stroke="#000000" stroke-width="1" x1="65" y1="151" x2="1018" y2="151"/>
<line opacity="0.1" stroke="#000000" stroke-width="1" x1="65" y1="147" x2="1018" y2="147"/>
<line opacity="0.1" stroke="#000000" stroke-width="1" x1="65" y1="142" x2="1018" y2="142"/>
<line opacity="0.1" stroke="#000000" stroke-width="1" x1="65" y1="138" x2="1018" y2="138"/>
<line opacity="0.1" stroke="#000000" stroke-width="1" x1="65" y1="133" x2="1018" y2="133"/>
<line opacity="0.1" stroke="#000000" stroke-width="1" x1="65" y1="129" x2="1018" y2="129"/>
<line opacity="0.1" stroke="#000000" stroke-width="1" x1="65" y1="125" x2="1018" y2="125"/>
<line opacity="0.1" stroke="#000000" stroke-width="1" x1="65" y1="120" x2="1018" y2="120"/>
<line opacity="0.1" stroke="#000000" stroke-width="1" x1="65" y1="116" x2="1018" y2="116"/>
<line opacity="0.1" stroke="#000000" stroke-width="1" x1="65" y1="111" x2="1018" y2="111"/>
<line opacity="0.1" stroke="#000000" stroke-width="1" x1="65" y1="107" x2="1018" y2="107"/>
<line opacity="0.1" stroke="#000000" stroke-width="1" x1="65" y1="103" x2="1018" y2="103"/>
<line opacity="0.1" stroke="#000000" stroke-width="1" x1="65" y1="98" x2="1018" y2="98"/>
<line opacity="0.1" stroke="#000000" stroke-width="1" x1="65" y1="94" x2="1018" y2="94"/>
<line opacity="0.1" stroke="#000000" stroke-width="1" x1="65" y1="89" x2="1018" y2="89"/>
<line opacity="0.1" stroke="#000000" stroke-width="1" x1="65" y1="85" x2="1018" y2="85"/>
<line opacity="0.1" stroke="#000000" stroke-width="1" x1="65" y1="80" x2="1018" y2="80"/>
<line opacity="0.1" stroke="#000000" stroke-width="1" x1="65" y1="76" x2="1018" y2="76"/>
<line opacity="0.1" stroke="#000000" stroke-width="1" x1="65" y1="72" x2="1018" y2="72"/>
<line opacity="0.1" stroke="#000000" stroke-width="1" x1="65" y1="67" x2="1018" y2="67"/>
<line opacity="0.1" stroke="#000000" stroke-width="1" x1="65" y1="63" x2="1018" y2="63"/>
<line opacity="0.1" stroke="#000000" stroke-width="1" x1="65" y1="58" x2="1018" y2="58"/>
<line opacity="0.1" stroke="#000000" stroke-width="1" x1="65" y1="54" x2="1018" y2="54"/>
<line opacity="0.1" stroke="#000000" stroke-width="1" x1="65" y1="50" x2="1018" y2="50"/>
<line opacity="0.1" stroke="#000000" stroke-width="1" x1="65" y1="45" x2="1018" y2="45"/>
<line opacity="0.1" stroke="#000000" stroke-width="1" x1="65" y1="41" x2="1018" y2="41"/>
<line opacity="0.1" stroke="#000000" stroke-width="1" x1="65" y1="36" x2="1018" y2="36"/>
<line opacity="0.1" stroke="#000000" stroke-width="1" x1="65" y1="32" x2="1018" y2="32"/>
<line opacity="0.1" stroke="#000000" stroke-width="1" x1="65" y1="28" x2="1018" y2="28"/>
<line opacity="0.1" stroke="#000000" stroke-width="1" x1="65" y1="23" x2="1018" y2="23"/>
<line opacity="0.1" stroke="#000000" stroke-width="1" x1="65" y1="19" x2="1018" y2="19"/>
<line opacity="0.1" stroke="#000000" stroke-width="1" x1="65" y1="14" x2="1018" y2="14"/>
<line opacity="0.1" stroke="#000000" stroke-width="1" x1="65" y1="10" x2="1018" y2="10"/>
<text x="5" y="226" dy="0.76em" text-anchor="middle" font-family="sans-serif" font-size="24.193548387096776" opacity="1" fill="#000000" transform="rotate(270, 5, 226)">
EER
</text>
<text x="542" y="507" dy="-0.5ex" text-anchor="middle" font-family="sans-serif" font-size="24.193548387096776" opacity="1" fill="#000000">
Dataset
</text>
<line opacity="0.3" stroke="#FFFFFF" stroke-width="1" x1="65" y1="446" x2="1018" y2="446"/>
<line opacity="0.3" stroke="#FFFFFF" stroke-width="1" x1="65" y1="402" x2="1018" y2="402"/>
<line opacity="0.3" stroke="#FFFFFF" stroke-width="1" x1="65" y1="358" x2="1018" y2="358"/>
<line opacity="0.3" stroke="#FFFFFF" stroke-width="1" x1="65" y1="314" x2="1018" y2="314"/>
<line opacity="0.3" stroke="#FFFFFF" stroke-width="1" x1="65" y1="270" x2="1018" y2="270"/>
<line opacity="0.3" stroke="#FFFFFF" stroke-width="1" x1="65" y1="226" x2="1018" y2="226"/>
<line opacity="0.3" stroke="#FFFFFF" stroke-width="1" x1="65" y1="182" x2="1018" y2="182"/>
<line opacity="0.3" stroke="#FFFFFF" stroke-width="1" x1="65" y1="138" x2="1018" y2="138"/>
<line opacity="0.3" stroke="#FFFFFF" stroke-width="1" x1="65" y1="94" x2="1018" y2="94"/>
<line opacity="0.3" stroke="#FFFFFF" stroke-width="1" x1="65" y1="50" x2="1018" y2="50"/>
<line opacity="0.3" stroke="#FFFFFF" stroke-width="1" x1="65" y1="5" x2="1018" y2="5"/>
<polyline fill="none" opacity="1" stroke="#000000" stroke-width="1" points="64,5 64,446 "/>
<text x="55" y="446" dy="0.5ex" text-anchor="end" font-family="sans-serif" font-size="9.67741935483871" opacity="1" fill="#000000">
0.0
</text>
<polyline fill="none" opacity="1" stroke="#000000" stroke-width="1" points="59,446 64,446 "/>
<text x="55" y="402" dy="0.5ex" text-anchor="end" font-family="sans-serif" font-size="9.67741935483871" opacity="1" fill="#000000">
0.1
</text>
<polyline fill="none" opacity="1" stroke="#000000" stroke-width="1" points="59,402 64,402 "/>
<text x="55" y="358" dy="0.5ex" text-anchor="end" font-family="sans-serif" font-size="9.67741935483871" opacity="1" fill="#000000">
0.2
</text>
<polyline fill="none" opacity="1" stroke="#000000" stroke-width="1" points="59,358 64,358 "/>
<text x="55" y="314" dy="0.5ex" text-anchor="end" font-family="sans-serif" font-size="9.67741935483871" opacity="1" fill="#000000">
0.3
</text>
<polyline fill="none" opacity="1" stroke="#000000" stroke-width="1" points="59,314 64,314 "/>
<text x="55" y="270" dy="0.5ex" text-anchor="end" font-family="sans-serif" font-size="9.67741935483871" opacity="1" fill="#000000">
0.4
</text>
<polyline fill="none" opacity="1" stroke="#000000" stroke-width="1" points="59,270 64,270 "/>
<text x="55" y="226" dy="0.5ex" text-anchor="end" font-family="sans-serif" font-size="9.67741935483871" opacity="1" fill="#000000">
0.5
</text>
<polyline fill="none" opacity="1" stroke="#000000" stroke-width="1" points="59,226 64,226 "/>
<text x="55" y="182" dy="0.5ex" text-anchor="end" font-family="sans-serif" font-size="9.67741935483871" opacity="1" fill="#000000">
0.6
</text>
<polyline fill="none" opacity="1" stroke="#000000" stroke-width="1" points="59,182 64,182 "/>
<text x="55" y="138" dy="0.5ex" text-anchor="end" font-family="sans-serif" font-size="9.67741935483871" opacity="1" fill="#000000">
0.7
</text>
<polyline fill="none" opacity="1" stroke="#000000" stroke-width="1" points="59,138 64,138 "/>
<text x="55" y="94" dy="0.5ex" text-anchor="end" font-family="sans-serif" font-size="9.67741935483871" opacity="1" fill="#000000">
0.8
</text>
<polyline fill="none" opacity="1" stroke="#000000" stroke-width="1" points="59,94 64,94 "/>
<text x="55" y="50" dy="0.5ex" text-anchor="end" font-family="sans-serif" font-size="9.67741935483871" opacity="1" fill="#000000">
0.9
</text>
<polyline fill="none" opacity="1" stroke="#000000" stroke-width="1" points="59,50 64,50 "/>
<text x="55" y="5" dy="0.5ex" text-anchor="end" font-family="sans-serif" font-size="9.67741935483871" opacity="1" fill="#000000">
1.0
</text>
<polyline fill="none" opacity="1" stroke="#000000" stroke-width="1" points="59,5 64,5 "/>
<polyline fill="none" opacity="1" stroke="#000000" stroke-width="1" points="65,447 1018,447 "/>
<text x="65" y="457" dy="0.76em" text-anchor="middle" font-family="sans-serif" font-size="24.193548387096776" opacity="1" fill="#000000">

</text>
<polyline fill="none" opacity="1" stroke="#000000" stroke-width="1" points="65,447 65,452 "/>
<text x="223" y="457" dy="0.76em" text-anchor="middle" font-family="sans-serif" font-size="24.193548387096776" opacity="1" fill="#000000">
mnist
</text>
<polyline fill="none" opacity="1" stroke="#000000" stroke-width="1" points="223,447 223,452 "/>
<text x="382" y="457" dy="0.76em" text-anchor="middle" font-family="sans-serif" font-size="24.193548387096776" opacity="1" fill="#000000">

</text>
<polyline fill="none" opacity="1" stroke="#000000" stroke-width="1" points="382,447 382,452 "/>
<text x="541" y="457" dy="0.76em" text-anchor="middle" font-family="sans-serif" font-size="24.193548387096776" opacity="1" fill="#000000">
chime home
</text>
<polyline fill="none" opacity="1" stroke="#000000" stroke-width="1" points="541,447 541,452 "/>
<text x="700" y="457" dy="0.76em" text-anchor="middle" font-family="sans-serif" font-size="24.193548387096776" opacity="1" fill="#000000">

</text>
<polyline fill="none" opacity="1" stroke="#000000" stroke-width="1" points="700,447 700,452 "/>
<text x="859" y="457" dy="0.76em" text-anchor="middle" font-family="sans-serif" font-size="24.193548387096776" opacity="1" fill="#000000">
baved
</text>
<polyline fill="none" opacity="1" stroke="#000000" stroke-width="1" points="859,447 859,452 "/>
<text x="1018" y="457" dy="0.76em" text-anchor="middle" font-family="sans-serif" font-size="24.193548387096776" opacity="1" fill="#000000">

</text>
<polyline fill="none" opacity="1" stroke="#000000" stroke-width="1" points="1018,447 1018,452 "/>
<rect x="96" y="255" width="40" height="191" opacity="1" fill="#FFFF00" stroke="none"/>
<rect x="414" y="226" width="40" height="220" opacity="1" fill="#FFFF00" stroke="none"/>
<rect x="732" y="275" width="39" height="171" opacity="1" fill="#FFFF00" stroke="none"/>
<rect x="168" y="310" width="39" height="136" opacity="1" fill="#0000FF" stroke="none"/>
<rect x="485" y="239" width="40" height="207" opacity="1" fill="#0000FF" stroke="none"/>
<rect x="803" y="308" width="40" height="138" opacity="1" fill="#0000FF" stroke="none"/>
<rect x="239" y="305" width="40" height="141" opacity="1" fill="#00FF00" stroke="none"/>
<rect x="557" y="252" width="40" height="194" opacity="1" fill="#00FF00" stroke="none"/>
<rect x="875" y="310" width="39" height="136" opacity="1" fill="#00FF00" stroke="none"/>
<rect x="311" y="358" width="39" height="88" opacity="1" fill="#FF0000" stroke="none"/>
<rect x="628" y="270" width="40" height="176" opacity="1" fill="#FF0000" stroke="none"/>
<rect x="865" y="10" width="149" height="157" opacity="0.8" fill="#FFFFFF" stroke="none"/>
<rect x="865" y="10" width="149" height="157" opacity="1" fill="none" stroke="#000000"/>
<text x="905" y="20" dy="0.76em" text-anchor="start" font-family="sans-serif" font-size="24.193548387096776" opacity="1" fill="#000000">
spectrum
</text>
<text x="905" y="58" dy="0.76em" text-anchor="start" font-family="sans-serif" font-size="24.193548387096776" opacity="1" fill="#000000">
ld-lpc
</text>
<text x="905" y="95" dy="0.76em" text-anchor="start" font-family="sans-serif" font-size="24.193548387096776" opacity="1" fill="#000000">
burg-lpc
</text>
<text x="905" y="133" dy="0.76em" text-anchor="start" font-family="sans-serif" font-size="24.193548387096776" opacity="1" fill="#000000">
liftered
</text>
<polyline fill="none" opacity="1" stroke="#FFFF00" stroke-width="10" points="875,32 895,32 "/>
<polyline fill="none" opacity="1" stroke="#0000FF" stroke-width="10" points="875,70 895,70 "/>
<polyline fill="none" opacity="1" stroke="#00FF00" stroke-width="10" points="875,107 895,107 "/>
<polyline fill="none" opacity="1" stroke="#FF0000" stroke-width="10" points="875,145 895,145 "/>
</svg>
