<svg width="1024" height="1536" viewBox="0 0 1024 1536" xmlns="http://www.w3.org/2000/svg">
<rect x="0" y="0" width="1024" height="1536" opacity="1" fill="#FFFFFF" stroke="none"/>
<line opacity="0.1" stroke="#000000" stroke-width="1" x1="55" y1="1480" x2="55" y2="5"/>
<line opacity="0.1" stroke="#000000" stroke-width="1" x1="67" y1="1480" x2="67" y2="5"/>
<line opacity="0.1" stroke="#000000" stroke-width="1" x1="80" y1="1480" x2="80" y2="5"/>
<line opacity="0.1" stroke="#000000" stroke-width="1" x1="93" y1="1480" x2="93" y2="5"/>
<line opacity="0.1" stroke="#000000" stroke-width="1" x1="106" y1="1480" x2="106" y2="5"/>
<line opacity="0.1" stroke="#000000" stroke-width="1" x1="119" y1="1480" x2="119" y2="5"/>
<line opacity="0.1" stroke="#000000" stroke-width="1" x1="132" y1="1480" x2="132" y2="5"/>
<line opacity="0.1" stroke="#000000" stroke-width="1" x1="144" y1="1480" x2="144" y2="5"/>
<line opacity="0.1" stroke="#000000" stroke-width="1" x1="157" y1="1480" x2="157" y2="5"/>
<line opacity="0.1" stroke="#000000" stroke-width="1" x1="170" y1="1480" x2="170" y2="5"/>
<line opacity="0.1" stroke="#000000" stroke-width="1" x1="183" y1="1480" x2="183" y2="5"/>
<line opacity="0.1" stroke="#000000" stroke-width="1" x1="196" y1="1480" x2="196" y2="5"/>
<line opacity="0.1" stroke="#000000" stroke-width="1" x1="209" y1="1480" x2="209" y2="5"/>
<line opacity="0.1" stroke="#000000" stroke-width="1" x1="221" y1="1480" x2="221" y2="5"/>
<line opacity="0.1" stroke="#000000" stroke-width="1" x1="234" y1="1480" x2="234" y2="5"/>
<line opacity="0.1" stroke="#000000" stroke-width="1" x1="247" y1="1480" x2="247" y2="5"/>
<line opacity="0.1" stroke="#000000" stroke-width="1" x1="260" y1="1480" x2="260" y2="5"/>
<line opacity="0.1" stroke="#000000" stroke-width="1" x1="273" y1="1480" x2="273" y2="5"/>
<line opacity="0.1" stroke="#000000" stroke-width="1" x1="286" y1="1480" x2="286" y2="5"/>
<line opacity="0.1" stroke="#000000" stroke-width="1" x1="298" y1="1480" x2="298" y2="5"/>
<line opacity="0.1" stroke="#000000" stroke-width="1" x1="311" y1="1480" x2="311" y2="5"/>
<line opacity="0.1" stroke="#000000" stroke-width="1" x1="324" y1="1480" x2="324" y2="5"/>
<line opacity="0.1" stroke="#000000" stroke-width="1" x1="337" y1="1480" x2="337" y2="5"/>
<line opacity="0.1" stroke="#000000" stroke-width="1" x1="350" y1="1480" x2="350" y2="5"/>
<line opacity="0.1" stroke="#000000" stroke-width="1" x1="363" y1="1480" x2="363" y2="5"/>
<line opacity="0.1" stroke="#000000" stroke-width="1" x1="376" y1="1480" x2="376" y2="5"/>
<line opacity="0.1" stroke="#000000" stroke-width="1" x1="388" y1="1480" x2="388" y2="5"/>
<line opacity="0.1" stroke="#000000" stroke-width="1" x1="401" y1="1480" x2="401" y2="5"/>
<line opacity="0.1" stroke="#000000" stroke-width="1" x1="414" y1="1480" x2="414" y2="5"/>
<line opacity="0.1" stroke="#000000" stroke-width="1" x1="427" y1="1480" x2="427" y2="5"/>
<line opacity="0.1" stroke="#000000" stroke-width="1" x1="440" y1="1480" x2="440" y2="5"/>
<line opacity="0.1" stroke="#000000" stroke-width="1" x1="453" y1="1480" x2="453" y2="5"/>
<line opacity="0.1" stroke="#000000" stroke-width="1" x1="465" y1="1480" x2="465" y2="5"/>
<line opacity="0.1" stroke="#000000" stroke-width="1" x1="478" y1="1480" x2="478" y2="5"/>
<line opacity="0.1" stroke="#000000" stroke-width="1" x1="491" y1="1480" x2="491" y2="5"/>
<line opacity="0.1" stroke="#000000" stroke-width="1" x1="504" y1="1480" x2="504" y2="5"/>
<line opacity="0.1" stroke="#000000" stroke-width="1" x1="517" y1="1480" x2="517" y2="5"/>
<line opacity="0.1" stroke="#000000" stroke-width="1" x1="530" y1="1480" x2="530" y2="5"/>
<line opacity="0.1" stroke="#000000" stroke-width="1" x1="542" y1="1480" x2="542" y2="5"/>
<line opacity="0.1" stroke="#000000" stroke-width="1" x1="555" y1="1480" x2="555" y2="5"/>
<line opacity="0.1" stroke="#000000" stroke-width="1" x1="568" y1="1480" x2="568" y2="5"/>
<line opacity="0.1" stroke="#000000" stroke-width="1" x1="581" y1="1480" x2="581" y2="5"/>
<line opacity="0.1" stroke="#000000" stroke-width="1" x1="594" y1="1480" x2="594" y2="5"/>
<line opacity="0.1" stroke="#000000" stroke-width="1" x1="607" y1="1480" x2="607" y2="5"/>
<line opacity="0.1" stroke="#000000" stroke-width="1" x1="619" y1="1480" x2="619" y2="5"/>
<line opacity="0.1" stroke="#000000" stroke-width="1" x1="632" y1="1480" x2="632" y2="5"/>
<line opacity="0.1" stroke="#000000" stroke-width="1" x1="645" y1="1480" x2="645" y2="5"/>
<line opacity="0.1" stroke="#000000" stroke-width="1" x1="658" y1="1480" x2="658" y2="5"/>
<line opacity="0.1" stroke="#000000" stroke-width="1" x1="671" y1="1480" x2="671" y2="5"/>
<line opacity="0.1" stroke="#000000" stroke-width="1" x1="684" y1="1480" x2="684" y2="5"/>
<line opacity="0.1" stroke="#000000" stroke-width="1" x1="697" y1="1480" x2="697" y2="5"/>
<line opacity="0.1" stroke="#000000" stroke-width="1" x1="709" y1="1480" x2="709" y2="5"/>
<line opacity="0.1" stroke="#000000" stroke-width="1" x1="722" y1="1480" x2="722" y2="5"/>
<line opacity="0.1" stroke="#000000" stroke-width="1" x1="735" y1="1480" x2="735" y2="5"/>
<line opacity="0.1" stroke="#000000" stroke-width="1" x1="748" y1="1480" x2="748" y2="5"/>
<line opacity="0.1" stroke="#000000" stroke-width="1" x1="761" y1="1480" x2="761" y2="5"/>
<line opacity="0.1" stroke="#000000" stroke-width="1" x1="774" y1="1480" x2="774" y2="5"/>
<line opacity="0.1" stroke="#000000" stroke-width="1" x1="786" y1="1480" x2="786" y2="5"/>
<line opacity="0.1" stroke="#000000" stroke-width="1" x1="799" y1="1480" x2="799" y2="5"/>
<line opacity="0.1" stroke="#000000" stroke-width="1" x1="812" y1="1480" x2="812" y2="5"/>
<line opacity="0.1" stroke="#000000" stroke-width="1" x1="825" y1="1480" x2="825" y2="5"/>
<line opacity="0.1" stroke="#000000" stroke-width="1" x1="838" y1="1480" x2="838" y2="5"/>
<line opacity="0.1" stroke="#000000" stroke-width="1" x1="851" y1="1480" x2="851" y2="5"/>
<line opacity="0.1" stroke="#000000" stroke-width="1" x1="863" y1="1480" x2="863" y2="5"/>
<line opacity="0.1" stroke="#000000" stroke-width="1" x1="876" y1="1480" x2="876" y2="5"/>
<line opacity="0.1" stroke="#000000" stroke-width="1" x1="889" y1="1480" x2="889" y2="5"/>
<line opacity="0.1" stroke="#000000" stroke-width="1" x1="902" y1="1480" x2="902" y2="5"/>
<line opacity="0.1" stroke="#000000" stroke-width="1" x1="915" y1="1480" x2="915" y2="5"/>
<line opacity="0.1" stroke="#000000" stroke-width="1" x1="928" y1="1480" x2="928" y2="5"/>
<line opacity="0.1" stroke="#000000" stroke-width="1" x1="940" y1="1480" x2="940" y2="5"/>
<line opacity="0.1" stroke="#000000" stroke-width="1" x1="953" y1="1480" x2="953" y2="5"/>
<line opacity="0.1" stroke="#000000" stroke-width="1" x1="966" y1="1480" x2="966" y2="5"/>
<line opacity="0.1" stroke="#000000" stroke-width="1" x1="979" y1="1480" x2="979" y2="5"/>
<line opacity="0.1" stroke="#000000" stroke-width="1" x1="992" y1="1480" x2="992" y2="5"/>
<line opacity="0.1" stroke="#000000" stroke-width="1" x1="1005" y1="1480" x2="1005" y2="5"/>
<line opacity="0.1" stroke="#000000" stroke-width="1" x1="1018" y1="1480" x2="1018" y2="5"/>
<line opacity="0.1" stroke="#000000" stroke-width="1" x1="55" y1="1466" x2="1018" y2="1466"/>
<line opacity="0.1" stroke="#000000" stroke-width="1" x1="55" y1="1451" x2="1018" y2="1451"/>
<line opacity="0.1" stroke="#000000" stroke-width="1" x1="55" y1="1437" x2="1018" y2="1437"/>
<line opacity="0.1" stroke="#000000" stroke-width="1" x1="55" y1="1422" x2="1018" y2="1422"/>
<line opacity="0.1" stroke="#000000" stroke-width="1" x1="55" y1="1407" x2="1018" y2="1407"/>
<line opacity="0.1" stroke="#000000" stroke-width="1" x1="55" y1="1393" x2="1018" y2="1393"/>
<line opacity="0.1" stroke="#000000" stroke-width="1" x1="55" y1="1378" x2="1018" y2="1378"/>
<line opacity="0.1" stroke="#000000" stroke-width="1" x1="55" y1="1364" x2="1018" y2="1364"/>
<line opacity="0.1" stroke="#000000" stroke-width="1" x1="55" y1="1349" x2="1018" y2="1349"/>
<line opacity="0.1" stroke="#000000" stroke-width="1" x1="55" y1="1334" x2="1018" y2="1334"/>
<line opacity="0.1" stroke="#000000" stroke-width="1" x1="55" y1="1320" x2="1018" y2="1320"/>
<line opacity="0.1" stroke="#000000" stroke-width="1" x1="55" y1="1305" x2="1018" y2="1305"/>
<line opacity="0.1" stroke="#000000" stroke-width="1" x1="55" y1="1291" x2="1018" y2="1291"/>
<line opacity="0.1" stroke="#000000" stroke-width="1" x1="55" y1="1276" x2="1018" y2="1276"/>
<line opacity="0.1" stroke="#000000" stroke-width="1" x1="55" y1="1261" x2="1018" y2="1261"/>
<line opacity="0.1" stroke="#000000" stroke-width="1" x1="55" y1="1247" x2="1018" y2="1247"/>
<line opacity="0.1" stroke="#000000" stroke-width="1" x1="55" y1="1232" x2="1018" y2="1232"/>
<line opacity="0.1" stroke="#000000" stroke-width="1" x1="55" y1="1218" x2="1018" y2="1218"/>
<line opacity="0.1" stroke="#000000" stroke-width="1" x1="55" y1="1203" x2="1018" y2="1203"/>
<line opacity="0.1" stroke="#000000" stroke-width="1" x1="55" y1="1188" x2="1018" y2="1188"/>
<line opacity="0.1" stroke="#000000" stroke-width="1" x1="55" y1="1174" x2="1018" y2="1174"/>
<line opacity="0.1" stroke="#000000" stroke-width="1" x1="55" y1="1159" x2="1018" y2="1159"/>
<line opacity="0.1" stroke="#000000" stroke-width="1" x1="55" y1="1145" x2="1018" y2="1145"/>
<line opacity="0.1" stroke="#000000" stroke-width="1" x1="55" y1="1130" x2="1018" y2="1130"/>
<line opacity="0.1" stroke="#000000" stroke-width="1" x1="55" y1="1115" x2="1018" y2="1115"/>
<line opacity="0.1" stroke="#000000" stroke-width="1" x1="55" y1="1101" x2="1018" y2="1101"/>
<line opacity="0.1" stroke="#000000" stroke-width="1" x1="55" y1="1086" x2="1018" y2="1086"/>
<line opacity="0.1" stroke="#000000" stroke-width="1" x1="55" y1="1072" x2="1018" y2="1072"/>
<line opacity="0.1" stroke="#000000" stroke-width="1" x1="55" y1="1057" x2="1018" y2="1057"/>
<line opacity="0.1" stroke="#000000" stroke-width="1" x1="55" y1="1042" x2="1018" y2="1042"/>
<line opacity="0.1" stroke="#000000" stroke-width="1" x1="55" y1="1028" x2="1018" y2="1028"/>
<line opacity="0.1" stroke="#000000" stroke-width="1" x1="55" y1="1013" x2="1018" y2="1013"/>
<line opacity="0.1" stroke="#000000" stroke-width="1" x1="55" y1="999" x2="1018" y2="999"/>
<line opacity="0.1" stroke="#000000" stroke-width="1" x1="55" y1="984" x2="1018" y2="984"/>
<line opacity="0.1" stroke="#000000" stroke-width="1" x1="55" y1="969" x2="1018" y2="969"/>
<line opacity="0.1" stroke="#000000" stroke-width="1" x1="55" y1="955" x2="1018" y2="955"/>
<line opacity="0.1" stroke="#000000" stroke-width="1" x1="55" y1="940" x2="1018" y2="940"/>
<line opacity="0.1" stroke="#000000" stroke-width="1" x1="55" y1="926" x2="1018" y2="926"/>
<line opacity="0.1" stroke="#000000" stroke-width="1" x1="55" y1="911" x2="1018" y2="911"/>
<line opacity="0.1" stroke="#000000" stroke-width="1" x1="55" y1="896" x2="1018" y2="896"/>
<line opacity="0.1" stroke="#000000" stroke-width="1" x1="55" y1="882" x2="1018" y2="882"/>
<line opacity="0.1" stroke="#000000" stroke-width="1" x1="55" y1="867" x2="1018" y2="867"/>
<line opacity="0.1" stroke="#000000" stroke-width="1" x1="55" y1="853" x2="1018" y2="853"/>
<line opacity="0.1" stroke="#000000" stroke-width="1" x1="55" y1="838" x2="1018" y2="838"/>
<line opacity="0.1" stroke="#000000" stroke-width="1" x1="55" y1="823" x2="1018" y2="823"/>
<line opacity="0.1" stroke="#000000" stroke-width="1" x1="55" y1="809" x2="1018" y2="809"/>
<line opacity="0.1" stroke="#000000" stroke-width="1" x1="55" y1="794" x2="1018" y2="794"/>
<line opacity="0.1" stroke="#000000" stroke-width="1" x1="55" y1="780" x2="1018" y2="780"/>
<line opacity="0.1" stroke="#000000" stroke-width="1" x1="55" y1="765" x2="1018" y2="765"/>
<line opacity="0.1" stroke="#000000" stroke-width="1" x1="55" y1="750" x2="1018" y2="750"/>
<line opacity="0.1" stroke="#000000" stroke-width="1" x1="55" y1="736" x2="1018" y2="736"/>
<line opacity="0.1" stroke="#000000" stroke-width="1" x1="55" y1="721" x2="1018" y2="721"/>
<line opacity="0.1" stroke="#000000" stroke-width="1" x1="55" y1="706" x2="1018" y2="706"/>
<line opacity="0.1" stroke="#000000" stroke-width="1" x1="55" y1="692" x2="1018" y2="692"/>
<line opacity="0.1" stroke="#000000" stroke-width="1" x1="55" y1="677" x2="1018" y2="677"/>
<line opacity="0.1" stroke="#000000" stroke-width="1" x1="55" y1="663" x2="1018" y2="663"/>
<line opacity="0.1" stroke="#000000" stroke-width="1" x1="55" y1="648" x2="1018" y2="648"/>
<line opacity="0.1" stroke="#000000" stroke-width="1" x1="55" y1="633" x2="1018" y2="633"/>
<line opacity="0.1" stroke="#000000" stroke-width="1" x1="55" y1="619" x2="1018" y2="619"/>
<line opacity="0.1" stroke="#000000" stroke-width="1" x1="55" y1="604" x2="1018" y2="604"/>
<line opacity="0.1" stroke="#000000" stroke-width="1" x1="55" y1="590" x2="1018" y2="590"/>
<line opacity="0.1" stroke="#000000" stroke-width="1" x1="55" y1="575" x2="1018" y2="575"/>
<line opacity="0.1" stroke="#000000" stroke-width="1" x1="55" y1="560" x2="1018" y2="560"/>
<line opacity="0.1" stroke="#000000" stroke-width="1" x1="55" y1="546" x2="1018" y2="546"/>
<line opacity="0.1" stroke="#000000" stroke-width="1" x1="55" y1="531" x2="1018" y2="531"/>
<line opacity="0.1" stroke="#000000" stroke-width="1" x1="55" y1="517" x2="1018" y2="517"/>
<line opacity="0.1" stroke="#000000" stroke-width="1" x1="55" y1="502" x2="1018" y2="502"/>
<line opacity="0.1" stroke="#000000" stroke-width="1" x1="55" y1="487" x2="1018" y2="487"/>
<line opacity="0.1" stroke="#000000" stroke-width="1" x1="55" y1="473" x2="1018" y2="473"/>
<line opacity="0.1" stroke="#000000" stroke-width="1" x1="55" y1="458" x2="1018" y2="458"/>
<line opacity="0.1" stroke="#000000" stroke-width="1" x1="55" y1="444" x2="1018" y2="444"/>
<line opacity="0.1" stroke="#000000" stroke-width="1" x1="55" y1="429" x2="1018" y2="429"/>
<line opacity="0.1" stroke="#000000" stroke-width="1" x1="55" y1="414" x2="1018" y2="414"/>
<line opacity="0.1" stroke="#000000" stroke-width="1" x1="55" y1="400" x2="1018" y2="400"/>
<line opacity="0.1" stroke="#000000" stroke-width="1" x1="55" y1="385" x2="1018" y2="385"/>
<line opacity="0.1" stroke="#000000" stroke-width="1" x1="55" y1="371" x2="1018" y2="371"/>
<line opacity="0.1" stroke="#000000" stroke-width="1" x1="55" y1="356" x2="1018" y2="356"/>
<line opacity="0.1" stroke="#000000" stroke-width="1" x1="55" y1="341" x2="1018" y2="341"/>
<line opacity="0.1" stroke="#000000" stroke-width="1" x1="55" y1="327" x2="1018" y2="327"/>
<line opacity="0.1" stroke="#000000" stroke-width="1" x1="55" y1="312" x2="1018" y2="312"/>
<line opacity="0.1" stroke="#000000" stroke-width="1" x1="55" y1="298" x2="1018" y2="298"/>
<line opacity="0.1" stroke="#000000" stroke-width="1" x1="55" y1="283" x2="1018" y2="283"/>
<line opacity="0.1" stroke="#000000" stroke-width="1" x1="55" y1="268" x2="1018" y2="268"/>
<line opacity="0.1" stroke="#000000" stroke-width="1" x1="55" y1="254" x2="1018" y2="254"/>
<line opacity="0.1" stroke="#000000" stroke-width="1" x1="55" y1="239" x2="1018" y2="239"/>
<line opacity="0.1" stroke="#000000" stroke-width="1" x1="55" y1="225" x2="1018" y2="225"/>
<line opacity="0.1" stroke="#000000" stroke-width="1" x1="55" y1="210" x2="1018" y2="210"/>
<line opacity="0.1" stroke="#000000" stroke-width="1" x1="55" y1="195" x2="1018" y2="195"/>
<line opacity="0.1" stroke="#000000" stroke-width="1" x1="55" y1="181" x2="1018" y2="181"/>
<line opacity="0.1" stroke="#000000" stroke-width="1" x1="55" y1="166" x2="1018" y2="166"/>
<line opacity="0.1" stroke="#000000" stroke-width="1" x1="55" y1="152" x2="1018" y2="152"/>
<line opacity="0.1" stroke="#000000" stroke-width="1" x1="55" y1="137" x2="1018" y2="137"/>
<line opacity="0.1" stroke="#000000" stroke-width="1" x1="55" y1="122" x2="1018" y2="122"/>
<line opacity="0.1" stroke="#000000" stroke-width="1" x1="55" y1="108" x2="1018" y2="108"/>
<line opacity="0.1" stroke="#000000" stroke-width="1" x1="55" y1="93" x2="1018" y2="93"/>
<line opacity="0.1" stroke="#000000" stroke-width="1" x1="55" y1="79" x2="1018" y2="79"/>
<line opacity="0.1" stroke="#000000" stroke-width="1" x1="55" y1="64" x2="1018" y2="64"/>
<line opacity="0.1" stroke="#000000" stroke-width="1" x1="55" y1="49" x2="1018" y2="49"/>
<line opacity="0.1" stroke="#000000" stroke-width="1" x1="55" y1="35" x2="1018" y2="35"/>
<line opacity="0.1" stroke="#000000" stroke-width="1" x1="55" y1="20" x2="1018" y2="20"/>
<text x="5" y="743" dy="0.76em" text-anchor="middle" font-family="sans-serif" font-size="40.32258064516129" opacity="1" fill="#000000" transform="rotate(270, 5, 743)">
FAR / FRR
</text>
<text x="537" y="1531" dy="-0.5ex" text-anchor="middle" font-family="sans-serif" font-size="40.32258064516129" opacity="1" fill="#000000">
Threshold
</text>
<line opacity="0.2" stroke="#000000" stroke-width="1" x1="55" y1="1480" x2="55" y2="5"/>
<line opacity="0.2" stroke="#000000" stroke-width="1" x1="183" y1="1480" x2="183" y2="5"/>
<line opacity="0.2" stroke="#000000" stroke-width="1" x1="311" y1="1480" x2="311" y2="5"/>
<line opacity="0.2" stroke="#000000" stroke-width="1" x1="440" y1="1480" x2="440" y2="5"/>
<line opacity="0.2" stroke="#000000" stroke-width="1" x1="568" y1="1480" x2="568" y2="5"/>
<line opacity="0.2" stroke="#000000" stroke-width="1" x1="697" y1="1480" x2="697" y2="5"/>
<line opacity="0.2" stroke="#000000" stroke-width="1" x1="825" y1="1480" x2="825" y2="5"/>
<line opacity="0.2" stroke="#000000" stroke-width="1" x1="953" y1="1480" x2="953" y2="5"/>
<line opacity="0.2" stroke="#000000" stroke-width="1" x1="55" y1="1466" x2="1018" y2="1466"/>
<line opacity="0.2" stroke="#000000" stroke-width="1" x1="55" y1="1320" x2="1018" y2="1320"/>
<line opacity="0.2" stroke="#000000" stroke-width="1" x1="55" y1="1174" x2="1018" y2="1174"/>
<line opacity="0.2" stroke="#000000" stroke-width="1" x1="55" y1="1028" x2="1018" y2="1028"/>
<line opacity="0.2" stroke="#000000" stroke-width="1" x1="55" y1="882" x2="1018" y2="882"/>
<line opacity="0.2" stroke="#000000" stroke-width="1" x1="55" y1="736" x2="1018" y2="736"/>
<line opacity="0.2" stroke="#000000" stroke-width="1" x1="55" y1="590" x2="1018" y2="590"/>
<line opacity="0.2" stroke="#000000" stroke-width="1" x1="55" y1="444" x2="1018" y2="444"/>
<line opacity="0.2" stroke="#000000" stroke-width="1" x1="55" y1="298" x2="1018" y2="298"/>
<line opacity="0.2" stroke="#000000" stroke-width="1" x1="55" y1="152" x2="1018" y2="152"/>
<line opacity="0.2" stroke="#000000" stroke-width="1" x1="55" y1="5" x2="1018" y2="5"/>
<polyline fill="none" opacity="1" stroke="#000000" stroke-width="1" points="54,5 54,1480 "/>
<text x="45" y="1466" dy="0.5ex" text-anchor="end" font-family="sans-serif" font-size="9.67741935483871" opacity="1" fill="#000000">
0.0
</text>
<polyline fill="none" opacity="1" stroke="#000000" stroke-width="1" points="49,1466 54,1466 "/>
<text x="45" y="1320" dy="0.5ex" text-anchor="end" font-family="sans-serif" font-size="9.67741935483871" opacity="1" fill="#000000">
0.1
</text>
<polyline fill="none" opacity="1" stroke="#000000" stroke-width="1" points="49,1320 54,1320 "/>
<text x="45" y="1174" dy="0.5ex" text-anchor="end" font-family="sans-serif" font-size="9.67741935483871" opacity="1" fill="#000000">
0.2
</text>
<polyline fill="none" opacity="1" stroke="#000000" stroke-width="1" points="49,1174 54,1174 "/>
<text x="45" y="1028" dy="0.5ex" text-anchor="end" font-family="sans-serif" font-size="9.67741935483871" opacity="1" fill="#000000">
0.3
</text>
<polyline fill="none" opacity="1" stroke="#000000" stroke-width="1" points="49,1028 54,1028 "/>
<text x="45" y="882" dy="0.5ex" text-anchor="end" font-family="sans-serif" font-size="9.67741935483871" opacity="1" fill="#000000">
0.4
</text>
<polyline fill="none" opacity="1" stroke="#000000" stroke-width="1" points="49,882 54,882 "/>
<text x="45" y="736" dy="0.5ex" text-anchor="end" font-family="sans-serif" font-size="9.67741935483871" opacity="1" fill="#000000">
0.5
</text>
<polyline fill="none" opacity="1" stroke="#000000" stroke-width="1" points="49,736 54,736 "/>
<text x="45" y="590" dy="0.5ex" text-anchor="end" font-family="sans-serif" font-size="9.67741935483871" opacity="1" fill="#000000">
0.6
</text>
<polyline fill="none" opacity="1" stroke="#000000" stroke-width="1" points="49,590 54,590 "/>
<text x="45" y="444" dy="0.5ex" text-anchor="end" font-family="sans-serif" font-size="9.67741935483871" opacity="1" fill="#000000">
0.7
</text>
<polyline fill="none" opacity="1" stroke="#000000" stroke-width="1" points="49,444 54,444 "/>
<text x="45" y="298" dy="0.5ex" text-anchor="end" font-family="sans-serif" font-size="9.67741935483871" opacity="1" fill="#000000">
0.8
</text>
<polyline fill="none" opacity="1" stroke="#000000" stroke-width="1" points="49,298 54,298 "/>
<text x="45" y="152" dy="0.5ex" text-anchor="end" font-family="sans-serif" font-size="9.67741935483871" opacity="1" fill="#000000">
0.9
</text>
<polyline fill="none" opacity="1" stroke="#000000" stroke-width="1" points="49,152 54,152 "/>
<text x="45" y="5" dy="0.5ex" text-anchor="end" font-family="sans-serif" font-size="9.67741935483871" opacity="1" fill="#000000">
1.0
</text>
<polyline fill="none" opacity="1" stroke="#000000" stroke-width="1" points="49,5 54,5 "/>
<polyline fill="none" opacity="1" stroke="#000000" stroke-width="1" points="55,1481 1018,1481 "/>
<text x="55" y="1491" dy="0.76em" text-anchor="middle" font-family="sans-serif" font-size="9.67741935483871" opacity="1" fill="#000000">
100000.0
</text>
<polyline fill="none" opacity="1" stroke="#000000" stroke-width="1" points="55,1481 55,1486 "/>
<text x="183" y="1491" dy="0.76em" text-anchor="middle" font-family="sans-serif" font-size="9.67741935483871" opacity="1" fill="#000000">
120000.0
</text>
<polyline fill="none" opacity="1" stroke="#000000" stroke-width="1" points="183,1481 183,1486 "/>
<text x="311" y="1491" dy="0.76em" text-anchor="middle" font-family="sans-serif" font-size="9.67741935483871" opacity="1" fill="#000000">
140000.0
</text>
<polyline fill="none" opacity="1" stroke="#000000" stroke-width="1" points="311,1481 311,1486 "/>
<text x="440" y="1491" dy="0.76em" text-anchor="middle" font-family="sans-serif" font-size="9.67741935483871" opacity="1" fill="#000000">
160000.0
</text>
<polyline fill="none" opacity="1" stroke="#000000" stroke-width="1" points="440,1481 440,1486 "/>
<text x="568" y="1491" dy="0.76em" text-anchor="middle" font-family="sans-serif" font-size="9.67741935483871" opacity="1" fill="#000000">
180000.0
</text>
<polyline fill="none" opacity="1" stroke="#000000" stroke-width="1" points="568,1481 568,1486 "/>
<text x="697" y="1491" dy="0.76em" text-anchor="middle" font-family="sans-serif" font-size="9.67741935483871" opacity="1" fill="#000000">
200000.0
</text>
<polyline fill="none" opacity="1" stroke="#000000" stroke-width="1" points="697,1481 697,1486 "/>
<text x="825" y="1491" dy="0.76em" text-anchor="middle" font-family="sans-serif" font-size="9.67741935483871" opacity="1" fill="#000000">
220000.0
</text>
<polyline fill="none" opacity="1" stroke="#000000" stroke-width="1" points="825,1481 825,1486 "/>
<text x="953" y="1491" dy="0.76em" text-anchor="middle" font-family="sans-serif" font-size="9.67741935483871" opacity="1" fill="#000000">
240000.0
</text>
<polyline fill="none" opacity="1" stroke="#000000" stroke-width="1" points="953,1481 953,1486 "/>
<polyline fill="none" opacity="1" stroke="#FF0000" stroke-width="2" points="55,5 119,8 183,40 247,194 311,549 376,992 440,1294 504,1422 568,1454 632,1465 697,1466 761,1466 825,1466 889,1466 953,1466 1018,1466 "/>
<polyline fill="none" opacity="1" stroke="#FF0000" stroke-width="1" points="55,1466 119,1466 183,1466 247,1463 311,1438 376,1325 440,1059 504,677 568,348 632,119 697,37 761,12 825,6 889,6 953,5 1018,5 "/>
<polyline fill="none" opacity="0.5" stroke="#0000FF" stroke-width="1" points="55,5 119,5 183,5 247,5 311,5 376,5 440,5 504,5 568,5 632,5 697,5 761,5 825,5 889,5 953,5 1018,5 "/>
<polyline fill="none" opacity="0.5" stroke="#4000FF" stroke-width="1" points="55,5 119,5 183,5 247,5 311,5 376,5 440,5 504,5 568,5 632,5 697,5 761,5 825,5 889,5 953,5 1018,5 "/>
<polyline fill="none" opacity="0.5" stroke="#8000FF" stroke-width="1" points="55,5 119,5 183,5 247,5 311,5 376,5 440,5 504,5 568,5 632,5 697,5 761,5 825,5 889,5 953,5 1018,5 "/>
<polyline fill="none" opacity="1" stroke="#C000FF" stroke-width="1" points="55,5 119,5 183,5 247,5 311,5 376,5 440,5 504,5 568,5 632,5 697,5 761,5 825,5 889,5 953,5 1018,5 "/>
<polyline fill="none" opacity="0.3" stroke="#0000FF" stroke-width="2" points="55,1466 119,1466 183,1466 247,1466 311,1466 376,1466 440,1466 504,1466 568,1466 632,1466 697,1466 761,1466 825,1466 889,1466 953,1466 1018,1466 "/>
<polyline fill="none" opacity="0.3" stroke="#2020FF" stroke-width="1" points="55,5 119,5 183,5 247,5 311,5 376,5 440,5 504,5 568,5 632,5 697,5 761,5 825,5 889,5 953,5 1018,5 "/>
<polyline fill="none" opacity="0.3" stroke="#4040FF" stroke-width="1" points="55,5 119,5 183,5 247,5 311,5 376,5 440,5 504,5 568,5 632,5 697,5 761,5 825,5 889,5 953,5 1018,5 "/>
<polyline fill="none" opacity="0.3" stroke="#6060FF" stroke-width="1" points="55,5 119,5 183,5 247,5 311,5 376,5 440,5 504,5 568,5 632,5 697,5 761,5 825,5 889,5 953,5 1018,5 "/>
<polyline fill="none" opacity="0.3" stroke="#8080FF" stroke-width="2" points="55,1466 119,1466 183,1466 247,1466 311,1466 376,1466 440,1466 504,1466 568,1466 632,1466 697,1466 761,1466 825,1466 889,1466 953,1466 1018,1466 "/>
<polyline fill="none" opacity="0.3" stroke="#A0A0FF" stroke-width="1" points="55,5 119,5 183,5 247,5 311,5 376,5 440,5 504,5 568,5 632,5 697,5 761,5 825,5 889,5 953,5 1018,5 "/>
<polyline fill="none" opacity="0.3" stroke="#C0C0FF" stroke-width="1" points="55,5 119,5 183,5 247,5 311,5 376,5 440,5 504,5 568,5 632,5 697,5 761,5 825,5 889,5 953,5 1018,5 "/>
<polyline fill="none" opacity="0.3" stroke="#E0E0FF" stroke-width="1" points="55,5 119,5 183,5 247,5 311,5 376,5 440,5 504,5 568,5 632,5 697,5 761,5 825,5 889,5 953,5 1018,5 "/>
<polyline fill="none" opacity="0.3" stroke="#0000FF" stroke-width="2" points="55,1466 119,1466 183,1466 247,1466 311,1466 376,1466 440,1466 504,1466 568,1466 632,1466 697,1466 761,1466 825,1466 889,1466 953,1466 1018,1466 "/>
<polyline fill="none" opacity="0.5" stroke="#00FF00" stroke-width="1" points="55,1466 119,1454 183,1443 247,1280 311,1230 376,1183 440,904 504,795 568,667 632,577 697,484 761,372 825,262 889,55 953,20 1018,60 "/>
<polyline fill="none" opacity="0.5" stroke="#40FF00" stroke-width="1" points="55,1458 119,1381 183,1365 247,1249 311,1352 376,980 440,845 504,499 568,421 632,253 697,81 761,77 825,17 889,35 953,7 1018,7 "/>
<polyline fill="none" opacity="0.5" stroke="#80FF00" stroke-width="1" points="55,1461 119,1277 183,1396 247,1173 311,1093 376,1014 440,905 504,706 568,626 632,408 697,318 761,229 825,80 889,70 953,20 1018,15 "/>
<polyline fill="none" opacity="0.5" stroke="#C0FF00" stroke-width="1" points="55,1466 119,1462 183,1326 247,1421 311,1157 376,969 440,700 504,454 568,371 632,124 697,60 761,67 825,10 889,8 953,6 1018,7 "/>
<polyline fill="none" opacity="0.5" stroke="#00FF00" stroke-width="1" points="55,1456 119,1372 183,1312 247,1113 311,1302 376,1034 440,805 504,756 568,661 632,567 697,487 761,323 825,209 889,100 953,75 1018,15 "/>
<polyline fill="none" opacity="0.5" stroke="#40FF00" stroke-width="1" points="55,1462 119,1429 183,1262 247,1220 311,1286 376,949 440,698 504,511 568,313 632,236 697,151 761,34 825,24 889,58 953,10 1018,7 "/>
<polyline fill="none" opacity="0.5" stroke="#80FF00" stroke-width="1" points="55,1480 119,1480 183,1480 247,1480 311,1480 376,1480 440,1480 504,1480 568,1480 632,1480 697,1480 761,1480 825,1480 889,1480 953,1480 1018,1480 "/>
<polyline fill="none" opacity="0.5" stroke="#C0FF00" stroke-width="1" points="55,1237 119,1163 183,1128 247,1113 311,1073 376,1118 440,954 504,1014 568,726 632,602 697,547 761,368 825,214 889,130 953,35 1018,15 "/>
<polyline fill="none" opacity="1" stroke="#00FF00" stroke-width="1" points="55,1459 119,1424 183,1346 247,1285 311,1251 376,1022 440,792 504,578 568,454 632,309 697,207 761,146 825,83 889,42 953,13 1018,20 "/>
<polyline fill="none" opacity="0.3" stroke="#00FF00" stroke-width="2" points="55,8 119,25 183,48 247,79 311,302 376,641 440,777 504,1025 568,1116 632,1339 697,1246 761,1455 825,1457 889,1460 953,1466 1018,1466 "/>
<polyline fill="none" opacity="0.3" stroke="#201F00" stroke-width="1" points="55,1466 119,1466 183,1429 247,1370 311,1211 376,1053 440,484 504,344 568,148 632,71 697,152 761,12 825,12 889,12 953,5 1018,5 "/>
<polyline fill="none" opacity="0.3" stroke="#403F00" stroke-width="1" points="55,1466 119,1466 183,1466 247,1466 311,1375 376,1283 440,553 504,553 568,97 632,5 697,97 761,5 825,5 889,5 953,5 1018,5 "/>
<polyline fill="none" opacity="0.3" stroke="#605F00" stroke-width="1" points="55,1466 119,1459 183,1444 247,1415 311,1314 376,1220 440,591 504,512 568,273 632,157 697,316 761,71 825,63 889,63 953,56 1018,13 "/>
<polyline fill="none" opacity="0.3" stroke="#807F00" stroke-width="1" points="55,1466 119,1466 183,1466 247,1466 311,1466 376,1250 440,384 504,546 568,222 632,5 697,114 761,5 825,5 889,5 953,5 1018,5 "/>
<polyline fill="none" opacity="0.3" stroke="#A09F00" stroke-width="1" points="55,1466 119,1464 183,1433 247,1360 311,1222 376,1075 440,318 504,394 568,104 632,57 697,241 761,40 825,40 889,40 953,19 1018,7 "/>
<polyline fill="none" opacity="0.3" stroke="#C0BF00" stroke-width="1" points="55,1466 119,1466 183,1466 247,1466 311,1466 376,1466 440,736 504,736 568,492 632,492 697,736 761,492 825,492 889,492 953,5 1018,5 "/>
<polyline fill="none" opacity="0.3" stroke="#E0DF00" stroke-width="1" points="55,1466 119,1466 183,1466 247,1466 311,1466 376,1382 440,423 504,339 568,172 632,172 697,256 761,172 825,172 889,172 953,5 1018,5 "/>
<polyline fill="none" opacity="0.3" stroke="#00FF00" stroke-width="1" points="55,1347 119,1327 183,1381 247,1421 311,1246 376,1070 440,1138 504,1000 568,545 632,500 697,147 761,73 825,22 889,11 953,5 1018,5 "/>
<polyline fill="none" opacity="0.3" stroke="#201F00" stroke-width="2" points="55,354 119,431 183,251 247,201 311,633 376,823 440,801 504,1068 568,1295 632,1326 697,1410 761,1447 825,1463 889,1466 953,1466 1018,1466 "/>
<polyline fill="none" opacity="0.3" stroke="#403F00" stroke-width="1" points="55,1101 119,1010 183,1375 247,1375 311,918 376,827 440,644 504,188 568,97 632,97 697,5 761,5 825,5 889,5 953,5 1018,5 "/>
<polyline fill="none" opacity="0.3" stroke="#605F00" stroke-width="1" points="55,1329 119,1350 183,1379 247,1379 311,1133 376,1039 440,989 504,591 568,324 632,179 697,136 761,71 825,42 889,5 953,5 1018,5 "/>
<polyline fill="none" opacity="0.3" stroke="#807F00" stroke-width="1" points="55,925 119,925 183,1087 247,1358 311,817 376,763 440,546 504,114 568,5 632,5 697,5 761,5 825,5 889,5 953,5 1018,5 "/>
<polyline fill="none" opacity="0.3" stroke="#A09F00" stroke-width="1" points="55,1163 119,1136 183,1255 247,1276 311,918 376,837 440,704 504,258 568,106 632,50 697,28 761,5 825,5 889,5 953,5 1018,5 "/>
<polyline fill="none" opacity="0.3" stroke="#C0BF00" stroke-width="1" points="55,1222 119,1222 183,1222 247,1466 311,979 376,979 440,736 504,736 568,736 632,492 697,492 761,5 825,5 889,5 953,5 1018,5 "/>
<polyline fill="none" opacity="0.3" stroke="#E0DF00" stroke-width="1" points="55,840 119,840 183,965 247,1382 311,506 376,506 440,423 504,172 568,172 632,131 697,47 761,5 825,5 889,5 953,5 1018,5 "/>
<polyline fill="none" opacity="0.3" stroke="#00FF00" stroke-width="1" points="55,1466 119,1463 183,1248 247,1219 311,1219 376,1157 440,998 504,874 568,757 632,623 697,256 761,318 825,64 889,61 953,41 1018,5 "/>
<polyline fill="none" opacity="0.3" stroke="#201F00" stroke-width="1" points="55,1462 119,1441 183,891 247,832 311,818 376,581 440,427 504,337 568,253 632,176 697,89 761,121 825,12 889,9 953,9 1018,5 "/>
<polyline fill="none" opacity="0.3" stroke="#403F00" stroke-width="2" points="55,103 119,492 183,687 247,1076 311,1174 376,1271 440,1369 504,1369 568,1369 632,1466 697,1466 761,1466 825,1466 889,1466 953,1466 1018,1466 "/>
<polyline fill="none" opacity="0.3" stroke="#605F00" stroke-width="1" points="55,1466 119,1466 183,1167 247,1121 311,1121 376,713 440,441 504,332 568,232 632,250 697,142 761,151 825,69 889,87 953,69 1018,5 "/>
<polyline fill="none" opacity="0.3" stroke="#807F00" stroke-width="1" points="55,1466 119,894 183,767 247,259 311,386 376,69 440,5 504,5 568,5 632,5 697,5 761,5 825,5 889,5 953,5 1018,5 "/>
<polyline fill="none" opacity="0.3" stroke="#A09F00" stroke-width="1" points="55,1466 119,1421 183,995 247,892 311,872 376,385 440,207 504,139 568,113 632,84 697,44 761,44 825,8 889,8 953,5 1018,5 "/>
<polyline fill="none" opacity="0.3" stroke="#C0BF00" stroke-width="1" points="55,1466 119,1466 183,736 247,371 311,371 376,5 440,5 504,5 568,5 632,5 697,5 761,5 825,5 889,5 953,5 1018,5 "/>
<polyline fill="none" opacity="0.3" stroke="#E0DF00" stroke-width="1" points="55,1466 119,1222 183,395 247,200 311,200 376,54 440,5 504,5 568,5 632,5 697,5 761,5 825,5 889,5 953,5 1018,5 "/>
<polyline fill="none" opacity="0.3" stroke="#00FF00" stroke-width="1" points="55,1463 119,1457 183,1429 247,1407 311,1248 376,1028 440,909 504,548 568,847 632,618 697,152 761,25 825,248 889,20 953,8 1018,8 "/>
<polyline fill="none" opacity="0.3" stroke="#201F00" stroke-width="1" points="55,1450 119,1426 183,1320 247,1168 311,882 376,503 440,394 504,192 568,506 632,229 697,65 761,15 825,99 889,9 953,5 1018,5 "/>
<polyline fill="none" opacity="0.3" stroke="#403F00" stroke-width="1" points="55,1466 119,1466 183,1466 247,1192 311,918 376,462 440,188 504,188 568,462 632,97 697,5 761,5 825,97 889,5 953,5 1018,5 "/>
<polyline fill="none" opacity="0.3" stroke="#605F00" stroke-width="2" points="55,5 119,49 183,143 247,193 311,331 376,873 440,1054 504,1263 568,1141 632,1300 697,1423 761,1459 825,1350 889,1451 953,1466 1018,1466 "/>
<polyline fill="none" opacity="0.3" stroke="#807F00" stroke-width="1" points="55,1466 119,1466 183,1466 247,1033 311,871 376,222 440,114 504,114 568,168 632,114 697,5 761,60 825,5 889,5 953,5 1018,5 "/>
<polyline fill="none" opacity="0.3" stroke="#A09F00" stroke-width="1" points="55,1452 119,1404 183,1215 247,970 311,916 376,334 440,215 504,68 568,237 632,80 697,12 761,5 825,30 889,5 953,5 1018,5 "/>
<polyline fill="none" opacity="0.3" stroke="#C0BF00" stroke-width="1" points="55,1466 119,1466 183,1222 247,1222 311,979 376,736 440,492 504,5 568,5 632,5 697,5 761,5 825,5 889,5 953,5 1018,5 "/>
<polyline fill="none" opacity="0.3" stroke="#E0DF00" stroke-width="1" points="55,1466 119,1466 183,1466 247,1299 311,548 376,131 440,131 504,5 568,214 632,5 697,5 761,5 825,5 889,5 953,5 1018,5 "/>
<polyline fill="none" opacity="0.3" stroke="#00FF00" stroke-width="1" points="55,1466 119,1241 183,1459 247,1264 311,1209 376,1160 440,1098 504,893 568,900 632,806 697,731 761,594 825,536 889,201 953,54 1018,12 "/>
<polyline fill="none" opacity="0.3" stroke="#201F00" stroke-width="1" points="55,1459 119,880 183,1330 247,873 311,730 376,581 440,483 504,385 568,340 632,298 697,260 761,180 825,166 889,72 953,9 1018,5 "/>
<polyline fill="none" opacity="0.3" stroke="#403F00" stroke-width="1" points="55,1271 119,882 183,882 247,395 311,395 376,298 440,103 504,103 568,103 632,103 697,103 761,103 825,103 889,5 953,5 1018,5 "/>
<polyline fill="none" opacity="0.3" stroke="#605F00" stroke-width="1" points="55,1466 119,1148 183,1421 247,1148 311,1012 376,704 440,595 504,341 568,359 632,296 697,241 761,205 825,205 889,151 953,78 1018,5 "/>
<polyline fill="none" opacity="0.3" stroke="#807F00" stroke-width="2" points="55,386 119,640 183,1085 247,1212 311,1339 376,1402 440,1466 504,1466 568,1466 632,1466 697,1466 761,1466 825,1466 889,1466 953,1466 1018,1466 "/>
<polyline fill="none" opacity="0.3" stroke="#A09F00" stroke-width="1" points="55,1452 119,989 183,1211 247,856 311,696 376,414 440,258 504,165 568,143 632,127 697,113 761,84 825,68 889,24 953,5 1018,5 "/>
<polyline fill="none" opacity="0.3" stroke="#C0BF00" stroke-width="1" points="55,1466 119,736 183,1101 247,371 311,371 376,5 440,371 504,5 568,5 632,5 697,5 761,5 825,5 889,5 953,5 1018,5 "/>
<polyline fill="none" opacity="0.3" stroke="#E0DF00" stroke-width="1" points="55,1417 119,395 183,979 247,152 311,152 376,54 440,54 504,5 568,5 632,5 697,5 761,5 825,5 889,5 953,5 1018,5 "/>
<polyline fill="none" opacity="0.3" stroke="#00FF00" stroke-width="1" points="55,1463 119,1246 183,1387 247,1217 311,1186 376,1158 440,921 504,844 568,779 632,661 697,85 761,203 825,14 889,17 953,8 1018,5 "/>
<polyline fill="none" opacity="0.3" stroke="#201F00" stroke-width="1" points="55,1432 119,913 183,1202 247,829 311,683 376,972 440,431 504,397 568,341 632,273 697,43 761,80 825,12 889,5 953,5 1018,5 "/>
<polyline fill="none" opacity="0.3" stroke="#403F00" stroke-width="1" points="55,1466 119,918 183,1192 247,918 311,644 376,918 440,279 504,188 568,188 632,97 697,5 761,5 825,5 889,5 953,5 1018,5 "/>
<polyline fill="none" opacity="0.3" stroke="#605F00" stroke-width="1" points="55,1451 119,1184 183,1256 247,1119 311,945 376,743 440,425 504,367 568,353 632,259 697,78 761,107 825,13 889,5 953,5 1018,5 "/>
<polyline fill="none" opacity="0.3" stroke="#807F00" stroke-width="1" points="55,1466 119,925 183,1033 247,817 311,600 376,763 440,114 504,114 568,114 632,60 697,5 761,5 825,5 889,5 953,5 1018,5 "/>
<polyline fill="none" opacity="0.3" stroke="#A09F00" stroke-width="2" points="55,49 119,460 183,508 247,590 311,960 376,818 440,1262 504,1290 568,1298 632,1341 697,1457 761,1454 825,1466 889,1466 953,1466 1018,1466 "/>
<polyline fill="none" opacity="0.3" stroke="#C0BF00" stroke-width="1" points="55,1466 119,979 183,1222 247,979 311,736 376,979 440,492 504,5 568,492 632,492 697,5 761,5 825,5 889,5 953,5 1018,5 "/>
<polyline fill="none" opacity="0.3" stroke="#E0DF00" stroke-width="1" points="55,1466 119,548 183,1257 247,506 311,381 376,1090 440,131 504,5 568,172 632,172 697,5 761,5 825,5 889,5 953,5 1018,5 "/>
<polyline fill="none" opacity="0.3" stroke="#00FF00" stroke-width="1" points="55,1480 119,1480 183,1480 247,1480 311,1480 376,1480 440,1480 504,1480 568,1480 632,1480 697,1480 761,1480 825,1480 889,1480 953,1480 1018,1480 "/>
<polyline fill="none" opacity="0.3" stroke="#201F00" stroke-width="1" points="55,1480 119,1480 183,1480 247,1480 311,1480 376,1480 440,1480 504,1480 568,1480 632,1480 697,1480 761,1480 825,1480 889,1480 953,1480 1018,1480 "/>
<polyline fill="none" opacity="0.3" stroke="#403F00" stroke-width="1" points="55,1480 119,1480 183,1480 247,1480 311,1480 376,1480 440,1480 504,1480 568,1480 632,1480 697,1480 761,1480 825,1480 889,1480 953,1480 1018,1480 "/>
<polyline fill="none" opacity="0.3" stroke="#605F00" stroke-width="1" points="55,1480 119,1480 183,1480 247,1480 311,1480 376,1480 440,1480 504,1480 568,1480 632,1480 697,1480 761,1480 825,1480 889,1480 953,1480 1018,1480 "/>
<polyline fill="none" opacity="0.3" stroke="#807F00" stroke-width="1" points="55,1480 119,1480 183,1480 247,1480 311,1480 376,1480 440,1480 504,1480 568,1480 632,1480 697,1480 761,1480 825,1480 889,1480 953,1480 1018,1480 "/>
<polyline fill="none" opacity="0.3" stroke="#A09F00" stroke-width="1" points="55,1480 119,1480 183,1480 247,1480 311,1480 376,1480 440,1480 504,1480 568,1480 632,1480 697,1480 761,1480 825,1480 889,1480 953,1480 1018,1480 "/>
<polyline fill="none" opacity="0.3" stroke="#C0BF00" stroke-width="2" points="55,1480 119,1480 183,1480 247,1480 311,1480 376,1480 440,1480 504,1480 568,1480 632,1480 697,1480 761,1480 825,1480 889,1480 953,1480 1018,1480 "/>
<polyline fill="none" opacity="0.3" stroke="#E0DF00" stroke-width="1" points="55,1480 119,1480 183,1480 247,1480 311,1480 376,1480 440,1480 504,1480 568,1480 632,1480 697,1480 761,1480 825,1480 889,1480 953,1480 1018,1480 "/>
<polyline fill="none" opacity="0.3" stroke="#00FF00" stroke-width="1" points="55,1251 119,1238 183,1232 247,1228 311,1219 376,1108 440,1183 504,1001 568,1176 632,1040 697,672 761,526 825,223 889,67 953,51 1018,12 "/>
<polyline fill="none" opacity="0.3" stroke="#201F00" stroke-width="1" points="55,912 119,905 183,873 247,870 311,828 376,497 440,622 504,420 568,615 632,392 697,218 761,152 825,103 889,33 953,19 1018,5 "/>
<polyline fill="none" opacity="0.3" stroke="#403F00" stroke-width="1" points="55,882 119,882 183,882 247,882 311,784 376,298 440,395 504,103 568,298 632,200 697,103 761,103 825,5 889,5 953,5 1018,5 "/>
<polyline fill="none" opacity="0.3" stroke="#605F00" stroke-width="1" points="55,1194 119,1139 183,1139 247,1130 311,1085 376,640 440,867 504,486 568,840 632,604 697,214 761,196 825,132 889,78 953,42 1018,5 "/>
<polyline fill="none" opacity="0.3" stroke="#807F00" stroke-width="1" points="55,831 119,831 183,831 247,767 311,577 376,5 440,196 504,5 568,323 632,132 697,5 761,5 825,5 889,5 953,5 1018,5 "/>
<polyline fill="none" opacity="0.3" stroke="#A09F00" stroke-width="1" points="55,1005 119,1001 183,985 247,953 311,876 376,286 440,478 504,199 568,496 632,201 697,88 761,62 825,28 889,8 953,8 1018,5 "/>
<polyline fill="none" opacity="0.3" stroke="#C0BF00" stroke-width="1" points="55,736 119,736 183,736 247,736 311,371 376,371 440,371 504,5 568,371 632,371 697,5 761,5 825,5 889,5 953,5 1018,5 "/>
<polyline fill="none" opacity="0.3" stroke="#E0DF00" stroke-width="2" points="55,1076 119,1076 183,1076 247,1076 311,1125 376,1466 440,1320 504,1466 568,1320 632,1417 697,1466 761,1466 825,1466 889,1466 953,1466 1018,1466 "/>
<rect x="675" y="650" width="339" height="185" opacity="0.8" fill="#FFFFFF" stroke="none"/>
<rect x="675" y="650" width="339" height="185" opacity="1" fill="none" stroke="#000000"/>
<text x="785" y="660" dy="0.76em" text-anchor="start" font-family="sans-serif" font-size="40.32258064516129" opacity="1" fill="#000000">
mnist
</text>
<text x="785" y="723" dy="0.76em" text-anchor="start" font-family="sans-serif" font-size="40.32258064516129" opacity="1" fill="#000000">
baved
</text>
<text x="785" y="785" dy="0.76em" text-anchor="start" font-family="sans-serif" font-size="40.32258064516129" opacity="1" fill="#000000">
chime home
</text>
<polyline fill="none" opacity="1" stroke="#FF0000" stroke-width="5" points="685,680 735,680 "/>
<polyline fill="none" opacity="1" stroke="#0000FF" stroke-width="5" points="685,743 735,743 "/>
<polyline fill="none" opacity="1" stroke="#00FF00" stroke-width="5" points="685,805 735,805 "/>
</svg>
