<svg width="1024" height="1536" viewBox="0 0 1024 1536" xmlns="http://www.w3.org/2000/svg">
<rect x="0" y="0" width="1024" height="1536" opacity="1" fill="#FFFFFF" stroke="none"/>
<line opacity="0.1" stroke="#000000" stroke-width="1" x1="140" y1="1395" x2="140" y2="40"/>
<line opacity="0.1" stroke="#000000" stroke-width="1" x1="151" y1="1395" x2="151" y2="40"/>
<line opacity="0.1" stroke="#000000" stroke-width="1" x1="162" y1="1395" x2="162" y2="40"/>
<line opacity="0.1" stroke="#000000" stroke-width="1" x1="173" y1="1395" x2="173" y2="40"/>
<line opacity="0.1" stroke="#000000" stroke-width="1" x1="184" y1="1395" x2="184" y2="40"/>
<line opacity="0.1" stroke="#000000" stroke-width="1" x1="196" y1="1395" x2="196" y2="40"/>
<line opacity="0.1" stroke="#000000" stroke-width="1" x1="207" y1="1395" x2="207" y2="40"/>
<line opacity="0.1" stroke="#000000" stroke-width="1" x1="218" y1="1395" x2="218" y2="40"/>
<line opacity="0.1" stroke="#000000" stroke-width="1" x1="229" y1="1395" x2="229" y2="40"/>
<line opacity="0.1" stroke="#000000" stroke-width="1" x1="241" y1="1395" x2="241" y2="40"/>
<line opacity="0.1" stroke="#000000" stroke-width="1" x1="252" y1="1395" x2="252" y2="40"/>
<line opacity="0.1" stroke="#000000" stroke-width="1" x1="263" y1="1395" x2="263" y2="40"/>
<line opacity="0.1" stroke="#000000" stroke-width="1" x1="274" y1="1395" x2="274" y2="40"/>
<line opacity="0.1" stroke="#000000" stroke-width="1" x1="286" y1="1395" x2="286" y2="40"/>
<line opacity="0.1" stroke="#000000" stroke-width="1" x1="297" y1="1395" x2="297" y2="40"/>
<line opacity="0.1" stroke="#000000" stroke-width="1" x1="308" y1="1395" x2="308" y2="40"/>
<line opacity="0.1" stroke="#000000" stroke-width="1" x1="319" y1="1395" x2="319" y2="40"/>
<line opacity="0.1" stroke="#000000" stroke-width="1" x1="331" y1="1395" x2="331" y2="40"/>
<line opacity="0.1" stroke="#000000" stroke-width="1" x1="342" y1="1395" x2="342" y2="40"/>
<line opacity="0.1" stroke="#000000" stroke-width="1" x1="353" y1="1395" x2="353" y2="40"/>
<line opacity="0.1" stroke="#000000" stroke-width="1" x1="364" y1="1395" x2="364" y2="40"/>
<line opacity="0.1" stroke="#000000" stroke-width="1" x1="376" y1="1395" x2="376" y2="40"/>
<line opacity="0.1" stroke="#000000" stroke-width="1" x1="387" y1="1395" x2="387" y2="40"/>
<line opacity="0.1" stroke="#000000" stroke-width="1" x1="398" y1="1395" x2="398" y2="40"/>
<line opacity="0.1" stroke="#000000" stroke-width="1" x1="409" y1="1395" x2="409" y2="40"/>
<line opacity="0.1" stroke="#000000" stroke-width="1" x1="421" y1="1395" x2="421" y2="40"/>
<line opacity="0.1" stroke="#000000" stroke-width="1" x1="432" y1="1395" x2="432" y2="40"/>
<line opacity="0.1" stroke="#000000" stroke-width="1" x1="443" y1="1395" x2="443" y2="40"/>
<line opacity="0.1" stroke="#000000" stroke-width="1" x1="454" y1="1395" x2="454" y2="40"/>
<line opacity="0.1" stroke="#000000" stroke-width="1" x1="465" y1="1395" x2="465" y2="40"/>
<line opacity="0.1" stroke="#000000" stroke-width="1" x1="477" y1="1395" x2="477" y2="40"/>
<line opacity="0.1" stroke="#000000" stroke-width="1" x1="488" y1="1395" x2="488" y2="40"/>
<line opacity="0.1" stroke="#000000" stroke-width="1" x1="499" y1="1395" x2="499" y2="40"/>
<line opacity="0.1" stroke="#000000" stroke-width="1" x1="510" y1="1395" x2="510" y2="40"/>
<line opacity="0.1" stroke="#000000" stroke-width="1" x1="522" y1="1395" x2="522" y2="40"/>
<line opacity="0.1" stroke="#000000" stroke-width="1" x1="533" y1="1395" x2="533" y2="40"/>
<line opacity="0.1" stroke="#000000" stroke-width="1" x1="544" y1="1395" x2="544" y2="40"/>
<line opacity="0.1" stroke="#000000" stroke-width="1" x1="555" y1="1395" x2="555" y2="40"/>
<line opacity="0.1" stroke="#000000" stroke-width="1" x1="567" y1="1395" x2="567" y2="40"/>
<line opacity="0.1" stroke="#000000" stroke-width="1" x1="578" y1="1395" x2="578" y2="40"/>
<line opacity="0.1" stroke="#000000" stroke-width="1" x1="589" y1="1395" x2="589" y2="40"/>
<line opacity="0.1" stroke="#000000" stroke-width="1" x1="600" y1="1395" x2="600" y2="40"/>
<line opacity="0.1" stroke="#000000" stroke-width="1" x1="612" y1="1395" x2="612" y2="40"/>
<line opacity="0.1" stroke="#000000" stroke-width="1" x1="623" y1="1395" x2="623" y2="40"/>
<line opacity="0.1" stroke="#000000" stroke-width="1" x1="634" y1="1395" x2="634" y2="40"/>
<line opacity="0.1" stroke="#000000" stroke-width="1" x1="645" y1="1395" x2="645" y2="40"/>
<line opacity="0.1" stroke="#000000" stroke-width="1" x1="657" y1="1395" x2="657" y2="40"/>
<line opacity="0.1" stroke="#000000" stroke-width="1" x1="668" y1="1395" x2="668" y2="40"/>
<line opacity="0.1" stroke="#000000" stroke-width="1" x1="679" y1="1395" x2="679" y2="40"/>
<line opacity="0.1" stroke="#000000" stroke-width="1" x1="690" y1="1395" x2="690" y2="40"/>
<line opacity="0.1" stroke="#000000" stroke-width="1" x1="702" y1="1395" x2="702" y2="40"/>
<line opacity="0.1" stroke="#000000" stroke-width="1" x1="713" y1="1395" x2="713" y2="40"/>
<line opacity="0.1" stroke="#000000" stroke-width="1" x1="724" y1="1395" x2="724" y2="40"/>
<line opacity="0.1" stroke="#000000" stroke-width="1" x1="735" y1="1395" x2="735" y2="40"/>
<line opacity="0.1" stroke="#000000" stroke-width="1" x1="746" y1="1395" x2="746" y2="40"/>
<line opacity="0.1" stroke="#000000" stroke-width="1" x1="758" y1="1395" x2="758" y2="40"/>
<line opacity="0.1" stroke="#000000" stroke-width="1" x1="769" y1="1395" x2="769" y2="40"/>
<line opacity="0.1" stroke="#000000" stroke-width="1" x1="780" y1="1395" x2="780" y2="40"/>
<line opacity="0.1" stroke="#000000" stroke-width="1" x1="791" y1="1395" x2="791" y2="40"/>
<line opacity="0.1" stroke="#000000" stroke-width="1" x1="803" y1="1395" x2="803" y2="40"/>
<line opacity="0.1" stroke="#000000" stroke-width="1" x1="814" y1="1395" x2="814" y2="40"/>
<line opacity="0.1" stroke="#000000" stroke-width="1" x1="825" y1="1395" x2="825" y2="40"/>
<line opacity="0.1" stroke="#000000" stroke-width="1" x1="836" y1="1395" x2="836" y2="40"/>
<line opacity="0.1" stroke="#000000" stroke-width="1" x1="848" y1="1395" x2="848" y2="40"/>
<line opacity="0.1" stroke="#000000" stroke-width="1" x1="859" y1="1395" x2="859" y2="40"/>
<line opacity="0.1" stroke="#000000" stroke-width="1" x1="870" y1="1395" x2="870" y2="40"/>
<line opacity="0.1" stroke="#000000" stroke-width="1" x1="881" y1="1395" x2="881" y2="40"/>
<line opacity="0.1" stroke="#000000" stroke-width="1" x1="893" y1="1395" x2="893" y2="40"/>
<line opacity="0.1" stroke="#000000" stroke-width="1" x1="904" y1="1395" x2="904" y2="40"/>
<line opacity="0.1" stroke="#000000" stroke-width="1" x1="915" y1="1395" x2="915" y2="40"/>
<line opacity="0.1" stroke="#000000" stroke-width="1" x1="926" y1="1395" x2="926" y2="40"/>
<line opacity="0.1" stroke="#000000" stroke-width="1" x1="938" y1="1395" x2="938" y2="40"/>
<line opacity="0.1" stroke="#000000" stroke-width="1" x1="949" y1="1395" x2="949" y2="40"/>
<line opacity="0.1" stroke="#000000" stroke-width="1" x1="960" y1="1395" x2="960" y2="40"/>
<line opacity="0.1" stroke="#000000" stroke-width="1" x1="971" y1="1395" x2="971" y2="40"/>
<line opacity="0.1" stroke="#000000" stroke-width="1" x1="983" y1="1395" x2="983" y2="40"/>
<line opacity="0.1" stroke="#000000" stroke-width="1" x1="140" y1="1382" x2="983" y2="1382"/>
<line opacity="0.1" stroke="#000000" stroke-width="1" x1="140" y1="1369" x2="983" y2="1369"/>
<line opacity="0.1" stroke="#000000" stroke-width="1" x1="140" y1="1355" x2="983" y2="1355"/>
<line opacity="0.1" stroke="#000000" stroke-width="1" x1="140" y1="1342" x2="983" y2="1342"/>
<line opacity="0.1" stroke="#000000" stroke-width="1" x1="140" y1="1328" x2="983" y2="1328"/>
<line opacity="0.1" stroke="#000000" stroke-width="1" x1="140" y1="1315" x2="983" y2="1315"/>
<line opacity="0.1" stroke="#000000" stroke-width="1" x1="140" y1="1302" x2="983" y2="1302"/>
<line opacity="0.1" stroke="#000000" stroke-width="1" x1="140" y1="1288" x2="983" y2="1288"/>
<line opacity="0.1" stroke="#000000" stroke-width="1" x1="140" y1="1275" x2="983" y2="1275"/>
<line opacity="0.1" stroke="#000000" stroke-width="1" x1="140" y1="1261" x2="983" y2="1261"/>
<line opacity="0.1" stroke="#000000" stroke-width="1" x1="140" y1="1248" x2="983" y2="1248"/>
<line opacity="0.1" stroke="#000000" stroke-width="1" x1="140" y1="1235" x2="983" y2="1235"/>
<line opacity="0.1" stroke="#000000" stroke-width="1" x1="140" y1="1221" x2="983" y2="1221"/>
<line opacity="0.1" stroke="#000000" stroke-width="1" x1="140" y1="1208" x2="983" y2="1208"/>
<line opacity="0.1" stroke="#000000" stroke-width="1" x1="140" y1="1194" x2="983" y2="1194"/>
<line opacity="0.1" stroke="#000000" stroke-width="1" x1="140" y1="1181" x2="983" y2="1181"/>
<line opacity="0.1" stroke="#000000" stroke-width="1" x1="140" y1="1167" x2="983" y2="1167"/>
<line opacity="0.1" stroke="#000000" stroke-width="1" x1="140" y1="1154" x2="983" y2="1154"/>
<line opacity="0.1" stroke="#000000" stroke-width="1" x1="140" y1="1141" x2="983" y2="1141"/>
<line opacity="0.1" stroke="#000000" stroke-width="1" x1="140" y1="1127" x2="983" y2="1127"/>
<line opacity="0.1" stroke="#000000" stroke-width="1" x1="140" y1="1114" x2="983" y2="1114"/>
<line opacity="0.1" stroke="#000000" stroke-width="1" x1="140" y1="1100" x2="983" y2="1100"/>
<line opacity="0.1" stroke="#000000" stroke-width="1" x1="140" y1="1087" x2="983" y2="1087"/>
<line opacity="0.1" stroke="#000000" stroke-width="1" x1="140" y1="1074" x2="983" y2="1074"/>
<line opacity="0.1" stroke="#000000" stroke-width="1" x1="140" y1="1060" x2="983" y2="1060"/>
<line opacity="0.1" stroke="#000000" stroke-width="1" x1="140" y1="1047" x2="983" y2="1047"/>
<line opacity="0.1" stroke="#000000" stroke-width="1" x1="140" y1="1033" x2="983" y2="1033"/>
<line opacity="0.1" stroke="#000000" stroke-width="1" x1="140" y1="1020" x2="983" y2="1020"/>
<line opacity="0.1" stroke="#000000" stroke-width="1" x1="140" y1="1006" x2="983" y2="1006"/>
<line opacity="0.1" stroke="#000000" stroke-width="1" x1="140" y1="993" x2="983" y2="993"/>
<line opacity="0.1" stroke="#000000" stroke-width="1" x1="140" y1="980" x2="983" y2="980"/>
<line opacity="0.1" stroke="#000000" stroke-width="1" x1="140" y1="966" x2="983" y2="966"/>
<line opacity="0.1" stroke="#000000" stroke-width="1" x1="140" y1="953" x2="983" y2="953"/>
<line opacity="0.1" stroke="#000000" stroke-width="1" x1="140" y1="939" x2="983" y2="939"/>
<line opacity="0.1" stroke="#000000" stroke-width="1" x1="140" y1="926" x2="983" y2="926"/>
<line opacity="0.1" stroke="#000000" stroke-width="1" x1="140" y1="913" x2="983" y2="913"/>
<line opacity="0.1" stroke="#000000" stroke-width="1" x1="140" y1="899" x2="983" y2="899"/>
<line opacity="0.1" stroke="#000000" stroke-width="1" x1="140" y1="886" x2="983" y2="886"/>
<line opacity="0.1" stroke="#000000" stroke-width="1" x1="140" y1="872" x2="983" y2="872"/>
<line opacity="0.1" stroke="#000000" stroke-width="1" x1="140" y1="859" x2="983" y2="859"/>
<line opacity="0.1" stroke="#000000" stroke-width="1" x1="140" y1="845" x2="983" y2="845"/>
<line opacity="0.1" stroke="#000000" stroke-width="1" x1="140" y1="832" x2="983" y2="832"/>
<line opacity="0.1" stroke="#000000" stroke-width="1" x1="140" y1="819" x2="983" y2="819"/>
<line opacity="0.1" stroke="#000000" stroke-width="1" x1="140" y1="805" x2="983" y2="805"/>
<line opacity="0.1" stroke="#000000" stroke-width="1" x1="140" y1="792" x2="983" y2="792"/>
<line opacity="0.1" stroke="#000000" stroke-width="1" x1="140" y1="778" x2="983" y2="778"/>
<line opacity="0.1" stroke="#000000" stroke-width="1" x1="140" y1="765" x2="983" y2="765"/>
<line opacity="0.1" stroke="#000000" stroke-width="1" x1="140" y1="752" x2="983" y2="752"/>
<line opacity="0.1" stroke="#000000" stroke-width="1" x1="140" y1="738" x2="983" y2="738"/>
<line opacity="0.1" stroke="#000000" stroke-width="1" x1="140" y1="725" x2="983" y2="725"/>
<line opacity="0.1" stroke="#000000" stroke-width="1" x1="140" y1="711" x2="983" y2="711"/>
<line opacity="0.1" stroke="#000000" stroke-width="1" x1="140" y1="698" x2="983" y2="698"/>
<line opacity="0.1" stroke="#000000" stroke-width="1" x1="140" y1="684" x2="983" y2="684"/>
<line opacity="0.1" stroke="#000000" stroke-width="1" x1="140" y1="671" x2="983" y2="671"/>
<line opacity="0.1" stroke="#000000" stroke-width="1" x1="140" y1="658" x2="983" y2="658"/>
<line opacity="0.1" stroke="#000000" stroke-width="1" x1="140" y1="644" x2="983" y2="644"/>
<line opacity="0.1" stroke="#000000" stroke-width="1" x1="140" y1="631" x2="983" y2="631"/>
<line opacity="0.1" stroke="#000000" stroke-width="1" x1="140" y1="617" x2="983" y2="617"/>
<line opacity="0.1" stroke="#000000" stroke-width="1" x1="140" y1="604" x2="983" y2="604"/>
<line opacity="0.1" stroke="#000000" stroke-width="1" x1="140" y1="591" x2="983" y2="591"/>
<line opacity="0.1" stroke="#000000" stroke-width="1" x1="140" y1="577" x2="983" y2="577"/>
<line opacity="0.1" stroke="#000000" stroke-width="1" x1="140" y1="564" x2="983" y2="564"/>
<line opacity="0.1" stroke="#000000" stroke-width="1" x1="140" y1="550" x2="983" y2="550"/>
<line opacity="0.1" stroke="#000000" stroke-width="1" x1="140" y1="537" x2="983" y2="537"/>
<line opacity="0.1" stroke="#000000" stroke-width="1" x1="140" y1="523" x2="983" y2="523"/>
<line opacity="0.1" stroke="#000000" stroke-width="1" x1="140" y1="510" x2="983" y2="510"/>
<line opacity="0.1" stroke="#000000" stroke-width="1" x1="140" y1="497" x2="983" y2="497"/>
<line opacity="0.1" stroke="#000000" stroke-width="1" x1="140" y1="483" x2="983" y2="483"/>
<line opacity="0.1" stroke="#000000" stroke-width="1" x1="140" y1="470" x2="983" y2="470"/>
<line opacity="0.1" stroke="#000000" stroke-width="1" x1="140" y1="456" x2="983" y2="456"/>
<line opacity="0.1" stroke="#000000" stroke-width="1" x1="140" y1="443" x2="983" y2="443"/>
<line opacity="0.1" stroke="#000000" stroke-width="1" x1="140" y1="430" x2="983" y2="430"/>
<line opacity="0.1" stroke="#000000" stroke-width="1" x1="140" y1="416" x2="983" y2="416"/>
<line opacity="0.1" stroke="#000000" stroke-width="1" x1="140" y1="403" x2="983" y2="403"/>
<line opacity="0.1" stroke="#000000" stroke-width="1" x1="140" y1="389" x2="983" y2="389"/>
<line opacity="0.1" stroke="#000000" stroke-width="1" x1="140" y1="376" x2="983" y2="376"/>
<line opacity="0.1" stroke="#000000" stroke-width="1" x1="140" y1="362" x2="983" y2="362"/>
<line opacity="0.1" stroke="#000000" stroke-width="1" x1="140" y1="349" x2="983" y2="349"/>
<line opacity="0.1" stroke="#000000" stroke-width="1" x1="140" y1="336" x2="983" y2="336"/>
<line opacity="0.1" stroke="#000000" stroke-width="1" x1="140" y1="322" x2="983" y2="322"/>
<line opacity="0.1" stroke="#000000" stroke-width="1" x1="140" y1="309" x2="983" y2="309"/>
<line opacity="0.1" stroke="#000000" stroke-width="1" x1="140" y1="295" x2="983" y2="295"/>
<line opacity="0.1" stroke="#000000" stroke-width="1" x1="140" y1="282" x2="983" y2="282"/>
<line opacity="0.1" stroke="#000000" stroke-width="1" x1="140" y1="269" x2="983" y2="269"/>
<line opacity="0.1" stroke="#000000" stroke-width="1" x1="140" y1="255" x2="983" y2="255"/>
<line opacity="0.1" stroke="#000000" stroke-width="1" x1="140" y1="242" x2="983" y2="242"/>
<line opacity="0.1" stroke="#000000" stroke-width="1" x1="140" y1="228" x2="983" y2="228"/>
<line opacity="0.1" stroke="#000000" stroke-width="1" x1="140" y1="215" x2="983" y2="215"/>
<line opacity="0.1" stroke="#000000" stroke-width="1" x1="140" y1="201" x2="983" y2="201"/>
<line opacity="0.1" stroke="#000000" stroke-width="1" x1="140" y1="188" x2="983" y2="188"/>
<line opacity="0.1" stroke="#000000" stroke-width="1" x1="140" y1="175" x2="983" y2="175"/>
<line opacity="0.1" stroke="#000000" stroke-width="1" x1="140" y1="161" x2="983" y2="161"/>
<line opacity="0.1" stroke="#000000" stroke-width="1" x1="140" y1="148" x2="983" y2="148"/>
<line opacity="0.1" stroke="#000000" stroke-width="1" x1="140" y1="134" x2="983" y2="134"/>
<line opacity="0.1" stroke="#000000" stroke-width="1" x1="140" y1="121" x2="983" y2="121"/>
<line opacity="0.1" stroke="#000000" stroke-width="1" x1="140" y1="108" x2="983" y2="108"/>
<line opacity="0.1" stroke="#000000" stroke-width="1" x1="140" y1="94" x2="983" y2="94"/>
<line opacity="0.1" stroke="#000000" stroke-width="1" x1="140" y1="81" x2="983" y2="81"/>
<line opacity="0.1" stroke="#000000" stroke-width="1" x1="140" y1="67" x2="983" y2="67"/>
<line opacity="0.1" stroke="#000000" stroke-width="1" x1="140" y1="54" x2="983" y2="54"/>
<text x="40" y="718" dy="0.76em" text-anchor="middle" font-family="sans-serif" font-size="40.32258064516129" opacity="1" fill="#000000" transform="rotate(270, 40, 718)">
FAR / FRR
</text>
<text x="562" y="1496" dy="-0.5ex" text-anchor="middle" font-family="sans-serif" font-size="40.32258064516129" opacity="1" fill="#000000">
Threshold [k]
</text>
<line opacity="0.2" stroke="#000000" stroke-width="1" x1="140" y1="1395" x2="140" y2="40"/>
<line opacity="0.2" stroke="#000000" stroke-width="1" x1="252" y1="1395" x2="252" y2="40"/>
<line opacity="0.2" stroke="#000000" stroke-width="1" x1="364" y1="1395" x2="364" y2="40"/>
<line opacity="0.2" stroke="#000000" stroke-width="1" x1="477" y1="1395" x2="477" y2="40"/>
<line opacity="0.2" stroke="#000000" stroke-width="1" x1="589" y1="1395" x2="589" y2="40"/>
<line opacity="0.2" stroke="#000000" stroke-width="1" x1="702" y1="1395" x2="702" y2="40"/>
<line opacity="0.2" stroke="#000000" stroke-width="1" x1="814" y1="1395" x2="814" y2="40"/>
<line opacity="0.2" stroke="#000000" stroke-width="1" x1="926" y1="1395" x2="926" y2="40"/>
<line opacity="0.2" stroke="#000000" stroke-width="1" x1="140" y1="1382" x2="983" y2="1382"/>
<line opacity="0.2" stroke="#000000" stroke-width="1" x1="140" y1="1248" x2="983" y2="1248"/>
<line opacity="0.2" stroke="#000000" stroke-width="1" x1="140" y1="1114" x2="983" y2="1114"/>
<line opacity="0.2" stroke="#000000" stroke-width="1" x1="140" y1="980" x2="983" y2="980"/>
<line opacity="0.2" stroke="#000000" stroke-width="1" x1="140" y1="845" x2="983" y2="845"/>
<line opacity="0.2" stroke="#000000" stroke-width="1" x1="140" y1="711" x2="983" y2="711"/>
<line opacity="0.2" stroke="#000000" stroke-width="1" x1="140" y1="577" x2="983" y2="577"/>
<line opacity="0.2" stroke="#000000" stroke-width="1" x1="140" y1="443" x2="983" y2="443"/>
<line opacity="0.2" stroke="#000000" stroke-width="1" x1="140" y1="309" x2="983" y2="309"/>
<line opacity="0.2" stroke="#000000" stroke-width="1" x1="140" y1="175" x2="983" y2="175"/>
<line opacity="0.2" stroke="#000000" stroke-width="1" x1="140" y1="40" x2="983" y2="40"/>
<polyline fill="none" opacity="1" stroke="#000000" stroke-width="1" points="139,40 139,1395 "/>
<text x="130" y="1382" dy="0.5ex" text-anchor="end" font-family="sans-serif" font-size="40.32258064516129" opacity="1" fill="#000000">
0.0
</text>
<polyline fill="none" opacity="1" stroke="#000000" stroke-width="1" points="134,1382 139,1382 "/>
<text x="130" y="1248" dy="0.5ex" text-anchor="end" font-family="sans-serif" font-size="40.32258064516129" opacity="1" fill="#000000">
0.1
</text>
<polyline fill="none" opacity="1" stroke="#000000" stroke-width="1" points="134,1248 139,1248 "/>
<text x="130" y="1114" dy="0.5ex" text-anchor="end" font-family="sans-serif" font-size="40.32258064516129" opacity="1" fill="#000000">
0.2
</text>
<polyline fill="none" opacity="1" stroke="#000000" stroke-width="1" points="134,1114 139,1114 "/>
<text x="130" y="980" dy="0.5ex" text-anchor="end" font-family="sans-serif" font-size="40.32258064516129" opacity="1" fill="#000000">
0.3
</text>
<polyline fill="none" opacity="1" stroke="#000000" stroke-width="1" points="134,980 139,980 "/>
<text x="130" y="845" dy="0.5ex" text-anchor="end" font-family="sans-serif" font-size="40.32258064516129" opacity="1" fill="#000000">
0.4
</text>
<polyline fill="none" opacity="1" stroke="#000000" stroke-width="1" points="134,845 139,845 "/>
<text x="130" y="711" dy="0.5ex" text-anchor="end" font-family="sans-serif" font-size="40.32258064516129" opacity="1" fill="#000000">
0.5
</text>
<polyline fill="none" opacity="1" stroke="#000000" stroke-width="1" points="134,711 139,711 "/>
<text x="130" y="577" dy="0.5ex" text-anchor="end" font-family="sans-serif" font-size="40.32258064516129" opacity="1" fill="#000000">
0.6
</text>
<polyline fill="none" opacity="1" stroke="#000000" stroke-width="1" points="134,577 139,577 "/>
<text x="130" y="443" dy="0.5ex" text-anchor="end" font-family="sans-serif" font-size="40.32258064516129" opacity="1" fill="#000000">
0.7
</text>
<polyline fill="none" opacity="1" stroke="#000000" stroke-width="1" points="134,443 139,443 "/>
<text x="130" y="309" dy="0.5ex" text-anchor="end" font-family="sans-serif" font-size="40.32258064516129" opacity="1" fill="#000000">
0.8
</text>
<polyline fill="none" opacity="1" stroke="#000000" stroke-width="1" points="134,309 139,309 "/>
<text x="130" y="175" dy="0.5ex" text-anchor="end" font-family="sans-serif" font-size="40.32258064516129" opacity="1" fill="#000000">
0.9
</text>
<polyline fill="none" opacity="1" stroke="#000000" stroke-width="1" points="134,175 139,175 "/>
<text x="130" y="40" dy="0.5ex" text-anchor="end" font-family="sans-serif" font-size="40.32258064516129" opacity="1" fill="#000000">
1.0
</text>
<polyline fill="none" opacity="1" stroke="#000000" stroke-width="1" points="134,40 139,40 "/>
<polyline fill="none" opacity="1" stroke="#000000" stroke-width="1" points="140,1396 983,1396 "/>
<text x="140" y="1406" dy="0.76em" text-anchor="middle" font-family="sans-serif" font-size="40.32258064516129" opacity="1" fill="#000000">
100.0
</text>
<polyline fill="none" opacity="1" stroke="#000000" stroke-width="1" points="140,1396 140,1401 "/>
<text x="252" y="1406" dy="0.76em" text-anchor="middle" font-family="sans-serif" font-size="40.32258064516129" opacity="1" fill="#000000">
120.0
</text>
<polyline fill="none" opacity="1" stroke="#000000" stroke-width="1" points="252,1396 252,1401 "/>
<text x="364" y="1406" dy="0.76em" text-anchor="middle" font-family="sans-serif" font-size="40.32258064516129" opacity="1" fill="#000000">
140.0
</text>
<polyline fill="none" opacity="1" stroke="#000000" stroke-width="1" points="364,1396 364,1401 "/>
<text x="477" y="1406" dy="0.76em" text-anchor="middle" font-family="sans-serif" font-size="40.32258064516129" opacity="1" fill="#000000">
160.0
</text>
<polyline fill="none" opacity="1" stroke="#000000" stroke-width="1" points="477,1396 477,1401 "/>
<text x="589" y="1406" dy="0.76em" text-anchor="middle" font-family="sans-serif" font-size="40.32258064516129" opacity="1" fill="#000000">
180.0
</text>
<polyline fill="none" opacity="1" stroke="#000000" stroke-width="1" points="589,1396 589,1401 "/>
<text x="702" y="1406" dy="0.76em" text-anchor="middle" font-family="sans-serif" font-size="40.32258064516129" opacity="1" fill="#000000">
200.0
</text>
<polyline fill="none" opacity="1" stroke="#000000" stroke-width="1" points="702,1396 702,1401 "/>
<text x="814" y="1406" dy="0.76em" text-anchor="middle" font-family="sans-serif" font-size="40.32258064516129" opacity="1" fill="#000000">
220.0
</text>
<polyline fill="none" opacity="1" stroke="#000000" stroke-width="1" points="814,1396 814,1401 "/>
<text x="926" y="1406" dy="0.76em" text-anchor="middle" font-family="sans-serif" font-size="40.32258064516129" opacity="1" fill="#000000">
240.0
</text>
<polyline fill="none" opacity="1" stroke="#000000" stroke-width="1" points="926,1396 926,1401 "/>
<polyline fill="none" opacity="1" stroke="#FF0000" stroke-width="2" points="140,40 196,43 252,72 308,214 364,540 421,946 477,1224 533,1341 589,1371 645,1381 702,1382 758,1382 814,1382 870,1382 926,1382 983,1382 "/>
<polyline fill="none" opacity="1" stroke="#FF0000" stroke-width="1" points="140,1382 196,1382 252,1382 308,1380 364,1356 421,1253 477,1009 533,657 589,356 645,145 702,70 758,47 814,41 870,41 926,40 983,40 "/>
<polyline fill="none" opacity="0.5" stroke="#0000FF" stroke-width="1" points="140,40 196,40 252,40 308,40 364,40 421,40 477,40 533,40 589,40 645,40 702,40 758,40 814,40 870,40 926,40 983,40 "/>
<polyline fill="none" opacity="0.5" stroke="#4000FF" stroke-width="1" points="140,40 196,40 252,40 308,40 364,40 421,40 477,40 533,40 589,40 645,40 702,40 758,40 814,40 870,40 926,40 983,40 "/>
<polyline fill="none" opacity="0.5" stroke="#8000FF" stroke-width="1" points="140,40 196,40 252,40 308,40 364,40 421,40 477,40 533,40 589,40 645,40 702,40 758,40 814,40 870,40 926,40 983,40 "/>
<polyline fill="none" opacity="1" stroke="#C000FF" stroke-width="1" points="140,40 196,40 252,40 308,40 364,40 421,40 477,40 533,40 589,40 645,40 702,40 758,40 814,40 870,40 926,40 983,40 "/>
<polyline fill="none" opacity="0.3" stroke="#0000FF" stroke-width="2" points="140,1382 196,1382 252,1382 308,1382 364,1382 421,1382 477,1382 533,1382 589,1382 645,1382 702,1382 758,1382 814,1382 870,1382 926,1382 983,1382 "/>
<polyline fill="none" opacity="0.3" stroke="#2020FF" stroke-width="1" points="140,40 196,40 252,40 308,40 364,40 421,40 477,40 533,40 589,40 645,40 702,40 758,40 814,40 870,40 926,40 983,40 "/>
<polyline fill="none" opacity="0.3" stroke="#4040FF" stroke-width="1" points="140,40 196,40 252,40 308,40 364,40 421,40 477,40 533,40 589,40 645,40 702,40 758,40 814,40 870,40 926,40 983,40 "/>
<polyline fill="none" opacity="0.3" stroke="#6060FF" stroke-width="1" points="140,40 196,40 252,40 308,40 364,40 421,40 477,40 533,40 589,40 645,40 702,40 758,40 814,40 870,40 926,40 983,40 "/>
<polyline fill="none" opacity="0.3" stroke="#8080FF" stroke-width="2" points="140,1382 196,1382 252,1382 308,1382 364,1382 421,1382 477,1382 533,1382 589,1382 645,1382 702,1382 758,1382 814,1382 870,1382 926,1382 983,1382 "/>
<polyline fill="none" opacity="0.3" stroke="#A0A0FF" stroke-width="1" points="140,40 196,40 252,40 308,40 364,40 421,40 477,40 533,40 589,40 645,40 702,40 758,40 814,40 870,40 926,40 983,40 "/>
<polyline fill="none" opacity="0.3" stroke="#C0C0FF" stroke-width="1" points="140,40 196,40 252,40 308,40 364,40 421,40 477,40 533,40 589,40 645,40 702,40 758,40 814,40 870,40 926,40 983,40 "/>
<polyline fill="none" opacity="0.3" stroke="#E0E0FF" stroke-width="1" points="140,40 196,40 252,40 308,40 364,40 421,40 477,40 533,40 589,40 645,40 702,40 758,40 814,40 870,40 926,40 983,40 "/>
<polyline fill="none" opacity="0.3" stroke="#0000FF" stroke-width="2" points="140,1382 196,1382 252,1382 308,1382 364,1382 421,1382 477,1382 533,1382 589,1382 645,1382 702,1382 758,1382 814,1382 870,1382 926,1382 983,1382 "/>
<polyline fill="none" opacity="0.5" stroke="#00FF00" stroke-width="1" points="140,1382 196,1371 252,1361 308,1212 364,1165 421,1122 477,866 533,765 589,649 645,565 702,480 758,377 814,276 870,86 926,54 983,90 "/>
<polyline fill="none" opacity="0.5" stroke="#40FF00" stroke-width="1" points="140,1375 196,1304 252,1290 308,1183 364,1277 421,936 477,812 533,494 589,422 645,268 702,110 758,106 814,51 870,67 926,42 983,42 "/>
<polyline fill="none" opacity="0.5" stroke="#80FF00" stroke-width="1" points="140,1378 196,1209 252,1318 308,1113 364,1040 421,967 477,866 533,684 589,611 645,410 702,328 758,246 814,109 870,100 926,54 983,50 "/>
<polyline fill="none" opacity="0.5" stroke="#C0FF00" stroke-width="1" points="140,1382 196,1378 252,1254 308,1341 364,1098 421,926 477,679 533,453 589,376 645,149 702,91 758,97 814,44 870,43 926,41 983,42 "/>
<polyline fill="none" opacity="0.5" stroke="#00FF00" stroke-width="1" points="140,1373 196,1295 252,1241 308,1058 364,1231 421,985 477,775 533,730 589,643 645,556 702,483 758,333 814,228 870,127 926,104 983,50 "/>
<polyline fill="none" opacity="0.5" stroke="#40FF00" stroke-width="1" points="140,1379 196,1348 252,1195 308,1156 364,1217 421,907 477,677 533,505 589,323 645,253 702,174 758,67 814,57 870,88 926,45 983,42 "/>
<polyline fill="none" opacity="0.5" stroke="#80FF00" stroke-width="1" points="140,1395 196,1395 252,1395 308,1395 364,1395 421,1395 477,1395 533,1395 589,1395 645,1395 702,1395 758,1395 814,1395 870,1395 926,1395 983,1395 "/>
<polyline fill="none" opacity="0.5" stroke="#C0FF00" stroke-width="1" points="140,1172 196,1104 252,1072 308,1058 364,1022 421,1063 477,912 533,967 589,702 645,588 702,538 758,374 814,232 870,155 926,68 983,50 "/>
<polyline fill="none" opacity="1" stroke="#00FF00" stroke-width="1" points="140,1376 196,1343 252,1272 308,1216 364,1185 421,974 477,763 533,566 589,453 645,319 702,225 758,169 814,111 870,74 926,47 983,54 "/>
<polyline fill="none" opacity="0.3" stroke="#00FF00" stroke-width="2" points="140,43 196,59 252,79 308,108 364,313 421,624 477,749 533,977 589,1060 645,1265 702,1180 758,1372 814,1374 870,1377 926,1382 983,1382 "/>
<polyline fill="none" opacity="0.3" stroke="#201F00" stroke-width="1" points="140,1382 196,1382 252,1348 308,1294 364,1148 421,1002 477,480 533,352 589,172 645,100 702,175 758,46 814,46 870,46 926,40 983,40 "/>
<polyline fill="none" opacity="0.3" stroke="#403F00" stroke-width="1" points="140,1382 196,1382 252,1382 308,1382 364,1298 421,1214 477,544 533,544 589,124 645,40 702,124 758,40 814,40 870,40 926,40 983,40 "/>
<polyline fill="none" opacity="0.3" stroke="#605F00" stroke-width="1" points="140,1382 196,1375 252,1362 308,1336 364,1243 421,1156 477,578 533,505 589,286 645,180 702,326 758,100 814,94 870,94 926,87 983,47 "/>
<polyline fill="none" opacity="0.3" stroke="#807F00" stroke-width="1" points="140,1382 196,1382 252,1382 308,1382 364,1382 421,1183 477,388 533,537 589,239 645,40 702,140 758,40 814,40 870,40 926,40 983,40 "/>
<polyline fill="none" opacity="0.3" stroke="#A09F00" stroke-width="1" points="140,1382 196,1380 252,1352 308,1285 364,1158 421,1023 477,328 533,398 589,131 645,88 702,256 758,72 814,72 870,72 926,53 983,42 "/>
<polyline fill="none" opacity="0.3" stroke="#C0BF00" stroke-width="1" points="140,1382 196,1382 252,1382 308,1382 364,1382 421,1382 477,711 533,711 589,488 645,488 702,711 758,488 814,488 870,488 926,40 983,40 "/>
<polyline fill="none" opacity="0.3" stroke="#E0DF00" stroke-width="1" points="140,1382 196,1382 252,1382 308,1382 364,1382 421,1305 477,424 533,347 589,194 645,194 702,270 758,194 814,194 870,194 926,40 983,40 "/>
<polyline fill="none" opacity="0.3" stroke="#00FF00" stroke-width="1" points="140,1273 196,1255 252,1304 308,1341 364,1180 421,1019 477,1081 533,954 589,536 645,495 702,170 758,103 814,56 870,46 926,40 983,40 "/>
<polyline fill="none" opacity="0.3" stroke="#201F00" stroke-width="2" points="140,360 196,432 252,266 308,220 364,617 421,791 477,771 533,1017 589,1225 645,1254 702,1331 758,1365 814,1379 870,1382 926,1382 983,1382 "/>
<polyline fill="none" opacity="0.3" stroke="#403F00" stroke-width="1" points="140,1047 196,963 252,1298 308,1298 364,879 421,795 477,627 533,208 589,124 645,124 702,40 758,40 814,40 870,40 926,40 983,40 "/>
<polyline fill="none" opacity="0.3" stroke="#605F00" stroke-width="1" points="140,1256 196,1276 252,1302 308,1302 364,1077 421,990 477,944 533,578 589,333 645,200 702,160 758,100 814,74 870,40 926,40 983,40 "/>
<polyline fill="none" opacity="0.3" stroke="#807F00" stroke-width="1" points="140,885 196,885 252,1034 308,1283 364,786 421,736 477,537 533,140 589,40 645,40 702,40 758,40 814,40 870,40 926,40 983,40 "/>
<polyline fill="none" opacity="0.3" stroke="#A09F00" stroke-width="1" points="140,1104 196,1079 252,1188 308,1207 364,879 421,804 477,682 533,272 589,133 645,82 702,61 758,40 814,40 870,40 926,40 983,40 "/>
<polyline fill="none" opacity="0.3" stroke="#C0BF00" stroke-width="1" points="140,1158 196,1158 252,1158 308,1382 364,935 421,935 477,711 533,711 589,711 645,488 702,488 758,40 814,40 870,40 926,40 983,40 "/>
<polyline fill="none" opacity="0.3" stroke="#E0DF00" stroke-width="1" points="140,807 196,807 252,922 308,1305 364,500 421,500 477,424 533,194 589,194 645,155 702,79 758,40 814,40 870,40 926,40 983,40 "/>
<polyline fill="none" opacity="0.3" stroke="#00FF00" stroke-width="1" points="140,1382 196,1379 252,1182 308,1155 364,1155 421,1098 477,952 533,838 589,731 645,608 702,271 758,327 814,94 870,91 926,73 983,40 "/>
<polyline fill="none" opacity="0.3" stroke="#201F00" stroke-width="1" points="140,1379 196,1360 252,854 308,799 364,787 421,569 477,428 533,345 589,268 645,197 702,117 758,146 814,47 870,44 926,44 983,40 "/>
<polyline fill="none" opacity="0.3" stroke="#403F00" stroke-width="2" points="140,130 196,488 252,667 308,1024 364,1114 421,1203 477,1293 533,1293 589,1293 645,1382 702,1382 758,1382 814,1382 870,1382 926,1382 983,1382 "/>
<polyline fill="none" opacity="0.3" stroke="#605F00" stroke-width="1" points="140,1382 196,1382 252,1107 308,1065 364,1065 421,690 477,440 533,340 589,249 645,265 702,165 758,174 814,99 870,115 926,99 983,40 "/>
<polyline fill="none" opacity="0.3" stroke="#807F00" stroke-width="1" points="140,1382 196,857 252,740 308,274 364,390 421,99 477,40 533,40 589,40 645,40 702,40 758,40 814,40 870,40 926,40 983,40 "/>
<polyline fill="none" opacity="0.3" stroke="#A09F00" stroke-width="1" points="140,1382 196,1341 252,950 308,855 364,837 421,389 477,226 533,163 589,139 645,113 702,76 758,76 814,42 870,42 926,40 983,40 "/>
<polyline fill="none" opacity="0.3" stroke="#C0BF00" stroke-width="1" points="140,1382 196,1382 252,711 308,376 364,376 421,40 477,40 533,40 589,40 645,40 702,40 758,40 814,40 870,40 926,40 983,40 "/>
<polyline fill="none" opacity="0.3" stroke="#E0DF00" stroke-width="1" points="140,1382 196,1158 252,398 308,219 364,219 421,85 477,40 533,40 589,40 645,40 702,40 758,40 814,40 870,40 926,40 983,40 "/>
<polyline fill="none" opacity="0.3" stroke="#00FF00" stroke-width="1" points="140,1379 196,1374 252,1348 308,1328 364,1182 421,980 477,871 533,539 589,814 645,604 702,175 758,59 814,264 870,53 926,43 983,43 "/>
<polyline fill="none" opacity="0.3" stroke="#201F00" stroke-width="1" points="140,1368 196,1345 252,1248 308,1108 364,845 421,497 477,397 533,212 589,500 645,246 702,95 758,49 814,126 870,43 926,40 983,40 "/>
<polyline fill="none" opacity="0.3" stroke="#403F00" stroke-width="1" points="140,1382 196,1382 252,1382 308,1131 364,879 421,460 477,208 533,208 589,460 645,124 702,40 758,40 814,124 870,40 926,40 983,40 "/>
<polyline fill="none" opacity="0.3" stroke="#605F00" stroke-width="2" points="140,40 196,80 252,167 308,213 364,339 421,837 477,1004 533,1196 589,1083 645,1229 702,1342 758,1375 814,1276 870,1369 926,1382 983,1382 "/>
<polyline fill="none" opacity="0.3" stroke="#807F00" stroke-width="1" points="140,1382 196,1382 252,1382 308,985 364,836 421,239 477,140 533,140 589,190 645,140 702,40 758,90 814,40 870,40 926,40 983,40 "/>
<polyline fill="none" opacity="0.3" stroke="#A09F00" stroke-width="1" points="140,1369 196,1325 252,1152 308,926 364,877 421,342 477,233 533,98 589,253 645,109 702,47 758,40 814,63 870,40 926,40 983,40 "/>
<polyline fill="none" opacity="0.3" stroke="#C0BF00" stroke-width="1" points="140,1382 196,1382 252,1158 308,1158 364,935 421,711 477,488 533,40 589,40 645,40 702,40 758,40 814,40 870,40 926,40 983,40 "/>
<polyline fill="none" opacity="0.3" stroke="#E0DF00" stroke-width="1" points="140,1382 196,1382 252,1382 308,1229 364,539 421,155 477,155 533,40 589,232 645,40 702,40 758,40 814,40 870,40 926,40 983,40 "/>
<polyline fill="none" opacity="0.3" stroke="#00FF00" stroke-width="1" points="140,1382 196,1176 252,1376 308,1197 364,1146 421,1101 477,1044 533,856 589,862 645,776 702,707 758,581 814,528 870,220 926,85 983,46 "/>
<polyline fill="none" opacity="0.3" stroke="#201F00" stroke-width="1" points="140,1376 196,844 252,1257 308,838 364,706 421,569 477,479 533,390 589,348 645,309 702,274 758,201 814,188 870,101 926,44 983,40 "/>
<polyline fill="none" opacity="0.3" stroke="#403F00" stroke-width="1" points="140,1203 196,845 252,845 308,398 364,398 421,309 477,130 533,130 589,130 645,130 702,130 758,130 814,130 870,40 926,40 983,40 "/>
<polyline fill="none" opacity="0.3" stroke="#605F00" stroke-width="1" points="140,1382 196,1090 252,1340 308,1090 364,965 421,682 477,582 533,349 589,365 645,307 702,257 758,224 814,224 870,174 926,107 983,40 "/>
<polyline fill="none" opacity="0.3" stroke="#807F00" stroke-width="2" points="140,390 196,624 252,1032 308,1149 364,1265 421,1324 477,1382 533,1382 589,1382 645,1382 702,1382 758,1382 814,1382 870,1382 926,1382 983,1382 "/>
<polyline fill="none" opacity="0.3" stroke="#A09F00" stroke-width="1" points="140,1369 196,944 252,1148 308,822 364,675 421,415 477,272 533,187 589,167 645,152 702,139 758,113 814,98 870,57 926,40 983,40 "/>
<polyline fill="none" opacity="0.3" stroke="#C0BF00" stroke-width="1" points="140,1382 196,711 252,1047 308,376 364,376 421,40 477,376 533,40 589,40 645,40 702,40 758,40 814,40 870,40 926,40 983,40 "/>
<polyline fill="none" opacity="0.3" stroke="#E0DF00" stroke-width="1" points="140,1337 196,398 252,935 308,175 364,175 421,85 477,85 533,40 589,40 645,40 702,40 758,40 814,40 870,40 926,40 983,40 "/>
<polyline fill="none" opacity="0.3" stroke="#00FF00" stroke-width="1" points="140,1379 196,1180 252,1309 308,1154 364,1125 421,1099 477,881 533,811 589,752 645,643 702,113 758,222 814,48 870,51 926,43 983,40 "/>
<polyline fill="none" opacity="0.3" stroke="#201F00" stroke-width="1" points="140,1351 196,874 252,1139 308,797 364,663 421,928 477,432 533,400 589,349 645,286 702,75 758,109 814,46 870,40 926,40 983,40 "/>
<polyline fill="none" opacity="0.3" stroke="#403F00" stroke-width="1" points="140,1382 196,879 252,1131 308,879 364,627 421,879 477,292 533,208 589,208 645,124 702,40 758,40 814,40 870,40 926,40 983,40 "/>
<polyline fill="none" opacity="0.3" stroke="#605F00" stroke-width="1" points="140,1369 196,1123 252,1189 308,1063 364,904 421,718 477,426 533,373 589,359 645,273 702,107 758,133 814,47 870,40 926,40 983,40 "/>
<polyline fill="none" opacity="0.3" stroke="#807F00" stroke-width="1" points="140,1382 196,885 252,985 308,786 364,587 421,736 477,140 533,140 589,140 645,90 702,40 758,40 814,40 870,40 926,40 983,40 "/>
<polyline fill="none" opacity="0.3" stroke="#A09F00" stroke-width="2" points="140,80 196,458 252,503 308,577 364,917 421,787 477,1195 533,1220 589,1228 645,1268 702,1374 758,1371 814,1382 870,1382 926,1382 983,1382 "/>
<polyline fill="none" opacity="0.3" stroke="#C0BF00" stroke-width="1" points="140,1382 196,935 252,1158 308,935 364,711 421,935 477,488 533,40 589,488 645,488 702,40 758,40 814,40 870,40 926,40 983,40 "/>
<polyline fill="none" opacity="0.3" stroke="#E0DF00" stroke-width="1" points="140,1382 196,539 252,1190 308,500 364,385 421,1037 477,155 533,40 589,194 645,194 702,40 758,40 814,40 870,40 926,40 983,40 "/>
<polyline fill="none" opacity="0.3" stroke="#00FF00" stroke-width="1" points="140,1395 196,1395 252,1395 308,1395 364,1395 421,1395 477,1395 533,1395 589,1395 645,1395 702,1395 758,1395 814,1395 870,1395 926,1395 983,1395 "/>
<polyline fill="none" opacity="0.3" stroke="#201F00" stroke-width="1" points="140,1395 196,1395 252,1395 308,1395 364,1395 421,1395 477,1395 533,1395 589,1395 645,1395 702,1395 758,1395 814,1395 870,1395 926,1395 983,1395 "/>
<polyline fill="none" opacity="0.3" stroke="#403F00" stroke-width="1" points="140,1395 196,1395 252,1395 308,1395 364,1395 421,1395 477,1395 533,1395 589,1395 645,1395 702,1395 758,1395 814,1395 870,1395 926,1395 983,1395 "/>
<polyline fill="none" opacity="0.3" stroke="#605F00" stroke-width="1" points="140,1395 196,1395 252,1395 308,1395 364,1395 421,1395 477,1395 533,1395 589,1395 645,1395 702,1395 758,1395 814,1395 870,1395 926,1395 983,1395 "/>
<polyline fill="none" opacity="0.3" stroke="#807F00" stroke-width="1" points="140,1395 196,1395 252,1395 308,1395 364,1395 421,1395 477,1395 533,1395 589,1395 645,1395 702,1395 758,1395 814,1395 870,1395 926,1395 983,1395 "/>
<polyline fill="none" opacity="0.3" stroke="#A09F00" stroke-width="1" points="140,1395 196,1395 252,1395 308,1395 364,1395 421,1395 477,1395 533,1395 589,1395 645,1395 702,1395 758,1395 814,1395 870,1395 926,1395 983,1395 "/>
<polyline fill="none" opacity="0.3" stroke="#C0BF00" stroke-width="2" points="140,1395 196,1395 252,1395 308,1395 364,1395 421,1395 477,1395 533,1395 589,1395 645,1395 702,1395 758,1395 814,1395 870,1395 926,1395 983,1395 "/>
<polyline fill="none" opacity="0.3" stroke="#E0DF00" stroke-width="1" points="140,1395 196,1395 252,1395 308,1395 364,1395 421,1395 477,1395 533,1395 589,1395 645,1395 702,1395 758,1395 814,1395 870,1395 926,1395 983,1395 "/>
<polyline fill="none" opacity="0.3" stroke="#00FF00" stroke-width="1" points="140,1185 196,1173 252,1167 308,1164 364,1155 421,1053 477,1122 533,955 589,1116 645,991 702,653 758,519 814,241 870,97 926,82 983,46 "/>
<polyline fill="none" opacity="0.3" stroke="#201F00" stroke-width="1" points="140,873 196,867 252,838 308,835 364,796 421,492 477,607 533,422 589,601 645,396 702,236 758,175 814,130 870,66 926,53 983,40 "/>
<polyline fill="none" opacity="0.3" stroke="#403F00" stroke-width="1" points="140,845 196,845 252,845 308,845 364,756 421,309 477,398 533,130 589,309 645,219 702,130 758,130 814,40 870,40 926,40 983,40 "/>
<polyline fill="none" opacity="0.3" stroke="#605F00" stroke-width="1" points="140,1132 196,1082 252,1082 308,1074 364,1032 421,624 477,832 533,482 589,807 645,590 702,232 758,215 814,157 870,107 926,74 983,40 "/>
<polyline fill="none" opacity="0.3" stroke="#807F00" stroke-width="1" points="140,799 196,799 252,799 308,740 364,565 421,40 477,215 533,40 589,332 645,157 702,40 758,40 814,40 870,40 926,40 983,40 "/>
<polyline fill="none" opacity="0.3" stroke="#A09F00" stroke-width="1" points="140,959 196,955 252,940 308,911 364,840 421,298 477,475 533,219 589,491 645,220 702,117 758,92 814,61 870,42 926,42 983,40 "/>
<polyline fill="none" opacity="0.3" stroke="#C0BF00" stroke-width="1" points="140,711 196,711 252,711 308,711 364,376 421,376 477,376 533,40 589,376 645,376 702,40 758,40 814,40 870,40 926,40 983,40 "/>
<polyline fill="none" opacity="0.3" stroke="#E0DF00" stroke-width="2" points="140,1024 196,1024 252,1024 308,1024 364,1069 421,1382 477,1248 533,1382 589,1248 645,1337 702,1382 758,1382 814,1382 870,1382 926,1382 983,1382 "/>
<rect x="640" y="625" width="339" height="185" opacity="0.8" fill="#FFFFFF" stroke="none"/>
<rect x="640" y="625" width="339" height="185" opacity="1" fill="none" stroke="#000000"/>
<text x="750" y="635" dy="0.76em" text-anchor="start" font-family="sans-serif" font-size="40.32258064516129" opacity="1" fill="#000000">
mnist
</text>
<text x="750" y="698" dy="0.76em" text-anchor="start" font-family="sans-serif" font-size="40.32258064516129" opacity="1" fill="#000000">
baved
</text>
<text x="750" y="760" dy="0.76em" text-anchor="start" font-family="sans-serif" font-size="40.32258064516129" opacity="1" fill="#000000">
chime home
</text>
<polyline fill="none" opacity="1" stroke="#FF0000" stroke-width="5" points="650,655 700,655 "/>
<polyline fill="none" opacity="1" stroke="#0000FF" stroke-width="5" points="650,718 700,718 "/>
<polyline fill="none" opacity="1" stroke="#00FF00" stroke-width="5" points="650,780 700,780 "/>
</svg>
