<svg width="1024" height="768" viewBox="0 0 1024 768" xmlns="http://www.w3.org/2000/svg">
<rect x="0" y="0" width="1024" height="768" opacity="1" fill="#FFFFFF" stroke="none"/>
<line opacity="0.1" stroke="#000000" stroke-width="1" x1="130" y1="657" x2="130" y2="20"/>
<line opacity="0.1" stroke="#000000" stroke-width="1" x1="140" y1="657" x2="140" y2="20"/>
<line opacity="0.1" stroke="#000000" stroke-width="1" x1="151" y1="657" x2="151" y2="20"/>
<line opacity="0.1" stroke="#000000" stroke-width="1" x1="162" y1="657" x2="162" y2="20"/>
<line opacity="0.1" stroke="#000000" stroke-width="1" x1="173" y1="657" x2="173" y2="20"/>
<line opacity="0.1" stroke="#000000" stroke-width="1" x1="184" y1="657" x2="184" y2="20"/>
<line opacity="0.1" stroke="#000000" stroke-width="1" x1="195" y1="657" x2="195" y2="20"/>
<line opacity="0.1" stroke="#000000" stroke-width="1" x1="206" y1="657" x2="206" y2="20"/>
<line opacity="0.1" stroke="#000000" stroke-width="1" x1="217" y1="657" x2="217" y2="20"/>
<line opacity="0.1" stroke="#000000" stroke-width="1" x1="228" y1="657" x2="228" y2="20"/>
<line opacity="0.1" stroke="#000000" stroke-width="1" x1="239" y1="657" x2="239" y2="20"/>
<line opacity="0.1" stroke="#000000" stroke-width="1" x1="250" y1="657" x2="250" y2="20"/>
<line opacity="0.1" stroke="#000000" stroke-width="1" x1="260" y1="657" x2="260" y2="20"/>
<line opacity="0.1" stroke="#000000" stroke-width="1" x1="271" y1="657" x2="271" y2="20"/>
<line opacity="0.1" stroke="#000000" stroke-width="1" x1="282" y1="657" x2="282" y2="20"/>
<line opacity="0.1" stroke="#000000" stroke-width="1" x1="293" y1="657" x2="293" y2="20"/>
<line opacity="0.1" stroke="#000000" stroke-width="1" x1="304" y1="657" x2="304" y2="20"/>
<line opacity="0.1" stroke="#000000" stroke-width="1" x1="315" y1="657" x2="315" y2="20"/>
<line opacity="0.1" stroke="#000000" stroke-width="1" x1="326" y1="657" x2="326" y2="20"/>
<line opacity="0.1" stroke="#000000" stroke-width="1" x1="337" y1="657" x2="337" y2="20"/>
<line opacity="0.1" stroke="#000000" stroke-width="1" x1="348" y1="657" x2="348" y2="20"/>
<line opacity="0.1" stroke="#000000" stroke-width="1" x1="359" y1="657" x2="359" y2="20"/>
<line opacity="0.1" stroke="#000000" stroke-width="1" x1="370" y1="657" x2="370" y2="20"/>
<line opacity="0.1" stroke="#000000" stroke-width="1" x1="380" y1="657" x2="380" y2="20"/>
<line opacity="0.1" stroke="#000000" stroke-width="1" x1="391" y1="657" x2="391" y2="20"/>
<line opacity="0.1" stroke="#000000" stroke-width="1" x1="402" y1="657" x2="402" y2="20"/>
<line opacity="0.1" stroke="#000000" stroke-width="1" x1="413" y1="657" x2="413" y2="20"/>
<line opacity="0.1" stroke="#000000" stroke-width="1" x1="424" y1="657" x2="424" y2="20"/>
<line opacity="0.1" stroke="#000000" stroke-width="1" x1="435" y1="657" x2="435" y2="20"/>
<line opacity="0.1" stroke="#000000" stroke-width="1" x1="446" y1="657" x2="446" y2="20"/>
<line opacity="0.1" stroke="#000000" stroke-width="1" x1="457" y1="657" x2="457" y2="20"/>
<line opacity="0.1" stroke="#000000" stroke-width="1" x1="468" y1="657" x2="468" y2="20"/>
<line opacity="0.1" stroke="#000000" stroke-width="1" x1="479" y1="657" x2="479" y2="20"/>
<line opacity="0.1" stroke="#000000" stroke-width="1" x1="490" y1="657" x2="490" y2="20"/>
<line opacity="0.1" stroke="#000000" stroke-width="1" x1="501" y1="657" x2="501" y2="20"/>
<line opacity="0.1" stroke="#000000" stroke-width="1" x1="511" y1="657" x2="511" y2="20"/>
<line opacity="0.1" stroke="#000000" stroke-width="1" x1="522" y1="657" x2="522" y2="20"/>
<line opacity="0.1" stroke="#000000" stroke-width="1" x1="533" y1="657" x2="533" y2="20"/>
<line opacity="0.1" stroke="#000000" stroke-width="1" x1="544" y1="657" x2="544" y2="20"/>
<line opacity="0.1" stroke="#000000" stroke-width="1" x1="555" y1="657" x2="555" y2="20"/>
<line opacity="0.1" stroke="#000000" stroke-width="1" x1="566" y1="657" x2="566" y2="20"/>
<line opacity="0.1" stroke="#000000" stroke-width="1" x1="577" y1="657" x2="577" y2="20"/>
<line opacity="0.1" stroke="#000000" stroke-width="1" x1="588" y1="657" x2="588" y2="20"/>
<line opacity="0.1" stroke="#000000" stroke-width="1" x1="599" y1="657" x2="599" y2="20"/>
<line opacity="0.1" stroke="#000000" stroke-width="1" x1="610" y1="657" x2="610" y2="20"/>
<line opacity="0.1" stroke="#000000" stroke-width="1" x1="621" y1="657" x2="621" y2="20"/>
<line opacity="0.1" stroke="#000000" stroke-width="1" x1="631" y1="657" x2="631" y2="20"/>
<line opacity="0.1" stroke="#000000" stroke-width="1" x1="642" y1="657" x2="642" y2="20"/>
<line opacity="0.1" stroke="#000000" stroke-width="1" x1="653" y1="657" x2="653" y2="20"/>
<line opacity="0.1" stroke="#000000" stroke-width="1" x1="664" y1="657" x2="664" y2="20"/>
<line opacity="0.1" stroke="#000000" stroke-width="1" x1="675" y1="657" x2="675" y2="20"/>
<line opacity="0.1" stroke="#000000" stroke-width="1" x1="686" y1="657" x2="686" y2="20"/>
<line opacity="0.1" stroke="#000000" stroke-width="1" x1="697" y1="657" x2="697" y2="20"/>
<line opacity="0.1" stroke="#000000" stroke-width="1" x1="708" y1="657" x2="708" y2="20"/>
<line opacity="0.1" stroke="#000000" stroke-width="1" x1="719" y1="657" x2="719" y2="20"/>
<line opacity="0.1" stroke="#000000" stroke-width="1" x1="730" y1="657" x2="730" y2="20"/>
<line opacity="0.1" stroke="#000000" stroke-width="1" x1="741" y1="657" x2="741" y2="20"/>
<line opacity="0.1" stroke="#000000" stroke-width="1" x1="752" y1="657" x2="752" y2="20"/>
<line opacity="0.1" stroke="#000000" stroke-width="1" x1="762" y1="657" x2="762" y2="20"/>
<line opacity="0.1" stroke="#000000" stroke-width="1" x1="773" y1="657" x2="773" y2="20"/>
<line opacity="0.1" stroke="#000000" stroke-width="1" x1="784" y1="657" x2="784" y2="20"/>
<line opacity="0.1" stroke="#000000" stroke-width="1" x1="795" y1="657" x2="795" y2="20"/>
<line opacity="0.1" stroke="#000000" stroke-width="1" x1="806" y1="657" x2="806" y2="20"/>
<line opacity="0.1" stroke="#000000" stroke-width="1" x1="817" y1="657" x2="817" y2="20"/>
<line opacity="0.1" stroke="#000000" stroke-width="1" x1="828" y1="657" x2="828" y2="20"/>
<line opacity="0.1" stroke="#000000" stroke-width="1" x1="839" y1="657" x2="839" y2="20"/>
<line opacity="0.1" stroke="#000000" stroke-width="1" x1="850" y1="657" x2="850" y2="20"/>
<line opacity="0.1" stroke="#000000" stroke-width="1" x1="861" y1="657" x2="861" y2="20"/>
<line opacity="0.1" stroke="#000000" stroke-width="1" x1="872" y1="657" x2="872" y2="20"/>
<line opacity="0.1" stroke="#000000" stroke-width="1" x1="882" y1="657" x2="882" y2="20"/>
<line opacity="0.1" stroke="#000000" stroke-width="1" x1="893" y1="657" x2="893" y2="20"/>
<line opacity="0.1" stroke="#000000" stroke-width="1" x1="904" y1="657" x2="904" y2="20"/>
<line opacity="0.1" stroke="#000000" stroke-width="1" x1="915" y1="657" x2="915" y2="20"/>
<line opacity="0.1" stroke="#000000" stroke-width="1" x1="926" y1="657" x2="926" y2="20"/>
<line opacity="0.1" stroke="#000000" stroke-width="1" x1="937" y1="657" x2="937" y2="20"/>
<line opacity="0.1" stroke="#000000" stroke-width="1" x1="948" y1="657" x2="948" y2="20"/>
<line opacity="0.1" stroke="#000000" stroke-width="1" x1="959" y1="657" x2="959" y2="20"/>
<line opacity="0.1" stroke="#000000" stroke-width="1" x1="970" y1="657" x2="970" y2="20"/>
<line opacity="0.1" stroke="#000000" stroke-width="1" x1="981" y1="657" x2="981" y2="20"/>
<line opacity="0.1" stroke="#000000" stroke-width="1" x1="992" y1="657" x2="992" y2="20"/>
<line opacity="0.1" stroke="#000000" stroke-width="1" x1="1003" y1="657" x2="1003" y2="20"/>
<line opacity="0.1" stroke="#000000" stroke-width="1" x1="130" y1="657" x2="1003" y2="657"/>
<line opacity="0.1" stroke="#000000" stroke-width="1" x1="130" y1="648" x2="1003" y2="648"/>
<line opacity="0.1" stroke="#000000" stroke-width="1" x1="130" y1="639" x2="1003" y2="639"/>
<line opacity="0.1" stroke="#000000" stroke-width="1" x1="130" y1="630" x2="1003" y2="630"/>
<line opacity="0.1" stroke="#000000" stroke-width="1" x1="130" y1="621" x2="1003" y2="621"/>
<line opacity="0.1" stroke="#000000" stroke-width="1" x1="130" y1="612" x2="1003" y2="612"/>
<line opacity="0.1" stroke="#000000" stroke-width="1" x1="130" y1="603" x2="1003" y2="603"/>
<line opacity="0.1" stroke="#000000" stroke-width="1" x1="130" y1="594" x2="1003" y2="594"/>
<line opacity="0.1" stroke="#000000" stroke-width="1" x1="130" y1="585" x2="1003" y2="585"/>
<line opacity="0.1" stroke="#000000" stroke-width="1" x1="130" y1="576" x2="1003" y2="576"/>
<line opacity="0.1" stroke="#000000" stroke-width="1" x1="130" y1="566" x2="1003" y2="566"/>
<line opacity="0.1" stroke="#000000" stroke-width="1" x1="130" y1="557" x2="1003" y2="557"/>
<line opacity="0.1" stroke="#000000" stroke-width="1" x1="130" y1="548" x2="1003" y2="548"/>
<line opacity="0.1" stroke="#000000" stroke-width="1" x1="130" y1="539" x2="1003" y2="539"/>
<line opacity="0.1" stroke="#000000" stroke-width="1" x1="130" y1="530" x2="1003" y2="530"/>
<line opacity="0.1" stroke="#000000" stroke-width="1" x1="130" y1="521" x2="1003" y2="521"/>
<line opacity="0.1" stroke="#000000" stroke-width="1" x1="130" y1="512" x2="1003" y2="512"/>
<line opacity="0.1" stroke="#000000" stroke-width="1" x1="130" y1="503" x2="1003" y2="503"/>
<line opacity="0.1" stroke="#000000" stroke-width="1" x1="130" y1="494" x2="1003" y2="494"/>
<line opacity="0.1" stroke="#000000" stroke-width="1" x1="130" y1="485" x2="1003" y2="485"/>
<line opacity="0.1" stroke="#000000" stroke-width="1" x1="130" y1="475" x2="1003" y2="475"/>
<line opacity="0.1" stroke="#000000" stroke-width="1" x1="130" y1="466" x2="1003" y2="466"/>
<line opacity="0.1" stroke="#000000" stroke-width="1" x1="130" y1="457" x2="1003" y2="457"/>
<line opacity="0.1" stroke="#000000" stroke-width="1" x1="130" y1="448" x2="1003" y2="448"/>
<line opacity="0.1" stroke="#000000" stroke-width="1" x1="130" y1="439" x2="1003" y2="439"/>
<line opacity="0.1" stroke="#000000" stroke-width="1" x1="130" y1="430" x2="1003" y2="430"/>
<line opacity="0.1" stroke="#000000" stroke-width="1" x1="130" y1="421" x2="1003" y2="421"/>
<line opacity="0.1" stroke="#000000" stroke-width="1" x1="130" y1="412" x2="1003" y2="412"/>
<line opacity="0.1" stroke="#000000" stroke-width="1" x1="130" y1="403" x2="1003" y2="403"/>
<line opacity="0.1" stroke="#000000" stroke-width="1" x1="130" y1="394" x2="1003" y2="394"/>
<line opacity="0.1" stroke="#000000" stroke-width="1" x1="130" y1="384" x2="1003" y2="384"/>
<line opacity="0.1" stroke="#000000" stroke-width="1" x1="130" y1="375" x2="1003" y2="375"/>
<line opacity="0.1" stroke="#000000" stroke-width="1" x1="130" y1="366" x2="1003" y2="366"/>
<line opacity="0.1" stroke="#000000" stroke-width="1" x1="130" y1="357" x2="1003" y2="357"/>
<line opacity="0.1" stroke="#000000" stroke-width="1" x1="130" y1="348" x2="1003" y2="348"/>
<line opacity="0.1" stroke="#000000" stroke-width="1" x1="130" y1="339" x2="1003" y2="339"/>
<line opacity="0.1" stroke="#000000" stroke-width="1" x1="130" y1="330" x2="1003" y2="330"/>
<line opacity="0.1" stroke="#000000" stroke-width="1" x1="130" y1="321" x2="1003" y2="321"/>
<line opacity="0.1" stroke="#000000" stroke-width="1" x1="130" y1="312" x2="1003" y2="312"/>
<line opacity="0.1" stroke="#000000" stroke-width="1" x1="130" y1="303" x2="1003" y2="303"/>
<line opacity="0.1" stroke="#000000" stroke-width="1" x1="130" y1="293" x2="1003" y2="293"/>
<line opacity="0.1" stroke="#000000" stroke-width="1" x1="130" y1="284" x2="1003" y2="284"/>
<line opacity="0.1" stroke="#000000" stroke-width="1" x1="130" y1="275" x2="1003" y2="275"/>
<line opacity="0.1" stroke="#000000" stroke-width="1" x1="130" y1="266" x2="1003" y2="266"/>
<line opacity="0.1" stroke="#000000" stroke-width="1" x1="130" y1="257" x2="1003" y2="257"/>
<line opacity="0.1" stroke="#000000" stroke-width="1" x1="130" y1="248" x2="1003" y2="248"/>
<line opacity="0.1" stroke="#000000" stroke-width="1" x1="130" y1="239" x2="1003" y2="239"/>
<line opacity="0.1" stroke="#000000" stroke-width="1" x1="130" y1="230" x2="1003" y2="230"/>
<line opacity="0.1" stroke="#000000" stroke-width="1" x1="130" y1="221" x2="1003" y2="221"/>
<line opacity="0.1" stroke="#000000" stroke-width="1" x1="130" y1="212" x2="1003" y2="212"/>
<line opacity="0.1" stroke="#000000" stroke-width="1" x1="130" y1="202" x2="1003" y2="202"/>
<line opacity="0.1" stroke="#000000" stroke-width="1" x1="130" y1="193" x2="1003" y2="193"/>
<line opacity="0.1" stroke="#000000" stroke-width="1" x1="130" y1="184" x2="1003" y2="184"/>
<line opacity="0.1" stroke="#000000" stroke-width="1" x1="130" y1="175" x2="1003" y2="175"/>
<line opacity="0.1" stroke="#000000" stroke-width="1" x1="130" y1="166" x2="1003" y2="166"/>
<line opacity="0.1" stroke="#000000" stroke-width="1" x1="130" y1="157" x2="1003" y2="157"/>
<line opacity="0.1" stroke="#000000" stroke-width="1" x1="130" y1="148" x2="1003" y2="148"/>
<line opacity="0.1" stroke="#000000" stroke-width="1" x1="130" y1="139" x2="1003" y2="139"/>
<line opacity="0.1" stroke="#000000" stroke-width="1" x1="130" y1="130" x2="1003" y2="130"/>
<line opacity="0.1" stroke="#000000" stroke-width="1" x1="130" y1="121" x2="1003" y2="121"/>
<line opacity="0.1" stroke="#000000" stroke-width="1" x1="130" y1="111" x2="1003" y2="111"/>
<line opacity="0.1" stroke="#000000" stroke-width="1" x1="130" y1="102" x2="1003" y2="102"/>
<line opacity="0.1" stroke="#000000" stroke-width="1" x1="130" y1="93" x2="1003" y2="93"/>
<line opacity="0.1" stroke="#000000" stroke-width="1" x1="130" y1="84" x2="1003" y2="84"/>
<line opacity="0.1" stroke="#000000" stroke-width="1" x1="130" y1="75" x2="1003" y2="75"/>
<line opacity="0.1" stroke="#000000" stroke-width="1" x1="130" y1="66" x2="1003" y2="66"/>
<line opacity="0.1" stroke="#000000" stroke-width="1" x1="130" y1="57" x2="1003" y2="57"/>
<line opacity="0.1" stroke="#000000" stroke-width="1" x1="130" y1="48" x2="1003" y2="48"/>
<line opacity="0.1" stroke="#000000" stroke-width="1" x1="130" y1="39" x2="1003" y2="39"/>
<line opacity="0.1" stroke="#000000" stroke-width="1" x1="130" y1="30" x2="1003" y2="30"/>
<line opacity="0.1" stroke="#000000" stroke-width="1" x1="130" y1="20" x2="1003" y2="20"/>
<text x="20" y="339" dy="0.76em" text-anchor="middle" font-family="sans-serif" font-size="24.193548387096776" opacity="1" fill="#000000" transform="rotate(270, 20, 339)">
Power [dB]
</text>
<text x="567" y="748" dy="-0.5ex" text-anchor="middle" font-family="sans-serif" font-size="24.193548387096776" opacity="1" fill="#000000">
Frequency [Hz]
</text>
<line opacity="0.2" stroke="#000000" stroke-width="1" x1="130" y1="657" x2="130" y2="20"/>
<line opacity="0.2" stroke="#000000" stroke-width="1" x1="239" y1="657" x2="239" y2="20"/>
<line opacity="0.2" stroke="#000000" stroke-width="1" x1="348" y1="657" x2="348" y2="20"/>
<line opacity="0.2" stroke="#000000" stroke-width="1" x1="457" y1="657" x2="457" y2="20"/>
<line opacity="0.2" stroke="#000000" stroke-width="1" x1="566" y1="657" x2="566" y2="20"/>
<line opacity="0.2" stroke="#000000" stroke-width="1" x1="675" y1="657" x2="675" y2="20"/>
<line opacity="0.2" stroke="#000000" stroke-width="1" x1="784" y1="657" x2="784" y2="20"/>
<line opacity="0.2" stroke="#000000" stroke-width="1" x1="893" y1="657" x2="893" y2="20"/>
<line opacity="0.2" stroke="#000000" stroke-width="1" x1="1003" y1="657" x2="1003" y2="20"/>
<line opacity="0.2" stroke="#000000" stroke-width="1" x1="130" y1="657" x2="1003" y2="657"/>
<line opacity="0.2" stroke="#000000" stroke-width="1" x1="130" y1="566" x2="1003" y2="566"/>
<line opacity="0.2" stroke="#000000" stroke-width="1" x1="130" y1="475" x2="1003" y2="475"/>
<line opacity="0.2" stroke="#000000" stroke-width="1" x1="130" y1="384" x2="1003" y2="384"/>
<line opacity="0.2" stroke="#000000" stroke-width="1" x1="130" y1="293" x2="1003" y2="293"/>
<line opacity="0.2" stroke="#000000" stroke-width="1" x1="130" y1="202" x2="1003" y2="202"/>
<line opacity="0.2" stroke="#000000" stroke-width="1" x1="130" y1="111" x2="1003" y2="111"/>
<line opacity="0.2" stroke="#000000" stroke-width="1" x1="130" y1="20" x2="1003" y2="20"/>
<polyline fill="none" opacity="1" stroke="#000000" stroke-width="1" points="129,20 129,657 "/>
<text x="120" y="657" dy="0.5ex" text-anchor="end" font-family="sans-serif" font-size="24.193548387096776" opacity="1" fill="#000000">
-100.0
</text>
<polyline fill="none" opacity="1" stroke="#000000" stroke-width="1" points="124,657 129,657 "/>
<text x="120" y="566" dy="0.5ex" text-anchor="end" font-family="sans-serif" font-size="24.193548387096776" opacity="1" fill="#000000">
-80.0
</text>
<polyline fill="none" opacity="1" stroke="#000000" stroke-width="1" points="124,566 129,566 "/>
<text x="120" y="475" dy="0.5ex" text-anchor="end" font-family="sans-serif" font-size="24.193548387096776" opacity="1" fill="#000000">
-60.0
</text>
<polyline fill="none" opacity="1" stroke="#000000" stroke-width="1" points="124,475 129,475 "/>
<text x="120" y="384" dy="0.5ex" text-anchor="end" font-family="sans-serif" font-size="24.193548387096776" opacity="1" fill="#000000">
-40.0
</text>
<polyline fill="none" opacity="1" stroke="#000000" stroke-width="1" points="124,384 129,384 "/>
<text x="120" y="293" dy="0.5ex" text-anchor="end" font-family="sans-serif" font-size="24.193548387096776" opacity="1" fill="#000000">
-20.0
</text>
<polyline fill="none" opacity="1" stroke="#000000" stroke-width="1" points="124,293 129,293 "/>
<text x="120" y="202" dy="0.5ex" text-anchor="end" font-family="sans-serif" font-size="24.193548387096776" opacity="1" fill="#000000">
0.0
</text>
<polyline fill="none" opacity="1" stroke="#000000" stroke-width="1" points="124,202 129,202 "/>
<text x="120" y="111" dy="0.5ex" text-anchor="end" font-family="sans-serif" font-size="24.193548387096776" opacity="1" fill="#000000">
20.0
</text>
<polyline fill="none" opacity="1" stroke="#000000" stroke-width="1" points="124,111 129,111 "/>
<text x="120" y="20" dy="0.5ex" text-anchor="end" font-family="sans-serif" font-size="24.193548387096776" opacity="1" fill="#000000">
40.0
</text>
<polyline fill="none" opacity="1" stroke="#000000" stroke-width="1" points="124,20 129,20 "/>
<polyline fill="none" opacity="1" stroke="#000000" stroke-width="1" points="130,658 1003,658 "/>
<text x="130" y="668" dy="0.76em" text-anchor="middle" font-family="sans-serif" font-size="24.193548387096776" opacity="1" fill="#000000">
0.0
</text>
<polyline fill="none" opacity="1" stroke="#000000" stroke-width="1" points="130,658 130,663 "/>
<text x="239" y="668" dy="0.76em" text-anchor="middle" font-family="sans-serif" font-size="24.193548387096776" opacity="1" fill="#000000">
1000.0
</text>
<polyline fill="none" opacity="1" stroke="#000000" stroke-width="1" points="239,658 239,663 "/>
<text x="348" y="668" dy="0.76em" text-anchor="middle" font-family="sans-serif" font-size="24.193548387096776" opacity="1" fill="#000000">
2000.0
</text>
<polyline fill="none" opacity="1" stroke="#000000" stroke-width="1" points="348,658 348,663 "/>
<text x="457" y="668" dy="0.76em" text-anchor="middle" font-family="sans-serif" font-size="24.193548387096776" opacity="1" fill="#000000">
3000.0
</text>
<polyline fill="none" opacity="1" stroke="#000000" stroke-width="1" points="457,658 457,663 "/>
<text x="566" y="668" dy="0.76em" text-anchor="middle" font-family="sans-serif" font-size="24.193548387096776" opacity="1" fill="#000000">
4000.0
</text>
<polyline fill="none" opacity="1" stroke="#000000" stroke-width="1" points="566,658 566,663 "/>
<text x="675" y="668" dy="0.76em" text-anchor="middle" font-family="sans-serif" font-size="24.193548387096776" opacity="1" fill="#000000">
5000.0
</text>
<polyline fill="none" opacity="1" stroke="#000000" stroke-width="1" points="675,658 675,663 "/>
<text x="784" y="668" dy="0.76em" text-anchor="middle" font-family="sans-serif" font-size="24.193548387096776" opacity="1" fill="#000000">
6000.0
</text>
<polyline fill="none" opacity="1" stroke="#000000" stroke-width="1" points="784,658 784,663 "/>
<text x="893" y="668" dy="0.76em" text-anchor="middle" font-family="sans-serif" font-size="24.193548387096776" opacity="1" fill="#000000">
7000.0
</text>
<polyline fill="none" opacity="1" stroke="#000000" stroke-width="1" points="893,658 893,663 "/>
<text x="1003" y="668" dy="0.76em" text-anchor="middle" font-family="sans-serif" font-size="24.193548387096776" opacity="1" fill="#000000">
8000.0
</text>
<polyline fill="none" opacity="1" stroke="#000000" stroke-width="1" points="1003,658 1003,663 "/>
<polyline fill="none" opacity="1" stroke="#E6194B" stroke-width="1" points="130,328 131,336 133,304 134,412 136,387 137,376 139,260 140,267 142,238 143,241 145,253 146,366 148,229 149,198 151,117 152,93 154,98 155,165 157,167 158,306 160,315 161,229 163,277 164,299 166,273 167,242 169,198 170,273 172,181 173,174 175,227 176,273 178,240 180,212 181,234 183,163 184,194 186,232 187,279 189,231 190,310 192,271 193,269 195,230 196,251 198,311 199,232 201,250 202,229 204,214 205,246 207,220 208,193 210,267 211,235 213,371 214,271 216,280 217,329 219,249 220,258 222,309 223,329 225,273 227,267 228,249 230,236 231,256 233,298 234,246 236,270 237,408 239,322 240,317 242,326 243,379 245,312 246,277 248,269 249,240 251,234 252,249 254,243 255,222 257,225 258,273 260,246 261,225 263,330 264,250 266,264 267,267 269,383 270,301 272,265 273,296 275,295 277,274 278,330 280,285 281,252 283,240 284,253 286,288 287,244 289,292 290,246 292,259 293,307 295,314 296,225 298,264 299,275 301,277 302,335 304,251 305,270 307,316 308,302 310,256 311,247 313,234 314,345 316,219 317,225 319,244 320,207 322,305 324,294 325,302 327,333 328,334 330,218 331,189 333,187 334,205 336,167 337,139 339,213 340,156 342,218 343,203 345,196 346,209 348,235 349,247 351,309 352,323 354,189 355,175 357,189 358,209 360,199 361,185 363,214 364,194 366,161 367,169 369,236 370,245 372,171 374,148 375,158 377,151 378,155 380,174 381,162 383,154 384,173 386,198 387,165 389,181 390,298 392,215 393,327 395,209 396,215 398,293 399,242 401,246 402,276 404,283 405,252 407,230 408,281 410,212 411,201 413,228 414,270 416,250 417,303 419,257 421,229 422,231 424,258 425,268 427,277 428,365 430,296 431,308 433,330 434,293 436,258 437,248 439,273 440,267 442,256 443,301 445,296 446,254 448,251 449,265 451,305 452,364 454,280 455,263 457,324 458,293 460,296 461,315 463,280 464,260 466,332 467,320 469,413 471,365 472,306 474,278 475,345 477,292 478,428 480,297 481,265 483,285 484,416 486,270 487,260 489,394 490,259 492,259 493,362 495,279 496,273 498,341 499,278 501,331 502,268 504,253 505,338 507,333 508,356 510,395 511,341 513,276 514,254 516,309 518,235 519,278 521,250 522,289 524,247 525,242 527,266 528,256 530,268 531,308 533,275 534,280 536,311 537,313 539,285 540,250 542,240 543,269 545,283 546,326 548,282 549,347 551,321 552,372 554,401 555,321 557,313 558,372 560,331 561,382 563,338 564,357 566,285 568,289 569,362 571,390 572,356 574,338 575,407 577,323 578,330 580,460 581,326 583,308 584,405 586,323 587,369 589,425 590,438 592,525 593,415 595,446 596,444 598,377 599,335 601,343 602,412 604,477 605,442 607,424 608,405 610,358 611,389 613,370 615,350 616,361 618,355 619,334 621,398 622,348 624,399 625,363 627,353 628,368 630,404 631,428 633,425 634,599 636,445 637,477 639,510 640,505 642,521 643,437 645,431 646,377 648,366 649,419 651,503 652,513 654,512 655,488 657,498 658,515 660,434 661,361 663,350 665,380 666,430 668,441 669,456 671,480 672,535 674,489 675,454 677,472 678,482 680,528 681,452 683,467 684,529 686,554 687,520 689,573 690,657 692,596 693,634 695,634 696,658 698,640 699,658 701,636 702,654 704,658 705,606 707,596 708,494 710,483 712,470 713,518 715,411 716,405 718,458 719,509 721,479 722,513 724,431 725,420 727,512 728,451 730,452 731,486 733,479 734,569 736,522 737,535 739,551 740,488 742,529 743,563 745,493 746,479 748,472 749,446 751,384 752,402 754,512 755,500 757,567 758,455 760,501 762,498 763,626 765,547 766,514 768,509 769,529 771,582 772,505 774,511 775,533 777,557 778,598 780,616 781,658 783,658 784,658 786,658 787,658 789,658 790,658 792,658 793,658 795,658 796,658 798,658 799,658 801,622 802,658 804,658 805,543 807,533 809,542 810,480 812,466 813,483 815,461 816,394 818,399 819,455 821,525 822,529 824,576 825,509 827,503 828,432 830,463 831,448 833,462 834,464 836,469 837,430 839,410 840,437 842,518 843,443 845,570 846,452 848,492 849,542 851,556 852,492 854,420 855,399 857,420 859,478 860,569 862,518 863,471 865,441 866,424 868,427 869,499 871,645 872,531 874,562 875,629 877,529 878,555 880,519 881,448 883,416 884,466 886,448 887,494 889,519 890,658 892,507 893,460 895,539 896,460 898,550 899,561 901,537 902,658 904,489 906,552 907,533 909,622 910,658 912,462 913,407 915,399 916,431 918,467 919,456 921,416 922,474 924,461 925,513 927,451 928,471 930,516 931,536 933,464 934,423 936,456 937,527 939,567 940,606 942,627 943,591 945,632 946,577 948,544 949,546 951,543 952,525 954,529 956,549 957,587 959,533 960,500 962,540 963,566 965,504 966,450 968,425 969,438 971,465 972,472 974,422 975,412 977,445 978,503 980,567 981,555 983,553 984,474 986,457 987,464 989,503 990,480 992,466 993,576 995,508 996,483 998,441 999,455 1001,568 1003,530 1004,568 1004,455 1004,441 1004,483 1004,508 1004,576 1004,466 1004,480 1004,503 1004,464 1004,457 1004,474 1004,553 1004,555 1004,567 1004,503 1004,445 1004,412 1004,422 1004,472 1004,465 1004,438 1004,425 1004,450 1004,504 1004,566 1004,540 1004,500 1004,533 1004,587 1004,549 1004,529 1004,525 1004,543 1004,546 1004,544 1004,577 1004,632 1004,591 1004,627 1004,606 1004,567 1004,527 1004,456 1004,423 1004,464 1004,536 1004,516 1004,471 1004,451 1004,513 1004,461 1004,474 1004,416 1004,456 1004,467 1004,431 1004,399 1004,407 1004,462 1004,658 1004,622 1004,533 1004,552 1004,489 1004,658 1004,537 1004,561 1004,550 1004,460 1004,539 1004,460 1004,507 1004,658 1004,519 1004,494 1004,448 1004,466 1004,416 1004,448 1004,519 1004,555 1004,529 1004,629 1004,562 1004,531 1004,645 1004,499 1004,427 1004,424 1004,441 1004,471 1004,518 1004,569 1004,478 1004,420 1004,399 1004,420 1004,492 1004,556 1004,542 1004,492 1004,452 1004,570 1004,443 1004,518 1004,437 1004,410 1004,430 1004,469 1004,464 1004,462 1004,448 1004,463 1004,432 1004,503 1004,509 1004,576 1004,529 1004,525 1004,455 1004,399 1004,394 1004,461 1004,483 1004,466 1004,480 1004,542 1004,533 1004,543 1004,658 1004,658 1004,622 1004,658 1004,658 1004,658 1004,658 1004,658 1004,658 1004,658 1004,658 1004,658 1004,658 1004,658 1004,658 1004,658 1004,616 1004,598 1004,557 1004,533 1004,511 1004,505 1004,582 1004,529 1004,509 1004,514 1004,547 1004,626 1004,498 1004,501 1004,455 1004,567 1004,500 1004,512 1004,402 1004,384 1004,446 1004,472 1004,479 1004,493 1004,563 1004,529 1004,488 1004,551 1004,535 1004,522 1004,569 1004,479 1004,486 1004,452 1004,451 1004,512 1004,420 1004,431 1004,513 1004,479 1004,509 1004,458 1004,405 1004,411 1004,518 1004,470 1004,483 1004,494 1004,596 1004,606 1004,658 1004,654 1004,636 1004,658 1004,640 1004,658 1004,634 1004,634 1004,596 1004,657 1004,573 1004,520 1004,554 1004,529 1004,467 1004,452 1004,528 1004,482 1004,472 1004,454 1004,489 1004,535 1004,480 1004,456 1004,441 1004,430 1004,380 1004,350 1004,361 1004,434 1004,515 1004,498 1004,488 1004,512 1004,513 1004,503 1004,419 1004,366 1004,377 1004,431 1004,437 1004,521 1004,505 1004,510 1004,477 1004,445 1004,599 1004,425 1004,428 1004,404 1004,368 1004,353 1004,363 1004,399 1004,348 1004,398 1004,334 1004,355 1004,361 1004,350 1004,370 1004,389 1004,358 1004,405 1004,424 1004,442 1004,477 1004,412 1004,343 1004,335 1004,377 1004,444 1004,446 1004,415 1004,525 1004,438 1004,425 1004,369 1004,323 1004,405 1004,308 1004,326 1004,460 1004,330 1004,323 1004,407 1004,338 1004,356 1004,390 1004,362 1004,289 1004,285 1004,357 1004,338 1004,382 1004,331 1004,372 1004,313 1004,321 1004,401 1004,372 1004,321 1004,347 1004,282 1004,326 1004,283 1004,269 1004,240 1004,250 1004,285 1004,313 1004,311 1004,280 1004,275 1004,308 1004,268 1004,256 1004,266 1004,242 1004,247 1004,289 1004,250 1004,278 1004,235 1004,309 1004,254 1004,276 1004,341 1004,395 1004,356 1004,333 1004,338 1004,253 1004,268 1004,331 1004,278 1004,341 1004,273 1004,279 1004,362 1004,259 1004,259 1004,394 1004,260 1004,270 1004,416 1004,285 1004,265 1004,297 1004,428 1004,292 1004,345 1004,278 1004,306 1004,365 1004,413 1004,320 1004,332 1004,260 1004,280 1004,315 1004,296 1004,293 1004,324 1004,263 1004,280 1004,364 1004,305 1004,265 1004,251 1004,254 1004,296 1004,301 1004,256 1004,267 1004,273 1004,248 1004,258 1004,293 1004,330 1004,308 1004,296 1004,365 1004,277 1004,268 1004,258 1004,231 1004,229 1004,257 1004,303 1004,250 1004,270 1004,228 1004,201 1004,212 1004,281 1004,230 1004,252 1004,283 1004,276 1004,246 1004,242 1004,293 1004,215 1004,209 1004,327 1004,215 1004,298 1004,181 1004,165 1004,198 1004,173 1004,154 1004,162 1004,174 1004,155 1004,151 1004,158 1004,148 1004,171 1004,245 1004,236 1004,169 1004,161 1004,194 1004,214 1004,185 1004,199 1004,209 1004,189 1004,175 1004,189 1004,323 1004,309 1004,247 1004,235 1004,209 1004,196 1004,203 1004,218 1004,156 1004,213 1004,139 1004,167 1004,205 1004,187 1004,189 1004,218 1004,334 1004,333 1004,302 1004,294 1004,305 1004,207 1004,244 1004,225 1004,219 1004,345 1004,234 1004,247 1004,256 1004,302 1004,316 1004,270 1004,251 1004,335 1004,277 1004,275 1004,264 1004,225 1004,314 1004,307 1004,259 1004,246 1004,292 1004,244 1004,288 1004,253 1004,240 1004,252 1004,285 1004,330 1004,274 1004,295 1004,296 1004,265 1004,301 1004,383 1004,267 1004,264 1004,250 1004,330 1004,225 1004,246 1004,273 1004,225 1004,222 1004,243 1004,249 1004,234 1004,240 1004,269 1004,277 1004,312 1004,379 1004,326 1004,317 1004,322 1004,408 1004,270 1004,246 1004,298 1004,256 1004,236 1004,249 1004,267 1004,273 1004,329 1004,309 1004,258 1004,249 1004,329 1004,280 1004,271 1004,371 1004,235 1004,267 1004,193 1004,220 1004,246 1004,214 1004,229 1004,250 1004,232 1004,311 1004,251 1004,230 1004,269 1004,271 1004,310 1004,231 1004,279 1004,232 1004,194 1004,163 1004,234 1004,212 1004,240 1004,273 1004,227 1004,174 1004,181 1004,273 1004,198 1004,242 1004,273 1004,299 1004,277 1004,229 1004,315 1004,306 1004,167 1004,165 1004,98 1004,93 1004,117 1004,198 1004,229 1004,366 1004,253 1004,241 1004,238 1004,267 1004,260 1004,376 1004,387 1004,412 1004,304 1004,336 "/>
<polyline fill="none" opacity="1" stroke="#3CB44B" stroke-width="1" points="130,341 131,341 133,341 134,340 136,339 137,337 139,336 140,334 142,332 143,330 145,328 146,325 148,323 149,320 151,318 152,315 154,313 155,310 157,308 158,306 160,304 161,303 163,301 164,300 166,299 167,298 169,298 170,298 172,298 173,298 175,299 176,299 178,300 180,301 181,302 183,304 184,305 186,307 187,308 189,310 190,311 192,313 193,314 195,316 196,317 198,319 199,320 201,321 202,323 204,324 205,325 207,325 208,326 210,327 211,328 213,328 214,329 216,329 217,330 219,330 220,330 222,331 223,331 225,331 227,331 228,332 230,332 231,332 233,332 234,332 236,332 237,332 239,332 240,332 242,332 243,332 245,332 246,332 248,332 249,332 251,332 252,331 254,331 255,331 257,331 258,330 260,330 261,330 263,329 264,329 266,329 267,329 269,328 270,328 272,328 273,328 275,328 277,328 278,328 280,328 281,328 283,328 284,328 286,328 287,328 289,329 290,329 292,329 293,329 295,329 296,329 298,329 299,329 301,329 302,329 304,329 305,329 307,328 308,328 310,327 311,327 313,326 314,325 316,324 317,323 319,322 320,321 322,319 324,318 325,317 327,315 328,314 330,312 331,311 333,309 334,307 336,306 337,304 339,303 340,301 342,300 343,298 345,297 346,296 348,295 349,293 351,292 352,291 354,290 355,289 357,289 358,288 360,287 361,287 363,286 364,286 366,286 367,285 369,285 370,286 372,286 374,286 375,286 377,287 378,288 380,288 381,289 383,290 384,291 386,293 387,294 389,295 390,297 392,298 393,300 395,302 396,303 398,305 399,307 401,309 402,310 404,312 405,314 407,315 408,317 410,319 411,320 413,321 414,323 416,324 417,325 419,326 421,327 422,328 424,328 425,329 427,330 428,330 430,330 431,331 433,331 434,331 436,332 437,332 439,332 440,333 442,333 443,333 445,334 446,334 448,335 449,335 451,336 452,337 454,338 455,339 457,339 458,340 460,341 461,343 463,344 464,345 466,346 467,347 469,348 471,349 472,350 474,350 475,351 477,352 478,352 480,353 481,353 483,353 484,353 486,353 487,352 489,352 490,351 492,351 493,350 495,349 496,348 498,347 499,346 501,344 502,343 504,342 505,340 507,339 508,338 510,337 511,335 513,334 514,333 516,332 518,331 519,331 521,330 522,329 524,329 525,329 527,329 528,329 530,329 531,330 533,330 534,331 536,332 537,333 539,334 540,335 542,337 543,338 545,340 546,342 548,344 549,346 551,348 552,350 554,352 555,354 557,356 558,358 560,360 561,362 563,364 564,366 566,368 568,370 569,372 571,373 572,375 574,376 575,378 577,379 578,380 580,381 581,382 583,383 584,383 586,384 587,385 589,385 590,385 592,385 593,386 595,386 596,386 598,386 599,386 601,386 602,387 604,387 605,387 607,387 608,388 610,388 611,389 613,390 615,390 616,391 618,392 619,393 621,394 622,395 624,396 625,397 627,398 628,399 630,400 631,402 633,403 634,404 636,405 637,406 639,407 640,408 642,409 643,410 645,411 646,411 648,412 649,413 651,414 652,415 654,416 655,417 657,418 658,419 660,420 661,421 663,423 665,424 666,426 668,428 669,430 671,432 672,435 674,437 675,440 677,443 678,446 680,449 681,452 683,455 684,458 686,461 687,464 689,467 690,470 692,472 693,474 695,476 696,478 698,479 699,480 701,480 702,481 704,480 705,480 707,478 708,477 710,475 712,473 713,470 715,467 716,464 718,460 719,456 721,452 722,448 724,444 725,440 727,436 728,433 730,429 731,426 733,423 734,420 736,418 737,417 739,415 740,415 742,415 743,415 745,416 746,417 748,419 749,422 751,425 752,429 754,433 755,437 757,442 758,447 760,452 762,457 763,463 765,468 766,474 768,480 769,485 771,490 772,495 774,500 775,504 777,508 778,511 780,514 781,516 783,518 784,520 786,521 787,521 789,521 790,520 792,519 793,517 795,515 796,512 798,509 799,506 801,502 802,498 804,493 805,489 807,484 809,479 810,474 812,469 813,464 815,459 816,454 818,450 819,445 821,441 822,437 824,433 825,429 827,426 828,423 830,421 831,419 833,417 834,416 836,415 837,414 839,414 840,414 842,414 843,415 845,416 846,418 848,419 849,421 851,423 852,425 854,428 855,430 857,433 859,435 860,438 862,441 863,443 865,445 866,448 868,450 869,452 871,453 872,455 874,456 875,457 877,458 878,459 880,459 881,459 883,459 884,458 886,458 887,457 889,456 890,455 892,454 893,453 895,451 896,450 898,449 899,447 901,446 902,445 904,444 906,443 907,442 909,442 910,441 912,441 913,441 915,441 916,441 918,441 919,442 921,443 922,444 924,444 925,445 927,447 928,448 930,449 931,450 933,451 934,452 936,453 937,454 939,455 940,455 942,456 943,456 945,456 946,456 948,456 949,456 951,455 952,455 954,454 956,453 957,452 959,451 960,450 962,449 963,448 965,447 966,446 968,444 969,443 971,442 972,441 974,440 975,440 977,439 978,438 980,437 981,437 983,437 984,436 986,436 987,436 989,436 990,435 992,435 993,435 995,435 996,435 998,435 999,435 1001,435 1003,435 1004,435 1004,435 1004,435 1004,435 1004,435 1004,435 1004,435 1004,435 1004,436 1004,436 1004,436 1004,436 1004,437 1004,437 1004,437 1004,438 1004,439 1004,440 1004,440 1004,441 1004,442 1004,443 1004,444 1004,446 1004,447 1004,448 1004,449 1004,450 1004,451 1004,452 1004,453 1004,454 1004,455 1004,455 1004,456 1004,456 1004,456 1004,456 1004,456 1004,456 1004,455 1004,455 1004,454 1004,453 1004,452 1004,451 1004,450 1004,449 1004,448 1004,447 1004,445 1004,444 1004,444 1004,443 1004,442 1004,441 1004,441 1004,441 1004,441 1004,441 1004,441 1004,442 1004,442 1004,443 1004,444 1004,445 1004,446 1004,447 1004,449 1004,450 1004,451 1004,453 1004,454 1004,455 1004,456 1004,457 1004,458 1004,458 1004,459 1004,459 1004,459 1004,459 1004,458 1004,457 1004,456 1004,455 1004,453 1004,452 1004,450 1004,448 1004,445 1004,443 1004,441 1004,438 1004,435 1004,433 1004,430 1004,428 1004,425 1004,423 1004,421 1004,419 1004,418 1004,416 1004,415 1004,414 1004,414 1004,414 1004,414 1004,415 1004,416 1004,417 1004,419 1004,421 1004,423 1004,426 1004,429 1004,433 1004,437 1004,441 1004,445 1004,450 1004,454 1004,459 1004,464 1004,469 1004,474 1004,479 1004,484 1004,489 1004,493 1004,498 1004,502 1004,506 1004,509 1004,512 1004,515 1004,517 1004,519 1004,520 1004,521 1004,521 1004,521 1004,520 1004,518 1004,516 1004,514 1004,511 1004,508 1004,504 1004,500 1004,495 1004,490 1004,485 1004,480 1004,474 1004,468 1004,463 1004,457 1004,452 1004,447 1004,442 1004,437 1004,433 1004,429 1004,425 1004,422 1004,419 1004,417 1004,416 1004,415 1004,415 1004,415 1004,415 1004,417 1004,418 1004,420 1004,423 1004,426 1004,429 1004,433 1004,436 1004,440 1004,444 1004,448 1004,452 1004,456 1004,460 1004,464 1004,467 1004,470 1004,473 1004,475 1004,477 1004,478 1004,480 1004,480 1004,481 1004,480 1004,480 1004,479 1004,478 1004,476 1004,474 1004,472 1004,470 1004,467 1004,464 1004,461 1004,458 1004,455 1004,452 1004,449 1004,446 1004,443 1004,440 1004,437 1004,435 1004,432 1004,430 1004,428 1004,426 1004,424 1004,423 1004,421 1004,420 1004,419 1004,418 1004,417 1004,416 1004,415 1004,414 1004,413 1004,412 1004,411 1004,411 1004,410 1004,409 1004,408 1004,407 1004,406 1004,405 1004,404 1004,403 1004,402 1004,400 1004,399 1004,398 1004,397 1004,396 1004,395 1004,394 1004,393 1004,392 1004,391 1004,390 1004,390 1004,389 1004,388 1004,388 1004,387 1004,387 1004,387 1004,387 1004,386 1004,386 1004,386 1004,386 1004,386 1004,386 1004,385 1004,385 1004,385 1004,385 1004,384 1004,383 1004,383 1004,382 1004,381 1004,380 1004,379 1004,378 1004,376 1004,375 1004,373 1004,372 1004,370 1004,368 1004,366 1004,364 1004,362 1004,360 1004,358 1004,356 1004,354 1004,352 1004,350 1004,348 1004,346 1004,344 1004,342 1004,340 1004,338 1004,337 1004,335 1004,334 1004,333 1004,332 1004,331 1004,330 1004,330 1004,329 1004,329 1004,329 1004,329 1004,329 1004,329 1004,330 1004,331 1004,331 1004,332 1004,333 1004,334 1004,335 1004,337 1004,338 1004,339 1004,340 1004,342 1004,343 1004,344 1004,346 1004,347 1004,348 1004,349 1004,350 1004,351 1004,351 1004,352 1004,352 1004,353 1004,353 1004,353 1004,353 1004,353 1004,352 1004,352 1004,351 1004,350 1004,350 1004,349 1004,348 1004,347 1004,346 1004,345 1004,344 1004,343 1004,341 1004,340 1004,339 1004,339 1004,338 1004,337 1004,336 1004,335 1004,335 1004,334 1004,334 1004,333 1004,333 1004,333 1004,332 1004,332 1004,332 1004,331 1004,331 1004,331 1004,330 1004,330 1004,330 1004,329 1004,328 1004,328 1004,327 1004,326 1004,325 1004,324 1004,323 1004,321 1004,320 1004,319 1004,317 1004,315 1004,314 1004,312 1004,310 1004,309 1004,307 1004,305 1004,303 1004,302 1004,300 1004,298 1004,297 1004,295 1004,294 1004,293 1004,291 1004,290 1004,289 1004,288 1004,288 1004,287 1004,286 1004,286 1004,286 1004,286 1004,285 1004,285 1004,286 1004,286 1004,286 1004,287 1004,287 1004,288 1004,289 1004,289 1004,290 1004,291 1004,292 1004,293 1004,295 1004,296 1004,297 1004,298 1004,300 1004,301 1004,303 1004,304 1004,306 1004,307 1004,309 1004,311 1004,312 1004,314 1004,315 1004,317 1004,318 1004,319 1004,321 1004,322 1004,323 1004,324 1004,325 1004,326 1004,327 1004,327 1004,328 1004,328 1004,329 1004,329 1004,329 1004,329 1004,329 1004,329 1004,329 1004,329 1004,329 1004,329 1004,329 1004,329 1004,328 1004,328 1004,328 1004,328 1004,328 1004,328 1004,328 1004,328 1004,328 1004,328 1004,328 1004,328 1004,328 1004,329 1004,329 1004,329 1004,329 1004,330 1004,330 1004,330 1004,331 1004,331 1004,331 1004,331 1004,332 1004,332 1004,332 1004,332 1004,332 1004,332 1004,332 1004,332 1004,332 1004,332 1004,332 1004,332 1004,332 1004,332 1004,332 1004,332 1004,331 1004,331 1004,331 1004,331 1004,330 1004,330 1004,330 1004,329 1004,329 1004,328 1004,328 1004,327 1004,326 1004,325 1004,325 1004,324 1004,323 1004,321 1004,320 1004,319 1004,317 1004,316 1004,314 1004,313 1004,311 1004,310 1004,308 1004,307 1004,305 1004,304 1004,302 1004,301 1004,300 1004,299 1004,299 1004,298 1004,298 1004,298 1004,298 1004,298 1004,299 1004,300 1004,301 1004,303 1004,304 1004,306 1004,308 1004,310 1004,313 1004,315 1004,318 1004,320 1004,323 1004,325 1004,328 1004,330 1004,332 1004,334 1004,336 1004,337 1004,339 1004,340 1004,341 1004,341 "/>
<polyline fill="none" opacity="1" stroke="#FFE119" stroke-width="1" points="130,373 131,373 133,373 134,373 136,373 137,373 139,373 140,373 142,373 143,374 145,374 146,374 148,374 149,374 151,374 152,374 154,374 155,374 157,374 158,374 160,374 161,374 163,374 164,374 166,374 167,374 169,374 170,374 172,374 173,374 175,374 176,374 178,374 180,374 181,374 183,374 184,374 186,374 187,374 189,374 190,374 192,375 193,375 195,375 196,375 198,375 199,375 201,375 202,375 204,376 205,376 207,376 208,376 210,376 211,376 213,376 214,376 216,375 217,375 219,375 220,375 222,375 223,374 225,374 227,374 228,374 230,373 231,373 233,373 234,373 236,372 237,372 239,372 240,372 242,372 243,371 245,371 246,371 248,371 249,371 251,371 252,371 254,371 255,371 257,371 258,371 260,372 261,372 263,372 264,372 266,372 267,372 269,372 270,372 272,372 273,371 275,371 277,371 278,371 280,371 281,371 283,371 284,370 286,370 287,370 289,370 290,370 292,370 293,370 295,369 296,369 298,369 299,369 301,369 302,370 304,370 305,370 307,370 308,370 310,370 311,370 313,371 314,371 316,371 317,371 319,372 320,372 322,372 324,372 325,373 327,373 328,373 330,373 331,373 333,373 334,374 336,374 337,374 339,374 340,374 342,374 343,374 345,374 346,374 348,374 349,374 351,374 352,374 354,374 355,374 357,374 358,375 360,375 361,375 363,375 364,375 366,375 367,375 369,375 370,375 372,375 374,375 375,375 377,375 378,375 380,375 381,375 383,375 384,375 386,375 387,375 389,375 390,375 392,376 393,376 395,376 396,376 398,376 399,376 401,376 402,377 404,377 405,377 407,377 408,377 410,377 411,378 413,378 414,378 416,378 417,378 419,379 421,379 422,379 424,379 425,379 427,379 428,379 430,380 431,380 433,380 434,380 436,380 437,380 439,381 440,381 442,381 443,381 445,381 446,381 448,382 449,382 451,382 452,382 454,383 455,383 457,383 458,383 460,384 461,384 463,384 464,384 466,384 467,385 469,385 471,385 472,385 474,385 475,385 477,385 478,385 480,385 481,384 483,384 484,384 486,384 487,384 489,383 490,383 492,383 493,383 495,382 496,382 498,382 499,382 501,381 502,381 504,381 505,381 507,381 508,381 510,380 511,380 513,380 514,380 516,380 518,380 519,380 521,380 522,380 524,380 525,380 527,380 528,379 530,379 531,379 533,379 534,379 536,378 537,378 539,378 540,377 542,377 543,377 545,376 546,376 548,375 549,375 551,375 552,374 554,374 555,373 557,373 558,373 560,372 561,372 563,372 564,372 566,372 568,371 569,372 571,372 572,372 574,372 575,373 577,373 578,374 580,375 581,376 583,378 584,379 586,381 587,383 589,385 590,387 592,389 593,392 595,394 596,397 598,399 599,402 601,404 602,407 604,409 605,412 607,414 608,416 610,418 611,420 613,422 615,423 616,425 618,426 619,427 621,428 622,429 624,429 625,430 627,430 628,431 630,431 631,431 633,432 634,432 636,433 637,433 639,435 640,436 642,438 643,440 645,443 646,446 648,450 649,454 651,458 652,462 654,467 655,472 657,477 658,481 660,486 661,491 663,495 665,499 666,504 668,508 669,512 671,515 672,519 674,522 675,525 677,529 678,531 680,534 681,536 683,539 684,541 686,543 687,545 689,546 690,547 692,549 693,550 695,550 696,551 698,551 699,551 701,551 702,551 704,551 705,550 707,549 708,548 710,546 712,545 713,543 715,540 716,538 718,535 719,532 721,528 722,525 724,521 725,517 727,513 728,509 730,505 731,502 733,500 734,499 736,500 737,502 739,505 740,510 742,515 743,521 745,527 746,533 748,539 749,544 751,550 752,555 754,560 755,565 757,569 758,573 760,577 762,580 763,584 765,587 766,590 768,592 769,595 771,597 772,599 774,600 775,602 777,603 778,604 780,605 781,606 783,607 784,607 786,607 787,607 789,607 790,607 792,606 793,605 795,604 796,603 798,602 799,600 801,598 802,596 804,594 805,592 807,589 809,586 810,583 812,579 813,575 815,571 816,567 818,562 819,557 821,552 822,546 824,540 825,534 827,528 828,522 830,517 831,513 833,509 834,508 836,508 837,509 839,512 840,516 842,520 843,525 845,529 846,534 848,538 849,542 851,546 852,549 854,552 855,555 857,557 859,559 860,561 862,562 863,563 865,564 866,565 868,565 869,565 871,565 872,565 874,564 875,563 877,562 878,561 880,560 881,558 883,556 884,554 886,552 887,550 889,548 890,546 892,544 893,542 895,541 896,539 898,538 899,538 901,538 902,538 904,538 906,540 907,541 909,543 910,545 912,547 913,549 915,551 916,554 918,556 919,558 921,560 922,562 924,564 925,565 927,567 928,568 930,569 931,570 933,571 934,572 936,573 937,573 939,573 940,573 942,573 943,573 945,572 946,572 948,571 949,571 951,570 952,569 954,568 956,567 957,566 959,565 960,564 962,563 963,563 965,562 966,561 968,561 969,561 971,560 972,560 974,560 975,561 977,561 978,561 980,562 981,563 983,563 984,564 986,565 987,566 989,566 990,567 992,568 993,568 995,569 996,569 998,570 999,570 1001,570 1003,570 1004,570 1004,570 1004,570 1004,569 1004,569 1004,568 1004,568 1004,567 1004,566 1004,566 1004,565 1004,564 1004,563 1004,563 1004,562 1004,561 1004,561 1004,561 1004,560 1004,560 1004,560 1004,561 1004,561 1004,561 1004,562 1004,563 1004,563 1004,564 1004,565 1004,566 1004,567 1004,568 1004,569 1004,570 1004,571 1004,571 1004,572 1004,572 1004,573 1004,573 1004,573 1004,573 1004,573 1004,573 1004,572 1004,571 1004,570 1004,569 1004,568 1004,567 1004,565 1004,564 1004,562 1004,560 1004,558 1004,556 1004,554 1004,551 1004,549 1004,547 1004,545 1004,543 1004,541 1004,540 1004,538 1004,538 1004,538 1004,538 1004,538 1004,539 1004,541 1004,542 1004,544 1004,546 1004,548 1004,550 1004,552 1004,554 1004,556 1004,558 1004,560 1004,561 1004,562 1004,563 1004,564 1004,565 1004,565 1004,565 1004,565 1004,565 1004,564 1004,563 1004,562 1004,561 1004,559 1004,557 1004,555 1004,552 1004,549 1004,546 1004,542 1004,538 1004,534 1004,529 1004,525 1004,520 1004,516 1004,512 1004,509 1004,508 1004,508 1004,509 1004,513 1004,517 1004,522 1004,528 1004,534 1004,540 1004,546 1004,552 1004,557 1004,562 1004,567 1004,571 1004,575 1004,579 1004,583 1004,586 1004,589 1004,592 1004,594 1004,596 1004,598 1004,600 1004,602 1004,603 1004,604 1004,605 1004,606 1004,607 1004,607 1004,607 1004,607 1004,607 1004,607 1004,606 1004,605 1004,604 1004,603 1004,602 1004,600 1004,599 1004,597 1004,595 1004,592 1004,590 1004,587 1004,584 1004,580 1004,577 1004,573 1004,569 1004,565 1004,560 1004,555 1004,550 1004,544 1004,539 1004,533 1004,527 1004,521 1004,515 1004,510 1004,505 1004,502 1004,500 1004,499 1004,500 1004,502 1004,505 1004,509 1004,513 1004,517 1004,521 1004,525 1004,528 1004,532 1004,535 1004,538 1004,540 1004,543 1004,545 1004,546 1004,548 1004,549 1004,550 1004,551 1004,551 1004,551 1004,551 1004,551 1004,551 1004,550 1004,550 1004,549 1004,547 1004,546 1004,545 1004,543 1004,541 1004,539 1004,536 1004,534 1004,531 1004,529 1004,525 1004,522 1004,519 1004,515 1004,512 1004,508 1004,504 1004,499 1004,495 1004,491 1004,486 1004,481 1004,477 1004,472 1004,467 1004,462 1004,458 1004,454 1004,450 1004,446 1004,443 1004,440 1004,438 1004,436 1004,435 1004,433 1004,433 1004,432 1004,432 1004,431 1004,431 1004,431 1004,430 1004,430 1004,429 1004,429 1004,428 1004,427 1004,426 1004,425 1004,423 1004,422 1004,420 1004,418 1004,416 1004,414 1004,412 1004,409 1004,407 1004,404 1004,402 1004,399 1004,397 1004,394 1004,392 1004,389 1004,387 1004,385 1004,383 1004,381 1004,379 1004,378 1004,376 1004,375 1004,374 1004,373 1004,373 1004,372 1004,372 1004,372 1004,372 1004,371 1004,372 1004,372 1004,372 1004,372 1004,372 1004,373 1004,373 1004,373 1004,374 1004,374 1004,375 1004,375 1004,375 1004,376 1004,376 1004,377 1004,377 1004,377 1004,378 1004,378 1004,378 1004,379 1004,379 1004,379 1004,379 1004,379 1004,380 1004,380 1004,380 1004,380 1004,380 1004,380 1004,380 1004,380 1004,380 1004,380 1004,380 1004,380 1004,381 1004,381 1004,381 1004,381 1004,381 1004,381 1004,382 1004,382 1004,382 1004,382 1004,383 1004,383 1004,383 1004,383 1004,384 1004,384 1004,384 1004,384 1004,384 1004,385 1004,385 1004,385 1004,385 1004,385 1004,385 1004,385 1004,385 1004,385 1004,384 1004,384 1004,384 1004,384 1004,384 1004,383 1004,383 1004,383 1004,383 1004,382 1004,382 1004,382 1004,382 1004,381 1004,381 1004,381 1004,381 1004,381 1004,381 1004,380 1004,380 1004,380 1004,380 1004,380 1004,380 1004,379 1004,379 1004,379 1004,379 1004,379 1004,379 1004,379 1004,378 1004,378 1004,378 1004,378 1004,378 1004,377 1004,377 1004,377 1004,377 1004,377 1004,377 1004,376 1004,376 1004,376 1004,376 1004,376 1004,376 1004,376 1004,375 1004,375 1004,375 1004,375 1004,375 1004,375 1004,375 1004,375 1004,375 1004,375 1004,375 1004,375 1004,375 1004,375 1004,375 1004,375 1004,375 1004,375 1004,375 1004,375 1004,375 1004,375 1004,374 1004,374 1004,374 1004,374 1004,374 1004,374 1004,374 1004,374 1004,374 1004,374 1004,374 1004,374 1004,374 1004,374 1004,374 1004,374 1004,373 1004,373 1004,373 1004,373 1004,373 1004,373 1004,372 1004,372 1004,372 1004,372 1004,371 1004,371 1004,371 1004,371 1004,370 1004,370 1004,370 1004,370 1004,370 1004,370 1004,370 1004,369 1004,369 1004,369 1004,369 1004,369 1004,370 1004,370 1004,370 1004,370 1004,370 1004,370 1004,370 1004,371 1004,371 1004,371 1004,371 1004,371 1004,371 1004,371 1004,372 1004,372 1004,372 1004,372 1004,372 1004,372 1004,372 1004,372 1004,372 1004,371 1004,371 1004,371 1004,371 1004,371 1004,371 1004,371 1004,371 1004,371 1004,371 1004,371 1004,372 1004,372 1004,372 1004,372 1004,372 1004,373 1004,373 1004,373 1004,373 1004,374 1004,374 1004,374 1004,374 1004,375 1004,375 1004,375 1004,375 1004,375 1004,376 1004,376 1004,376 1004,376 1004,376 1004,376 1004,376 1004,376 1004,375 1004,375 1004,375 1004,375 1004,375 1004,375 1004,375 1004,375 1004,374 1004,374 1004,374 1004,374 1004,374 1004,374 1004,374 1004,374 1004,374 1004,374 1004,374 1004,374 1004,374 1004,374 1004,374 1004,374 1004,374 1004,374 1004,374 1004,374 1004,374 1004,374 1004,374 1004,374 1004,374 1004,374 1004,374 1004,374 1004,374 1004,374 1004,374 1004,374 1004,373 1004,373 1004,373 1004,373 1004,373 1004,373 1004,373 1004,373 "/>
<polyline fill="none" opacity="1" stroke="#0082C8" stroke-width="1" points="130,256 131,256 133,256 134,256 136,256 137,256 139,256 140,256 142,256 143,256 145,257 146,257 148,257 149,257 151,257 152,257 154,257 155,257 157,257 158,257 160,257 161,257 163,257 164,257 166,257 167,257 169,257 170,257 172,257 173,257 175,257 176,257 178,257 180,257 181,257 183,257 184,257 186,257 187,257 189,257 190,257 192,257 193,258 195,258 196,258 198,258 199,258 201,258 202,258 204,258 205,259 207,259 208,259 210,259 211,259 213,259 214,258 216,258 217,258 219,258 220,258 222,258 223,257 225,257 227,257 228,257 230,256 231,256 233,256 234,255 236,255 237,255 239,255 240,255 242,254 243,254 245,254 246,254 248,254 249,254 251,254 252,254 254,254 255,254 257,254 258,254 260,254 261,254 263,255 264,255 266,255 267,255 269,255 270,254 272,254 273,254 275,254 277,254 278,254 280,254 281,254 283,253 284,253 286,253 287,253 289,253 290,253 292,253 293,252 295,252 296,252 298,252 299,252 301,252 302,252 304,252 305,253 307,253 308,253 310,253 311,253 313,254 314,254 316,254 317,254 319,255 320,255 322,255 324,255 325,255 327,256 328,256 330,256 331,256 333,256 334,256 336,257 337,257 339,257 340,257 342,257 343,257 345,257 346,257 348,257 349,257 351,257 352,257 354,257 355,257 357,257 358,257 360,257 361,257 363,257 364,258 366,258 367,258 369,258 370,258 372,258 374,258 375,258 377,258 378,258 380,258 381,258 383,258 384,258 386,258 387,258 389,258 390,258 392,258 393,259 395,259 396,259 398,259 399,259 401,259 402,259 404,260 405,260 407,260 408,260 410,260 411,261 413,261 414,261 416,261 417,261 419,261 421,262 422,262 424,262 425,262 427,262 428,262 430,262 431,263 433,263 434,263 436,263 437,263 439,263 440,264 442,264 443,264 445,264 446,264 448,265 449,265 451,265 452,265 454,266 455,266 457,266 458,266 460,267 461,267 463,267 464,267 466,267 467,267 469,268 471,268 472,268 474,268 475,268 477,268 478,268 480,267 481,267 483,267 484,267 486,267 487,266 489,266 490,266 492,266 493,265 495,265 496,265 498,265 499,264 501,264 502,264 504,264 505,264 507,264 508,263 510,263 511,263 513,263 514,263 516,263 518,263 519,263 521,263 522,263 524,263 525,263 527,262 528,262 530,262 531,262 533,262 534,261 536,261 537,261 539,261 540,260 542,260 543,259 545,259 546,259 548,258 549,258 551,257 552,257 554,257 555,256 557,256 558,256 560,255 561,255 563,255 564,255 566,254 568,254 569,254 571,255 572,255 574,255 575,256 577,256 578,257 580,258 581,259 583,260 584,262 586,264 587,266 589,268 590,270 592,272 593,275 595,277 596,280 598,282 599,285 601,287 602,290 604,292 605,295 607,297 608,299 610,301 611,303 613,304 615,306 616,307 618,309 619,310 621,311 622,311 624,312 625,313 627,313 628,313 630,314 631,314 633,314 634,315 636,315 637,316 639,317 640,319 642,321 643,323 645,326 646,329 648,333 649,337 651,341 652,345 654,350 655,355 657,359 658,364 660,369 661,373 663,378 665,382 666,386 668,391 669,394 671,398 672,402 674,405 675,408 677,411 678,414 680,417 681,419 683,422 684,424 686,426 687,427 689,429 690,430 692,431 693,432 695,433 696,434 698,434 699,434 701,434 702,434 704,433 705,433 707,432 708,431 710,429 712,427 713,425 715,423 716,421 718,418 719,415 721,411 722,407 724,404 725,400 727,395 728,391 730,388 731,385 733,383 734,382 736,383 737,385 739,388 740,393 742,398 743,404 745,410 746,416 748,422 749,427 751,433 752,438 754,443 755,448 757,452 758,456 760,460 762,463 763,467 765,470 766,472 768,475 769,477 771,480 772,482 774,483 775,485 777,486 778,487 780,488 781,489 783,489 784,490 786,490 787,490 789,490 790,489 792,489 793,488 795,487 796,486 798,485 799,483 801,481 802,479 804,477 805,475 807,472 809,469 810,466 812,462 813,458 815,454 816,450 818,445 819,440 821,435 822,429 824,423 825,417 827,411 828,405 830,400 831,396 833,392 834,391 836,391 837,392 839,395 840,399 842,403 843,408 845,412 846,417 848,421 849,425 851,429 852,432 854,435 855,438 857,440 859,442 860,444 862,445 863,446 865,447 866,448 868,448 869,448 871,448 872,448 874,447 875,446 877,445 878,444 880,443 881,441 883,439 884,437 886,435 887,433 889,431 890,429 892,427 893,425 895,424 896,422 898,421 899,421 901,420 902,421 904,421 906,422 907,424 909,426 910,428 912,430 913,432 915,434 916,436 918,439 919,441 921,443 922,445 924,447 925,448 927,450 928,451 930,452 931,453 933,454 934,455 936,455 937,456 939,456 940,456 942,456 943,456 945,455 946,455 948,454 949,454 951,453 952,452 954,451 956,450 957,449 959,448 960,447 962,446 963,446 965,445 966,444 968,444 969,443 971,443 972,443 974,443 975,443 977,444 978,444 980,445 981,446 983,446 984,447 986,448 987,449 989,449 990,450 992,451 993,451 995,452 996,452 998,453 999,453 1001,453 1003,453 1004,453 1004,453 1004,453 1004,452 1004,452 1004,451 1004,451 1004,450 1004,449 1004,449 1004,448 1004,447 1004,446 1004,446 1004,445 1004,444 1004,444 1004,443 1004,443 1004,443 1004,443 1004,443 1004,444 1004,444 1004,445 1004,446 1004,446 1004,447 1004,448 1004,449 1004,450 1004,451 1004,452 1004,453 1004,454 1004,454 1004,455 1004,455 1004,456 1004,456 1004,456 1004,456 1004,456 1004,455 1004,455 1004,454 1004,453 1004,452 1004,451 1004,450 1004,448 1004,447 1004,445 1004,443 1004,441 1004,439 1004,436 1004,434 1004,432 1004,430 1004,428 1004,426 1004,424 1004,422 1004,421 1004,421 1004,420 1004,421 1004,421 1004,422 1004,424 1004,425 1004,427 1004,429 1004,431 1004,433 1004,435 1004,437 1004,439 1004,441 1004,443 1004,444 1004,445 1004,446 1004,447 1004,448 1004,448 1004,448 1004,448 1004,448 1004,447 1004,446 1004,445 1004,444 1004,442 1004,440 1004,438 1004,435 1004,432 1004,429 1004,425 1004,421 1004,417 1004,412 1004,408 1004,403 1004,399 1004,395 1004,392 1004,391 1004,391 1004,392 1004,396 1004,400 1004,405 1004,411 1004,417 1004,423 1004,429 1004,435 1004,440 1004,445 1004,450 1004,454 1004,458 1004,462 1004,466 1004,469 1004,472 1004,475 1004,477 1004,479 1004,481 1004,483 1004,485 1004,486 1004,487 1004,488 1004,489 1004,489 1004,490 1004,490 1004,490 1004,490 1004,489 1004,489 1004,488 1004,487 1004,486 1004,485 1004,483 1004,482 1004,480 1004,477 1004,475 1004,472 1004,470 1004,467 1004,463 1004,460 1004,456 1004,452 1004,448 1004,443 1004,438 1004,433 1004,427 1004,422 1004,416 1004,410 1004,404 1004,398 1004,393 1004,388 1004,385 1004,383 1004,382 1004,383 1004,385 1004,388 1004,391 1004,395 1004,400 1004,404 1004,407 1004,411 1004,415 1004,418 1004,421 1004,423 1004,425 1004,427 1004,429 1004,431 1004,432 1004,433 1004,433 1004,434 1004,434 1004,434 1004,434 1004,434 1004,433 1004,432 1004,431 1004,430 1004,429 1004,427 1004,426 1004,424 1004,422 1004,419 1004,417 1004,414 1004,411 1004,408 1004,405 1004,402 1004,398 1004,394 1004,391 1004,386 1004,382 1004,378 1004,373 1004,369 1004,364 1004,359 1004,355 1004,350 1004,345 1004,341 1004,337 1004,333 1004,329 1004,326 1004,323 1004,321 1004,319 1004,317 1004,316 1004,315 1004,315 1004,314 1004,314 1004,314 1004,313 1004,313 1004,313 1004,312 1004,311 1004,311 1004,310 1004,309 1004,307 1004,306 1004,304 1004,303 1004,301 1004,299 1004,297 1004,295 1004,292 1004,290 1004,287 1004,285 1004,282 1004,280 1004,277 1004,275 1004,272 1004,270 1004,268 1004,266 1004,264 1004,262 1004,260 1004,259 1004,258 1004,257 1004,256 1004,256 1004,255 1004,255 1004,255 1004,254 1004,254 1004,254 1004,255 1004,255 1004,255 1004,255 1004,256 1004,256 1004,256 1004,257 1004,257 1004,257 1004,258 1004,258 1004,259 1004,259 1004,259 1004,260 1004,260 1004,261 1004,261 1004,261 1004,261 1004,262 1004,262 1004,262 1004,262 1004,262 1004,263 1004,263 1004,263 1004,263 1004,263 1004,263 1004,263 1004,263 1004,263 1004,263 1004,263 1004,263 1004,264 1004,264 1004,264 1004,264 1004,264 1004,264 1004,265 1004,265 1004,265 1004,265 1004,266 1004,266 1004,266 1004,266 1004,267 1004,267 1004,267 1004,267 1004,267 1004,268 1004,268 1004,268 1004,268 1004,268 1004,268 1004,268 1004,267 1004,267 1004,267 1004,267 1004,267 1004,267 1004,266 1004,266 1004,266 1004,266 1004,265 1004,265 1004,265 1004,265 1004,264 1004,264 1004,264 1004,264 1004,264 1004,263 1004,263 1004,263 1004,263 1004,263 1004,263 1004,262 1004,262 1004,262 1004,262 1004,262 1004,262 1004,262 1004,261 1004,261 1004,261 1004,261 1004,261 1004,261 1004,260 1004,260 1004,260 1004,260 1004,260 1004,259 1004,259 1004,259 1004,259 1004,259 1004,259 1004,259 1004,258 1004,258 1004,258 1004,258 1004,258 1004,258 1004,258 1004,258 1004,258 1004,258 1004,258 1004,258 1004,258 1004,258 1004,258 1004,258 1004,258 1004,258 1004,258 1004,257 1004,257 1004,257 1004,257 1004,257 1004,257 1004,257 1004,257 1004,257 1004,257 1004,257 1004,257 1004,257 1004,257 1004,257 1004,257 1004,257 1004,257 1004,257 1004,256 1004,256 1004,256 1004,256 1004,256 1004,256 1004,255 1004,255 1004,255 1004,255 1004,255 1004,254 1004,254 1004,254 1004,254 1004,253 1004,253 1004,253 1004,253 1004,253 1004,252 1004,252 1004,252 1004,252 1004,252 1004,252 1004,252 1004,252 1004,253 1004,253 1004,253 1004,253 1004,253 1004,253 1004,253 1004,254 1004,254 1004,254 1004,254 1004,254 1004,254 1004,254 1004,254 1004,255 1004,255 1004,255 1004,255 1004,255 1004,254 1004,254 1004,254 1004,254 1004,254 1004,254 1004,254 1004,254 1004,254 1004,254 1004,254 1004,254 1004,254 1004,254 1004,255 1004,255 1004,255 1004,255 1004,255 1004,256 1004,256 1004,256 1004,257 1004,257 1004,257 1004,257 1004,258 1004,258 1004,258 1004,258 1004,258 1004,258 1004,259 1004,259 1004,259 1004,259 1004,259 1004,259 1004,258 1004,258 1004,258 1004,258 1004,258 1004,258 1004,258 1004,258 1004,257 1004,257 1004,257 1004,257 1004,257 1004,257 1004,257 1004,257 1004,257 1004,257 1004,257 1004,257 1004,257 1004,257 1004,257 1004,257 1004,257 1004,257 1004,257 1004,257 1004,257 1004,257 1004,257 1004,257 1004,257 1004,257 1004,257 1004,257 1004,257 1004,257 1004,257 1004,257 1004,256 1004,256 1004,256 1004,256 1004,256 1004,256 1004,256 1004,256 1004,256 "/>
<rect x="514" y="25" width="485" height="157" opacity="0.8" fill="#FFFFFF" stroke="none"/>
<rect x="514" y="25" width="485" height="157" opacity="1" fill="none" stroke="#000000"/>
<text x="554" y="35" dy="0.76em" text-anchor="start" font-family="sans-serif" font-size="24.193548387096776" opacity="1" fill="#000000">
(1) log_power
</text>
<text x="554" y="73" dy="0.76em" text-anchor="start" font-family="sans-serif" font-size="24.193548387096776" opacity="1" fill="#000000">
(2) spectral_envelope by cepstrum
</text>
<text x="554" y="110" dy="0.76em" text-anchor="start" font-family="sans-serif" font-size="24.193548387096776" opacity="1" fill="#000000">
(3) spectral_envelope by levinson-durbin
</text>
<text x="554" y="148" dy="0.76em" text-anchor="start" font-family="sans-serif" font-size="24.193548387096776" opacity="1" fill="#000000">
(4) spectral_envelope by burg
</text>
<polyline fill="none" opacity="1" stroke="#E6194B" stroke-width="1" points="524,47 544,47 "/>
<polyline fill="none" opacity="1" stroke="#3CB44B" stroke-width="1" points="524,85 544,85 "/>
<polyline fill="none" opacity="1" stroke="#FFE119" stroke-width="1" points="524,122 544,122 "/>
<polyline fill="none" opacity="1" stroke="#0082C8" stroke-width="1" points="524,160 544,160 "/>
</svg>
