<svg width="1024" height="768" viewBox="0 0 1024 768" xmlns="http://www.w3.org/2000/svg">
<rect x="0" y="0" width="1024" height="768" opacity="1" fill="#FFFFFF" stroke="none"/>
<line opacity="0.1" stroke="#000000" stroke-width="1" x1="130" y1="657" x2="130" y2="20"/>
<line opacity="0.1" stroke="#000000" stroke-width="1" x1="140" y1="657" x2="140" y2="20"/>
<line opacity="0.1" stroke="#000000" stroke-width="1" x1="151" y1="657" x2="151" y2="20"/>
<line opacity="0.1" stroke="#000000" stroke-width="1" x1="162" y1="657" x2="162" y2="20"/>
<line opacity="0.1" stroke="#000000" stroke-width="1" x1="173" y1="657" x2="173" y2="20"/>
<line opacity="0.1" stroke="#000000" stroke-width="1" x1="184" y1="657" x2="184" y2="20"/>
<line opacity="0.1" stroke="#000000" stroke-width="1" x1="195" y1="657" x2="195" y2="20"/>
<line opacity="0.1" stroke="#000000" stroke-width="1" x1="206" y1="657" x2="206" y2="20"/>
<line opacity="0.1" stroke="#000000" stroke-width="1" x1="217" y1="657" x2="217" y2="20"/>
<line opacity="0.1" stroke="#000000" stroke-width="1" x1="228" y1="657" x2="228" y2="20"/>
<line opacity="0.1" stroke="#000000" stroke-width="1" x1="239" y1="657" x2="239" y2="20"/>
<line opacity="0.1" stroke="#000000" stroke-width="1" x1="250" y1="657" x2="250" y2="20"/>
<line opacity="0.1" stroke="#000000" stroke-width="1" x1="260" y1="657" x2="260" y2="20"/>
<line opacity="0.1" stroke="#000000" stroke-width="1" x1="271" y1="657" x2="271" y2="20"/>
<line opacity="0.1" stroke="#000000" stroke-width="1" x1="282" y1="657" x2="282" y2="20"/>
<line opacity="0.1" stroke="#000000" stroke-width="1" x1="293" y1="657" x2="293" y2="20"/>
<line opacity="0.1" stroke="#000000" stroke-width="1" x1="304" y1="657" x2="304" y2="20"/>
<line opacity="0.1" stroke="#000000" stroke-width="1" x1="315" y1="657" x2="315" y2="20"/>
<line opacity="0.1" stroke="#000000" stroke-width="1" x1="326" y1="657" x2="326" y2="20"/>
<line opacity="0.1" stroke="#000000" stroke-width="1" x1="337" y1="657" x2="337" y2="20"/>
<line opacity="0.1" stroke="#000000" stroke-width="1" x1="348" y1="657" x2="348" y2="20"/>
<line opacity="0.1" stroke="#000000" stroke-width="1" x1="359" y1="657" x2="359" y2="20"/>
<line opacity="0.1" stroke="#000000" stroke-width="1" x1="370" y1="657" x2="370" y2="20"/>
<line opacity="0.1" stroke="#000000" stroke-width="1" x1="380" y1="657" x2="380" y2="20"/>
<line opacity="0.1" stroke="#000000" stroke-width="1" x1="391" y1="657" x2="391" y2="20"/>
<line opacity="0.1" stroke="#000000" stroke-width="1" x1="402" y1="657" x2="402" y2="20"/>
<line opacity="0.1" stroke="#000000" stroke-width="1" x1="413" y1="657" x2="413" y2="20"/>
<line opacity="0.1" stroke="#000000" stroke-width="1" x1="424" y1="657" x2="424" y2="20"/>
<line opacity="0.1" stroke="#000000" stroke-width="1" x1="435" y1="657" x2="435" y2="20"/>
<line opacity="0.1" stroke="#000000" stroke-width="1" x1="446" y1="657" x2="446" y2="20"/>
<line opacity="0.1" stroke="#000000" stroke-width="1" x1="457" y1="657" x2="457" y2="20"/>
<line opacity="0.1" stroke="#000000" stroke-width="1" x1="468" y1="657" x2="468" y2="20"/>
<line opacity="0.1" stroke="#000000" stroke-width="1" x1="479" y1="657" x2="479" y2="20"/>
<line opacity="0.1" stroke="#000000" stroke-width="1" x1="490" y1="657" x2="490" y2="20"/>
<line opacity="0.1" stroke="#000000" stroke-width="1" x1="501" y1="657" x2="501" y2="20"/>
<line opacity="0.1" stroke="#000000" stroke-width="1" x1="511" y1="657" x2="511" y2="20"/>
<line opacity="0.1" stroke="#000000" stroke-width="1" x1="522" y1="657" x2="522" y2="20"/>
<line opacity="0.1" stroke="#000000" stroke-width="1" x1="533" y1="657" x2="533" y2="20"/>
<line opacity="0.1" stroke="#000000" stroke-width="1" x1="544" y1="657" x2="544" y2="20"/>
<line opacity="0.1" stroke="#000000" stroke-width="1" x1="555" y1="657" x2="555" y2="20"/>
<line opacity="0.1" stroke="#000000" stroke-width="1" x1="566" y1="657" x2="566" y2="20"/>
<line opacity="0.1" stroke="#000000" stroke-width="1" x1="577" y1="657" x2="577" y2="20"/>
<line opacity="0.1" stroke="#000000" stroke-width="1" x1="588" y1="657" x2="588" y2="20"/>
<line opacity="0.1" stroke="#000000" stroke-width="1" x1="599" y1="657" x2="599" y2="20"/>
<line opacity="0.1" stroke="#000000" stroke-width="1" x1="610" y1="657" x2="610" y2="20"/>
<line opacity="0.1" stroke="#000000" stroke-width="1" x1="621" y1="657" x2="621" y2="20"/>
<line opacity="0.1" stroke="#000000" stroke-width="1" x1="631" y1="657" x2="631" y2="20"/>
<line opacity="0.1" stroke="#000000" stroke-width="1" x1="642" y1="657" x2="642" y2="20"/>
<line opacity="0.1" stroke="#000000" stroke-width="1" x1="653" y1="657" x2="653" y2="20"/>
<line opacity="0.1" stroke="#000000" stroke-width="1" x1="664" y1="657" x2="664" y2="20"/>
<line opacity="0.1" stroke="#000000" stroke-width="1" x1="675" y1="657" x2="675" y2="20"/>
<line opacity="0.1" stroke="#000000" stroke-width="1" x1="686" y1="657" x2="686" y2="20"/>
<line opacity="0.1" stroke="#000000" stroke-width="1" x1="697" y1="657" x2="697" y2="20"/>
<line opacity="0.1" stroke="#000000" stroke-width="1" x1="708" y1="657" x2="708" y2="20"/>
<line opacity="0.1" stroke="#000000" stroke-width="1" x1="719" y1="657" x2="719" y2="20"/>
<line opacity="0.1" stroke="#000000" stroke-width="1" x1="730" y1="657" x2="730" y2="20"/>
<line opacity="0.1" stroke="#000000" stroke-width="1" x1="741" y1="657" x2="741" y2="20"/>
<line opacity="0.1" stroke="#000000" stroke-width="1" x1="752" y1="657" x2="752" y2="20"/>
<line opacity="0.1" stroke="#000000" stroke-width="1" x1="762" y1="657" x2="762" y2="20"/>
<line opacity="0.1" stroke="#000000" stroke-width="1" x1="773" y1="657" x2="773" y2="20"/>
<line opacity="0.1" stroke="#000000" stroke-width="1" x1="784" y1="657" x2="784" y2="20"/>
<line opacity="0.1" stroke="#000000" stroke-width="1" x1="795" y1="657" x2="795" y2="20"/>
<line opacity="0.1" stroke="#000000" stroke-width="1" x1="806" y1="657" x2="806" y2="20"/>
<line opacity="0.1" stroke="#000000" stroke-width="1" x1="817" y1="657" x2="817" y2="20"/>
<line opacity="0.1" stroke="#000000" stroke-width="1" x1="828" y1="657" x2="828" y2="20"/>
<line opacity="0.1" stroke="#000000" stroke-width="1" x1="839" y1="657" x2="839" y2="20"/>
<line opacity="0.1" stroke="#000000" stroke-width="1" x1="850" y1="657" x2="850" y2="20"/>
<line opacity="0.1" stroke="#000000" stroke-width="1" x1="861" y1="657" x2="861" y2="20"/>
<line opacity="0.1" stroke="#000000" stroke-width="1" x1="872" y1="657" x2="872" y2="20"/>
<line opacity="0.1" stroke="#000000" stroke-width="1" x1="882" y1="657" x2="882" y2="20"/>
<line opacity="0.1" stroke="#000000" stroke-width="1" x1="893" y1="657" x2="893" y2="20"/>
<line opacity="0.1" stroke="#000000" stroke-width="1" x1="904" y1="657" x2="904" y2="20"/>
<line opacity="0.1" stroke="#000000" stroke-width="1" x1="915" y1="657" x2="915" y2="20"/>
<line opacity="0.1" stroke="#000000" stroke-width="1" x1="926" y1="657" x2="926" y2="20"/>
<line opacity="0.1" stroke="#000000" stroke-width="1" x1="937" y1="657" x2="937" y2="20"/>
<line opacity="0.1" stroke="#000000" stroke-width="1" x1="948" y1="657" x2="948" y2="20"/>
<line opacity="0.1" stroke="#000000" stroke-width="1" x1="959" y1="657" x2="959" y2="20"/>
<line opacity="0.1" stroke="#000000" stroke-width="1" x1="970" y1="657" x2="970" y2="20"/>
<line opacity="0.1" stroke="#000000" stroke-width="1" x1="981" y1="657" x2="981" y2="20"/>
<line opacity="0.1" stroke="#000000" stroke-width="1" x1="992" y1="657" x2="992" y2="20"/>
<line opacity="0.1" stroke="#000000" stroke-width="1" x1="1003" y1="657" x2="1003" y2="20"/>
<line opacity="0.1" stroke="#000000" stroke-width="1" x1="130" y1="657" x2="1003" y2="657"/>
<line opacity="0.1" stroke="#000000" stroke-width="1" x1="130" y1="648" x2="1003" y2="648"/>
<line opacity="0.1" stroke="#000000" stroke-width="1" x1="130" y1="639" x2="1003" y2="639"/>
<line opacity="0.1" stroke="#000000" stroke-width="1" x1="130" y1="630" x2="1003" y2="630"/>
<line opacity="0.1" stroke="#000000" stroke-width="1" x1="130" y1="621" x2="1003" y2="621"/>
<line opacity="0.1" stroke="#000000" stroke-width="1" x1="130" y1="612" x2="1003" y2="612"/>
<line opacity="0.1" stroke="#000000" stroke-width="1" x1="130" y1="603" x2="1003" y2="603"/>
<line opacity="0.1" stroke="#000000" stroke-width="1" x1="130" y1="594" x2="1003" y2="594"/>
<line opacity="0.1" stroke="#000000" stroke-width="1" x1="130" y1="585" x2="1003" y2="585"/>
<line opacity="0.1" stroke="#000000" stroke-width="1" x1="130" y1="576" x2="1003" y2="576"/>
<line opacity="0.1" stroke="#000000" stroke-width="1" x1="130" y1="566" x2="1003" y2="566"/>
<line opacity="0.1" stroke="#000000" stroke-width="1" x1="130" y1="557" x2="1003" y2="557"/>
<line opacity="0.1" stroke="#000000" stroke-width="1" x1="130" y1="548" x2="1003" y2="548"/>
<line opacity="0.1" stroke="#000000" stroke-width="1" x1="130" y1="539" x2="1003" y2="539"/>
<line opacity="0.1" stroke="#000000" stroke-width="1" x1="130" y1="530" x2="1003" y2="530"/>
<line opacity="0.1" stroke="#000000" stroke-width="1" x1="130" y1="521" x2="1003" y2="521"/>
<line opacity="0.1" stroke="#000000" stroke-width="1" x1="130" y1="512" x2="1003" y2="512"/>
<line opacity="0.1" stroke="#000000" stroke-width="1" x1="130" y1="503" x2="1003" y2="503"/>
<line opacity="0.1" stroke="#000000" stroke-width="1" x1="130" y1="494" x2="1003" y2="494"/>
<line opacity="0.1" stroke="#000000" stroke-width="1" x1="130" y1="485" x2="1003" y2="485"/>
<line opacity="0.1" stroke="#000000" stroke-width="1" x1="130" y1="475" x2="1003" y2="475"/>
<line opacity="0.1" stroke="#000000" stroke-width="1" x1="130" y1="466" x2="1003" y2="466"/>
<line opacity="0.1" stroke="#000000" stroke-width="1" x1="130" y1="457" x2="1003" y2="457"/>
<line opacity="0.1" stroke="#000000" stroke-width="1" x1="130" y1="448" x2="1003" y2="448"/>
<line opacity="0.1" stroke="#000000" stroke-width="1" x1="130" y1="439" x2="1003" y2="439"/>
<line opacity="0.1" stroke="#000000" stroke-width="1" x1="130" y1="430" x2="1003" y2="430"/>
<line opacity="0.1" stroke="#000000" stroke-width="1" x1="130" y1="421" x2="1003" y2="421"/>
<line opacity="0.1" stroke="#000000" stroke-width="1" x1="130" y1="412" x2="1003" y2="412"/>
<line opacity="0.1" stroke="#000000" stroke-width="1" x1="130" y1="403" x2="1003" y2="403"/>
<line opacity="0.1" stroke="#000000" stroke-width="1" x1="130" y1="394" x2="1003" y2="394"/>
<line opacity="0.1" stroke="#000000" stroke-width="1" x1="130" y1="384" x2="1003" y2="384"/>
<line opacity="0.1" stroke="#000000" stroke-width="1" x1="130" y1="375" x2="1003" y2="375"/>
<line opacity="0.1" stroke="#000000" stroke-width="1" x1="130" y1="366" x2="1003" y2="366"/>
<line opacity="0.1" stroke="#000000" stroke-width="1" x1="130" y1="357" x2="1003" y2="357"/>
<line opacity="0.1" stroke="#000000" stroke-width="1" x1="130" y1="348" x2="1003" y2="348"/>
<line opacity="0.1" stroke="#000000" stroke-width="1" x1="130" y1="339" x2="1003" y2="339"/>
<line opacity="0.1" stroke="#000000" stroke-width="1" x1="130" y1="330" x2="1003" y2="330"/>
<line opacity="0.1" stroke="#000000" stroke-width="1" x1="130" y1="321" x2="1003" y2="321"/>
<line opacity="0.1" stroke="#000000" stroke-width="1" x1="130" y1="312" x2="1003" y2="312"/>
<line opacity="0.1" stroke="#000000" stroke-width="1" x1="130" y1="303" x2="1003" y2="303"/>
<line opacity="0.1" stroke="#000000" stroke-width="1" x1="130" y1="293" x2="1003" y2="293"/>
<line opacity="0.1" stroke="#000000" stroke-width="1" x1="130" y1="284" x2="1003" y2="284"/>
<line opacity="0.1" stroke="#000000" stroke-width="1" x1="130" y1="275" x2="1003" y2="275"/>
<line opacity="0.1" stroke="#000000" stroke-width="1" x1="130" y1="266" x2="1003" y2="266"/>
<line opacity="0.1" stroke="#000000" stroke-width="1" x1="130" y1="257" x2="1003" y2="257"/>
<line opacity="0.1" stroke="#000000" stroke-width="1" x1="130" y1="248" x2="1003" y2="248"/>
<line opacity="0.1" stroke="#000000" stroke-width="1" x1="130" y1="239" x2="1003" y2="239"/>
<line opacity="0.1" stroke="#000000" stroke-width="1" x1="130" y1="230" x2="1003" y2="230"/>
<line opacity="0.1" stroke="#000000" stroke-width="1" x1="130" y1="221" x2="1003" y2="221"/>
<line opacity="0.1" stroke="#000000" stroke-width="1" x1="130" y1="212" x2="1003" y2="212"/>
<line opacity="0.1" stroke="#000000" stroke-width="1" x1="130" y1="202" x2="1003" y2="202"/>
<line opacity="0.1" stroke="#000000" stroke-width="1" x1="130" y1="193" x2="1003" y2="193"/>
<line opacity="0.1" stroke="#000000" stroke-width="1" x1="130" y1="184" x2="1003" y2="184"/>
<line opacity="0.1" stroke="#000000" stroke-width="1" x1="130" y1="175" x2="1003" y2="175"/>
<line opacity="0.1" stroke="#000000" stroke-width="1" x1="130" y1="166" x2="1003" y2="166"/>
<line opacity="0.1" stroke="#000000" stroke-width="1" x1="130" y1="157" x2="1003" y2="157"/>
<line opacity="0.1" stroke="#000000" stroke-width="1" x1="130" y1="148" x2="1003" y2="148"/>
<line opacity="0.1" stroke="#000000" stroke-width="1" x1="130" y1="139" x2="1003" y2="139"/>
<line opacity="0.1" stroke="#000000" stroke-width="1" x1="130" y1="130" x2="1003" y2="130"/>
<line opacity="0.1" stroke="#000000" stroke-width="1" x1="130" y1="121" x2="1003" y2="121"/>
<line opacity="0.1" stroke="#000000" stroke-width="1" x1="130" y1="111" x2="1003" y2="111"/>
<line opacity="0.1" stroke="#000000" stroke-width="1" x1="130" y1="102" x2="1003" y2="102"/>
<line opacity="0.1" stroke="#000000" stroke-width="1" x1="130" y1="93" x2="1003" y2="93"/>
<line opacity="0.1" stroke="#000000" stroke-width="1" x1="130" y1="84" x2="1003" y2="84"/>
<line opacity="0.1" stroke="#000000" stroke-width="1" x1="130" y1="75" x2="1003" y2="75"/>
<line opacity="0.1" stroke="#000000" stroke-width="1" x1="130" y1="66" x2="1003" y2="66"/>
<line opacity="0.1" stroke="#000000" stroke-width="1" x1="130" y1="57" x2="1003" y2="57"/>
<line opacity="0.1" stroke="#000000" stroke-width="1" x1="130" y1="48" x2="1003" y2="48"/>
<line opacity="0.1" stroke="#000000" stroke-width="1" x1="130" y1="39" x2="1003" y2="39"/>
<line opacity="0.1" stroke="#000000" stroke-width="1" x1="130" y1="30" x2="1003" y2="30"/>
<line opacity="0.1" stroke="#000000" stroke-width="1" x1="130" y1="20" x2="1003" y2="20"/>
<text x="20" y="339" dy="0.76em" text-anchor="middle" font-family="sans-serif" font-size="24.193548387096776" opacity="1" fill="#000000" transform="rotate(270, 20, 339)">
Power [dB]
</text>
<text x="567" y="748" dy="-0.5ex" text-anchor="middle" font-family="sans-serif" font-size="24.193548387096776" opacity="1" fill="#000000">
Frequency [Hz]
</text>
<line opacity="0.2" stroke="#000000" stroke-width="1" x1="130" y1="657" x2="130" y2="20"/>
<line opacity="0.2" stroke="#000000" stroke-width="1" x1="239" y1="657" x2="239" y2="20"/>
<line opacity="0.2" stroke="#000000" stroke-width="1" x1="348" y1="657" x2="348" y2="20"/>
<line opacity="0.2" stroke="#000000" stroke-width="1" x1="457" y1="657" x2="457" y2="20"/>
<line opacity="0.2" stroke="#000000" stroke-width="1" x1="566" y1="657" x2="566" y2="20"/>
<line opacity="0.2" stroke="#000000" stroke-width="1" x1="675" y1="657" x2="675" y2="20"/>
<line opacity="0.2" stroke="#000000" stroke-width="1" x1="784" y1="657" x2="784" y2="20"/>
<line opacity="0.2" stroke="#000000" stroke-width="1" x1="893" y1="657" x2="893" y2="20"/>
<line opacity="0.2" stroke="#000000" stroke-width="1" x1="1003" y1="657" x2="1003" y2="20"/>
<line opacity="0.2" stroke="#000000" stroke-width="1" x1="130" y1="612" x2="1003" y2="612"/>
<line opacity="0.2" stroke="#000000" stroke-width="1" x1="130" y1="521" x2="1003" y2="521"/>
<line opacity="0.2" stroke="#000000" stroke-width="1" x1="130" y1="430" x2="1003" y2="430"/>
<line opacity="0.2" stroke="#000000" stroke-width="1" x1="130" y1="339" x2="1003" y2="339"/>
<line opacity="0.2" stroke="#000000" stroke-width="1" x1="130" y1="248" x2="1003" y2="248"/>
<line opacity="0.2" stroke="#000000" stroke-width="1" x1="130" y1="157" x2="1003" y2="157"/>
<line opacity="0.2" stroke="#000000" stroke-width="1" x1="130" y1="66" x2="1003" y2="66"/>
<polyline fill="none" opacity="1" stroke="#000000" stroke-width="1" points="129,20 129,657 "/>
<text x="120" y="612" dy="0.5ex" text-anchor="end" font-family="sans-serif" font-size="24.193548387096776" opacity="1" fill="#000000">
-100.0
</text>
<polyline fill="none" opacity="1" stroke="#000000" stroke-width="1" points="124,612 129,612 "/>
<text x="120" y="521" dy="0.5ex" text-anchor="end" font-family="sans-serif" font-size="24.193548387096776" opacity="1" fill="#000000">
-80.0
</text>
<polyline fill="none" opacity="1" stroke="#000000" stroke-width="1" points="124,521 129,521 "/>
<text x="120" y="430" dy="0.5ex" text-anchor="end" font-family="sans-serif" font-size="24.193548387096776" opacity="1" fill="#000000">
-60.0
</text>
<polyline fill="none" opacity="1" stroke="#000000" stroke-width="1" points="124,430 129,430 "/>
<text x="120" y="339" dy="0.5ex" text-anchor="end" font-family="sans-serif" font-size="24.193548387096776" opacity="1" fill="#000000">
-40.0
</text>
<polyline fill="none" opacity="1" stroke="#000000" stroke-width="1" points="124,339 129,339 "/>
<text x="120" y="248" dy="0.5ex" text-anchor="end" font-family="sans-serif" font-size="24.193548387096776" opacity="1" fill="#000000">
-20.0
</text>
<polyline fill="none" opacity="1" stroke="#000000" stroke-width="1" points="124,248 129,248 "/>
<text x="120" y="157" dy="0.5ex" text-anchor="end" font-family="sans-serif" font-size="24.193548387096776" opacity="1" fill="#000000">
0.0
</text>
<polyline fill="none" opacity="1" stroke="#000000" stroke-width="1" points="124,157 129,157 "/>
<text x="120" y="66" dy="0.5ex" text-anchor="end" font-family="sans-serif" font-size="24.193548387096776" opacity="1" fill="#000000">
20.0
</text>
<polyline fill="none" opacity="1" stroke="#000000" stroke-width="1" points="124,66 129,66 "/>
<polyline fill="none" opacity="1" stroke="#000000" stroke-width="1" points="130,658 1003,658 "/>
<text x="130" y="668" dy="0.76em" text-anchor="middle" font-family="sans-serif" font-size="24.193548387096776" opacity="1" fill="#000000">
0.0
</text>
<polyline fill="none" opacity="1" stroke="#000000" stroke-width="1" points="130,658 130,663 "/>
<text x="239" y="668" dy="0.76em" text-anchor="middle" font-family="sans-serif" font-size="24.193548387096776" opacity="1" fill="#000000">
1000.0
</text>
<polyline fill="none" opacity="1" stroke="#000000" stroke-width="1" points="239,658 239,663 "/>
<text x="348" y="668" dy="0.76em" text-anchor="middle" font-family="sans-serif" font-size="24.193548387096776" opacity="1" fill="#000000">
2000.0
</text>
<polyline fill="none" opacity="1" stroke="#000000" stroke-width="1" points="348,658 348,663 "/>
<text x="457" y="668" dy="0.76em" text-anchor="middle" font-family="sans-serif" font-size="24.193548387096776" opacity="1" fill="#000000">
3000.0
</text>
<polyline fill="none" opacity="1" stroke="#000000" stroke-width="1" points="457,658 457,663 "/>
<text x="566" y="668" dy="0.76em" text-anchor="middle" font-family="sans-serif" font-size="24.193548387096776" opacity="1" fill="#000000">
4000.0
</text>
<polyline fill="none" opacity="1" stroke="#000000" stroke-width="1" points="566,658 566,663 "/>
<text x="675" y="668" dy="0.76em" text-anchor="middle" font-family="sans-serif" font-size="24.193548387096776" opacity="1" fill="#000000">
5000.0
</text>
<polyline fill="none" opacity="1" stroke="#000000" stroke-width="1" points="675,658 675,663 "/>
<text x="784" y="668" dy="0.76em" text-anchor="middle" font-family="sans-serif" font-size="24.193548387096776" opacity="1" fill="#000000">
6000.0
</text>
<polyline fill="none" opacity="1" stroke="#000000" stroke-width="1" points="784,658 784,663 "/>
<text x="893" y="668" dy="0.76em" text-anchor="middle" font-family="sans-serif" font-size="24.193548387096776" opacity="1" fill="#000000">
7000.0
</text>
<polyline fill="none" opacity="1" stroke="#000000" stroke-width="1" points="893,658 893,663 "/>
<text x="1003" y="668" dy="0.76em" text-anchor="middle" font-family="sans-serif" font-size="24.193548387096776" opacity="1" fill="#000000">
8000.0
</text>
<polyline fill="none" opacity="1" stroke="#000000" stroke-width="1" points="1003,658 1003,663 "/>
<polyline fill="none" opacity="1" stroke="#E6194B" stroke-width="1" points="130,282 131,248 133,226 134,359 136,207 137,199 139,209 140,206 142,181 143,195 145,205 146,208 148,182 149,124 151,69 152,47 154,51 155,72 157,116 158,165 160,175 161,178 163,230 164,216 166,205 167,190 169,150 170,224 172,118 173,106 175,121 176,120 178,134 180,137 181,117 183,117 184,133 186,186 187,214 189,175 190,197 192,225 193,201 195,175 196,188 198,184 199,186 201,187 202,171 204,151 205,144 207,147 208,146 210,144 211,184 213,215 214,219 216,229 217,260 219,202 220,211 222,248 223,233 225,227 227,219 228,203 230,187 231,193 233,215 234,201 236,205 237,240 239,271 240,244 242,271 243,242 245,210 246,227 248,210 249,194 251,188 252,198 254,183 255,171 257,179 258,175 260,179 261,177 263,186 264,203 266,205 267,219 269,243 270,226 272,219 273,237 275,247 277,227 278,275 280,221 281,203 283,194 284,201 286,184 287,199 289,183 290,199 292,188 293,222 295,268 296,179 298,211 299,173 301,170 302,230 304,202 305,183 307,171 308,175 310,182 311,199 313,187 314,188 316,164 317,152 319,169 320,160 322,193 324,243 325,214 327,286 328,245 330,171 331,143 333,134 334,119 336,108 337,91 339,103 340,110 342,117 343,147 345,135 346,159 348,189 349,160 351,120 352,99 354,95 355,104 357,120 358,163 360,122 361,110 363,136 364,148 366,116 367,122 369,128 370,114 372,124 374,101 375,112 377,104 378,108 380,126 381,114 383,108 384,121 386,116 387,111 389,135 390,132 392,143 393,184 395,150 396,161 398,164 399,154 401,191 402,223 404,185 405,162 407,173 408,230 410,166 411,151 413,175 414,210 416,176 417,182 419,211 421,174 422,184 424,200 425,186 427,224 428,267 430,217 431,194 433,209 434,238 436,207 437,197 439,199 440,212 442,211 443,237 445,231 446,209 448,203 449,195 451,209 452,264 454,233 455,208 457,229 458,227 460,196 461,198 463,222 464,206 466,212 467,245 469,335 471,309 472,252 474,230 475,269 477,246 478,265 480,241 481,209 483,222 484,258 486,222 487,212 489,226 490,214 492,200 493,207 495,233 496,195 498,193 499,218 501,230 502,193 504,203 505,261 507,281 508,229 510,208 511,213 513,222 514,198 516,188 518,187 519,219 521,201 522,189 524,191 525,197 527,213 528,203 530,218 531,226 533,203 534,183 536,201 537,266 539,240 540,198 542,185 543,202 545,237 546,218 548,236 549,209 551,223 552,284 554,270 555,276 557,223 558,210 560,223 561,282 563,290 564,280 566,236 568,233 569,260 571,306 572,286 574,269 575,255 577,266 578,283 580,319 581,270 583,258 584,299 586,277 587,288 589,331 590,386 592,405 593,369 595,374 596,392 598,330 599,288 601,297 602,353 604,431 605,379 607,363 608,350 610,305 611,302 613,313 615,273 616,300 618,303 619,287 621,340 622,302 624,307 625,288 627,306 628,315 630,341 631,369 633,371 634,368 636,385 637,431 639,444 640,420 642,397 643,389 645,359 646,324 648,314 649,350 651,398 652,397 654,411 655,423 657,434 658,434 660,364 661,313 663,304 665,324 666,374 668,390 669,397 671,416 672,468 674,425 675,408 677,412 678,430 680,412 681,401 683,413 684,456 686,470 687,471 689,509 690,530 692,550 693,571 695,587 696,595 698,593 699,626 701,575 702,578 704,558 705,510 707,498 708,441 710,437 712,398 713,355 715,343 716,357 718,411 719,456 721,433 722,465 724,380 725,334 727,331 728,370 730,406 731,432 733,433 734,451 736,452 737,454 739,493 740,421 742,408 743,339 745,350 746,428 748,416 749,377 751,339 752,355 754,449 755,414 757,408 758,409 760,419 762,447 763,509 765,465 766,451 768,463 769,471 771,451 772,446 774,465 775,487 777,506 778,550 780,570 781,579 783,601 784,617 786,609 787,602 789,625 790,628 792,629 793,650 795,628 796,606 798,658 799,615 801,577 802,587 804,543 805,497 807,485 809,458 810,427 812,409 813,402 815,399 816,344 818,352 819,407 821,440 822,470 824,493 825,462 827,419 828,386 830,385 831,392 833,414 834,418 836,379 837,354 839,359 840,391 842,416 843,394 845,390 846,397 848,399 849,494 851,492 852,442 854,374 855,353 857,368 859,426 860,484 862,432 863,412 865,394 866,374 868,365 869,385 871,478 872,480 874,483 875,462 877,452 878,454 880,469 881,403 883,365 884,361 886,373 887,443 889,473 890,537 892,461 893,405 895,402 896,415 898,433 899,467 901,467 902,436 904,441 906,455 907,482 909,495 910,456 912,416 913,362 915,352 916,377 918,421 919,376 921,363 922,412 924,412 925,410 927,401 928,414 930,435 931,439 933,407 934,369 936,406 937,445 939,517 940,496 942,540 943,510 945,521 946,476 948,494 949,476 951,477 952,475 954,479 956,491 957,490 959,484 960,454 962,466 963,478 965,449 966,404 968,376 969,387 971,388 972,364 974,361 975,366 977,397 978,421 980,458 981,493 983,467 984,423 986,411 987,417 989,445 990,415 992,420 993,448 995,432 996,418 998,393 999,390 1001,443 1003,484 1004,443 1004,390 1004,393 1004,418 1004,432 1004,448 1004,420 1004,415 1004,445 1004,417 1004,411 1004,423 1004,467 1004,493 1004,458 1004,421 1004,397 1004,366 1004,361 1004,364 1004,388 1004,387 1004,376 1004,404 1004,449 1004,478 1004,466 1004,454 1004,484 1004,490 1004,491 1004,479 1004,475 1004,477 1004,476 1004,494 1004,476 1004,521 1004,510 1004,540 1004,496 1004,517 1004,445 1004,406 1004,369 1004,407 1004,439 1004,435 1004,414 1004,401 1004,410 1004,412 1004,412 1004,363 1004,376 1004,421 1004,377 1004,352 1004,362 1004,416 1004,456 1004,495 1004,482 1004,455 1004,441 1004,436 1004,467 1004,467 1004,433 1004,415 1004,402 1004,405 1004,461 1004,537 1004,473 1004,443 1004,373 1004,361 1004,365 1004,403 1004,469 1004,454 1004,452 1004,462 1004,483 1004,480 1004,478 1004,385 1004,365 1004,374 1004,394 1004,412 1004,432 1004,484 1004,426 1004,368 1004,353 1004,374 1004,442 1004,492 1004,494 1004,399 1004,397 1004,390 1004,394 1004,416 1004,391 1004,359 1004,354 1004,379 1004,418 1004,414 1004,392 1004,385 1004,386 1004,419 1004,462 1004,493 1004,470 1004,440 1004,407 1004,352 1004,344 1004,399 1004,402 1004,409 1004,427 1004,458 1004,485 1004,497 1004,543 1004,587 1004,577 1004,615 1004,658 1004,606 1004,628 1004,650 1004,629 1004,628 1004,625 1004,602 1004,609 1004,617 1004,601 1004,579 1004,570 1004,550 1004,506 1004,487 1004,465 1004,446 1004,451 1004,471 1004,463 1004,451 1004,465 1004,509 1004,447 1004,419 1004,409 1004,408 1004,414 1004,449 1004,355 1004,339 1004,377 1004,416 1004,428 1004,350 1004,339 1004,408 1004,421 1004,493 1004,454 1004,452 1004,451 1004,433 1004,432 1004,406 1004,370 1004,331 1004,334 1004,380 1004,465 1004,433 1004,456 1004,411 1004,357 1004,343 1004,355 1004,398 1004,437 1004,441 1004,498 1004,510 1004,558 1004,578 1004,575 1004,626 1004,593 1004,595 1004,587 1004,571 1004,550 1004,530 1004,509 1004,471 1004,470 1004,456 1004,413 1004,401 1004,412 1004,430 1004,412 1004,408 1004,425 1004,468 1004,416 1004,397 1004,390 1004,374 1004,324 1004,304 1004,313 1004,364 1004,434 1004,434 1004,423 1004,411 1004,397 1004,398 1004,350 1004,314 1004,324 1004,359 1004,389 1004,397 1004,420 1004,444 1004,431 1004,385 1004,368 1004,371 1004,369 1004,341 1004,315 1004,306 1004,288 1004,307 1004,302 1004,340 1004,287 1004,303 1004,300 1004,273 1004,313 1004,302 1004,305 1004,350 1004,363 1004,379 1004,431 1004,353 1004,297 1004,288 1004,330 1004,392 1004,374 1004,369 1004,405 1004,386 1004,331 1004,288 1004,277 1004,299 1004,258 1004,270 1004,319 1004,283 1004,266 1004,255 1004,269 1004,286 1004,306 1004,260 1004,233 1004,236 1004,280 1004,290 1004,282 1004,223 1004,210 1004,223 1004,276 1004,270 1004,284 1004,223 1004,209 1004,236 1004,218 1004,237 1004,202 1004,185 1004,198 1004,240 1004,266 1004,201 1004,183 1004,203 1004,226 1004,218 1004,203 1004,213 1004,197 1004,191 1004,189 1004,201 1004,219 1004,187 1004,188 1004,198 1004,222 1004,213 1004,208 1004,229 1004,281 1004,261 1004,203 1004,193 1004,230 1004,218 1004,193 1004,195 1004,233 1004,207 1004,200 1004,214 1004,226 1004,212 1004,222 1004,258 1004,222 1004,209 1004,241 1004,265 1004,246 1004,269 1004,230 1004,252 1004,309 1004,335 1004,245 1004,212 1004,206 1004,222 1004,198 1004,196 1004,227 1004,229 1004,208 1004,233 1004,264 1004,209 1004,195 1004,203 1004,209 1004,231 1004,237 1004,211 1004,212 1004,199 1004,197 1004,207 1004,238 1004,209 1004,194 1004,217 1004,267 1004,224 1004,186 1004,200 1004,184 1004,174 1004,211 1004,182 1004,176 1004,210 1004,175 1004,151 1004,166 1004,230 1004,173 1004,162 1004,185 1004,223 1004,191 1004,154 1004,164 1004,161 1004,150 1004,184 1004,143 1004,132 1004,135 1004,111 1004,116 1004,121 1004,108 1004,114 1004,126 1004,108 1004,104 1004,112 1004,101 1004,124 1004,114 1004,128 1004,122 1004,116 1004,148 1004,136 1004,110 1004,122 1004,163 1004,120 1004,104 1004,95 1004,99 1004,120 1004,160 1004,189 1004,159 1004,135 1004,147 1004,117 1004,110 1004,103 1004,91 1004,108 1004,119 1004,134 1004,143 1004,171 1004,245 1004,286 1004,214 1004,243 1004,193 1004,160 1004,169 1004,152 1004,164 1004,188 1004,187 1004,199 1004,182 1004,175 1004,171 1004,183 1004,202 1004,230 1004,170 1004,173 1004,211 1004,179 1004,268 1004,222 1004,188 1004,199 1004,183 1004,199 1004,184 1004,201 1004,194 1004,203 1004,221 1004,275 1004,227 1004,247 1004,237 1004,219 1004,226 1004,243 1004,219 1004,205 1004,203 1004,186 1004,177 1004,179 1004,175 1004,179 1004,171 1004,183 1004,198 1004,188 1004,194 1004,210 1004,227 1004,210 1004,242 1004,271 1004,244 1004,271 1004,240 1004,205 1004,201 1004,215 1004,193 1004,187 1004,203 1004,219 1004,227 1004,233 1004,248 1004,211 1004,202 1004,260 1004,229 1004,219 1004,215 1004,184 1004,144 1004,146 1004,147 1004,144 1004,151 1004,171 1004,187 1004,186 1004,184 1004,188 1004,175 1004,201 1004,225 1004,197 1004,175 1004,214 1004,186 1004,133 1004,117 1004,117 1004,137 1004,134 1004,120 1004,121 1004,106 1004,118 1004,224 1004,150 1004,190 1004,205 1004,216 1004,230 1004,178 1004,175 1004,165 1004,116 1004,72 1004,51 1004,47 1004,69 1004,124 1004,182 1004,208 1004,205 1004,195 1004,181 1004,206 1004,209 1004,199 1004,207 1004,359 1004,226 1004,248 "/>
<polyline fill="none" opacity="1" stroke="#3CB44B" stroke-width="1" points="130,262 131,262 133,261 134,261 136,260 137,259 139,258 140,256 142,255 143,253 145,251 146,249 148,247 149,245 151,243 152,240 154,238 155,236 157,234 158,232 160,230 161,228 163,227 164,226 166,225 167,224 169,224 170,224 172,224 173,225 175,226 176,227 178,228 180,230 181,231 183,233 184,235 186,236 187,238 189,240 190,242 192,244 193,245 195,247 196,249 198,250 199,251 201,253 202,254 204,255 205,256 207,257 208,258 210,258 211,259 213,260 214,260 216,261 217,261 219,261 220,262 222,262 223,262 225,262 227,262 228,262 230,262 231,262 233,262 234,262 236,262 237,262 239,262 240,262 242,262 243,262 245,262 246,262 248,262 249,261 251,261 252,261 254,261 255,261 257,261 258,261 260,260 261,260 263,260 264,260 266,260 267,259 269,259 270,259 272,259 273,259 275,259 277,259 278,258 280,258 281,258 283,258 284,258 286,258 287,258 289,257 290,257 292,257 293,257 295,256 296,256 298,256 299,255 301,255 302,254 304,254 305,253 307,253 308,252 310,251 311,250 313,249 314,248 316,247 317,246 319,245 320,244 322,243 324,242 325,240 327,239 328,238 330,236 331,235 333,234 334,232 336,231 337,230 339,228 340,227 342,226 343,225 345,224 346,223 348,222 349,221 351,220 352,220 354,220 355,220 357,220 358,220 360,220 361,221 363,222 364,222 366,224 367,225 369,226 370,228 372,230 374,232 375,234 377,236 378,238 380,240 381,242 383,244 384,247 386,249 387,251 389,253 390,256 392,258 393,260 395,262 396,264 398,265 399,267 401,269 402,270 404,271 405,273 407,274 408,275 410,276 411,277 413,278 414,278 416,279 417,279 419,280 421,280 422,281 424,281 425,281 427,282 428,282 430,282 431,283 433,283 434,283 436,284 437,284 439,285 440,285 442,286 443,286 445,287 446,288 448,288 449,289 451,290 452,290 454,291 455,291 457,292 458,292 460,293 461,293 463,294 464,294 466,294 467,294 469,294 471,294 472,294 474,293 475,293 477,292 478,292 480,291 481,291 483,290 484,289 486,288 487,288 489,287 490,286 492,285 493,284 495,284 496,283 498,283 499,282 501,282 502,282 504,281 505,281 507,281 508,281 510,282 511,282 513,282 514,283 516,284 518,284 519,285 521,286 522,287 524,288 525,289 527,290 528,291 530,292 531,294 533,295 534,296 536,298 537,299 539,301 540,302 542,304 543,305 545,307 546,309 548,310 549,312 551,314 552,316 554,318 555,320 557,322 558,324 560,326 561,328 563,330 564,332 566,334 568,335 569,337 571,339 572,341 574,342 575,344 577,345 578,346 580,348 581,349 583,350 584,350 586,351 587,352 589,352 590,353 592,353 593,353 595,354 596,354 598,354 599,354 601,354 602,354 604,354 605,354 607,354 608,354 610,354 611,354 613,354 615,354 616,354 618,354 619,355 621,355 622,355 624,356 625,356 627,357 628,358 630,358 631,359 633,360 634,361 636,361 637,362 639,363 640,364 642,365 643,366 645,367 646,368 648,369 649,371 651,372 652,373 654,375 655,376 657,378 658,379 660,381 661,383 663,385 665,387 666,389 668,391 669,393 671,396 672,398 674,400 675,402 677,405 678,407 680,409 681,411 683,413 684,414 686,416 687,417 689,419 690,420 692,420 693,421 695,421 696,421 698,420 699,419 701,418 702,417 704,415 705,413 707,411 708,408 710,405 712,402 713,398 715,394 716,390 718,386 719,382 721,378 722,374 724,370 725,366 727,362 728,358 730,355 731,352 733,350 734,348 736,347 737,346 739,346 740,347 742,348 743,350 745,352 746,356 748,359 749,363 751,368 752,372 754,377 755,382 757,388 758,393 760,398 762,404 763,409 765,414 766,418 768,423 769,427 771,431 772,435 774,438 775,441 777,443 778,445 780,447 781,448 783,449 784,449 786,449 787,449 789,448 790,447 792,445 793,443 795,440 796,438 798,435 799,431 801,428 802,424 804,420 805,416 807,411 809,407 810,402 812,398 813,393 815,388 816,384 818,379 819,375 821,371 822,367 824,363 825,359 827,356 828,354 830,351 831,349 833,348 834,346 836,345 837,345 839,345 840,345 842,346 843,347 845,348 846,350 848,351 849,353 851,355 852,357 854,359 855,362 857,364 859,366 860,368 862,370 863,371 865,373 866,374 868,376 869,377 871,377 872,378 874,378 875,379 877,379 878,378 880,378 881,377 883,377 884,376 886,375 887,374 889,372 890,371 892,370 893,368 895,367 896,366 898,364 899,363 901,362 902,362 904,361 906,360 907,360 909,360 910,360 912,361 913,361 915,362 916,363 918,364 919,366 921,367 922,369 924,370 925,372 927,373 928,375 930,377 931,378 933,380 934,381 936,382 937,383 939,384 940,385 942,386 943,386 945,386 946,386 948,386 949,386 951,385 952,385 954,384 956,383 957,382 959,381 960,380 962,379 963,378 965,376 966,375 968,374 969,373 971,371 972,370 974,369 975,368 977,367 978,367 980,366 981,365 983,365 984,364 986,364 987,364 989,364 990,363 992,363 993,363 995,363 996,363 998,363 999,363 1001,363 1003,363 1004,363 1004,363 1004,363 1004,363 1004,363 1004,363 1004,363 1004,363 1004,364 1004,364 1004,364 1004,364 1004,365 1004,365 1004,366 1004,367 1004,367 1004,368 1004,369 1004,370 1004,371 1004,373 1004,374 1004,375 1004,376 1004,378 1004,379 1004,380 1004,381 1004,382 1004,383 1004,384 1004,385 1004,385 1004,386 1004,386 1004,386 1004,386 1004,386 1004,386 1004,385 1004,384 1004,383 1004,382 1004,381 1004,380 1004,378 1004,377 1004,375 1004,373 1004,372 1004,370 1004,369 1004,367 1004,366 1004,364 1004,363 1004,362 1004,361 1004,361 1004,360 1004,360 1004,360 1004,360 1004,361 1004,362 1004,362 1004,363 1004,364 1004,366 1004,367 1004,368 1004,370 1004,371 1004,372 1004,374 1004,375 1004,376 1004,377 1004,377 1004,378 1004,378 1004,379 1004,379 1004,378 1004,378 1004,377 1004,377 1004,376 1004,374 1004,373 1004,371 1004,370 1004,368 1004,366 1004,364 1004,362 1004,359 1004,357 1004,355 1004,353 1004,351 1004,350 1004,348 1004,347 1004,346 1004,345 1004,345 1004,345 1004,345 1004,346 1004,348 1004,349 1004,351 1004,354 1004,356 1004,359 1004,363 1004,367 1004,371 1004,375 1004,379 1004,384 1004,388 1004,393 1004,398 1004,402 1004,407 1004,411 1004,416 1004,420 1004,424 1004,428 1004,431 1004,435 1004,438 1004,440 1004,443 1004,445 1004,447 1004,448 1004,449 1004,449 1004,449 1004,449 1004,448 1004,447 1004,445 1004,443 1004,441 1004,438 1004,435 1004,431 1004,427 1004,423 1004,418 1004,414 1004,409 1004,404 1004,398 1004,393 1004,388 1004,382 1004,377 1004,372 1004,368 1004,363 1004,359 1004,356 1004,352 1004,350 1004,348 1004,347 1004,346 1004,346 1004,347 1004,348 1004,350 1004,352 1004,355 1004,358 1004,362 1004,366 1004,370 1004,374 1004,378 1004,382 1004,386 1004,390 1004,394 1004,398 1004,402 1004,405 1004,408 1004,411 1004,413 1004,415 1004,417 1004,418 1004,419 1004,420 1004,421 1004,421 1004,421 1004,420 1004,420 1004,419 1004,417 1004,416 1004,414 1004,413 1004,411 1004,409 1004,407 1004,405 1004,402 1004,400 1004,398 1004,396 1004,393 1004,391 1004,389 1004,387 1004,385 1004,383 1004,381 1004,379 1004,378 1004,376 1004,375 1004,373 1004,372 1004,371 1004,369 1004,368 1004,367 1004,366 1004,365 1004,364 1004,363 1004,362 1004,361 1004,361 1004,360 1004,359 1004,358 1004,358 1004,357 1004,356 1004,356 1004,355 1004,355 1004,355 1004,354 1004,354 1004,354 1004,354 1004,354 1004,354 1004,354 1004,354 1004,354 1004,354 1004,354 1004,354 1004,354 1004,354 1004,354 1004,354 1004,353 1004,353 1004,353 1004,352 1004,352 1004,351 1004,350 1004,350 1004,349 1004,348 1004,346 1004,345 1004,344 1004,342 1004,341 1004,339 1004,337 1004,335 1004,334 1004,332 1004,330 1004,328 1004,326 1004,324 1004,322 1004,320 1004,318 1004,316 1004,314 1004,312 1004,310 1004,309 1004,307 1004,305 1004,304 1004,302 1004,301 1004,299 1004,298 1004,296 1004,295 1004,294 1004,292 1004,291 1004,290 1004,289 1004,288 1004,287 1004,286 1004,285 1004,284 1004,284 1004,283 1004,282 1004,282 1004,282 1004,281 1004,281 1004,281 1004,281 1004,282 1004,282 1004,282 1004,283 1004,283 1004,284 1004,284 1004,285 1004,286 1004,287 1004,288 1004,288 1004,289 1004,290 1004,291 1004,291 1004,292 1004,292 1004,293 1004,293 1004,294 1004,294 1004,294 1004,294 1004,294 1004,294 1004,294 1004,293 1004,293 1004,292 1004,292 1004,291 1004,291 1004,290 1004,290 1004,289 1004,288 1004,288 1004,287 1004,286 1004,286 1004,285 1004,285 1004,284 1004,284 1004,283 1004,283 1004,283 1004,282 1004,282 1004,282 1004,281 1004,281 1004,281 1004,280 1004,280 1004,279 1004,279 1004,278 1004,278 1004,277 1004,276 1004,275 1004,274 1004,273 1004,271 1004,270 1004,269 1004,267 1004,265 1004,264 1004,262 1004,260 1004,258 1004,256 1004,253 1004,251 1004,249 1004,247 1004,244 1004,242 1004,240 1004,238 1004,236 1004,234 1004,232 1004,230 1004,228 1004,226 1004,225 1004,224 1004,222 1004,222 1004,221 1004,220 1004,220 1004,220 1004,220 1004,220 1004,220 1004,220 1004,221 1004,222 1004,223 1004,224 1004,225 1004,226 1004,227 1004,228 1004,230 1004,231 1004,232 1004,234 1004,235 1004,236 1004,238 1004,239 1004,240 1004,242 1004,243 1004,244 1004,245 1004,246 1004,247 1004,248 1004,249 1004,250 1004,251 1004,252 1004,253 1004,253 1004,254 1004,254 1004,255 1004,255 1004,256 1004,256 1004,256 1004,257 1004,257 1004,257 1004,257 1004,258 1004,258 1004,258 1004,258 1004,258 1004,258 1004,258 1004,259 1004,259 1004,259 1004,259 1004,259 1004,259 1004,259 1004,260 1004,260 1004,260 1004,260 1004,260 1004,261 1004,261 1004,261 1004,261 1004,261 1004,261 1004,261 1004,262 1004,262 1004,262 1004,262 1004,262 1004,262 1004,262 1004,262 1004,262 1004,262 1004,262 1004,262 1004,262 1004,262 1004,262 1004,262 1004,262 1004,262 1004,262 1004,261 1004,261 1004,261 1004,260 1004,260 1004,259 1004,258 1004,258 1004,257 1004,256 1004,255 1004,254 1004,253 1004,251 1004,250 1004,249 1004,247 1004,245 1004,244 1004,242 1004,240 1004,238 1004,236 1004,235 1004,233 1004,231 1004,230 1004,228 1004,227 1004,226 1004,225 1004,224 1004,224 1004,224 1004,224 1004,225 1004,226 1004,227 1004,228 1004,230 1004,232 1004,234 1004,236 1004,238 1004,240 1004,243 1004,245 1004,247 1004,249 1004,251 1004,253 1004,255 1004,256 1004,258 1004,259 1004,260 1004,261 1004,261 1004,262 "/>
<polyline fill="none" opacity="1" stroke="#FFE119" stroke-width="1" points="130,301 131,301 133,301 134,301 136,301 137,301 139,301 140,301 142,301 143,301 145,301 146,301 148,301 149,301 151,301 152,301 154,301 155,302 157,302 158,302 160,302 161,302 163,302 164,302 166,301 167,301 169,301 170,301 172,301 173,301 175,301 176,301 178,301 180,301 181,301 183,301 184,301 186,301 187,301 189,301 190,302 192,302 193,302 195,302 196,302 198,302 199,302 201,302 202,302 204,302 205,302 207,302 208,302 210,302 211,302 213,302 214,302 216,302 217,302 219,302 220,302 222,302 223,302 225,301 227,301 228,301 230,301 231,301 233,301 234,301 236,300 237,300 239,300 240,300 242,300 243,300 245,300 246,300 248,300 249,300 251,300 252,300 254,300 255,300 257,300 258,300 260,300 261,300 263,300 264,300 266,300 267,300 269,300 270,300 272,300 273,300 275,300 277,300 278,300 280,300 281,300 283,300 284,300 286,299 287,299 289,299 290,299 292,299 293,299 295,299 296,299 298,299 299,299 301,299 302,299 304,299 305,299 307,299 308,299 310,299 311,300 313,300 314,300 316,300 317,300 319,300 320,300 322,300 324,300 325,301 327,301 328,301 330,301 331,301 333,301 334,301 336,301 337,301 339,301 340,301 342,301 343,301 345,301 346,301 348,301 349,301 351,301 352,302 354,302 355,302 357,302 358,302 360,302 361,302 363,302 364,302 366,302 367,302 369,302 370,302 372,302 374,302 375,302 377,302 378,302 380,302 381,302 383,302 384,302 386,302 387,302 389,302 390,302 392,302 393,302 395,302 396,302 398,302 399,302 401,303 402,303 404,303 405,303 407,303 408,303 410,303 411,303 413,303 414,303 416,303 417,304 419,304 421,304 422,304 424,304 425,304 427,304 428,304 430,304 431,304 433,304 434,304 436,304 437,304 439,305 440,305 442,305 443,305 445,305 446,305 448,305 449,305 451,305 452,306 454,306 455,306 457,306 458,306 460,306 461,306 463,306 464,306 466,307 467,307 469,307 471,307 472,307 474,307 475,307 477,307 478,307 480,307 481,307 483,306 484,306 486,306 487,306 489,306 490,306 492,306 493,306 495,305 496,305 498,305 499,305 501,305 502,305 504,305 505,305 507,305 508,305 510,305 511,305 513,304 514,304 516,304 518,304 519,304 521,304 522,304 524,304 525,304 527,304 528,304 530,304 531,304 533,304 534,304 536,303 537,303 539,303 540,303 542,303 543,303 545,302 546,302 548,302 549,302 551,302 552,301 554,301 555,301 557,301 558,301 560,300 561,300 563,300 564,300 566,300 568,300 569,300 571,300 572,300 574,300 575,301 577,301 578,301 580,302 581,302 583,303 584,304 586,305 587,306 589,307 590,308 592,309 593,310 595,311 596,313 598,314 599,315 601,317 602,318 604,319 605,320 607,321 608,322 610,323 611,324 613,325 615,326 616,327 618,327 619,328 621,328 622,329 624,329 625,329 627,329 628,330 630,330 631,330 633,330 634,330 636,331 637,331 639,332 640,332 642,333 643,334 645,336 646,337 648,339 649,341 651,343 652,346 654,348 655,350 657,353 658,355 660,357 661,360 663,362 665,364 666,366 668,368 669,370 671,372 672,374 674,375 675,377 677,379 678,380 680,381 681,383 683,384 684,385 686,386 687,387 689,387 690,388 692,389 693,389 695,389 696,390 698,390 699,390 701,390 702,390 704,390 705,389 707,389 708,388 710,387 712,387 713,386 715,384 716,383 718,382 719,380 721,378 722,377 724,375 725,373 727,371 728,369 730,367 731,365 733,364 734,364 736,364 737,365 739,367 740,369 742,372 743,375 745,378 746,381 748,384 749,387 751,389 752,392 754,394 755,397 757,399 758,401 760,403 762,405 763,406 765,408 766,409 768,410 769,412 771,413 772,414 774,414 775,415 777,416 778,416 780,417 781,417 783,418 784,418 786,418 787,418 789,418 790,418 792,417 793,417 795,416 796,416 798,415 799,414 801,414 802,413 804,411 805,410 807,409 809,407 810,406 812,404 813,402 815,400 816,398 818,395 819,393 821,390 822,387 824,384 825,381 827,378 828,376 830,373 831,371 833,369 834,368 836,368 837,369 839,370 840,372 842,374 843,377 845,379 846,381 848,383 849,385 851,387 852,389 854,390 855,392 857,393 859,394 860,395 862,395 863,396 865,396 866,397 868,397 869,397 871,397 872,397 874,396 875,396 877,395 878,395 880,394 881,393 883,392 884,392 886,391 887,389 889,388 890,387 892,386 893,385 895,385 896,384 898,383 899,383 901,383 902,383 904,384 906,384 907,385 909,386 910,387 912,388 913,389 915,390 916,391 918,392 919,393 921,394 922,395 924,396 925,397 927,398 928,398 930,399 931,400 933,400 934,400 936,401 937,401 939,401 940,401 942,401 943,401 945,401 946,400 948,400 949,400 951,399 952,399 954,398 956,398 957,397 959,397 960,396 962,396 963,396 965,395 966,395 968,395 969,395 971,394 972,394 974,394 975,395 977,395 978,395 980,395 981,396 983,396 984,396 986,397 987,397 989,398 990,398 992,398 993,399 995,399 996,399 998,399 999,399 1001,399 1003,399 1004,399 1004,399 1004,399 1004,399 1004,399 1004,399 1004,398 1004,398 1004,398 1004,397 1004,397 1004,396 1004,396 1004,396 1004,395 1004,395 1004,395 1004,395 1004,394 1004,394 1004,394 1004,395 1004,395 1004,395 1004,395 1004,396 1004,396 1004,396 1004,397 1004,397 1004,398 1004,398 1004,399 1004,399 1004,400 1004,400 1004,400 1004,401 1004,401 1004,401 1004,401 1004,401 1004,401 1004,401 1004,400 1004,400 1004,400 1004,399 1004,398 1004,398 1004,397 1004,396 1004,395 1004,394 1004,393 1004,392 1004,391 1004,390 1004,389 1004,388 1004,387 1004,386 1004,385 1004,384 1004,384 1004,383 1004,383 1004,383 1004,383 1004,384 1004,385 1004,385 1004,386 1004,387 1004,388 1004,389 1004,391 1004,392 1004,392 1004,393 1004,394 1004,395 1004,395 1004,396 1004,396 1004,397 1004,397 1004,397 1004,397 1004,397 1004,396 1004,396 1004,395 1004,395 1004,394 1004,393 1004,392 1004,390 1004,389 1004,387 1004,385 1004,383 1004,381 1004,379 1004,377 1004,374 1004,372 1004,370 1004,369 1004,368 1004,368 1004,369 1004,371 1004,373 1004,376 1004,378 1004,381 1004,384 1004,387 1004,390 1004,393 1004,395 1004,398 1004,400 1004,402 1004,404 1004,406 1004,407 1004,409 1004,410 1004,411 1004,413 1004,414 1004,414 1004,415 1004,416 1004,416 1004,417 1004,417 1004,418 1004,418 1004,418 1004,418 1004,418 1004,418 1004,417 1004,417 1004,416 1004,416 1004,415 1004,414 1004,414 1004,413 1004,412 1004,410 1004,409 1004,408 1004,406 1004,405 1004,403 1004,401 1004,399 1004,397 1004,394 1004,392 1004,389 1004,387 1004,384 1004,381 1004,378 1004,375 1004,372 1004,369 1004,367 1004,365 1004,364 1004,364 1004,364 1004,365 1004,367 1004,369 1004,371 1004,373 1004,375 1004,377 1004,378 1004,380 1004,382 1004,383 1004,384 1004,386 1004,387 1004,387 1004,388 1004,389 1004,389 1004,390 1004,390 1004,390 1004,390 1004,390 1004,390 1004,389 1004,389 1004,389 1004,388 1004,387 1004,387 1004,386 1004,385 1004,384 1004,383 1004,381 1004,380 1004,379 1004,377 1004,375 1004,374 1004,372 1004,370 1004,368 1004,366 1004,364 1004,362 1004,360 1004,357 1004,355 1004,353 1004,350 1004,348 1004,346 1004,343 1004,341 1004,339 1004,337 1004,336 1004,334 1004,333 1004,332 1004,332 1004,331 1004,331 1004,330 1004,330 1004,330 1004,330 1004,330 1004,329 1004,329 1004,329 1004,329 1004,328 1004,328 1004,327 1004,327 1004,326 1004,325 1004,324 1004,323 1004,322 1004,321 1004,320 1004,319 1004,318 1004,317 1004,315 1004,314 1004,313 1004,311 1004,310 1004,309 1004,308 1004,307 1004,306 1004,305 1004,304 1004,303 1004,302 1004,302 1004,301 1004,301 1004,301 1004,300 1004,300 1004,300 1004,300 1004,300 1004,300 1004,300 1004,300 1004,300 1004,300 1004,301 1004,301 1004,301 1004,301 1004,301 1004,302 1004,302 1004,302 1004,302 1004,302 1004,303 1004,303 1004,303 1004,303 1004,303 1004,303 1004,304 1004,304 1004,304 1004,304 1004,304 1004,304 1004,304 1004,304 1004,304 1004,304 1004,304 1004,304 1004,304 1004,304 1004,304 1004,305 1004,305 1004,305 1004,305 1004,305 1004,305 1004,305 1004,305 1004,305 1004,305 1004,305 1004,305 1004,306 1004,306 1004,306 1004,306 1004,306 1004,306 1004,306 1004,306 1004,307 1004,307 1004,307 1004,307 1004,307 1004,307 1004,307 1004,307 1004,307 1004,307 1004,307 1004,306 1004,306 1004,306 1004,306 1004,306 1004,306 1004,306 1004,306 1004,306 1004,305 1004,305 1004,305 1004,305 1004,305 1004,305 1004,305 1004,305 1004,305 1004,304 1004,304 1004,304 1004,304 1004,304 1004,304 1004,304 1004,304 1004,304 1004,304 1004,304 1004,304 1004,304 1004,304 1004,303 1004,303 1004,303 1004,303 1004,303 1004,303 1004,303 1004,303 1004,303 1004,303 1004,303 1004,302 1004,302 1004,302 1004,302 1004,302 1004,302 1004,302 1004,302 1004,302 1004,302 1004,302 1004,302 1004,302 1004,302 1004,302 1004,302 1004,302 1004,302 1004,302 1004,302 1004,302 1004,302 1004,302 1004,302 1004,302 1004,302 1004,302 1004,302 1004,302 1004,302 1004,302 1004,302 1004,301 1004,301 1004,301 1004,301 1004,301 1004,301 1004,301 1004,301 1004,301 1004,301 1004,301 1004,301 1004,301 1004,301 1004,301 1004,301 1004,301 1004,301 1004,300 1004,300 1004,300 1004,300 1004,300 1004,300 1004,300 1004,300 1004,300 1004,299 1004,299 1004,299 1004,299 1004,299 1004,299 1004,299 1004,299 1004,299 1004,299 1004,299 1004,299 1004,299 1004,299 1004,299 1004,299 1004,299 1004,300 1004,300 1004,300 1004,300 1004,300 1004,300 1004,300 1004,300 1004,300 1004,300 1004,300 1004,300 1004,300 1004,300 1004,300 1004,300 1004,300 1004,300 1004,300 1004,300 1004,300 1004,300 1004,300 1004,300 1004,300 1004,300 1004,300 1004,300 1004,300 1004,300 1004,300 1004,300 1004,300 1004,301 1004,301 1004,301 1004,301 1004,301 1004,301 1004,301 1004,302 1004,302 1004,302 1004,302 1004,302 1004,302 1004,302 1004,302 1004,302 1004,302 1004,302 1004,302 1004,302 1004,302 1004,302 1004,302 1004,302 1004,302 1004,302 1004,302 1004,302 1004,302 1004,302 1004,301 1004,301 1004,301 1004,301 1004,301 1004,301 1004,301 1004,301 1004,301 1004,301 1004,301 1004,301 1004,301 1004,301 1004,301 1004,301 1004,302 1004,302 1004,302 1004,302 1004,302 1004,302 1004,302 1004,301 1004,301 1004,301 1004,301 1004,301 1004,301 1004,301 1004,301 1004,301 1004,301 1004,301 1004,301 1004,301 1004,301 1004,301 1004,301 "/>
<polyline fill="none" opacity="1" stroke="#0082C8" stroke-width="1" points="130,184 131,184 133,184 134,184 136,184 137,184 139,184 140,184 142,184 143,184 145,184 146,184 148,184 149,184 151,184 152,184 154,184 155,184 157,184 158,184 160,184 161,184 163,184 164,184 166,184 167,184 169,184 170,184 172,184 173,184 175,184 176,184 178,184 180,184 181,184 183,184 184,184 186,184 187,184 189,184 190,184 192,184 193,185 195,185 196,185 198,185 199,185 201,185 202,185 204,185 205,185 207,185 208,185 210,185 211,185 213,185 214,185 216,185 217,185 219,185 220,185 222,185 223,184 225,184 227,184 228,184 230,184 231,184 233,184 234,183 236,183 237,183 239,183 240,183 242,183 243,183 245,183 246,183 248,183 249,183 251,183 252,183 254,183 255,183 257,183 258,183 260,183 261,183 263,183 264,183 266,183 267,183 269,183 270,183 272,183 273,183 275,183 277,183 278,183 280,183 281,183 283,182 284,182 286,182 287,182 289,182 290,182 292,182 293,182 295,182 296,182 298,182 299,182 301,182 302,182 304,182 305,182 307,182 308,182 310,182 311,182 313,183 314,183 316,183 317,183 319,183 320,183 322,183 324,183 325,183 327,184 328,184 330,184 331,184 333,184 334,184 336,184 337,184 339,184 340,184 342,184 343,184 345,184 346,184 348,184 349,184 351,184 352,184 354,184 355,184 357,184 358,184 360,184 361,184 363,184 364,185 366,185 367,185 369,185 370,185 372,185 374,185 375,185 377,185 378,185 380,185 381,185 383,185 384,185 386,185 387,185 389,185 390,185 392,185 393,185 395,185 396,185 398,185 399,185 401,185 402,185 404,186 405,186 407,186 408,186 410,186 411,186 413,186 414,186 416,186 417,186 419,186 421,187 422,187 424,187 425,187 427,187 428,187 430,187 431,187 433,187 434,187 436,187 437,187 439,187 440,188 442,188 443,188 445,188 446,188 448,188 449,188 451,188 452,188 454,189 455,189 457,189 458,189 460,189 461,189 463,189 464,189 466,189 467,189 469,190 471,190 472,190 474,190 475,190 477,190 478,190 480,189 481,189 483,189 484,189 486,189 487,189 489,189 490,189 492,189 493,188 495,188 496,188 498,188 499,188 501,188 502,188 504,188 505,188 507,188 508,187 510,187 511,187 513,187 514,187 516,187 518,187 519,187 521,187 522,187 524,187 525,187 527,187 528,187 530,187 531,187 533,187 534,186 536,186 537,186 539,186 540,186 542,186 543,185 545,185 546,185 548,185 549,185 551,184 552,184 554,184 555,184 557,184 558,184 560,183 561,183 563,183 564,183 566,183 568,183 569,183 571,183 572,183 574,183 575,184 577,184 578,184 580,185 581,185 583,186 584,187 586,188 587,189 589,190 590,191 592,192 593,193 595,194 596,196 598,197 599,198 601,199 602,201 604,202 605,203 607,204 608,205 610,206 611,207 613,208 615,209 616,209 618,210 619,211 621,211 622,211 624,212 625,212 627,212 628,212 630,213 631,213 633,213 634,213 636,213 637,214 639,214 640,215 642,216 643,217 645,219 646,220 648,222 649,224 651,226 652,228 654,231 655,233 657,235 658,238 660,240 661,242 663,245 665,247 666,249 668,251 669,253 671,255 672,257 674,258 675,260 677,261 678,263 680,264 681,265 683,267 684,268 686,269 687,269 689,270 690,271 692,271 693,272 695,272 696,273 698,273 699,273 701,273 702,273 704,272 705,272 707,272 708,271 710,270 712,269 713,268 715,267 716,266 718,265 719,263 721,261 722,259 724,258 725,256 727,253 728,251 730,250 731,248 733,247 734,247 736,247 737,248 739,250 740,252 742,255 743,258 745,261 746,264 748,267 749,269 751,272 752,275 754,277 755,280 757,282 758,284 760,286 762,287 763,289 765,291 766,292 768,293 769,294 771,296 772,297 774,297 775,298 777,299 778,299 780,300 781,300 783,300 784,301 786,301 787,301 789,301 790,300 792,300 793,300 795,299 796,299 798,298 799,297 801,296 802,295 804,294 805,293 807,292 809,290 810,289 812,287 813,285 815,283 816,281 818,278 819,276 821,273 822,270 824,267 825,264 827,261 828,258 830,256 831,254 833,252 834,251 836,251 837,252 839,253 840,255 842,257 843,260 845,262 846,264 848,266 849,268 851,270 852,272 854,273 855,275 857,276 859,277 860,278 862,278 863,279 865,279 866,280 868,280 869,280 871,280 872,280 874,279 875,279 877,278 878,278 880,277 881,276 883,275 884,274 886,273 887,272 889,271 890,270 892,269 893,268 895,268 896,267 898,266 899,266 901,266 902,266 904,266 906,267 907,268 909,269 910,270 912,271 913,272 915,273 916,274 918,275 919,276 921,277 922,278 924,279 925,280 927,281 928,281 930,282 931,282 933,283 934,283 936,283 937,284 939,284 940,284 942,284 943,284 945,283 946,283 948,283 949,283 951,282 952,282 954,281 956,281 957,280 959,280 960,279 962,279 963,279 965,278 966,278 968,278 969,277 971,277 972,277 974,277 975,277 977,278 978,278 980,278 981,279 983,279 984,279 986,280 987,280 989,280 990,281 992,281 993,281 995,282 996,282 998,282 999,282 1001,282 1003,282 1004,282 1004,282 1004,282 1004,282 1004,282 1004,281 1004,281 1004,281 1004,280 1004,280 1004,280 1004,279 1004,279 1004,279 1004,278 1004,278 1004,278 1004,277 1004,277 1004,277 1004,277 1004,277 1004,278 1004,278 1004,278 1004,279 1004,279 1004,279 1004,280 1004,280 1004,281 1004,281 1004,282 1004,282 1004,283 1004,283 1004,283 1004,283 1004,284 1004,284 1004,284 1004,284 1004,284 1004,283 1004,283 1004,283 1004,282 1004,282 1004,281 1004,281 1004,280 1004,279 1004,278 1004,277 1004,276 1004,275 1004,274 1004,273 1004,272 1004,271 1004,270 1004,269 1004,268 1004,267 1004,266 1004,266 1004,266 1004,266 1004,266 1004,267 1004,268 1004,268 1004,269 1004,270 1004,271 1004,272 1004,273 1004,274 1004,275 1004,276 1004,277 1004,278 1004,278 1004,279 1004,279 1004,280 1004,280 1004,280 1004,280 1004,280 1004,279 1004,279 1004,278 1004,278 1004,277 1004,276 1004,275 1004,273 1004,272 1004,270 1004,268 1004,266 1004,264 1004,262 1004,260 1004,257 1004,255 1004,253 1004,252 1004,251 1004,251 1004,252 1004,254 1004,256 1004,258 1004,261 1004,264 1004,267 1004,270 1004,273 1004,276 1004,278 1004,281 1004,283 1004,285 1004,287 1004,289 1004,290 1004,292 1004,293 1004,294 1004,295 1004,296 1004,297 1004,298 1004,299 1004,299 1004,300 1004,300 1004,300 1004,301 1004,301 1004,301 1004,301 1004,300 1004,300 1004,300 1004,299 1004,299 1004,298 1004,297 1004,297 1004,296 1004,294 1004,293 1004,292 1004,291 1004,289 1004,287 1004,286 1004,284 1004,282 1004,280 1004,277 1004,275 1004,272 1004,269 1004,267 1004,264 1004,261 1004,258 1004,255 1004,252 1004,250 1004,248 1004,247 1004,247 1004,247 1004,248 1004,250 1004,251 1004,253 1004,256 1004,258 1004,259 1004,261 1004,263 1004,265 1004,266 1004,267 1004,268 1004,269 1004,270 1004,271 1004,272 1004,272 1004,272 1004,273 1004,273 1004,273 1004,273 1004,273 1004,272 1004,272 1004,271 1004,271 1004,270 1004,269 1004,269 1004,268 1004,267 1004,265 1004,264 1004,263 1004,261 1004,260 1004,258 1004,257 1004,255 1004,253 1004,251 1004,249 1004,247 1004,245 1004,242 1004,240 1004,238 1004,235 1004,233 1004,231 1004,228 1004,226 1004,224 1004,222 1004,220 1004,219 1004,217 1004,216 1004,215 1004,214 1004,214 1004,213 1004,213 1004,213 1004,213 1004,213 1004,212 1004,212 1004,212 1004,212 1004,211 1004,211 1004,211 1004,210 1004,209 1004,209 1004,208 1004,207 1004,206 1004,205 1004,204 1004,203 1004,202 1004,201 1004,199 1004,198 1004,197 1004,196 1004,194 1004,193 1004,192 1004,191 1004,190 1004,189 1004,188 1004,187 1004,186 1004,185 1004,185 1004,184 1004,184 1004,184 1004,183 1004,183 1004,183 1004,183 1004,183 1004,183 1004,183 1004,183 1004,183 1004,183 1004,184 1004,184 1004,184 1004,184 1004,184 1004,184 1004,185 1004,185 1004,185 1004,185 1004,185 1004,186 1004,186 1004,186 1004,186 1004,186 1004,186 1004,187 1004,187 1004,187 1004,187 1004,187 1004,187 1004,187 1004,187 1004,187 1004,187 1004,187 1004,187 1004,187 1004,187 1004,187 1004,187 1004,187 1004,188 1004,188 1004,188 1004,188 1004,188 1004,188 1004,188 1004,188 1004,188 1004,188 1004,189 1004,189 1004,189 1004,189 1004,189 1004,189 1004,189 1004,189 1004,189 1004,190 1004,190 1004,190 1004,190 1004,190 1004,190 1004,190 1004,189 1004,189 1004,189 1004,189 1004,189 1004,189 1004,189 1004,189 1004,189 1004,189 1004,188 1004,188 1004,188 1004,188 1004,188 1004,188 1004,188 1004,188 1004,188 1004,187 1004,187 1004,187 1004,187 1004,187 1004,187 1004,187 1004,187 1004,187 1004,187 1004,187 1004,187 1004,187 1004,186 1004,186 1004,186 1004,186 1004,186 1004,186 1004,186 1004,186 1004,186 1004,186 1004,186 1004,185 1004,185 1004,185 1004,185 1004,185 1004,185 1004,185 1004,185 1004,185 1004,185 1004,185 1004,185 1004,185 1004,185 1004,185 1004,185 1004,185 1004,185 1004,185 1004,185 1004,185 1004,185 1004,185 1004,185 1004,185 1004,185 1004,184 1004,184 1004,184 1004,184 1004,184 1004,184 1004,184 1004,184 1004,184 1004,184 1004,184 1004,184 1004,184 1004,184 1004,184 1004,184 1004,184 1004,184 1004,184 1004,184 1004,184 1004,184 1004,184 1004,184 1004,184 1004,183 1004,183 1004,183 1004,183 1004,183 1004,183 1004,183 1004,183 1004,183 1004,182 1004,182 1004,182 1004,182 1004,182 1004,182 1004,182 1004,182 1004,182 1004,182 1004,182 1004,182 1004,182 1004,182 1004,182 1004,182 1004,182 1004,182 1004,182 1004,182 1004,183 1004,183 1004,183 1004,183 1004,183 1004,183 1004,183 1004,183 1004,183 1004,183 1004,183 1004,183 1004,183 1004,183 1004,183 1004,183 1004,183 1004,183 1004,183 1004,183 1004,183 1004,183 1004,183 1004,183 1004,183 1004,183 1004,183 1004,183 1004,183 1004,183 1004,183 1004,183 1004,184 1004,184 1004,184 1004,184 1004,184 1004,184 1004,184 1004,185 1004,185 1004,185 1004,185 1004,185 1004,185 1004,185 1004,185 1004,185 1004,185 1004,185 1004,185 1004,185 1004,185 1004,185 1004,185 1004,185 1004,185 1004,185 1004,185 1004,184 1004,184 1004,184 1004,184 1004,184 1004,184 1004,184 1004,184 1004,184 1004,184 1004,184 1004,184 1004,184 1004,184 1004,184 1004,184 1004,184 1004,184 1004,184 1004,184 1004,184 1004,184 1004,184 1004,184 1004,184 1004,184 1004,184 1004,184 1004,184 1004,184 1004,184 1004,184 1004,184 1004,184 1004,184 1004,184 1004,184 1004,184 1004,184 1004,184 1004,184 "/>
<rect x="514" y="25" width="485" height="157" opacity="0.8" fill="#FFFFFF" stroke="none"/>
<rect x="514" y="25" width="485" height="157" opacity="1" fill="none" stroke="#000000"/>
<text x="554" y="35" dy="0.76em" text-anchor="start" font-family="sans-serif" font-size="24.193548387096776" opacity="1" fill="#000000">
(1) log_power
</text>
<text x="554" y="73" dy="0.76em" text-anchor="start" font-family="sans-serif" font-size="24.193548387096776" opacity="1" fill="#000000">
(2) spectral_envelope by cepstrum
</text>
<text x="554" y="110" dy="0.76em" text-anchor="start" font-family="sans-serif" font-size="24.193548387096776" opacity="1" fill="#000000">
(3) spectral_envelope by levinson-durbin
</text>
<text x="554" y="148" dy="0.76em" text-anchor="start" font-family="sans-serif" font-size="24.193548387096776" opacity="1" fill="#000000">
(4) spectral_envelope by burg
</text>
<polyline fill="none" opacity="1" stroke="#E6194B" stroke-width="1" points="524,47 544,47 "/>
<polyline fill="none" opacity="1" stroke="#3CB44B" stroke-width="1" points="524,85 544,85 "/>
<polyline fill="none" opacity="1" stroke="#FFE119" stroke-width="1" points="524,122 544,122 "/>
<polyline fill="none" opacity="1" stroke="#0082C8" stroke-width="1" points="524,160 544,160 "/>
</svg>
