<svg width="1024" height="768" viewBox="0 0 1024 768" xmlns="http://www.w3.org/2000/svg">
<rect x="0" y="0" width="1024" height="768" opacity="1" fill="#FFFFFF" stroke="none"/>
<line opacity="0.1" stroke="#000000" stroke-width="1" x1="130" y1="657" x2="130" y2="20"/>
<line opacity="0.1" stroke="#000000" stroke-width="1" x1="140" y1="657" x2="140" y2="20"/>
<line opacity="0.1" stroke="#000000" stroke-width="1" x1="151" y1="657" x2="151" y2="20"/>
<line opacity="0.1" stroke="#000000" stroke-width="1" x1="162" y1="657" x2="162" y2="20"/>
<line opacity="0.1" stroke="#000000" stroke-width="1" x1="173" y1="657" x2="173" y2="20"/>
<line opacity="0.1" stroke="#000000" stroke-width="1" x1="184" y1="657" x2="184" y2="20"/>
<line opacity="0.1" stroke="#000000" stroke-width="1" x1="195" y1="657" x2="195" y2="20"/>
<line opacity="0.1" stroke="#000000" stroke-width="1" x1="206" y1="657" x2="206" y2="20"/>
<line opacity="0.1" stroke="#000000" stroke-width="1" x1="217" y1="657" x2="217" y2="20"/>
<line opacity="0.1" stroke="#000000" stroke-width="1" x1="228" y1="657" x2="228" y2="20"/>
<line opacity="0.1" stroke="#000000" stroke-width="1" x1="239" y1="657" x2="239" y2="20"/>
<line opacity="0.1" stroke="#000000" stroke-width="1" x1="250" y1="657" x2="250" y2="20"/>
<line opacity="0.1" stroke="#000000" stroke-width="1" x1="260" y1="657" x2="260" y2="20"/>
<line opacity="0.1" stroke="#000000" stroke-width="1" x1="271" y1="657" x2="271" y2="20"/>
<line opacity="0.1" stroke="#000000" stroke-width="1" x1="282" y1="657" x2="282" y2="20"/>
<line opacity="0.1" stroke="#000000" stroke-width="1" x1="293" y1="657" x2="293" y2="20"/>
<line opacity="0.1" stroke="#000000" stroke-width="1" x1="304" y1="657" x2="304" y2="20"/>
<line opacity="0.1" stroke="#000000" stroke-width="1" x1="315" y1="657" x2="315" y2="20"/>
<line opacity="0.1" stroke="#000000" stroke-width="1" x1="326" y1="657" x2="326" y2="20"/>
<line opacity="0.1" stroke="#000000" stroke-width="1" x1="337" y1="657" x2="337" y2="20"/>
<line opacity="0.1" stroke="#000000" stroke-width="1" x1="348" y1="657" x2="348" y2="20"/>
<line opacity="0.1" stroke="#000000" stroke-width="1" x1="359" y1="657" x2="359" y2="20"/>
<line opacity="0.1" stroke="#000000" stroke-width="1" x1="370" y1="657" x2="370" y2="20"/>
<line opacity="0.1" stroke="#000000" stroke-width="1" x1="380" y1="657" x2="380" y2="20"/>
<line opacity="0.1" stroke="#000000" stroke-width="1" x1="391" y1="657" x2="391" y2="20"/>
<line opacity="0.1" stroke="#000000" stroke-width="1" x1="402" y1="657" x2="402" y2="20"/>
<line opacity="0.1" stroke="#000000" stroke-width="1" x1="413" y1="657" x2="413" y2="20"/>
<line opacity="0.1" stroke="#000000" stroke-width="1" x1="424" y1="657" x2="424" y2="20"/>
<line opacity="0.1" stroke="#000000" stroke-width="1" x1="435" y1="657" x2="435" y2="20"/>
<line opacity="0.1" stroke="#000000" stroke-width="1" x1="446" y1="657" x2="446" y2="20"/>
<line opacity="0.1" stroke="#000000" stroke-width="1" x1="457" y1="657" x2="457" y2="20"/>
<line opacity="0.1" stroke="#000000" stroke-width="1" x1="468" y1="657" x2="468" y2="20"/>
<line opacity="0.1" stroke="#000000" stroke-width="1" x1="479" y1="657" x2="479" y2="20"/>
<line opacity="0.1" stroke="#000000" stroke-width="1" x1="490" y1="657" x2="490" y2="20"/>
<line opacity="0.1" stroke="#000000" stroke-width="1" x1="501" y1="657" x2="501" y2="20"/>
<line opacity="0.1" stroke="#000000" stroke-width="1" x1="511" y1="657" x2="511" y2="20"/>
<line opacity="0.1" stroke="#000000" stroke-width="1" x1="522" y1="657" x2="522" y2="20"/>
<line opacity="0.1" stroke="#000000" stroke-width="1" x1="533" y1="657" x2="533" y2="20"/>
<line opacity="0.1" stroke="#000000" stroke-width="1" x1="544" y1="657" x2="544" y2="20"/>
<line opacity="0.1" stroke="#000000" stroke-width="1" x1="555" y1="657" x2="555" y2="20"/>
<line opacity="0.1" stroke="#000000" stroke-width="1" x1="566" y1="657" x2="566" y2="20"/>
<line opacity="0.1" stroke="#000000" stroke-width="1" x1="577" y1="657" x2="577" y2="20"/>
<line opacity="0.1" stroke="#000000" stroke-width="1" x1="588" y1="657" x2="588" y2="20"/>
<line opacity="0.1" stroke="#000000" stroke-width="1" x1="599" y1="657" x2="599" y2="20"/>
<line opacity="0.1" stroke="#000000" stroke-width="1" x1="610" y1="657" x2="610" y2="20"/>
<line opacity="0.1" stroke="#000000" stroke-width="1" x1="621" y1="657" x2="621" y2="20"/>
<line opacity="0.1" stroke="#000000" stroke-width="1" x1="631" y1="657" x2="631" y2="20"/>
<line opacity="0.1" stroke="#000000" stroke-width="1" x1="642" y1="657" x2="642" y2="20"/>
<line opacity="0.1" stroke="#000000" stroke-width="1" x1="653" y1="657" x2="653" y2="20"/>
<line opacity="0.1" stroke="#000000" stroke-width="1" x1="664" y1="657" x2="664" y2="20"/>
<line opacity="0.1" stroke="#000000" stroke-width="1" x1="675" y1="657" x2="675" y2="20"/>
<line opacity="0.1" stroke="#000000" stroke-width="1" x1="686" y1="657" x2="686" y2="20"/>
<line opacity="0.1" stroke="#000000" stroke-width="1" x1="697" y1="657" x2="697" y2="20"/>
<line opacity="0.1" stroke="#000000" stroke-width="1" x1="708" y1="657" x2="708" y2="20"/>
<line opacity="0.1" stroke="#000000" stroke-width="1" x1="719" y1="657" x2="719" y2="20"/>
<line opacity="0.1" stroke="#000000" stroke-width="1" x1="730" y1="657" x2="730" y2="20"/>
<line opacity="0.1" stroke="#000000" stroke-width="1" x1="741" y1="657" x2="741" y2="20"/>
<line opacity="0.1" stroke="#000000" stroke-width="1" x1="752" y1="657" x2="752" y2="20"/>
<line opacity="0.1" stroke="#000000" stroke-width="1" x1="762" y1="657" x2="762" y2="20"/>
<line opacity="0.1" stroke="#000000" stroke-width="1" x1="773" y1="657" x2="773" y2="20"/>
<line opacity="0.1" stroke="#000000" stroke-width="1" x1="784" y1="657" x2="784" y2="20"/>
<line opacity="0.1" stroke="#000000" stroke-width="1" x1="795" y1="657" x2="795" y2="20"/>
<line opacity="0.1" stroke="#000000" stroke-width="1" x1="806" y1="657" x2="806" y2="20"/>
<line opacity="0.1" stroke="#000000" stroke-width="1" x1="817" y1="657" x2="817" y2="20"/>
<line opacity="0.1" stroke="#000000" stroke-width="1" x1="828" y1="657" x2="828" y2="20"/>
<line opacity="0.1" stroke="#000000" stroke-width="1" x1="839" y1="657" x2="839" y2="20"/>
<line opacity="0.1" stroke="#000000" stroke-width="1" x1="850" y1="657" x2="850" y2="20"/>
<line opacity="0.1" stroke="#000000" stroke-width="1" x1="861" y1="657" x2="861" y2="20"/>
<line opacity="0.1" stroke="#000000" stroke-width="1" x1="872" y1="657" x2="872" y2="20"/>
<line opacity="0.1" stroke="#000000" stroke-width="1" x1="882" y1="657" x2="882" y2="20"/>
<line opacity="0.1" stroke="#000000" stroke-width="1" x1="893" y1="657" x2="893" y2="20"/>
<line opacity="0.1" stroke="#000000" stroke-width="1" x1="904" y1="657" x2="904" y2="20"/>
<line opacity="0.1" stroke="#000000" stroke-width="1" x1="915" y1="657" x2="915" y2="20"/>
<line opacity="0.1" stroke="#000000" stroke-width="1" x1="926" y1="657" x2="926" y2="20"/>
<line opacity="0.1" stroke="#000000" stroke-width="1" x1="937" y1="657" x2="937" y2="20"/>
<line opacity="0.1" stroke="#000000" stroke-width="1" x1="948" y1="657" x2="948" y2="20"/>
<line opacity="0.1" stroke="#000000" stroke-width="1" x1="959" y1="657" x2="959" y2="20"/>
<line opacity="0.1" stroke="#000000" stroke-width="1" x1="970" y1="657" x2="970" y2="20"/>
<line opacity="0.1" stroke="#000000" stroke-width="1" x1="981" y1="657" x2="981" y2="20"/>
<line opacity="0.1" stroke="#000000" stroke-width="1" x1="992" y1="657" x2="992" y2="20"/>
<line opacity="0.1" stroke="#000000" stroke-width="1" x1="1003" y1="657" x2="1003" y2="20"/>
<line opacity="0.1" stroke="#000000" stroke-width="1" x1="130" y1="657" x2="1003" y2="657"/>
<line opacity="0.1" stroke="#000000" stroke-width="1" x1="130" y1="650" x2="1003" y2="650"/>
<line opacity="0.1" stroke="#000000" stroke-width="1" x1="130" y1="642" x2="1003" y2="642"/>
<line opacity="0.1" stroke="#000000" stroke-width="1" x1="130" y1="634" x2="1003" y2="634"/>
<line opacity="0.1" stroke="#000000" stroke-width="1" x1="130" y1="626" x2="1003" y2="626"/>
<line opacity="0.1" stroke="#000000" stroke-width="1" x1="130" y1="618" x2="1003" y2="618"/>
<line opacity="0.1" stroke="#000000" stroke-width="1" x1="130" y1="610" x2="1003" y2="610"/>
<line opacity="0.1" stroke="#000000" stroke-width="1" x1="130" y1="602" x2="1003" y2="602"/>
<line opacity="0.1" stroke="#000000" stroke-width="1" x1="130" y1="594" x2="1003" y2="594"/>
<line opacity="0.1" stroke="#000000" stroke-width="1" x1="130" y1="586" x2="1003" y2="586"/>
<line opacity="0.1" stroke="#000000" stroke-width="1" x1="130" y1="578" x2="1003" y2="578"/>
<line opacity="0.1" stroke="#000000" stroke-width="1" x1="130" y1="570" x2="1003" y2="570"/>
<line opacity="0.1" stroke="#000000" stroke-width="1" x1="130" y1="562" x2="1003" y2="562"/>
<line opacity="0.1" stroke="#000000" stroke-width="1" x1="130" y1="554" x2="1003" y2="554"/>
<line opacity="0.1" stroke="#000000" stroke-width="1" x1="130" y1="546" x2="1003" y2="546"/>
<line opacity="0.1" stroke="#000000" stroke-width="1" x1="130" y1="538" x2="1003" y2="538"/>
<line opacity="0.1" stroke="#000000" stroke-width="1" x1="130" y1="530" x2="1003" y2="530"/>
<line opacity="0.1" stroke="#000000" stroke-width="1" x1="130" y1="522" x2="1003" y2="522"/>
<line opacity="0.1" stroke="#000000" stroke-width="1" x1="130" y1="514" x2="1003" y2="514"/>
<line opacity="0.1" stroke="#000000" stroke-width="1" x1="130" y1="506" x2="1003" y2="506"/>
<line opacity="0.1" stroke="#000000" stroke-width="1" x1="130" y1="498" x2="1003" y2="498"/>
<line opacity="0.1" stroke="#000000" stroke-width="1" x1="130" y1="490" x2="1003" y2="490"/>
<line opacity="0.1" stroke="#000000" stroke-width="1" x1="130" y1="482" x2="1003" y2="482"/>
<line opacity="0.1" stroke="#000000" stroke-width="1" x1="130" y1="474" x2="1003" y2="474"/>
<line opacity="0.1" stroke="#000000" stroke-width="1" x1="130" y1="466" x2="1003" y2="466"/>
<line opacity="0.1" stroke="#000000" stroke-width="1" x1="130" y1="458" x2="1003" y2="458"/>
<line opacity="0.1" stroke="#000000" stroke-width="1" x1="130" y1="450" x2="1003" y2="450"/>
<line opacity="0.1" stroke="#000000" stroke-width="1" x1="130" y1="443" x2="1003" y2="443"/>
<line opacity="0.1" stroke="#000000" stroke-width="1" x1="130" y1="435" x2="1003" y2="435"/>
<line opacity="0.1" stroke="#000000" stroke-width="1" x1="130" y1="427" x2="1003" y2="427"/>
<line opacity="0.1" stroke="#000000" stroke-width="1" x1="130" y1="419" x2="1003" y2="419"/>
<line opacity="0.1" stroke="#000000" stroke-width="1" x1="130" y1="411" x2="1003" y2="411"/>
<line opacity="0.1" stroke="#000000" stroke-width="1" x1="130" y1="403" x2="1003" y2="403"/>
<line opacity="0.1" stroke="#000000" stroke-width="1" x1="130" y1="395" x2="1003" y2="395"/>
<line opacity="0.1" stroke="#000000" stroke-width="1" x1="130" y1="387" x2="1003" y2="387"/>
<line opacity="0.1" stroke="#000000" stroke-width="1" x1="130" y1="379" x2="1003" y2="379"/>
<line opacity="0.1" stroke="#000000" stroke-width="1" x1="130" y1="371" x2="1003" y2="371"/>
<line opacity="0.1" stroke="#000000" stroke-width="1" x1="130" y1="363" x2="1003" y2="363"/>
<line opacity="0.1" stroke="#000000" stroke-width="1" x1="130" y1="355" x2="1003" y2="355"/>
<line opacity="0.1" stroke="#000000" stroke-width="1" x1="130" y1="347" x2="1003" y2="347"/>
<line opacity="0.1" stroke="#000000" stroke-width="1" x1="130" y1="339" x2="1003" y2="339"/>
<line opacity="0.1" stroke="#000000" stroke-width="1" x1="130" y1="331" x2="1003" y2="331"/>
<line opacity="0.1" stroke="#000000" stroke-width="1" x1="130" y1="323" x2="1003" y2="323"/>
<line opacity="0.1" stroke="#000000" stroke-width="1" x1="130" y1="315" x2="1003" y2="315"/>
<line opacity="0.1" stroke="#000000" stroke-width="1" x1="130" y1="307" x2="1003" y2="307"/>
<line opacity="0.1" stroke="#000000" stroke-width="1" x1="130" y1="299" x2="1003" y2="299"/>
<line opacity="0.1" stroke="#000000" stroke-width="1" x1="130" y1="291" x2="1003" y2="291"/>
<line opacity="0.1" stroke="#000000" stroke-width="1" x1="130" y1="283" x2="1003" y2="283"/>
<line opacity="0.1" stroke="#000000" stroke-width="1" x1="130" y1="275" x2="1003" y2="275"/>
<line opacity="0.1" stroke="#000000" stroke-width="1" x1="130" y1="267" x2="1003" y2="267"/>
<line opacity="0.1" stroke="#000000" stroke-width="1" x1="130" y1="259" x2="1003" y2="259"/>
<line opacity="0.1" stroke="#000000" stroke-width="1" x1="130" y1="251" x2="1003" y2="251"/>
<line opacity="0.1" stroke="#000000" stroke-width="1" x1="130" y1="243" x2="1003" y2="243"/>
<line opacity="0.1" stroke="#000000" stroke-width="1" x1="130" y1="235" x2="1003" y2="235"/>
<line opacity="0.1" stroke="#000000" stroke-width="1" x1="130" y1="228" x2="1003" y2="228"/>
<line opacity="0.1" stroke="#000000" stroke-width="1" x1="130" y1="220" x2="1003" y2="220"/>
<line opacity="0.1" stroke="#000000" stroke-width="1" x1="130" y1="212" x2="1003" y2="212"/>
<line opacity="0.1" stroke="#000000" stroke-width="1" x1="130" y1="204" x2="1003" y2="204"/>
<line opacity="0.1" stroke="#000000" stroke-width="1" x1="130" y1="196" x2="1003" y2="196"/>
<line opacity="0.1" stroke="#000000" stroke-width="1" x1="130" y1="188" x2="1003" y2="188"/>
<line opacity="0.1" stroke="#000000" stroke-width="1" x1="130" y1="180" x2="1003" y2="180"/>
<line opacity="0.1" stroke="#000000" stroke-width="1" x1="130" y1="172" x2="1003" y2="172"/>
<line opacity="0.1" stroke="#000000" stroke-width="1" x1="130" y1="164" x2="1003" y2="164"/>
<line opacity="0.1" stroke="#000000" stroke-width="1" x1="130" y1="156" x2="1003" y2="156"/>
<line opacity="0.1" stroke="#000000" stroke-width="1" x1="130" y1="148" x2="1003" y2="148"/>
<line opacity="0.1" stroke="#000000" stroke-width="1" x1="130" y1="140" x2="1003" y2="140"/>
<line opacity="0.1" stroke="#000000" stroke-width="1" x1="130" y1="132" x2="1003" y2="132"/>
<line opacity="0.1" stroke="#000000" stroke-width="1" x1="130" y1="124" x2="1003" y2="124"/>
<line opacity="0.1" stroke="#000000" stroke-width="1" x1="130" y1="116" x2="1003" y2="116"/>
<line opacity="0.1" stroke="#000000" stroke-width="1" x1="130" y1="108" x2="1003" y2="108"/>
<line opacity="0.1" stroke="#000000" stroke-width="1" x1="130" y1="100" x2="1003" y2="100"/>
<line opacity="0.1" stroke="#000000" stroke-width="1" x1="130" y1="92" x2="1003" y2="92"/>
<line opacity="0.1" stroke="#000000" stroke-width="1" x1="130" y1="84" x2="1003" y2="84"/>
<line opacity="0.1" stroke="#000000" stroke-width="1" x1="130" y1="76" x2="1003" y2="76"/>
<line opacity="0.1" stroke="#000000" stroke-width="1" x1="130" y1="68" x2="1003" y2="68"/>
<line opacity="0.1" stroke="#000000" stroke-width="1" x1="130" y1="60" x2="1003" y2="60"/>
<line opacity="0.1" stroke="#000000" stroke-width="1" x1="130" y1="52" x2="1003" y2="52"/>
<line opacity="0.1" stroke="#000000" stroke-width="1" x1="130" y1="44" x2="1003" y2="44"/>
<line opacity="0.1" stroke="#000000" stroke-width="1" x1="130" y1="36" x2="1003" y2="36"/>
<line opacity="0.1" stroke="#000000" stroke-width="1" x1="130" y1="28" x2="1003" y2="28"/>
<line opacity="0.1" stroke="#000000" stroke-width="1" x1="130" y1="20" x2="1003" y2="20"/>
<text x="20" y="339" dy="0.76em" text-anchor="middle" font-family="sans-serif" font-size="24.193548387096776" opacity="1" fill="#000000" transform="rotate(270, 20, 339)">
Power [dB]
</text>
<text x="567" y="748" dy="-0.5ex" text-anchor="middle" font-family="sans-serif" font-size="24.193548387096776" opacity="1" fill="#000000">
Frequency [Hz]
</text>
<line opacity="0.2" stroke="#000000" stroke-width="1" x1="130" y1="657" x2="130" y2="20"/>
<line opacity="0.2" stroke="#000000" stroke-width="1" x1="239" y1="657" x2="239" y2="20"/>
<line opacity="0.2" stroke="#000000" stroke-width="1" x1="348" y1="657" x2="348" y2="20"/>
<line opacity="0.2" stroke="#000000" stroke-width="1" x1="457" y1="657" x2="457" y2="20"/>
<line opacity="0.2" stroke="#000000" stroke-width="1" x1="566" y1="657" x2="566" y2="20"/>
<line opacity="0.2" stroke="#000000" stroke-width="1" x1="675" y1="657" x2="675" y2="20"/>
<line opacity="0.2" stroke="#000000" stroke-width="1" x1="784" y1="657" x2="784" y2="20"/>
<line opacity="0.2" stroke="#000000" stroke-width="1" x1="893" y1="657" x2="893" y2="20"/>
<line opacity="0.2" stroke="#000000" stroke-width="1" x1="1003" y1="657" x2="1003" y2="20"/>
<line opacity="0.2" stroke="#000000" stroke-width="1" x1="130" y1="657" x2="1003" y2="657"/>
<line opacity="0.2" stroke="#000000" stroke-width="1" x1="130" y1="578" x2="1003" y2="578"/>
<line opacity="0.2" stroke="#000000" stroke-width="1" x1="130" y1="498" x2="1003" y2="498"/>
<line opacity="0.2" stroke="#000000" stroke-width="1" x1="130" y1="419" x2="1003" y2="419"/>
<line opacity="0.2" stroke="#000000" stroke-width="1" x1="130" y1="339" x2="1003" y2="339"/>
<line opacity="0.2" stroke="#000000" stroke-width="1" x1="130" y1="259" x2="1003" y2="259"/>
<line opacity="0.2" stroke="#000000" stroke-width="1" x1="130" y1="180" x2="1003" y2="180"/>
<line opacity="0.2" stroke="#000000" stroke-width="1" x1="130" y1="100" x2="1003" y2="100"/>
<line opacity="0.2" stroke="#000000" stroke-width="1" x1="130" y1="20" x2="1003" y2="20"/>
<polyline fill="none" opacity="1" stroke="#000000" stroke-width="1" points="129,20 129,657 "/>
<text x="120" y="657" dy="0.5ex" text-anchor="end" font-family="sans-serif" font-size="24.193548387096776" opacity="1" fill="#000000">
-60.0
</text>
<polyline fill="none" opacity="1" stroke="#000000" stroke-width="1" points="124,657 129,657 "/>
<text x="120" y="578" dy="0.5ex" text-anchor="end" font-family="sans-serif" font-size="24.193548387096776" opacity="1" fill="#000000">
-50.0
</text>
<polyline fill="none" opacity="1" stroke="#000000" stroke-width="1" points="124,578 129,578 "/>
<text x="120" y="498" dy="0.5ex" text-anchor="end" font-family="sans-serif" font-size="24.193548387096776" opacity="1" fill="#000000">
-40.0
</text>
<polyline fill="none" opacity="1" stroke="#000000" stroke-width="1" points="124,498 129,498 "/>
<text x="120" y="419" dy="0.5ex" text-anchor="end" font-family="sans-serif" font-size="24.193548387096776" opacity="1" fill="#000000">
-30.0
</text>
<polyline fill="none" opacity="1" stroke="#000000" stroke-width="1" points="124,419 129,419 "/>
<text x="120" y="339" dy="0.5ex" text-anchor="end" font-family="sans-serif" font-size="24.193548387096776" opacity="1" fill="#000000">
-20.0
</text>
<polyline fill="none" opacity="1" stroke="#000000" stroke-width="1" points="124,339 129,339 "/>
<text x="120" y="259" dy="0.5ex" text-anchor="end" font-family="sans-serif" font-size="24.193548387096776" opacity="1" fill="#000000">
-10.0
</text>
<polyline fill="none" opacity="1" stroke="#000000" stroke-width="1" points="124,259 129,259 "/>
<text x="120" y="180" dy="0.5ex" text-anchor="end" font-family="sans-serif" font-size="24.193548387096776" opacity="1" fill="#000000">
0.0
</text>
<polyline fill="none" opacity="1" stroke="#000000" stroke-width="1" points="124,180 129,180 "/>
<text x="120" y="100" dy="0.5ex" text-anchor="end" font-family="sans-serif" font-size="24.193548387096776" opacity="1" fill="#000000">
10.0
</text>
<polyline fill="none" opacity="1" stroke="#000000" stroke-width="1" points="124,100 129,100 "/>
<text x="120" y="20" dy="0.5ex" text-anchor="end" font-family="sans-serif" font-size="24.193548387096776" opacity="1" fill="#000000">
20.0
</text>
<polyline fill="none" opacity="1" stroke="#000000" stroke-width="1" points="124,20 129,20 "/>
<polyline fill="none" opacity="1" stroke="#000000" stroke-width="1" points="130,658 1003,658 "/>
<text x="130" y="668" dy="0.76em" text-anchor="middle" font-family="sans-serif" font-size="24.193548387096776" opacity="1" fill="#000000">
0.0
</text>
<polyline fill="none" opacity="1" stroke="#000000" stroke-width="1" points="130,658 130,663 "/>
<text x="239" y="668" dy="0.76em" text-anchor="middle" font-family="sans-serif" font-size="24.193548387096776" opacity="1" fill="#000000">
1000.0
</text>
<polyline fill="none" opacity="1" stroke="#000000" stroke-width="1" points="239,658 239,663 "/>
<text x="348" y="668" dy="0.76em" text-anchor="middle" font-family="sans-serif" font-size="24.193548387096776" opacity="1" fill="#000000">
2000.0
</text>
<polyline fill="none" opacity="1" stroke="#000000" stroke-width="1" points="348,658 348,663 "/>
<text x="457" y="668" dy="0.76em" text-anchor="middle" font-family="sans-serif" font-size="24.193548387096776" opacity="1" fill="#000000">
3000.0
</text>
<polyline fill="none" opacity="1" stroke="#000000" stroke-width="1" points="457,658 457,663 "/>
<text x="566" y="668" dy="0.76em" text-anchor="middle" font-family="sans-serif" font-size="24.193548387096776" opacity="1" fill="#000000">
4000.0
</text>
<polyline fill="none" opacity="1" stroke="#000000" stroke-width="1" points="566,658 566,663 "/>
<text x="675" y="668" dy="0.76em" text-anchor="middle" font-family="sans-serif" font-size="24.193548387096776" opacity="1" fill="#000000">
5000.0
</text>
<polyline fill="none" opacity="1" stroke="#000000" stroke-width="1" points="675,658 675,663 "/>
<text x="784" y="668" dy="0.76em" text-anchor="middle" font-family="sans-serif" font-size="24.193548387096776" opacity="1" fill="#000000">
6000.0
</text>
<polyline fill="none" opacity="1" stroke="#000000" stroke-width="1" points="784,658 784,663 "/>
<text x="893" y="668" dy="0.76em" text-anchor="middle" font-family="sans-serif" font-size="24.193548387096776" opacity="1" fill="#000000">
7000.0
</text>
<polyline fill="none" opacity="1" stroke="#000000" stroke-width="1" points="893,658 893,663 "/>
<text x="1003" y="668" dy="0.76em" text-anchor="middle" font-family="sans-serif" font-size="24.193548387096776" opacity="1" fill="#000000">
8000.0
</text>
<polyline fill="none" opacity="1" stroke="#000000" stroke-width="1" points="1003,658 1003,663 "/>
<polyline fill="none" opacity="1" stroke="#E6194B" stroke-width="1" points="130,289 131,259 133,240 134,356 136,224 137,216 139,225 140,223 142,201 143,213 145,222 146,224 148,202 149,151 151,102 152,84 154,87 155,105 157,144 158,187 160,196 161,198 163,244 164,231 166,222 167,209 169,174 170,238 172,146 173,135 175,148 176,148 178,160 180,163 181,145 183,145 184,159 186,205 187,229 189,196 190,215 192,240 193,218 195,195 196,206 198,204 199,205 201,206 202,192 204,174 205,169 207,171 208,170 210,168 211,203 213,231 214,234 216,243 217,270 219,219 220,227 222,260 223,246 225,241 227,234 228,220 230,206 231,211 233,231 234,218 236,222 237,252 239,279 240,256 242,279 243,254 245,226 246,241 248,227 249,212 251,207 252,215 254,203 255,192 257,199 258,196 260,199 261,197 263,205 264,220 266,222 267,234 269,255 270,240 272,234 273,250 275,259 277,241 278,283 280,236 281,220 283,212 284,218 286,204 287,216 289,202 290,216 292,207 293,237 295,277 296,199 298,227 299,194 301,191 302,244 304,219 305,203 307,192 308,195 310,202 311,216 313,206 314,207 316,186 317,175 319,190 320,182 322,211 324,255 325,230 327,293 328,257 330,192 331,167 333,159 334,147 336,136 337,122 339,133 340,138 342,144 343,171 345,161 346,181 348,208 349,182 351,148 352,129 354,125 355,134 357,148 358,185 360,149 361,139 363,161 364,172 366,144 367,149 369,154 370,142 372,151 374,131 375,141 377,133 378,137 380,153 381,142 383,137 384,148 386,144 387,140 389,161 390,158 392,168 393,204 395,174 396,183 398,186 399,177 401,209 402,238 404,204 405,184 407,194 408,243 410,188 411,175 413,195 414,226 416,197 417,202 419,227 421,195 422,204 424,217 425,205 427,238 428,276 430,233 431,213 433,225 434,250 436,223 437,215 439,216 440,228 442,227 443,249 445,245 446,225 448,220 449,213 451,225 452,273 454,246 455,225 457,243 458,241 460,214 461,216 463,236 464,223 466,228 467,256 469,336 471,312 472,263 474,244 475,278 477,258 478,274 480,254 481,225 483,236 484,268 486,237 487,228 489,240 490,229 492,217 493,223 495,246 496,213 498,211 499,233 501,244 502,212 504,220 505,271 507,288 508,243 510,224 511,229 513,237 514,216 516,206 518,206 519,234 521,219 522,208 524,210 525,215 527,229 528,220 530,234 531,241 533,220 534,203 536,218 537,275 539,252 540,215 542,204 543,219 545,250 546,233 548,249 549,225 551,238 552,291 554,279 555,283 557,238 558,226 560,238 561,290 563,296 564,288 566,249 568,246 569,270 571,310 572,292 574,277 575,265 577,275 578,290 580,321 581,279 583,268 584,304 586,284 587,294 589,332 590,380 592,397 593,365 595,370 596,385 598,331 599,295 601,302 602,351 604,420 605,374 607,360 608,349 610,309 611,307 613,317 615,281 616,305 618,307 619,293 621,340 622,306 624,311 625,295 627,310 628,318 630,341 631,365 633,367 634,364 636,379 637,420 639,431 640,410 642,390 643,382 645,357 646,326 648,317 649,349 651,391 652,389 654,402 655,412 657,422 658,422 660,361 661,316 663,308 665,326 666,369 668,383 669,390 671,406 672,452 674,415 675,399 677,403 678,418 680,403 681,393 683,404 684,441 686,454 687,455 689,488 690,506 692,524 693,542 695,556 696,563 698,561 699,590 701,546 702,548 704,530 705,488 707,478 708,428 710,425 712,391 713,353 715,343 716,354 718,402 719,442 721,421 722,449 724,375 725,335 727,332 728,366 730,397 731,420 733,422 734,437 736,438 737,440 739,474 740,411 742,399 743,339 745,349 746,417 748,406 749,372 751,339 752,353 754,435 755,404 757,400 758,401 760,409 762,433 763,488 765,449 766,437 768,448 769,455 771,437 772,433 774,450 775,469 777,485 778,524 780,541 781,549 783,568 784,583 786,575 787,569 789,589 790,592 792,593 793,611 795,592 796,573 798,618 799,580 801,547 802,556 804,517 805,477 807,467 809,443 810,416 812,400 813,395 815,392 816,343 818,350 819,399 821,427 822,453 824,473 825,446 827,409 828,380 830,380 831,385 833,404 834,409 836,374 837,352 839,357 840,385 842,406 843,387 845,383 846,390 848,391 849,474 851,473 852,429 854,370 855,351 857,364 859,415 860,466 862,420 863,403 865,388 866,369 868,362 869,379 871,461 872,463 874,465 875,447 877,438 878,440 880,452 881,395 883,362 884,358 886,369 887,430 889,457 890,513 892,445 893,397 895,394 896,405 898,421 899,451 901,451 902,424 904,428 906,440 907,464 909,476 910,442 912,406 913,359 915,351 916,372 918,411 919,371 921,360 922,403 924,402 925,401 927,393 928,405 930,423 931,427 933,398 934,365 936,398 937,432 939,495 940,476 942,515 943,489 945,498 946,459 948,475 949,459 951,460 952,458 954,461 956,472 957,472 959,465 960,440 962,450 963,461 965,436 966,396 968,371 969,381 971,382 972,361 974,358 975,363 977,390 978,410 980,443 981,474 983,451 984,412 986,402 987,407 989,431 990,405 992,410 993,434 995,420 996,408 998,386 999,384 1001,430 1003,466 1004,430 1004,384 1004,386 1004,408 1004,420 1004,434 1004,410 1004,405 1004,431 1004,407 1004,402 1004,412 1004,451 1004,474 1004,443 1004,410 1004,390 1004,363 1004,358 1004,361 1004,382 1004,381 1004,371 1004,396 1004,436 1004,461 1004,450 1004,440 1004,465 1004,472 1004,472 1004,461 1004,458 1004,460 1004,459 1004,475 1004,459 1004,498 1004,489 1004,515 1004,476 1004,495 1004,432 1004,398 1004,365 1004,398 1004,427 1004,423 1004,405 1004,393 1004,401 1004,402 1004,403 1004,360 1004,371 1004,411 1004,372 1004,351 1004,359 1004,406 1004,442 1004,476 1004,464 1004,440 1004,428 1004,424 1004,451 1004,451 1004,421 1004,405 1004,394 1004,397 1004,445 1004,513 1004,457 1004,430 1004,369 1004,358 1004,362 1004,395 1004,452 1004,440 1004,438 1004,447 1004,465 1004,463 1004,461 1004,379 1004,362 1004,369 1004,388 1004,403 1004,420 1004,466 1004,415 1004,364 1004,351 1004,370 1004,429 1004,473 1004,474 1004,391 1004,390 1004,383 1004,387 1004,406 1004,385 1004,357 1004,352 1004,374 1004,409 1004,404 1004,385 1004,380 1004,380 1004,409 1004,446 1004,473 1004,453 1004,427 1004,399 1004,350 1004,343 1004,392 1004,395 1004,400 1004,416 1004,443 1004,467 1004,477 1004,517 1004,556 1004,547 1004,580 1004,618 1004,573 1004,592 1004,611 1004,593 1004,592 1004,589 1004,569 1004,575 1004,583 1004,568 1004,549 1004,541 1004,524 1004,485 1004,469 1004,450 1004,433 1004,437 1004,455 1004,448 1004,437 1004,449 1004,488 1004,433 1004,409 1004,401 1004,400 1004,404 1004,435 1004,353 1004,339 1004,372 1004,406 1004,417 1004,349 1004,339 1004,399 1004,411 1004,474 1004,440 1004,438 1004,437 1004,422 1004,420 1004,397 1004,366 1004,332 1004,335 1004,375 1004,449 1004,421 1004,442 1004,402 1004,354 1004,343 1004,353 1004,391 1004,425 1004,428 1004,478 1004,488 1004,530 1004,548 1004,546 1004,590 1004,561 1004,563 1004,556 1004,542 1004,524 1004,506 1004,488 1004,455 1004,454 1004,441 1004,404 1004,393 1004,403 1004,418 1004,403 1004,399 1004,415 1004,452 1004,406 1004,390 1004,383 1004,369 1004,326 1004,308 1004,316 1004,361 1004,422 1004,422 1004,412 1004,402 1004,389 1004,391 1004,349 1004,317 1004,326 1004,357 1004,382 1004,390 1004,410 1004,431 1004,420 1004,379 1004,364 1004,367 1004,365 1004,341 1004,318 1004,310 1004,295 1004,311 1004,306 1004,340 1004,293 1004,307 1004,305 1004,281 1004,317 1004,307 1004,309 1004,349 1004,360 1004,374 1004,420 1004,351 1004,302 1004,295 1004,331 1004,385 1004,370 1004,365 1004,397 1004,380 1004,332 1004,294 1004,284 1004,304 1004,268 1004,279 1004,321 1004,290 1004,275 1004,265 1004,277 1004,292 1004,310 1004,270 1004,246 1004,249 1004,288 1004,296 1004,290 1004,238 1004,226 1004,238 1004,283 1004,279 1004,291 1004,238 1004,225 1004,249 1004,233 1004,250 1004,219 1004,204 1004,215 1004,252 1004,275 1004,218 1004,203 1004,220 1004,241 1004,234 1004,220 1004,229 1004,215 1004,210 1004,208 1004,219 1004,234 1004,206 1004,206 1004,216 1004,237 1004,229 1004,224 1004,243 1004,288 1004,271 1004,220 1004,212 1004,244 1004,233 1004,211 1004,213 1004,246 1004,223 1004,217 1004,229 1004,240 1004,228 1004,237 1004,268 1004,236 1004,225 1004,254 1004,274 1004,258 1004,278 1004,244 1004,263 1004,312 1004,336 1004,256 1004,228 1004,223 1004,236 1004,216 1004,214 1004,241 1004,243 1004,225 1004,246 1004,273 1004,225 1004,213 1004,220 1004,225 1004,245 1004,249 1004,227 1004,228 1004,216 1004,215 1004,223 1004,250 1004,225 1004,213 1004,233 1004,276 1004,238 1004,205 1004,217 1004,204 1004,195 1004,227 1004,202 1004,197 1004,226 1004,195 1004,175 1004,188 1004,243 1004,194 1004,184 1004,204 1004,238 1004,209 1004,177 1004,186 1004,183 1004,174 1004,204 1004,168 1004,158 1004,161 1004,140 1004,144 1004,148 1004,137 1004,142 1004,153 1004,137 1004,133 1004,141 1004,131 1004,151 1004,142 1004,154 1004,149 1004,144 1004,172 1004,161 1004,139 1004,149 1004,185 1004,148 1004,134 1004,125 1004,129 1004,148 1004,182 1004,208 1004,181 1004,161 1004,171 1004,144 1004,138 1004,133 1004,122 1004,136 1004,147 1004,159 1004,167 1004,192 1004,257 1004,293 1004,230 1004,255 1004,211 1004,182 1004,190 1004,175 1004,186 1004,207 1004,206 1004,216 1004,202 1004,195 1004,192 1004,203 1004,219 1004,244 1004,191 1004,194 1004,227 1004,199 1004,277 1004,237 1004,207 1004,216 1004,202 1004,216 1004,204 1004,218 1004,212 1004,220 1004,236 1004,283 1004,241 1004,259 1004,250 1004,234 1004,240 1004,255 1004,234 1004,222 1004,220 1004,205 1004,197 1004,199 1004,196 1004,199 1004,192 1004,203 1004,215 1004,207 1004,212 1004,227 1004,241 1004,226 1004,254 1004,279 1004,256 1004,279 1004,252 1004,222 1004,218 1004,231 1004,211 1004,206 1004,220 1004,234 1004,241 1004,246 1004,260 1004,227 1004,219 1004,270 1004,243 1004,234 1004,231 1004,203 1004,168 1004,170 1004,171 1004,169 1004,174 1004,192 1004,206 1004,205 1004,204 1004,206 1004,195 1004,218 1004,240 1004,215 1004,196 1004,229 1004,205 1004,159 1004,145 1004,145 1004,163 1004,160 1004,148 1004,148 1004,135 1004,146 1004,238 1004,174 1004,209 1004,222 1004,231 1004,244 1004,198 1004,196 1004,187 1004,144 1004,105 1004,87 1004,84 1004,102 1004,151 1004,202 1004,224 1004,222 1004,213 1004,201 1004,223 1004,225 1004,216 1004,224 1004,356 1004,240 1004,259 "/>
<polyline fill="none" opacity="1" stroke="#3CB44B" stroke-width="1" points="130,271 131,271 133,271 134,271 136,270 137,269 139,268 140,267 142,265 143,264 145,262 146,260 148,258 149,257 151,255 152,253 154,251 155,249 157,247 158,245 160,244 161,242 163,241 164,240 166,239 167,239 169,238 170,238 172,239 173,239 175,240 176,241 178,242 180,243 181,245 183,246 184,248 186,249 187,251 189,252 190,254 192,256 193,257 195,259 196,260 198,261 199,262 201,264 202,265 204,266 205,266 207,267 208,268 210,269 211,269 213,270 214,270 216,270 217,271 219,271 220,271 222,271 223,272 225,272 227,272 228,272 230,272 231,272 233,272 234,272 236,272 237,272 239,272 240,272 242,272 243,272 245,271 246,271 248,271 249,271 251,271 252,271 254,271 255,271 257,270 258,270 260,270 261,270 263,270 264,270 266,270 267,269 269,269 270,269 272,269 273,269 275,269 277,269 278,269 280,268 281,268 283,268 284,268 286,268 287,268 289,268 290,267 292,267 293,267 295,267 296,266 298,266 299,266 301,265 302,265 304,264 305,264 307,263 308,263 310,262 311,261 313,260 314,260 316,259 317,258 319,257 320,256 322,255 324,254 325,253 327,251 328,250 330,249 331,248 333,247 334,246 336,244 337,243 339,242 340,241 342,240 343,239 345,238 346,237 348,236 349,236 351,235 352,235 354,235 355,234 357,234 358,235 360,235 361,236 363,236 364,237 366,238 367,239 369,240 370,242 372,243 374,245 375,247 377,249 378,250 380,252 381,254 383,256 384,258 386,260 387,262 389,264 390,266 392,268 393,270 395,271 396,273 398,275 399,276 401,277 402,279 404,280 405,281 407,282 408,283 410,284 411,285 413,285 414,286 416,286 417,287 419,287 421,288 422,288 424,288 425,289 427,289 428,289 430,289 431,290 433,290 434,290 436,291 437,291 439,291 440,292 442,292 443,293 445,293 446,294 448,295 449,295 451,296 452,296 454,297 455,297 457,298 458,298 460,299 461,299 463,299 464,299 466,300 467,300 469,300 471,300 472,299 474,299 475,299 477,298 478,298 480,297 481,297 483,296 484,295 486,295 487,294 489,293 490,293 492,292 493,291 495,291 496,290 498,290 499,289 501,289 502,289 504,289 505,288 507,289 508,289 510,289 511,289 513,290 514,290 516,291 518,291 519,292 521,293 522,293 524,294 525,295 527,296 528,297 530,298 531,299 533,300 534,302 536,303 537,304 539,305 540,307 542,308 543,309 545,311 546,312 548,314 549,316 551,317 552,319 554,321 555,322 557,324 558,326 560,328 561,329 563,331 564,333 566,334 568,336 569,337 571,339 572,340 574,342 575,343 577,344 578,345 580,346 581,347 583,348 584,349 586,350 587,350 589,351 590,351 592,351 593,352 595,352 596,352 598,352 599,352 601,352 602,352 604,352 605,352 607,352 608,352 610,352 611,352 613,352 615,352 616,352 618,352 619,353 621,353 622,353 624,354 625,354 627,355 628,355 630,356 631,357 633,357 634,358 636,359 637,359 639,360 640,361 642,362 643,363 645,364 646,365 648,366 649,367 651,368 652,369 654,370 655,372 657,373 658,374 660,376 661,378 663,379 665,381 666,383 668,385 669,387 671,388 672,390 674,392 675,394 677,396 678,398 680,400 681,402 683,403 684,405 686,406 687,408 689,409 690,409 692,410 693,410 695,411 696,410 698,410 699,409 701,408 702,407 704,406 705,404 707,402 708,399 710,397 712,394 713,391 715,387 716,384 718,380 719,377 721,373 722,369 724,366 725,362 727,359 728,356 730,353 731,351 733,349 734,347 736,346 737,345 739,345 740,346 742,347 743,349 745,351 746,353 748,357 749,360 751,364 752,368 754,372 755,377 757,382 758,386 760,391 762,395 763,400 765,404 766,408 768,412 769,416 771,420 772,423 774,425 775,428 777,430 778,432 780,433 781,434 783,435 784,435 786,435 787,435 789,434 790,433 792,432 793,430 795,428 796,425 798,423 799,420 801,417 802,413 804,410 805,406 807,402 809,398 810,394 812,390 813,386 815,382 816,378 818,374 819,370 821,367 822,363 824,360 825,357 827,354 828,352 830,350 831,348 833,346 834,345 836,345 837,344 839,344 840,345 842,345 843,346 845,347 846,348 848,350 849,351 851,353 852,355 854,357 855,359 857,361 859,362 860,364 862,366 863,367 865,369 866,370 868,371 869,372 871,373 872,373 874,374 875,374 877,374 878,374 880,373 881,373 883,372 884,371 886,370 887,369 889,368 890,367 892,366 893,365 895,363 896,362 898,361 899,360 901,359 902,359 904,358 906,358 907,358 909,358 910,358 912,358 913,359 915,359 916,360 918,361 919,362 921,364 922,365 924,366 925,368 927,369 928,371 930,372 931,373 933,375 934,376 936,377 937,378 939,379 940,379 942,380 943,380 945,380 946,380 948,380 949,380 951,380 952,379 954,378 956,378 957,377 959,376 960,375 962,374 963,373 965,372 966,370 968,369 969,368 971,367 972,366 974,365 975,365 977,364 978,363 980,363 981,362 983,362 984,361 986,361 987,361 989,361 990,360 992,360 993,360 995,360 996,360 998,360 999,360 1001,360 1003,360 1004,360 1004,360 1004,360 1004,360 1004,360 1004,360 1004,360 1004,360 1004,361 1004,361 1004,361 1004,361 1004,362 1004,362 1004,363 1004,363 1004,364 1004,365 1004,365 1004,366 1004,367 1004,368 1004,369 1004,370 1004,372 1004,373 1004,374 1004,375 1004,376 1004,377 1004,378 1004,378 1004,379 1004,380 1004,380 1004,380 1004,380 1004,380 1004,380 1004,380 1004,379 1004,379 1004,378 1004,377 1004,376 1004,375 1004,373 1004,372 1004,371 1004,369 1004,368 1004,366 1004,365 1004,364 1004,362 1004,361 1004,360 1004,359 1004,359 1004,358 1004,358 1004,358 1004,358 1004,358 1004,358 1004,359 1004,359 1004,360 1004,361 1004,362 1004,363 1004,365 1004,366 1004,367 1004,368 1004,369 1004,370 1004,371 1004,372 1004,373 1004,373 1004,374 1004,374 1004,374 1004,374 1004,373 1004,373 1004,372 1004,371 1004,370 1004,369 1004,367 1004,366 1004,364 1004,362 1004,361 1004,359 1004,357 1004,355 1004,353 1004,351 1004,350 1004,348 1004,347 1004,346 1004,345 1004,345 1004,344 1004,344 1004,345 1004,345 1004,346 1004,348 1004,350 1004,352 1004,354 1004,357 1004,360 1004,363 1004,367 1004,370 1004,374 1004,378 1004,382 1004,386 1004,390 1004,394 1004,398 1004,402 1004,406 1004,410 1004,413 1004,417 1004,420 1004,423 1004,425 1004,428 1004,430 1004,432 1004,433 1004,434 1004,435 1004,435 1004,435 1004,435 1004,434 1004,433 1004,432 1004,430 1004,428 1004,425 1004,423 1004,420 1004,416 1004,412 1004,408 1004,404 1004,400 1004,395 1004,391 1004,386 1004,382 1004,377 1004,372 1004,368 1004,364 1004,360 1004,357 1004,353 1004,351 1004,349 1004,347 1004,346 1004,345 1004,345 1004,346 1004,347 1004,349 1004,351 1004,353 1004,356 1004,359 1004,362 1004,366 1004,369 1004,373 1004,377 1004,380 1004,384 1004,387 1004,391 1004,394 1004,397 1004,399 1004,402 1004,404 1004,406 1004,407 1004,408 1004,409 1004,410 1004,410 1004,411 1004,410 1004,410 1004,409 1004,409 1004,408 1004,406 1004,405 1004,403 1004,402 1004,400 1004,398 1004,396 1004,394 1004,392 1004,390 1004,388 1004,387 1004,385 1004,383 1004,381 1004,379 1004,378 1004,376 1004,374 1004,373 1004,372 1004,370 1004,369 1004,368 1004,367 1004,366 1004,365 1004,364 1004,363 1004,362 1004,361 1004,360 1004,359 1004,359 1004,358 1004,357 1004,357 1004,356 1004,355 1004,355 1004,354 1004,354 1004,353 1004,353 1004,353 1004,352 1004,352 1004,352 1004,352 1004,352 1004,352 1004,352 1004,352 1004,352 1004,352 1004,352 1004,352 1004,352 1004,352 1004,352 1004,352 1004,352 1004,351 1004,351 1004,351 1004,350 1004,350 1004,349 1004,348 1004,347 1004,346 1004,345 1004,344 1004,343 1004,342 1004,340 1004,339 1004,337 1004,336 1004,334 1004,333 1004,331 1004,329 1004,328 1004,326 1004,324 1004,322 1004,321 1004,319 1004,317 1004,316 1004,314 1004,312 1004,311 1004,309 1004,308 1004,307 1004,305 1004,304 1004,303 1004,302 1004,300 1004,299 1004,298 1004,297 1004,296 1004,295 1004,294 1004,293 1004,293 1004,292 1004,291 1004,291 1004,290 1004,290 1004,289 1004,289 1004,289 1004,289 1004,288 1004,289 1004,289 1004,289 1004,289 1004,290 1004,290 1004,291 1004,291 1004,292 1004,293 1004,293 1004,294 1004,295 1004,295 1004,296 1004,297 1004,297 1004,298 1004,298 1004,299 1004,299 1004,299 1004,300 1004,300 1004,300 1004,300 1004,299 1004,299 1004,299 1004,299 1004,298 1004,298 1004,297 1004,297 1004,296 1004,296 1004,295 1004,295 1004,294 1004,293 1004,293 1004,292 1004,292 1004,291 1004,291 1004,291 1004,290 1004,290 1004,290 1004,289 1004,289 1004,289 1004,289 1004,288 1004,288 1004,288 1004,287 1004,287 1004,286 1004,286 1004,285 1004,285 1004,284 1004,283 1004,282 1004,281 1004,280 1004,279 1004,277 1004,276 1004,275 1004,273 1004,271 1004,270 1004,268 1004,266 1004,264 1004,262 1004,260 1004,258 1004,256 1004,254 1004,252 1004,250 1004,249 1004,247 1004,245 1004,243 1004,242 1004,240 1004,239 1004,238 1004,237 1004,236 1004,236 1004,235 1004,235 1004,234 1004,234 1004,235 1004,235 1004,235 1004,236 1004,236 1004,237 1004,238 1004,239 1004,240 1004,241 1004,242 1004,243 1004,244 1004,246 1004,247 1004,248 1004,249 1004,250 1004,251 1004,253 1004,254 1004,255 1004,256 1004,257 1004,258 1004,259 1004,260 1004,260 1004,261 1004,262 1004,263 1004,263 1004,264 1004,264 1004,265 1004,265 1004,266 1004,266 1004,266 1004,267 1004,267 1004,267 1004,267 1004,268 1004,268 1004,268 1004,268 1004,268 1004,268 1004,268 1004,269 1004,269 1004,269 1004,269 1004,269 1004,269 1004,269 1004,269 1004,270 1004,270 1004,270 1004,270 1004,270 1004,270 1004,270 1004,271 1004,271 1004,271 1004,271 1004,271 1004,271 1004,271 1004,271 1004,272 1004,272 1004,272 1004,272 1004,272 1004,272 1004,272 1004,272 1004,272 1004,272 1004,272 1004,272 1004,272 1004,272 1004,271 1004,271 1004,271 1004,271 1004,270 1004,270 1004,270 1004,269 1004,269 1004,268 1004,267 1004,266 1004,266 1004,265 1004,264 1004,262 1004,261 1004,260 1004,259 1004,257 1004,256 1004,254 1004,252 1004,251 1004,249 1004,248 1004,246 1004,245 1004,243 1004,242 1004,241 1004,240 1004,239 1004,239 1004,238 1004,238 1004,239 1004,239 1004,240 1004,241 1004,242 1004,244 1004,245 1004,247 1004,249 1004,251 1004,253 1004,255 1004,257 1004,258 1004,260 1004,262 1004,264 1004,265 1004,267 1004,268 1004,269 1004,270 1004,271 1004,271 1004,271 "/>
<polyline fill="none" opacity="1" stroke="#FFE119" stroke-width="1" points="130,431 131,431 133,431 134,431 136,431 137,431 139,432 140,432 142,432 143,432 145,432 146,432 148,432 149,432 151,432 152,433 154,433 155,433 157,433 158,433 160,433 161,433 163,433 164,433 166,433 167,433 169,432 170,432 172,432 173,432 175,432 176,432 178,432 180,432 181,432 183,432 184,432 186,432 187,432 189,433 190,433 192,433 193,433 195,433 196,433 198,433 199,433 201,434 202,434 204,434 205,434 207,434 208,434 210,434 211,434 213,434 214,434 216,434 217,433 219,433 220,433 222,433 223,433 225,432 227,432 228,432 230,432 231,432 233,431 234,431 236,431 237,431 239,430 240,430 242,430 243,430 245,430 246,430 248,430 249,430 251,430 252,430 254,430 255,430 257,430 258,430 260,430 261,430 263,430 264,430 266,430 267,430 269,430 270,430 272,430 273,430 275,430 277,430 278,430 280,430 281,429 283,429 284,429 286,429 287,429 289,429 290,429 292,429 293,428 295,428 296,428 298,428 299,428 301,428 302,428 304,428 305,429 307,429 308,429 310,429 311,429 313,429 314,430 316,430 317,430 319,430 320,430 322,431 324,431 325,431 327,431 328,431 330,432 331,432 333,432 334,432 336,432 337,432 339,432 340,432 342,432 343,432 345,432 346,433 348,433 349,433 351,433 352,433 354,433 355,433 357,433 358,433 360,433 361,433 363,433 364,433 366,433 367,433 369,433 370,433 372,433 374,433 375,433 377,433 378,433 380,433 381,433 383,433 384,433 386,433 387,433 389,433 390,434 392,434 393,434 395,434 396,434 398,434 399,434 401,434 402,435 404,435 405,435 407,435 408,435 410,435 411,436 413,436 414,436 416,436 417,436 419,436 421,436 422,437 424,437 425,437 427,437 428,437 430,437 431,437 433,437 434,438 436,438 437,438 439,438 440,438 442,438 443,438 445,439 446,439 448,439 449,439 451,439 452,440 454,440 455,440 457,440 458,441 460,441 461,441 463,441 464,441 466,441 467,442 469,442 471,442 472,442 474,442 475,442 477,442 478,442 480,442 481,441 483,441 484,441 486,441 487,441 489,440 490,440 492,440 493,440 495,440 496,439 498,439 499,439 501,439 502,439 504,438 505,438 507,438 508,438 510,438 511,438 513,438 514,438 516,438 518,438 519,438 521,438 522,438 524,437 525,437 527,437 528,437 530,437 531,437 533,437 534,436 536,436 537,436 539,436 540,435 542,435 543,435 545,434 546,434 548,434 549,433 551,433 552,432 554,432 555,432 557,431 558,431 560,431 561,431 563,430 564,430 566,430 568,430 569,430 571,430 572,430 574,431 575,431 577,432 578,432 580,433 581,434 583,435 584,437 586,438 587,440 589,442 590,444 592,446 593,448 595,450 596,452 598,455 599,457 601,459 602,461 604,463 605,465 607,467 608,469 610,471 611,472 613,474 615,475 616,477 618,478 619,479 621,479 622,480 624,481 625,481 627,482 628,482 630,482 631,482 633,483 634,483 636,484 637,484 639,485 640,487 642,488 643,490 645,493 646,496 648,499 649,502 651,506 652,510 654,514 655,518 657,522 658,526 660,530 661,534 663,538 665,542 666,546 668,549 669,553 671,556 672,559 674,562 675,565 677,568 678,570 680,572 681,574 683,576 684,578 686,580 687,582 689,583 690,584 692,585 693,586 695,587 696,587 698,587 699,588 701,587 702,587 704,587 705,586 707,585 708,584 710,583 712,581 713,580 715,578 716,576 718,573 719,570 721,567 722,564 724,561 725,557 727,554 728,550 730,547 731,544 733,542 734,542 736,542 737,544 739,547 740,551 742,556 743,561 745,566 746,571 748,576 749,581 751,586 752,591 754,595 755,599 757,603 758,607 760,610 762,613 763,616 765,619 766,621 768,623 769,625 771,627 772,629 774,630 775,632 777,633 778,634 780,635 781,635 783,636 784,636 786,636 787,636 789,636 790,636 792,635 793,635 795,634 796,633 798,632 799,630 801,629 802,627 804,625 805,623 807,620 809,618 810,615 812,612 813,608 815,605 816,601 818,597 819,592 821,588 822,583 824,578 825,573 827,567 828,562 830,558 831,554 833,551 834,549 836,549 837,551 839,553 840,556 842,560 843,564 845,568 846,572 848,576 849,579 851,582 852,585 854,588 855,590 857,592 859,594 860,596 862,597 863,598 865,599 866,599 868,600 869,600 871,600 872,599 874,599 875,598 877,597 878,596 880,595 881,593 883,592 884,590 886,588 887,587 889,585 890,583 892,581 893,580 895,578 896,577 898,576 899,576 901,575 902,576 904,576 906,577 907,578 909,580 910,582 912,583 913,585 915,587 916,589 918,591 919,593 921,595 922,597 924,598 925,600 927,601 928,602 930,603 931,604 933,605 934,606 936,606 937,606 939,606 940,607 942,606 943,606 945,606 946,606 948,605 949,604 951,604 952,603 954,602 956,601 957,601 959,600 960,599 962,598 963,597 965,597 966,596 968,596 969,595 971,595 972,595 974,595 975,596 977,596 978,596 980,597 981,597 983,598 984,599 986,599 987,600 989,601 990,601 992,602 993,602 995,603 996,603 998,604 999,604 1001,604 1003,604 1004,604 1004,604 1004,604 1004,603 1004,603 1004,602 1004,602 1004,601 1004,601 1004,600 1004,599 1004,599 1004,598 1004,597 1004,597 1004,596 1004,596 1004,596 1004,595 1004,595 1004,595 1004,595 1004,596 1004,596 1004,597 1004,597 1004,598 1004,599 1004,600 1004,601 1004,601 1004,602 1004,603 1004,604 1004,604 1004,605 1004,606 1004,606 1004,606 1004,606 1004,607 1004,606 1004,606 1004,606 1004,606 1004,605 1004,604 1004,603 1004,602 1004,601 1004,600 1004,598 1004,597 1004,595 1004,593 1004,591 1004,589 1004,587 1004,585 1004,583 1004,582 1004,580 1004,578 1004,577 1004,576 1004,576 1004,575 1004,576 1004,576 1004,577 1004,578 1004,580 1004,581 1004,583 1004,585 1004,587 1004,588 1004,590 1004,592 1004,593 1004,595 1004,596 1004,597 1004,598 1004,599 1004,599 1004,600 1004,600 1004,600 1004,599 1004,599 1004,598 1004,597 1004,596 1004,594 1004,592 1004,590 1004,588 1004,585 1004,582 1004,579 1004,576 1004,572 1004,568 1004,564 1004,560 1004,556 1004,553 1004,551 1004,549 1004,549 1004,551 1004,554 1004,558 1004,562 1004,567 1004,573 1004,578 1004,583 1004,588 1004,592 1004,597 1004,601 1004,605 1004,608 1004,612 1004,615 1004,618 1004,620 1004,623 1004,625 1004,627 1004,629 1004,630 1004,632 1004,633 1004,634 1004,635 1004,635 1004,636 1004,636 1004,636 1004,636 1004,636 1004,636 1004,635 1004,635 1004,634 1004,633 1004,632 1004,630 1004,629 1004,627 1004,625 1004,623 1004,621 1004,619 1004,616 1004,613 1004,610 1004,607 1004,603 1004,599 1004,595 1004,591 1004,586 1004,581 1004,576 1004,571 1004,566 1004,561 1004,556 1004,551 1004,547 1004,544 1004,542 1004,542 1004,542 1004,544 1004,547 1004,550 1004,554 1004,557 1004,561 1004,564 1004,567 1004,570 1004,573 1004,576 1004,578 1004,580 1004,581 1004,583 1004,584 1004,585 1004,586 1004,587 1004,587 1004,587 1004,588 1004,587 1004,587 1004,587 1004,586 1004,585 1004,584 1004,583 1004,582 1004,580 1004,578 1004,576 1004,574 1004,572 1004,570 1004,568 1004,565 1004,562 1004,559 1004,556 1004,553 1004,549 1004,546 1004,542 1004,538 1004,534 1004,530 1004,526 1004,522 1004,518 1004,514 1004,510 1004,506 1004,502 1004,499 1004,496 1004,493 1004,490 1004,488 1004,487 1004,485 1004,484 1004,484 1004,483 1004,483 1004,482 1004,482 1004,482 1004,482 1004,481 1004,481 1004,480 1004,479 1004,479 1004,478 1004,477 1004,475 1004,474 1004,472 1004,471 1004,469 1004,467 1004,465 1004,463 1004,461 1004,459 1004,457 1004,455 1004,452 1004,450 1004,448 1004,446 1004,444 1004,442 1004,440 1004,438 1004,437 1004,435 1004,434 1004,433 1004,432 1004,432 1004,431 1004,431 1004,430 1004,430 1004,430 1004,430 1004,430 1004,430 1004,430 1004,431 1004,431 1004,431 1004,431 1004,432 1004,432 1004,432 1004,433 1004,433 1004,434 1004,434 1004,434 1004,435 1004,435 1004,435 1004,436 1004,436 1004,436 1004,436 1004,437 1004,437 1004,437 1004,437 1004,437 1004,437 1004,437 1004,438 1004,438 1004,438 1004,438 1004,438 1004,438 1004,438 1004,438 1004,438 1004,438 1004,438 1004,438 1004,438 1004,439 1004,439 1004,439 1004,439 1004,439 1004,440 1004,440 1004,440 1004,440 1004,440 1004,441 1004,441 1004,441 1004,441 1004,441 1004,442 1004,442 1004,442 1004,442 1004,442 1004,442 1004,442 1004,442 1004,442 1004,441 1004,441 1004,441 1004,441 1004,441 1004,441 1004,440 1004,440 1004,440 1004,440 1004,439 1004,439 1004,439 1004,439 1004,439 1004,438 1004,438 1004,438 1004,438 1004,438 1004,438 1004,438 1004,437 1004,437 1004,437 1004,437 1004,437 1004,437 1004,437 1004,437 1004,436 1004,436 1004,436 1004,436 1004,436 1004,436 1004,436 1004,435 1004,435 1004,435 1004,435 1004,435 1004,435 1004,434 1004,434 1004,434 1004,434 1004,434 1004,434 1004,434 1004,434 1004,433 1004,433 1004,433 1004,433 1004,433 1004,433 1004,433 1004,433 1004,433 1004,433 1004,433 1004,433 1004,433 1004,433 1004,433 1004,433 1004,433 1004,433 1004,433 1004,433 1004,433 1004,433 1004,433 1004,433 1004,433 1004,433 1004,433 1004,433 1004,433 1004,432 1004,432 1004,432 1004,432 1004,432 1004,432 1004,432 1004,432 1004,432 1004,432 1004,432 1004,431 1004,431 1004,431 1004,431 1004,431 1004,430 1004,430 1004,430 1004,430 1004,430 1004,429 1004,429 1004,429 1004,429 1004,429 1004,429 1004,428 1004,428 1004,428 1004,428 1004,428 1004,428 1004,428 1004,428 1004,429 1004,429 1004,429 1004,429 1004,429 1004,429 1004,429 1004,429 1004,430 1004,430 1004,430 1004,430 1004,430 1004,430 1004,430 1004,430 1004,430 1004,430 1004,430 1004,430 1004,430 1004,430 1004,430 1004,430 1004,430 1004,430 1004,430 1004,430 1004,430 1004,430 1004,430 1004,430 1004,430 1004,430 1004,430 1004,430 1004,431 1004,431 1004,431 1004,431 1004,432 1004,432 1004,432 1004,432 1004,432 1004,433 1004,433 1004,433 1004,433 1004,433 1004,434 1004,434 1004,434 1004,434 1004,434 1004,434 1004,434 1004,434 1004,434 1004,434 1004,434 1004,433 1004,433 1004,433 1004,433 1004,433 1004,433 1004,433 1004,433 1004,432 1004,432 1004,432 1004,432 1004,432 1004,432 1004,432 1004,432 1004,432 1004,432 1004,432 1004,432 1004,432 1004,433 1004,433 1004,433 1004,433 1004,433 1004,433 1004,433 1004,433 1004,433 1004,433 1004,433 1004,432 1004,432 1004,432 1004,432 1004,432 1004,432 1004,432 1004,432 1004,432 1004,431 1004,431 1004,431 1004,431 1004,431 "/>
<polyline fill="none" opacity="1" stroke="#0082C8" stroke-width="1" points="130,226 131,226 133,226 134,226 136,226 137,226 139,227 140,227 142,227 143,227 145,227 146,227 148,227 149,227 151,227 152,228 154,228 155,228 157,228 158,228 160,228 161,228 163,228 164,228 166,228 167,228 169,228 170,227 172,227 173,227 175,227 176,227 178,227 180,227 181,227 183,227 184,227 186,227 187,227 189,228 190,228 192,228 193,228 195,228 196,228 198,228 199,228 201,229 202,229 204,229 205,229 207,229 208,229 210,229 211,229 213,229 214,229 216,229 217,228 219,228 220,228 222,228 223,228 225,227 227,227 228,227 230,227 231,227 233,226 234,226 236,226 237,226 239,225 240,225 242,225 243,225 245,225 246,225 248,225 249,225 251,225 252,225 254,225 255,225 257,225 258,225 260,225 261,225 263,225 264,225 266,225 267,225 269,225 270,225 272,225 273,225 275,225 277,225 278,225 280,225 281,224 283,224 284,224 286,224 287,224 289,224 290,224 292,224 293,223 295,223 296,223 298,223 299,223 301,223 302,223 304,223 305,224 307,224 308,224 310,224 311,224 313,224 314,225 316,225 317,225 319,225 320,225 322,226 324,226 325,226 327,226 328,226 330,227 331,227 333,227 334,227 336,227 337,227 339,227 340,227 342,227 343,227 345,227 346,228 348,228 349,228 351,228 352,228 354,228 355,228 357,228 358,228 360,228 361,228 363,228 364,228 366,228 367,228 369,228 370,228 372,228 374,228 375,228 377,228 378,228 380,228 381,228 383,228 384,228 386,228 387,228 389,229 390,229 392,229 393,229 395,229 396,229 398,229 399,229 401,229 402,230 404,230 405,230 407,230 408,230 410,230 411,231 413,231 414,231 416,231 417,231 419,231 421,231 422,232 424,232 425,232 427,232 428,232 430,232 431,232 433,232 434,233 436,233 437,233 439,233 440,233 442,233 443,234 445,234 446,234 448,234 449,234 451,234 452,235 454,235 455,235 457,235 458,236 460,236 461,236 463,236 464,236 466,236 467,237 469,237 471,237 472,237 474,237 475,237 477,237 478,237 480,237 481,236 483,236 484,236 486,236 487,236 489,236 490,235 492,235 493,235 495,235 496,234 498,234 499,234 501,234 502,234 504,233 505,233 507,233 508,233 510,233 511,233 513,233 514,233 516,233 518,233 519,233 521,233 522,233 524,232 525,232 527,232 528,232 530,232 531,232 533,232 534,231 536,231 537,231 539,231 540,230 542,230 543,230 545,229 546,229 548,229 549,228 551,228 552,227 554,227 555,227 557,226 558,226 560,226 561,226 563,225 564,225 566,225 568,225 569,225 571,225 572,225 574,226 575,226 577,227 578,227 580,228 581,229 583,230 584,232 586,233 587,235 589,237 590,239 592,241 593,243 595,245 596,247 598,250 599,252 601,254 602,256 604,258 605,260 607,262 608,264 610,266 611,267 613,269 615,270 616,272 618,273 619,274 621,274 622,275 624,276 625,276 627,277 628,277 630,277 631,277 633,278 634,278 636,279 637,279 639,280 640,282 642,283 643,285 645,288 646,291 648,294 649,297 651,301 652,305 654,309 655,313 657,317 658,321 660,325 661,329 663,333 665,337 666,341 668,344 669,348 671,351 672,354 674,357 675,360 677,363 678,365 680,367 681,370 683,372 684,373 686,375 687,377 689,378 690,379 692,380 693,381 695,382 696,382 698,382 699,383 701,383 702,382 704,382 705,381 707,380 708,379 710,378 712,377 713,375 715,373 716,371 718,368 719,365 721,362 722,359 724,356 725,352 727,349 728,345 730,342 731,339 733,337 734,337 736,337 737,339 739,342 740,346 742,351 743,356 745,361 746,366 748,371 749,376 751,381 752,386 754,390 755,394 757,398 758,402 760,405 762,408 763,411 765,414 766,416 768,418 769,420 771,422 772,424 774,425 775,427 777,428 778,429 780,430 781,430 783,431 784,431 786,431 787,431 789,431 790,431 792,430 793,430 795,429 796,428 798,427 799,425 801,424 802,422 804,420 805,418 807,415 809,413 810,410 812,407 813,404 815,400 816,396 818,392 819,387 821,383 822,378 824,373 825,368 827,362 828,357 830,353 831,349 833,346 834,344 836,344 837,346 839,348 840,351 842,355 843,359 845,363 846,367 848,371 849,374 851,378 852,380 854,383 855,385 857,387 859,389 860,391 862,392 863,393 865,394 866,394 868,395 869,395 871,395 872,394 874,394 875,393 877,392 878,391 880,390 881,388 883,387 884,385 886,383 887,382 889,380 890,378 892,376 893,375 895,373 896,372 898,371 899,371 901,370 902,371 904,371 906,372 907,373 909,375 910,377 912,379 913,380 915,382 916,384 918,386 919,388 921,390 922,392 924,393 925,395 927,396 928,397 930,398 931,399 933,400 934,401 936,401 937,401 939,402 940,402 942,401 943,401 945,401 946,401 948,400 949,399 951,399 952,398 954,397 956,396 957,396 959,395 960,394 962,393 963,392 965,392 966,391 968,391 969,391 971,390 972,390 974,390 975,391 977,391 978,391 980,392 981,392 983,393 984,394 986,394 987,395 989,396 990,396 992,397 993,397 995,398 996,398 998,399 999,399 1001,399 1003,399 1004,399 1004,399 1004,399 1004,398 1004,398 1004,397 1004,397 1004,396 1004,396 1004,395 1004,394 1004,394 1004,393 1004,392 1004,392 1004,391 1004,391 1004,391 1004,390 1004,390 1004,390 1004,391 1004,391 1004,391 1004,392 1004,392 1004,393 1004,394 1004,395 1004,396 1004,396 1004,397 1004,398 1004,399 1004,399 1004,400 1004,401 1004,401 1004,401 1004,401 1004,402 1004,402 1004,401 1004,401 1004,401 1004,400 1004,399 1004,398 1004,397 1004,396 1004,395 1004,393 1004,392 1004,390 1004,388 1004,386 1004,384 1004,382 1004,380 1004,379 1004,377 1004,375 1004,373 1004,372 1004,371 1004,371 1004,370 1004,371 1004,371 1004,372 1004,373 1004,375 1004,376 1004,378 1004,380 1004,382 1004,383 1004,385 1004,387 1004,388 1004,390 1004,391 1004,392 1004,393 1004,394 1004,394 1004,395 1004,395 1004,395 1004,394 1004,394 1004,393 1004,392 1004,391 1004,389 1004,387 1004,385 1004,383 1004,380 1004,378 1004,374 1004,371 1004,367 1004,363 1004,359 1004,355 1004,351 1004,348 1004,346 1004,344 1004,344 1004,346 1004,349 1004,353 1004,357 1004,362 1004,368 1004,373 1004,378 1004,383 1004,387 1004,392 1004,396 1004,400 1004,404 1004,407 1004,410 1004,413 1004,415 1004,418 1004,420 1004,422 1004,424 1004,425 1004,427 1004,428 1004,429 1004,430 1004,430 1004,431 1004,431 1004,431 1004,431 1004,431 1004,431 1004,430 1004,430 1004,429 1004,428 1004,427 1004,425 1004,424 1004,422 1004,420 1004,418 1004,416 1004,414 1004,411 1004,408 1004,405 1004,402 1004,398 1004,394 1004,390 1004,386 1004,381 1004,376 1004,371 1004,366 1004,361 1004,356 1004,351 1004,346 1004,342 1004,339 1004,337 1004,337 1004,337 1004,339 1004,342 1004,345 1004,349 1004,352 1004,356 1004,359 1004,362 1004,365 1004,368 1004,371 1004,373 1004,375 1004,377 1004,378 1004,379 1004,380 1004,381 1004,382 1004,382 1004,383 1004,383 1004,382 1004,382 1004,382 1004,381 1004,380 1004,379 1004,378 1004,377 1004,375 1004,373 1004,372 1004,370 1004,367 1004,365 1004,363 1004,360 1004,357 1004,354 1004,351 1004,348 1004,344 1004,341 1004,337 1004,333 1004,329 1004,325 1004,321 1004,317 1004,313 1004,309 1004,305 1004,301 1004,297 1004,294 1004,291 1004,288 1004,285 1004,283 1004,282 1004,280 1004,279 1004,279 1004,278 1004,278 1004,277 1004,277 1004,277 1004,277 1004,276 1004,276 1004,275 1004,274 1004,274 1004,273 1004,272 1004,270 1004,269 1004,267 1004,266 1004,264 1004,262 1004,260 1004,258 1004,256 1004,254 1004,252 1004,250 1004,247 1004,245 1004,243 1004,241 1004,239 1004,237 1004,235 1004,233 1004,232 1004,230 1004,229 1004,228 1004,227 1004,227 1004,226 1004,226 1004,225 1004,225 1004,225 1004,225 1004,225 1004,225 1004,225 1004,226 1004,226 1004,226 1004,226 1004,227 1004,227 1004,227 1004,228 1004,228 1004,229 1004,229 1004,229 1004,230 1004,230 1004,230 1004,231 1004,231 1004,231 1004,231 1004,232 1004,232 1004,232 1004,232 1004,232 1004,232 1004,232 1004,233 1004,233 1004,233 1004,233 1004,233 1004,233 1004,233 1004,233 1004,233 1004,233 1004,233 1004,233 1004,233 1004,234 1004,234 1004,234 1004,234 1004,234 1004,235 1004,235 1004,235 1004,235 1004,236 1004,236 1004,236 1004,236 1004,236 1004,236 1004,237 1004,237 1004,237 1004,237 1004,237 1004,237 1004,237 1004,237 1004,237 1004,236 1004,236 1004,236 1004,236 1004,236 1004,236 1004,235 1004,235 1004,235 1004,235 1004,234 1004,234 1004,234 1004,234 1004,234 1004,234 1004,233 1004,233 1004,233 1004,233 1004,233 1004,233 1004,232 1004,232 1004,232 1004,232 1004,232 1004,232 1004,232 1004,232 1004,231 1004,231 1004,231 1004,231 1004,231 1004,231 1004,231 1004,230 1004,230 1004,230 1004,230 1004,230 1004,230 1004,229 1004,229 1004,229 1004,229 1004,229 1004,229 1004,229 1004,229 1004,229 1004,228 1004,228 1004,228 1004,228 1004,228 1004,228 1004,228 1004,228 1004,228 1004,228 1004,228 1004,228 1004,228 1004,228 1004,228 1004,228 1004,228 1004,228 1004,228 1004,228 1004,228 1004,228 1004,228 1004,228 1004,228 1004,228 1004,228 1004,228 1004,227 1004,227 1004,227 1004,227 1004,227 1004,227 1004,227 1004,227 1004,227 1004,227 1004,227 1004,226 1004,226 1004,226 1004,226 1004,226 1004,225 1004,225 1004,225 1004,225 1004,225 1004,224 1004,224 1004,224 1004,224 1004,224 1004,224 1004,223 1004,223 1004,223 1004,223 1004,223 1004,223 1004,223 1004,223 1004,224 1004,224 1004,224 1004,224 1004,224 1004,224 1004,224 1004,224 1004,225 1004,225 1004,225 1004,225 1004,225 1004,225 1004,225 1004,225 1004,225 1004,225 1004,225 1004,225 1004,225 1004,225 1004,225 1004,225 1004,225 1004,225 1004,225 1004,225 1004,225 1004,225 1004,225 1004,225 1004,225 1004,225 1004,225 1004,225 1004,226 1004,226 1004,226 1004,226 1004,227 1004,227 1004,227 1004,227 1004,227 1004,228 1004,228 1004,228 1004,228 1004,228 1004,229 1004,229 1004,229 1004,229 1004,229 1004,229 1004,229 1004,229 1004,229 1004,229 1004,229 1004,228 1004,228 1004,228 1004,228 1004,228 1004,228 1004,228 1004,228 1004,227 1004,227 1004,227 1004,227 1004,227 1004,227 1004,227 1004,227 1004,227 1004,227 1004,227 1004,227 1004,228 1004,228 1004,228 1004,228 1004,228 1004,228 1004,228 1004,228 1004,228 1004,228 1004,228 1004,228 1004,227 1004,227 1004,227 1004,227 1004,227 1004,227 1004,227 1004,227 1004,227 1004,226 1004,226 1004,226 1004,226 1004,226 "/>
<rect x="514" y="25" width="485" height="157" opacity="0.8" fill="#FFFFFF" stroke="none"/>
<rect x="514" y="25" width="485" height="157" opacity="1" fill="none" stroke="#000000"/>
<text x="554" y="35" dy="0.76em" text-anchor="start" font-family="sans-serif" font-size="24.193548387096776" opacity="1" fill="#000000">
(1) log_power
</text>
<text x="554" y="73" dy="0.76em" text-anchor="start" font-family="sans-serif" font-size="24.193548387096776" opacity="1" fill="#000000">
(2) spectral_envelope by cepstrum
</text>
<text x="554" y="110" dy="0.76em" text-anchor="start" font-family="sans-serif" font-size="24.193548387096776" opacity="1" fill="#000000">
(3) spectral_envelope by levinson-durbin
</text>
<text x="554" y="148" dy="0.76em" text-anchor="start" font-family="sans-serif" font-size="24.193548387096776" opacity="1" fill="#000000">
(4) spectral_envelope by burg
</text>
<polyline fill="none" opacity="1" stroke="#E6194B" stroke-width="1" points="524,47 544,47 "/>
<polyline fill="none" opacity="1" stroke="#3CB44B" stroke-width="1" points="524,85 544,85 "/>
<polyline fill="none" opacity="1" stroke="#FFE119" stroke-width="1" points="524,122 544,122 "/>
<polyline fill="none" opacity="1" stroke="#0082C8" stroke-width="1" points="524,160 544,160 "/>
</svg>
