<svg width="1024" height="768" viewBox="0 0 1024 768" xmlns="http://www.w3.org/2000/svg">
<rect x="0" y="0" width="1024" height="768" opacity="1" fill="#FFFFFF" stroke="none"/>
<line opacity="0.1" stroke="#000000" stroke-width="1" x1="130" y1="657" x2="130" y2="20"/>
<line opacity="0.1" stroke="#000000" stroke-width="1" x1="140" y1="657" x2="140" y2="20"/>
<line opacity="0.1" stroke="#000000" stroke-width="1" x1="151" y1="657" x2="151" y2="20"/>
<line opacity="0.1" stroke="#000000" stroke-width="1" x1="162" y1="657" x2="162" y2="20"/>
<line opacity="0.1" stroke="#000000" stroke-width="1" x1="173" y1="657" x2="173" y2="20"/>
<line opacity="0.1" stroke="#000000" stroke-width="1" x1="184" y1="657" x2="184" y2="20"/>
<line opacity="0.1" stroke="#000000" stroke-width="1" x1="195" y1="657" x2="195" y2="20"/>
<line opacity="0.1" stroke="#000000" stroke-width="1" x1="206" y1="657" x2="206" y2="20"/>
<line opacity="0.1" stroke="#000000" stroke-width="1" x1="217" y1="657" x2="217" y2="20"/>
<line opacity="0.1" stroke="#000000" stroke-width="1" x1="228" y1="657" x2="228" y2="20"/>
<line opacity="0.1" stroke="#000000" stroke-width="1" x1="239" y1="657" x2="239" y2="20"/>
<line opacity="0.1" stroke="#000000" stroke-width="1" x1="250" y1="657" x2="250" y2="20"/>
<line opacity="0.1" stroke="#000000" stroke-width="1" x1="260" y1="657" x2="260" y2="20"/>
<line opacity="0.1" stroke="#000000" stroke-width="1" x1="271" y1="657" x2="271" y2="20"/>
<line opacity="0.1" stroke="#000000" stroke-width="1" x1="282" y1="657" x2="282" y2="20"/>
<line opacity="0.1" stroke="#000000" stroke-width="1" x1="293" y1="657" x2="293" y2="20"/>
<line opacity="0.1" stroke="#000000" stroke-width="1" x1="304" y1="657" x2="304" y2="20"/>
<line opacity="0.1" stroke="#000000" stroke-width="1" x1="315" y1="657" x2="315" y2="20"/>
<line opacity="0.1" stroke="#000000" stroke-width="1" x1="326" y1="657" x2="326" y2="20"/>
<line opacity="0.1" stroke="#000000" stroke-width="1" x1="337" y1="657" x2="337" y2="20"/>
<line opacity="0.1" stroke="#000000" stroke-width="1" x1="348" y1="657" x2="348" y2="20"/>
<line opacity="0.1" stroke="#000000" stroke-width="1" x1="359" y1="657" x2="359" y2="20"/>
<line opacity="0.1" stroke="#000000" stroke-width="1" x1="370" y1="657" x2="370" y2="20"/>
<line opacity="0.1" stroke="#000000" stroke-width="1" x1="380" y1="657" x2="380" y2="20"/>
<line opacity="0.1" stroke="#000000" stroke-width="1" x1="391" y1="657" x2="391" y2="20"/>
<line opacity="0.1" stroke="#000000" stroke-width="1" x1="402" y1="657" x2="402" y2="20"/>
<line opacity="0.1" stroke="#000000" stroke-width="1" x1="413" y1="657" x2="413" y2="20"/>
<line opacity="0.1" stroke="#000000" stroke-width="1" x1="424" y1="657" x2="424" y2="20"/>
<line opacity="0.1" stroke="#000000" stroke-width="1" x1="435" y1="657" x2="435" y2="20"/>
<line opacity="0.1" stroke="#000000" stroke-width="1" x1="446" y1="657" x2="446" y2="20"/>
<line opacity="0.1" stroke="#000000" stroke-width="1" x1="457" y1="657" x2="457" y2="20"/>
<line opacity="0.1" stroke="#000000" stroke-width="1" x1="468" y1="657" x2="468" y2="20"/>
<line opacity="0.1" stroke="#000000" stroke-width="1" x1="479" y1="657" x2="479" y2="20"/>
<line opacity="0.1" stroke="#000000" stroke-width="1" x1="490" y1="657" x2="490" y2="20"/>
<line opacity="0.1" stroke="#000000" stroke-width="1" x1="501" y1="657" x2="501" y2="20"/>
<line opacity="0.1" stroke="#000000" stroke-width="1" x1="511" y1="657" x2="511" y2="20"/>
<line opacity="0.1" stroke="#000000" stroke-width="1" x1="522" y1="657" x2="522" y2="20"/>
<line opacity="0.1" stroke="#000000" stroke-width="1" x1="533" y1="657" x2="533" y2="20"/>
<line opacity="0.1" stroke="#000000" stroke-width="1" x1="544" y1="657" x2="544" y2="20"/>
<line opacity="0.1" stroke="#000000" stroke-width="1" x1="555" y1="657" x2="555" y2="20"/>
<line opacity="0.1" stroke="#000000" stroke-width="1" x1="566" y1="657" x2="566" y2="20"/>
<line opacity="0.1" stroke="#000000" stroke-width="1" x1="577" y1="657" x2="577" y2="20"/>
<line opacity="0.1" stroke="#000000" stroke-width="1" x1="588" y1="657" x2="588" y2="20"/>
<line opacity="0.1" stroke="#000000" stroke-width="1" x1="599" y1="657" x2="599" y2="20"/>
<line opacity="0.1" stroke="#000000" stroke-width="1" x1="610" y1="657" x2="610" y2="20"/>
<line opacity="0.1" stroke="#000000" stroke-width="1" x1="621" y1="657" x2="621" y2="20"/>
<line opacity="0.1" stroke="#000000" stroke-width="1" x1="631" y1="657" x2="631" y2="20"/>
<line opacity="0.1" stroke="#000000" stroke-width="1" x1="642" y1="657" x2="642" y2="20"/>
<line opacity="0.1" stroke="#000000" stroke-width="1" x1="653" y1="657" x2="653" y2="20"/>
<line opacity="0.1" stroke="#000000" stroke-width="1" x1="664" y1="657" x2="664" y2="20"/>
<line opacity="0.1" stroke="#000000" stroke-width="1" x1="675" y1="657" x2="675" y2="20"/>
<line opacity="0.1" stroke="#000000" stroke-width="1" x1="686" y1="657" x2="686" y2="20"/>
<line opacity="0.1" stroke="#000000" stroke-width="1" x1="697" y1="657" x2="697" y2="20"/>
<line opacity="0.1" stroke="#000000" stroke-width="1" x1="708" y1="657" x2="708" y2="20"/>
<line opacity="0.1" stroke="#000000" stroke-width="1" x1="719" y1="657" x2="719" y2="20"/>
<line opacity="0.1" stroke="#000000" stroke-width="1" x1="730" y1="657" x2="730" y2="20"/>
<line opacity="0.1" stroke="#000000" stroke-width="1" x1="741" y1="657" x2="741" y2="20"/>
<line opacity="0.1" stroke="#000000" stroke-width="1" x1="752" y1="657" x2="752" y2="20"/>
<line opacity="0.1" stroke="#000000" stroke-width="1" x1="762" y1="657" x2="762" y2="20"/>
<line opacity="0.1" stroke="#000000" stroke-width="1" x1="773" y1="657" x2="773" y2="20"/>
<line opacity="0.1" stroke="#000000" stroke-width="1" x1="784" y1="657" x2="784" y2="20"/>
<line opacity="0.1" stroke="#000000" stroke-width="1" x1="795" y1="657" x2="795" y2="20"/>
<line opacity="0.1" stroke="#000000" stroke-width="1" x1="806" y1="657" x2="806" y2="20"/>
<line opacity="0.1" stroke="#000000" stroke-width="1" x1="817" y1="657" x2="817" y2="20"/>
<line opacity="0.1" stroke="#000000" stroke-width="1" x1="828" y1="657" x2="828" y2="20"/>
<line opacity="0.1" stroke="#000000" stroke-width="1" x1="839" y1="657" x2="839" y2="20"/>
<line opacity="0.1" stroke="#000000" stroke-width="1" x1="850" y1="657" x2="850" y2="20"/>
<line opacity="0.1" stroke="#000000" stroke-width="1" x1="861" y1="657" x2="861" y2="20"/>
<line opacity="0.1" stroke="#000000" stroke-width="1" x1="872" y1="657" x2="872" y2="20"/>
<line opacity="0.1" stroke="#000000" stroke-width="1" x1="882" y1="657" x2="882" y2="20"/>
<line opacity="0.1" stroke="#000000" stroke-width="1" x1="893" y1="657" x2="893" y2="20"/>
<line opacity="0.1" stroke="#000000" stroke-width="1" x1="904" y1="657" x2="904" y2="20"/>
<line opacity="0.1" stroke="#000000" stroke-width="1" x1="915" y1="657" x2="915" y2="20"/>
<line opacity="0.1" stroke="#000000" stroke-width="1" x1="926" y1="657" x2="926" y2="20"/>
<line opacity="0.1" stroke="#000000" stroke-width="1" x1="937" y1="657" x2="937" y2="20"/>
<line opacity="0.1" stroke="#000000" stroke-width="1" x1="948" y1="657" x2="948" y2="20"/>
<line opacity="0.1" stroke="#000000" stroke-width="1" x1="959" y1="657" x2="959" y2="20"/>
<line opacity="0.1" stroke="#000000" stroke-width="1" x1="970" y1="657" x2="970" y2="20"/>
<line opacity="0.1" stroke="#000000" stroke-width="1" x1="981" y1="657" x2="981" y2="20"/>
<line opacity="0.1" stroke="#000000" stroke-width="1" x1="992" y1="657" x2="992" y2="20"/>
<line opacity="0.1" stroke="#000000" stroke-width="1" x1="1003" y1="657" x2="1003" y2="20"/>
<line opacity="0.1" stroke="#000000" stroke-width="1" x1="130" y1="657" x2="1003" y2="657"/>
<line opacity="0.1" stroke="#000000" stroke-width="1" x1="130" y1="650" x2="1003" y2="650"/>
<line opacity="0.1" stroke="#000000" stroke-width="1" x1="130" y1="642" x2="1003" y2="642"/>
<line opacity="0.1" stroke="#000000" stroke-width="1" x1="130" y1="634" x2="1003" y2="634"/>
<line opacity="0.1" stroke="#000000" stroke-width="1" x1="130" y1="626" x2="1003" y2="626"/>
<line opacity="0.1" stroke="#000000" stroke-width="1" x1="130" y1="618" x2="1003" y2="618"/>
<line opacity="0.1" stroke="#000000" stroke-width="1" x1="130" y1="610" x2="1003" y2="610"/>
<line opacity="0.1" stroke="#000000" stroke-width="1" x1="130" y1="602" x2="1003" y2="602"/>
<line opacity="0.1" stroke="#000000" stroke-width="1" x1="130" y1="594" x2="1003" y2="594"/>
<line opacity="0.1" stroke="#000000" stroke-width="1" x1="130" y1="586" x2="1003" y2="586"/>
<line opacity="0.1" stroke="#000000" stroke-width="1" x1="130" y1="578" x2="1003" y2="578"/>
<line opacity="0.1" stroke="#000000" stroke-width="1" x1="130" y1="570" x2="1003" y2="570"/>
<line opacity="0.1" stroke="#000000" stroke-width="1" x1="130" y1="562" x2="1003" y2="562"/>
<line opacity="0.1" stroke="#000000" stroke-width="1" x1="130" y1="554" x2="1003" y2="554"/>
<line opacity="0.1" stroke="#000000" stroke-width="1" x1="130" y1="546" x2="1003" y2="546"/>
<line opacity="0.1" stroke="#000000" stroke-width="1" x1="130" y1="538" x2="1003" y2="538"/>
<line opacity="0.1" stroke="#000000" stroke-width="1" x1="130" y1="530" x2="1003" y2="530"/>
<line opacity="0.1" stroke="#000000" stroke-width="1" x1="130" y1="522" x2="1003" y2="522"/>
<line opacity="0.1" stroke="#000000" stroke-width="1" x1="130" y1="514" x2="1003" y2="514"/>
<line opacity="0.1" stroke="#000000" stroke-width="1" x1="130" y1="506" x2="1003" y2="506"/>
<line opacity="0.1" stroke="#000000" stroke-width="1" x1="130" y1="498" x2="1003" y2="498"/>
<line opacity="0.1" stroke="#000000" stroke-width="1" x1="130" y1="490" x2="1003" y2="490"/>
<line opacity="0.1" stroke="#000000" stroke-width="1" x1="130" y1="482" x2="1003" y2="482"/>
<line opacity="0.1" stroke="#000000" stroke-width="1" x1="130" y1="474" x2="1003" y2="474"/>
<line opacity="0.1" stroke="#000000" stroke-width="1" x1="130" y1="466" x2="1003" y2="466"/>
<line opacity="0.1" stroke="#000000" stroke-width="1" x1="130" y1="458" x2="1003" y2="458"/>
<line opacity="0.1" stroke="#000000" stroke-width="1" x1="130" y1="450" x2="1003" y2="450"/>
<line opacity="0.1" stroke="#000000" stroke-width="1" x1="130" y1="443" x2="1003" y2="443"/>
<line opacity="0.1" stroke="#000000" stroke-width="1" x1="130" y1="435" x2="1003" y2="435"/>
<line opacity="0.1" stroke="#000000" stroke-width="1" x1="130" y1="427" x2="1003" y2="427"/>
<line opacity="0.1" stroke="#000000" stroke-width="1" x1="130" y1="419" x2="1003" y2="419"/>
<line opacity="0.1" stroke="#000000" stroke-width="1" x1="130" y1="411" x2="1003" y2="411"/>
<line opacity="0.1" stroke="#000000" stroke-width="1" x1="130" y1="403" x2="1003" y2="403"/>
<line opacity="0.1" stroke="#000000" stroke-width="1" x1="130" y1="395" x2="1003" y2="395"/>
<line opacity="0.1" stroke="#000000" stroke-width="1" x1="130" y1="387" x2="1003" y2="387"/>
<line opacity="0.1" stroke="#000000" stroke-width="1" x1="130" y1="379" x2="1003" y2="379"/>
<line opacity="0.1" stroke="#000000" stroke-width="1" x1="130" y1="371" x2="1003" y2="371"/>
<line opacity="0.1" stroke="#000000" stroke-width="1" x1="130" y1="363" x2="1003" y2="363"/>
<line opacity="0.1" stroke="#000000" stroke-width="1" x1="130" y1="355" x2="1003" y2="355"/>
<line opacity="0.1" stroke="#000000" stroke-width="1" x1="130" y1="347" x2="1003" y2="347"/>
<line opacity="0.1" stroke="#000000" stroke-width="1" x1="130" y1="339" x2="1003" y2="339"/>
<line opacity="0.1" stroke="#000000" stroke-width="1" x1="130" y1="331" x2="1003" y2="331"/>
<line opacity="0.1" stroke="#000000" stroke-width="1" x1="130" y1="323" x2="1003" y2="323"/>
<line opacity="0.1" stroke="#000000" stroke-width="1" x1="130" y1="315" x2="1003" y2="315"/>
<line opacity="0.1" stroke="#000000" stroke-width="1" x1="130" y1="307" x2="1003" y2="307"/>
<line opacity="0.1" stroke="#000000" stroke-width="1" x1="130" y1="299" x2="1003" y2="299"/>
<line opacity="0.1" stroke="#000000" stroke-width="1" x1="130" y1="291" x2="1003" y2="291"/>
<line opacity="0.1" stroke="#000000" stroke-width="1" x1="130" y1="283" x2="1003" y2="283"/>
<line opacity="0.1" stroke="#000000" stroke-width="1" x1="130" y1="275" x2="1003" y2="275"/>
<line opacity="0.1" stroke="#000000" stroke-width="1" x1="130" y1="267" x2="1003" y2="267"/>
<line opacity="0.1" stroke="#000000" stroke-width="1" x1="130" y1="259" x2="1003" y2="259"/>
<line opacity="0.1" stroke="#000000" stroke-width="1" x1="130" y1="251" x2="1003" y2="251"/>
<line opacity="0.1" stroke="#000000" stroke-width="1" x1="130" y1="243" x2="1003" y2="243"/>
<line opacity="0.1" stroke="#000000" stroke-width="1" x1="130" y1="235" x2="1003" y2="235"/>
<line opacity="0.1" stroke="#000000" stroke-width="1" x1="130" y1="228" x2="1003" y2="228"/>
<line opacity="0.1" stroke="#000000" stroke-width="1" x1="130" y1="220" x2="1003" y2="220"/>
<line opacity="0.1" stroke="#000000" stroke-width="1" x1="130" y1="212" x2="1003" y2="212"/>
<line opacity="0.1" stroke="#000000" stroke-width="1" x1="130" y1="204" x2="1003" y2="204"/>
<line opacity="0.1" stroke="#000000" stroke-width="1" x1="130" y1="196" x2="1003" y2="196"/>
<line opacity="0.1" stroke="#000000" stroke-width="1" x1="130" y1="188" x2="1003" y2="188"/>
<line opacity="0.1" stroke="#000000" stroke-width="1" x1="130" y1="180" x2="1003" y2="180"/>
<line opacity="0.1" stroke="#000000" stroke-width="1" x1="130" y1="172" x2="1003" y2="172"/>
<line opacity="0.1" stroke="#000000" stroke-width="1" x1="130" y1="164" x2="1003" y2="164"/>
<line opacity="0.1" stroke="#000000" stroke-width="1" x1="130" y1="156" x2="1003" y2="156"/>
<line opacity="0.1" stroke="#000000" stroke-width="1" x1="130" y1="148" x2="1003" y2="148"/>
<line opacity="0.1" stroke="#000000" stroke-width="1" x1="130" y1="140" x2="1003" y2="140"/>
<line opacity="0.1" stroke="#000000" stroke-width="1" x1="130" y1="132" x2="1003" y2="132"/>
<line opacity="0.1" stroke="#000000" stroke-width="1" x1="130" y1="124" x2="1003" y2="124"/>
<line opacity="0.1" stroke="#000000" stroke-width="1" x1="130" y1="116" x2="1003" y2="116"/>
<line opacity="0.1" stroke="#000000" stroke-width="1" x1="130" y1="108" x2="1003" y2="108"/>
<line opacity="0.1" stroke="#000000" stroke-width="1" x1="130" y1="100" x2="1003" y2="100"/>
<line opacity="0.1" stroke="#000000" stroke-width="1" x1="130" y1="92" x2="1003" y2="92"/>
<line opacity="0.1" stroke="#000000" stroke-width="1" x1="130" y1="84" x2="1003" y2="84"/>
<line opacity="0.1" stroke="#000000" stroke-width="1" x1="130" y1="76" x2="1003" y2="76"/>
<line opacity="0.1" stroke="#000000" stroke-width="1" x1="130" y1="68" x2="1003" y2="68"/>
<line opacity="0.1" stroke="#000000" stroke-width="1" x1="130" y1="60" x2="1003" y2="60"/>
<line opacity="0.1" stroke="#000000" stroke-width="1" x1="130" y1="52" x2="1003" y2="52"/>
<line opacity="0.1" stroke="#000000" stroke-width="1" x1="130" y1="44" x2="1003" y2="44"/>
<line opacity="0.1" stroke="#000000" stroke-width="1" x1="130" y1="36" x2="1003" y2="36"/>
<line opacity="0.1" stroke="#000000" stroke-width="1" x1="130" y1="28" x2="1003" y2="28"/>
<line opacity="0.1" stroke="#000000" stroke-width="1" x1="130" y1="20" x2="1003" y2="20"/>
<text x="20" y="339" dy="0.76em" text-anchor="middle" font-family="sans-serif" font-size="24.193548387096776" opacity="1" fill="#000000" transform="rotate(270, 20, 339)">
Power [dB]
</text>
<text x="567" y="748" dy="-0.5ex" text-anchor="middle" font-family="sans-serif" font-size="24.193548387096776" opacity="1" fill="#000000">
Frequency [Hz]
</text>
<line opacity="0.2" stroke="#000000" stroke-width="1" x1="130" y1="657" x2="130" y2="20"/>
<line opacity="0.2" stroke="#000000" stroke-width="1" x1="239" y1="657" x2="239" y2="20"/>
<line opacity="0.2" stroke="#000000" stroke-width="1" x1="348" y1="657" x2="348" y2="20"/>
<line opacity="0.2" stroke="#000000" stroke-width="1" x1="457" y1="657" x2="457" y2="20"/>
<line opacity="0.2" stroke="#000000" stroke-width="1" x1="566" y1="657" x2="566" y2="20"/>
<line opacity="0.2" stroke="#000000" stroke-width="1" x1="675" y1="657" x2="675" y2="20"/>
<line opacity="0.2" stroke="#000000" stroke-width="1" x1="784" y1="657" x2="784" y2="20"/>
<line opacity="0.2" stroke="#000000" stroke-width="1" x1="893" y1="657" x2="893" y2="20"/>
<line opacity="0.2" stroke="#000000" stroke-width="1" x1="1003" y1="657" x2="1003" y2="20"/>
<line opacity="0.2" stroke="#000000" stroke-width="1" x1="130" y1="657" x2="1003" y2="657"/>
<line opacity="0.2" stroke="#000000" stroke-width="1" x1="130" y1="578" x2="1003" y2="578"/>
<line opacity="0.2" stroke="#000000" stroke-width="1" x1="130" y1="498" x2="1003" y2="498"/>
<line opacity="0.2" stroke="#000000" stroke-width="1" x1="130" y1="419" x2="1003" y2="419"/>
<line opacity="0.2" stroke="#000000" stroke-width="1" x1="130" y1="339" x2="1003" y2="339"/>
<line opacity="0.2" stroke="#000000" stroke-width="1" x1="130" y1="259" x2="1003" y2="259"/>
<line opacity="0.2" stroke="#000000" stroke-width="1" x1="130" y1="180" x2="1003" y2="180"/>
<line opacity="0.2" stroke="#000000" stroke-width="1" x1="130" y1="100" x2="1003" y2="100"/>
<line opacity="0.2" stroke="#000000" stroke-width="1" x1="130" y1="20" x2="1003" y2="20"/>
<polyline fill="none" opacity="1" stroke="#000000" stroke-width="1" points="129,20 129,657 "/>
<text x="120" y="657" dy="0.5ex" text-anchor="end" font-family="sans-serif" font-size="24.193548387096776" opacity="1" fill="#000000">
-60.0
</text>
<polyline fill="none" opacity="1" stroke="#000000" stroke-width="1" points="124,657 129,657 "/>
<text x="120" y="578" dy="0.5ex" text-anchor="end" font-family="sans-serif" font-size="24.193548387096776" opacity="1" fill="#000000">
-50.0
</text>
<polyline fill="none" opacity="1" stroke="#000000" stroke-width="1" points="124,578 129,578 "/>
<text x="120" y="498" dy="0.5ex" text-anchor="end" font-family="sans-serif" font-size="24.193548387096776" opacity="1" fill="#000000">
-40.0
</text>
<polyline fill="none" opacity="1" stroke="#000000" stroke-width="1" points="124,498 129,498 "/>
<text x="120" y="419" dy="0.5ex" text-anchor="end" font-family="sans-serif" font-size="24.193548387096776" opacity="1" fill="#000000">
-30.0
</text>
<polyline fill="none" opacity="1" stroke="#000000" stroke-width="1" points="124,419 129,419 "/>
<text x="120" y="339" dy="0.5ex" text-anchor="end" font-family="sans-serif" font-size="24.193548387096776" opacity="1" fill="#000000">
-20.0
</text>
<polyline fill="none" opacity="1" stroke="#000000" stroke-width="1" points="124,339 129,339 "/>
<text x="120" y="259" dy="0.5ex" text-anchor="end" font-family="sans-serif" font-size="24.193548387096776" opacity="1" fill="#000000">
-10.0
</text>
<polyline fill="none" opacity="1" stroke="#000000" stroke-width="1" points="124,259 129,259 "/>
<text x="120" y="180" dy="0.5ex" text-anchor="end" font-family="sans-serif" font-size="24.193548387096776" opacity="1" fill="#000000">
0.0
</text>
<polyline fill="none" opacity="1" stroke="#000000" stroke-width="1" points="124,180 129,180 "/>
<text x="120" y="100" dy="0.5ex" text-anchor="end" font-family="sans-serif" font-size="24.193548387096776" opacity="1" fill="#000000">
10.0
</text>
<polyline fill="none" opacity="1" stroke="#000000" stroke-width="1" points="124,100 129,100 "/>
<text x="120" y="20" dy="0.5ex" text-anchor="end" font-family="sans-serif" font-size="24.193548387096776" opacity="1" fill="#000000">
20.0
</text>
<polyline fill="none" opacity="1" stroke="#000000" stroke-width="1" points="124,20 129,20 "/>
<polyline fill="none" opacity="1" stroke="#000000" stroke-width="1" points="130,658 1003,658 "/>
<text x="130" y="668" dy="0.76em" text-anchor="middle" font-family="sans-serif" font-size="24.193548387096776" opacity="1" fill="#000000">
0.0
</text>
<polyline fill="none" opacity="1" stroke="#000000" stroke-width="1" points="130,658 130,663 "/>
<text x="239" y="668" dy="0.76em" text-anchor="middle" font-family="sans-serif" font-size="24.193548387096776" opacity="1" fill="#000000">
1000.0
</text>
<polyline fill="none" opacity="1" stroke="#000000" stroke-width="1" points="239,658 239,663 "/>
<text x="348" y="668" dy="0.76em" text-anchor="middle" font-family="sans-serif" font-size="24.193548387096776" opacity="1" fill="#000000">
2000.0
</text>
<polyline fill="none" opacity="1" stroke="#000000" stroke-width="1" points="348,658 348,663 "/>
<text x="457" y="668" dy="0.76em" text-anchor="middle" font-family="sans-serif" font-size="24.193548387096776" opacity="1" fill="#000000">
3000.0
</text>
<polyline fill="none" opacity="1" stroke="#000000" stroke-width="1" points="457,658 457,663 "/>
<text x="566" y="668" dy="0.76em" text-anchor="middle" font-family="sans-serif" font-size="24.193548387096776" opacity="1" fill="#000000">
4000.0
</text>
<polyline fill="none" opacity="1" stroke="#000000" stroke-width="1" points="566,658 566,663 "/>
<text x="675" y="668" dy="0.76em" text-anchor="middle" font-family="sans-serif" font-size="24.193548387096776" opacity="1" fill="#000000">
5000.0
</text>
<polyline fill="none" opacity="1" stroke="#000000" stroke-width="1" points="675,658 675,663 "/>
<text x="784" y="668" dy="0.76em" text-anchor="middle" font-family="sans-serif" font-size="24.193548387096776" opacity="1" fill="#000000">
6000.0
</text>
<polyline fill="none" opacity="1" stroke="#000000" stroke-width="1" points="784,658 784,663 "/>
<text x="893" y="668" dy="0.76em" text-anchor="middle" font-family="sans-serif" font-size="24.193548387096776" opacity="1" fill="#000000">
7000.0
</text>
<polyline fill="none" opacity="1" stroke="#000000" stroke-width="1" points="893,658 893,663 "/>
<text x="1003" y="668" dy="0.76em" text-anchor="middle" font-family="sans-serif" font-size="24.193548387096776" opacity="1" fill="#000000">
8000.0
</text>
<polyline fill="none" opacity="1" stroke="#000000" stroke-width="1" points="1003,658 1003,663 "/>
<polyline fill="none" opacity="1" stroke="#E6194B" stroke-width="1" points="130,289 131,296 133,268 134,363 136,341 137,332 139,230 140,236 142,211 143,213 145,224 146,323 148,203 149,176 151,105 152,84 154,89 155,147 157,149 158,270 160,278 161,203 163,245 164,264 166,241 167,215 169,175 170,241 172,161 173,155 175,201 176,242 178,213 180,188 181,207 183,145 184,173 186,205 187,247 189,205 190,274 192,240 193,238 195,204 196,222 198,275 199,206 201,221 202,203 204,190 205,217 207,195 208,172 210,236 211,208 213,327 214,240 216,247 217,291 219,220 220,228 222,273 223,291 225,241 227,237 228,221 230,209 231,227 233,263 234,218 236,239 237,359 239,285 240,280 242,288 243,335 245,275 246,245 248,238 249,213 251,207 252,221 254,215 255,197 257,199 258,241 260,218 261,199 263,291 264,221 266,234 267,236 269,337 270,266 272,234 273,261 275,260 277,243 278,292 280,252 281,223 283,212 284,224 286,254 287,216 289,258 290,218 292,229 293,272 295,277 296,199 298,234 299,243 301,245 302,296 304,222 305,239 307,279 308,267 310,226 311,219 313,208 314,304 316,194 317,200 319,216 320,183 322,269 324,260 325,267 327,294 328,294 330,193 331,168 333,166 334,182 336,149 337,124 339,189 340,139 342,193 343,180 345,174 346,185 348,208 349,219 351,273 352,286 354,168 355,155 357,168 358,185 360,177 361,164 363,190 364,172 366,144 367,150 369,209 370,217 372,152 374,132 375,141 377,135 378,138 380,155 381,145 383,137 384,154 386,176 387,147 389,161 390,263 392,191 393,289 395,185 396,191 398,259 399,215 401,218 402,244 404,250 405,223 407,204 408,248 410,188 411,178 413,202 414,239 416,222 417,267 419,228 421,203 422,205 424,228 425,237 427,245 428,322 430,261 431,272 433,291 434,259 436,229 437,220 439,241 440,236 442,227 443,266 445,261 446,225 448,222 449,234 451,269 452,321 454,248 455,232 457,286 458,259 460,261 461,278 463,247 464,230 466,293 467,282 469,364 471,322 472,270 474,245 475,304 477,258 478,377 480,262 481,234 483,252 484,366 486,239 487,230 489,347 490,229 492,230 493,320 495,246 496,241 498,301 499,245 501,292 502,237 504,224 505,298 507,294 508,314 510,348 511,301 513,244 514,225 516,273 518,208 519,246 521,221 522,255 524,219 525,215 527,235 528,227 530,237 531,272 533,243 534,248 536,274 537,276 539,252 540,221 542,212 543,238 545,250 546,288 548,249 549,306 551,283 552,328 554,353 555,283 557,276 558,328 560,292 561,337 563,298 564,315 566,252 568,256 569,320 571,344 572,314 574,298 575,359 577,285 578,291 580,405 581,288 583,272 584,357 586,285 587,326 589,374 590,386 592,462 593,365 595,393 596,391 598,333 599,295 601,303 602,363 604,420 605,389 607,373 608,357 610,316 611,343 613,327 615,309 616,318 618,313 619,295 621,351 622,307 624,352 625,320 627,311 628,325 630,356 631,377 633,375 634,526 636,392 637,420 639,448 640,444 642,459 643,385 645,380 646,332 648,323 649,369 651,443 652,452 654,451 655,430 657,439 658,453 660,382 661,318 663,309 665,335 666,379 668,389 669,402 671,423 672,471 674,430 675,400 677,416 678,425 680,464 681,398 683,411 684,465 686,488 687,457 689,504 690,577 692,524 693,557 695,557 696,597 698,563 699,590 701,559 702,575 704,579 705,533 707,524 708,435 710,425 712,414 713,456 715,363 716,357 718,403 719,448 721,422 722,452 724,380 725,370 727,451 728,397 730,398 731,428 733,422 734,500 736,459 737,471 739,485 740,430 742,465 743,495 745,434 746,422 748,416 749,392 751,339 752,354 754,450 755,440 757,498 758,401 760,441 762,438 763,550 765,481 766,452 768,448 769,466 771,512 772,445 774,450 775,469 777,490 778,525 780,541 781,658 783,632 784,585 786,614 787,658 789,590 790,599 792,658 793,613 795,600 796,641 798,633 799,582 801,547 802,613 804,612 805,477 807,469 809,477 810,423 812,410 813,425 815,406 816,348 818,351 819,401 821,462 822,465 824,507 825,448 827,443 828,381 830,408 831,395 833,407 834,409 836,413 837,379 839,361 840,385 842,456 843,390 845,501 846,398 848,433 849,477 851,489 852,433 854,370 855,352 857,370 859,421 860,500 862,456 863,414 865,389 866,373 868,376 869,439 871,567 872,467 874,494 875,553 877,465 878,488 880,457 881,395 883,366 884,410 886,395 887,435 889,457 890,658 892,446 893,405 895,475 896,405 898,483 899,493 901,473 902,625 904,431 906,486 907,469 909,547 910,618 912,407 913,359 915,352 916,379 918,411 919,402 921,367 922,417 924,406 925,451 927,397 928,415 930,454 931,472 933,408 934,372 936,402 937,464 939,498 940,533 942,551 943,520 945,555 946,508 948,478 949,480 951,478 952,462 954,466 956,483 957,516 959,469 960,440 962,475 963,497 965,443 966,396 968,374 969,386 971,409 972,415 974,372 975,363 977,392 978,443 980,499 981,489 983,487 984,417 986,402 987,408 989,443 990,422 992,411 993,506 995,447 996,425 998,389 999,401 1001,499 1003,466 1004,499 1004,401 1004,389 1004,425 1004,447 1004,506 1004,411 1004,422 1004,443 1004,408 1004,402 1004,417 1004,487 1004,489 1004,499 1004,443 1004,392 1004,363 1004,372 1004,415 1004,409 1004,386 1004,374 1004,396 1004,443 1004,497 1004,475 1004,440 1004,469 1004,516 1004,483 1004,466 1004,462 1004,478 1004,480 1004,478 1004,508 1004,555 1004,520 1004,551 1004,533 1004,498 1004,464 1004,402 1004,372 1004,408 1004,472 1004,454 1004,415 1004,397 1004,451 1004,406 1004,417 1004,367 1004,402 1004,411 1004,379 1004,352 1004,359 1004,407 1004,618 1004,547 1004,469 1004,486 1004,431 1004,625 1004,473 1004,493 1004,483 1004,405 1004,475 1004,405 1004,446 1004,658 1004,457 1004,435 1004,395 1004,410 1004,366 1004,395 1004,457 1004,488 1004,465 1004,553 1004,494 1004,467 1004,567 1004,439 1004,376 1004,373 1004,389 1004,414 1004,456 1004,500 1004,421 1004,370 1004,352 1004,370 1004,433 1004,489 1004,477 1004,433 1004,398 1004,501 1004,390 1004,456 1004,385 1004,361 1004,379 1004,413 1004,409 1004,407 1004,395 1004,408 1004,381 1004,443 1004,448 1004,507 1004,465 1004,462 1004,401 1004,351 1004,348 1004,406 1004,425 1004,410 1004,423 1004,477 1004,469 1004,477 1004,612 1004,613 1004,547 1004,582 1004,633 1004,641 1004,600 1004,613 1004,658 1004,599 1004,590 1004,658 1004,614 1004,585 1004,632 1004,658 1004,541 1004,525 1004,490 1004,469 1004,450 1004,445 1004,512 1004,466 1004,448 1004,452 1004,481 1004,550 1004,438 1004,441 1004,401 1004,498 1004,440 1004,450 1004,354 1004,339 1004,392 1004,416 1004,422 1004,434 1004,495 1004,465 1004,430 1004,485 1004,471 1004,459 1004,500 1004,422 1004,428 1004,398 1004,397 1004,451 1004,370 1004,380 1004,452 1004,422 1004,448 1004,403 1004,357 1004,363 1004,456 1004,414 1004,425 1004,435 1004,524 1004,533 1004,579 1004,575 1004,559 1004,590 1004,563 1004,597 1004,557 1004,557 1004,524 1004,577 1004,504 1004,457 1004,488 1004,465 1004,411 1004,398 1004,464 1004,425 1004,416 1004,400 1004,430 1004,471 1004,423 1004,402 1004,389 1004,379 1004,335 1004,309 1004,318 1004,382 1004,453 1004,439 1004,430 1004,451 1004,452 1004,443 1004,369 1004,323 1004,332 1004,380 1004,385 1004,459 1004,444 1004,448 1004,420 1004,392 1004,526 1004,375 1004,377 1004,356 1004,325 1004,311 1004,320 1004,352 1004,307 1004,351 1004,295 1004,313 1004,318 1004,309 1004,327 1004,343 1004,316 1004,357 1004,373 1004,389 1004,420 1004,363 1004,303 1004,295 1004,333 1004,391 1004,393 1004,365 1004,462 1004,386 1004,374 1004,326 1004,285 1004,357 1004,272 1004,288 1004,405 1004,291 1004,285 1004,359 1004,298 1004,314 1004,344 1004,320 1004,256 1004,252 1004,315 1004,298 1004,337 1004,292 1004,328 1004,276 1004,283 1004,353 1004,328 1004,283 1004,306 1004,249 1004,288 1004,250 1004,238 1004,212 1004,221 1004,252 1004,276 1004,274 1004,248 1004,243 1004,272 1004,237 1004,227 1004,235 1004,215 1004,219 1004,255 1004,221 1004,246 1004,208 1004,273 1004,225 1004,244 1004,301 1004,348 1004,314 1004,294 1004,298 1004,224 1004,237 1004,292 1004,245 1004,301 1004,241 1004,246 1004,320 1004,230 1004,229 1004,347 1004,230 1004,239 1004,366 1004,252 1004,234 1004,262 1004,377 1004,258 1004,304 1004,245 1004,270 1004,322 1004,364 1004,282 1004,293 1004,230 1004,247 1004,278 1004,261 1004,259 1004,286 1004,232 1004,248 1004,321 1004,269 1004,234 1004,222 1004,225 1004,261 1004,266 1004,227 1004,236 1004,241 1004,220 1004,229 1004,259 1004,291 1004,272 1004,261 1004,322 1004,245 1004,237 1004,228 1004,205 1004,203 1004,228 1004,267 1004,222 1004,239 1004,202 1004,178 1004,188 1004,248 1004,204 1004,223 1004,250 1004,244 1004,218 1004,215 1004,259 1004,191 1004,185 1004,289 1004,191 1004,263 1004,161 1004,147 1004,176 1004,154 1004,137 1004,145 1004,155 1004,138 1004,135 1004,141 1004,132 1004,152 1004,217 1004,209 1004,150 1004,144 1004,172 1004,190 1004,164 1004,177 1004,185 1004,168 1004,155 1004,168 1004,286 1004,273 1004,219 1004,208 1004,185 1004,174 1004,180 1004,193 1004,139 1004,189 1004,124 1004,149 1004,182 1004,166 1004,168 1004,193 1004,294 1004,294 1004,267 1004,260 1004,269 1004,183 1004,216 1004,200 1004,194 1004,304 1004,208 1004,219 1004,226 1004,267 1004,279 1004,239 1004,222 1004,296 1004,245 1004,243 1004,234 1004,199 1004,277 1004,272 1004,229 1004,218 1004,258 1004,216 1004,254 1004,224 1004,212 1004,223 1004,252 1004,292 1004,243 1004,260 1004,261 1004,234 1004,266 1004,337 1004,236 1004,234 1004,221 1004,291 1004,199 1004,218 1004,241 1004,199 1004,197 1004,215 1004,221 1004,207 1004,213 1004,238 1004,245 1004,275 1004,335 1004,288 1004,280 1004,285 1004,359 1004,239 1004,218 1004,263 1004,227 1004,209 1004,221 1004,237 1004,241 1004,291 1004,273 1004,228 1004,220 1004,291 1004,247 1004,240 1004,327 1004,208 1004,236 1004,172 1004,195 1004,217 1004,190 1004,203 1004,221 1004,206 1004,275 1004,222 1004,204 1004,238 1004,240 1004,274 1004,205 1004,247 1004,205 1004,173 1004,145 1004,207 1004,188 1004,213 1004,242 1004,201 1004,155 1004,161 1004,241 1004,175 1004,215 1004,241 1004,264 1004,245 1004,203 1004,278 1004,270 1004,149 1004,147 1004,89 1004,84 1004,105 1004,176 1004,203 1004,323 1004,224 1004,213 1004,211 1004,236 1004,230 1004,332 1004,341 1004,363 1004,268 1004,296 "/>
<polyline fill="none" opacity="1" stroke="#3CB44B" stroke-width="1" points="130,301 131,301 133,301 134,300 136,299 137,298 139,297 140,296 142,294 143,292 145,290 146,288 148,286 149,284 151,282 152,280 154,277 155,275 157,273 158,271 160,269 161,268 163,266 164,265 166,264 167,264 169,263 170,263 172,263 173,264 175,264 176,265 178,266 180,267 181,269 183,270 184,272 186,273 187,275 189,276 190,278 192,279 193,281 195,282 196,283 198,284 199,285 201,286 202,287 204,288 205,289 207,290 208,290 210,291 211,291 213,292 214,292 216,293 217,293 219,293 220,293 222,293 223,294 225,294 227,294 228,294 230,294 231,294 233,294 234,294 236,294 237,294 239,294 240,294 242,294 243,294 245,294 246,294 248,294 249,294 251,293 252,293 254,293 255,293 257,292 258,292 260,292 261,292 263,291 264,291 266,291 267,291 269,291 270,290 272,290 273,290 275,290 277,290 278,290 280,290 281,290 283,290 284,291 286,291 287,291 289,291 290,291 292,291 293,291 295,292 296,292 298,292 299,292 301,291 302,291 304,291 305,291 307,290 308,290 310,289 311,289 313,288 314,287 316,286 317,285 319,284 320,283 322,282 324,281 325,280 327,278 328,277 330,276 331,274 333,273 334,272 336,270 337,269 339,268 340,267 342,265 343,264 345,263 346,262 348,261 349,261 351,260 352,259 354,259 355,259 357,258 358,258 360,258 361,258 363,259 364,259 366,260 367,260 369,261 370,262 372,263 374,264 375,266 377,267 378,269 380,270 381,272 383,273 384,275 386,277 387,279 389,281 390,283 392,284 393,286 395,288 396,290 398,292 399,293 401,295 402,296 404,298 405,299 407,301 408,302 410,303 411,304 413,305 414,306 416,306 417,307 419,308 421,308 422,309 424,309 425,309 427,310 428,310 430,310 431,310 433,310 434,311 436,311 437,311 439,311 440,312 442,312 443,313 445,313 446,314 448,314 449,315 451,316 452,316 454,317 455,318 457,319 458,320 460,320 461,321 463,322 464,323 466,324 467,324 469,325 471,325 472,326 474,326 475,326 477,326 478,326 480,326 481,326 483,326 484,325 486,325 487,324 489,323 490,323 492,322 493,321 495,320 496,319 498,318 499,317 501,316 502,315 504,314 505,313 507,312 508,311 510,311 511,310 513,310 514,310 516,309 518,310 519,310 521,310 522,311 524,311 525,312 527,313 528,314 530,315 531,317 533,318 534,320 536,321 537,323 539,325 540,327 542,329 543,331 545,333 546,335 548,337 549,339 551,341 552,343 554,345 555,347 557,348 558,350 560,352 561,353 563,355 564,356 566,357 568,358 569,359 571,360 572,361 574,362 575,363 577,363 578,364 580,364 581,364 583,364 584,365 586,365 587,365 589,365 590,365 592,365 593,365 595,365 596,365 598,365 599,365 601,365 602,365 604,366 605,366 607,366 608,367 610,368 611,368 613,369 615,370 616,370 618,371 619,372 621,373 622,374 624,375 625,376 627,377 628,378 630,379 631,380 633,381 634,382 636,382 637,383 639,384 640,385 642,385 643,386 645,387 646,387 648,388 649,388 651,389 652,390 654,391 655,392 657,393 658,394 660,395 661,396 663,397 665,399 666,400 668,402 669,404 671,406 672,408 674,410 675,412 677,414 678,416 680,418 681,420 683,422 684,424 686,426 687,428 689,429 690,430 692,431 693,432 695,433 696,433 698,433 699,433 701,432 702,431 704,430 705,429 707,427 708,425 710,423 712,420 713,417 715,414 716,411 718,408 719,404 721,401 722,397 724,394 725,390 727,387 728,384 730,381 731,379 733,377 734,375 736,374 737,373 739,373 740,373 742,374 743,376 745,378 746,380 748,383 749,386 751,390 752,394 754,398 755,403 757,407 758,412 760,416 762,421 763,425 765,430 766,434 768,438 769,442 771,445 772,448 774,451 775,454 777,456 778,458 780,459 781,460 783,461 784,461 786,461 787,461 789,460 790,459 792,457 793,455 795,453 796,451 798,448 799,445 801,442 802,438 804,435 805,431 807,427 809,423 810,418 812,414 813,410 815,406 816,401 818,397 819,393 821,389 822,386 824,382 825,379 827,376 828,373 830,371 831,369 833,367 834,366 836,365 837,365 839,365 840,365 842,366 843,367 845,368 846,369 848,371 849,373 851,375 852,377 854,380 855,382 857,384 859,386 860,389 862,391 863,393 865,395 866,397 868,398 869,400 871,401 872,402 874,403 875,404 877,405 878,405 880,405 881,405 883,405 884,404 886,404 887,403 889,402 890,401 892,400 893,399 895,398 896,396 898,395 899,394 901,393 902,392 904,391 906,390 907,390 909,389 910,389 912,388 913,388 915,388 916,389 918,389 919,390 921,390 922,391 924,392 925,393 927,394 928,395 930,396 931,397 933,398 934,399 936,399 937,400 939,401 940,401 942,402 943,402 945,402 946,402 948,402 949,401 951,401 952,401 954,400 956,399 957,398 959,398 960,397 962,396 963,395 965,394 966,393 968,392 969,391 971,390 972,389 974,388 975,387 977,387 978,386 980,385 981,385 983,385 984,384 986,384 987,384 989,384 990,384 992,384 993,384 995,383 996,383 998,383 999,384 1001,384 1003,384 1004,384 1004,384 1004,383 1004,383 1004,383 1004,384 1004,384 1004,384 1004,384 1004,384 1004,384 1004,384 1004,385 1004,385 1004,385 1004,386 1004,387 1004,387 1004,388 1004,389 1004,390 1004,391 1004,392 1004,393 1004,394 1004,395 1004,396 1004,397 1004,398 1004,398 1004,399 1004,400 1004,401 1004,401 1004,401 1004,402 1004,402 1004,402 1004,402 1004,402 1004,401 1004,401 1004,400 1004,399 1004,399 1004,398 1004,397 1004,396 1004,395 1004,394 1004,393 1004,392 1004,391 1004,390 1004,390 1004,389 1004,389 1004,388 1004,388 1004,388 1004,389 1004,389 1004,390 1004,390 1004,391 1004,392 1004,393 1004,394 1004,395 1004,396 1004,398 1004,399 1004,400 1004,401 1004,402 1004,403 1004,404 1004,404 1004,405 1004,405 1004,405 1004,405 1004,405 1004,404 1004,403 1004,402 1004,401 1004,400 1004,398 1004,397 1004,395 1004,393 1004,391 1004,389 1004,386 1004,384 1004,382 1004,380 1004,377 1004,375 1004,373 1004,371 1004,369 1004,368 1004,367 1004,366 1004,365 1004,365 1004,365 1004,365 1004,366 1004,367 1004,369 1004,371 1004,373 1004,376 1004,379 1004,382 1004,386 1004,389 1004,393 1004,397 1004,401 1004,406 1004,410 1004,414 1004,418 1004,423 1004,427 1004,431 1004,435 1004,438 1004,442 1004,445 1004,448 1004,451 1004,453 1004,455 1004,457 1004,459 1004,460 1004,461 1004,461 1004,461 1004,461 1004,460 1004,459 1004,458 1004,456 1004,454 1004,451 1004,448 1004,445 1004,442 1004,438 1004,434 1004,430 1004,425 1004,421 1004,416 1004,412 1004,407 1004,403 1004,398 1004,394 1004,390 1004,386 1004,383 1004,380 1004,378 1004,376 1004,374 1004,373 1004,373 1004,373 1004,374 1004,375 1004,377 1004,379 1004,381 1004,384 1004,387 1004,390 1004,394 1004,397 1004,401 1004,404 1004,408 1004,411 1004,414 1004,417 1004,420 1004,423 1004,425 1004,427 1004,429 1004,430 1004,431 1004,432 1004,433 1004,433 1004,433 1004,433 1004,432 1004,431 1004,430 1004,429 1004,428 1004,426 1004,424 1004,422 1004,420 1004,418 1004,416 1004,414 1004,412 1004,410 1004,408 1004,406 1004,404 1004,402 1004,400 1004,399 1004,397 1004,396 1004,395 1004,394 1004,393 1004,392 1004,391 1004,390 1004,389 1004,388 1004,388 1004,387 1004,387 1004,386 1004,385 1004,385 1004,384 1004,383 1004,382 1004,382 1004,381 1004,380 1004,379 1004,378 1004,377 1004,376 1004,375 1004,374 1004,373 1004,372 1004,371 1004,370 1004,370 1004,369 1004,368 1004,368 1004,367 1004,366 1004,366 1004,366 1004,365 1004,365 1004,365 1004,365 1004,365 1004,365 1004,365 1004,365 1004,365 1004,365 1004,365 1004,365 1004,365 1004,364 1004,364 1004,364 1004,364 1004,363 1004,363 1004,362 1004,361 1004,360 1004,359 1004,358 1004,357 1004,356 1004,355 1004,353 1004,352 1004,350 1004,348 1004,347 1004,345 1004,343 1004,341 1004,339 1004,337 1004,335 1004,333 1004,331 1004,329 1004,327 1004,325 1004,323 1004,321 1004,320 1004,318 1004,317 1004,315 1004,314 1004,313 1004,312 1004,311 1004,311 1004,310 1004,310 1004,310 1004,309 1004,310 1004,310 1004,310 1004,311 1004,311 1004,312 1004,313 1004,314 1004,315 1004,316 1004,317 1004,318 1004,319 1004,320 1004,321 1004,322 1004,323 1004,323 1004,324 1004,325 1004,325 1004,326 1004,326 1004,326 1004,326 1004,326 1004,326 1004,326 1004,326 1004,325 1004,325 1004,324 1004,324 1004,323 1004,322 1004,321 1004,320 1004,320 1004,319 1004,318 1004,317 1004,316 1004,316 1004,315 1004,314 1004,314 1004,313 1004,313 1004,312 1004,312 1004,311 1004,311 1004,311 1004,311 1004,310 1004,310 1004,310 1004,310 1004,310 1004,309 1004,309 1004,309 1004,308 1004,308 1004,307 1004,306 1004,306 1004,305 1004,304 1004,303 1004,302 1004,301 1004,299 1004,298 1004,296 1004,295 1004,293 1004,292 1004,290 1004,288 1004,286 1004,284 1004,283 1004,281 1004,279 1004,277 1004,275 1004,273 1004,272 1004,270 1004,269 1004,267 1004,266 1004,264 1004,263 1004,262 1004,261 1004,260 1004,260 1004,259 1004,259 1004,258 1004,258 1004,258 1004,258 1004,259 1004,259 1004,259 1004,260 1004,261 1004,261 1004,262 1004,263 1004,264 1004,265 1004,267 1004,268 1004,269 1004,270 1004,272 1004,273 1004,274 1004,276 1004,277 1004,278 1004,280 1004,281 1004,282 1004,283 1004,284 1004,285 1004,286 1004,287 1004,288 1004,289 1004,289 1004,290 1004,290 1004,291 1004,291 1004,291 1004,291 1004,292 1004,292 1004,292 1004,292 1004,291 1004,291 1004,291 1004,291 1004,291 1004,291 1004,291 1004,290 1004,290 1004,290 1004,290 1004,290 1004,290 1004,290 1004,290 1004,290 1004,291 1004,291 1004,291 1004,291 1004,291 1004,292 1004,292 1004,292 1004,292 1004,293 1004,293 1004,293 1004,293 1004,294 1004,294 1004,294 1004,294 1004,294 1004,294 1004,294 1004,294 1004,294 1004,294 1004,294 1004,294 1004,294 1004,294 1004,294 1004,294 1004,294 1004,294 1004,293 1004,293 1004,293 1004,293 1004,293 1004,292 1004,292 1004,291 1004,291 1004,290 1004,290 1004,289 1004,288 1004,287 1004,286 1004,285 1004,284 1004,283 1004,282 1004,281 1004,279 1004,278 1004,276 1004,275 1004,273 1004,272 1004,270 1004,269 1004,267 1004,266 1004,265 1004,264 1004,264 1004,263 1004,263 1004,263 1004,264 1004,264 1004,265 1004,266 1004,268 1004,269 1004,271 1004,273 1004,275 1004,277 1004,280 1004,282 1004,284 1004,286 1004,288 1004,290 1004,292 1004,294 1004,296 1004,297 1004,298 1004,299 1004,300 1004,301 1004,301 "/>
<polyline fill="none" opacity="1" stroke="#FFE119" stroke-width="1" points="130,431 131,431 133,431 134,431 136,431 137,431 139,432 140,432 142,432 143,432 145,432 146,432 148,432 149,432 151,432 152,433 154,433 155,433 157,433 158,433 160,433 161,433 163,433 164,433 166,433 167,433 169,432 170,432 172,432 173,432 175,432 176,432 178,432 180,432 181,432 183,432 184,432 186,432 187,432 189,433 190,433 192,433 193,433 195,433 196,433 198,433 199,433 201,434 202,434 204,434 205,434 207,434 208,434 210,434 211,434 213,434 214,434 216,434 217,433 219,433 220,433 222,433 223,433 225,432 227,432 228,432 230,432 231,432 233,431 234,431 236,431 237,431 239,430 240,430 242,430 243,430 245,430 246,430 248,430 249,430 251,430 252,430 254,430 255,430 257,430 258,430 260,430 261,430 263,430 264,430 266,430 267,430 269,430 270,430 272,430 273,430 275,430 277,430 278,430 280,430 281,429 283,429 284,429 286,429 287,429 289,429 290,429 292,429 293,428 295,428 296,428 298,428 299,428 301,428 302,428 304,428 305,429 307,429 308,429 310,429 311,429 313,429 314,430 316,430 317,430 319,430 320,430 322,431 324,431 325,431 327,431 328,431 330,432 331,432 333,432 334,432 336,432 337,432 339,432 340,432 342,432 343,432 345,432 346,433 348,433 349,433 351,433 352,433 354,433 355,433 357,433 358,433 360,433 361,433 363,433 364,433 366,433 367,433 369,433 370,433 372,433 374,433 375,433 377,433 378,433 380,433 381,433 383,433 384,433 386,433 387,433 389,433 390,434 392,434 393,434 395,434 396,434 398,434 399,434 401,434 402,435 404,435 405,435 407,435 408,435 410,435 411,436 413,436 414,436 416,436 417,436 419,436 421,436 422,437 424,437 425,437 427,437 428,437 430,437 431,437 433,437 434,438 436,438 437,438 439,438 440,438 442,438 443,438 445,439 446,439 448,439 449,439 451,439 452,440 454,440 455,440 457,440 458,441 460,441 461,441 463,441 464,441 466,441 467,442 469,442 471,442 472,442 474,442 475,442 477,442 478,442 480,442 481,441 483,441 484,441 486,441 487,441 489,440 490,440 492,440 493,440 495,440 496,439 498,439 499,439 501,439 502,439 504,438 505,438 507,438 508,438 510,438 511,438 513,438 514,438 516,438 518,438 519,438 521,438 522,438 524,437 525,437 527,437 528,437 530,437 531,437 533,437 534,436 536,436 537,436 539,436 540,435 542,435 543,435 545,434 546,434 548,434 549,433 551,433 552,432 554,432 555,432 557,431 558,431 560,431 561,431 563,430 564,430 566,430 568,430 569,430 571,430 572,430 574,431 575,431 577,432 578,432 580,433 581,434 583,435 584,437 586,438 587,440 589,442 590,444 592,446 593,448 595,450 596,452 598,455 599,457 601,459 602,461 604,463 605,465 607,467 608,469 610,471 611,472 613,474 615,475 616,477 618,478 619,479 621,479 622,480 624,481 625,481 627,482 628,482 630,482 631,482 633,483 634,483 636,484 637,484 639,485 640,487 642,488 643,490 645,493 646,496 648,499 649,502 651,506 652,510 654,514 655,518 657,522 658,526 660,530 661,534 663,538 665,542 666,546 668,549 669,553 671,556 672,559 674,562 675,565 677,568 678,570 680,572 681,574 683,576 684,578 686,580 687,582 689,583 690,584 692,585 693,586 695,587 696,587 698,587 699,588 701,587 702,587 704,587 705,586 707,585 708,584 710,583 712,581 713,580 715,578 716,576 718,573 719,570 721,567 722,564 724,561 725,557 727,554 728,550 730,547 731,544 733,542 734,542 736,542 737,544 739,547 740,551 742,556 743,561 745,566 746,571 748,576 749,581 751,586 752,591 754,595 755,599 757,603 758,607 760,610 762,613 763,616 765,619 766,621 768,623 769,625 771,627 772,629 774,630 775,632 777,633 778,634 780,635 781,635 783,636 784,636 786,636 787,636 789,636 790,636 792,635 793,635 795,634 796,633 798,632 799,630 801,629 802,627 804,625 805,623 807,620 809,618 810,615 812,612 813,608 815,605 816,601 818,597 819,592 821,588 822,583 824,578 825,573 827,567 828,562 830,558 831,554 833,551 834,549 836,549 837,551 839,553 840,556 842,560 843,564 845,568 846,572 848,576 849,579 851,582 852,585 854,588 855,590 857,592 859,594 860,596 862,597 863,598 865,599 866,599 868,600 869,600 871,600 872,599 874,599 875,598 877,597 878,596 880,595 881,593 883,592 884,590 886,588 887,587 889,585 890,583 892,581 893,580 895,578 896,577 898,576 899,576 901,575 902,576 904,576 906,577 907,578 909,580 910,582 912,583 913,585 915,587 916,589 918,591 919,593 921,595 922,597 924,598 925,600 927,601 928,602 930,603 931,604 933,605 934,606 936,606 937,606 939,606 940,607 942,606 943,606 945,606 946,606 948,605 949,604 951,604 952,603 954,602 956,601 957,601 959,600 960,599 962,598 963,597 965,597 966,596 968,596 969,595 971,595 972,595 974,595 975,596 977,596 978,596 980,597 981,597 983,598 984,599 986,599 987,600 989,601 990,601 992,602 993,602 995,603 996,603 998,604 999,604 1001,604 1003,604 1004,604 1004,604 1004,604 1004,603 1004,603 1004,602 1004,602 1004,601 1004,601 1004,600 1004,599 1004,599 1004,598 1004,597 1004,597 1004,596 1004,596 1004,596 1004,595 1004,595 1004,595 1004,595 1004,596 1004,596 1004,597 1004,597 1004,598 1004,599 1004,600 1004,601 1004,601 1004,602 1004,603 1004,604 1004,604 1004,605 1004,606 1004,606 1004,606 1004,606 1004,607 1004,606 1004,606 1004,606 1004,606 1004,605 1004,604 1004,603 1004,602 1004,601 1004,600 1004,598 1004,597 1004,595 1004,593 1004,591 1004,589 1004,587 1004,585 1004,583 1004,582 1004,580 1004,578 1004,577 1004,576 1004,576 1004,575 1004,576 1004,576 1004,577 1004,578 1004,580 1004,581 1004,583 1004,585 1004,587 1004,588 1004,590 1004,592 1004,593 1004,595 1004,596 1004,597 1004,598 1004,599 1004,599 1004,600 1004,600 1004,600 1004,599 1004,599 1004,598 1004,597 1004,596 1004,594 1004,592 1004,590 1004,588 1004,585 1004,582 1004,579 1004,576 1004,572 1004,568 1004,564 1004,560 1004,556 1004,553 1004,551 1004,549 1004,549 1004,551 1004,554 1004,558 1004,562 1004,567 1004,573 1004,578 1004,583 1004,588 1004,592 1004,597 1004,601 1004,605 1004,608 1004,612 1004,615 1004,618 1004,620 1004,623 1004,625 1004,627 1004,629 1004,630 1004,632 1004,633 1004,634 1004,635 1004,635 1004,636 1004,636 1004,636 1004,636 1004,636 1004,636 1004,635 1004,635 1004,634 1004,633 1004,632 1004,630 1004,629 1004,627 1004,625 1004,623 1004,621 1004,619 1004,616 1004,613 1004,610 1004,607 1004,603 1004,599 1004,595 1004,591 1004,586 1004,581 1004,576 1004,571 1004,566 1004,561 1004,556 1004,551 1004,547 1004,544 1004,542 1004,542 1004,542 1004,544 1004,547 1004,550 1004,554 1004,557 1004,561 1004,564 1004,567 1004,570 1004,573 1004,576 1004,578 1004,580 1004,581 1004,583 1004,584 1004,585 1004,586 1004,587 1004,587 1004,587 1004,588 1004,587 1004,587 1004,587 1004,586 1004,585 1004,584 1004,583 1004,582 1004,580 1004,578 1004,576 1004,574 1004,572 1004,570 1004,568 1004,565 1004,562 1004,559 1004,556 1004,553 1004,549 1004,546 1004,542 1004,538 1004,534 1004,530 1004,526 1004,522 1004,518 1004,514 1004,510 1004,506 1004,502 1004,499 1004,496 1004,493 1004,490 1004,488 1004,487 1004,485 1004,484 1004,484 1004,483 1004,483 1004,482 1004,482 1004,482 1004,482 1004,481 1004,481 1004,480 1004,479 1004,479 1004,478 1004,477 1004,475 1004,474 1004,472 1004,471 1004,469 1004,467 1004,465 1004,463 1004,461 1004,459 1004,457 1004,455 1004,452 1004,450 1004,448 1004,446 1004,444 1004,442 1004,440 1004,438 1004,437 1004,435 1004,434 1004,433 1004,432 1004,432 1004,431 1004,431 1004,430 1004,430 1004,430 1004,430 1004,430 1004,430 1004,430 1004,431 1004,431 1004,431 1004,431 1004,432 1004,432 1004,432 1004,433 1004,433 1004,434 1004,434 1004,434 1004,435 1004,435 1004,435 1004,436 1004,436 1004,436 1004,436 1004,437 1004,437 1004,437 1004,437 1004,437 1004,437 1004,437 1004,438 1004,438 1004,438 1004,438 1004,438 1004,438 1004,438 1004,438 1004,438 1004,438 1004,438 1004,438 1004,438 1004,439 1004,439 1004,439 1004,439 1004,439 1004,440 1004,440 1004,440 1004,440 1004,440 1004,441 1004,441 1004,441 1004,441 1004,441 1004,442 1004,442 1004,442 1004,442 1004,442 1004,442 1004,442 1004,442 1004,442 1004,441 1004,441 1004,441 1004,441 1004,441 1004,441 1004,440 1004,440 1004,440 1004,440 1004,439 1004,439 1004,439 1004,439 1004,439 1004,438 1004,438 1004,438 1004,438 1004,438 1004,438 1004,438 1004,437 1004,437 1004,437 1004,437 1004,437 1004,437 1004,437 1004,437 1004,436 1004,436 1004,436 1004,436 1004,436 1004,436 1004,436 1004,435 1004,435 1004,435 1004,435 1004,435 1004,435 1004,434 1004,434 1004,434 1004,434 1004,434 1004,434 1004,434 1004,434 1004,433 1004,433 1004,433 1004,433 1004,433 1004,433 1004,433 1004,433 1004,433 1004,433 1004,433 1004,433 1004,433 1004,433 1004,433 1004,433 1004,433 1004,433 1004,433 1004,433 1004,433 1004,433 1004,433 1004,433 1004,433 1004,433 1004,433 1004,433 1004,433 1004,432 1004,432 1004,432 1004,432 1004,432 1004,432 1004,432 1004,432 1004,432 1004,432 1004,432 1004,431 1004,431 1004,431 1004,431 1004,431 1004,430 1004,430 1004,430 1004,430 1004,430 1004,429 1004,429 1004,429 1004,429 1004,429 1004,429 1004,428 1004,428 1004,428 1004,428 1004,428 1004,428 1004,428 1004,428 1004,429 1004,429 1004,429 1004,429 1004,429 1004,429 1004,429 1004,429 1004,430 1004,430 1004,430 1004,430 1004,430 1004,430 1004,430 1004,430 1004,430 1004,430 1004,430 1004,430 1004,430 1004,430 1004,430 1004,430 1004,430 1004,430 1004,430 1004,430 1004,430 1004,430 1004,430 1004,430 1004,430 1004,430 1004,430 1004,430 1004,431 1004,431 1004,431 1004,431 1004,432 1004,432 1004,432 1004,432 1004,432 1004,433 1004,433 1004,433 1004,433 1004,433 1004,434 1004,434 1004,434 1004,434 1004,434 1004,434 1004,434 1004,434 1004,434 1004,434 1004,434 1004,433 1004,433 1004,433 1004,433 1004,433 1004,433 1004,433 1004,433 1004,432 1004,432 1004,432 1004,432 1004,432 1004,432 1004,432 1004,432 1004,432 1004,432 1004,432 1004,432 1004,432 1004,433 1004,433 1004,433 1004,433 1004,433 1004,433 1004,433 1004,433 1004,433 1004,433 1004,433 1004,432 1004,432 1004,432 1004,432 1004,432 1004,432 1004,432 1004,432 1004,432 1004,431 1004,431 1004,431 1004,431 1004,431 "/>
<polyline fill="none" opacity="1" stroke="#0082C8" stroke-width="1" points="130,226 131,226 133,226 134,226 136,226 137,226 139,227 140,227 142,227 143,227 145,227 146,227 148,227 149,227 151,227 152,228 154,228 155,228 157,228 158,228 160,228 161,228 163,228 164,228 166,228 167,228 169,228 170,227 172,227 173,227 175,227 176,227 178,227 180,227 181,227 183,227 184,227 186,227 187,227 189,228 190,228 192,228 193,228 195,228 196,228 198,228 199,228 201,229 202,229 204,229 205,229 207,229 208,229 210,229 211,229 213,229 214,229 216,229 217,228 219,228 220,228 222,228 223,228 225,227 227,227 228,227 230,227 231,227 233,226 234,226 236,226 237,226 239,225 240,225 242,225 243,225 245,225 246,225 248,225 249,225 251,225 252,225 254,225 255,225 257,225 258,225 260,225 261,225 263,225 264,225 266,225 267,225 269,225 270,225 272,225 273,225 275,225 277,225 278,225 280,225 281,224 283,224 284,224 286,224 287,224 289,224 290,224 292,224 293,223 295,223 296,223 298,223 299,223 301,223 302,223 304,223 305,224 307,224 308,224 310,224 311,224 313,224 314,225 316,225 317,225 319,225 320,225 322,226 324,226 325,226 327,226 328,226 330,227 331,227 333,227 334,227 336,227 337,227 339,227 340,227 342,227 343,227 345,227 346,228 348,228 349,228 351,228 352,228 354,228 355,228 357,228 358,228 360,228 361,228 363,228 364,228 366,228 367,228 369,228 370,228 372,228 374,228 375,228 377,228 378,228 380,228 381,228 383,228 384,228 386,228 387,228 389,229 390,229 392,229 393,229 395,229 396,229 398,229 399,229 401,229 402,230 404,230 405,230 407,230 408,230 410,230 411,231 413,231 414,231 416,231 417,231 419,231 421,231 422,232 424,232 425,232 427,232 428,232 430,232 431,232 433,232 434,233 436,233 437,233 439,233 440,233 442,233 443,234 445,234 446,234 448,234 449,234 451,234 452,235 454,235 455,235 457,235 458,236 460,236 461,236 463,236 464,236 466,236 467,237 469,237 471,237 472,237 474,237 475,237 477,237 478,237 480,237 481,236 483,236 484,236 486,236 487,236 489,236 490,235 492,235 493,235 495,235 496,234 498,234 499,234 501,234 502,234 504,233 505,233 507,233 508,233 510,233 511,233 513,233 514,233 516,233 518,233 519,233 521,233 522,233 524,232 525,232 527,232 528,232 530,232 531,232 533,232 534,231 536,231 537,231 539,231 540,230 542,230 543,230 545,229 546,229 548,229 549,228 551,228 552,227 554,227 555,227 557,226 558,226 560,226 561,226 563,225 564,225 566,225 568,225 569,225 571,225 572,225 574,226 575,226 577,227 578,227 580,228 581,229 583,230 584,232 586,233 587,235 589,237 590,239 592,241 593,243 595,245 596,247 598,250 599,252 601,254 602,256 604,258 605,260 607,262 608,264 610,266 611,267 613,269 615,270 616,272 618,273 619,274 621,274 622,275 624,276 625,276 627,277 628,277 630,277 631,277 633,278 634,278 636,279 637,279 639,280 640,282 642,283 643,285 645,288 646,291 648,294 649,297 651,301 652,305 654,309 655,313 657,317 658,321 660,325 661,329 663,333 665,337 666,341 668,344 669,348 671,351 672,354 674,357 675,360 677,363 678,365 680,367 681,370 683,372 684,373 686,375 687,377 689,378 690,379 692,380 693,381 695,382 696,382 698,382 699,383 701,383 702,382 704,382 705,381 707,380 708,379 710,378 712,377 713,375 715,373 716,371 718,368 719,365 721,362 722,359 724,356 725,352 727,349 728,345 730,342 731,339 733,337 734,337 736,337 737,339 739,342 740,346 742,351 743,356 745,361 746,366 748,371 749,376 751,381 752,386 754,390 755,394 757,398 758,402 760,405 762,408 763,411 765,414 766,416 768,418 769,420 771,422 772,424 774,425 775,427 777,428 778,429 780,430 781,430 783,431 784,431 786,431 787,431 789,431 790,431 792,430 793,430 795,429 796,428 798,427 799,425 801,424 802,422 804,420 805,418 807,415 809,413 810,410 812,407 813,404 815,400 816,396 818,392 819,387 821,383 822,378 824,373 825,368 827,362 828,357 830,353 831,349 833,346 834,344 836,344 837,346 839,348 840,351 842,355 843,359 845,363 846,367 848,371 849,374 851,378 852,380 854,383 855,385 857,387 859,389 860,391 862,392 863,393 865,394 866,394 868,395 869,395 871,395 872,394 874,394 875,393 877,392 878,391 880,390 881,388 883,387 884,385 886,383 887,382 889,380 890,378 892,376 893,375 895,373 896,372 898,371 899,371 901,370 902,371 904,371 906,372 907,373 909,375 910,377 912,379 913,380 915,382 916,384 918,386 919,388 921,390 922,392 924,393 925,395 927,396 928,397 930,398 931,399 933,400 934,401 936,401 937,401 939,402 940,402 942,401 943,401 945,401 946,401 948,400 949,399 951,399 952,398 954,397 956,396 957,396 959,395 960,394 962,393 963,392 965,392 966,391 968,391 969,391 971,390 972,390 974,390 975,391 977,391 978,391 980,392 981,392 983,393 984,394 986,394 987,395 989,396 990,396 992,397 993,397 995,398 996,398 998,399 999,399 1001,399 1003,399 1004,399 1004,399 1004,399 1004,398 1004,398 1004,397 1004,397 1004,396 1004,396 1004,395 1004,394 1004,394 1004,393 1004,392 1004,392 1004,391 1004,391 1004,391 1004,390 1004,390 1004,390 1004,391 1004,391 1004,391 1004,392 1004,392 1004,393 1004,394 1004,395 1004,396 1004,396 1004,397 1004,398 1004,399 1004,399 1004,400 1004,401 1004,401 1004,401 1004,401 1004,402 1004,402 1004,401 1004,401 1004,401 1004,400 1004,399 1004,398 1004,397 1004,396 1004,395 1004,393 1004,392 1004,390 1004,388 1004,386 1004,384 1004,382 1004,380 1004,379 1004,377 1004,375 1004,373 1004,372 1004,371 1004,371 1004,370 1004,371 1004,371 1004,372 1004,373 1004,375 1004,376 1004,378 1004,380 1004,382 1004,383 1004,385 1004,387 1004,388 1004,390 1004,391 1004,392 1004,393 1004,394 1004,394 1004,395 1004,395 1004,395 1004,394 1004,394 1004,393 1004,392 1004,391 1004,389 1004,387 1004,385 1004,383 1004,380 1004,378 1004,374 1004,371 1004,367 1004,363 1004,359 1004,355 1004,351 1004,348 1004,346 1004,344 1004,344 1004,346 1004,349 1004,353 1004,357 1004,362 1004,368 1004,373 1004,378 1004,383 1004,387 1004,392 1004,396 1004,400 1004,404 1004,407 1004,410 1004,413 1004,415 1004,418 1004,420 1004,422 1004,424 1004,425 1004,427 1004,428 1004,429 1004,430 1004,430 1004,431 1004,431 1004,431 1004,431 1004,431 1004,431 1004,430 1004,430 1004,429 1004,428 1004,427 1004,425 1004,424 1004,422 1004,420 1004,418 1004,416 1004,414 1004,411 1004,408 1004,405 1004,402 1004,398 1004,394 1004,390 1004,386 1004,381 1004,376 1004,371 1004,366 1004,361 1004,356 1004,351 1004,346 1004,342 1004,339 1004,337 1004,337 1004,337 1004,339 1004,342 1004,345 1004,349 1004,352 1004,356 1004,359 1004,362 1004,365 1004,368 1004,371 1004,373 1004,375 1004,377 1004,378 1004,379 1004,380 1004,381 1004,382 1004,382 1004,383 1004,383 1004,382 1004,382 1004,382 1004,381 1004,380 1004,379 1004,378 1004,377 1004,375 1004,373 1004,372 1004,370 1004,367 1004,365 1004,363 1004,360 1004,357 1004,354 1004,351 1004,348 1004,344 1004,341 1004,337 1004,333 1004,329 1004,325 1004,321 1004,317 1004,313 1004,309 1004,305 1004,301 1004,297 1004,294 1004,291 1004,288 1004,285 1004,283 1004,282 1004,280 1004,279 1004,279 1004,278 1004,278 1004,277 1004,277 1004,277 1004,277 1004,276 1004,276 1004,275 1004,274 1004,274 1004,273 1004,272 1004,270 1004,269 1004,267 1004,266 1004,264 1004,262 1004,260 1004,258 1004,256 1004,254 1004,252 1004,250 1004,247 1004,245 1004,243 1004,241 1004,239 1004,237 1004,235 1004,233 1004,232 1004,230 1004,229 1004,228 1004,227 1004,227 1004,226 1004,226 1004,225 1004,225 1004,225 1004,225 1004,225 1004,225 1004,225 1004,226 1004,226 1004,226 1004,226 1004,227 1004,227 1004,227 1004,228 1004,228 1004,229 1004,229 1004,229 1004,230 1004,230 1004,230 1004,231 1004,231 1004,231 1004,231 1004,232 1004,232 1004,232 1004,232 1004,232 1004,232 1004,232 1004,233 1004,233 1004,233 1004,233 1004,233 1004,233 1004,233 1004,233 1004,233 1004,233 1004,233 1004,233 1004,233 1004,234 1004,234 1004,234 1004,234 1004,234 1004,235 1004,235 1004,235 1004,235 1004,236 1004,236 1004,236 1004,236 1004,236 1004,236 1004,237 1004,237 1004,237 1004,237 1004,237 1004,237 1004,237 1004,237 1004,237 1004,236 1004,236 1004,236 1004,236 1004,236 1004,236 1004,235 1004,235 1004,235 1004,235 1004,234 1004,234 1004,234 1004,234 1004,234 1004,234 1004,233 1004,233 1004,233 1004,233 1004,233 1004,233 1004,232 1004,232 1004,232 1004,232 1004,232 1004,232 1004,232 1004,232 1004,231 1004,231 1004,231 1004,231 1004,231 1004,231 1004,231 1004,230 1004,230 1004,230 1004,230 1004,230 1004,230 1004,229 1004,229 1004,229 1004,229 1004,229 1004,229 1004,229 1004,229 1004,229 1004,228 1004,228 1004,228 1004,228 1004,228 1004,228 1004,228 1004,228 1004,228 1004,228 1004,228 1004,228 1004,228 1004,228 1004,228 1004,228 1004,228 1004,228 1004,228 1004,228 1004,228 1004,228 1004,228 1004,228 1004,228 1004,228 1004,228 1004,228 1004,227 1004,227 1004,227 1004,227 1004,227 1004,227 1004,227 1004,227 1004,227 1004,227 1004,227 1004,226 1004,226 1004,226 1004,226 1004,226 1004,225 1004,225 1004,225 1004,225 1004,225 1004,224 1004,224 1004,224 1004,224 1004,224 1004,224 1004,223 1004,223 1004,223 1004,223 1004,223 1004,223 1004,223 1004,223 1004,224 1004,224 1004,224 1004,224 1004,224 1004,224 1004,224 1004,224 1004,225 1004,225 1004,225 1004,225 1004,225 1004,225 1004,225 1004,225 1004,225 1004,225 1004,225 1004,225 1004,225 1004,225 1004,225 1004,225 1004,225 1004,225 1004,225 1004,225 1004,225 1004,225 1004,225 1004,225 1004,225 1004,225 1004,225 1004,225 1004,226 1004,226 1004,226 1004,226 1004,227 1004,227 1004,227 1004,227 1004,227 1004,228 1004,228 1004,228 1004,228 1004,228 1004,229 1004,229 1004,229 1004,229 1004,229 1004,229 1004,229 1004,229 1004,229 1004,229 1004,229 1004,228 1004,228 1004,228 1004,228 1004,228 1004,228 1004,228 1004,228 1004,227 1004,227 1004,227 1004,227 1004,227 1004,227 1004,227 1004,227 1004,227 1004,227 1004,227 1004,227 1004,228 1004,228 1004,228 1004,228 1004,228 1004,228 1004,228 1004,228 1004,228 1004,228 1004,228 1004,228 1004,227 1004,227 1004,227 1004,227 1004,227 1004,227 1004,227 1004,227 1004,227 1004,226 1004,226 1004,226 1004,226 1004,226 "/>
<rect x="514" y="25" width="485" height="157" opacity="0.8" fill="#FFFFFF" stroke="none"/>
<rect x="514" y="25" width="485" height="157" opacity="1" fill="none" stroke="#000000"/>
<text x="554" y="35" dy="0.76em" text-anchor="start" font-family="sans-serif" font-size="24.193548387096776" opacity="1" fill="#000000">
(1) log_power
</text>
<text x="554" y="73" dy="0.76em" text-anchor="start" font-family="sans-serif" font-size="24.193548387096776" opacity="1" fill="#000000">
(2) spectral_envelope by cepstrum
</text>
<text x="554" y="110" dy="0.76em" text-anchor="start" font-family="sans-serif" font-size="24.193548387096776" opacity="1" fill="#000000">
(3) spectral_envelope by levinson-durbin
</text>
<text x="554" y="148" dy="0.76em" text-anchor="start" font-family="sans-serif" font-size="24.193548387096776" opacity="1" fill="#000000">
(4) spectral_envelope by burg
</text>
<polyline fill="none" opacity="1" stroke="#E6194B" stroke-width="1" points="524,47 544,47 "/>
<polyline fill="none" opacity="1" stroke="#3CB44B" stroke-width="1" points="524,85 544,85 "/>
<polyline fill="none" opacity="1" stroke="#FFE119" stroke-width="1" points="524,122 544,122 "/>
<polyline fill="none" opacity="1" stroke="#0082C8" stroke-width="1" points="524,160 544,160 "/>
</svg>
