<svg width="1024" height="768" viewBox="0 0 1024 768" xmlns="http://www.w3.org/2000/svg">
<rect x="0" y="0" width="1024" height="768" opacity="1" fill="#FFFFFF" stroke="none"/>
<line opacity="0.1" stroke="#000000" stroke-width="1" x1="130" y1="657" x2="130" y2="20"/>
<line opacity="0.1" stroke="#000000" stroke-width="1" x1="140" y1="657" x2="140" y2="20"/>
<line opacity="0.1" stroke="#000000" stroke-width="1" x1="151" y1="657" x2="151" y2="20"/>
<line opacity="0.1" stroke="#000000" stroke-width="1" x1="162" y1="657" x2="162" y2="20"/>
<line opacity="0.1" stroke="#000000" stroke-width="1" x1="173" y1="657" x2="173" y2="20"/>
<line opacity="0.1" stroke="#000000" stroke-width="1" x1="184" y1="657" x2="184" y2="20"/>
<line opacity="0.1" stroke="#000000" stroke-width="1" x1="195" y1="657" x2="195" y2="20"/>
<line opacity="0.1" stroke="#000000" stroke-width="1" x1="206" y1="657" x2="206" y2="20"/>
<line opacity="0.1" stroke="#000000" stroke-width="1" x1="217" y1="657" x2="217" y2="20"/>
<line opacity="0.1" stroke="#000000" stroke-width="1" x1="228" y1="657" x2="228" y2="20"/>
<line opacity="0.1" stroke="#000000" stroke-width="1" x1="239" y1="657" x2="239" y2="20"/>
<line opacity="0.1" stroke="#000000" stroke-width="1" x1="250" y1="657" x2="250" y2="20"/>
<line opacity="0.1" stroke="#000000" stroke-width="1" x1="260" y1="657" x2="260" y2="20"/>
<line opacity="0.1" stroke="#000000" stroke-width="1" x1="271" y1="657" x2="271" y2="20"/>
<line opacity="0.1" stroke="#000000" stroke-width="1" x1="282" y1="657" x2="282" y2="20"/>
<line opacity="0.1" stroke="#000000" stroke-width="1" x1="293" y1="657" x2="293" y2="20"/>
<line opacity="0.1" stroke="#000000" stroke-width="1" x1="304" y1="657" x2="304" y2="20"/>
<line opacity="0.1" stroke="#000000" stroke-width="1" x1="315" y1="657" x2="315" y2="20"/>
<line opacity="0.1" stroke="#000000" stroke-width="1" x1="326" y1="657" x2="326" y2="20"/>
<line opacity="0.1" stroke="#000000" stroke-width="1" x1="337" y1="657" x2="337" y2="20"/>
<line opacity="0.1" stroke="#000000" stroke-width="1" x1="348" y1="657" x2="348" y2="20"/>
<line opacity="0.1" stroke="#000000" stroke-width="1" x1="359" y1="657" x2="359" y2="20"/>
<line opacity="0.1" stroke="#000000" stroke-width="1" x1="370" y1="657" x2="370" y2="20"/>
<line opacity="0.1" stroke="#000000" stroke-width="1" x1="380" y1="657" x2="380" y2="20"/>
<line opacity="0.1" stroke="#000000" stroke-width="1" x1="391" y1="657" x2="391" y2="20"/>
<line opacity="0.1" stroke="#000000" stroke-width="1" x1="402" y1="657" x2="402" y2="20"/>
<line opacity="0.1" stroke="#000000" stroke-width="1" x1="413" y1="657" x2="413" y2="20"/>
<line opacity="0.1" stroke="#000000" stroke-width="1" x1="424" y1="657" x2="424" y2="20"/>
<line opacity="0.1" stroke="#000000" stroke-width="1" x1="435" y1="657" x2="435" y2="20"/>
<line opacity="0.1" stroke="#000000" stroke-width="1" x1="446" y1="657" x2="446" y2="20"/>
<line opacity="0.1" stroke="#000000" stroke-width="1" x1="457" y1="657" x2="457" y2="20"/>
<line opacity="0.1" stroke="#000000" stroke-width="1" x1="468" y1="657" x2="468" y2="20"/>
<line opacity="0.1" stroke="#000000" stroke-width="1" x1="479" y1="657" x2="479" y2="20"/>
<line opacity="0.1" stroke="#000000" stroke-width="1" x1="490" y1="657" x2="490" y2="20"/>
<line opacity="0.1" stroke="#000000" stroke-width="1" x1="501" y1="657" x2="501" y2="20"/>
<line opacity="0.1" stroke="#000000" stroke-width="1" x1="511" y1="657" x2="511" y2="20"/>
<line opacity="0.1" stroke="#000000" stroke-width="1" x1="522" y1="657" x2="522" y2="20"/>
<line opacity="0.1" stroke="#000000" stroke-width="1" x1="533" y1="657" x2="533" y2="20"/>
<line opacity="0.1" stroke="#000000" stroke-width="1" x1="544" y1="657" x2="544" y2="20"/>
<line opacity="0.1" stroke="#000000" stroke-width="1" x1="555" y1="657" x2="555" y2="20"/>
<line opacity="0.1" stroke="#000000" stroke-width="1" x1="566" y1="657" x2="566" y2="20"/>
<line opacity="0.1" stroke="#000000" stroke-width="1" x1="577" y1="657" x2="577" y2="20"/>
<line opacity="0.1" stroke="#000000" stroke-width="1" x1="588" y1="657" x2="588" y2="20"/>
<line opacity="0.1" stroke="#000000" stroke-width="1" x1="599" y1="657" x2="599" y2="20"/>
<line opacity="0.1" stroke="#000000" stroke-width="1" x1="610" y1="657" x2="610" y2="20"/>
<line opacity="0.1" stroke="#000000" stroke-width="1" x1="621" y1="657" x2="621" y2="20"/>
<line opacity="0.1" stroke="#000000" stroke-width="1" x1="631" y1="657" x2="631" y2="20"/>
<line opacity="0.1" stroke="#000000" stroke-width="1" x1="642" y1="657" x2="642" y2="20"/>
<line opacity="0.1" stroke="#000000" stroke-width="1" x1="653" y1="657" x2="653" y2="20"/>
<line opacity="0.1" stroke="#000000" stroke-width="1" x1="664" y1="657" x2="664" y2="20"/>
<line opacity="0.1" stroke="#000000" stroke-width="1" x1="675" y1="657" x2="675" y2="20"/>
<line opacity="0.1" stroke="#000000" stroke-width="1" x1="686" y1="657" x2="686" y2="20"/>
<line opacity="0.1" stroke="#000000" stroke-width="1" x1="697" y1="657" x2="697" y2="20"/>
<line opacity="0.1" stroke="#000000" stroke-width="1" x1="708" y1="657" x2="708" y2="20"/>
<line opacity="0.1" stroke="#000000" stroke-width="1" x1="719" y1="657" x2="719" y2="20"/>
<line opacity="0.1" stroke="#000000" stroke-width="1" x1="730" y1="657" x2="730" y2="20"/>
<line opacity="0.1" stroke="#000000" stroke-width="1" x1="741" y1="657" x2="741" y2="20"/>
<line opacity="0.1" stroke="#000000" stroke-width="1" x1="752" y1="657" x2="752" y2="20"/>
<line opacity="0.1" stroke="#000000" stroke-width="1" x1="762" y1="657" x2="762" y2="20"/>
<line opacity="0.1" stroke="#000000" stroke-width="1" x1="773" y1="657" x2="773" y2="20"/>
<line opacity="0.1" stroke="#000000" stroke-width="1" x1="784" y1="657" x2="784" y2="20"/>
<line opacity="0.1" stroke="#000000" stroke-width="1" x1="795" y1="657" x2="795" y2="20"/>
<line opacity="0.1" stroke="#000000" stroke-width="1" x1="806" y1="657" x2="806" y2="20"/>
<line opacity="0.1" stroke="#000000" stroke-width="1" x1="817" y1="657" x2="817" y2="20"/>
<line opacity="0.1" stroke="#000000" stroke-width="1" x1="828" y1="657" x2="828" y2="20"/>
<line opacity="0.1" stroke="#000000" stroke-width="1" x1="839" y1="657" x2="839" y2="20"/>
<line opacity="0.1" stroke="#000000" stroke-width="1" x1="850" y1="657" x2="850" y2="20"/>
<line opacity="0.1" stroke="#000000" stroke-width="1" x1="861" y1="657" x2="861" y2="20"/>
<line opacity="0.1" stroke="#000000" stroke-width="1" x1="872" y1="657" x2="872" y2="20"/>
<line opacity="0.1" stroke="#000000" stroke-width="1" x1="882" y1="657" x2="882" y2="20"/>
<line opacity="0.1" stroke="#000000" stroke-width="1" x1="893" y1="657" x2="893" y2="20"/>
<line opacity="0.1" stroke="#000000" stroke-width="1" x1="904" y1="657" x2="904" y2="20"/>
<line opacity="0.1" stroke="#000000" stroke-width="1" x1="915" y1="657" x2="915" y2="20"/>
<line opacity="0.1" stroke="#000000" stroke-width="1" x1="926" y1="657" x2="926" y2="20"/>
<line opacity="0.1" stroke="#000000" stroke-width="1" x1="937" y1="657" x2="937" y2="20"/>
<line opacity="0.1" stroke="#000000" stroke-width="1" x1="948" y1="657" x2="948" y2="20"/>
<line opacity="0.1" stroke="#000000" stroke-width="1" x1="959" y1="657" x2="959" y2="20"/>
<line opacity="0.1" stroke="#000000" stroke-width="1" x1="970" y1="657" x2="970" y2="20"/>
<line opacity="0.1" stroke="#000000" stroke-width="1" x1="981" y1="657" x2="981" y2="20"/>
<line opacity="0.1" stroke="#000000" stroke-width="1" x1="992" y1="657" x2="992" y2="20"/>
<line opacity="0.1" stroke="#000000" stroke-width="1" x1="1003" y1="657" x2="1003" y2="20"/>
<line opacity="0.1" stroke="#000000" stroke-width="1" x1="130" y1="657" x2="1003" y2="657"/>
<line opacity="0.1" stroke="#000000" stroke-width="1" x1="130" y1="648" x2="1003" y2="648"/>
<line opacity="0.1" stroke="#000000" stroke-width="1" x1="130" y1="639" x2="1003" y2="639"/>
<line opacity="0.1" stroke="#000000" stroke-width="1" x1="130" y1="630" x2="1003" y2="630"/>
<line opacity="0.1" stroke="#000000" stroke-width="1" x1="130" y1="621" x2="1003" y2="621"/>
<line opacity="0.1" stroke="#000000" stroke-width="1" x1="130" y1="612" x2="1003" y2="612"/>
<line opacity="0.1" stroke="#000000" stroke-width="1" x1="130" y1="603" x2="1003" y2="603"/>
<line opacity="0.1" stroke="#000000" stroke-width="1" x1="130" y1="594" x2="1003" y2="594"/>
<line opacity="0.1" stroke="#000000" stroke-width="1" x1="130" y1="585" x2="1003" y2="585"/>
<line opacity="0.1" stroke="#000000" stroke-width="1" x1="130" y1="576" x2="1003" y2="576"/>
<line opacity="0.1" stroke="#000000" stroke-width="1" x1="130" y1="566" x2="1003" y2="566"/>
<line opacity="0.1" stroke="#000000" stroke-width="1" x1="130" y1="557" x2="1003" y2="557"/>
<line opacity="0.1" stroke="#000000" stroke-width="1" x1="130" y1="548" x2="1003" y2="548"/>
<line opacity="0.1" stroke="#000000" stroke-width="1" x1="130" y1="539" x2="1003" y2="539"/>
<line opacity="0.1" stroke="#000000" stroke-width="1" x1="130" y1="530" x2="1003" y2="530"/>
<line opacity="0.1" stroke="#000000" stroke-width="1" x1="130" y1="521" x2="1003" y2="521"/>
<line opacity="0.1" stroke="#000000" stroke-width="1" x1="130" y1="512" x2="1003" y2="512"/>
<line opacity="0.1" stroke="#000000" stroke-width="1" x1="130" y1="503" x2="1003" y2="503"/>
<line opacity="0.1" stroke="#000000" stroke-width="1" x1="130" y1="494" x2="1003" y2="494"/>
<line opacity="0.1" stroke="#000000" stroke-width="1" x1="130" y1="485" x2="1003" y2="485"/>
<line opacity="0.1" stroke="#000000" stroke-width="1" x1="130" y1="475" x2="1003" y2="475"/>
<line opacity="0.1" stroke="#000000" stroke-width="1" x1="130" y1="466" x2="1003" y2="466"/>
<line opacity="0.1" stroke="#000000" stroke-width="1" x1="130" y1="457" x2="1003" y2="457"/>
<line opacity="0.1" stroke="#000000" stroke-width="1" x1="130" y1="448" x2="1003" y2="448"/>
<line opacity="0.1" stroke="#000000" stroke-width="1" x1="130" y1="439" x2="1003" y2="439"/>
<line opacity="0.1" stroke="#000000" stroke-width="1" x1="130" y1="430" x2="1003" y2="430"/>
<line opacity="0.1" stroke="#000000" stroke-width="1" x1="130" y1="421" x2="1003" y2="421"/>
<line opacity="0.1" stroke="#000000" stroke-width="1" x1="130" y1="412" x2="1003" y2="412"/>
<line opacity="0.1" stroke="#000000" stroke-width="1" x1="130" y1="403" x2="1003" y2="403"/>
<line opacity="0.1" stroke="#000000" stroke-width="1" x1="130" y1="394" x2="1003" y2="394"/>
<line opacity="0.1" stroke="#000000" stroke-width="1" x1="130" y1="384" x2="1003" y2="384"/>
<line opacity="0.1" stroke="#000000" stroke-width="1" x1="130" y1="375" x2="1003" y2="375"/>
<line opacity="0.1" stroke="#000000" stroke-width="1" x1="130" y1="366" x2="1003" y2="366"/>
<line opacity="0.1" stroke="#000000" stroke-width="1" x1="130" y1="357" x2="1003" y2="357"/>
<line opacity="0.1" stroke="#000000" stroke-width="1" x1="130" y1="348" x2="1003" y2="348"/>
<line opacity="0.1" stroke="#000000" stroke-width="1" x1="130" y1="339" x2="1003" y2="339"/>
<line opacity="0.1" stroke="#000000" stroke-width="1" x1="130" y1="330" x2="1003" y2="330"/>
<line opacity="0.1" stroke="#000000" stroke-width="1" x1="130" y1="321" x2="1003" y2="321"/>
<line opacity="0.1" stroke="#000000" stroke-width="1" x1="130" y1="312" x2="1003" y2="312"/>
<line opacity="0.1" stroke="#000000" stroke-width="1" x1="130" y1="303" x2="1003" y2="303"/>
<line opacity="0.1" stroke="#000000" stroke-width="1" x1="130" y1="293" x2="1003" y2="293"/>
<line opacity="0.1" stroke="#000000" stroke-width="1" x1="130" y1="284" x2="1003" y2="284"/>
<line opacity="0.1" stroke="#000000" stroke-width="1" x1="130" y1="275" x2="1003" y2="275"/>
<line opacity="0.1" stroke="#000000" stroke-width="1" x1="130" y1="266" x2="1003" y2="266"/>
<line opacity="0.1" stroke="#000000" stroke-width="1" x1="130" y1="257" x2="1003" y2="257"/>
<line opacity="0.1" stroke="#000000" stroke-width="1" x1="130" y1="248" x2="1003" y2="248"/>
<line opacity="0.1" stroke="#000000" stroke-width="1" x1="130" y1="239" x2="1003" y2="239"/>
<line opacity="0.1" stroke="#000000" stroke-width="1" x1="130" y1="230" x2="1003" y2="230"/>
<line opacity="0.1" stroke="#000000" stroke-width="1" x1="130" y1="221" x2="1003" y2="221"/>
<line opacity="0.1" stroke="#000000" stroke-width="1" x1="130" y1="212" x2="1003" y2="212"/>
<line opacity="0.1" stroke="#000000" stroke-width="1" x1="130" y1="202" x2="1003" y2="202"/>
<line opacity="0.1" stroke="#000000" stroke-width="1" x1="130" y1="193" x2="1003" y2="193"/>
<line opacity="0.1" stroke="#000000" stroke-width="1" x1="130" y1="184" x2="1003" y2="184"/>
<line opacity="0.1" stroke="#000000" stroke-width="1" x1="130" y1="175" x2="1003" y2="175"/>
<line opacity="0.1" stroke="#000000" stroke-width="1" x1="130" y1="166" x2="1003" y2="166"/>
<line opacity="0.1" stroke="#000000" stroke-width="1" x1="130" y1="157" x2="1003" y2="157"/>
<line opacity="0.1" stroke="#000000" stroke-width="1" x1="130" y1="148" x2="1003" y2="148"/>
<line opacity="0.1" stroke="#000000" stroke-width="1" x1="130" y1="139" x2="1003" y2="139"/>
<line opacity="0.1" stroke="#000000" stroke-width="1" x1="130" y1="130" x2="1003" y2="130"/>
<line opacity="0.1" stroke="#000000" stroke-width="1" x1="130" y1="121" x2="1003" y2="121"/>
<line opacity="0.1" stroke="#000000" stroke-width="1" x1="130" y1="111" x2="1003" y2="111"/>
<line opacity="0.1" stroke="#000000" stroke-width="1" x1="130" y1="102" x2="1003" y2="102"/>
<line opacity="0.1" stroke="#000000" stroke-width="1" x1="130" y1="93" x2="1003" y2="93"/>
<line opacity="0.1" stroke="#000000" stroke-width="1" x1="130" y1="84" x2="1003" y2="84"/>
<line opacity="0.1" stroke="#000000" stroke-width="1" x1="130" y1="75" x2="1003" y2="75"/>
<line opacity="0.1" stroke="#000000" stroke-width="1" x1="130" y1="66" x2="1003" y2="66"/>
<line opacity="0.1" stroke="#000000" stroke-width="1" x1="130" y1="57" x2="1003" y2="57"/>
<line opacity="0.1" stroke="#000000" stroke-width="1" x1="130" y1="48" x2="1003" y2="48"/>
<line opacity="0.1" stroke="#000000" stroke-width="1" x1="130" y1="39" x2="1003" y2="39"/>
<line opacity="0.1" stroke="#000000" stroke-width="1" x1="130" y1="30" x2="1003" y2="30"/>
<line opacity="0.1" stroke="#000000" stroke-width="1" x1="130" y1="20" x2="1003" y2="20"/>
<text x="20" y="339" dy="0.76em" text-anchor="middle" font-family="sans-serif" font-size="24.193548387096776" opacity="1" fill="#000000" transform="rotate(270, 20, 339)">
Power [dB]
</text>
<text x="567" y="748" dy="-0.5ex" text-anchor="middle" font-family="sans-serif" font-size="24.193548387096776" opacity="1" fill="#000000">
Frequency [Hz]
</text>
<line opacity="0.2" stroke="#000000" stroke-width="1" x1="130" y1="657" x2="130" y2="20"/>
<line opacity="0.2" stroke="#000000" stroke-width="1" x1="239" y1="657" x2="239" y2="20"/>
<line opacity="0.2" stroke="#000000" stroke-width="1" x1="348" y1="657" x2="348" y2="20"/>
<line opacity="0.2" stroke="#000000" stroke-width="1" x1="457" y1="657" x2="457" y2="20"/>
<line opacity="0.2" stroke="#000000" stroke-width="1" x1="566" y1="657" x2="566" y2="20"/>
<line opacity="0.2" stroke="#000000" stroke-width="1" x1="675" y1="657" x2="675" y2="20"/>
<line opacity="0.2" stroke="#000000" stroke-width="1" x1="784" y1="657" x2="784" y2="20"/>
<line opacity="0.2" stroke="#000000" stroke-width="1" x1="893" y1="657" x2="893" y2="20"/>
<line opacity="0.2" stroke="#000000" stroke-width="1" x1="1003" y1="657" x2="1003" y2="20"/>
<line opacity="0.2" stroke="#000000" stroke-width="1" x1="130" y1="657" x2="1003" y2="657"/>
<line opacity="0.2" stroke="#000000" stroke-width="1" x1="130" y1="566" x2="1003" y2="566"/>
<line opacity="0.2" stroke="#000000" stroke-width="1" x1="130" y1="475" x2="1003" y2="475"/>
<line opacity="0.2" stroke="#000000" stroke-width="1" x1="130" y1="384" x2="1003" y2="384"/>
<line opacity="0.2" stroke="#000000" stroke-width="1" x1="130" y1="293" x2="1003" y2="293"/>
<line opacity="0.2" stroke="#000000" stroke-width="1" x1="130" y1="202" x2="1003" y2="202"/>
<line opacity="0.2" stroke="#000000" stroke-width="1" x1="130" y1="111" x2="1003" y2="111"/>
<line opacity="0.2" stroke="#000000" stroke-width="1" x1="130" y1="20" x2="1003" y2="20"/>
<polyline fill="none" opacity="1" stroke="#000000" stroke-width="1" points="129,20 129,657 "/>
<text x="120" y="657" dy="0.5ex" text-anchor="end" font-family="sans-serif" font-size="24.193548387096776" opacity="1" fill="#000000">
-100.0
</text>
<polyline fill="none" opacity="1" stroke="#000000" stroke-width="1" points="124,657 129,657 "/>
<text x="120" y="566" dy="0.5ex" text-anchor="end" font-family="sans-serif" font-size="24.193548387096776" opacity="1" fill="#000000">
-80.0
</text>
<polyline fill="none" opacity="1" stroke="#000000" stroke-width="1" points="124,566 129,566 "/>
<text x="120" y="475" dy="0.5ex" text-anchor="end" font-family="sans-serif" font-size="24.193548387096776" opacity="1" fill="#000000">
-60.0
</text>
<polyline fill="none" opacity="1" stroke="#000000" stroke-width="1" points="124,475 129,475 "/>
<text x="120" y="384" dy="0.5ex" text-anchor="end" font-family="sans-serif" font-size="24.193548387096776" opacity="1" fill="#000000">
-40.0
</text>
<polyline fill="none" opacity="1" stroke="#000000" stroke-width="1" points="124,384 129,384 "/>
<text x="120" y="293" dy="0.5ex" text-anchor="end" font-family="sans-serif" font-size="24.193548387096776" opacity="1" fill="#000000">
-20.0
</text>
<polyline fill="none" opacity="1" stroke="#000000" stroke-width="1" points="124,293 129,293 "/>
<text x="120" y="202" dy="0.5ex" text-anchor="end" font-family="sans-serif" font-size="24.193548387096776" opacity="1" fill="#000000">
0.0
</text>
<polyline fill="none" opacity="1" stroke="#000000" stroke-width="1" points="124,202 129,202 "/>
<text x="120" y="111" dy="0.5ex" text-anchor="end" font-family="sans-serif" font-size="24.193548387096776" opacity="1" fill="#000000">
20.0
</text>
<polyline fill="none" opacity="1" stroke="#000000" stroke-width="1" points="124,111 129,111 "/>
<text x="120" y="20" dy="0.5ex" text-anchor="end" font-family="sans-serif" font-size="24.193548387096776" opacity="1" fill="#000000">
40.0
</text>
<polyline fill="none" opacity="1" stroke="#000000" stroke-width="1" points="124,20 129,20 "/>
<polyline fill="none" opacity="1" stroke="#000000" stroke-width="1" points="130,658 1003,658 "/>
<text x="130" y="668" dy="0.76em" text-anchor="middle" font-family="sans-serif" font-size="24.193548387096776" opacity="1" fill="#000000">
0.0
</text>
<polyline fill="none" opacity="1" stroke="#000000" stroke-width="1" points="130,658 130,663 "/>
<text x="239" y="668" dy="0.76em" text-anchor="middle" font-family="sans-serif" font-size="24.193548387096776" opacity="1" fill="#000000">
1000.0
</text>
<polyline fill="none" opacity="1" stroke="#000000" stroke-width="1" points="239,658 239,663 "/>
<text x="348" y="668" dy="0.76em" text-anchor="middle" font-family="sans-serif" font-size="24.193548387096776" opacity="1" fill="#000000">
2000.0
</text>
<polyline fill="none" opacity="1" stroke="#000000" stroke-width="1" points="348,658 348,663 "/>
<text x="457" y="668" dy="0.76em" text-anchor="middle" font-family="sans-serif" font-size="24.193548387096776" opacity="1" fill="#000000">
3000.0
</text>
<polyline fill="none" opacity="1" stroke="#000000" stroke-width="1" points="457,658 457,663 "/>
<text x="566" y="668" dy="0.76em" text-anchor="middle" font-family="sans-serif" font-size="24.193548387096776" opacity="1" fill="#000000">
4000.0
</text>
<polyline fill="none" opacity="1" stroke="#000000" stroke-width="1" points="566,658 566,663 "/>
<text x="675" y="668" dy="0.76em" text-anchor="middle" font-family="sans-serif" font-size="24.193548387096776" opacity="1" fill="#000000">
5000.0
</text>
<polyline fill="none" opacity="1" stroke="#000000" stroke-width="1" points="675,658 675,663 "/>
<text x="784" y="668" dy="0.76em" text-anchor="middle" font-family="sans-serif" font-size="24.193548387096776" opacity="1" fill="#000000">
6000.0
</text>
<polyline fill="none" opacity="1" stroke="#000000" stroke-width="1" points="784,658 784,663 "/>
<text x="893" y="668" dy="0.76em" text-anchor="middle" font-family="sans-serif" font-size="24.193548387096776" opacity="1" fill="#000000">
7000.0
</text>
<polyline fill="none" opacity="1" stroke="#000000" stroke-width="1" points="893,658 893,663 "/>
<text x="1003" y="668" dy="0.76em" text-anchor="middle" font-family="sans-serif" font-size="24.193548387096776" opacity="1" fill="#000000">
8000.0
</text>
<polyline fill="none" opacity="1" stroke="#000000" stroke-width="1" points="1003,658 1003,663 "/>
<polyline fill="none" opacity="1" stroke="#E6194B" stroke-width="1" points="130,300 131,308 133,276 134,384 136,360 137,349 139,233 140,240 142,210 143,213 145,226 146,339 148,202 149,171 151,89 152,65 154,71 155,138 157,139 158,279 160,287 161,201 163,249 164,271 166,246 167,215 169,170 170,246 172,154 173,147 175,200 176,246 178,213 180,185 181,207 183,135 184,167 186,204 187,251 189,204 190,283 192,244 193,242 195,203 196,224 198,284 199,205 201,223 202,202 204,187 205,218 207,192 208,166 210,240 211,207 213,344 214,244 216,252 217,302 219,221 220,230 222,281 223,302 225,246 227,240 228,222 230,209 231,229 233,271 234,219 236,242 237,380 239,295 240,290 242,298 243,352 245,284 246,249 248,241 249,213 251,207 252,222 254,215 255,195 257,198 258,245 260,219 261,198 263,303 264,223 266,237 267,239 269,355 270,273 272,238 273,269 275,267 277,247 278,303 280,257 281,224 283,212 284,226 286,260 287,217 289,264 290,218 292,232 293,280 295,286 296,197 298,237 299,247 301,250 302,308 304,224 305,242 307,288 308,275 310,228 311,220 313,207 314,317 316,192 317,198 319,216 320,179 322,277 324,267 325,275 327,306 328,306 330,191 331,161 333,160 334,178 336,140 337,111 339,185 340,128 342,190 343,175 345,168 346,181 348,208 349,220 351,282 352,296 354,162 355,147 357,161 358,181 360,172 361,158 363,187 364,166 366,134 367,141 369,209 370,218 372,144 374,120 375,131 377,124 378,127 380,147 381,135 383,126 384,146 386,171 387,137 389,153 390,270 392,188 393,300 395,181 396,188 398,266 399,215 401,219 402,249 404,256 405,224 407,202 408,253 410,184 411,174 413,201 414,243 416,223 417,275 419,230 421,201 422,204 424,231 425,241 427,249 428,337 430,268 431,281 433,302 434,265 436,231 437,221 439,246 440,240 442,229 443,274 445,268 446,227 448,224 449,238 451,277 452,336 454,253 455,235 457,296 458,265 460,268 461,287 463,253 464,233 466,305 467,292 469,386 471,338 472,279 474,250 475,317 477,264 478,401 480,269 481,238 483,258 484,388 486,242 487,233 489,366 490,232 492,232 493,335 495,251 496,245 498,313 499,250 501,303 502,240 504,226 505,310 507,305 508,329 510,368 511,313 513,248 514,227 516,281 518,207 519,251 521,222 522,261 524,220 525,215 527,238 528,229 530,240 531,280 533,248 534,253 536,283 537,285 539,258 540,223 542,212 543,242 545,255 546,299 548,255 549,319 551,294 552,345 554,374 555,294 557,285 558,345 560,303 561,355 563,310 564,329 566,257 568,262 569,335 571,363 572,329 574,311 575,380 577,295 578,302 580,433 581,299 583,280 584,377 586,295 587,342 589,398 590,411 592,498 593,387 595,419 596,416 598,350 599,307 601,316 602,385 604,450 605,414 607,396 608,377 610,331 611,362 613,343 615,323 616,334 618,328 619,307 621,371 622,321 624,371 625,336 627,325 628,341 630,377 631,401 633,398 634,571 636,417 637,450 639,482 640,477 642,494 643,409 645,404 646,349 648,338 649,392 651,476 652,486 654,485 655,461 657,471 658,487 660,407 661,334 663,323 665,353 666,403 668,414 669,429 671,453 672,508 674,461 675,427 677,445 678,455 680,500 681,425 683,439 684,502 686,527 687,493 689,545 690,629 692,569 693,607 695,607 696,652 698,613 699,644 701,608 702,627 704,631 705,578 707,569 708,466 710,455 712,443 713,491 715,384 716,378 718,430 719,482 721,451 722,486 724,404 725,392 727,485 728,423 730,424 731,459 733,452 734,542 736,494 737,508 739,524 740,461 742,501 743,535 745,466 746,452 748,445 749,418 751,357 752,375 754,484 755,473 757,539 758,428 760,473 762,470 763,598 765,520 766,486 768,482 769,502 771,555 772,478 774,484 775,505 777,529 778,570 780,588 781,658 783,658 784,638 786,658 787,658 789,644 790,654 792,658 793,658 795,655 796,658 798,658 799,634 801,595 802,658 804,658 805,515 807,505 809,515 810,453 812,439 813,456 815,434 816,367 818,371 819,428 821,498 822,501 824,549 825,482 827,476 828,405 830,436 831,421 833,434 834,437 836,442 837,403 839,383 840,410 842,491 843,416 845,542 846,425 848,464 849,515 851,529 852,464 854,393 855,372 857,393 859,451 860,541 862,490 863,443 865,414 866,396 868,399 869,472 871,618 872,504 874,534 875,602 877,502 878,527 880,492 881,421 883,388 884,438 886,421 887,467 889,492 890,658 892,479 893,432 895,512 896,433 898,522 899,534 901,510 902,658 904,462 906,525 907,506 909,594 910,658 912,435 913,380 915,372 916,403 918,439 919,429 921,389 922,446 924,434 925,486 927,424 928,444 930,489 931,509 933,436 934,395 936,429 937,500 939,539 940,579 942,600 943,564 945,604 946,550 948,516 949,519 951,516 952,498 954,502 956,522 957,560 959,505 960,473 962,512 963,538 965,477 966,422 968,398 969,411 971,437 972,444 974,395 975,385 977,418 978,476 980,540 981,528 983,526 984,447 986,429 987,436 989,476 990,452 992,439 993,548 995,481 996,456 998,414 999,428 1001,540 1003,502 1004,540 1004,428 1004,414 1004,456 1004,481 1004,548 1004,439 1004,452 1004,476 1004,436 1004,429 1004,447 1004,526 1004,528 1004,540 1004,476 1004,418 1004,385 1004,395 1004,444 1004,437 1004,411 1004,398 1004,422 1004,477 1004,538 1004,512 1004,473 1004,505 1004,560 1004,522 1004,502 1004,498 1004,516 1004,519 1004,516 1004,550 1004,604 1004,564 1004,600 1004,579 1004,539 1004,500 1004,429 1004,395 1004,436 1004,509 1004,489 1004,444 1004,424 1004,486 1004,434 1004,446 1004,389 1004,429 1004,439 1004,403 1004,372 1004,380 1004,435 1004,658 1004,594 1004,506 1004,525 1004,462 1004,658 1004,510 1004,534 1004,522 1004,433 1004,512 1004,432 1004,479 1004,658 1004,492 1004,467 1004,421 1004,438 1004,388 1004,421 1004,492 1004,527 1004,502 1004,602 1004,534 1004,504 1004,618 1004,472 1004,399 1004,396 1004,414 1004,443 1004,490 1004,541 1004,451 1004,393 1004,372 1004,393 1004,464 1004,529 1004,515 1004,464 1004,425 1004,542 1004,416 1004,491 1004,410 1004,383 1004,403 1004,442 1004,437 1004,434 1004,421 1004,436 1004,405 1004,476 1004,482 1004,549 1004,501 1004,498 1004,428 1004,371 1004,367 1004,434 1004,456 1004,439 1004,453 1004,515 1004,505 1004,515 1004,658 1004,658 1004,595 1004,634 1004,658 1004,658 1004,655 1004,658 1004,658 1004,654 1004,644 1004,658 1004,658 1004,638 1004,658 1004,658 1004,588 1004,570 1004,529 1004,505 1004,484 1004,478 1004,555 1004,502 1004,482 1004,486 1004,520 1004,598 1004,470 1004,473 1004,428 1004,539 1004,473 1004,484 1004,375 1004,357 1004,418 1004,445 1004,452 1004,466 1004,535 1004,501 1004,461 1004,524 1004,508 1004,494 1004,542 1004,452 1004,459 1004,424 1004,423 1004,485 1004,392 1004,404 1004,486 1004,451 1004,482 1004,430 1004,378 1004,384 1004,491 1004,443 1004,455 1004,466 1004,569 1004,578 1004,631 1004,627 1004,608 1004,644 1004,613 1004,652 1004,607 1004,607 1004,569 1004,629 1004,545 1004,493 1004,527 1004,502 1004,439 1004,425 1004,500 1004,455 1004,445 1004,427 1004,461 1004,508 1004,453 1004,429 1004,414 1004,403 1004,353 1004,323 1004,334 1004,407 1004,487 1004,471 1004,461 1004,485 1004,486 1004,476 1004,392 1004,338 1004,349 1004,404 1004,409 1004,494 1004,477 1004,482 1004,450 1004,417 1004,571 1004,398 1004,401 1004,377 1004,341 1004,325 1004,336 1004,371 1004,321 1004,371 1004,307 1004,328 1004,334 1004,323 1004,343 1004,362 1004,331 1004,377 1004,396 1004,414 1004,450 1004,385 1004,316 1004,307 1004,350 1004,416 1004,419 1004,387 1004,498 1004,411 1004,398 1004,342 1004,295 1004,377 1004,280 1004,299 1004,433 1004,302 1004,295 1004,380 1004,311 1004,329 1004,363 1004,335 1004,262 1004,257 1004,329 1004,310 1004,355 1004,303 1004,345 1004,285 1004,294 1004,374 1004,345 1004,294 1004,319 1004,255 1004,299 1004,255 1004,242 1004,212 1004,223 1004,258 1004,285 1004,283 1004,253 1004,248 1004,280 1004,240 1004,229 1004,238 1004,215 1004,220 1004,261 1004,222 1004,251 1004,207 1004,281 1004,227 1004,248 1004,313 1004,368 1004,329 1004,305 1004,310 1004,226 1004,240 1004,303 1004,250 1004,313 1004,245 1004,251 1004,335 1004,232 1004,232 1004,366 1004,233 1004,242 1004,388 1004,258 1004,238 1004,269 1004,401 1004,264 1004,317 1004,250 1004,279 1004,338 1004,386 1004,292 1004,305 1004,233 1004,253 1004,287 1004,268 1004,265 1004,296 1004,235 1004,253 1004,336 1004,277 1004,238 1004,224 1004,227 1004,268 1004,274 1004,229 1004,240 1004,246 1004,221 1004,231 1004,265 1004,302 1004,281 1004,268 1004,337 1004,249 1004,241 1004,231 1004,204 1004,201 1004,230 1004,275 1004,223 1004,243 1004,201 1004,174 1004,184 1004,253 1004,202 1004,224 1004,256 1004,249 1004,219 1004,215 1004,266 1004,188 1004,181 1004,300 1004,188 1004,270 1004,153 1004,137 1004,171 1004,146 1004,126 1004,135 1004,147 1004,127 1004,124 1004,131 1004,120 1004,144 1004,218 1004,209 1004,141 1004,134 1004,166 1004,187 1004,158 1004,172 1004,181 1004,161 1004,147 1004,162 1004,296 1004,282 1004,220 1004,208 1004,181 1004,168 1004,175 1004,190 1004,128 1004,185 1004,111 1004,140 1004,178 1004,160 1004,161 1004,191 1004,306 1004,306 1004,275 1004,267 1004,277 1004,179 1004,216 1004,198 1004,192 1004,317 1004,207 1004,220 1004,228 1004,275 1004,288 1004,242 1004,224 1004,308 1004,250 1004,247 1004,237 1004,197 1004,286 1004,280 1004,232 1004,218 1004,264 1004,217 1004,260 1004,226 1004,212 1004,224 1004,257 1004,303 1004,247 1004,267 1004,269 1004,238 1004,273 1004,355 1004,239 1004,237 1004,223 1004,303 1004,198 1004,219 1004,245 1004,198 1004,195 1004,215 1004,222 1004,207 1004,213 1004,241 1004,249 1004,284 1004,352 1004,298 1004,290 1004,295 1004,380 1004,242 1004,219 1004,271 1004,229 1004,209 1004,222 1004,240 1004,246 1004,302 1004,281 1004,230 1004,221 1004,302 1004,252 1004,244 1004,344 1004,207 1004,240 1004,166 1004,192 1004,218 1004,187 1004,202 1004,223 1004,205 1004,284 1004,224 1004,203 1004,242 1004,244 1004,283 1004,204 1004,251 1004,204 1004,167 1004,135 1004,207 1004,185 1004,213 1004,246 1004,200 1004,147 1004,154 1004,246 1004,170 1004,215 1004,246 1004,271 1004,249 1004,201 1004,287 1004,279 1004,139 1004,138 1004,71 1004,65 1004,89 1004,171 1004,202 1004,339 1004,226 1004,213 1004,210 1004,240 1004,233 1004,349 1004,360 1004,384 1004,276 1004,308 "/>
<polyline fill="none" opacity="1" stroke="#3CB44B" stroke-width="1" points="130,314 131,314 133,313 134,312 136,311 137,310 139,309 140,307 142,305 143,303 145,300 146,298 148,295 149,293 151,290 152,288 154,285 155,283 157,281 158,279 160,277 161,275 163,274 164,273 166,272 167,271 169,271 170,270 172,270 173,271 175,271 176,272 178,273 180,274 181,275 183,276 184,278 186,279 187,281 189,282 190,284 192,285 193,287 195,289 196,290 198,291 199,293 201,294 202,295 204,296 205,297 207,298 208,299 210,300 211,300 213,301 214,301 216,302 217,302 219,303 220,303 222,303 223,304 225,304 227,304 228,304 230,304 231,304 233,305 234,305 236,305 237,305 239,305 240,305 242,305 243,305 245,305 246,305 248,305 249,304 251,304 252,304 254,304 255,303 257,303 258,303 260,303 261,302 263,302 264,302 266,301 267,301 269,301 270,301 272,301 273,300 275,300 277,300 278,300 280,300 281,300 283,301 284,301 286,301 287,301 289,301 290,301 292,302 293,302 295,302 296,302 298,302 299,302 301,302 302,302 304,302 305,301 307,301 308,301 310,300 311,299 313,298 314,298 316,297 317,296 319,294 320,293 322,292 324,291 325,289 327,288 328,286 330,285 331,283 333,282 334,280 336,278 337,277 339,275 340,274 342,272 343,271 345,270 346,268 348,267 349,266 351,265 352,264 354,263 355,262 357,261 358,260 360,260 361,259 363,259 364,258 366,258 367,258 369,258 370,258 372,258 374,259 375,259 377,260 378,260 380,261 381,262 383,263 384,264 386,265 387,266 389,268 390,269 392,271 393,273 395,274 396,276 398,278 399,279 401,281 402,283 404,285 405,286 407,288 408,290 410,291 411,293 413,294 414,295 416,297 417,298 419,299 421,299 422,300 424,301 425,302 427,302 428,303 430,303 431,303 433,304 434,304 436,304 437,305 439,305 440,305 442,305 443,306 445,306 446,307 448,307 449,308 451,309 452,309 454,310 455,311 457,312 458,313 460,314 461,315 463,316 464,317 466,318 467,319 469,320 471,321 472,322 474,323 475,324 477,324 478,325 480,325 481,325 483,326 484,325 486,325 487,325 489,325 490,324 492,323 493,322 495,322 496,320 498,319 499,318 501,317 502,316 504,314 505,313 507,312 508,310 510,309 511,308 513,307 514,306 516,305 518,304 519,303 521,302 522,302 524,302 525,301 527,301 528,302 530,302 531,302 533,303 534,304 536,304 537,305 539,307 540,308 542,309 543,311 545,313 546,314 548,316 549,318 551,320 552,322 554,324 555,326 557,329 558,331 560,333 561,335 563,337 564,339 566,341 568,343 569,344 571,346 572,348 574,349 575,350 577,352 578,353 580,354 581,355 583,355 584,356 586,357 587,357 589,358 590,358 592,358 593,358 595,358 596,359 598,359 599,359 601,359 602,359 604,359 605,360 607,360 608,360 610,361 611,361 613,362 615,363 616,364 618,364 619,365 621,366 622,367 624,368 625,370 627,371 628,372 630,373 631,374 633,375 634,376 636,378 637,379 639,380 640,381 642,381 643,382 645,383 646,384 648,385 649,386 651,387 652,387 654,388 655,389 657,390 658,391 660,393 661,394 663,395 665,397 666,399 668,401 669,403 671,405 672,407 674,410 675,413 677,415 678,418 680,421 681,425 683,428 684,431 686,434 687,437 689,439 690,442 692,445 693,447 695,449 696,450 698,452 699,453 701,453 702,453 704,453 705,452 707,451 708,449 710,448 712,445 713,442 715,439 716,436 718,433 719,429 721,425 722,421 724,417 725,413 727,409 728,405 730,402 731,399 733,396 734,393 736,391 737,389 739,388 740,387 742,387 743,388 745,388 746,390 748,392 749,395 751,398 752,401 754,405 755,410 757,414 758,419 760,425 762,430 763,435 765,441 766,447 768,452 769,457 771,463 772,468 774,472 775,476 777,480 778,484 780,487 781,489 783,491 784,492 786,493 787,494 789,493 790,493 792,491 793,490 795,487 796,485 798,482 799,478 801,474 802,470 804,466 805,461 807,457 809,452 810,447 812,442 813,437 815,432 816,427 818,422 819,418 821,413 822,409 824,406 825,402 827,399 828,396 830,394 831,391 833,390 834,388 836,387 837,387 839,386 840,387 842,387 843,388 845,389 846,390 848,392 849,394 851,396 852,398 854,400 855,403 857,406 859,408 860,411 862,413 863,416 865,418 866,420 868,422 869,424 871,426 872,428 874,429 875,430 877,431 878,431 880,432 881,432 883,431 884,431 886,430 887,430 889,429 890,428 892,426 893,425 895,424 896,423 898,421 899,420 901,419 902,418 904,416 906,416 907,415 909,414 910,414 912,413 913,413 915,413 916,414 918,414 919,415 921,415 922,416 924,417 925,418 927,419 928,420 930,421 931,423 933,424 934,425 936,426 937,427 939,427 940,428 942,428 943,429 945,429 946,429 948,429 949,428 951,428 952,427 954,427 956,426 957,425 959,424 960,423 962,422 963,421 965,419 966,418 968,417 969,416 971,415 972,414 974,413 975,412 977,411 978,411 980,410 981,410 983,409 984,409 986,409 987,408 989,408 990,408 992,408 993,408 995,408 996,408 998,408 999,408 1001,408 1003,408 1004,408 1004,408 1004,408 1004,408 1004,408 1004,408 1004,408 1004,408 1004,408 1004,408 1004,409 1004,409 1004,409 1004,410 1004,410 1004,411 1004,411 1004,412 1004,413 1004,414 1004,415 1004,416 1004,417 1004,418 1004,419 1004,421 1004,422 1004,423 1004,424 1004,425 1004,426 1004,427 1004,427 1004,428 1004,428 1004,429 1004,429 1004,429 1004,429 1004,428 1004,428 1004,427 1004,427 1004,426 1004,425 1004,424 1004,423 1004,421 1004,420 1004,419 1004,418 1004,417 1004,416 1004,415 1004,415 1004,414 1004,414 1004,413 1004,413 1004,413 1004,414 1004,414 1004,415 1004,416 1004,416 1004,418 1004,419 1004,420 1004,421 1004,423 1004,424 1004,425 1004,426 1004,428 1004,429 1004,430 1004,430 1004,431 1004,431 1004,432 1004,432 1004,431 1004,431 1004,430 1004,429 1004,428 1004,426 1004,424 1004,422 1004,420 1004,418 1004,416 1004,413 1004,411 1004,408 1004,406 1004,403 1004,400 1004,398 1004,396 1004,394 1004,392 1004,390 1004,389 1004,388 1004,387 1004,387 1004,386 1004,387 1004,387 1004,388 1004,390 1004,391 1004,394 1004,396 1004,399 1004,402 1004,406 1004,409 1004,413 1004,418 1004,422 1004,427 1004,432 1004,437 1004,442 1004,447 1004,452 1004,457 1004,461 1004,466 1004,470 1004,474 1004,478 1004,482 1004,485 1004,487 1004,490 1004,491 1004,493 1004,493 1004,494 1004,493 1004,492 1004,491 1004,489 1004,487 1004,484 1004,480 1004,476 1004,472 1004,468 1004,463 1004,457 1004,452 1004,447 1004,441 1004,435 1004,430 1004,425 1004,419 1004,414 1004,410 1004,405 1004,401 1004,398 1004,395 1004,392 1004,390 1004,388 1004,388 1004,387 1004,387 1004,388 1004,389 1004,391 1004,393 1004,396 1004,399 1004,402 1004,405 1004,409 1004,413 1004,417 1004,421 1004,425 1004,429 1004,433 1004,436 1004,439 1004,442 1004,445 1004,448 1004,449 1004,451 1004,452 1004,453 1004,453 1004,453 1004,453 1004,452 1004,450 1004,449 1004,447 1004,445 1004,442 1004,439 1004,437 1004,434 1004,431 1004,428 1004,425 1004,421 1004,418 1004,415 1004,413 1004,410 1004,407 1004,405 1004,403 1004,401 1004,399 1004,397 1004,395 1004,394 1004,393 1004,391 1004,390 1004,389 1004,388 1004,387 1004,387 1004,386 1004,385 1004,384 1004,383 1004,382 1004,381 1004,381 1004,380 1004,379 1004,378 1004,376 1004,375 1004,374 1004,373 1004,372 1004,371 1004,370 1004,368 1004,367 1004,366 1004,365 1004,364 1004,364 1004,363 1004,362 1004,361 1004,361 1004,360 1004,360 1004,360 1004,359 1004,359 1004,359 1004,359 1004,359 1004,359 1004,358 1004,358 1004,358 1004,358 1004,358 1004,357 1004,357 1004,356 1004,355 1004,355 1004,354 1004,353 1004,352 1004,350 1004,349 1004,348 1004,346 1004,344 1004,343 1004,341 1004,339 1004,337 1004,335 1004,333 1004,331 1004,329 1004,326 1004,324 1004,322 1004,320 1004,318 1004,316 1004,314 1004,313 1004,311 1004,309 1004,308 1004,307 1004,305 1004,304 1004,304 1004,303 1004,302 1004,302 1004,302 1004,301 1004,301 1004,302 1004,302 1004,302 1004,303 1004,304 1004,305 1004,306 1004,307 1004,308 1004,309 1004,310 1004,312 1004,313 1004,314 1004,316 1004,317 1004,318 1004,319 1004,320 1004,322 1004,322 1004,323 1004,324 1004,325 1004,325 1004,325 1004,325 1004,326 1004,325 1004,325 1004,325 1004,324 1004,324 1004,323 1004,322 1004,321 1004,320 1004,319 1004,318 1004,317 1004,316 1004,315 1004,314 1004,313 1004,312 1004,311 1004,310 1004,309 1004,309 1004,308 1004,307 1004,307 1004,306 1004,306 1004,305 1004,305 1004,305 1004,305 1004,304 1004,304 1004,304 1004,303 1004,303 1004,303 1004,302 1004,302 1004,301 1004,300 1004,299 1004,299 1004,298 1004,297 1004,295 1004,294 1004,293 1004,291 1004,290 1004,288 1004,286 1004,285 1004,283 1004,281 1004,279 1004,278 1004,276 1004,274 1004,273 1004,271 1004,269 1004,268 1004,266 1004,265 1004,264 1004,263 1004,262 1004,261 1004,260 1004,260 1004,259 1004,259 1004,258 1004,258 1004,258 1004,258 1004,258 1004,258 1004,259 1004,259 1004,260 1004,260 1004,261 1004,262 1004,263 1004,264 1004,265 1004,266 1004,267 1004,268 1004,270 1004,271 1004,272 1004,274 1004,275 1004,277 1004,278 1004,280 1004,282 1004,283 1004,285 1004,286 1004,288 1004,289 1004,291 1004,292 1004,293 1004,294 1004,296 1004,297 1004,298 1004,298 1004,299 1004,300 1004,301 1004,301 1004,301 1004,302 1004,302 1004,302 1004,302 1004,302 1004,302 1004,302 1004,302 1004,302 1004,301 1004,301 1004,301 1004,301 1004,301 1004,301 1004,300 1004,300 1004,300 1004,300 1004,300 1004,300 1004,301 1004,301 1004,301 1004,301 1004,301 1004,302 1004,302 1004,302 1004,303 1004,303 1004,303 1004,303 1004,304 1004,304 1004,304 1004,304 1004,305 1004,305 1004,305 1004,305 1004,305 1004,305 1004,305 1004,305 1004,305 1004,305 1004,305 1004,304 1004,304 1004,304 1004,304 1004,304 1004,304 1004,303 1004,303 1004,303 1004,302 1004,302 1004,301 1004,301 1004,300 1004,300 1004,299 1004,298 1004,297 1004,296 1004,295 1004,294 1004,293 1004,291 1004,290 1004,289 1004,287 1004,285 1004,284 1004,282 1004,281 1004,279 1004,278 1004,276 1004,275 1004,274 1004,273 1004,272 1004,271 1004,271 1004,270 1004,270 1004,271 1004,271 1004,272 1004,273 1004,274 1004,275 1004,277 1004,279 1004,281 1004,283 1004,285 1004,288 1004,290 1004,293 1004,295 1004,298 1004,300 1004,303 1004,305 1004,307 1004,309 1004,310 1004,311 1004,312 1004,313 1004,314 "/>
<polyline fill="none" opacity="1" stroke="#FFE119" stroke-width="1" points="130,345 131,345 133,345 134,345 136,346 137,346 139,346 140,346 142,346 143,346 145,346 146,346 148,346 149,347 151,347 152,347 154,347 155,347 157,347 158,347 160,347 161,347 163,347 164,347 166,347 167,347 169,347 170,347 172,347 173,347 175,347 176,347 178,347 180,347 181,347 183,347 184,347 186,347 187,347 189,347 190,347 192,347 193,347 195,347 196,347 198,348 199,348 201,348 202,348 204,348 205,348 207,348 208,348 210,348 211,348 213,348 214,348 216,348 217,348 219,348 220,348 222,348 223,347 225,347 227,347 228,347 230,346 231,346 233,346 234,345 236,345 237,345 239,345 240,345 242,344 243,344 245,344 246,344 248,344 249,344 251,344 252,344 254,344 255,344 257,344 258,344 260,344 261,344 263,344 264,344 266,344 267,344 269,344 270,344 272,344 273,344 275,344 277,344 278,344 280,344 281,343 283,343 284,343 286,343 287,343 289,343 290,343 292,343 293,342 295,342 296,342 298,342 299,342 301,342 302,342 304,342 305,342 307,343 308,343 310,343 311,343 313,343 314,343 316,344 317,344 319,344 320,344 322,345 324,345 325,345 327,345 328,345 330,346 331,346 333,346 334,346 336,346 337,346 339,346 340,347 342,347 343,347 345,347 346,347 348,347 349,347 351,347 352,347 354,347 355,347 357,347 358,347 360,347 361,347 363,347 364,347 366,347 367,347 369,347 370,347 372,347 374,347 375,347 377,347 378,348 380,348 381,348 383,348 384,348 386,348 387,348 389,348 390,348 392,348 393,348 395,348 396,348 398,349 399,349 401,349 402,349 404,349 405,349 407,349 408,350 410,350 411,350 413,350 414,350 416,351 417,351 419,351 421,351 422,351 424,352 425,352 427,352 428,352 430,352 431,353 433,353 434,353 436,353 437,353 439,353 440,354 442,354 443,354 445,354 446,354 448,354 449,355 451,355 452,355 454,355 455,355 457,355 458,356 460,356 461,356 463,356 464,356 466,356 467,357 469,357 471,357 472,357 474,357 475,357 477,357 478,357 480,357 481,357 483,357 484,357 486,357 487,356 489,356 490,356 492,356 493,356 495,355 496,355 498,355 499,355 501,354 502,354 504,354 505,354 507,353 508,353 510,353 511,353 513,353 514,353 516,352 518,352 519,352 521,352 522,352 524,352 525,352 527,352 528,352 530,352 531,352 533,352 534,351 536,351 537,351 539,351 540,350 542,350 543,349 545,349 546,349 548,348 549,348 551,347 552,346 554,346 555,345 557,345 558,344 560,344 561,344 563,343 564,343 566,343 568,343 569,343 571,344 572,344 574,345 575,346 577,347 578,348 580,349 581,351 583,352 584,354 586,356 587,358 589,360 590,362 592,364 593,366 595,369 596,371 598,373 599,375 601,377 602,379 604,381 605,383 607,385 608,387 610,388 611,390 613,391 615,393 616,394 618,395 619,397 621,398 622,399 624,399 625,400 627,401 628,402 630,403 631,404 633,405 634,406 636,407 637,408 639,410 640,412 642,414 643,416 645,419 646,422 648,425 649,429 651,433 652,437 654,441 655,445 657,449 658,453 660,457 661,462 663,466 665,470 666,474 668,477 669,481 671,485 672,488 674,491 675,494 677,497 678,500 680,503 681,505 683,508 684,510 686,512 687,514 689,515 690,517 692,518 693,519 695,520 696,521 698,521 699,522 701,522 702,522 704,522 705,521 707,521 708,520 710,518 712,517 713,515 715,513 716,511 718,509 719,506 721,503 722,500 724,496 725,492 727,488 728,485 730,481 731,478 733,475 734,474 736,473 737,474 739,477 740,480 742,485 743,490 745,496 746,502 748,508 749,514 751,519 752,525 754,530 755,535 757,539 758,544 760,548 762,552 763,555 765,558 766,562 768,564 769,567 771,569 772,571 774,573 775,575 777,577 778,578 780,579 781,580 783,581 784,581 786,582 787,582 789,582 790,582 792,581 793,581 795,580 796,579 798,578 799,576 801,574 802,573 804,570 805,568 807,565 809,563 810,559 812,556 813,552 815,548 816,543 818,539 819,533 821,528 822,522 824,516 825,509 827,502 828,496 830,489 831,484 833,479 834,477 836,476 837,478 839,481 840,486 842,491 843,496 845,502 846,507 848,512 849,516 851,520 852,524 854,527 855,530 857,533 859,535 860,537 862,539 863,540 865,541 866,541 868,542 869,542 871,542 872,541 874,540 875,539 877,538 878,537 880,535 881,533 883,531 884,528 886,526 887,523 889,521 890,518 892,515 893,513 895,511 896,509 898,507 899,506 901,506 902,507 904,508 906,509 907,511 909,514 910,516 912,519 913,522 915,525 916,528 918,530 919,533 921,536 922,538 924,540 925,542 927,543 928,545 930,546 931,547 933,548 934,549 936,549 937,549 939,549 940,549 942,549 943,548 945,547 946,547 948,546 949,544 951,543 952,542 954,540 956,539 957,538 959,536 960,535 962,533 963,532 965,531 966,530 968,530 969,529 971,529 972,529 974,530 975,530 977,531 978,532 980,533 981,534 983,536 984,537 986,538 987,540 989,541 990,542 992,543 993,544 995,545 996,546 998,546 999,547 1001,547 1003,547 "/>
<polyline fill="none" opacity="1" stroke="#0082C8" stroke-width="1" points="130,256 131,256 133,256 134,256 136,256 137,256 139,256 140,256 142,256 143,256 145,257 146,257 148,257 149,257 151,257 152,257 154,257 155,257 157,257 158,257 160,257 161,257 163,257 164,257 166,257 167,257 169,257 170,257 172,257 173,257 175,257 176,257 178,257 180,257 181,257 183,257 184,257 186,257 187,257 189,257 190,257 192,257 193,257 195,258 196,258 198,258 199,258 201,258 202,258 204,258 205,258 207,259 208,259 210,259 211,259 213,259 214,259 216,258 217,258 219,258 220,258 222,258 223,258 225,257 227,257 228,257 230,257 231,256 233,256 234,256 236,256 237,255 239,255 240,255 242,255 243,254 245,254 246,254 248,254 249,254 251,254 252,254 254,254 255,254 257,254 258,254 260,254 261,254 263,254 264,254 266,254 267,254 269,254 270,254 272,254 273,254 275,254 277,254 278,254 280,254 281,254 283,254 284,254 286,253 287,253 289,253 290,253 292,253 293,253 295,253 296,253 298,253 299,253 301,253 302,253 304,253 305,253 307,253 308,253 310,253 311,253 313,254 314,254 316,254 317,254 319,254 320,255 322,255 324,255 325,255 327,256 328,256 330,256 331,256 333,256 334,256 336,257 337,257 339,257 340,257 342,257 343,257 345,257 346,257 348,257 349,257 351,257 352,257 354,257 355,257 357,257 358,257 360,257 361,257 363,257 364,257 366,258 367,258 369,258 370,258 372,258 374,258 375,258 377,258 378,258 380,258 381,258 383,258 384,258 386,258 387,258 389,258 390,258 392,258 393,259 395,259 396,259 398,259 399,259 401,259 402,259 404,259 405,260 407,260 408,260 410,260 411,260 413,261 414,261 416,261 417,261 419,261 421,262 422,262 424,262 425,262 427,262 428,263 430,263 431,263 433,263 434,263 436,263 437,264 439,264 440,264 442,264 443,264 445,264 446,265 448,265 449,265 451,265 452,265 454,265 455,266 457,266 458,266 460,266 461,266 463,266 464,267 466,267 467,267 469,267 471,267 472,267 474,267 475,267 477,267 478,267 480,267 481,267 483,267 484,267 486,267 487,267 489,267 490,266 492,266 493,266 495,266 496,265 498,265 499,265 501,265 502,264 504,264 505,264 507,264 508,263 510,263 511,263 513,263 514,263 516,263 518,263 519,263 521,263 522,263 524,262 525,262 527,262 528,262 530,262 531,262 533,262 534,262 536,261 537,261 539,261 540,261 542,260 543,260 545,259 546,259 548,258 549,258 551,257 552,257 554,256 555,256 557,255 558,255 560,254 561,254 563,254 564,253 566,253 568,254 569,254 571,254 572,255 574,255 575,256 577,257 578,258 580,260 581,261 583,263 584,265 586,266 587,268 589,270 590,272 592,275 593,277 595,279 596,281 598,283 599,285 601,287 602,289 604,291 605,293 607,295 608,297 610,299 611,300 613,302 615,303 616,304 618,306 619,307 621,308 622,309 624,310 625,311 627,311 628,312 630,313 631,314 633,315 634,316 636,317 637,319 639,320 640,322 642,324 643,327 645,329 646,333 648,336 649,339 651,343 652,347 654,351 655,355 657,359 658,364 660,368 661,372 663,376 665,380 666,384 668,388 669,391 671,395 672,398 674,402 675,405 677,408 678,411 680,413 681,416 683,418 684,420 686,422 687,424 689,426 690,427 692,428 693,430 695,431 696,431 698,432 699,432 701,432 702,432 704,432 705,432 707,431 708,430 710,429 712,427 713,426 715,424 716,421 718,419 719,416 721,413 722,410 724,406 725,403 727,399 728,395 730,391 731,388 733,386 734,384 736,384 737,385 739,387 740,391 742,395 743,401 745,406 746,412 748,418 749,424 751,430 752,435 754,440 755,445 757,450 758,454 760,458 762,462 763,466 765,469 766,472 768,475 769,477 771,480 772,482 774,484 775,485 777,487 778,488 780,489 781,490 783,491 784,492 786,492 787,492 789,492 790,492 792,492 793,491 795,490 796,489 798,488 799,486 801,485 802,483 804,481 805,478 807,476 809,473 810,470 812,466 813,462 815,458 816,454 818,449 819,444 821,438 822,432 824,426 825,420 827,413 828,406 830,400 831,394 833,390 834,387 836,387 837,388 839,392 840,396 842,401 843,407 845,412 846,417 848,422 849,427 851,431 852,434 854,438 855,441 857,443 859,446 860,447 862,449 863,450 865,451 866,452 868,452 869,452 871,452 872,452 874,451 875,450 877,449 878,447 880,445 881,443 883,441 884,439 886,436 887,434 889,431 890,428 892,426 893,423 895,421 896,419 898,418 899,417 901,416 902,417 904,418 906,419 907,421 909,424 910,427 912,429 913,432 915,435 916,438 918,441 919,443 921,446 922,448 924,450 925,452 927,454 928,455 930,456 931,457 933,458 934,459 936,459 937,459 939,460 940,459 942,459 943,458 945,458 946,457 948,456 949,455 951,454 952,452 954,451 956,449 957,448 959,446 960,445 962,444 963,442 965,441 966,440 968,440 969,439 971,439 972,439 974,440 975,441 977,441 978,442 980,444 981,445 983,446 984,447 986,449 987,450 989,451 990,452 992,454 993,455 995,455 996,456 998,457 999,457 1001,457 1003,457 "/>
<rect x="655" y="260" width="344" height="157" opacity="0.8" fill="#FFFFFF" stroke="none"/>
<rect x="655" y="260" width="344" height="157" opacity="1" fill="none" stroke="#000000"/>
<text x="695" y="270" dy="0.76em" text-anchor="start" font-family="sans-serif" font-size="24.193548387096776" opacity="1" fill="#000000">
log_power
</text>
<text x="695" y="308" dy="0.76em" text-anchor="start" font-family="sans-serif" font-size="24.193548387096776" opacity="1" fill="#000000">
spectral_envelope
</text>
<text x="695" y="345" dy="0.76em" text-anchor="start" font-family="sans-serif" font-size="24.193548387096776" opacity="1" fill="#000000">
levinson_durbin_log_power
</text>
<text x="695" y="383" dy="0.76em" text-anchor="start" font-family="sans-serif" font-size="24.193548387096776" opacity="1" fill="#000000">
burg_log_power
</text>
<polyline fill="none" opacity="1" stroke="#E6194B" stroke-width="1" points="665,282 685,282 "/>
<polyline fill="none" opacity="1" stroke="#3CB44B" stroke-width="1" points="665,320 685,320 "/>
<polyline fill="none" opacity="1" stroke="#FFE119" stroke-width="1" points="665,357 685,357 "/>
<polyline fill="none" opacity="1" stroke="#0082C8" stroke-width="1" points="665,395 685,395 "/>
</svg>
