<svg width="1024" height="768" viewBox="0 0 1024 768" xmlns="http://www.w3.org/2000/svg">
<rect x="0" y="0" width="1024" height="768" opacity="1" fill="#FFFFFF" stroke="none"/>
<line opacity="0.1" stroke="#000000" stroke-width="1" x1="130" y1="657" x2="130" y2="20"/>
<line opacity="0.1" stroke="#000000" stroke-width="1" x1="140" y1="657" x2="140" y2="20"/>
<line opacity="0.1" stroke="#000000" stroke-width="1" x1="151" y1="657" x2="151" y2="20"/>
<line opacity="0.1" stroke="#000000" stroke-width="1" x1="162" y1="657" x2="162" y2="20"/>
<line opacity="0.1" stroke="#000000" stroke-width="1" x1="173" y1="657" x2="173" y2="20"/>
<line opacity="0.1" stroke="#000000" stroke-width="1" x1="184" y1="657" x2="184" y2="20"/>
<line opacity="0.1" stroke="#000000" stroke-width="1" x1="195" y1="657" x2="195" y2="20"/>
<line opacity="0.1" stroke="#000000" stroke-width="1" x1="206" y1="657" x2="206" y2="20"/>
<line opacity="0.1" stroke="#000000" stroke-width="1" x1="217" y1="657" x2="217" y2="20"/>
<line opacity="0.1" stroke="#000000" stroke-width="1" x1="228" y1="657" x2="228" y2="20"/>
<line opacity="0.1" stroke="#000000" stroke-width="1" x1="239" y1="657" x2="239" y2="20"/>
<line opacity="0.1" stroke="#000000" stroke-width="1" x1="250" y1="657" x2="250" y2="20"/>
<line opacity="0.1" stroke="#000000" stroke-width="1" x1="260" y1="657" x2="260" y2="20"/>
<line opacity="0.1" stroke="#000000" stroke-width="1" x1="271" y1="657" x2="271" y2="20"/>
<line opacity="0.1" stroke="#000000" stroke-width="1" x1="282" y1="657" x2="282" y2="20"/>
<line opacity="0.1" stroke="#000000" stroke-width="1" x1="293" y1="657" x2="293" y2="20"/>
<line opacity="0.1" stroke="#000000" stroke-width="1" x1="304" y1="657" x2="304" y2="20"/>
<line opacity="0.1" stroke="#000000" stroke-width="1" x1="315" y1="657" x2="315" y2="20"/>
<line opacity="0.1" stroke="#000000" stroke-width="1" x1="326" y1="657" x2="326" y2="20"/>
<line opacity="0.1" stroke="#000000" stroke-width="1" x1="337" y1="657" x2="337" y2="20"/>
<line opacity="0.1" stroke="#000000" stroke-width="1" x1="348" y1="657" x2="348" y2="20"/>
<line opacity="0.1" stroke="#000000" stroke-width="1" x1="359" y1="657" x2="359" y2="20"/>
<line opacity="0.1" stroke="#000000" stroke-width="1" x1="370" y1="657" x2="370" y2="20"/>
<line opacity="0.1" stroke="#000000" stroke-width="1" x1="380" y1="657" x2="380" y2="20"/>
<line opacity="0.1" stroke="#000000" stroke-width="1" x1="391" y1="657" x2="391" y2="20"/>
<line opacity="0.1" stroke="#000000" stroke-width="1" x1="402" y1="657" x2="402" y2="20"/>
<line opacity="0.1" stroke="#000000" stroke-width="1" x1="413" y1="657" x2="413" y2="20"/>
<line opacity="0.1" stroke="#000000" stroke-width="1" x1="424" y1="657" x2="424" y2="20"/>
<line opacity="0.1" stroke="#000000" stroke-width="1" x1="435" y1="657" x2="435" y2="20"/>
<line opacity="0.1" stroke="#000000" stroke-width="1" x1="446" y1="657" x2="446" y2="20"/>
<line opacity="0.1" stroke="#000000" stroke-width="1" x1="457" y1="657" x2="457" y2="20"/>
<line opacity="0.1" stroke="#000000" stroke-width="1" x1="468" y1="657" x2="468" y2="20"/>
<line opacity="0.1" stroke="#000000" stroke-width="1" x1="479" y1="657" x2="479" y2="20"/>
<line opacity="0.1" stroke="#000000" stroke-width="1" x1="490" y1="657" x2="490" y2="20"/>
<line opacity="0.1" stroke="#000000" stroke-width="1" x1="501" y1="657" x2="501" y2="20"/>
<line opacity="0.1" stroke="#000000" stroke-width="1" x1="511" y1="657" x2="511" y2="20"/>
<line opacity="0.1" stroke="#000000" stroke-width="1" x1="522" y1="657" x2="522" y2="20"/>
<line opacity="0.1" stroke="#000000" stroke-width="1" x1="533" y1="657" x2="533" y2="20"/>
<line opacity="0.1" stroke="#000000" stroke-width="1" x1="544" y1="657" x2="544" y2="20"/>
<line opacity="0.1" stroke="#000000" stroke-width="1" x1="555" y1="657" x2="555" y2="20"/>
<line opacity="0.1" stroke="#000000" stroke-width="1" x1="566" y1="657" x2="566" y2="20"/>
<line opacity="0.1" stroke="#000000" stroke-width="1" x1="577" y1="657" x2="577" y2="20"/>
<line opacity="0.1" stroke="#000000" stroke-width="1" x1="588" y1="657" x2="588" y2="20"/>
<line opacity="0.1" stroke="#000000" stroke-width="1" x1="599" y1="657" x2="599" y2="20"/>
<line opacity="0.1" stroke="#000000" stroke-width="1" x1="610" y1="657" x2="610" y2="20"/>
<line opacity="0.1" stroke="#000000" stroke-width="1" x1="621" y1="657" x2="621" y2="20"/>
<line opacity="0.1" stroke="#000000" stroke-width="1" x1="631" y1="657" x2="631" y2="20"/>
<line opacity="0.1" stroke="#000000" stroke-width="1" x1="642" y1="657" x2="642" y2="20"/>
<line opacity="0.1" stroke="#000000" stroke-width="1" x1="653" y1="657" x2="653" y2="20"/>
<line opacity="0.1" stroke="#000000" stroke-width="1" x1="664" y1="657" x2="664" y2="20"/>
<line opacity="0.1" stroke="#000000" stroke-width="1" x1="675" y1="657" x2="675" y2="20"/>
<line opacity="0.1" stroke="#000000" stroke-width="1" x1="686" y1="657" x2="686" y2="20"/>
<line opacity="0.1" stroke="#000000" stroke-width="1" x1="697" y1="657" x2="697" y2="20"/>
<line opacity="0.1" stroke="#000000" stroke-width="1" x1="708" y1="657" x2="708" y2="20"/>
<line opacity="0.1" stroke="#000000" stroke-width="1" x1="719" y1="657" x2="719" y2="20"/>
<line opacity="0.1" stroke="#000000" stroke-width="1" x1="730" y1="657" x2="730" y2="20"/>
<line opacity="0.1" stroke="#000000" stroke-width="1" x1="741" y1="657" x2="741" y2="20"/>
<line opacity="0.1" stroke="#000000" stroke-width="1" x1="752" y1="657" x2="752" y2="20"/>
<line opacity="0.1" stroke="#000000" stroke-width="1" x1="762" y1="657" x2="762" y2="20"/>
<line opacity="0.1" stroke="#000000" stroke-width="1" x1="773" y1="657" x2="773" y2="20"/>
<line opacity="0.1" stroke="#000000" stroke-width="1" x1="784" y1="657" x2="784" y2="20"/>
<line opacity="0.1" stroke="#000000" stroke-width="1" x1="795" y1="657" x2="795" y2="20"/>
<line opacity="0.1" stroke="#000000" stroke-width="1" x1="806" y1="657" x2="806" y2="20"/>
<line opacity="0.1" stroke="#000000" stroke-width="1" x1="817" y1="657" x2="817" y2="20"/>
<line opacity="0.1" stroke="#000000" stroke-width="1" x1="828" y1="657" x2="828" y2="20"/>
<line opacity="0.1" stroke="#000000" stroke-width="1" x1="839" y1="657" x2="839" y2="20"/>
<line opacity="0.1" stroke="#000000" stroke-width="1" x1="850" y1="657" x2="850" y2="20"/>
<line opacity="0.1" stroke="#000000" stroke-width="1" x1="861" y1="657" x2="861" y2="20"/>
<line opacity="0.1" stroke="#000000" stroke-width="1" x1="872" y1="657" x2="872" y2="20"/>
<line opacity="0.1" stroke="#000000" stroke-width="1" x1="882" y1="657" x2="882" y2="20"/>
<line opacity="0.1" stroke="#000000" stroke-width="1" x1="893" y1="657" x2="893" y2="20"/>
<line opacity="0.1" stroke="#000000" stroke-width="1" x1="904" y1="657" x2="904" y2="20"/>
<line opacity="0.1" stroke="#000000" stroke-width="1" x1="915" y1="657" x2="915" y2="20"/>
<line opacity="0.1" stroke="#000000" stroke-width="1" x1="926" y1="657" x2="926" y2="20"/>
<line opacity="0.1" stroke="#000000" stroke-width="1" x1="937" y1="657" x2="937" y2="20"/>
<line opacity="0.1" stroke="#000000" stroke-width="1" x1="948" y1="657" x2="948" y2="20"/>
<line opacity="0.1" stroke="#000000" stroke-width="1" x1="959" y1="657" x2="959" y2="20"/>
<line opacity="0.1" stroke="#000000" stroke-width="1" x1="970" y1="657" x2="970" y2="20"/>
<line opacity="0.1" stroke="#000000" stroke-width="1" x1="981" y1="657" x2="981" y2="20"/>
<line opacity="0.1" stroke="#000000" stroke-width="1" x1="992" y1="657" x2="992" y2="20"/>
<line opacity="0.1" stroke="#000000" stroke-width="1" x1="1003" y1="657" x2="1003" y2="20"/>
<line opacity="0.1" stroke="#000000" stroke-width="1" x1="130" y1="657" x2="1003" y2="657"/>
<line opacity="0.1" stroke="#000000" stroke-width="1" x1="130" y1="650" x2="1003" y2="650"/>
<line opacity="0.1" stroke="#000000" stroke-width="1" x1="130" y1="642" x2="1003" y2="642"/>
<line opacity="0.1" stroke="#000000" stroke-width="1" x1="130" y1="634" x2="1003" y2="634"/>
<line opacity="0.1" stroke="#000000" stroke-width="1" x1="130" y1="626" x2="1003" y2="626"/>
<line opacity="0.1" stroke="#000000" stroke-width="1" x1="130" y1="618" x2="1003" y2="618"/>
<line opacity="0.1" stroke="#000000" stroke-width="1" x1="130" y1="610" x2="1003" y2="610"/>
<line opacity="0.1" stroke="#000000" stroke-width="1" x1="130" y1="602" x2="1003" y2="602"/>
<line opacity="0.1" stroke="#000000" stroke-width="1" x1="130" y1="594" x2="1003" y2="594"/>
<line opacity="0.1" stroke="#000000" stroke-width="1" x1="130" y1="586" x2="1003" y2="586"/>
<line opacity="0.1" stroke="#000000" stroke-width="1" x1="130" y1="578" x2="1003" y2="578"/>
<line opacity="0.1" stroke="#000000" stroke-width="1" x1="130" y1="570" x2="1003" y2="570"/>
<line opacity="0.1" stroke="#000000" stroke-width="1" x1="130" y1="562" x2="1003" y2="562"/>
<line opacity="0.1" stroke="#000000" stroke-width="1" x1="130" y1="554" x2="1003" y2="554"/>
<line opacity="0.1" stroke="#000000" stroke-width="1" x1="130" y1="546" x2="1003" y2="546"/>
<line opacity="0.1" stroke="#000000" stroke-width="1" x1="130" y1="538" x2="1003" y2="538"/>
<line opacity="0.1" stroke="#000000" stroke-width="1" x1="130" y1="530" x2="1003" y2="530"/>
<line opacity="0.1" stroke="#000000" stroke-width="1" x1="130" y1="522" x2="1003" y2="522"/>
<line opacity="0.1" stroke="#000000" stroke-width="1" x1="130" y1="514" x2="1003" y2="514"/>
<line opacity="0.1" stroke="#000000" stroke-width="1" x1="130" y1="506" x2="1003" y2="506"/>
<line opacity="0.1" stroke="#000000" stroke-width="1" x1="130" y1="498" x2="1003" y2="498"/>
<line opacity="0.1" stroke="#000000" stroke-width="1" x1="130" y1="490" x2="1003" y2="490"/>
<line opacity="0.1" stroke="#000000" stroke-width="1" x1="130" y1="482" x2="1003" y2="482"/>
<line opacity="0.1" stroke="#000000" stroke-width="1" x1="130" y1="474" x2="1003" y2="474"/>
<line opacity="0.1" stroke="#000000" stroke-width="1" x1="130" y1="466" x2="1003" y2="466"/>
<line opacity="0.1" stroke="#000000" stroke-width="1" x1="130" y1="458" x2="1003" y2="458"/>
<line opacity="0.1" stroke="#000000" stroke-width="1" x1="130" y1="450" x2="1003" y2="450"/>
<line opacity="0.1" stroke="#000000" stroke-width="1" x1="130" y1="443" x2="1003" y2="443"/>
<line opacity="0.1" stroke="#000000" stroke-width="1" x1="130" y1="435" x2="1003" y2="435"/>
<line opacity="0.1" stroke="#000000" stroke-width="1" x1="130" y1="427" x2="1003" y2="427"/>
<line opacity="0.1" stroke="#000000" stroke-width="1" x1="130" y1="419" x2="1003" y2="419"/>
<line opacity="0.1" stroke="#000000" stroke-width="1" x1="130" y1="411" x2="1003" y2="411"/>
<line opacity="0.1" stroke="#000000" stroke-width="1" x1="130" y1="403" x2="1003" y2="403"/>
<line opacity="0.1" stroke="#000000" stroke-width="1" x1="130" y1="395" x2="1003" y2="395"/>
<line opacity="0.1" stroke="#000000" stroke-width="1" x1="130" y1="387" x2="1003" y2="387"/>
<line opacity="0.1" stroke="#000000" stroke-width="1" x1="130" y1="379" x2="1003" y2="379"/>
<line opacity="0.1" stroke="#000000" stroke-width="1" x1="130" y1="371" x2="1003" y2="371"/>
<line opacity="0.1" stroke="#000000" stroke-width="1" x1="130" y1="363" x2="1003" y2="363"/>
<line opacity="0.1" stroke="#000000" stroke-width="1" x1="130" y1="355" x2="1003" y2="355"/>
<line opacity="0.1" stroke="#000000" stroke-width="1" x1="130" y1="347" x2="1003" y2="347"/>
<line opacity="0.1" stroke="#000000" stroke-width="1" x1="130" y1="339" x2="1003" y2="339"/>
<line opacity="0.1" stroke="#000000" stroke-width="1" x1="130" y1="331" x2="1003" y2="331"/>
<line opacity="0.1" stroke="#000000" stroke-width="1" x1="130" y1="323" x2="1003" y2="323"/>
<line opacity="0.1" stroke="#000000" stroke-width="1" x1="130" y1="315" x2="1003" y2="315"/>
<line opacity="0.1" stroke="#000000" stroke-width="1" x1="130" y1="307" x2="1003" y2="307"/>
<line opacity="0.1" stroke="#000000" stroke-width="1" x1="130" y1="299" x2="1003" y2="299"/>
<line opacity="0.1" stroke="#000000" stroke-width="1" x1="130" y1="291" x2="1003" y2="291"/>
<line opacity="0.1" stroke="#000000" stroke-width="1" x1="130" y1="283" x2="1003" y2="283"/>
<line opacity="0.1" stroke="#000000" stroke-width="1" x1="130" y1="275" x2="1003" y2="275"/>
<line opacity="0.1" stroke="#000000" stroke-width="1" x1="130" y1="267" x2="1003" y2="267"/>
<line opacity="0.1" stroke="#000000" stroke-width="1" x1="130" y1="259" x2="1003" y2="259"/>
<line opacity="0.1" stroke="#000000" stroke-width="1" x1="130" y1="251" x2="1003" y2="251"/>
<line opacity="0.1" stroke="#000000" stroke-width="1" x1="130" y1="243" x2="1003" y2="243"/>
<line opacity="0.1" stroke="#000000" stroke-width="1" x1="130" y1="235" x2="1003" y2="235"/>
<line opacity="0.1" stroke="#000000" stroke-width="1" x1="130" y1="228" x2="1003" y2="228"/>
<line opacity="0.1" stroke="#000000" stroke-width="1" x1="130" y1="220" x2="1003" y2="220"/>
<line opacity="0.1" stroke="#000000" stroke-width="1" x1="130" y1="212" x2="1003" y2="212"/>
<line opacity="0.1" stroke="#000000" stroke-width="1" x1="130" y1="204" x2="1003" y2="204"/>
<line opacity="0.1" stroke="#000000" stroke-width="1" x1="130" y1="196" x2="1003" y2="196"/>
<line opacity="0.1" stroke="#000000" stroke-width="1" x1="130" y1="188" x2="1003" y2="188"/>
<line opacity="0.1" stroke="#000000" stroke-width="1" x1="130" y1="180" x2="1003" y2="180"/>
<line opacity="0.1" stroke="#000000" stroke-width="1" x1="130" y1="172" x2="1003" y2="172"/>
<line opacity="0.1" stroke="#000000" stroke-width="1" x1="130" y1="164" x2="1003" y2="164"/>
<line opacity="0.1" stroke="#000000" stroke-width="1" x1="130" y1="156" x2="1003" y2="156"/>
<line opacity="0.1" stroke="#000000" stroke-width="1" x1="130" y1="148" x2="1003" y2="148"/>
<line opacity="0.1" stroke="#000000" stroke-width="1" x1="130" y1="140" x2="1003" y2="140"/>
<line opacity="0.1" stroke="#000000" stroke-width="1" x1="130" y1="132" x2="1003" y2="132"/>
<line opacity="0.1" stroke="#000000" stroke-width="1" x1="130" y1="124" x2="1003" y2="124"/>
<line opacity="0.1" stroke="#000000" stroke-width="1" x1="130" y1="116" x2="1003" y2="116"/>
<line opacity="0.1" stroke="#000000" stroke-width="1" x1="130" y1="108" x2="1003" y2="108"/>
<line opacity="0.1" stroke="#000000" stroke-width="1" x1="130" y1="100" x2="1003" y2="100"/>
<line opacity="0.1" stroke="#000000" stroke-width="1" x1="130" y1="92" x2="1003" y2="92"/>
<line opacity="0.1" stroke="#000000" stroke-width="1" x1="130" y1="84" x2="1003" y2="84"/>
<line opacity="0.1" stroke="#000000" stroke-width="1" x1="130" y1="76" x2="1003" y2="76"/>
<line opacity="0.1" stroke="#000000" stroke-width="1" x1="130" y1="68" x2="1003" y2="68"/>
<line opacity="0.1" stroke="#000000" stroke-width="1" x1="130" y1="60" x2="1003" y2="60"/>
<line opacity="0.1" stroke="#000000" stroke-width="1" x1="130" y1="52" x2="1003" y2="52"/>
<line opacity="0.1" stroke="#000000" stroke-width="1" x1="130" y1="44" x2="1003" y2="44"/>
<line opacity="0.1" stroke="#000000" stroke-width="1" x1="130" y1="36" x2="1003" y2="36"/>
<line opacity="0.1" stroke="#000000" stroke-width="1" x1="130" y1="28" x2="1003" y2="28"/>
<line opacity="0.1" stroke="#000000" stroke-width="1" x1="130" y1="20" x2="1003" y2="20"/>
<text x="20" y="339" dy="0.76em" text-anchor="middle" font-family="sans-serif" font-size="24.193548387096776" opacity="1" fill="#000000" transform="rotate(270, 20, 339)">
Power [dB]
</text>
<text x="567" y="748" dy="-0.5ex" text-anchor="middle" font-family="sans-serif" font-size="24.193548387096776" opacity="1" fill="#000000">
Frequency [Hz]
</text>
<line opacity="0.2" stroke="#000000" stroke-width="1" x1="130" y1="657" x2="130" y2="20"/>
<line opacity="0.2" stroke="#000000" stroke-width="1" x1="239" y1="657" x2="239" y2="20"/>
<line opacity="0.2" stroke="#000000" stroke-width="1" x1="348" y1="657" x2="348" y2="20"/>
<line opacity="0.2" stroke="#000000" stroke-width="1" x1="457" y1="657" x2="457" y2="20"/>
<line opacity="0.2" stroke="#000000" stroke-width="1" x1="566" y1="657" x2="566" y2="20"/>
<line opacity="0.2" stroke="#000000" stroke-width="1" x1="675" y1="657" x2="675" y2="20"/>
<line opacity="0.2" stroke="#000000" stroke-width="1" x1="784" y1="657" x2="784" y2="20"/>
<line opacity="0.2" stroke="#000000" stroke-width="1" x1="893" y1="657" x2="893" y2="20"/>
<line opacity="0.2" stroke="#000000" stroke-width="1" x1="1003" y1="657" x2="1003" y2="20"/>
<line opacity="0.2" stroke="#000000" stroke-width="1" x1="130" y1="657" x2="1003" y2="657"/>
<line opacity="0.2" stroke="#000000" stroke-width="1" x1="130" y1="578" x2="1003" y2="578"/>
<line opacity="0.2" stroke="#000000" stroke-width="1" x1="130" y1="498" x2="1003" y2="498"/>
<line opacity="0.2" stroke="#000000" stroke-width="1" x1="130" y1="419" x2="1003" y2="419"/>
<line opacity="0.2" stroke="#000000" stroke-width="1" x1="130" y1="339" x2="1003" y2="339"/>
<line opacity="0.2" stroke="#000000" stroke-width="1" x1="130" y1="259" x2="1003" y2="259"/>
<line opacity="0.2" stroke="#000000" stroke-width="1" x1="130" y1="180" x2="1003" y2="180"/>
<line opacity="0.2" stroke="#000000" stroke-width="1" x1="130" y1="100" x2="1003" y2="100"/>
<line opacity="0.2" stroke="#000000" stroke-width="1" x1="130" y1="20" x2="1003" y2="20"/>
<polyline fill="none" opacity="1" stroke="#000000" stroke-width="1" points="129,20 129,657 "/>
<text x="120" y="657" dy="0.5ex" text-anchor="end" font-family="sans-serif" font-size="24.193548387096776" opacity="1" fill="#000000">
-60.0
</text>
<polyline fill="none" opacity="1" stroke="#000000" stroke-width="1" points="124,657 129,657 "/>
<text x="120" y="578" dy="0.5ex" text-anchor="end" font-family="sans-serif" font-size="24.193548387096776" opacity="1" fill="#000000">
-50.0
</text>
<polyline fill="none" opacity="1" stroke="#000000" stroke-width="1" points="124,578 129,578 "/>
<text x="120" y="498" dy="0.5ex" text-anchor="end" font-family="sans-serif" font-size="24.193548387096776" opacity="1" fill="#000000">
-40.0
</text>
<polyline fill="none" opacity="1" stroke="#000000" stroke-width="1" points="124,498 129,498 "/>
<text x="120" y="419" dy="0.5ex" text-anchor="end" font-family="sans-serif" font-size="24.193548387096776" opacity="1" fill="#000000">
-30.0
</text>
<polyline fill="none" opacity="1" stroke="#000000" stroke-width="1" points="124,419 129,419 "/>
<text x="120" y="339" dy="0.5ex" text-anchor="end" font-family="sans-serif" font-size="24.193548387096776" opacity="1" fill="#000000">
-20.0
</text>
<polyline fill="none" opacity="1" stroke="#000000" stroke-width="1" points="124,339 129,339 "/>
<text x="120" y="259" dy="0.5ex" text-anchor="end" font-family="sans-serif" font-size="24.193548387096776" opacity="1" fill="#000000">
-10.0
</text>
<polyline fill="none" opacity="1" stroke="#000000" stroke-width="1" points="124,259 129,259 "/>
<text x="120" y="180" dy="0.5ex" text-anchor="end" font-family="sans-serif" font-size="24.193548387096776" opacity="1" fill="#000000">
0.0
</text>
<polyline fill="none" opacity="1" stroke="#000000" stroke-width="1" points="124,180 129,180 "/>
<text x="120" y="100" dy="0.5ex" text-anchor="end" font-family="sans-serif" font-size="24.193548387096776" opacity="1" fill="#000000">
10.0
</text>
<polyline fill="none" opacity="1" stroke="#000000" stroke-width="1" points="124,100 129,100 "/>
<text x="120" y="20" dy="0.5ex" text-anchor="end" font-family="sans-serif" font-size="24.193548387096776" opacity="1" fill="#000000">
20.0
</text>
<polyline fill="none" opacity="1" stroke="#000000" stroke-width="1" points="124,20 129,20 "/>
<polyline fill="none" opacity="1" stroke="#000000" stroke-width="1" points="130,658 1003,658 "/>
<text x="130" y="668" dy="0.76em" text-anchor="middle" font-family="sans-serif" font-size="24.193548387096776" opacity="1" fill="#000000">
0.0
</text>
<polyline fill="none" opacity="1" stroke="#000000" stroke-width="1" points="130,658 130,663 "/>
<text x="239" y="668" dy="0.76em" text-anchor="middle" font-family="sans-serif" font-size="24.193548387096776" opacity="1" fill="#000000">
1000.0
</text>
<polyline fill="none" opacity="1" stroke="#000000" stroke-width="1" points="239,658 239,663 "/>
<text x="348" y="668" dy="0.76em" text-anchor="middle" font-family="sans-serif" font-size="24.193548387096776" opacity="1" fill="#000000">
2000.0
</text>
<polyline fill="none" opacity="1" stroke="#000000" stroke-width="1" points="348,658 348,663 "/>
<text x="457" y="668" dy="0.76em" text-anchor="middle" font-family="sans-serif" font-size="24.193548387096776" opacity="1" fill="#000000">
3000.0
</text>
<polyline fill="none" opacity="1" stroke="#000000" stroke-width="1" points="457,658 457,663 "/>
<text x="566" y="668" dy="0.76em" text-anchor="middle" font-family="sans-serif" font-size="24.193548387096776" opacity="1" fill="#000000">
4000.0
</text>
<polyline fill="none" opacity="1" stroke="#000000" stroke-width="1" points="566,658 566,663 "/>
<text x="675" y="668" dy="0.76em" text-anchor="middle" font-family="sans-serif" font-size="24.193548387096776" opacity="1" fill="#000000">
5000.0
</text>
<polyline fill="none" opacity="1" stroke="#000000" stroke-width="1" points="675,658 675,663 "/>
<text x="784" y="668" dy="0.76em" text-anchor="middle" font-family="sans-serif" font-size="24.193548387096776" opacity="1" fill="#000000">
6000.0
</text>
<polyline fill="none" opacity="1" stroke="#000000" stroke-width="1" points="784,658 784,663 "/>
<text x="893" y="668" dy="0.76em" text-anchor="middle" font-family="sans-serif" font-size="24.193548387096776" opacity="1" fill="#000000">
7000.0
</text>
<polyline fill="none" opacity="1" stroke="#000000" stroke-width="1" points="893,658 893,663 "/>
<text x="1003" y="668" dy="0.76em" text-anchor="middle" font-family="sans-serif" font-size="24.193548387096776" opacity="1" fill="#000000">
8000.0
</text>
<polyline fill="none" opacity="1" stroke="#000000" stroke-width="1" points="1003,658 1003,663 "/>
<polyline fill="none" opacity="1" stroke="#E6194B" stroke-width="1" points="130,294 131,261 133,247 134,253 136,216 137,243 139,258 140,223 142,179 143,176 145,237 146,228 148,179 149,166 151,239 152,183 154,195 155,205 157,201 158,189 160,200 161,203 163,235 164,203 166,169 167,169 169,192 170,206 172,198 173,225 175,213 176,196 178,206 180,237 181,232 183,257 184,250 186,224 187,211 189,185 190,181 192,184 193,250 195,199 196,200 198,214 199,208 201,181 202,182 204,210 205,167 207,154 208,157 210,165 211,177 213,158 214,152 216,185 217,190 219,203 220,260 222,210 223,193 225,233 227,257 228,197 230,191 231,212 233,203 234,203 236,211 237,221 239,266 240,191 242,180 243,194 245,215 246,204 248,199 249,220 251,206 252,192 254,213 255,222 257,219 258,228 260,211 261,216 263,229 264,250 266,222 267,240 269,244 270,263 272,247 273,223 275,270 277,229 278,211 280,214 281,208 283,196 284,190 286,209 287,182 289,178 290,202 292,196 293,171 295,177 296,173 298,170 299,181 301,204 302,203 304,176 305,186 307,201 308,226 310,268 311,208 313,215 314,241 316,220 317,224 319,216 320,200 322,209 324,218 325,219 327,205 328,212 330,223 331,221 333,219 334,241 336,255 337,270 339,267 340,213 342,213 343,275 345,256 346,281 348,267 349,237 351,218 352,213 354,227 355,236 357,241 358,200 360,211 361,222 363,219 364,290 366,266 367,252 369,239 370,262 372,235 374,286 375,218 377,247 378,227 380,226 381,238 383,241 384,251 386,290 387,283 389,234 390,225 392,248 393,231 395,252 396,243 398,226 399,250 401,245 402,242 404,250 405,230 407,235 408,237 410,230 411,282 413,230 414,254 416,239 417,237 419,264 421,262 422,265 424,275 425,274 427,304 428,295 430,257 431,244 433,261 434,272 436,269 437,314 439,255 440,266 442,297 443,270 445,241 446,235 448,251 449,255 451,243 452,253 454,266 455,266 457,257 458,293 460,330 461,309 463,297 464,309 466,295 467,244 469,250 471,329 472,263 474,280 475,270 477,270 478,260 480,243 481,238 483,246 484,263 486,275 487,274 489,275 490,240 492,234 493,246 495,257 496,255 498,257 499,255 501,257 502,263 504,262 505,257 507,250 508,257 510,278 511,276 513,260 514,267 516,273 518,282 519,364 521,339 522,289 524,267 525,266 527,268 528,259 530,260 531,271 533,277 534,276 536,289 537,294 539,311 540,326 542,285 543,277 545,286 546,289 548,275 549,274 551,299 552,309 554,291 555,277 557,280 558,293 560,298 561,299 563,298 564,296 566,284 568,276 569,283 571,314 572,323 574,298 575,304 577,311 578,293 580,296 581,342 583,354 584,355 586,307 587,297 589,300 590,298 592,302 593,328 595,355 596,350 598,312 599,325 601,394 602,340 604,319 605,313 607,308 608,309 610,375 611,348 613,348 615,323 616,339 618,338 619,336 621,315 622,306 624,319 625,362 627,343 628,345 630,383 631,371 633,336 634,334 636,328 637,325 639,389 640,327 642,309 643,330 645,372 646,383 648,342 649,331 651,332 652,353 654,380 655,382 657,327 658,315 660,322 661,323 663,319 665,330 666,371 668,348 669,376 671,358 672,321 674,318 675,328 677,324 678,342 680,369 681,343 683,358 684,374 686,427 687,470 689,473 690,481 692,449 693,434 695,416 696,359 698,348 699,332 701,358 702,446 704,454 705,448 707,450 708,442 710,410 712,373 713,349 715,343 716,368 718,403 719,370 721,370 722,396 724,369 725,362 727,398 728,404 730,428 731,443 733,428 734,398 736,383 737,349 739,362 740,409 742,408 743,461 745,487 746,461 748,451 749,372 751,350 752,361 754,405 755,457 757,490 758,510 760,452 762,514 763,455 765,480 766,481 768,483 769,473 771,467 772,444 774,433 775,434 777,398 778,368 780,374 781,422 783,485 784,493 786,470 787,483 789,517 790,474 792,419 793,377 795,355 796,358 798,349 799,374 801,465 802,471 804,425 805,383 807,386 809,385 810,399 812,383 813,360 815,351 816,357 818,347 819,362 821,461 822,456 824,481 825,482 827,433 828,383 830,354 831,359 833,409 834,425 836,443 837,460 839,467 840,408 842,378 843,361 845,393 846,405 848,407 849,436 851,500 852,433 854,404 855,426 857,418 859,439 860,474 862,477 863,498 865,497 866,504 868,519 869,467 871,452 872,462 874,447 875,453 877,405 878,387 880,383 881,369 883,349 884,357 886,420 887,414 889,378 890,357 892,383 893,391 895,379 896,391 898,438 899,430 901,389 902,384 904,409 906,477 907,428 909,392 910,393 912,425 913,478 915,525 916,418 918,386 919,387 921,404 922,399 924,392 925,413 927,452 928,573 930,472 931,461 933,466 934,462 936,469 937,496 939,510 940,421 942,378 943,385 945,417 946,374 948,364 949,382 951,378 952,386 954,421 956,410 957,429 959,440 960,455 962,476 963,497 965,428 966,414 968,427 969,442 971,398 972,379 974,402 975,393 977,379 978,412 980,490 981,481 983,528 984,524 986,460 987,442 989,447 990,449 992,489 993,505 995,507 996,508 998,511 999,533 1001,537 1003,549 1004,537 1004,533 1004,511 1004,508 1004,507 1004,505 1004,489 1004,449 1004,447 1004,442 1004,460 1004,524 1004,528 1004,481 1004,490 1004,412 1004,379 1004,393 1004,402 1004,379 1004,398 1004,442 1004,427 1004,414 1004,428 1004,497 1004,476 1004,455 1004,440 1004,429 1004,410 1004,421 1004,386 1004,378 1004,382 1004,364 1004,374 1004,417 1004,385 1004,378 1004,421 1004,510 1004,496 1004,469 1004,462 1004,466 1004,461 1004,472 1004,573 1004,452 1004,413 1004,392 1004,399 1004,404 1004,387 1004,386 1004,418 1004,525 1004,478 1004,425 1004,393 1004,392 1004,428 1004,477 1004,409 1004,384 1004,389 1004,430 1004,438 1004,391 1004,379 1004,391 1004,383 1004,357 1004,378 1004,414 1004,420 1004,357 1004,349 1004,369 1004,383 1004,387 1004,405 1004,453 1004,447 1004,462 1004,452 1004,467 1004,519 1004,504 1004,497 1004,498 1004,477 1004,474 1004,439 1004,418 1004,426 1004,404 1004,433 1004,500 1004,436 1004,407 1004,405 1004,393 1004,361 1004,378 1004,408 1004,467 1004,460 1004,443 1004,425 1004,409 1004,359 1004,354 1004,383 1004,433 1004,482 1004,481 1004,456 1004,461 1004,362 1004,347 1004,357 1004,351 1004,360 1004,383 1004,399 1004,385 1004,386 1004,383 1004,425 1004,471 1004,465 1004,374 1004,349 1004,358 1004,355 1004,377 1004,419 1004,474 1004,517 1004,483 1004,470 1004,493 1004,485 1004,422 1004,374 1004,368 1004,398 1004,434 1004,433 1004,444 1004,467 1004,473 1004,483 1004,481 1004,480 1004,455 1004,514 1004,452 1004,510 1004,490 1004,457 1004,405 1004,361 1004,350 1004,372 1004,451 1004,461 1004,487 1004,461 1004,408 1004,409 1004,362 1004,349 1004,383 1004,398 1004,428 1004,443 1004,428 1004,404 1004,398 1004,362 1004,369 1004,396 1004,370 1004,370 1004,403 1004,368 1004,343 1004,349 1004,373 1004,410 1004,442 1004,450 1004,448 1004,454 1004,446 1004,358 1004,332 1004,348 1004,359 1004,416 1004,434 1004,449 1004,481 1004,473 1004,470 1004,427 1004,374 1004,358 1004,343 1004,369 1004,342 1004,324 1004,328 1004,318 1004,321 1004,358 1004,376 1004,348 1004,371 1004,330 1004,319 1004,323 1004,322 1004,315 1004,327 1004,382 1004,380 1004,353 1004,332 1004,331 1004,342 1004,383 1004,372 1004,330 1004,309 1004,327 1004,389 1004,325 1004,328 1004,334 1004,336 1004,371 1004,383 1004,345 1004,343 1004,362 1004,319 1004,306 1004,315 1004,336 1004,338 1004,339 1004,323 1004,348 1004,348 1004,375 1004,309 1004,308 1004,313 1004,319 1004,340 1004,394 1004,325 1004,312 1004,350 1004,355 1004,328 1004,302 1004,298 1004,300 1004,297 1004,307 1004,355 1004,354 1004,342 1004,296 1004,293 1004,311 1004,304 1004,298 1004,323 1004,314 1004,283 1004,276 1004,284 1004,296 1004,298 1004,299 1004,298 1004,293 1004,280 1004,277 1004,291 1004,309 1004,299 1004,274 1004,275 1004,289 1004,286 1004,277 1004,285 1004,326 1004,311 1004,294 1004,289 1004,276 1004,277 1004,271 1004,260 1004,259 1004,268 1004,266 1004,267 1004,289 1004,339 1004,364 1004,282 1004,273 1004,267 1004,260 1004,276 1004,278 1004,257 1004,250 1004,257 1004,262 1004,263 1004,257 1004,255 1004,257 1004,255 1004,257 1004,246 1004,234 1004,240 1004,275 1004,274 1004,275 1004,263 1004,246 1004,238 1004,243 1004,260 1004,270 1004,270 1004,280 1004,263 1004,329 1004,250 1004,244 1004,295 1004,309 1004,297 1004,309 1004,330 1004,293 1004,257 1004,266 1004,266 1004,253 1004,243 1004,255 1004,251 1004,235 1004,241 1004,270 1004,297 1004,266 1004,255 1004,314 1004,269 1004,272 1004,261 1004,244 1004,257 1004,295 1004,304 1004,274 1004,275 1004,265 1004,262 1004,264 1004,237 1004,239 1004,254 1004,230 1004,282 1004,230 1004,237 1004,235 1004,230 1004,250 1004,242 1004,245 1004,250 1004,226 1004,243 1004,252 1004,231 1004,248 1004,225 1004,234 1004,283 1004,290 1004,251 1004,241 1004,238 1004,226 1004,227 1004,247 1004,218 1004,286 1004,235 1004,262 1004,239 1004,252 1004,266 1004,290 1004,219 1004,222 1004,211 1004,200 1004,241 1004,236 1004,227 1004,213 1004,218 1004,237 1004,267 1004,281 1004,256 1004,275 1004,213 1004,213 1004,267 1004,270 1004,255 1004,241 1004,219 1004,221 1004,223 1004,212 1004,205 1004,219 1004,218 1004,209 1004,200 1004,216 1004,224 1004,220 1004,241 1004,215 1004,208 1004,268 1004,226 1004,201 1004,186 1004,176 1004,203 1004,204 1004,181 1004,170 1004,173 1004,177 1004,171 1004,196 1004,202 1004,178 1004,182 1004,209 1004,190 1004,196 1004,208 1004,214 1004,211 1004,229 1004,270 1004,223 1004,247 1004,263 1004,244 1004,240 1004,222 1004,250 1004,229 1004,216 1004,211 1004,228 1004,219 1004,222 1004,213 1004,192 1004,206 1004,220 1004,199 1004,204 1004,215 1004,194 1004,180 1004,191 1004,266 1004,221 1004,211 1004,203 1004,203 1004,212 1004,191 1004,197 1004,257 1004,233 1004,193 1004,210 1004,260 1004,203 1004,190 1004,185 1004,152 1004,158 1004,177 1004,165 1004,157 1004,154 1004,167 1004,210 1004,182 1004,181 1004,208 1004,214 1004,200 1004,199 1004,250 1004,184 1004,181 1004,185 1004,211 1004,224 1004,250 1004,257 1004,232 1004,237 1004,206 1004,196 1004,213 1004,225 1004,198 1004,206 1004,192 1004,169 1004,169 1004,203 1004,235 1004,203 1004,200 1004,189 1004,201 1004,205 1004,195 1004,183 1004,239 1004,166 1004,179 1004,228 1004,237 1004,176 1004,179 1004,223 1004,258 1004,243 1004,216 1004,253 1004,247 1004,261 "/>
<polyline fill="none" opacity="1" stroke="#3CB44B" stroke-width="1" points="130,274 131,274 133,274 134,274 136,274 137,273 139,273 140,272 142,271 143,271 145,270 146,269 148,268 149,267 151,267 152,266 154,265 155,264 157,264 158,263 160,262 161,262 163,262 164,261 166,261 167,261 169,261 170,261 172,261 173,261 175,261 176,262 178,262 180,262 181,262 183,262 184,263 186,263 187,263 189,263 190,263 192,263 193,262 195,262 196,262 198,261 199,261 201,261 202,260 204,260 205,259 207,259 208,258 210,258 211,257 213,257 214,257 216,257 217,257 219,257 220,257 222,257 223,258 225,259 227,259 228,260 230,261 231,262 233,263 234,265 236,266 237,267 239,268 240,270 242,271 243,272 245,273 246,274 248,275 249,276 251,277 252,277 254,278 255,278 257,278 258,278 260,278 261,278 263,277 264,277 266,276 267,275 269,274 270,273 272,272 273,271 275,270 277,269 278,268 280,267 281,266 283,265 284,264 286,263 287,262 289,262 290,261 292,261 293,261 295,261 296,262 298,262 299,263 301,264 302,265 304,266 305,267 307,269 308,270 310,271 311,273 313,274 314,276 316,277 317,278 319,280 320,281 322,282 324,283 325,284 327,285 328,286 330,286 331,287 333,288 334,288 336,288 337,288 339,289 340,289 342,289 343,289 345,289 346,289 348,288 349,288 351,288 352,288 354,288 355,288 357,288 358,288 360,288 361,288 363,288 364,288 366,288 367,289 369,289 370,289 372,289 374,290 375,290 377,290 378,291 380,291 381,291 383,292 384,292 386,292 387,292 389,292 390,293 392,293 393,293 395,293 396,293 398,293 399,293 401,294 402,294 404,294 405,294 407,294 408,295 410,295 411,295 413,296 414,296 416,297 417,297 419,298 421,298 422,299 424,300 425,301 427,301 428,302 430,303 431,304 433,305 434,305 436,306 437,307 439,307 440,308 442,308 443,309 445,309 446,309 448,309 449,309 451,309 452,309 454,309 455,309 457,308 458,308 460,307 461,307 463,306 464,305 466,305 467,304 469,303 471,302 472,302 474,301 475,301 477,300 478,300 480,300 481,299 483,299 484,299 486,299 487,300 489,300 490,300 492,301 493,301 495,302 496,303 498,304 499,304 501,305 502,306 504,307 505,308 507,309 508,310 510,310 511,311 513,312 514,313 516,313 518,314 519,314 521,315 522,315 524,316 525,316 527,316 528,316 530,317 531,317 533,317 534,317 536,318 537,318 539,318 540,318 542,318 543,319 545,319 546,319 548,320 549,320 551,321 552,321 554,322 555,322 557,323 558,323 560,324 561,325 563,325 564,326 566,327 568,327 569,328 571,329 572,329 574,330 575,331 577,331 578,332 580,333 581,333 583,334 584,335 586,335 587,336 589,336 590,337 592,338 593,338 595,339 596,339 598,340 599,341 601,341 602,342 604,342 605,343 607,343 608,344 610,344 611,344 613,345 615,345 616,345 618,346 619,346 621,346 622,346 624,346 625,346 627,345 628,345 630,345 631,345 633,344 634,344 636,344 637,343 639,343 640,342 642,342 643,342 645,342 646,341 648,341 649,341 651,342 652,342 654,342 655,343 657,344 658,345 660,346 661,347 663,348 665,349 666,351 668,352 669,354 671,356 672,357 674,359 675,361 677,362 678,364 680,366 681,367 683,369 684,370 686,371 687,372 689,373 690,374 692,374 693,374 695,375 696,375 698,375 699,374 701,374 702,373 704,373 705,372 707,371 708,370 710,369 712,369 713,368 715,367 716,366 718,365 719,365 721,364 722,364 724,364 725,364 727,364 728,365 730,365 731,366 733,367 734,368 736,369 737,371 739,372 740,374 742,376 743,378 745,379 746,381 748,383 749,385 751,386 752,388 754,389 755,391 757,392 758,393 760,394 762,394 763,395 765,395 766,395 768,395 769,394 771,394 772,393 774,392 775,391 777,390 778,388 780,387 781,385 783,383 784,381 786,379 787,377 789,375 790,373 792,371 793,370 795,368 796,366 798,364 799,363 801,361 802,360 804,359 805,358 807,358 809,357 810,357 812,357 813,357 815,358 816,358 818,359 819,360 821,361 822,362 824,363 825,364 827,365 828,367 830,368 831,370 833,371 834,373 836,374 837,376 839,377 840,378 842,380 843,381 845,382 846,383 848,384 849,384 851,385 852,385 854,386 855,386 857,386 859,385 860,385 862,384 863,384 865,383 866,382 868,381 869,380 871,378 872,377 874,376 875,374 877,373 878,371 880,369 881,368 883,366 884,365 886,364 887,363 889,362 890,361 892,360 893,360 895,360 896,360 898,360 899,361 901,361 902,362 904,363 906,365 907,366 909,368 910,369 912,371 913,373 915,374 916,376 918,378 919,379 921,381 922,382 924,383 925,384 927,385 928,385 930,386 931,386 933,386 934,385 936,385 937,384 939,383 940,382 942,380 943,379 945,377 946,376 948,374 949,372 951,371 952,369 954,368 956,367 957,366 959,365 960,364 962,364 963,364 965,365 966,366 968,367 969,369 971,371 972,373 974,375 975,378 977,381 978,384 980,387 981,390 983,394 984,397 986,400 987,403 989,406 990,409 992,411 993,413 995,415 996,416 998,418 999,419 1001,419 1003,419 1004,419 1004,419 1004,418 1004,416 1004,415 1004,413 1004,411 1004,409 1004,406 1004,403 1004,400 1004,397 1004,394 1004,390 1004,387 1004,384 1004,381 1004,378 1004,375 1004,373 1004,371 1004,369 1004,367 1004,366 1004,365 1004,364 1004,364 1004,364 1004,365 1004,366 1004,367 1004,368 1004,369 1004,371 1004,372 1004,374 1004,376 1004,377 1004,379 1004,380 1004,382 1004,383 1004,384 1004,385 1004,385 1004,386 1004,386 1004,386 1004,385 1004,385 1004,384 1004,383 1004,382 1004,381 1004,379 1004,378 1004,376 1004,374 1004,373 1004,371 1004,369 1004,368 1004,366 1004,365 1004,363 1004,362 1004,361 1004,361 1004,360 1004,360 1004,360 1004,360 1004,360 1004,361 1004,362 1004,363 1004,364 1004,365 1004,366 1004,368 1004,369 1004,371 1004,373 1004,374 1004,376 1004,377 1004,378 1004,380 1004,381 1004,382 1004,383 1004,384 1004,384 1004,385 1004,385 1004,386 1004,386 1004,386 1004,385 1004,385 1004,384 1004,384 1004,383 1004,382 1004,381 1004,380 1004,378 1004,377 1004,376 1004,374 1004,373 1004,371 1004,370 1004,368 1004,367 1004,365 1004,364 1004,363 1004,362 1004,361 1004,360 1004,359 1004,358 1004,358 1004,357 1004,357 1004,357 1004,357 1004,358 1004,358 1004,359 1004,360 1004,361 1004,363 1004,364 1004,366 1004,368 1004,370 1004,371 1004,373 1004,375 1004,377 1004,379 1004,381 1004,383 1004,385 1004,387 1004,388 1004,390 1004,391 1004,392 1004,393 1004,394 1004,394 1004,395 1004,395 1004,395 1004,395 1004,394 1004,394 1004,393 1004,392 1004,391 1004,389 1004,388 1004,386 1004,385 1004,383 1004,381 1004,379 1004,378 1004,376 1004,374 1004,372 1004,371 1004,369 1004,368 1004,367 1004,366 1004,365 1004,365 1004,364 1004,364 1004,364 1004,364 1004,364 1004,365 1004,365 1004,366 1004,367 1004,368 1004,369 1004,369 1004,370 1004,371 1004,372 1004,373 1004,373 1004,374 1004,374 1004,375 1004,375 1004,375 1004,374 1004,374 1004,374 1004,373 1004,372 1004,371 1004,370 1004,369 1004,367 1004,366 1004,364 1004,362 1004,361 1004,359 1004,357 1004,356 1004,354 1004,352 1004,351 1004,349 1004,348 1004,347 1004,346 1004,345 1004,344 1004,343 1004,342 1004,342 1004,342 1004,341 1004,341 1004,341 1004,342 1004,342 1004,342 1004,342 1004,343 1004,343 1004,344 1004,344 1004,344 1004,345 1004,345 1004,345 1004,345 1004,346 1004,346 1004,346 1004,346 1004,346 1004,346 1004,345 1004,345 1004,345 1004,344 1004,344 1004,344 1004,343 1004,343 1004,342 1004,342 1004,341 1004,341 1004,340 1004,339 1004,339 1004,338 1004,338 1004,337 1004,336 1004,336 1004,335 1004,335 1004,334 1004,333 1004,333 1004,332 1004,331 1004,331 1004,330 1004,329 1004,329 1004,328 1004,327 1004,327 1004,326 1004,325 1004,325 1004,324 1004,323 1004,323 1004,322 1004,322 1004,321 1004,321 1004,320 1004,320 1004,319 1004,319 1004,319 1004,318 1004,318 1004,318 1004,318 1004,318 1004,317 1004,317 1004,317 1004,317 1004,316 1004,316 1004,316 1004,316 1004,315 1004,315 1004,314 1004,314 1004,313 1004,313 1004,312 1004,311 1004,310 1004,310 1004,309 1004,308 1004,307 1004,306 1004,305 1004,304 1004,304 1004,303 1004,302 1004,301 1004,301 1004,300 1004,300 1004,300 1004,299 1004,299 1004,299 1004,299 1004,300 1004,300 1004,300 1004,301 1004,301 1004,302 1004,302 1004,303 1004,304 1004,305 1004,305 1004,306 1004,307 1004,307 1004,308 1004,308 1004,309 1004,309 1004,309 1004,309 1004,309 1004,309 1004,309 1004,309 1004,309 1004,308 1004,308 1004,307 1004,307 1004,306 1004,305 1004,305 1004,304 1004,303 1004,302 1004,301 1004,301 1004,300 1004,299 1004,298 1004,298 1004,297 1004,297 1004,296 1004,296 1004,295 1004,295 1004,295 1004,294 1004,294 1004,294 1004,294 1004,294 1004,293 1004,293 1004,293 1004,293 1004,293 1004,293 1004,293 1004,292 1004,292 1004,292 1004,292 1004,292 1004,291 1004,291 1004,291 1004,290 1004,290 1004,290 1004,289 1004,289 1004,289 1004,289 1004,288 1004,288 1004,288 1004,288 1004,288 1004,288 1004,288 1004,288 1004,288 1004,288 1004,288 1004,288 1004,288 1004,289 1004,289 1004,289 1004,289 1004,289 1004,289 1004,288 1004,288 1004,288 1004,288 1004,287 1004,286 1004,286 1004,285 1004,284 1004,283 1004,282 1004,281 1004,280 1004,278 1004,277 1004,276 1004,274 1004,273 1004,271 1004,270 1004,269 1004,267 1004,266 1004,265 1004,264 1004,263 1004,262 1004,262 1004,261 1004,261 1004,261 1004,261 1004,262 1004,262 1004,263 1004,264 1004,265 1004,266 1004,267 1004,268 1004,269 1004,270 1004,271 1004,272 1004,273 1004,274 1004,275 1004,276 1004,277 1004,277 1004,278 1004,278 1004,278 1004,278 1004,278 1004,278 1004,277 1004,277 1004,276 1004,275 1004,274 1004,273 1004,272 1004,271 1004,270 1004,268 1004,267 1004,266 1004,265 1004,263 1004,262 1004,261 1004,260 1004,259 1004,259 1004,258 1004,257 1004,257 1004,257 1004,257 1004,257 1004,257 1004,257 1004,257 1004,258 1004,258 1004,259 1004,259 1004,260 1004,260 1004,261 1004,261 1004,261 1004,262 1004,262 1004,262 1004,263 1004,263 1004,263 1004,263 1004,263 1004,263 1004,262 1004,262 1004,262 1004,262 1004,262 1004,261 1004,261 1004,261 1004,261 1004,261 1004,261 1004,261 1004,261 1004,262 1004,262 1004,262 1004,263 1004,264 1004,264 1004,265 1004,266 1004,267 1004,267 1004,268 1004,269 1004,270 1004,271 1004,271 1004,272 1004,273 1004,273 1004,274 1004,274 1004,274 1004,274 "/>
<polyline fill="none" opacity="1" stroke="#FFE119" stroke-width="1" points="130,466 131,466 133,466 134,466 136,466 137,466 139,466 140,466 142,466 143,466 145,467 146,467 148,467 149,467 151,467 152,467 154,467 155,467 157,467 158,467 160,467 161,467 163,467 164,467 166,467 167,467 169,467 170,467 172,467 173,467 175,466 176,466 178,466 180,466 181,466 183,466 184,466 186,466 187,466 189,466 190,466 192,466 193,467 195,467 196,467 198,467 199,467 201,467 202,467 204,467 205,468 207,468 208,468 210,468 211,468 213,468 214,468 216,468 217,468 219,468 220,468 222,468 223,468 225,468 227,468 228,468 230,468 231,468 233,468 234,468 236,468 237,468 239,468 240,468 242,468 243,468 245,468 246,468 248,468 249,468 251,468 252,468 254,468 255,468 257,468 258,468 260,468 261,468 263,468 264,468 266,468 267,467 269,467 270,467 272,467 273,467 275,467 277,467 278,467 280,467 281,467 283,467 284,467 286,467 287,467 289,467 290,468 292,468 293,468 295,468 296,468 298,469 299,469 301,469 302,469 304,469 305,470 307,470 308,470 310,470 311,470 313,470 314,471 316,471 317,471 319,471 320,471 322,471 324,471 325,471 327,471 328,471 330,471 331,471 333,470 334,470 336,470 337,470 339,470 340,470 342,470 343,470 345,470 346,470 348,471 349,471 351,471 352,471 354,471 355,471 357,471 358,471 360,472 361,472 363,472 364,472 366,472 367,472 369,472 370,472 372,472 374,472 375,472 377,472 378,472 380,472 381,472 383,472 384,472 386,472 387,472 389,472 390,472 392,473 393,473 395,473 396,473 398,473 399,473 401,473 402,473 404,473 405,474 407,474 408,474 410,474 411,474 413,475 414,475 416,475 417,475 419,475 421,476 422,476 424,476 425,476 427,476 428,476 430,476 431,477 433,477 434,477 436,477 437,477 439,477 440,477 442,477 443,477 445,477 446,477 448,477 449,477 451,477 452,477 454,477 455,477 457,477 458,477 460,477 461,477 463,477 464,477 466,477 467,477 469,477 471,477 472,477 474,477 475,477 477,476 478,476 480,476 481,476 483,476 484,476 486,476 487,476 489,476 490,476 492,476 493,476 495,476 496,476 498,476 499,476 501,477 502,477 504,477 505,478 507,478 508,479 510,479 511,480 513,480 514,481 516,481 518,482 519,482 521,482 522,483 524,483 525,483 527,484 528,484 530,484 531,484 533,485 534,485 536,485 537,485 539,485 540,485 542,485 543,485 545,485 546,486 548,486 549,486 551,486 552,487 554,487 555,487 557,488 558,488 560,489 561,489 563,490 564,490 566,491 568,492 569,492 571,493 572,494 574,494 575,495 577,496 578,497 580,497 581,498 583,499 584,499 586,500 587,501 589,502 590,502 592,503 593,504 595,505 596,506 598,507 599,508 601,509 602,510 604,511 605,512 607,513 608,514 610,516 611,517 613,518 615,519 616,520 618,521 619,522 621,523 622,524 624,524 625,525 627,526 628,526 630,526 631,527 633,527 634,527 636,527 637,527 639,527 640,526 642,526 643,526 645,525 646,524 648,524 649,523 651,522 652,522 654,521 655,520 657,520 658,520 660,520 661,520 663,520 665,521 666,522 668,523 669,525 671,527 672,528 674,531 675,533 677,535 678,538 680,540 681,543 683,545 684,547 686,550 687,552 689,554 690,556 692,558 693,560 695,562 696,563 698,565 699,566 701,567 702,569 704,570 705,571 707,572 708,573 710,573 712,574 713,575 715,575 716,576 718,577 719,577 721,578 722,578 724,579 725,580 727,580 728,581 730,582 731,583 733,584 734,585 736,586 737,587 739,589 740,590 742,591 743,593 745,594 746,596 748,597 749,599 751,600 752,602 754,603 755,604 757,605 758,607 760,608 762,609 763,609 765,610 766,611 768,611 769,611 771,612 772,612 774,612 775,611 777,611 778,610 780,609 781,608 783,607 784,606 786,604 787,602 789,600 790,598 792,595 793,592 795,589 796,585 798,581 799,577 801,573 802,568 804,563 805,558 807,553 809,549 810,545 812,544 813,544 815,546 816,549 818,554 819,559 821,565 822,571 824,576 825,582 827,587 828,591 830,596 831,600 833,603 834,607 836,610 837,613 839,615 840,617 842,619 843,621 845,622 846,623 848,624 849,624 851,625 852,625 854,625 855,624 857,624 859,623 860,622 862,620 863,618 865,616 866,614 868,611 869,608 871,604 872,601 874,596 875,592 877,587 878,581 880,576 881,570 883,565 884,560 886,558 887,557 889,558 890,561 892,566 893,572 895,578 896,584 898,590 899,596 901,601 902,606 904,610 906,614 907,618 909,621 910,624 912,626 913,629 915,630 916,632 918,633 919,634 921,635 922,635 924,636 925,635 927,635 928,634 930,633 931,632 933,630 934,628 936,625 937,622 939,619 940,615 942,611 943,607 945,602 946,597 948,591 949,586 951,582 952,580 954,579 956,581 957,584 959,590 960,596 962,603 963,610 965,617 966,623 968,630 969,635 971,640 972,645 974,650 975,654 977,658 978,658 980,658 981,658 983,658 984,658 986,658 987,658 989,658 990,658 992,658 993,658 995,658 996,658 998,658 999,658 1001,658 1003,658 1004,658 1004,658 1004,658 1004,658 1004,658 1004,658 1004,658 1004,658 1004,658 1004,658 1004,658 1004,658 1004,658 1004,658 1004,658 1004,658 1004,658 1004,654 1004,650 1004,645 1004,640 1004,635 1004,630 1004,623 1004,617 1004,610 1004,603 1004,596 1004,590 1004,584 1004,581 1004,579 1004,580 1004,582 1004,586 1004,591 1004,597 1004,602 1004,607 1004,611 1004,615 1004,619 1004,622 1004,625 1004,628 1004,630 1004,632 1004,633 1004,634 1004,635 1004,635 1004,636 1004,635 1004,635 1004,634 1004,633 1004,632 1004,630 1004,629 1004,626 1004,624 1004,621 1004,618 1004,614 1004,610 1004,606 1004,601 1004,596 1004,590 1004,584 1004,578 1004,572 1004,566 1004,561 1004,558 1004,557 1004,558 1004,560 1004,565 1004,570 1004,576 1004,581 1004,587 1004,592 1004,596 1004,601 1004,604 1004,608 1004,611 1004,614 1004,616 1004,618 1004,620 1004,622 1004,623 1004,624 1004,624 1004,625 1004,625 1004,625 1004,624 1004,624 1004,623 1004,622 1004,621 1004,619 1004,617 1004,615 1004,613 1004,610 1004,607 1004,603 1004,600 1004,596 1004,591 1004,587 1004,582 1004,576 1004,571 1004,565 1004,559 1004,554 1004,549 1004,546 1004,544 1004,544 1004,545 1004,549 1004,553 1004,558 1004,563 1004,568 1004,573 1004,577 1004,581 1004,585 1004,589 1004,592 1004,595 1004,598 1004,600 1004,602 1004,604 1004,606 1004,607 1004,608 1004,609 1004,610 1004,611 1004,611 1004,612 1004,612 1004,612 1004,611 1004,611 1004,611 1004,610 1004,609 1004,609 1004,608 1004,607 1004,605 1004,604 1004,603 1004,602 1004,600 1004,599 1004,597 1004,596 1004,594 1004,593 1004,591 1004,590 1004,589 1004,587 1004,586 1004,585 1004,584 1004,583 1004,582 1004,581 1004,580 1004,580 1004,579 1004,578 1004,578 1004,577 1004,577 1004,576 1004,575 1004,575 1004,574 1004,573 1004,573 1004,572 1004,571 1004,570 1004,569 1004,567 1004,566 1004,565 1004,563 1004,562 1004,560 1004,558 1004,556 1004,554 1004,552 1004,550 1004,547 1004,545 1004,543 1004,540 1004,538 1004,535 1004,533 1004,531 1004,528 1004,527 1004,525 1004,523 1004,522 1004,521 1004,520 1004,520 1004,520 1004,520 1004,520 1004,520 1004,521 1004,522 1004,522 1004,523 1004,524 1004,524 1004,525 1004,526 1004,526 1004,526 1004,527 1004,527 1004,527 1004,527 1004,527 1004,527 1004,526 1004,526 1004,526 1004,525 1004,524 1004,524 1004,523 1004,522 1004,521 1004,520 1004,519 1004,518 1004,517 1004,516 1004,514 1004,513 1004,512 1004,511 1004,510 1004,509 1004,508 1004,507 1004,506 1004,505 1004,504 1004,503 1004,502 1004,502 1004,501 1004,500 1004,499 1004,499 1004,498 1004,497 1004,497 1004,496 1004,495 1004,494 1004,494 1004,493 1004,492 1004,492 1004,491 1004,490 1004,490 1004,489 1004,489 1004,488 1004,488 1004,487 1004,487 1004,487 1004,486 1004,486 1004,486 1004,486 1004,485 1004,485 1004,485 1004,485 1004,485 1004,485 1004,485 1004,485 1004,485 1004,484 1004,484 1004,484 1004,484 1004,483 1004,483 1004,483 1004,482 1004,482 1004,482 1004,481 1004,481 1004,480 1004,480 1004,479 1004,479 1004,478 1004,478 1004,477 1004,477 1004,477 1004,476 1004,476 1004,476 1004,476 1004,476 1004,476 1004,476 1004,476 1004,476 1004,476 1004,476 1004,476 1004,476 1004,476 1004,476 1004,476 1004,477 1004,477 1004,477 1004,477 1004,477 1004,477 1004,477 1004,477 1004,477 1004,477 1004,477 1004,477 1004,477 1004,477 1004,477 1004,477 1004,477 1004,477 1004,477 1004,477 1004,477 1004,477 1004,477 1004,477 1004,477 1004,477 1004,477 1004,477 1004,477 1004,477 1004,476 1004,476 1004,476 1004,476 1004,476 1004,476 1004,476 1004,475 1004,475 1004,475 1004,475 1004,475 1004,474 1004,474 1004,474 1004,474 1004,474 1004,473 1004,473 1004,473 1004,473 1004,473 1004,473 1004,473 1004,473 1004,473 1004,472 1004,472 1004,472 1004,472 1004,472 1004,472 1004,472 1004,472 1004,472 1004,472 1004,472 1004,472 1004,472 1004,472 1004,472 1004,472 1004,472 1004,472 1004,472 1004,472 1004,472 1004,471 1004,471 1004,471 1004,471 1004,471 1004,471 1004,471 1004,471 1004,470 1004,470 1004,470 1004,470 1004,470 1004,470 1004,470 1004,470 1004,470 1004,470 1004,471 1004,471 1004,471 1004,471 1004,471 1004,471 1004,471 1004,471 1004,471 1004,471 1004,471 1004,471 1004,470 1004,470 1004,470 1004,470 1004,470 1004,470 1004,469 1004,469 1004,469 1004,469 1004,469 1004,468 1004,468 1004,468 1004,468 1004,468 1004,467 1004,467 1004,467 1004,467 1004,467 1004,467 1004,467 1004,467 1004,467 1004,467 1004,467 1004,467 1004,467 1004,467 1004,467 1004,468 1004,468 1004,468 1004,468 1004,468 1004,468 1004,468 1004,468 1004,468 1004,468 1004,468 1004,468 1004,468 1004,468 1004,468 1004,468 1004,468 1004,468 1004,468 1004,468 1004,468 1004,468 1004,468 1004,468 1004,468 1004,468 1004,468 1004,468 1004,468 1004,468 1004,468 1004,468 1004,468 1004,468 1004,468 1004,468 1004,468 1004,468 1004,468 1004,468 1004,468 1004,467 1004,467 1004,467 1004,467 1004,467 1004,467 1004,467 1004,467 1004,466 1004,466 1004,466 1004,466 1004,466 1004,466 1004,466 1004,466 1004,466 1004,466 1004,466 1004,466 1004,467 1004,467 1004,467 1004,467 1004,467 1004,467 1004,467 1004,467 1004,467 1004,467 1004,467 1004,467 1004,467 1004,467 1004,467 1004,467 1004,467 1004,467 1004,467 1004,467 1004,466 1004,466 1004,466 1004,466 1004,466 1004,466 1004,466 1004,466 1004,466 "/>
<polyline fill="none" opacity="1" stroke="#0082C8" stroke-width="1" points="130,225 131,225 133,225 134,225 136,225 137,225 139,225 140,226 142,226 143,226 145,226 146,226 148,226 149,226 151,226 152,226 154,227 155,227 157,227 158,227 160,227 161,227 163,227 164,226 166,226 167,226 169,226 170,226 172,226 173,226 175,226 176,226 178,226 180,226 181,226 183,226 184,226 186,226 187,226 189,226 190,226 192,226 193,226 195,226 196,226 198,226 199,226 201,227 202,227 204,227 205,227 207,227 208,227 210,227 211,227 213,227 214,228 216,228 217,228 219,228 220,228 222,228 223,228 225,228 227,228 228,228 230,228 231,228 233,228 234,228 236,227 237,227 239,227 240,227 242,227 243,227 245,227 246,227 248,227 249,227 251,227 252,227 254,227 255,227 257,227 258,227 260,227 261,227 263,227 264,227 266,227 267,227 269,227 270,227 272,227 273,227 275,227 277,226 278,226 280,226 281,226 283,226 284,227 286,227 287,227 289,227 290,227 292,227 293,227 295,228 296,228 298,228 299,228 301,228 302,229 304,229 305,229 307,229 308,229 310,230 311,230 313,230 314,230 316,230 317,230 319,230 320,230 322,230 324,230 325,230 327,230 328,230 330,230 331,230 333,230 334,230 336,230 337,230 339,230 340,230 342,230 343,230 345,230 346,230 348,230 349,230 351,230 352,230 354,230 355,231 357,231 358,231 360,231 361,231 363,231 364,231 366,231 367,232 369,232 370,232 372,232 374,232 375,232 377,232 378,232 380,232 381,232 383,232 384,232 386,232 387,232 389,232 390,232 392,232 393,232 395,232 396,232 398,232 399,232 401,233 402,233 404,233 405,233 407,233 408,233 410,234 411,234 413,234 414,234 416,235 417,235 419,235 421,235 422,235 424,235 425,236 427,236 428,236 430,236 431,236 433,236 434,236 436,236 437,236 439,236 440,236 442,236 443,236 445,236 446,237 448,237 449,237 451,237 452,237 454,237 455,237 457,237 458,237 460,237 461,237 463,237 464,237 466,237 467,237 469,236 471,236 472,236 474,236 475,236 477,236 478,236 480,236 481,235 483,235 484,235 486,235 487,235 489,235 490,235 492,235 493,235 495,235 496,235 498,236 499,236 501,236 502,236 504,237 505,237 507,238 508,238 510,239 511,239 513,240 514,240 516,241 518,241 519,241 521,242 522,242 524,243 525,243 527,243 528,243 530,244 531,244 533,244 534,244 536,244 537,244 539,244 540,244 542,245 543,245 545,245 546,245 548,245 549,245 551,246 552,246 554,246 555,247 557,247 558,248 560,248 561,249 563,249 564,250 566,251 568,251 569,252 571,252 572,253 574,254 575,255 577,255 578,256 580,257 581,257 583,258 584,259 586,260 587,260 589,261 590,262 592,263 593,264 595,264 596,265 598,266 599,267 601,268 602,269 604,270 605,272 607,273 608,274 610,275 611,276 613,277 615,278 616,279 618,280 619,281 621,282 622,283 624,284 625,284 627,285 628,285 630,286 631,286 633,286 634,287 636,286 637,286 639,286 640,286 642,285 643,285 645,284 646,284 648,283 649,282 651,282 652,281 654,280 655,280 657,279 658,279 660,279 661,279 663,280 665,280 666,281 668,283 669,284 671,286 672,288 674,290 675,292 677,295 678,297 680,299 681,302 683,304 684,307 686,309 687,311 689,313 690,315 692,317 693,319 695,321 696,323 698,324 699,326 701,327 702,328 704,329 705,330 707,331 708,332 710,333 712,333 713,334 715,335 716,335 718,336 719,336 721,337 722,338 724,338 725,339 727,340 728,340 730,341 731,342 733,343 734,344 736,345 737,347 739,348 740,349 742,351 743,352 745,354 746,355 748,357 749,358 751,360 752,361 754,362 755,364 757,365 758,366 760,367 762,368 763,369 765,369 766,370 768,371 769,371 771,371 772,371 774,371 775,371 777,370 778,370 780,369 781,368 783,367 784,365 786,364 787,362 789,360 790,357 792,355 793,352 795,348 796,345 798,341 799,337 801,332 802,327 804,322 805,317 807,312 809,308 810,305 812,303 813,303 815,305 816,309 818,313 819,319 821,325 822,330 824,336 825,341 827,346 828,351 830,355 831,359 833,363 834,366 836,369 837,372 839,374 840,377 842,378 843,380 845,381 846,382 848,383 849,384 851,384 852,384 854,384 855,384 857,383 859,382 860,381 862,379 863,378 865,376 866,373 868,370 869,367 871,364 872,360 874,356 875,351 877,346 878,341 880,335 881,329 883,324 884,320 886,317 887,316 889,317 890,321 892,326 893,331 895,338 896,344 898,350 899,355 901,360 902,365 904,369 906,373 907,377 909,380 910,383 912,386 913,388 915,390 916,391 918,393 919,394 921,394 922,395 924,395 925,395 927,394 928,393 930,392 931,391 933,389 934,387 936,385 937,382 939,378 940,375 942,371 943,366 945,361 946,356 948,351 949,346 951,342 952,339 954,338 956,340 957,344 959,349 960,356 962,363 963,370 965,376 966,383 968,389 969,395 971,400 972,405 974,409 975,414 977,417 978,421 980,424 981,427 983,430 984,432 986,435 987,437 989,439 990,440 992,442 993,443 995,444 996,445 998,445 999,446 1001,446 1003,446 1004,446 1004,446 1004,445 1004,445 1004,444 1004,443 1004,442 1004,440 1004,439 1004,437 1004,435 1004,432 1004,430 1004,427 1004,424 1004,421 1004,417 1004,414 1004,409 1004,405 1004,400 1004,395 1004,389 1004,383 1004,376 1004,370 1004,363 1004,356 1004,349 1004,344 1004,340 1004,338 1004,339 1004,342 1004,346 1004,351 1004,356 1004,361 1004,366 1004,371 1004,375 1004,378 1004,382 1004,385 1004,387 1004,389 1004,391 1004,392 1004,393 1004,394 1004,395 1004,395 1004,395 1004,394 1004,394 1004,393 1004,391 1004,390 1004,388 1004,386 1004,383 1004,380 1004,377 1004,373 1004,369 1004,365 1004,360 1004,355 1004,350 1004,344 1004,338 1004,331 1004,326 1004,321 1004,317 1004,316 1004,317 1004,320 1004,324 1004,329 1004,335 1004,341 1004,346 1004,351 1004,356 1004,360 1004,364 1004,367 1004,370 1004,373 1004,376 1004,378 1004,379 1004,381 1004,382 1004,383 1004,384 1004,384 1004,384 1004,384 1004,384 1004,383 1004,382 1004,381 1004,380 1004,378 1004,377 1004,374 1004,372 1004,369 1004,366 1004,363 1004,359 1004,355 1004,351 1004,346 1004,341 1004,336 1004,330 1004,325 1004,319 1004,313 1004,309 1004,305 1004,303 1004,303 1004,305 1004,308 1004,312 1004,317 1004,322 1004,327 1004,332 1004,337 1004,341 1004,345 1004,348 1004,352 1004,355 1004,357 1004,360 1004,362 1004,364 1004,365 1004,367 1004,368 1004,369 1004,370 1004,370 1004,371 1004,371 1004,371 1004,371 1004,371 1004,371 1004,370 1004,369 1004,369 1004,368 1004,367 1004,366 1004,365 1004,364 1004,362 1004,361 1004,360 1004,358 1004,357 1004,355 1004,354 1004,352 1004,351 1004,349 1004,348 1004,347 1004,345 1004,344 1004,343 1004,342 1004,341 1004,340 1004,340 1004,339 1004,338 1004,338 1004,337 1004,336 1004,336 1004,335 1004,335 1004,334 1004,333 1004,333 1004,332 1004,331 1004,330 1004,329 1004,328 1004,327 1004,326 1004,324 1004,323 1004,321 1004,319 1004,317 1004,315 1004,313 1004,311 1004,309 1004,307 1004,304 1004,302 1004,299 1004,297 1004,295 1004,292 1004,290 1004,288 1004,286 1004,284 1004,283 1004,281 1004,280 1004,280 1004,279 1004,279 1004,279 1004,279 1004,280 1004,280 1004,281 1004,282 1004,282 1004,283 1004,284 1004,284 1004,285 1004,285 1004,286 1004,286 1004,286 1004,286 1004,287 1004,286 1004,286 1004,286 1004,285 1004,285 1004,284 1004,284 1004,283 1004,282 1004,281 1004,280 1004,279 1004,278 1004,277 1004,276 1004,275 1004,274 1004,273 1004,272 1004,270 1004,269 1004,268 1004,267 1004,266 1004,265 1004,264 1004,264 1004,263 1004,262 1004,261 1004,260 1004,260 1004,259 1004,258 1004,257 1004,257 1004,256 1004,255 1004,255 1004,254 1004,253 1004,252 1004,252 1004,251 1004,251 1004,250 1004,249 1004,249 1004,248 1004,248 1004,247 1004,247 1004,246 1004,246 1004,246 1004,245 1004,245 1004,245 1004,245 1004,245 1004,245 1004,244 1004,244 1004,244 1004,244 1004,244 1004,244 1004,244 1004,244 1004,243 1004,243 1004,243 1004,243 1004,242 1004,242 1004,241 1004,241 1004,241 1004,240 1004,240 1004,239 1004,239 1004,238 1004,238 1004,237 1004,237 1004,236 1004,236 1004,236 1004,236 1004,235 1004,235 1004,235 1004,235 1004,235 1004,235 1004,235 1004,235 1004,235 1004,235 1004,235 1004,236 1004,236 1004,236 1004,236 1004,236 1004,236 1004,236 1004,236 1004,237 1004,237 1004,237 1004,237 1004,237 1004,237 1004,237 1004,237 1004,237 1004,237 1004,237 1004,237 1004,237 1004,237 1004,237 1004,236 1004,236 1004,236 1004,236 1004,236 1004,236 1004,236 1004,236 1004,236 1004,236 1004,236 1004,236 1004,236 1004,236 1004,235 1004,235 1004,235 1004,235 1004,235 1004,235 1004,234 1004,234 1004,234 1004,234 1004,233 1004,233 1004,233 1004,233 1004,233 1004,233 1004,232 1004,232 1004,232 1004,232 1004,232 1004,232 1004,232 1004,232 1004,232 1004,232 1004,232 1004,232 1004,232 1004,232 1004,232 1004,232 1004,232 1004,232 1004,232 1004,232 1004,232 1004,232 1004,231 1004,231 1004,231 1004,231 1004,231 1004,231 1004,231 1004,231 1004,230 1004,230 1004,230 1004,230 1004,230 1004,230 1004,230 1004,230 1004,230 1004,230 1004,230 1004,230 1004,230 1004,230 1004,230 1004,230 1004,230 1004,230 1004,230 1004,230 1004,230 1004,230 1004,230 1004,230 1004,230 1004,230 1004,230 1004,230 1004,230 1004,230 1004,229 1004,229 1004,229 1004,229 1004,229 1004,228 1004,228 1004,228 1004,228 1004,228 1004,227 1004,227 1004,227 1004,227 1004,227 1004,227 1004,227 1004,226 1004,226 1004,226 1004,226 1004,226 1004,227 1004,227 1004,227 1004,227 1004,227 1004,227 1004,227 1004,227 1004,227 1004,227 1004,227 1004,227 1004,227 1004,227 1004,227 1004,227 1004,227 1004,227 1004,227 1004,227 1004,227 1004,227 1004,227 1004,227 1004,227 1004,227 1004,227 1004,228 1004,228 1004,228 1004,228 1004,228 1004,228 1004,228 1004,228 1004,228 1004,228 1004,228 1004,228 1004,228 1004,228 1004,227 1004,227 1004,227 1004,227 1004,227 1004,227 1004,227 1004,227 1004,227 1004,226 1004,226 1004,226 1004,226 1004,226 1004,226 1004,226 1004,226 1004,226 1004,226 1004,226 1004,226 1004,226 1004,226 1004,226 1004,226 1004,226 1004,226 1004,226 1004,226 1004,226 1004,226 1004,226 1004,226 1004,227 1004,227 1004,227 1004,227 1004,227 1004,227 1004,227 1004,226 1004,226 1004,226 1004,226 1004,226 1004,226 1004,226 1004,226 1004,226 1004,225 1004,225 1004,225 1004,225 1004,225 1004,225 "/>
<rect x="514" y="25" width="485" height="157" opacity="0.8" fill="#FFFFFF" stroke="none"/>
<rect x="514" y="25" width="485" height="157" opacity="1" fill="none" stroke="#000000"/>
<text x="554" y="35" dy="0.76em" text-anchor="start" font-family="sans-serif" font-size="24.193548387096776" opacity="1" fill="#000000">
(1) log_power
</text>
<text x="554" y="73" dy="0.76em" text-anchor="start" font-family="sans-serif" font-size="24.193548387096776" opacity="1" fill="#000000">
(2) spectral_envelope by cepstrum
</text>
<text x="554" y="110" dy="0.76em" text-anchor="start" font-family="sans-serif" font-size="24.193548387096776" opacity="1" fill="#000000">
(3) spectral_envelope by levinson-durbin
</text>
<text x="554" y="148" dy="0.76em" text-anchor="start" font-family="sans-serif" font-size="24.193548387096776" opacity="1" fill="#000000">
(4) spectral_envelope by burg
</text>
<polyline fill="none" opacity="1" stroke="#E6194B" stroke-width="1" points="524,47 544,47 "/>
<polyline fill="none" opacity="1" stroke="#3CB44B" stroke-width="1" points="524,85 544,85 "/>
<polyline fill="none" opacity="1" stroke="#FFE119" stroke-width="1" points="524,122 544,122 "/>
<polyline fill="none" opacity="1" stroke="#0082C8" stroke-width="1" points="524,160 544,160 "/>
</svg>
