<svg width="1024" height="768" viewBox="0 0 1024 768" xmlns="http://www.w3.org/2000/svg">
<rect x="0" y="0" width="1024" height="768" opacity="1" fill="#FFFFFF" stroke="none"/>
<line opacity="0.1" stroke="#000000" stroke-width="1" x1="130" y1="657" x2="130" y2="20"/>
<line opacity="0.1" stroke="#000000" stroke-width="1" x1="140" y1="657" x2="140" y2="20"/>
<line opacity="0.1" stroke="#000000" stroke-width="1" x1="151" y1="657" x2="151" y2="20"/>
<line opacity="0.1" stroke="#000000" stroke-width="1" x1="162" y1="657" x2="162" y2="20"/>
<line opacity="0.1" stroke="#000000" stroke-width="1" x1="173" y1="657" x2="173" y2="20"/>
<line opacity="0.1" stroke="#000000" stroke-width="1" x1="184" y1="657" x2="184" y2="20"/>
<line opacity="0.1" stroke="#000000" stroke-width="1" x1="195" y1="657" x2="195" y2="20"/>
<line opacity="0.1" stroke="#000000" stroke-width="1" x1="206" y1="657" x2="206" y2="20"/>
<line opacity="0.1" stroke="#000000" stroke-width="1" x1="217" y1="657" x2="217" y2="20"/>
<line opacity="0.1" stroke="#000000" stroke-width="1" x1="228" y1="657" x2="228" y2="20"/>
<line opacity="0.1" stroke="#000000" stroke-width="1" x1="239" y1="657" x2="239" y2="20"/>
<line opacity="0.1" stroke="#000000" stroke-width="1" x1="250" y1="657" x2="250" y2="20"/>
<line opacity="0.1" stroke="#000000" stroke-width="1" x1="260" y1="657" x2="260" y2="20"/>
<line opacity="0.1" stroke="#000000" stroke-width="1" x1="271" y1="657" x2="271" y2="20"/>
<line opacity="0.1" stroke="#000000" stroke-width="1" x1="282" y1="657" x2="282" y2="20"/>
<line opacity="0.1" stroke="#000000" stroke-width="1" x1="293" y1="657" x2="293" y2="20"/>
<line opacity="0.1" stroke="#000000" stroke-width="1" x1="304" y1="657" x2="304" y2="20"/>
<line opacity="0.1" stroke="#000000" stroke-width="1" x1="315" y1="657" x2="315" y2="20"/>
<line opacity="0.1" stroke="#000000" stroke-width="1" x1="326" y1="657" x2="326" y2="20"/>
<line opacity="0.1" stroke="#000000" stroke-width="1" x1="337" y1="657" x2="337" y2="20"/>
<line opacity="0.1" stroke="#000000" stroke-width="1" x1="348" y1="657" x2="348" y2="20"/>
<line opacity="0.1" stroke="#000000" stroke-width="1" x1="359" y1="657" x2="359" y2="20"/>
<line opacity="0.1" stroke="#000000" stroke-width="1" x1="370" y1="657" x2="370" y2="20"/>
<line opacity="0.1" stroke="#000000" stroke-width="1" x1="380" y1="657" x2="380" y2="20"/>
<line opacity="0.1" stroke="#000000" stroke-width="1" x1="391" y1="657" x2="391" y2="20"/>
<line opacity="0.1" stroke="#000000" stroke-width="1" x1="402" y1="657" x2="402" y2="20"/>
<line opacity="0.1" stroke="#000000" stroke-width="1" x1="413" y1="657" x2="413" y2="20"/>
<line opacity="0.1" stroke="#000000" stroke-width="1" x1="424" y1="657" x2="424" y2="20"/>
<line opacity="0.1" stroke="#000000" stroke-width="1" x1="435" y1="657" x2="435" y2="20"/>
<line opacity="0.1" stroke="#000000" stroke-width="1" x1="446" y1="657" x2="446" y2="20"/>
<line opacity="0.1" stroke="#000000" stroke-width="1" x1="457" y1="657" x2="457" y2="20"/>
<line opacity="0.1" stroke="#000000" stroke-width="1" x1="468" y1="657" x2="468" y2="20"/>
<line opacity="0.1" stroke="#000000" stroke-width="1" x1="479" y1="657" x2="479" y2="20"/>
<line opacity="0.1" stroke="#000000" stroke-width="1" x1="490" y1="657" x2="490" y2="20"/>
<line opacity="0.1" stroke="#000000" stroke-width="1" x1="501" y1="657" x2="501" y2="20"/>
<line opacity="0.1" stroke="#000000" stroke-width="1" x1="511" y1="657" x2="511" y2="20"/>
<line opacity="0.1" stroke="#000000" stroke-width="1" x1="522" y1="657" x2="522" y2="20"/>
<line opacity="0.1" stroke="#000000" stroke-width="1" x1="533" y1="657" x2="533" y2="20"/>
<line opacity="0.1" stroke="#000000" stroke-width="1" x1="544" y1="657" x2="544" y2="20"/>
<line opacity="0.1" stroke="#000000" stroke-width="1" x1="555" y1="657" x2="555" y2="20"/>
<line opacity="0.1" stroke="#000000" stroke-width="1" x1="566" y1="657" x2="566" y2="20"/>
<line opacity="0.1" stroke="#000000" stroke-width="1" x1="577" y1="657" x2="577" y2="20"/>
<line opacity="0.1" stroke="#000000" stroke-width="1" x1="588" y1="657" x2="588" y2="20"/>
<line opacity="0.1" stroke="#000000" stroke-width="1" x1="599" y1="657" x2="599" y2="20"/>
<line opacity="0.1" stroke="#000000" stroke-width="1" x1="610" y1="657" x2="610" y2="20"/>
<line opacity="0.1" stroke="#000000" stroke-width="1" x1="621" y1="657" x2="621" y2="20"/>
<line opacity="0.1" stroke="#000000" stroke-width="1" x1="631" y1="657" x2="631" y2="20"/>
<line opacity="0.1" stroke="#000000" stroke-width="1" x1="642" y1="657" x2="642" y2="20"/>
<line opacity="0.1" stroke="#000000" stroke-width="1" x1="653" y1="657" x2="653" y2="20"/>
<line opacity="0.1" stroke="#000000" stroke-width="1" x1="664" y1="657" x2="664" y2="20"/>
<line opacity="0.1" stroke="#000000" stroke-width="1" x1="675" y1="657" x2="675" y2="20"/>
<line opacity="0.1" stroke="#000000" stroke-width="1" x1="686" y1="657" x2="686" y2="20"/>
<line opacity="0.1" stroke="#000000" stroke-width="1" x1="697" y1="657" x2="697" y2="20"/>
<line opacity="0.1" stroke="#000000" stroke-width="1" x1="708" y1="657" x2="708" y2="20"/>
<line opacity="0.1" stroke="#000000" stroke-width="1" x1="719" y1="657" x2="719" y2="20"/>
<line opacity="0.1" stroke="#000000" stroke-width="1" x1="730" y1="657" x2="730" y2="20"/>
<line opacity="0.1" stroke="#000000" stroke-width="1" x1="741" y1="657" x2="741" y2="20"/>
<line opacity="0.1" stroke="#000000" stroke-width="1" x1="752" y1="657" x2="752" y2="20"/>
<line opacity="0.1" stroke="#000000" stroke-width="1" x1="762" y1="657" x2="762" y2="20"/>
<line opacity="0.1" stroke="#000000" stroke-width="1" x1="773" y1="657" x2="773" y2="20"/>
<line opacity="0.1" stroke="#000000" stroke-width="1" x1="784" y1="657" x2="784" y2="20"/>
<line opacity="0.1" stroke="#000000" stroke-width="1" x1="795" y1="657" x2="795" y2="20"/>
<line opacity="0.1" stroke="#000000" stroke-width="1" x1="806" y1="657" x2="806" y2="20"/>
<line opacity="0.1" stroke="#000000" stroke-width="1" x1="817" y1="657" x2="817" y2="20"/>
<line opacity="0.1" stroke="#000000" stroke-width="1" x1="828" y1="657" x2="828" y2="20"/>
<line opacity="0.1" stroke="#000000" stroke-width="1" x1="839" y1="657" x2="839" y2="20"/>
<line opacity="0.1" stroke="#000000" stroke-width="1" x1="850" y1="657" x2="850" y2="20"/>
<line opacity="0.1" stroke="#000000" stroke-width="1" x1="861" y1="657" x2="861" y2="20"/>
<line opacity="0.1" stroke="#000000" stroke-width="1" x1="872" y1="657" x2="872" y2="20"/>
<line opacity="0.1" stroke="#000000" stroke-width="1" x1="882" y1="657" x2="882" y2="20"/>
<line opacity="0.1" stroke="#000000" stroke-width="1" x1="893" y1="657" x2="893" y2="20"/>
<line opacity="0.1" stroke="#000000" stroke-width="1" x1="904" y1="657" x2="904" y2="20"/>
<line opacity="0.1" stroke="#000000" stroke-width="1" x1="915" y1="657" x2="915" y2="20"/>
<line opacity="0.1" stroke="#000000" stroke-width="1" x1="926" y1="657" x2="926" y2="20"/>
<line opacity="0.1" stroke="#000000" stroke-width="1" x1="937" y1="657" x2="937" y2="20"/>
<line opacity="0.1" stroke="#000000" stroke-width="1" x1="948" y1="657" x2="948" y2="20"/>
<line opacity="0.1" stroke="#000000" stroke-width="1" x1="959" y1="657" x2="959" y2="20"/>
<line opacity="0.1" stroke="#000000" stroke-width="1" x1="970" y1="657" x2="970" y2="20"/>
<line opacity="0.1" stroke="#000000" stroke-width="1" x1="981" y1="657" x2="981" y2="20"/>
<line opacity="0.1" stroke="#000000" stroke-width="1" x1="992" y1="657" x2="992" y2="20"/>
<line opacity="0.1" stroke="#000000" stroke-width="1" x1="1003" y1="657" x2="1003" y2="20"/>
<line opacity="0.1" stroke="#000000" stroke-width="1" x1="130" y1="657" x2="1003" y2="657"/>
<line opacity="0.1" stroke="#000000" stroke-width="1" x1="130" y1="650" x2="1003" y2="650"/>
<line opacity="0.1" stroke="#000000" stroke-width="1" x1="130" y1="642" x2="1003" y2="642"/>
<line opacity="0.1" stroke="#000000" stroke-width="1" x1="130" y1="634" x2="1003" y2="634"/>
<line opacity="0.1" stroke="#000000" stroke-width="1" x1="130" y1="626" x2="1003" y2="626"/>
<line opacity="0.1" stroke="#000000" stroke-width="1" x1="130" y1="618" x2="1003" y2="618"/>
<line opacity="0.1" stroke="#000000" stroke-width="1" x1="130" y1="610" x2="1003" y2="610"/>
<line opacity="0.1" stroke="#000000" stroke-width="1" x1="130" y1="602" x2="1003" y2="602"/>
<line opacity="0.1" stroke="#000000" stroke-width="1" x1="130" y1="594" x2="1003" y2="594"/>
<line opacity="0.1" stroke="#000000" stroke-width="1" x1="130" y1="586" x2="1003" y2="586"/>
<line opacity="0.1" stroke="#000000" stroke-width="1" x1="130" y1="578" x2="1003" y2="578"/>
<line opacity="0.1" stroke="#000000" stroke-width="1" x1="130" y1="570" x2="1003" y2="570"/>
<line opacity="0.1" stroke="#000000" stroke-width="1" x1="130" y1="562" x2="1003" y2="562"/>
<line opacity="0.1" stroke="#000000" stroke-width="1" x1="130" y1="554" x2="1003" y2="554"/>
<line opacity="0.1" stroke="#000000" stroke-width="1" x1="130" y1="546" x2="1003" y2="546"/>
<line opacity="0.1" stroke="#000000" stroke-width="1" x1="130" y1="538" x2="1003" y2="538"/>
<line opacity="0.1" stroke="#000000" stroke-width="1" x1="130" y1="530" x2="1003" y2="530"/>
<line opacity="0.1" stroke="#000000" stroke-width="1" x1="130" y1="522" x2="1003" y2="522"/>
<line opacity="0.1" stroke="#000000" stroke-width="1" x1="130" y1="514" x2="1003" y2="514"/>
<line opacity="0.1" stroke="#000000" stroke-width="1" x1="130" y1="506" x2="1003" y2="506"/>
<line opacity="0.1" stroke="#000000" stroke-width="1" x1="130" y1="498" x2="1003" y2="498"/>
<line opacity="0.1" stroke="#000000" stroke-width="1" x1="130" y1="490" x2="1003" y2="490"/>
<line opacity="0.1" stroke="#000000" stroke-width="1" x1="130" y1="482" x2="1003" y2="482"/>
<line opacity="0.1" stroke="#000000" stroke-width="1" x1="130" y1="474" x2="1003" y2="474"/>
<line opacity="0.1" stroke="#000000" stroke-width="1" x1="130" y1="466" x2="1003" y2="466"/>
<line opacity="0.1" stroke="#000000" stroke-width="1" x1="130" y1="458" x2="1003" y2="458"/>
<line opacity="0.1" stroke="#000000" stroke-width="1" x1="130" y1="450" x2="1003" y2="450"/>
<line opacity="0.1" stroke="#000000" stroke-width="1" x1="130" y1="443" x2="1003" y2="443"/>
<line opacity="0.1" stroke="#000000" stroke-width="1" x1="130" y1="435" x2="1003" y2="435"/>
<line opacity="0.1" stroke="#000000" stroke-width="1" x1="130" y1="427" x2="1003" y2="427"/>
<line opacity="0.1" stroke="#000000" stroke-width="1" x1="130" y1="419" x2="1003" y2="419"/>
<line opacity="0.1" stroke="#000000" stroke-width="1" x1="130" y1="411" x2="1003" y2="411"/>
<line opacity="0.1" stroke="#000000" stroke-width="1" x1="130" y1="403" x2="1003" y2="403"/>
<line opacity="0.1" stroke="#000000" stroke-width="1" x1="130" y1="395" x2="1003" y2="395"/>
<line opacity="0.1" stroke="#000000" stroke-width="1" x1="130" y1="387" x2="1003" y2="387"/>
<line opacity="0.1" stroke="#000000" stroke-width="1" x1="130" y1="379" x2="1003" y2="379"/>
<line opacity="0.1" stroke="#000000" stroke-width="1" x1="130" y1="371" x2="1003" y2="371"/>
<line opacity="0.1" stroke="#000000" stroke-width="1" x1="130" y1="363" x2="1003" y2="363"/>
<line opacity="0.1" stroke="#000000" stroke-width="1" x1="130" y1="355" x2="1003" y2="355"/>
<line opacity="0.1" stroke="#000000" stroke-width="1" x1="130" y1="347" x2="1003" y2="347"/>
<line opacity="0.1" stroke="#000000" stroke-width="1" x1="130" y1="339" x2="1003" y2="339"/>
<line opacity="0.1" stroke="#000000" stroke-width="1" x1="130" y1="331" x2="1003" y2="331"/>
<line opacity="0.1" stroke="#000000" stroke-width="1" x1="130" y1="323" x2="1003" y2="323"/>
<line opacity="0.1" stroke="#000000" stroke-width="1" x1="130" y1="315" x2="1003" y2="315"/>
<line opacity="0.1" stroke="#000000" stroke-width="1" x1="130" y1="307" x2="1003" y2="307"/>
<line opacity="0.1" stroke="#000000" stroke-width="1" x1="130" y1="299" x2="1003" y2="299"/>
<line opacity="0.1" stroke="#000000" stroke-width="1" x1="130" y1="291" x2="1003" y2="291"/>
<line opacity="0.1" stroke="#000000" stroke-width="1" x1="130" y1="283" x2="1003" y2="283"/>
<line opacity="0.1" stroke="#000000" stroke-width="1" x1="130" y1="275" x2="1003" y2="275"/>
<line opacity="0.1" stroke="#000000" stroke-width="1" x1="130" y1="267" x2="1003" y2="267"/>
<line opacity="0.1" stroke="#000000" stroke-width="1" x1="130" y1="259" x2="1003" y2="259"/>
<line opacity="0.1" stroke="#000000" stroke-width="1" x1="130" y1="251" x2="1003" y2="251"/>
<line opacity="0.1" stroke="#000000" stroke-width="1" x1="130" y1="243" x2="1003" y2="243"/>
<line opacity="0.1" stroke="#000000" stroke-width="1" x1="130" y1="235" x2="1003" y2="235"/>
<line opacity="0.1" stroke="#000000" stroke-width="1" x1="130" y1="228" x2="1003" y2="228"/>
<line opacity="0.1" stroke="#000000" stroke-width="1" x1="130" y1="220" x2="1003" y2="220"/>
<line opacity="0.1" stroke="#000000" stroke-width="1" x1="130" y1="212" x2="1003" y2="212"/>
<line opacity="0.1" stroke="#000000" stroke-width="1" x1="130" y1="204" x2="1003" y2="204"/>
<line opacity="0.1" stroke="#000000" stroke-width="1" x1="130" y1="196" x2="1003" y2="196"/>
<line opacity="0.1" stroke="#000000" stroke-width="1" x1="130" y1="188" x2="1003" y2="188"/>
<line opacity="0.1" stroke="#000000" stroke-width="1" x1="130" y1="180" x2="1003" y2="180"/>
<line opacity="0.1" stroke="#000000" stroke-width="1" x1="130" y1="172" x2="1003" y2="172"/>
<line opacity="0.1" stroke="#000000" stroke-width="1" x1="130" y1="164" x2="1003" y2="164"/>
<line opacity="0.1" stroke="#000000" stroke-width="1" x1="130" y1="156" x2="1003" y2="156"/>
<line opacity="0.1" stroke="#000000" stroke-width="1" x1="130" y1="148" x2="1003" y2="148"/>
<line opacity="0.1" stroke="#000000" stroke-width="1" x1="130" y1="140" x2="1003" y2="140"/>
<line opacity="0.1" stroke="#000000" stroke-width="1" x1="130" y1="132" x2="1003" y2="132"/>
<line opacity="0.1" stroke="#000000" stroke-width="1" x1="130" y1="124" x2="1003" y2="124"/>
<line opacity="0.1" stroke="#000000" stroke-width="1" x1="130" y1="116" x2="1003" y2="116"/>
<line opacity="0.1" stroke="#000000" stroke-width="1" x1="130" y1="108" x2="1003" y2="108"/>
<line opacity="0.1" stroke="#000000" stroke-width="1" x1="130" y1="100" x2="1003" y2="100"/>
<line opacity="0.1" stroke="#000000" stroke-width="1" x1="130" y1="92" x2="1003" y2="92"/>
<line opacity="0.1" stroke="#000000" stroke-width="1" x1="130" y1="84" x2="1003" y2="84"/>
<line opacity="0.1" stroke="#000000" stroke-width="1" x1="130" y1="76" x2="1003" y2="76"/>
<line opacity="0.1" stroke="#000000" stroke-width="1" x1="130" y1="68" x2="1003" y2="68"/>
<line opacity="0.1" stroke="#000000" stroke-width="1" x1="130" y1="60" x2="1003" y2="60"/>
<line opacity="0.1" stroke="#000000" stroke-width="1" x1="130" y1="52" x2="1003" y2="52"/>
<line opacity="0.1" stroke="#000000" stroke-width="1" x1="130" y1="44" x2="1003" y2="44"/>
<line opacity="0.1" stroke="#000000" stroke-width="1" x1="130" y1="36" x2="1003" y2="36"/>
<line opacity="0.1" stroke="#000000" stroke-width="1" x1="130" y1="28" x2="1003" y2="28"/>
<line opacity="0.1" stroke="#000000" stroke-width="1" x1="130" y1="20" x2="1003" y2="20"/>
<text x="20" y="339" dy="0.76em" text-anchor="middle" font-family="sans-serif" font-size="24.193548387096776" opacity="1" fill="#000000" transform="rotate(270, 20, 339)">
Power [dB]
</text>
<text x="567" y="748" dy="-0.5ex" text-anchor="middle" font-family="sans-serif" font-size="24.193548387096776" opacity="1" fill="#000000">
Frequency [Hz]
</text>
<line opacity="0.2" stroke="#000000" stroke-width="1" x1="130" y1="657" x2="130" y2="20"/>
<line opacity="0.2" stroke="#000000" stroke-width="1" x1="239" y1="657" x2="239" y2="20"/>
<line opacity="0.2" stroke="#000000" stroke-width="1" x1="348" y1="657" x2="348" y2="20"/>
<line opacity="0.2" stroke="#000000" stroke-width="1" x1="457" y1="657" x2="457" y2="20"/>
<line opacity="0.2" stroke="#000000" stroke-width="1" x1="566" y1="657" x2="566" y2="20"/>
<line opacity="0.2" stroke="#000000" stroke-width="1" x1="675" y1="657" x2="675" y2="20"/>
<line opacity="0.2" stroke="#000000" stroke-width="1" x1="784" y1="657" x2="784" y2="20"/>
<line opacity="0.2" stroke="#000000" stroke-width="1" x1="893" y1="657" x2="893" y2="20"/>
<line opacity="0.2" stroke="#000000" stroke-width="1" x1="1003" y1="657" x2="1003" y2="20"/>
<line opacity="0.2" stroke="#000000" stroke-width="1" x1="130" y1="657" x2="1003" y2="657"/>
<line opacity="0.2" stroke="#000000" stroke-width="1" x1="130" y1="578" x2="1003" y2="578"/>
<line opacity="0.2" stroke="#000000" stroke-width="1" x1="130" y1="498" x2="1003" y2="498"/>
<line opacity="0.2" stroke="#000000" stroke-width="1" x1="130" y1="419" x2="1003" y2="419"/>
<line opacity="0.2" stroke="#000000" stroke-width="1" x1="130" y1="339" x2="1003" y2="339"/>
<line opacity="0.2" stroke="#000000" stroke-width="1" x1="130" y1="259" x2="1003" y2="259"/>
<line opacity="0.2" stroke="#000000" stroke-width="1" x1="130" y1="180" x2="1003" y2="180"/>
<line opacity="0.2" stroke="#000000" stroke-width="1" x1="130" y1="100" x2="1003" y2="100"/>
<line opacity="0.2" stroke="#000000" stroke-width="1" x1="130" y1="20" x2="1003" y2="20"/>
<polyline fill="none" opacity="1" stroke="#000000" stroke-width="1" points="129,20 129,657 "/>
<text x="120" y="657" dy="0.5ex" text-anchor="end" font-family="sans-serif" font-size="24.193548387096776" opacity="1" fill="#000000">
-60.0
</text>
<polyline fill="none" opacity="1" stroke="#000000" stroke-width="1" points="124,657 129,657 "/>
<text x="120" y="578" dy="0.5ex" text-anchor="end" font-family="sans-serif" font-size="24.193548387096776" opacity="1" fill="#000000">
-50.0
</text>
<polyline fill="none" opacity="1" stroke="#000000" stroke-width="1" points="124,578 129,578 "/>
<text x="120" y="498" dy="0.5ex" text-anchor="end" font-family="sans-serif" font-size="24.193548387096776" opacity="1" fill="#000000">
-40.0
</text>
<polyline fill="none" opacity="1" stroke="#000000" stroke-width="1" points="124,498 129,498 "/>
<text x="120" y="419" dy="0.5ex" text-anchor="end" font-family="sans-serif" font-size="24.193548387096776" opacity="1" fill="#000000">
-30.0
</text>
<polyline fill="none" opacity="1" stroke="#000000" stroke-width="1" points="124,419 129,419 "/>
<text x="120" y="339" dy="0.5ex" text-anchor="end" font-family="sans-serif" font-size="24.193548387096776" opacity="1" fill="#000000">
-20.0
</text>
<polyline fill="none" opacity="1" stroke="#000000" stroke-width="1" points="124,339 129,339 "/>
<text x="120" y="259" dy="0.5ex" text-anchor="end" font-family="sans-serif" font-size="24.193548387096776" opacity="1" fill="#000000">
-10.0
</text>
<polyline fill="none" opacity="1" stroke="#000000" stroke-width="1" points="124,259 129,259 "/>
<text x="120" y="180" dy="0.5ex" text-anchor="end" font-family="sans-serif" font-size="24.193548387096776" opacity="1" fill="#000000">
0.0
</text>
<polyline fill="none" opacity="1" stroke="#000000" stroke-width="1" points="124,180 129,180 "/>
<text x="120" y="100" dy="0.5ex" text-anchor="end" font-family="sans-serif" font-size="24.193548387096776" opacity="1" fill="#000000">
10.0
</text>
<polyline fill="none" opacity="1" stroke="#000000" stroke-width="1" points="124,100 129,100 "/>
<text x="120" y="20" dy="0.5ex" text-anchor="end" font-family="sans-serif" font-size="24.193548387096776" opacity="1" fill="#000000">
20.0
</text>
<polyline fill="none" opacity="1" stroke="#000000" stroke-width="1" points="124,20 129,20 "/>
<polyline fill="none" opacity="1" stroke="#000000" stroke-width="1" points="130,658 1003,658 "/>
<text x="130" y="668" dy="0.76em" text-anchor="middle" font-family="sans-serif" font-size="24.193548387096776" opacity="1" fill="#000000">
0.0
</text>
<polyline fill="none" opacity="1" stroke="#000000" stroke-width="1" points="130,658 130,663 "/>
<text x="239" y="668" dy="0.76em" text-anchor="middle" font-family="sans-serif" font-size="24.193548387096776" opacity="1" fill="#000000">
1000.0
</text>
<polyline fill="none" opacity="1" stroke="#000000" stroke-width="1" points="239,658 239,663 "/>
<text x="348" y="668" dy="0.76em" text-anchor="middle" font-family="sans-serif" font-size="24.193548387096776" opacity="1" fill="#000000">
2000.0
</text>
<polyline fill="none" opacity="1" stroke="#000000" stroke-width="1" points="348,658 348,663 "/>
<text x="457" y="668" dy="0.76em" text-anchor="middle" font-family="sans-serif" font-size="24.193548387096776" opacity="1" fill="#000000">
3000.0
</text>
<polyline fill="none" opacity="1" stroke="#000000" stroke-width="1" points="457,658 457,663 "/>
<text x="566" y="668" dy="0.76em" text-anchor="middle" font-family="sans-serif" font-size="24.193548387096776" opacity="1" fill="#000000">
4000.0
</text>
<polyline fill="none" opacity="1" stroke="#000000" stroke-width="1" points="566,658 566,663 "/>
<text x="675" y="668" dy="0.76em" text-anchor="middle" font-family="sans-serif" font-size="24.193548387096776" opacity="1" fill="#000000">
5000.0
</text>
<polyline fill="none" opacity="1" stroke="#000000" stroke-width="1" points="675,658 675,663 "/>
<text x="784" y="668" dy="0.76em" text-anchor="middle" font-family="sans-serif" font-size="24.193548387096776" opacity="1" fill="#000000">
6000.0
</text>
<polyline fill="none" opacity="1" stroke="#000000" stroke-width="1" points="784,658 784,663 "/>
<text x="893" y="668" dy="0.76em" text-anchor="middle" font-family="sans-serif" font-size="24.193548387096776" opacity="1" fill="#000000">
7000.0
</text>
<polyline fill="none" opacity="1" stroke="#000000" stroke-width="1" points="893,658 893,663 "/>
<text x="1003" y="668" dy="0.76em" text-anchor="middle" font-family="sans-serif" font-size="24.193548387096776" opacity="1" fill="#000000">
8000.0
</text>
<polyline fill="none" opacity="1" stroke="#000000" stroke-width="1" points="1003,658 1003,663 "/>
<polyline fill="none" opacity="1" stroke="#E6194B" stroke-width="1" points="130,294 131,300 133,272 134,276 136,281 137,270 139,467 140,276 142,237 143,239 145,272 146,229 148,190 149,182 151,248 152,188 154,198 155,251 157,203 158,197 160,201 161,206 163,247 164,286 166,190 167,197 169,293 170,208 172,199 173,226 175,218 176,199 178,209 180,278 181,245 183,262 184,276 186,224 187,310 189,241 190,230 192,207 193,263 195,199 196,200 198,214 199,208 201,181 202,184 204,220 205,181 207,157 208,160 210,174 211,183 213,160 214,155 216,186 217,362 219,269 220,349 222,210 223,193 225,234 227,267 228,202 230,194 231,228 233,227 234,224 236,231 237,222 239,323 240,234 242,193 243,199 245,216 246,252 248,210 249,226 251,206 252,197 254,251 255,226 257,219 258,231 260,285 261,246 263,229 264,273 266,314 267,255 269,249 270,269 272,263 273,224 275,271 277,246 278,237 280,227 281,210 283,204 284,210 286,209 287,189 289,182 290,216 292,196 293,175 295,190 296,195 298,176 299,181 301,209 302,208 304,176 305,195 307,212 308,228 310,278 311,208 313,221 314,243 316,300 317,253 319,229 320,208 322,237 324,261 325,219 327,205 328,213 330,229 331,224 333,236 334,254 336,257 337,280 339,312 340,223 342,217 343,277 345,265 346,301 348,319 349,238 351,221 352,236 354,249 355,248 357,246 358,201 360,212 361,249 363,240 364,363 366,266 367,349 369,240 370,263 372,264 374,288 375,234 377,253 378,253 380,293 381,240 383,255 384,298 386,297 387,283 389,254 390,249 392,255 393,249 395,269 396,266 398,227 399,251 401,291 402,296 404,262 405,258 407,242 408,254 410,318 411,408 413,265 414,278 416,257 417,240 419,280 421,283 422,283 424,294 425,275 427,309 428,296 430,408 431,319 433,298 434,272 436,269 437,317 439,256 440,267 442,301 443,289 445,262 446,266 448,261 449,274 451,297 452,268 454,266 455,306 457,268 458,325 460,337 461,311 463,309 464,334 466,297 467,256 469,260 471,330 472,263 474,284 475,294 477,272 478,262 480,244 481,239 483,247 484,263 486,275 487,274 489,294 490,301 492,278 493,274 495,273 496,267 498,278 499,324 501,376 502,363 504,394 505,358 507,339 508,366 510,392 511,320 513,287 514,327 516,288 518,289 519,367 521,343 522,289 524,268 525,273 527,274 528,259 530,260 531,282 533,291 534,279 536,289 537,339 539,359 540,468 542,305 543,287 545,299 546,310 548,280 549,275 551,299 552,309 554,302 555,300 557,307 558,324 560,328 561,310 563,299 564,298 566,302 568,289 569,285 571,315 572,462 574,357 575,408 577,349 578,369 580,392 581,364 583,409 584,363 586,357 587,445 589,319 590,302 592,307 593,342 595,367 596,350 598,312 599,326 601,415 602,374 604,326 605,316 607,341 608,316 610,489 611,349 613,372 615,325 616,349 618,354 619,376 621,351 622,357 624,368 625,387 627,345 628,347 630,428 631,381 633,340 634,374 636,328 637,327 639,390 640,362 642,333 643,338 645,386 646,386 648,440 649,374 651,345 652,372 654,439 655,383 657,327 658,318 660,338 661,366 663,379 665,359 666,405 668,375 669,379 671,397 672,359 674,353 675,431 677,400 678,392 680,386 681,369 683,370 684,375 686,493 687,475 689,482 690,484 692,450 693,437 695,419 696,361 698,363 699,399 701,394 702,454 704,504 705,463 707,472 708,443 710,410 712,464 713,377 715,347 716,369 718,438 719,384 721,375 722,399 724,376 725,362 727,428 728,409 730,464 731,443 733,468 734,428 736,384 737,364 739,367 740,464 742,409 743,462 745,506 746,463 748,472 749,372 751,355 752,376 754,441 755,466 757,490 758,551 760,473 762,547 763,456 765,494 766,525 768,509 769,474 771,503 772,482 774,482 775,445 777,466 778,393 780,383 781,425 783,490 784,569 786,489 787,485 789,519 790,505 792,429 793,427 795,475 796,374 798,349 799,374 801,473 802,476 804,425 805,390 807,491 809,385 810,436 812,386 813,360 815,351 816,381 818,371 819,373 821,500 822,459 824,482 825,518 827,437 828,391 830,389 831,399 833,410 834,461 836,495 837,498 839,470 840,415 842,458 843,381 845,397 846,417 848,410 849,504 851,515 852,536 854,414 855,437 857,421 859,450 860,475 862,515 863,579 865,505 866,552 868,520 869,480 871,455 872,502 874,509 875,586 877,409 878,387 880,390 881,377 883,360 884,373 886,445 887,422 889,408 890,402 892,398 893,422 895,414 896,401 898,438 899,430 901,390 902,393 904,443 906,484 907,499 909,420 910,395 912,426 913,497 915,532 916,420 918,386 919,398 921,419 922,416 924,506 925,424 927,453 928,607 930,473 931,501 933,477 934,530 936,596 937,612 939,534 940,444 942,400 943,407 945,443 946,381 948,368 949,387 951,384 952,386 954,494 956,421 957,501 959,440 960,456 962,484 963,518 965,448 966,418 968,451 969,456 971,399 972,380 974,403 975,399 977,382 978,414 980,497 981,481 983,537 984,527 986,461 987,444 989,543 990,454 992,491 993,515 995,518 996,554 998,514 999,537 1001,580 1003,549 1004,580 1004,537 1004,514 1004,554 1004,518 1004,515 1004,491 1004,454 1004,543 1004,444 1004,461 1004,527 1004,537 1004,481 1004,497 1004,414 1004,382 1004,399 1004,403 1004,380 1004,399 1004,456 1004,451 1004,418 1004,448 1004,518 1004,484 1004,456 1004,440 1004,501 1004,421 1004,494 1004,386 1004,384 1004,387 1004,368 1004,381 1004,443 1004,407 1004,400 1004,444 1004,534 1004,612 1004,596 1004,530 1004,477 1004,501 1004,473 1004,607 1004,453 1004,424 1004,506 1004,416 1004,419 1004,398 1004,386 1004,420 1004,532 1004,497 1004,426 1004,395 1004,420 1004,499 1004,484 1004,443 1004,393 1004,390 1004,430 1004,438 1004,401 1004,414 1004,422 1004,398 1004,402 1004,408 1004,422 1004,445 1004,373 1004,360 1004,377 1004,390 1004,387 1004,409 1004,586 1004,509 1004,502 1004,455 1004,480 1004,520 1004,552 1004,505 1004,579 1004,515 1004,475 1004,450 1004,421 1004,437 1004,414 1004,536 1004,515 1004,504 1004,410 1004,417 1004,397 1004,381 1004,458 1004,415 1004,470 1004,498 1004,495 1004,461 1004,410 1004,399 1004,389 1004,391 1004,437 1004,518 1004,482 1004,459 1004,500 1004,373 1004,371 1004,381 1004,351 1004,360 1004,386 1004,436 1004,385 1004,491 1004,390 1004,425 1004,476 1004,473 1004,374 1004,349 1004,374 1004,475 1004,427 1004,429 1004,505 1004,519 1004,485 1004,489 1004,569 1004,490 1004,425 1004,383 1004,393 1004,466 1004,445 1004,482 1004,482 1004,503 1004,474 1004,509 1004,525 1004,494 1004,456 1004,547 1004,473 1004,551 1004,490 1004,466 1004,441 1004,376 1004,355 1004,372 1004,472 1004,463 1004,506 1004,462 1004,409 1004,464 1004,367 1004,364 1004,384 1004,428 1004,468 1004,443 1004,464 1004,409 1004,428 1004,362 1004,376 1004,399 1004,375 1004,384 1004,438 1004,369 1004,347 1004,377 1004,464 1004,410 1004,443 1004,472 1004,463 1004,504 1004,454 1004,394 1004,399 1004,363 1004,361 1004,419 1004,437 1004,450 1004,484 1004,482 1004,475 1004,493 1004,375 1004,370 1004,369 1004,386 1004,392 1004,400 1004,431 1004,353 1004,359 1004,397 1004,379 1004,375 1004,405 1004,359 1004,379 1004,366 1004,338 1004,318 1004,327 1004,383 1004,439 1004,372 1004,345 1004,374 1004,440 1004,386 1004,386 1004,338 1004,333 1004,362 1004,390 1004,327 1004,328 1004,374 1004,340 1004,381 1004,428 1004,347 1004,345 1004,387 1004,368 1004,357 1004,351 1004,376 1004,354 1004,349 1004,325 1004,372 1004,349 1004,489 1004,316 1004,341 1004,316 1004,326 1004,374 1004,415 1004,326 1004,312 1004,350 1004,367 1004,342 1004,307 1004,302 1004,319 1004,445 1004,357 1004,363 1004,409 1004,364 1004,392 1004,369 1004,349 1004,408 1004,357 1004,462 1004,315 1004,285 1004,289 1004,302 1004,298 1004,299 1004,310 1004,328 1004,324 1004,307 1004,300 1004,302 1004,309 1004,299 1004,275 1004,280 1004,310 1004,299 1004,287 1004,305 1004,468 1004,359 1004,339 1004,289 1004,279 1004,291 1004,282 1004,260 1004,259 1004,274 1004,273 1004,268 1004,289 1004,343 1004,367 1004,289 1004,288 1004,327 1004,287 1004,320 1004,392 1004,366 1004,339 1004,358 1004,394 1004,363 1004,376 1004,324 1004,278 1004,267 1004,273 1004,274 1004,278 1004,301 1004,294 1004,274 1004,275 1004,263 1004,247 1004,239 1004,244 1004,262 1004,272 1004,294 1004,284 1004,263 1004,330 1004,260 1004,256 1004,297 1004,334 1004,309 1004,311 1004,337 1004,325 1004,268 1004,306 1004,266 1004,268 1004,297 1004,274 1004,261 1004,266 1004,262 1004,289 1004,301 1004,267 1004,256 1004,317 1004,269 1004,272 1004,298 1004,319 1004,408 1004,296 1004,309 1004,275 1004,294 1004,283 1004,283 1004,280 1004,240 1004,257 1004,278 1004,265 1004,408 1004,318 1004,254 1004,242 1004,258 1004,262 1004,296 1004,291 1004,251 1004,227 1004,266 1004,269 1004,249 1004,255 1004,249 1004,254 1004,283 1004,297 1004,298 1004,255 1004,240 1004,293 1004,253 1004,253 1004,234 1004,288 1004,264 1004,263 1004,240 1004,349 1004,266 1004,363 1004,240 1004,249 1004,212 1004,201 1004,246 1004,248 1004,249 1004,236 1004,221 1004,238 1004,319 1004,301 1004,265 1004,277 1004,217 1004,223 1004,312 1004,280 1004,257 1004,254 1004,236 1004,224 1004,229 1004,213 1004,205 1004,219 1004,261 1004,237 1004,208 1004,229 1004,253 1004,300 1004,243 1004,221 1004,208 1004,278 1004,228 1004,212 1004,195 1004,176 1004,208 1004,209 1004,181 1004,176 1004,195 1004,190 1004,175 1004,196 1004,216 1004,182 1004,189 1004,209 1004,210 1004,204 1004,210 1004,227 1004,237 1004,246 1004,271 1004,224 1004,263 1004,269 1004,249 1004,255 1004,314 1004,273 1004,229 1004,246 1004,285 1004,231 1004,219 1004,226 1004,251 1004,197 1004,206 1004,226 1004,210 1004,252 1004,216 1004,199 1004,193 1004,234 1004,323 1004,222 1004,231 1004,224 1004,227 1004,228 1004,194 1004,202 1004,267 1004,234 1004,193 1004,210 1004,349 1004,269 1004,362 1004,186 1004,155 1004,160 1004,183 1004,174 1004,160 1004,157 1004,181 1004,220 1004,184 1004,181 1004,208 1004,214 1004,200 1004,199 1004,263 1004,207 1004,230 1004,241 1004,310 1004,224 1004,276 1004,262 1004,245 1004,278 1004,209 1004,199 1004,218 1004,226 1004,199 1004,208 1004,293 1004,197 1004,190 1004,286 1004,247 1004,206 1004,201 1004,197 1004,203 1004,251 1004,198 1004,188 1004,248 1004,182 1004,190 1004,229 1004,272 1004,239 1004,237 1004,276 1004,467 1004,270 1004,281 1004,276 1004,272 1004,300 "/>
<polyline fill="none" opacity="1" stroke="#3CB44B" stroke-width="1" points="130,310 131,310 133,310 134,309 136,309 137,308 139,307 140,306 142,305 143,303 145,302 146,300 148,299 149,297 151,295 152,294 154,292 155,290 157,289 158,287 160,286 161,285 163,284 164,283 166,282 167,282 169,281 170,281 172,281 173,281 175,281 176,281 178,281 180,282 181,282 183,282 184,283 186,283 187,283 189,284 190,284 192,284 193,284 195,284 196,284 198,283 199,283 201,283 202,282 204,282 205,281 207,281 208,280 210,280 211,279 213,279 214,278 216,278 217,278 219,278 220,278 222,278 223,278 225,279 227,280 228,280 230,281 231,282 233,284 234,285 236,286 237,288 239,289 240,290 242,292 243,293 245,294 246,295 248,296 249,297 251,298 252,298 254,299 255,299 257,299 258,299 260,299 261,298 263,297 264,297 266,296 267,294 269,293 270,292 272,290 273,289 275,287 277,286 278,284 280,283 281,281 283,280 284,279 286,278 287,277 289,276 290,276 292,276 293,276 295,276 296,276 298,277 299,278 301,279 302,280 304,282 305,283 307,285 308,287 310,288 311,290 313,292 314,293 316,295 317,296 319,298 320,299 322,300 324,301 325,302 327,303 328,304 330,305 331,305 333,306 334,306 336,307 337,307 339,307 340,307 342,307 343,307 345,307 346,307 348,308 349,308 351,308 352,308 354,308 355,308 357,308 358,309 360,309 361,309 363,310 364,310 366,310 367,311 369,311 370,312 372,312 374,313 375,313 377,313 378,314 380,314 381,314 383,315 384,315 386,315 387,315 389,315 390,315 392,316 393,316 395,316 396,316 398,316 399,316 401,317 402,317 404,317 405,318 407,318 408,319 410,319 411,320 413,321 414,321 416,322 417,323 419,324 421,324 422,325 424,326 425,327 427,327 428,328 430,328 431,329 433,329 434,329 436,330 437,330 439,330 440,329 442,329 443,328 445,328 446,327 448,327 449,326 451,325 452,324 454,323 455,322 457,321 458,320 460,320 461,319 463,318 464,318 466,318 467,318 469,318 471,318 472,319 474,319 475,320 477,321 478,322 480,324 481,325 483,327 484,328 486,330 487,332 489,333 490,335 492,337 493,338 495,339 496,341 498,342 499,343 501,344 502,344 504,345 505,345 507,345 508,345 510,345 511,344 513,344 514,343 516,342 518,341 519,340 521,339 522,338 524,337 525,336 527,335 528,334 530,333 531,332 533,331 534,331 536,331 537,331 539,331 540,332 542,332 543,333 545,334 546,335 548,337 549,338 551,340 552,342 554,344 555,345 557,347 558,349 560,351 561,353 563,354 564,356 566,357 568,358 569,360 571,361 572,361 574,362 575,363 577,363 578,363 580,363 581,363 583,363 584,363 586,363 587,363 589,362 590,362 592,362 593,361 595,361 596,361 598,360 599,360 601,360 602,360 604,360 605,360 607,360 608,361 610,361 611,361 613,362 615,362 616,363 618,363 619,364 621,364 622,364 624,365 625,365 627,366 628,366 630,366 631,366 633,366 634,366 636,366 637,366 639,366 640,366 642,366 643,365 645,365 646,365 648,365 649,365 651,366 652,366 654,366 655,367 657,367 658,368 660,369 661,370 663,371 665,373 666,374 668,375 669,377 671,379 672,380 674,382 675,384 677,385 678,387 680,388 681,390 683,391 684,392 686,393 687,394 689,395 690,396 692,396 693,396 695,396 696,396 698,396 699,395 701,394 702,394 704,393 705,392 707,390 708,389 710,388 712,387 713,386 715,385 716,383 718,383 719,382 721,381 722,381 724,381 725,381 727,381 728,381 730,382 731,383 733,384 734,386 736,387 737,389 739,391 740,393 742,395 743,397 745,399 746,401 748,403 749,405 751,407 752,409 754,411 755,412 757,414 758,415 760,416 762,417 763,417 765,418 766,418 768,418 769,418 771,417 772,417 774,416 775,415 777,414 778,412 780,411 781,409 783,407 784,405 786,404 787,402 789,400 790,398 792,396 793,394 795,392 796,390 798,388 799,386 801,385 802,383 804,382 805,381 807,380 809,379 810,379 812,379 813,379 815,379 816,379 818,379 819,380 821,381 822,382 824,383 825,384 827,386 828,387 830,389 831,391 833,393 834,394 836,396 837,398 839,400 840,402 842,403 843,405 845,407 846,408 848,409 849,410 851,411 852,412 854,413 855,413 857,413 859,413 860,413 862,413 863,412 865,411 866,410 868,409 869,407 871,405 872,404 874,402 875,400 877,398 878,395 880,393 881,391 883,389 884,387 886,385 887,383 889,381 890,380 892,379 893,378 895,378 896,378 898,378 899,379 901,379 902,381 904,382 906,384 907,386 909,388 910,390 912,393 913,395 915,398 916,400 918,402 919,405 921,407 922,409 924,411 925,412 927,413 928,414 930,415 931,415 933,415 934,415 936,414 937,413 939,412 940,411 942,409 943,407 945,405 946,402 948,400 949,397 951,395 952,392 954,390 956,388 957,386 959,384 960,383 962,382 963,381 965,381 966,382 968,382 969,384 971,385 972,388 974,390 975,393 977,396 978,400 980,403 981,407 983,410 984,414 986,418 987,421 989,424 990,428 992,430 993,433 995,435 996,437 998,438 999,439 1001,440 1003,440 1004,440 1004,439 1004,438 1004,437 1004,435 1004,433 1004,430 1004,428 1004,424 1004,421 1004,418 1004,414 1004,410 1004,407 1004,403 1004,400 1004,396 1004,393 1004,390 1004,388 1004,385 1004,384 1004,382 1004,382 1004,381 1004,381 1004,382 1004,383 1004,384 1004,386 1004,388 1004,390 1004,392 1004,395 1004,397 1004,400 1004,402 1004,405 1004,407 1004,409 1004,411 1004,412 1004,413 1004,414 1004,415 1004,415 1004,415 1004,415 1004,414 1004,413 1004,412 1004,411 1004,409 1004,407 1004,405 1004,402 1004,400 1004,398 1004,395 1004,393 1004,390 1004,388 1004,386 1004,384 1004,382 1004,381 1004,379 1004,379 1004,378 1004,378 1004,378 1004,378 1004,379 1004,380 1004,381 1004,383 1004,385 1004,387 1004,389 1004,391 1004,393 1004,395 1004,398 1004,400 1004,402 1004,404 1004,405 1004,407 1004,409 1004,410 1004,411 1004,412 1004,413 1004,413 1004,413 1004,413 1004,413 1004,413 1004,412 1004,411 1004,410 1004,409 1004,408 1004,407 1004,405 1004,403 1004,402 1004,400 1004,398 1004,396 1004,394 1004,393 1004,391 1004,389 1004,387 1004,386 1004,384 1004,383 1004,382 1004,381 1004,380 1004,379 1004,379 1004,379 1004,379 1004,379 1004,379 1004,379 1004,380 1004,381 1004,382 1004,383 1004,385 1004,386 1004,388 1004,390 1004,392 1004,394 1004,396 1004,398 1004,400 1004,402 1004,404 1004,405 1004,407 1004,409 1004,411 1004,412 1004,414 1004,415 1004,416 1004,417 1004,417 1004,418 1004,418 1004,418 1004,418 1004,417 1004,417 1004,416 1004,415 1004,414 1004,412 1004,411 1004,409 1004,407 1004,405 1004,403 1004,401 1004,399 1004,397 1004,395 1004,393 1004,391 1004,389 1004,387 1004,386 1004,384 1004,383 1004,382 1004,381 1004,381 1004,381 1004,381 1004,381 1004,381 1004,382 1004,383 1004,383 1004,385 1004,386 1004,387 1004,388 1004,389 1004,390 1004,392 1004,393 1004,394 1004,394 1004,395 1004,396 1004,396 1004,396 1004,396 1004,396 1004,396 1004,395 1004,394 1004,393 1004,392 1004,391 1004,390 1004,388 1004,387 1004,385 1004,384 1004,382 1004,380 1004,379 1004,377 1004,375 1004,374 1004,373 1004,371 1004,370 1004,369 1004,368 1004,367 1004,367 1004,366 1004,366 1004,366 1004,365 1004,365 1004,365 1004,365 1004,365 1004,366 1004,366 1004,366 1004,366 1004,366 1004,366 1004,366 1004,366 1004,366 1004,366 1004,366 1004,365 1004,365 1004,364 1004,364 1004,364 1004,363 1004,363 1004,362 1004,362 1004,361 1004,361 1004,361 1004,360 1004,360 1004,360 1004,360 1004,360 1004,360 1004,360 1004,361 1004,361 1004,361 1004,362 1004,362 1004,362 1004,363 1004,363 1004,363 1004,363 1004,363 1004,363 1004,363 1004,363 1004,363 1004,362 1004,361 1004,361 1004,360 1004,358 1004,357 1004,356 1004,354 1004,353 1004,351 1004,349 1004,347 1004,345 1004,344 1004,342 1004,340 1004,338 1004,337 1004,335 1004,334 1004,333 1004,332 1004,332 1004,331 1004,331 1004,331 1004,331 1004,331 1004,332 1004,333 1004,334 1004,335 1004,336 1004,337 1004,338 1004,339 1004,340 1004,341 1004,342 1004,343 1004,344 1004,344 1004,345 1004,345 1004,345 1004,345 1004,345 1004,344 1004,344 1004,343 1004,342 1004,341 1004,339 1004,338 1004,337 1004,335 1004,333 1004,332 1004,330 1004,328 1004,327 1004,325 1004,324 1004,322 1004,321 1004,320 1004,319 1004,319 1004,318 1004,318 1004,318 1004,318 1004,318 1004,318 1004,319 1004,320 1004,320 1004,321 1004,322 1004,323 1004,324 1004,325 1004,326 1004,327 1004,327 1004,328 1004,328 1004,329 1004,329 1004,330 1004,330 1004,330 1004,329 1004,329 1004,329 1004,328 1004,328 1004,327 1004,327 1004,326 1004,325 1004,324 1004,324 1004,323 1004,322 1004,321 1004,321 1004,320 1004,319 1004,319 1004,318 1004,318 1004,317 1004,317 1004,317 1004,316 1004,316 1004,316 1004,316 1004,316 1004,316 1004,315 1004,315 1004,315 1004,315 1004,315 1004,315 1004,314 1004,314 1004,314 1004,313 1004,313 1004,313 1004,312 1004,312 1004,311 1004,311 1004,310 1004,310 1004,310 1004,309 1004,309 1004,309 1004,308 1004,308 1004,308 1004,308 1004,308 1004,308 1004,308 1004,307 1004,307 1004,307 1004,307 1004,307 1004,307 1004,307 1004,307 1004,306 1004,306 1004,305 1004,305 1004,304 1004,303 1004,302 1004,301 1004,300 1004,299 1004,298 1004,296 1004,295 1004,293 1004,292 1004,290 1004,288 1004,287 1004,285 1004,283 1004,282 1004,280 1004,279 1004,278 1004,277 1004,276 1004,276 1004,276 1004,276 1004,276 1004,276 1004,277 1004,278 1004,279 1004,280 1004,281 1004,283 1004,284 1004,286 1004,287 1004,289 1004,290 1004,292 1004,293 1004,294 1004,296 1004,297 1004,297 1004,298 1004,299 1004,299 1004,299 1004,299 1004,299 1004,298 1004,298 1004,297 1004,296 1004,295 1004,294 1004,293 1004,292 1004,290 1004,289 1004,288 1004,286 1004,285 1004,284 1004,282 1004,281 1004,280 1004,280 1004,279 1004,278 1004,278 1004,278 1004,278 1004,278 1004,278 1004,278 1004,279 1004,279 1004,280 1004,280 1004,281 1004,281 1004,282 1004,282 1004,283 1004,283 1004,283 1004,284 1004,284 1004,284 1004,284 1004,284 1004,284 1004,283 1004,283 1004,283 1004,282 1004,282 1004,282 1004,281 1004,281 1004,281 1004,281 1004,281 1004,281 1004,281 1004,282 1004,282 1004,283 1004,284 1004,285 1004,286 1004,287 1004,289 1004,290 1004,292 1004,294 1004,295 1004,297 1004,299 1004,300 1004,302 1004,303 1004,305 1004,306 1004,307 1004,308 1004,309 1004,309 1004,310 1004,310 "/>
<polyline fill="none" opacity="1" stroke="#FFE119" stroke-width="1" points="130,466 131,466 133,466 134,466 136,466 137,466 139,466 140,466 142,466 143,466 145,467 146,467 148,467 149,467 151,467 152,467 154,467 155,467 157,467 158,467 160,467 161,467 163,467 164,467 166,467 167,467 169,467 170,467 172,467 173,467 175,466 176,466 178,466 180,466 181,466 183,466 184,466 186,466 187,466 189,466 190,466 192,466 193,467 195,467 196,467 198,467 199,467 201,467 202,467 204,467 205,468 207,468 208,468 210,468 211,468 213,468 214,468 216,468 217,468 219,468 220,468 222,468 223,468 225,468 227,468 228,468 230,468 231,468 233,468 234,468 236,468 237,468 239,468 240,468 242,468 243,468 245,468 246,468 248,468 249,468 251,468 252,468 254,468 255,468 257,468 258,468 260,468 261,468 263,468 264,468 266,468 267,467 269,467 270,467 272,467 273,467 275,467 277,467 278,467 280,467 281,467 283,467 284,467 286,467 287,467 289,467 290,468 292,468 293,468 295,468 296,468 298,469 299,469 301,469 302,469 304,469 305,470 307,470 308,470 310,470 311,470 313,470 314,471 316,471 317,471 319,471 320,471 322,471 324,471 325,471 327,471 328,471 330,471 331,471 333,470 334,470 336,470 337,470 339,470 340,470 342,470 343,470 345,470 346,470 348,471 349,471 351,471 352,471 354,471 355,471 357,471 358,471 360,472 361,472 363,472 364,472 366,472 367,472 369,472 370,472 372,472 374,472 375,472 377,472 378,472 380,472 381,472 383,472 384,472 386,472 387,472 389,472 390,472 392,473 393,473 395,473 396,473 398,473 399,473 401,473 402,473 404,473 405,474 407,474 408,474 410,474 411,474 413,475 414,475 416,475 417,475 419,475 421,476 422,476 424,476 425,476 427,476 428,476 430,476 431,477 433,477 434,477 436,477 437,477 439,477 440,477 442,477 443,477 445,477 446,477 448,477 449,477 451,477 452,477 454,477 455,477 457,477 458,477 460,477 461,477 463,477 464,477 466,477 467,477 469,477 471,477 472,477 474,477 475,477 477,476 478,476 480,476 481,476 483,476 484,476 486,476 487,476 489,476 490,476 492,476 493,476 495,476 496,476 498,476 499,476 501,477 502,477 504,477 505,478 507,478 508,479 510,479 511,480 513,480 514,481 516,481 518,482 519,482 521,482 522,483 524,483 525,483 527,484 528,484 530,484 531,484 533,485 534,485 536,485 537,485 539,485 540,485 542,485 543,485 545,485 546,486 548,486 549,486 551,486 552,487 554,487 555,487 557,488 558,488 560,489 561,489 563,490 564,490 566,491 568,492 569,492 571,493 572,494 574,494 575,495 577,496 578,497 580,497 581,498 583,499 584,499 586,500 587,501 589,502 590,502 592,503 593,504 595,505 596,506 598,507 599,508 601,509 602,510 604,511 605,512 607,513 608,514 610,516 611,517 613,518 615,519 616,520 618,521 619,522 621,523 622,524 624,524 625,525 627,526 628,526 630,526 631,527 633,527 634,527 636,527 637,527 639,527 640,526 642,526 643,526 645,525 646,524 648,524 649,523 651,522 652,522 654,521 655,520 657,520 658,520 660,520 661,520 663,520 665,521 666,522 668,523 669,525 671,527 672,528 674,531 675,533 677,535 678,538 680,540 681,543 683,545 684,547 686,550 687,552 689,554 690,556 692,558 693,560 695,562 696,563 698,565 699,566 701,567 702,569 704,570 705,571 707,572 708,573 710,573 712,574 713,575 715,575 716,576 718,577 719,577 721,578 722,578 724,579 725,580 727,580 728,581 730,582 731,583 733,584 734,585 736,586 737,587 739,589 740,590 742,591 743,593 745,594 746,596 748,597 749,599 751,600 752,602 754,603 755,604 757,605 758,607 760,608 762,609 763,609 765,610 766,611 768,611 769,611 771,612 772,612 774,612 775,611 777,611 778,610 780,609 781,608 783,607 784,606 786,604 787,602 789,600 790,598 792,595 793,592 795,589 796,585 798,581 799,577 801,573 802,568 804,563 805,558 807,553 809,549 810,545 812,544 813,544 815,546 816,549 818,554 819,559 821,565 822,571 824,576 825,582 827,587 828,591 830,596 831,600 833,603 834,607 836,610 837,613 839,615 840,617 842,619 843,621 845,622 846,623 848,624 849,624 851,625 852,625 854,625 855,624 857,624 859,623 860,622 862,620 863,618 865,616 866,614 868,611 869,608 871,604 872,601 874,596 875,592 877,587 878,581 880,576 881,570 883,565 884,560 886,558 887,557 889,558 890,561 892,566 893,572 895,578 896,584 898,590 899,596 901,601 902,606 904,610 906,614 907,618 909,621 910,624 912,626 913,629 915,630 916,632 918,633 919,634 921,635 922,635 924,636 925,635 927,635 928,634 930,633 931,632 933,630 934,628 936,625 937,622 939,619 940,615 942,611 943,607 945,602 946,597 948,591 949,586 951,582 952,580 954,579 956,581 957,584 959,590 960,596 962,603 963,610 965,617 966,623 968,630 969,635 971,640 972,645 974,650 975,654 977,658 978,658 980,658 981,658 983,658 984,658 986,658 987,658 989,658 990,658 992,658 993,658 995,658 996,658 998,658 999,658 1001,658 1003,658 1004,658 1004,658 1004,658 1004,658 1004,658 1004,658 1004,658 1004,658 1004,658 1004,658 1004,658 1004,658 1004,658 1004,658 1004,658 1004,658 1004,658 1004,654 1004,650 1004,645 1004,640 1004,635 1004,630 1004,623 1004,617 1004,610 1004,603 1004,596 1004,590 1004,584 1004,581 1004,579 1004,580 1004,582 1004,586 1004,591 1004,597 1004,602 1004,607 1004,611 1004,615 1004,619 1004,622 1004,625 1004,628 1004,630 1004,632 1004,633 1004,634 1004,635 1004,635 1004,636 1004,635 1004,635 1004,634 1004,633 1004,632 1004,630 1004,629 1004,626 1004,624 1004,621 1004,618 1004,614 1004,610 1004,606 1004,601 1004,596 1004,590 1004,584 1004,578 1004,572 1004,566 1004,561 1004,558 1004,557 1004,558 1004,560 1004,565 1004,570 1004,576 1004,581 1004,587 1004,592 1004,596 1004,601 1004,604 1004,608 1004,611 1004,614 1004,616 1004,618 1004,620 1004,622 1004,623 1004,624 1004,624 1004,625 1004,625 1004,625 1004,624 1004,624 1004,623 1004,622 1004,621 1004,619 1004,617 1004,615 1004,613 1004,610 1004,607 1004,603 1004,600 1004,596 1004,591 1004,587 1004,582 1004,576 1004,571 1004,565 1004,559 1004,554 1004,549 1004,546 1004,544 1004,544 1004,545 1004,549 1004,553 1004,558 1004,563 1004,568 1004,573 1004,577 1004,581 1004,585 1004,589 1004,592 1004,595 1004,598 1004,600 1004,602 1004,604 1004,606 1004,607 1004,608 1004,609 1004,610 1004,611 1004,611 1004,612 1004,612 1004,612 1004,611 1004,611 1004,611 1004,610 1004,609 1004,609 1004,608 1004,607 1004,605 1004,604 1004,603 1004,602 1004,600 1004,599 1004,597 1004,596 1004,594 1004,593 1004,591 1004,590 1004,589 1004,587 1004,586 1004,585 1004,584 1004,583 1004,582 1004,581 1004,580 1004,580 1004,579 1004,578 1004,578 1004,577 1004,577 1004,576 1004,575 1004,575 1004,574 1004,573 1004,573 1004,572 1004,571 1004,570 1004,569 1004,567 1004,566 1004,565 1004,563 1004,562 1004,560 1004,558 1004,556 1004,554 1004,552 1004,550 1004,547 1004,545 1004,543 1004,540 1004,538 1004,535 1004,533 1004,531 1004,528 1004,527 1004,525 1004,523 1004,522 1004,521 1004,520 1004,520 1004,520 1004,520 1004,520 1004,520 1004,521 1004,522 1004,522 1004,523 1004,524 1004,524 1004,525 1004,526 1004,526 1004,526 1004,527 1004,527 1004,527 1004,527 1004,527 1004,527 1004,526 1004,526 1004,526 1004,525 1004,524 1004,524 1004,523 1004,522 1004,521 1004,520 1004,519 1004,518 1004,517 1004,516 1004,514 1004,513 1004,512 1004,511 1004,510 1004,509 1004,508 1004,507 1004,506 1004,505 1004,504 1004,503 1004,502 1004,502 1004,501 1004,500 1004,499 1004,499 1004,498 1004,497 1004,497 1004,496 1004,495 1004,494 1004,494 1004,493 1004,492 1004,492 1004,491 1004,490 1004,490 1004,489 1004,489 1004,488 1004,488 1004,487 1004,487 1004,487 1004,486 1004,486 1004,486 1004,486 1004,485 1004,485 1004,485 1004,485 1004,485 1004,485 1004,485 1004,485 1004,485 1004,484 1004,484 1004,484 1004,484 1004,483 1004,483 1004,483 1004,482 1004,482 1004,482 1004,481 1004,481 1004,480 1004,480 1004,479 1004,479 1004,478 1004,478 1004,477 1004,477 1004,477 1004,476 1004,476 1004,476 1004,476 1004,476 1004,476 1004,476 1004,476 1004,476 1004,476 1004,476 1004,476 1004,476 1004,476 1004,476 1004,476 1004,477 1004,477 1004,477 1004,477 1004,477 1004,477 1004,477 1004,477 1004,477 1004,477 1004,477 1004,477 1004,477 1004,477 1004,477 1004,477 1004,477 1004,477 1004,477 1004,477 1004,477 1004,477 1004,477 1004,477 1004,477 1004,477 1004,477 1004,477 1004,477 1004,477 1004,476 1004,476 1004,476 1004,476 1004,476 1004,476 1004,476 1004,475 1004,475 1004,475 1004,475 1004,475 1004,474 1004,474 1004,474 1004,474 1004,474 1004,473 1004,473 1004,473 1004,473 1004,473 1004,473 1004,473 1004,473 1004,473 1004,472 1004,472 1004,472 1004,472 1004,472 1004,472 1004,472 1004,472 1004,472 1004,472 1004,472 1004,472 1004,472 1004,472 1004,472 1004,472 1004,472 1004,472 1004,472 1004,472 1004,472 1004,471 1004,471 1004,471 1004,471 1004,471 1004,471 1004,471 1004,471 1004,470 1004,470 1004,470 1004,470 1004,470 1004,470 1004,470 1004,470 1004,470 1004,470 1004,471 1004,471 1004,471 1004,471 1004,471 1004,471 1004,471 1004,471 1004,471 1004,471 1004,471 1004,471 1004,470 1004,470 1004,470 1004,470 1004,470 1004,470 1004,469 1004,469 1004,469 1004,469 1004,469 1004,468 1004,468 1004,468 1004,468 1004,468 1004,467 1004,467 1004,467 1004,467 1004,467 1004,467 1004,467 1004,467 1004,467 1004,467 1004,467 1004,467 1004,467 1004,467 1004,467 1004,468 1004,468 1004,468 1004,468 1004,468 1004,468 1004,468 1004,468 1004,468 1004,468 1004,468 1004,468 1004,468 1004,468 1004,468 1004,468 1004,468 1004,468 1004,468 1004,468 1004,468 1004,468 1004,468 1004,468 1004,468 1004,468 1004,468 1004,468 1004,468 1004,468 1004,468 1004,468 1004,468 1004,468 1004,468 1004,468 1004,468 1004,468 1004,468 1004,468 1004,468 1004,467 1004,467 1004,467 1004,467 1004,467 1004,467 1004,467 1004,467 1004,466 1004,466 1004,466 1004,466 1004,466 1004,466 1004,466 1004,466 1004,466 1004,466 1004,466 1004,466 1004,467 1004,467 1004,467 1004,467 1004,467 1004,467 1004,467 1004,467 1004,467 1004,467 1004,467 1004,467 1004,467 1004,467 1004,467 1004,467 1004,467 1004,467 1004,467 1004,467 1004,466 1004,466 1004,466 1004,466 1004,466 1004,466 1004,466 1004,466 1004,466 "/>
<polyline fill="none" opacity="1" stroke="#0082C8" stroke-width="1" points="130,225 131,225 133,225 134,225 136,225 137,225 139,225 140,226 142,226 143,226 145,226 146,226 148,226 149,226 151,226 152,226 154,227 155,227 157,227 158,227 160,227 161,227 163,227 164,226 166,226 167,226 169,226 170,226 172,226 173,226 175,226 176,226 178,226 180,226 181,226 183,226 184,226 186,226 187,226 189,226 190,226 192,226 193,226 195,226 196,226 198,226 199,226 201,227 202,227 204,227 205,227 207,227 208,227 210,227 211,227 213,227 214,228 216,228 217,228 219,228 220,228 222,228 223,228 225,228 227,228 228,228 230,228 231,228 233,228 234,228 236,227 237,227 239,227 240,227 242,227 243,227 245,227 246,227 248,227 249,227 251,227 252,227 254,227 255,227 257,227 258,227 260,227 261,227 263,227 264,227 266,227 267,227 269,227 270,227 272,227 273,227 275,227 277,226 278,226 280,226 281,226 283,226 284,227 286,227 287,227 289,227 290,227 292,227 293,227 295,228 296,228 298,228 299,228 301,228 302,229 304,229 305,229 307,229 308,229 310,230 311,230 313,230 314,230 316,230 317,230 319,230 320,230 322,230 324,230 325,230 327,230 328,230 330,230 331,230 333,230 334,230 336,230 337,230 339,230 340,230 342,230 343,230 345,230 346,230 348,230 349,230 351,230 352,230 354,230 355,231 357,231 358,231 360,231 361,231 363,231 364,231 366,231 367,232 369,232 370,232 372,232 374,232 375,232 377,232 378,232 380,232 381,232 383,232 384,232 386,232 387,232 389,232 390,232 392,232 393,232 395,232 396,232 398,232 399,232 401,233 402,233 404,233 405,233 407,233 408,233 410,234 411,234 413,234 414,234 416,235 417,235 419,235 421,235 422,235 424,235 425,236 427,236 428,236 430,236 431,236 433,236 434,236 436,236 437,236 439,236 440,236 442,236 443,236 445,236 446,237 448,237 449,237 451,237 452,237 454,237 455,237 457,237 458,237 460,237 461,237 463,237 464,237 466,237 467,237 469,236 471,236 472,236 474,236 475,236 477,236 478,236 480,236 481,235 483,235 484,235 486,235 487,235 489,235 490,235 492,235 493,235 495,235 496,235 498,236 499,236 501,236 502,236 504,237 505,237 507,238 508,238 510,239 511,239 513,240 514,240 516,241 518,241 519,241 521,242 522,242 524,243 525,243 527,243 528,243 530,244 531,244 533,244 534,244 536,244 537,244 539,244 540,244 542,245 543,245 545,245 546,245 548,245 549,245 551,246 552,246 554,246 555,247 557,247 558,248 560,248 561,249 563,249 564,250 566,251 568,251 569,252 571,252 572,253 574,254 575,255 577,255 578,256 580,257 581,257 583,258 584,259 586,260 587,260 589,261 590,262 592,263 593,264 595,264 596,265 598,266 599,267 601,268 602,269 604,270 605,272 607,273 608,274 610,275 611,276 613,277 615,278 616,279 618,280 619,281 621,282 622,283 624,284 625,284 627,285 628,285 630,286 631,286 633,286 634,287 636,286 637,286 639,286 640,286 642,285 643,285 645,284 646,284 648,283 649,282 651,282 652,281 654,280 655,280 657,279 658,279 660,279 661,279 663,280 665,280 666,281 668,283 669,284 671,286 672,288 674,290 675,292 677,295 678,297 680,299 681,302 683,304 684,307 686,309 687,311 689,313 690,315 692,317 693,319 695,321 696,323 698,324 699,326 701,327 702,328 704,329 705,330 707,331 708,332 710,333 712,333 713,334 715,335 716,335 718,336 719,336 721,337 722,338 724,338 725,339 727,340 728,340 730,341 731,342 733,343 734,344 736,345 737,347 739,348 740,349 742,351 743,352 745,354 746,355 748,357 749,358 751,360 752,361 754,362 755,364 757,365 758,366 760,367 762,368 763,369 765,369 766,370 768,371 769,371 771,371 772,371 774,371 775,371 777,370 778,370 780,369 781,368 783,367 784,365 786,364 787,362 789,360 790,357 792,355 793,352 795,348 796,345 798,341 799,337 801,332 802,327 804,322 805,317 807,312 809,308 810,305 812,303 813,303 815,305 816,309 818,313 819,319 821,325 822,330 824,336 825,341 827,346 828,351 830,355 831,359 833,363 834,366 836,369 837,372 839,374 840,377 842,378 843,380 845,381 846,382 848,383 849,384 851,384 852,384 854,384 855,384 857,383 859,382 860,381 862,379 863,378 865,376 866,373 868,370 869,367 871,364 872,360 874,356 875,351 877,346 878,341 880,335 881,329 883,324 884,320 886,317 887,316 889,317 890,321 892,326 893,331 895,338 896,344 898,350 899,355 901,360 902,365 904,369 906,373 907,377 909,380 910,383 912,386 913,388 915,390 916,391 918,393 919,394 921,394 922,395 924,395 925,395 927,394 928,393 930,392 931,391 933,389 934,387 936,385 937,382 939,378 940,375 942,371 943,366 945,361 946,356 948,351 949,346 951,342 952,339 954,338 956,340 957,344 959,349 960,356 962,363 963,370 965,376 966,383 968,389 969,395 971,400 972,405 974,409 975,414 977,417 978,421 980,424 981,427 983,430 984,432 986,435 987,437 989,439 990,440 992,442 993,443 995,444 996,445 998,445 999,446 1001,446 1003,446 1004,446 1004,446 1004,445 1004,445 1004,444 1004,443 1004,442 1004,440 1004,439 1004,437 1004,435 1004,432 1004,430 1004,427 1004,424 1004,421 1004,417 1004,414 1004,409 1004,405 1004,400 1004,395 1004,389 1004,383 1004,376 1004,370 1004,363 1004,356 1004,349 1004,344 1004,340 1004,338 1004,339 1004,342 1004,346 1004,351 1004,356 1004,361 1004,366 1004,371 1004,375 1004,378 1004,382 1004,385 1004,387 1004,389 1004,391 1004,392 1004,393 1004,394 1004,395 1004,395 1004,395 1004,394 1004,394 1004,393 1004,391 1004,390 1004,388 1004,386 1004,383 1004,380 1004,377 1004,373 1004,369 1004,365 1004,360 1004,355 1004,350 1004,344 1004,338 1004,331 1004,326 1004,321 1004,317 1004,316 1004,317 1004,320 1004,324 1004,329 1004,335 1004,341 1004,346 1004,351 1004,356 1004,360 1004,364 1004,367 1004,370 1004,373 1004,376 1004,378 1004,379 1004,381 1004,382 1004,383 1004,384 1004,384 1004,384 1004,384 1004,384 1004,383 1004,382 1004,381 1004,380 1004,378 1004,377 1004,374 1004,372 1004,369 1004,366 1004,363 1004,359 1004,355 1004,351 1004,346 1004,341 1004,336 1004,330 1004,325 1004,319 1004,313 1004,309 1004,305 1004,303 1004,303 1004,305 1004,308 1004,312 1004,317 1004,322 1004,327 1004,332 1004,337 1004,341 1004,345 1004,348 1004,352 1004,355 1004,357 1004,360 1004,362 1004,364 1004,365 1004,367 1004,368 1004,369 1004,370 1004,370 1004,371 1004,371 1004,371 1004,371 1004,371 1004,371 1004,370 1004,369 1004,369 1004,368 1004,367 1004,366 1004,365 1004,364 1004,362 1004,361 1004,360 1004,358 1004,357 1004,355 1004,354 1004,352 1004,351 1004,349 1004,348 1004,347 1004,345 1004,344 1004,343 1004,342 1004,341 1004,340 1004,340 1004,339 1004,338 1004,338 1004,337 1004,336 1004,336 1004,335 1004,335 1004,334 1004,333 1004,333 1004,332 1004,331 1004,330 1004,329 1004,328 1004,327 1004,326 1004,324 1004,323 1004,321 1004,319 1004,317 1004,315 1004,313 1004,311 1004,309 1004,307 1004,304 1004,302 1004,299 1004,297 1004,295 1004,292 1004,290 1004,288 1004,286 1004,284 1004,283 1004,281 1004,280 1004,280 1004,279 1004,279 1004,279 1004,279 1004,280 1004,280 1004,281 1004,282 1004,282 1004,283 1004,284 1004,284 1004,285 1004,285 1004,286 1004,286 1004,286 1004,286 1004,287 1004,286 1004,286 1004,286 1004,285 1004,285 1004,284 1004,284 1004,283 1004,282 1004,281 1004,280 1004,279 1004,278 1004,277 1004,276 1004,275 1004,274 1004,273 1004,272 1004,270 1004,269 1004,268 1004,267 1004,266 1004,265 1004,264 1004,264 1004,263 1004,262 1004,261 1004,260 1004,260 1004,259 1004,258 1004,257 1004,257 1004,256 1004,255 1004,255 1004,254 1004,253 1004,252 1004,252 1004,251 1004,251 1004,250 1004,249 1004,249 1004,248 1004,248 1004,247 1004,247 1004,246 1004,246 1004,246 1004,245 1004,245 1004,245 1004,245 1004,245 1004,245 1004,244 1004,244 1004,244 1004,244 1004,244 1004,244 1004,244 1004,244 1004,243 1004,243 1004,243 1004,243 1004,242 1004,242 1004,241 1004,241 1004,241 1004,240 1004,240 1004,239 1004,239 1004,238 1004,238 1004,237 1004,237 1004,236 1004,236 1004,236 1004,236 1004,235 1004,235 1004,235 1004,235 1004,235 1004,235 1004,235 1004,235 1004,235 1004,235 1004,235 1004,236 1004,236 1004,236 1004,236 1004,236 1004,236 1004,236 1004,236 1004,237 1004,237 1004,237 1004,237 1004,237 1004,237 1004,237 1004,237 1004,237 1004,237 1004,237 1004,237 1004,237 1004,237 1004,237 1004,236 1004,236 1004,236 1004,236 1004,236 1004,236 1004,236 1004,236 1004,236 1004,236 1004,236 1004,236 1004,236 1004,236 1004,235 1004,235 1004,235 1004,235 1004,235 1004,235 1004,234 1004,234 1004,234 1004,234 1004,233 1004,233 1004,233 1004,233 1004,233 1004,233 1004,232 1004,232 1004,232 1004,232 1004,232 1004,232 1004,232 1004,232 1004,232 1004,232 1004,232 1004,232 1004,232 1004,232 1004,232 1004,232 1004,232 1004,232 1004,232 1004,232 1004,232 1004,232 1004,231 1004,231 1004,231 1004,231 1004,231 1004,231 1004,231 1004,231 1004,230 1004,230 1004,230 1004,230 1004,230 1004,230 1004,230 1004,230 1004,230 1004,230 1004,230 1004,230 1004,230 1004,230 1004,230 1004,230 1004,230 1004,230 1004,230 1004,230 1004,230 1004,230 1004,230 1004,230 1004,230 1004,230 1004,230 1004,230 1004,230 1004,230 1004,229 1004,229 1004,229 1004,229 1004,229 1004,228 1004,228 1004,228 1004,228 1004,228 1004,227 1004,227 1004,227 1004,227 1004,227 1004,227 1004,227 1004,226 1004,226 1004,226 1004,226 1004,226 1004,227 1004,227 1004,227 1004,227 1004,227 1004,227 1004,227 1004,227 1004,227 1004,227 1004,227 1004,227 1004,227 1004,227 1004,227 1004,227 1004,227 1004,227 1004,227 1004,227 1004,227 1004,227 1004,227 1004,227 1004,227 1004,227 1004,227 1004,228 1004,228 1004,228 1004,228 1004,228 1004,228 1004,228 1004,228 1004,228 1004,228 1004,228 1004,228 1004,228 1004,228 1004,227 1004,227 1004,227 1004,227 1004,227 1004,227 1004,227 1004,227 1004,227 1004,226 1004,226 1004,226 1004,226 1004,226 1004,226 1004,226 1004,226 1004,226 1004,226 1004,226 1004,226 1004,226 1004,226 1004,226 1004,226 1004,226 1004,226 1004,226 1004,226 1004,226 1004,226 1004,226 1004,226 1004,227 1004,227 1004,227 1004,227 1004,227 1004,227 1004,227 1004,226 1004,226 1004,226 1004,226 1004,226 1004,226 1004,226 1004,226 1004,226 1004,225 1004,225 1004,225 1004,225 1004,225 1004,225 "/>
<rect x="514" y="25" width="485" height="157" opacity="0.8" fill="#FFFFFF" stroke="none"/>
<rect x="514" y="25" width="485" height="157" opacity="1" fill="none" stroke="#000000"/>
<text x="554" y="35" dy="0.76em" text-anchor="start" font-family="sans-serif" font-size="24.193548387096776" opacity="1" fill="#000000">
(1) log_power
</text>
<text x="554" y="73" dy="0.76em" text-anchor="start" font-family="sans-serif" font-size="24.193548387096776" opacity="1" fill="#000000">
(2) spectral_envelope by cepstrum
</text>
<text x="554" y="110" dy="0.76em" text-anchor="start" font-family="sans-serif" font-size="24.193548387096776" opacity="1" fill="#000000">
(3) spectral_envelope by levinson-durbin
</text>
<text x="554" y="148" dy="0.76em" text-anchor="start" font-family="sans-serif" font-size="24.193548387096776" opacity="1" fill="#000000">
(4) spectral_envelope by burg
</text>
<polyline fill="none" opacity="1" stroke="#E6194B" stroke-width="1" points="524,47 544,47 "/>
<polyline fill="none" opacity="1" stroke="#3CB44B" stroke-width="1" points="524,85 544,85 "/>
<polyline fill="none" opacity="1" stroke="#FFE119" stroke-width="1" points="524,122 544,122 "/>
<polyline fill="none" opacity="1" stroke="#0082C8" stroke-width="1" points="524,160 544,160 "/>
</svg>
