<svg width="1024" height="768" viewBox="0 0 1024 768" xmlns="http://www.w3.org/2000/svg">
<rect x="0" y="0" width="1024" height="768" opacity="1" fill="#FFFFFF" stroke="none"/>
<line opacity="0.1" stroke="#000000" stroke-width="1" x1="130" y1="657" x2="130" y2="20"/>
<line opacity="0.1" stroke="#000000" stroke-width="1" x1="140" y1="657" x2="140" y2="20"/>
<line opacity="0.1" stroke="#000000" stroke-width="1" x1="151" y1="657" x2="151" y2="20"/>
<line opacity="0.1" stroke="#000000" stroke-width="1" x1="162" y1="657" x2="162" y2="20"/>
<line opacity="0.1" stroke="#000000" stroke-width="1" x1="173" y1="657" x2="173" y2="20"/>
<line opacity="0.1" stroke="#000000" stroke-width="1" x1="184" y1="657" x2="184" y2="20"/>
<line opacity="0.1" stroke="#000000" stroke-width="1" x1="195" y1="657" x2="195" y2="20"/>
<line opacity="0.1" stroke="#000000" stroke-width="1" x1="206" y1="657" x2="206" y2="20"/>
<line opacity="0.1" stroke="#000000" stroke-width="1" x1="217" y1="657" x2="217" y2="20"/>
<line opacity="0.1" stroke="#000000" stroke-width="1" x1="228" y1="657" x2="228" y2="20"/>
<line opacity="0.1" stroke="#000000" stroke-width="1" x1="239" y1="657" x2="239" y2="20"/>
<line opacity="0.1" stroke="#000000" stroke-width="1" x1="250" y1="657" x2="250" y2="20"/>
<line opacity="0.1" stroke="#000000" stroke-width="1" x1="260" y1="657" x2="260" y2="20"/>
<line opacity="0.1" stroke="#000000" stroke-width="1" x1="271" y1="657" x2="271" y2="20"/>
<line opacity="0.1" stroke="#000000" stroke-width="1" x1="282" y1="657" x2="282" y2="20"/>
<line opacity="0.1" stroke="#000000" stroke-width="1" x1="293" y1="657" x2="293" y2="20"/>
<line opacity="0.1" stroke="#000000" stroke-width="1" x1="304" y1="657" x2="304" y2="20"/>
<line opacity="0.1" stroke="#000000" stroke-width="1" x1="315" y1="657" x2="315" y2="20"/>
<line opacity="0.1" stroke="#000000" stroke-width="1" x1="326" y1="657" x2="326" y2="20"/>
<line opacity="0.1" stroke="#000000" stroke-width="1" x1="337" y1="657" x2="337" y2="20"/>
<line opacity="0.1" stroke="#000000" stroke-width="1" x1="348" y1="657" x2="348" y2="20"/>
<line opacity="0.1" stroke="#000000" stroke-width="1" x1="359" y1="657" x2="359" y2="20"/>
<line opacity="0.1" stroke="#000000" stroke-width="1" x1="370" y1="657" x2="370" y2="20"/>
<line opacity="0.1" stroke="#000000" stroke-width="1" x1="380" y1="657" x2="380" y2="20"/>
<line opacity="0.1" stroke="#000000" stroke-width="1" x1="391" y1="657" x2="391" y2="20"/>
<line opacity="0.1" stroke="#000000" stroke-width="1" x1="402" y1="657" x2="402" y2="20"/>
<line opacity="0.1" stroke="#000000" stroke-width="1" x1="413" y1="657" x2="413" y2="20"/>
<line opacity="0.1" stroke="#000000" stroke-width="1" x1="424" y1="657" x2="424" y2="20"/>
<line opacity="0.1" stroke="#000000" stroke-width="1" x1="435" y1="657" x2="435" y2="20"/>
<line opacity="0.1" stroke="#000000" stroke-width="1" x1="446" y1="657" x2="446" y2="20"/>
<line opacity="0.1" stroke="#000000" stroke-width="1" x1="457" y1="657" x2="457" y2="20"/>
<line opacity="0.1" stroke="#000000" stroke-width="1" x1="468" y1="657" x2="468" y2="20"/>
<line opacity="0.1" stroke="#000000" stroke-width="1" x1="479" y1="657" x2="479" y2="20"/>
<line opacity="0.1" stroke="#000000" stroke-width="1" x1="490" y1="657" x2="490" y2="20"/>
<line opacity="0.1" stroke="#000000" stroke-width="1" x1="501" y1="657" x2="501" y2="20"/>
<line opacity="0.1" stroke="#000000" stroke-width="1" x1="511" y1="657" x2="511" y2="20"/>
<line opacity="0.1" stroke="#000000" stroke-width="1" x1="522" y1="657" x2="522" y2="20"/>
<line opacity="0.1" stroke="#000000" stroke-width="1" x1="533" y1="657" x2="533" y2="20"/>
<line opacity="0.1" stroke="#000000" stroke-width="1" x1="544" y1="657" x2="544" y2="20"/>
<line opacity="0.1" stroke="#000000" stroke-width="1" x1="555" y1="657" x2="555" y2="20"/>
<line opacity="0.1" stroke="#000000" stroke-width="1" x1="566" y1="657" x2="566" y2="20"/>
<line opacity="0.1" stroke="#000000" stroke-width="1" x1="577" y1="657" x2="577" y2="20"/>
<line opacity="0.1" stroke="#000000" stroke-width="1" x1="588" y1="657" x2="588" y2="20"/>
<line opacity="0.1" stroke="#000000" stroke-width="1" x1="599" y1="657" x2="599" y2="20"/>
<line opacity="0.1" stroke="#000000" stroke-width="1" x1="610" y1="657" x2="610" y2="20"/>
<line opacity="0.1" stroke="#000000" stroke-width="1" x1="621" y1="657" x2="621" y2="20"/>
<line opacity="0.1" stroke="#000000" stroke-width="1" x1="631" y1="657" x2="631" y2="20"/>
<line opacity="0.1" stroke="#000000" stroke-width="1" x1="642" y1="657" x2="642" y2="20"/>
<line opacity="0.1" stroke="#000000" stroke-width="1" x1="653" y1="657" x2="653" y2="20"/>
<line opacity="0.1" stroke="#000000" stroke-width="1" x1="664" y1="657" x2="664" y2="20"/>
<line opacity="0.1" stroke="#000000" stroke-width="1" x1="675" y1="657" x2="675" y2="20"/>
<line opacity="0.1" stroke="#000000" stroke-width="1" x1="686" y1="657" x2="686" y2="20"/>
<line opacity="0.1" stroke="#000000" stroke-width="1" x1="697" y1="657" x2="697" y2="20"/>
<line opacity="0.1" stroke="#000000" stroke-width="1" x1="708" y1="657" x2="708" y2="20"/>
<line opacity="0.1" stroke="#000000" stroke-width="1" x1="719" y1="657" x2="719" y2="20"/>
<line opacity="0.1" stroke="#000000" stroke-width="1" x1="730" y1="657" x2="730" y2="20"/>
<line opacity="0.1" stroke="#000000" stroke-width="1" x1="741" y1="657" x2="741" y2="20"/>
<line opacity="0.1" stroke="#000000" stroke-width="1" x1="752" y1="657" x2="752" y2="20"/>
<line opacity="0.1" stroke="#000000" stroke-width="1" x1="762" y1="657" x2="762" y2="20"/>
<line opacity="0.1" stroke="#000000" stroke-width="1" x1="773" y1="657" x2="773" y2="20"/>
<line opacity="0.1" stroke="#000000" stroke-width="1" x1="784" y1="657" x2="784" y2="20"/>
<line opacity="0.1" stroke="#000000" stroke-width="1" x1="795" y1="657" x2="795" y2="20"/>
<line opacity="0.1" stroke="#000000" stroke-width="1" x1="806" y1="657" x2="806" y2="20"/>
<line opacity="0.1" stroke="#000000" stroke-width="1" x1="817" y1="657" x2="817" y2="20"/>
<line opacity="0.1" stroke="#000000" stroke-width="1" x1="828" y1="657" x2="828" y2="20"/>
<line opacity="0.1" stroke="#000000" stroke-width="1" x1="839" y1="657" x2="839" y2="20"/>
<line opacity="0.1" stroke="#000000" stroke-width="1" x1="850" y1="657" x2="850" y2="20"/>
<line opacity="0.1" stroke="#000000" stroke-width="1" x1="861" y1="657" x2="861" y2="20"/>
<line opacity="0.1" stroke="#000000" stroke-width="1" x1="872" y1="657" x2="872" y2="20"/>
<line opacity="0.1" stroke="#000000" stroke-width="1" x1="882" y1="657" x2="882" y2="20"/>
<line opacity="0.1" stroke="#000000" stroke-width="1" x1="893" y1="657" x2="893" y2="20"/>
<line opacity="0.1" stroke="#000000" stroke-width="1" x1="904" y1="657" x2="904" y2="20"/>
<line opacity="0.1" stroke="#000000" stroke-width="1" x1="915" y1="657" x2="915" y2="20"/>
<line opacity="0.1" stroke="#000000" stroke-width="1" x1="926" y1="657" x2="926" y2="20"/>
<line opacity="0.1" stroke="#000000" stroke-width="1" x1="937" y1="657" x2="937" y2="20"/>
<line opacity="0.1" stroke="#000000" stroke-width="1" x1="948" y1="657" x2="948" y2="20"/>
<line opacity="0.1" stroke="#000000" stroke-width="1" x1="959" y1="657" x2="959" y2="20"/>
<line opacity="0.1" stroke="#000000" stroke-width="1" x1="970" y1="657" x2="970" y2="20"/>
<line opacity="0.1" stroke="#000000" stroke-width="1" x1="981" y1="657" x2="981" y2="20"/>
<line opacity="0.1" stroke="#000000" stroke-width="1" x1="992" y1="657" x2="992" y2="20"/>
<line opacity="0.1" stroke="#000000" stroke-width="1" x1="1003" y1="657" x2="1003" y2="20"/>
<line opacity="0.1" stroke="#000000" stroke-width="1" x1="130" y1="657" x2="1003" y2="657"/>
<line opacity="0.1" stroke="#000000" stroke-width="1" x1="130" y1="648" x2="1003" y2="648"/>
<line opacity="0.1" stroke="#000000" stroke-width="1" x1="130" y1="639" x2="1003" y2="639"/>
<line opacity="0.1" stroke="#000000" stroke-width="1" x1="130" y1="630" x2="1003" y2="630"/>
<line opacity="0.1" stroke="#000000" stroke-width="1" x1="130" y1="621" x2="1003" y2="621"/>
<line opacity="0.1" stroke="#000000" stroke-width="1" x1="130" y1="612" x2="1003" y2="612"/>
<line opacity="0.1" stroke="#000000" stroke-width="1" x1="130" y1="603" x2="1003" y2="603"/>
<line opacity="0.1" stroke="#000000" stroke-width="1" x1="130" y1="594" x2="1003" y2="594"/>
<line opacity="0.1" stroke="#000000" stroke-width="1" x1="130" y1="585" x2="1003" y2="585"/>
<line opacity="0.1" stroke="#000000" stroke-width="1" x1="130" y1="576" x2="1003" y2="576"/>
<line opacity="0.1" stroke="#000000" stroke-width="1" x1="130" y1="566" x2="1003" y2="566"/>
<line opacity="0.1" stroke="#000000" stroke-width="1" x1="130" y1="557" x2="1003" y2="557"/>
<line opacity="0.1" stroke="#000000" stroke-width="1" x1="130" y1="548" x2="1003" y2="548"/>
<line opacity="0.1" stroke="#000000" stroke-width="1" x1="130" y1="539" x2="1003" y2="539"/>
<line opacity="0.1" stroke="#000000" stroke-width="1" x1="130" y1="530" x2="1003" y2="530"/>
<line opacity="0.1" stroke="#000000" stroke-width="1" x1="130" y1="521" x2="1003" y2="521"/>
<line opacity="0.1" stroke="#000000" stroke-width="1" x1="130" y1="512" x2="1003" y2="512"/>
<line opacity="0.1" stroke="#000000" stroke-width="1" x1="130" y1="503" x2="1003" y2="503"/>
<line opacity="0.1" stroke="#000000" stroke-width="1" x1="130" y1="494" x2="1003" y2="494"/>
<line opacity="0.1" stroke="#000000" stroke-width="1" x1="130" y1="485" x2="1003" y2="485"/>
<line opacity="0.1" stroke="#000000" stroke-width="1" x1="130" y1="475" x2="1003" y2="475"/>
<line opacity="0.1" stroke="#000000" stroke-width="1" x1="130" y1="466" x2="1003" y2="466"/>
<line opacity="0.1" stroke="#000000" stroke-width="1" x1="130" y1="457" x2="1003" y2="457"/>
<line opacity="0.1" stroke="#000000" stroke-width="1" x1="130" y1="448" x2="1003" y2="448"/>
<line opacity="0.1" stroke="#000000" stroke-width="1" x1="130" y1="439" x2="1003" y2="439"/>
<line opacity="0.1" stroke="#000000" stroke-width="1" x1="130" y1="430" x2="1003" y2="430"/>
<line opacity="0.1" stroke="#000000" stroke-width="1" x1="130" y1="421" x2="1003" y2="421"/>
<line opacity="0.1" stroke="#000000" stroke-width="1" x1="130" y1="412" x2="1003" y2="412"/>
<line opacity="0.1" stroke="#000000" stroke-width="1" x1="130" y1="403" x2="1003" y2="403"/>
<line opacity="0.1" stroke="#000000" stroke-width="1" x1="130" y1="394" x2="1003" y2="394"/>
<line opacity="0.1" stroke="#000000" stroke-width="1" x1="130" y1="384" x2="1003" y2="384"/>
<line opacity="0.1" stroke="#000000" stroke-width="1" x1="130" y1="375" x2="1003" y2="375"/>
<line opacity="0.1" stroke="#000000" stroke-width="1" x1="130" y1="366" x2="1003" y2="366"/>
<line opacity="0.1" stroke="#000000" stroke-width="1" x1="130" y1="357" x2="1003" y2="357"/>
<line opacity="0.1" stroke="#000000" stroke-width="1" x1="130" y1="348" x2="1003" y2="348"/>
<line opacity="0.1" stroke="#000000" stroke-width="1" x1="130" y1="339" x2="1003" y2="339"/>
<line opacity="0.1" stroke="#000000" stroke-width="1" x1="130" y1="330" x2="1003" y2="330"/>
<line opacity="0.1" stroke="#000000" stroke-width="1" x1="130" y1="321" x2="1003" y2="321"/>
<line opacity="0.1" stroke="#000000" stroke-width="1" x1="130" y1="312" x2="1003" y2="312"/>
<line opacity="0.1" stroke="#000000" stroke-width="1" x1="130" y1="303" x2="1003" y2="303"/>
<line opacity="0.1" stroke="#000000" stroke-width="1" x1="130" y1="293" x2="1003" y2="293"/>
<line opacity="0.1" stroke="#000000" stroke-width="1" x1="130" y1="284" x2="1003" y2="284"/>
<line opacity="0.1" stroke="#000000" stroke-width="1" x1="130" y1="275" x2="1003" y2="275"/>
<line opacity="0.1" stroke="#000000" stroke-width="1" x1="130" y1="266" x2="1003" y2="266"/>
<line opacity="0.1" stroke="#000000" stroke-width="1" x1="130" y1="257" x2="1003" y2="257"/>
<line opacity="0.1" stroke="#000000" stroke-width="1" x1="130" y1="248" x2="1003" y2="248"/>
<line opacity="0.1" stroke="#000000" stroke-width="1" x1="130" y1="239" x2="1003" y2="239"/>
<line opacity="0.1" stroke="#000000" stroke-width="1" x1="130" y1="230" x2="1003" y2="230"/>
<line opacity="0.1" stroke="#000000" stroke-width="1" x1="130" y1="221" x2="1003" y2="221"/>
<line opacity="0.1" stroke="#000000" stroke-width="1" x1="130" y1="212" x2="1003" y2="212"/>
<line opacity="0.1" stroke="#000000" stroke-width="1" x1="130" y1="202" x2="1003" y2="202"/>
<line opacity="0.1" stroke="#000000" stroke-width="1" x1="130" y1="193" x2="1003" y2="193"/>
<line opacity="0.1" stroke="#000000" stroke-width="1" x1="130" y1="184" x2="1003" y2="184"/>
<line opacity="0.1" stroke="#000000" stroke-width="1" x1="130" y1="175" x2="1003" y2="175"/>
<line opacity="0.1" stroke="#000000" stroke-width="1" x1="130" y1="166" x2="1003" y2="166"/>
<line opacity="0.1" stroke="#000000" stroke-width="1" x1="130" y1="157" x2="1003" y2="157"/>
<line opacity="0.1" stroke="#000000" stroke-width="1" x1="130" y1="148" x2="1003" y2="148"/>
<line opacity="0.1" stroke="#000000" stroke-width="1" x1="130" y1="139" x2="1003" y2="139"/>
<line opacity="0.1" stroke="#000000" stroke-width="1" x1="130" y1="130" x2="1003" y2="130"/>
<line opacity="0.1" stroke="#000000" stroke-width="1" x1="130" y1="121" x2="1003" y2="121"/>
<line opacity="0.1" stroke="#000000" stroke-width="1" x1="130" y1="111" x2="1003" y2="111"/>
<line opacity="0.1" stroke="#000000" stroke-width="1" x1="130" y1="102" x2="1003" y2="102"/>
<line opacity="0.1" stroke="#000000" stroke-width="1" x1="130" y1="93" x2="1003" y2="93"/>
<line opacity="0.1" stroke="#000000" stroke-width="1" x1="130" y1="84" x2="1003" y2="84"/>
<line opacity="0.1" stroke="#000000" stroke-width="1" x1="130" y1="75" x2="1003" y2="75"/>
<line opacity="0.1" stroke="#000000" stroke-width="1" x1="130" y1="66" x2="1003" y2="66"/>
<line opacity="0.1" stroke="#000000" stroke-width="1" x1="130" y1="57" x2="1003" y2="57"/>
<line opacity="0.1" stroke="#000000" stroke-width="1" x1="130" y1="48" x2="1003" y2="48"/>
<line opacity="0.1" stroke="#000000" stroke-width="1" x1="130" y1="39" x2="1003" y2="39"/>
<line opacity="0.1" stroke="#000000" stroke-width="1" x1="130" y1="30" x2="1003" y2="30"/>
<line opacity="0.1" stroke="#000000" stroke-width="1" x1="130" y1="20" x2="1003" y2="20"/>
<text x="20" y="339" dy="0.76em" text-anchor="middle" font-family="sans-serif" font-size="24.193548387096776" opacity="1" fill="#000000" transform="rotate(270, 20, 339)">
Power [dB]
</text>
<text x="567" y="748" dy="-0.5ex" text-anchor="middle" font-family="sans-serif" font-size="24.193548387096776" opacity="1" fill="#000000">
Frequency [Hz]
</text>
<line opacity="0.2" stroke="#000000" stroke-width="1" x1="130" y1="657" x2="130" y2="20"/>
<line opacity="0.2" stroke="#000000" stroke-width="1" x1="239" y1="657" x2="239" y2="20"/>
<line opacity="0.2" stroke="#000000" stroke-width="1" x1="348" y1="657" x2="348" y2="20"/>
<line opacity="0.2" stroke="#000000" stroke-width="1" x1="457" y1="657" x2="457" y2="20"/>
<line opacity="0.2" stroke="#000000" stroke-width="1" x1="566" y1="657" x2="566" y2="20"/>
<line opacity="0.2" stroke="#000000" stroke-width="1" x1="675" y1="657" x2="675" y2="20"/>
<line opacity="0.2" stroke="#000000" stroke-width="1" x1="784" y1="657" x2="784" y2="20"/>
<line opacity="0.2" stroke="#000000" stroke-width="1" x1="893" y1="657" x2="893" y2="20"/>
<line opacity="0.2" stroke="#000000" stroke-width="1" x1="1003" y1="657" x2="1003" y2="20"/>
<line opacity="0.2" stroke="#000000" stroke-width="1" x1="130" y1="657" x2="1003" y2="657"/>
<line opacity="0.2" stroke="#000000" stroke-width="1" x1="130" y1="566" x2="1003" y2="566"/>
<line opacity="0.2" stroke="#000000" stroke-width="1" x1="130" y1="475" x2="1003" y2="475"/>
<line opacity="0.2" stroke="#000000" stroke-width="1" x1="130" y1="384" x2="1003" y2="384"/>
<line opacity="0.2" stroke="#000000" stroke-width="1" x1="130" y1="293" x2="1003" y2="293"/>
<line opacity="0.2" stroke="#000000" stroke-width="1" x1="130" y1="202" x2="1003" y2="202"/>
<line opacity="0.2" stroke="#000000" stroke-width="1" x1="130" y1="111" x2="1003" y2="111"/>
<line opacity="0.2" stroke="#000000" stroke-width="1" x1="130" y1="20" x2="1003" y2="20"/>
<polyline fill="none" opacity="1" stroke="#000000" stroke-width="1" points="129,20 129,657 "/>
<text x="120" y="657" dy="0.5ex" text-anchor="end" font-family="sans-serif" font-size="24.193548387096776" opacity="1" fill="#000000">
-100.0
</text>
<polyline fill="none" opacity="1" stroke="#000000" stroke-width="1" points="124,657 129,657 "/>
<text x="120" y="566" dy="0.5ex" text-anchor="end" font-family="sans-serif" font-size="24.193548387096776" opacity="1" fill="#000000">
-80.0
</text>
<polyline fill="none" opacity="1" stroke="#000000" stroke-width="1" points="124,566 129,566 "/>
<text x="120" y="475" dy="0.5ex" text-anchor="end" font-family="sans-serif" font-size="24.193548387096776" opacity="1" fill="#000000">
-60.0
</text>
<polyline fill="none" opacity="1" stroke="#000000" stroke-width="1" points="124,475 129,475 "/>
<text x="120" y="384" dy="0.5ex" text-anchor="end" font-family="sans-serif" font-size="24.193548387096776" opacity="1" fill="#000000">
-40.0
</text>
<polyline fill="none" opacity="1" stroke="#000000" stroke-width="1" points="124,384 129,384 "/>
<text x="120" y="293" dy="0.5ex" text-anchor="end" font-family="sans-serif" font-size="24.193548387096776" opacity="1" fill="#000000">
-20.0
</text>
<polyline fill="none" opacity="1" stroke="#000000" stroke-width="1" points="124,293 129,293 "/>
<text x="120" y="202" dy="0.5ex" text-anchor="end" font-family="sans-serif" font-size="24.193548387096776" opacity="1" fill="#000000">
0.0
</text>
<polyline fill="none" opacity="1" stroke="#000000" stroke-width="1" points="124,202 129,202 "/>
<text x="120" y="111" dy="0.5ex" text-anchor="end" font-family="sans-serif" font-size="24.193548387096776" opacity="1" fill="#000000">
20.0
</text>
<polyline fill="none" opacity="1" stroke="#000000" stroke-width="1" points="124,111 129,111 "/>
<text x="120" y="20" dy="0.5ex" text-anchor="end" font-family="sans-serif" font-size="24.193548387096776" opacity="1" fill="#000000">
40.0
</text>
<polyline fill="none" opacity="1" stroke="#000000" stroke-width="1" points="124,20 129,20 "/>
<polyline fill="none" opacity="1" stroke="#000000" stroke-width="1" points="130,658 1003,658 "/>
<text x="130" y="668" dy="0.76em" text-anchor="middle" font-family="sans-serif" font-size="24.193548387096776" opacity="1" fill="#000000">
0.0
</text>
<polyline fill="none" opacity="1" stroke="#000000" stroke-width="1" points="130,658 130,663 "/>
<text x="239" y="668" dy="0.76em" text-anchor="middle" font-family="sans-serif" font-size="24.193548387096776" opacity="1" fill="#000000">
1000.0
</text>
<polyline fill="none" opacity="1" stroke="#000000" stroke-width="1" points="239,658 239,663 "/>
<text x="348" y="668" dy="0.76em" text-anchor="middle" font-family="sans-serif" font-size="24.193548387096776" opacity="1" fill="#000000">
2000.0
</text>
<polyline fill="none" opacity="1" stroke="#000000" stroke-width="1" points="348,658 348,663 "/>
<text x="457" y="668" dy="0.76em" text-anchor="middle" font-family="sans-serif" font-size="24.193548387096776" opacity="1" fill="#000000">
3000.0
</text>
<polyline fill="none" opacity="1" stroke="#000000" stroke-width="1" points="457,658 457,663 "/>
<text x="566" y="668" dy="0.76em" text-anchor="middle" font-family="sans-serif" font-size="24.193548387096776" opacity="1" fill="#000000">
4000.0
</text>
<polyline fill="none" opacity="1" stroke="#000000" stroke-width="1" points="566,658 566,663 "/>
<text x="675" y="668" dy="0.76em" text-anchor="middle" font-family="sans-serif" font-size="24.193548387096776" opacity="1" fill="#000000">
5000.0
</text>
<polyline fill="none" opacity="1" stroke="#000000" stroke-width="1" points="675,658 675,663 "/>
<text x="784" y="668" dy="0.76em" text-anchor="middle" font-family="sans-serif" font-size="24.193548387096776" opacity="1" fill="#000000">
6000.0
</text>
<polyline fill="none" opacity="1" stroke="#000000" stroke-width="1" points="784,658 784,663 "/>
<text x="893" y="668" dy="0.76em" text-anchor="middle" font-family="sans-serif" font-size="24.193548387096776" opacity="1" fill="#000000">
7000.0
</text>
<polyline fill="none" opacity="1" stroke="#000000" stroke-width="1" points="893,658 893,663 "/>
<text x="1003" y="668" dy="0.76em" text-anchor="middle" font-family="sans-serif" font-size="24.193548387096776" opacity="1" fill="#000000">
8000.0
</text>
<polyline fill="none" opacity="1" stroke="#000000" stroke-width="1" points="1003,658 1003,663 "/>
<polyline fill="none" opacity="1" stroke="#E6194B" stroke-width="1" points="130,306 131,313 133,280 134,285 136,291 137,278 139,504 140,285 142,241 143,243 145,280 146,231 148,187 149,177 151,253 152,185 154,196 155,256 157,201 158,195 160,200 161,205 163,252 164,296 166,187 167,195 169,304 170,207 172,197 173,228 175,219 176,197 178,209 180,287 181,250 183,269 184,285 186,226 187,324 189,245 190,232 192,206 193,270 195,198 196,198 198,215 199,208 201,176 202,180 204,221 205,176 207,149 208,152 210,169 211,179 213,152 214,146 216,182 217,383 219,278 220,369 222,209 223,190 225,237 227,274 228,200 230,192 231,230 233,229 234,226 236,233 237,223 239,338 240,237 242,190 243,197 245,217 246,258 248,209 249,228 251,206 252,195 254,257 255,228 257,220 258,234 260,296 261,251 263,232 264,281 266,329 267,261 269,254 270,277 272,270 273,225 275,279 277,251 278,241 280,229 281,209 283,203 284,209 286,209 287,186 289,178 290,217 292,194 293,170 295,187 296,192 298,171 299,176 301,209 302,208 304,171 305,192 307,212 308,230 310,287 311,207 313,223 314,248 316,313 317,259 319,231 320,207 322,241 324,267 325,220 327,204 328,214 330,231 331,225 333,240 334,260 336,264 337,289 339,326 340,225 342,218 343,286 345,273 346,314 348,334 349,242 351,222 352,239 354,254 355,253 357,250 358,199 360,212 361,254 363,243 364,385 366,274 367,368 369,245 370,271 372,271 374,299 375,237 377,259 378,259 380,305 381,244 383,262 384,310 386,309 387,294 389,259 390,254 392,261 393,254 395,277 396,274 398,229 399,257 401,302 402,308 404,269 405,265 407,246 408,260 410,333 411,436 413,273 414,288 416,263 417,243 419,290 421,293 422,293 424,306 425,284 427,322 428,308 430,436 431,334 433,310 434,281 436,277 437,332 439,262 440,275 442,313 443,300 445,269 446,274 448,268 449,283 451,309 452,276 454,274 455,319 457,276 458,341 460,354 461,325 463,323 464,352 466,309 467,262 469,267 471,347 472,271 474,294 475,306 477,280 478,269 480,249 481,243 483,252 484,270 486,284 487,282 489,306 490,313 492,288 493,283 495,281 496,275 498,287 499,340 501,399 502,384 504,420 505,379 507,357 508,387 510,418 511,335 513,298 514,344 516,298 518,300 519,389 521,361 522,300 524,275 525,282 527,283 528,266 530,267 531,292 533,302 534,288 536,300 537,357 539,380 540,505 542,318 543,298 545,311 546,324 548,290 549,284 551,311 552,323 554,315 555,312 557,320 558,340 560,345 561,324 563,311 564,310 566,315 568,300 569,295 571,329 572,498 574,378 575,436 577,369 578,392 580,417 581,385 583,437 584,384 586,377 587,478 589,334 590,315 592,320 593,361 595,389 596,370 598,327 599,342 601,444 602,397 604,342 605,331 607,360 608,331 610,528 611,369 613,394 615,341 616,369 618,374 619,399 621,371 622,378 624,390 625,412 627,364 628,367 630,459 631,406 633,359 634,397 636,345 637,343 639,415 640,384 642,350 643,356 645,411 646,411 648,472 649,397 651,363 652,395 654,471 655,408 657,343 658,333 660,356 661,388 663,403 665,380 666,432 668,398 669,402 671,423 672,380 674,374 675,463 677,426 678,418 680,411 681,391 683,393 684,398 686,533 687,513 689,520 690,523 692,484 693,469 695,449 696,383 698,384 699,425 701,420 702,489 704,546 705,499 707,509 708,476 710,439 712,499 713,401 715,366 716,391 718,470 719,409 721,398 722,426 724,399 725,384 727,459 728,437 730,500 731,476 733,505 734,459 736,409 737,385 739,389 740,500 742,437 743,498 745,547 746,498 748,509 749,395 751,375 752,400 754,474 755,502 757,530 758,600 760,510 762,594 763,491 765,535 766,570 768,551 769,511 771,545 772,521 774,520 775,479 777,503 778,418 780,408 781,455 783,529 784,620 786,529 787,524 789,563 790,547 792,460 793,457 795,512 796,397 798,369 799,398 801,510 802,514 804,455 805,415 807,531 809,409 810,468 812,410 813,382 815,371 816,406 818,393 819,395 821,541 822,495 824,521 825,562 827,469 828,416 830,414 831,425 833,438 834,497 836,535 837,539 839,507 840,444 842,493 843,405 845,423 846,446 848,438 849,546 851,558 852,582 854,443 855,469 857,451 859,484 860,512 862,558 863,632 865,547 866,601 868,564 869,518 871,490 872,544 874,551 875,640 877,437 878,412 880,416 881,400 883,381 884,396 886,478 887,452 889,435 890,429 892,425 893,452 895,443 896,428 898,470 899,461 901,415 902,419 904,476 906,522 907,540 909,449 910,421 912,457 913,538 915,578 916,449 918,411 919,424 921,449 922,445 924,548 925,455 927,487 928,658 930,510 931,542 933,514 934,575 936,651 937,658 939,580 940,477 942,426 943,435 945,476 946,406 948,390 949,412 951,409 952,411 954,534 956,451 957,543 959,473 960,491 962,523 963,561 965,481 966,448 968,485 969,490 971,425 972,404 974,430 975,425 977,406 978,443 980,538 981,520 983,583 984,572 986,496 987,477 989,590 990,488 992,531 993,559 995,561 996,603 998,557 999,583 1001,632 1003,597 1004,632 1004,583 1004,557 1004,603 1004,561 1004,559 1004,531 1004,488 1004,590 1004,477 1004,496 1004,572 1004,583 1004,520 1004,538 1004,443 1004,406 1004,425 1004,430 1004,404 1004,425 1004,490 1004,485 1004,448 1004,481 1004,561 1004,523 1004,491 1004,473 1004,543 1004,451 1004,534 1004,411 1004,409 1004,412 1004,390 1004,406 1004,476 1004,435 1004,426 1004,477 1004,580 1004,658 1004,651 1004,575 1004,514 1004,542 1004,510 1004,658 1004,487 1004,455 1004,548 1004,445 1004,449 1004,424 1004,411 1004,449 1004,578 1004,538 1004,457 1004,421 1004,449 1004,540 1004,522 1004,476 1004,419 1004,415 1004,461 1004,470 1004,428 1004,443 1004,452 1004,425 1004,429 1004,435 1004,452 1004,478 1004,396 1004,381 1004,400 1004,416 1004,412 1004,437 1004,640 1004,551 1004,544 1004,490 1004,518 1004,564 1004,601 1004,547 1004,632 1004,558 1004,512 1004,484 1004,451 1004,469 1004,443 1004,582 1004,558 1004,546 1004,438 1004,446 1004,423 1004,405 1004,493 1004,444 1004,507 1004,539 1004,535 1004,497 1004,438 1004,425 1004,414 1004,416 1004,469 1004,562 1004,521 1004,495 1004,541 1004,395 1004,393 1004,406 1004,371 1004,382 1004,410 1004,468 1004,409 1004,531 1004,415 1004,455 1004,514 1004,510 1004,398 1004,369 1004,397 1004,512 1004,457 1004,460 1004,547 1004,563 1004,524 1004,529 1004,620 1004,529 1004,455 1004,408 1004,418 1004,503 1004,479 1004,520 1004,521 1004,545 1004,511 1004,551 1004,570 1004,535 1004,491 1004,594 1004,510 1004,600 1004,530 1004,502 1004,474 1004,400 1004,375 1004,395 1004,509 1004,498 1004,547 1004,498 1004,437 1004,500 1004,389 1004,385 1004,409 1004,459 1004,505 1004,476 1004,500 1004,437 1004,459 1004,384 1004,399 1004,426 1004,398 1004,409 1004,470 1004,391 1004,366 1004,401 1004,499 1004,439 1004,476 1004,509 1004,499 1004,546 1004,489 1004,420 1004,425 1004,384 1004,383 1004,449 1004,469 1004,484 1004,523 1004,520 1004,513 1004,533 1004,398 1004,393 1004,391 1004,411 1004,418 1004,426 1004,463 1004,374 1004,380 1004,423 1004,402 1004,398 1004,432 1004,380 1004,403 1004,388 1004,356 1004,333 1004,343 1004,408 1004,471 1004,395 1004,363 1004,397 1004,472 1004,411 1004,411 1004,356 1004,350 1004,384 1004,415 1004,343 1004,345 1004,397 1004,359 1004,406 1004,459 1004,367 1004,364 1004,412 1004,390 1004,378 1004,371 1004,399 1004,374 1004,369 1004,341 1004,394 1004,369 1004,528 1004,331 1004,360 1004,331 1004,342 1004,397 1004,444 1004,342 1004,327 1004,370 1004,389 1004,361 1004,320 1004,315 1004,334 1004,478 1004,377 1004,384 1004,437 1004,385 1004,417 1004,392 1004,369 1004,436 1004,378 1004,498 1004,329 1004,295 1004,300 1004,315 1004,310 1004,311 1004,324 1004,345 1004,340 1004,320 1004,312 1004,315 1004,323 1004,311 1004,284 1004,290 1004,324 1004,311 1004,298 1004,318 1004,505 1004,380 1004,357 1004,300 1004,288 1004,302 1004,292 1004,267 1004,266 1004,283 1004,282 1004,275 1004,300 1004,361 1004,389 1004,300 1004,298 1004,344 1004,298 1004,335 1004,418 1004,387 1004,357 1004,379 1004,420 1004,384 1004,399 1004,340 1004,287 1004,275 1004,281 1004,283 1004,288 1004,313 1004,306 1004,282 1004,284 1004,270 1004,252 1004,243 1004,249 1004,269 1004,280 1004,306 1004,294 1004,271 1004,347 1004,267 1004,262 1004,309 1004,352 1004,323 1004,325 1004,354 1004,341 1004,276 1004,319 1004,274 1004,276 1004,309 1004,283 1004,268 1004,274 1004,269 1004,300 1004,313 1004,275 1004,262 1004,332 1004,277 1004,281 1004,310 1004,334 1004,436 1004,308 1004,322 1004,284 1004,306 1004,293 1004,293 1004,290 1004,243 1004,263 1004,288 1004,273 1004,436 1004,333 1004,260 1004,246 1004,265 1004,269 1004,308 1004,302 1004,257 1004,229 1004,274 1004,277 1004,254 1004,261 1004,254 1004,259 1004,294 1004,309 1004,310 1004,262 1004,244 1004,305 1004,259 1004,259 1004,237 1004,299 1004,271 1004,271 1004,245 1004,368 1004,274 1004,385 1004,243 1004,254 1004,212 1004,199 1004,250 1004,253 1004,254 1004,239 1004,222 1004,242 1004,334 1004,314 1004,273 1004,286 1004,218 1004,225 1004,326 1004,289 1004,264 1004,260 1004,240 1004,225 1004,231 1004,214 1004,204 1004,220 1004,267 1004,241 1004,207 1004,231 1004,259 1004,313 1004,248 1004,223 1004,207 1004,287 1004,230 1004,212 1004,192 1004,171 1004,208 1004,209 1004,176 1004,171 1004,192 1004,187 1004,170 1004,194 1004,217 1004,178 1004,186 1004,209 1004,209 1004,203 1004,209 1004,229 1004,241 1004,251 1004,279 1004,225 1004,270 1004,277 1004,254 1004,261 1004,329 1004,281 1004,232 1004,251 1004,296 1004,234 1004,220 1004,228 1004,257 1004,195 1004,206 1004,228 1004,209 1004,258 1004,217 1004,197 1004,190 1004,237 1004,338 1004,223 1004,233 1004,226 1004,229 1004,230 1004,192 1004,200 1004,274 1004,237 1004,190 1004,209 1004,369 1004,278 1004,383 1004,182 1004,146 1004,152 1004,179 1004,169 1004,152 1004,149 1004,176 1004,221 1004,180 1004,176 1004,208 1004,215 1004,198 1004,198 1004,270 1004,206 1004,232 1004,245 1004,324 1004,226 1004,285 1004,269 1004,250 1004,287 1004,209 1004,197 1004,219 1004,228 1004,197 1004,207 1004,304 1004,195 1004,187 1004,296 1004,252 1004,205 1004,200 1004,195 1004,201 1004,256 1004,196 1004,185 1004,253 1004,177 1004,187 1004,231 1004,280 1004,243 1004,241 1004,285 1004,504 1004,278 1004,291 1004,285 1004,280 1004,313 "/>
<polyline fill="none" opacity="1" stroke="#3CB44B" stroke-width="1" points="130,324 131,324 133,324 134,323 136,322 137,321 139,320 140,319 142,317 143,315 145,314 146,312 148,310 149,308 151,306 152,304 154,302 155,301 157,299 158,297 160,296 161,295 163,294 164,293 166,292 167,291 169,291 170,291 172,291 173,291 175,291 176,291 178,291 180,292 181,292 183,292 184,293 186,293 187,293 189,294 190,294 192,294 193,294 195,294 196,294 198,293 199,293 201,293 202,292 204,291 205,291 207,290 208,289 210,289 211,288 213,288 214,287 216,287 217,286 219,286 220,286 222,286 223,286 225,286 227,287 228,288 230,288 231,289 233,290 234,292 236,293 237,294 239,296 240,297 242,299 243,300 245,302 246,303 248,305 249,306 251,307 252,308 254,308 255,309 257,309 258,309 260,309 261,309 263,308 264,307 266,307 267,305 269,304 270,303 272,301 273,299 275,298 277,296 278,294 280,292 281,290 283,289 284,287 286,286 287,284 289,283 290,282 292,281 293,281 295,281 296,280 298,281 299,281 301,281 302,282 304,283 305,284 307,285 308,287 310,288 311,290 313,291 314,293 316,295 317,296 319,298 320,299 322,301 324,302 325,304 327,305 328,306 330,307 331,308 333,309 334,309 336,310 337,310 339,311 340,311 342,311 343,311 345,311 346,312 348,312 349,312 351,312 352,312 354,312 355,312 357,312 358,312 360,313 361,313 363,313 364,314 366,314 367,314 369,315 370,315 372,316 374,316 375,317 377,317 378,318 380,318 381,318 383,319 384,319 386,319 387,319 389,319 390,320 392,320 393,320 395,320 396,320 398,320 399,320 401,320 402,321 404,321 405,321 407,322 408,322 410,323 411,323 413,324 414,325 416,325 417,326 419,327 421,328 422,329 424,330 425,331 427,332 428,333 430,333 431,334 433,335 434,335 436,336 437,336 439,336 440,337 442,336 443,336 445,336 446,335 448,335 449,334 451,333 452,332 454,331 455,330 457,329 458,327 460,326 461,325 463,324 464,323 466,323 467,322 469,322 471,321 472,321 474,321 475,322 477,322 478,323 480,324 481,325 483,326 484,328 486,329 487,331 489,333 490,335 492,336 493,338 495,340 496,342 498,344 499,345 501,347 502,348 504,349 505,350 507,351 508,351 510,351 511,351 513,351 514,351 516,350 518,349 519,348 521,347 522,346 524,345 525,343 527,342 528,341 530,339 531,338 533,337 534,336 536,335 537,335 539,334 540,334 542,334 543,334 545,335 546,335 548,336 549,338 551,339 552,340 554,342 555,344 557,346 558,348 560,350 561,352 563,354 564,356 566,358 568,359 569,361 571,363 572,364 574,366 575,367 577,368 578,368 580,369 581,370 583,370 584,370 586,370 587,370 589,370 590,370 592,370 593,369 595,369 596,369 598,369 599,368 601,368 602,368 604,368 605,368 607,368 608,368 610,369 611,369 613,369 615,370 616,370 618,371 619,371 621,372 622,373 624,373 625,374 627,374 628,374 630,375 631,375 633,375 634,375 636,375 637,375 639,375 640,375 642,375 643,375 645,374 646,374 648,374 649,374 651,374 652,374 654,374 655,374 657,375 658,375 660,376 661,377 663,378 665,379 666,380 668,382 669,383 671,385 672,387 674,389 675,391 677,393 678,395 680,397 681,399 683,401 684,403 686,405 687,406 689,408 690,409 692,410 693,411 695,412 696,412 698,412 699,412 701,412 702,411 704,410 705,410 707,409 708,407 710,406 712,405 713,404 715,402 716,401 718,400 719,399 721,398 722,397 724,396 725,396 727,396 728,396 730,396 731,397 733,398 734,399 736,401 737,402 739,404 740,406 742,408 743,411 745,413 746,416 748,418 749,421 751,424 752,426 754,429 755,431 757,433 758,435 760,437 762,439 763,440 765,441 766,442 768,442 769,443 771,443 772,442 774,442 775,441 777,440 778,439 780,437 781,436 783,434 784,432 786,430 787,428 789,425 790,423 792,421 793,419 795,416 796,414 798,412 799,410 801,408 802,407 804,405 805,404 807,403 809,402 810,401 812,400 813,400 815,400 816,400 818,400 819,401 821,401 822,402 824,403 825,404 827,406 828,407 830,409 831,411 833,413 834,415 836,417 837,419 839,422 840,424 842,426 843,428 845,430 846,432 848,434 849,435 851,437 852,438 854,439 855,440 857,440 859,441 860,441 862,440 863,440 865,439 866,438 868,436 869,435 871,433 872,431 874,429 875,426 877,424 878,421 880,419 881,416 883,414 884,412 886,409 887,407 889,405 890,404 892,402 893,401 895,401 896,400 898,400 899,401 901,401 902,403 904,404 906,406 907,408 909,410 910,412 912,415 913,418 915,421 916,423 918,426 919,429 921,432 922,434 924,437 925,439 927,440 928,442 930,443 931,443 933,444 934,443 936,443 937,442 939,440 940,439 942,437 943,435 945,432 946,429 948,427 949,424 951,421 952,418 954,415 956,413 957,411 959,409 960,407 962,406 963,405 965,405 966,405 968,406 969,407 971,408 972,411 974,413 975,416 977,419 978,423 980,427 981,431 983,435 984,440 986,444 987,448 989,452 990,456 992,460 993,463 995,466 996,468 998,470 999,472 1001,473 1003,473 1004,473 1004,472 1004,470 1004,468 1004,466 1004,463 1004,460 1004,456 1004,452 1004,448 1004,444 1004,440 1004,435 1004,431 1004,427 1004,423 1004,419 1004,416 1004,413 1004,411 1004,408 1004,407 1004,406 1004,405 1004,405 1004,405 1004,406 1004,407 1004,409 1004,411 1004,413 1004,415 1004,418 1004,421 1004,424 1004,427 1004,429 1004,432 1004,435 1004,437 1004,439 1004,440 1004,442 1004,443 1004,443 1004,444 1004,443 1004,443 1004,442 1004,440 1004,439 1004,437 1004,434 1004,432 1004,429 1004,426 1004,423 1004,421 1004,418 1004,415 1004,412 1004,410 1004,408 1004,406 1004,404 1004,403 1004,401 1004,401 1004,400 1004,400 1004,401 1004,401 1004,402 1004,404 1004,405 1004,407 1004,409 1004,412 1004,414 1004,416 1004,419 1004,421 1004,424 1004,426 1004,429 1004,431 1004,433 1004,435 1004,436 1004,438 1004,439 1004,440 1004,440 1004,441 1004,441 1004,440 1004,440 1004,439 1004,438 1004,437 1004,435 1004,434 1004,432 1004,430 1004,428 1004,426 1004,424 1004,422 1004,419 1004,417 1004,415 1004,413 1004,411 1004,409 1004,407 1004,406 1004,404 1004,403 1004,402 1004,401 1004,401 1004,400 1004,400 1004,400 1004,400 1004,400 1004,401 1004,402 1004,403 1004,404 1004,405 1004,407 1004,408 1004,410 1004,412 1004,414 1004,416 1004,419 1004,421 1004,423 1004,425 1004,428 1004,430 1004,432 1004,434 1004,436 1004,437 1004,439 1004,440 1004,441 1004,442 1004,442 1004,443 1004,443 1004,442 1004,442 1004,441 1004,440 1004,439 1004,437 1004,435 1004,433 1004,431 1004,429 1004,426 1004,424 1004,421 1004,418 1004,416 1004,413 1004,411 1004,408 1004,406 1004,404 1004,402 1004,401 1004,399 1004,398 1004,397 1004,396 1004,396 1004,396 1004,396 1004,396 1004,397 1004,398 1004,399 1004,400 1004,401 1004,402 1004,404 1004,405 1004,406 1004,407 1004,409 1004,410 1004,410 1004,411 1004,412 1004,412 1004,412 1004,412 1004,412 1004,411 1004,410 1004,409 1004,408 1004,406 1004,405 1004,403 1004,401 1004,399 1004,397 1004,395 1004,393 1004,391 1004,389 1004,387 1004,385 1004,383 1004,382 1004,380 1004,379 1004,378 1004,377 1004,376 1004,375 1004,375 1004,374 1004,374 1004,374 1004,374 1004,374 1004,374 1004,374 1004,374 1004,375 1004,375 1004,375 1004,375 1004,375 1004,375 1004,375 1004,375 1004,375 1004,375 1004,374 1004,374 1004,374 1004,373 1004,373 1004,372 1004,371 1004,371 1004,370 1004,370 1004,369 1004,369 1004,369 1004,368 1004,368 1004,368 1004,368 1004,368 1004,368 1004,368 1004,369 1004,369 1004,369 1004,369 1004,370 1004,370 1004,370 1004,370 1004,370 1004,370 1004,370 1004,370 1004,369 1004,368 1004,368 1004,367 1004,366 1004,364 1004,363 1004,361 1004,359 1004,358 1004,356 1004,354 1004,352 1004,350 1004,348 1004,346 1004,344 1004,342 1004,340 1004,339 1004,338 1004,336 1004,335 1004,335 1004,334 1004,334 1004,334 1004,334 1004,335 1004,335 1004,336 1004,337 1004,338 1004,339 1004,341 1004,342 1004,343 1004,345 1004,346 1004,347 1004,348 1004,349 1004,350 1004,351 1004,351 1004,351 1004,351 1004,351 1004,351 1004,350 1004,349 1004,348 1004,347 1004,345 1004,344 1004,342 1004,340 1004,338 1004,336 1004,335 1004,333 1004,331 1004,329 1004,328 1004,326 1004,325 1004,324 1004,323 1004,322 1004,322 1004,321 1004,321 1004,321 1004,322 1004,322 1004,323 1004,323 1004,324 1004,325 1004,326 1004,327 1004,329 1004,330 1004,331 1004,332 1004,333 1004,334 1004,335 1004,335 1004,336 1004,336 1004,336 1004,337 1004,336 1004,336 1004,336 1004,335 1004,335 1004,334 1004,333 1004,333 1004,332 1004,331 1004,330 1004,329 1004,328 1004,327 1004,326 1004,325 1004,325 1004,324 1004,323 1004,323 1004,322 1004,322 1004,321 1004,321 1004,321 1004,320 1004,320 1004,320 1004,320 1004,320 1004,320 1004,320 1004,320 1004,319 1004,319 1004,319 1004,319 1004,319 1004,318 1004,318 1004,318 1004,317 1004,317 1004,316 1004,316 1004,315 1004,315 1004,314 1004,314 1004,314 1004,313 1004,313 1004,313 1004,312 1004,312 1004,312 1004,312 1004,312 1004,312 1004,312 1004,312 1004,312 1004,311 1004,311 1004,311 1004,311 1004,311 1004,310 1004,310 1004,309 1004,309 1004,308 1004,307 1004,306 1004,305 1004,304 1004,302 1004,301 1004,299 1004,298 1004,296 1004,295 1004,293 1004,291 1004,290 1004,288 1004,287 1004,285 1004,284 1004,283 1004,282 1004,281 1004,281 1004,281 1004,280 1004,281 1004,281 1004,281 1004,282 1004,283 1004,284 1004,286 1004,287 1004,289 1004,290 1004,292 1004,294 1004,296 1004,298 1004,299 1004,301 1004,303 1004,304 1004,305 1004,307 1004,307 1004,308 1004,309 1004,309 1004,309 1004,309 1004,309 1004,308 1004,308 1004,307 1004,306 1004,305 1004,303 1004,302 1004,300 1004,299 1004,297 1004,296 1004,294 1004,293 1004,292 1004,290 1004,289 1004,288 1004,288 1004,287 1004,286 1004,286 1004,286 1004,286 1004,286 1004,286 1004,287 1004,287 1004,288 1004,288 1004,289 1004,289 1004,290 1004,291 1004,291 1004,292 1004,293 1004,293 1004,293 1004,294 1004,294 1004,294 1004,294 1004,294 1004,294 1004,293 1004,293 1004,293 1004,292 1004,292 1004,292 1004,291 1004,291 1004,291 1004,291 1004,291 1004,291 1004,291 1004,291 1004,292 1004,293 1004,294 1004,295 1004,296 1004,297 1004,299 1004,301 1004,302 1004,304 1004,306 1004,308 1004,310 1004,312 1004,314 1004,315 1004,317 1004,319 1004,320 1004,321 1004,322 1004,323 1004,324 1004,324 "/>
<polyline fill="none" opacity="1" stroke="#FFE119" stroke-width="1" points="130,365 131,365 133,365 134,365 136,365 137,365 139,365 140,365 142,365 143,365 145,365 146,365 148,365 149,366 151,366 152,366 154,366 155,366 157,366 158,366 160,366 161,366 163,366 164,366 166,366 167,366 169,366 170,366 172,365 173,365 175,365 176,365 178,365 180,365 181,365 183,365 184,365 186,365 187,365 189,365 190,365 192,365 193,365 195,365 196,366 198,366 199,366 201,366 202,366 204,366 205,366 207,367 208,367 210,367 211,367 213,367 214,367 216,367 217,367 219,367 220,367 222,367 223,367 225,367 227,367 228,367 230,367 231,367 233,367 234,367 236,367 237,367 239,367 240,367 242,367 243,367 245,367 246,367 248,367 249,367 251,367 252,367 254,367 255,367 257,367 258,367 260,366 261,366 263,366 264,366 266,366 267,366 269,366 270,366 272,366 273,366 275,366 277,366 278,366 280,366 281,366 283,366 284,366 286,366 287,366 289,366 290,367 292,367 293,367 295,367 296,367 298,368 299,368 301,368 302,368 304,368 305,369 307,369 308,369 310,369 311,370 313,370 314,370 316,370 317,370 319,370 320,370 322,370 324,370 325,370 327,370 328,370 330,370 331,370 333,370 334,370 336,370 337,370 339,370 340,370 342,370 343,370 345,370 346,370 348,370 349,370 351,370 352,370 354,370 355,370 357,370 358,371 360,371 361,371 363,371 364,371 366,371 367,372 369,372 370,372 372,372 374,372 375,372 377,372 378,372 380,372 381,373 383,373 384,373 386,373 387,373 389,373 390,373 392,373 393,373 395,373 396,373 398,373 399,373 401,373 402,373 404,373 405,373 407,373 408,373 410,374 411,374 413,374 414,374 416,375 417,375 419,375 421,376 422,376 424,376 425,376 427,377 428,377 430,377 431,377 433,378 434,378 436,378 437,378 439,378 440,378 442,378 443,378 445,378 446,378 448,378 449,378 451,378 452,378 454,378 455,377 457,377 458,377 460,377 461,377 463,377 464,377 466,377 467,377 469,377 471,376 472,376 474,376 475,376 477,376 478,376 480,376 481,376 483,376 484,376 486,376 487,376 489,376 490,376 492,376 493,376 495,376 496,377 498,377 499,377 501,377 502,377 504,378 505,378 507,378 508,379 510,379 511,380 513,380 514,381 516,381 518,382 519,382 521,383 522,383 524,384 525,384 527,385 528,385 530,386 531,386 533,386 534,387 536,387 537,387 539,387 540,388 542,388 543,388 545,388 546,388 548,388 549,388 551,389 552,389 554,389 555,389 557,389 558,390 560,390 561,390 563,391 564,391 566,392 568,393 569,393 571,394 572,395 574,396 575,397 577,398 578,399 580,400 581,401 583,402 584,404 586,405 587,406 589,407 590,408 592,409 593,410 595,411 596,413 598,414 599,415 601,416 602,417 604,418 605,419 607,420 608,421 610,421 611,422 613,423 615,424 616,425 618,426 619,427 621,427 622,428 624,429 625,430 627,430 628,431 630,431 631,432 633,432 634,433 636,433 637,433 639,433 640,433 642,433 643,433 645,432 646,432 648,432 649,431 651,431 652,430 654,430 655,429 657,429 658,428 660,428 661,428 663,428 665,429 666,429 668,430 669,431 671,433 672,435 674,437 675,439 677,441 678,444 680,447 681,450 683,453 684,455 686,458 687,461 689,464 690,467 692,469 693,472 695,474 696,476 698,478 699,480 701,482 702,484 704,485 705,487 707,488 708,489 710,490 712,491 713,492 715,493 716,493 718,494 719,494 721,495 722,495 724,496 725,496 727,497 728,497 730,498 731,498 733,499 734,500 736,501 737,502 739,503 740,504 742,506 743,507 745,509 746,510 748,512 749,514 751,515 752,517 754,519 755,520 757,522 758,524 760,525 762,526 763,528 765,529 766,530 768,530 769,531 771,532 772,532 774,532 775,532 777,532 778,531 780,530 781,529 783,528 784,527 786,525 787,523 789,521 790,518 792,515 793,512 795,508 796,504 798,500 799,495 801,489 802,484 804,477 805,471 807,465 809,459 810,455 812,452 813,452 815,454 816,458 818,464 819,470 821,477 822,485 824,491 825,498 827,504 828,509 830,515 831,519 833,524 834,528 836,531 837,534 839,537 840,540 842,542 843,544 845,545 846,546 848,547 849,548 851,548 852,548 854,548 855,548 857,547 859,546 860,544 862,542 863,540 865,538 866,535 868,531 869,528 871,524 872,519 874,514 875,508 877,502 878,496 880,489 881,482 883,476 884,471 886,468 887,467 889,469 890,474 892,480 893,487 895,494 896,501 898,508 899,515 901,520 902,526 904,531 906,535 907,539 909,543 910,546 912,549 913,552 915,554 916,555 918,557 919,558 921,559 922,559 924,559 925,559 927,558 928,557 930,556 931,554 933,552 934,549 936,546 937,543 939,539 940,535 942,530 943,525 945,519 946,513 948,507 949,502 951,497 952,494 954,494 956,496 957,501 959,507 960,515 962,523 963,530 965,538 966,545 968,552 969,559 971,565 972,570 974,575 975,580 977,584 978,588 980,592 981,595 983,598 984,601 986,604 987,606 989,608 990,610 992,611 993,613 995,614 996,615 998,616 999,616 1001,616 1003,617 "/>
<polyline fill="none" opacity="1" stroke="#0082C8" stroke-width="1" points="130,255 131,255 133,255 134,255 136,255 137,255 139,255 140,255 142,255 143,255 145,255 146,255 148,255 149,256 151,256 152,256 154,256 155,256 157,256 158,256 160,256 161,256 163,256 164,256 166,256 167,256 169,256 170,256 172,255 173,255 175,255 176,255 178,255 180,255 181,255 183,255 184,255 186,255 187,255 189,255 190,255 192,255 193,255 195,255 196,256 198,256 199,256 201,256 202,256 204,256 205,256 207,257 208,257 210,257 211,257 213,257 214,257 216,257 217,257 219,257 220,257 222,257 223,257 225,257 227,257 228,257 230,257 231,257 233,257 234,257 236,257 237,257 239,257 240,257 242,257 243,257 245,257 246,257 248,257 249,257 251,257 252,257 254,257 255,257 257,257 258,257 260,256 261,256 263,256 264,256 266,256 267,256 269,256 270,256 272,256 273,256 275,256 277,256 278,256 280,256 281,256 283,256 284,256 286,256 287,256 289,256 290,257 292,257 293,257 295,257 296,257 298,258 299,258 301,258 302,258 304,258 305,259 307,259 308,259 310,259 311,260 313,260 314,260 316,260 317,260 319,260 320,260 322,260 324,260 325,260 327,260 328,260 330,260 331,260 333,260 334,260 336,260 337,260 339,260 340,260 342,260 343,260 345,260 346,260 348,260 349,260 351,260 352,260 354,260 355,260 357,260 358,261 360,261 361,261 363,261 364,261 366,261 367,262 369,262 370,262 372,262 374,262 375,262 377,262 378,262 380,262 381,263 383,263 384,263 386,263 387,263 389,263 390,263 392,263 393,263 395,263 396,263 398,263 399,263 401,263 402,263 404,263 405,263 407,263 408,263 410,264 411,264 413,264 414,264 416,265 417,265 419,265 421,266 422,266 424,266 425,266 427,267 428,267 430,267 431,267 433,268 434,268 436,268 437,268 439,268 440,268 442,268 443,268 445,268 446,268 448,268 449,268 451,268 452,268 454,268 455,267 457,267 458,267 460,267 461,267 463,267 464,267 466,267 467,267 469,267 471,266 472,266 474,266 475,266 477,266 478,266 480,266 481,266 483,266 484,266 486,266 487,266 489,266 490,266 492,266 493,266 495,266 496,267 498,267 499,267 501,267 502,267 504,268 505,268 507,268 508,269 510,269 511,270 513,270 514,271 516,271 518,272 519,272 521,273 522,273 524,274 525,274 527,275 528,275 530,276 531,276 533,276 534,277 536,277 537,277 539,277 540,278 542,278 543,278 545,278 546,278 548,278 549,278 551,279 552,279 554,279 555,279 557,279 558,280 560,280 561,280 563,281 564,281 566,282 568,283 569,283 571,284 572,285 574,286 575,287 577,288 578,289 580,290 581,291 583,292 584,294 586,295 587,296 589,297 590,298 592,299 593,300 595,301 596,303 598,304 599,305 601,306 602,307 604,308 605,309 607,310 608,311 610,311 611,312 613,313 615,314 616,315 618,316 619,317 621,317 622,318 624,319 625,320 627,320 628,321 630,321 631,322 633,322 634,323 636,323 637,323 639,323 640,323 642,323 643,323 645,322 646,322 648,322 649,321 651,321 652,320 654,320 655,319 657,319 658,318 660,318 661,318 663,318 665,319 666,319 668,320 669,321 671,323 672,325 674,327 675,329 677,331 678,334 680,337 681,340 683,343 684,345 686,348 687,351 689,354 690,357 692,359 693,362 695,364 696,366 698,368 699,370 701,372 702,374 704,375 705,377 707,378 708,379 710,380 712,381 713,382 715,383 716,383 718,384 719,384 721,385 722,385 724,386 725,386 727,387 728,387 730,388 731,388 733,389 734,390 736,391 737,392 739,393 740,394 742,396 743,397 745,399 746,400 748,402 749,404 751,405 752,407 754,409 755,410 757,412 758,414 760,415 762,416 763,418 765,419 766,420 768,420 769,421 771,421 772,422 774,422 775,422 777,422 778,421 780,420 781,419 783,418 784,417 786,415 787,413 789,411 790,408 792,405 793,402 795,398 796,394 798,390 799,385 801,379 802,374 804,367 805,361 807,355 809,349 810,345 812,342 813,342 815,344 816,348 818,354 819,360 821,367 822,375 824,381 825,388 827,394 828,399 830,405 831,409 833,414 834,418 836,421 837,424 839,427 840,430 842,432 843,434 845,435 846,436 848,437 849,438 851,438 852,438 854,438 855,438 857,437 859,436 860,434 862,432 863,430 865,428 866,425 868,421 869,418 871,414 872,409 874,404 875,398 877,392 878,386 880,379 881,372 883,366 884,361 886,358 887,357 889,359 890,364 892,370 893,377 895,384 896,391 898,398 899,405 901,410 902,416 904,421 906,425 907,429 909,433 910,436 912,439 913,442 915,444 916,445 918,447 919,448 921,448 922,449 924,449 925,449 927,448 928,447 930,446 931,444 933,442 934,439 936,436 937,433 939,429 940,425 942,420 943,415 945,409 946,403 948,397 949,392 951,387 952,384 954,384 956,386 957,391 959,397 960,405 962,413 963,420 965,428 966,435 968,442 969,449 971,454 972,460 974,465 975,470 977,474 978,478 980,482 981,485 983,488 984,491 986,494 987,496 989,498 990,500 992,501 993,503 995,504 996,505 998,506 999,506 1001,506 1003,507 "/>
<rect x="655" y="260" width="344" height="157" opacity="0.8" fill="#FFFFFF" stroke="none"/>
<rect x="655" y="260" width="344" height="157" opacity="1" fill="none" stroke="#000000"/>
<text x="695" y="270" dy="0.76em" text-anchor="start" font-family="sans-serif" font-size="24.193548387096776" opacity="1" fill="#000000">
log_power
</text>
<text x="695" y="308" dy="0.76em" text-anchor="start" font-family="sans-serif" font-size="24.193548387096776" opacity="1" fill="#000000">
spectral_envelope
</text>
<text x="695" y="345" dy="0.76em" text-anchor="start" font-family="sans-serif" font-size="24.193548387096776" opacity="1" fill="#000000">
levinson_durbin_log_power
</text>
<text x="695" y="383" dy="0.76em" text-anchor="start" font-family="sans-serif" font-size="24.193548387096776" opacity="1" fill="#000000">
burg_log_power
</text>
<polyline fill="none" opacity="1" stroke="#E6194B" stroke-width="1" points="665,282 685,282 "/>
<polyline fill="none" opacity="1" stroke="#3CB44B" stroke-width="1" points="665,320 685,320 "/>
<polyline fill="none" opacity="1" stroke="#FFE119" stroke-width="1" points="665,357 685,357 "/>
<polyline fill="none" opacity="1" stroke="#0082C8" stroke-width="1" points="665,395 685,395 "/>
</svg>
