<svg width="1024" height="768" viewBox="0 0 1024 768" xmlns="http://www.w3.org/2000/svg">
<rect x="0" y="0" width="1024" height="768" opacity="1" fill="#FFFFFF" stroke="none"/>
<line opacity="0.1" stroke="#000000" stroke-width="1" x1="130" y1="657" x2="130" y2="20"/>
<line opacity="0.1" stroke="#000000" stroke-width="1" x1="140" y1="657" x2="140" y2="20"/>
<line opacity="0.1" stroke="#000000" stroke-width="1" x1="151" y1="657" x2="151" y2="20"/>
<line opacity="0.1" stroke="#000000" stroke-width="1" x1="162" y1="657" x2="162" y2="20"/>
<line opacity="0.1" stroke="#000000" stroke-width="1" x1="173" y1="657" x2="173" y2="20"/>
<line opacity="0.1" stroke="#000000" stroke-width="1" x1="184" y1="657" x2="184" y2="20"/>
<line opacity="0.1" stroke="#000000" stroke-width="1" x1="195" y1="657" x2="195" y2="20"/>
<line opacity="0.1" stroke="#000000" stroke-width="1" x1="206" y1="657" x2="206" y2="20"/>
<line opacity="0.1" stroke="#000000" stroke-width="1" x1="217" y1="657" x2="217" y2="20"/>
<line opacity="0.1" stroke="#000000" stroke-width="1" x1="228" y1="657" x2="228" y2="20"/>
<line opacity="0.1" stroke="#000000" stroke-width="1" x1="239" y1="657" x2="239" y2="20"/>
<line opacity="0.1" stroke="#000000" stroke-width="1" x1="250" y1="657" x2="250" y2="20"/>
<line opacity="0.1" stroke="#000000" stroke-width="1" x1="260" y1="657" x2="260" y2="20"/>
<line opacity="0.1" stroke="#000000" stroke-width="1" x1="271" y1="657" x2="271" y2="20"/>
<line opacity="0.1" stroke="#000000" stroke-width="1" x1="282" y1="657" x2="282" y2="20"/>
<line opacity="0.1" stroke="#000000" stroke-width="1" x1="293" y1="657" x2="293" y2="20"/>
<line opacity="0.1" stroke="#000000" stroke-width="1" x1="304" y1="657" x2="304" y2="20"/>
<line opacity="0.1" stroke="#000000" stroke-width="1" x1="315" y1="657" x2="315" y2="20"/>
<line opacity="0.1" stroke="#000000" stroke-width="1" x1="326" y1="657" x2="326" y2="20"/>
<line opacity="0.1" stroke="#000000" stroke-width="1" x1="337" y1="657" x2="337" y2="20"/>
<line opacity="0.1" stroke="#000000" stroke-width="1" x1="348" y1="657" x2="348" y2="20"/>
<line opacity="0.1" stroke="#000000" stroke-width="1" x1="359" y1="657" x2="359" y2="20"/>
<line opacity="0.1" stroke="#000000" stroke-width="1" x1="370" y1="657" x2="370" y2="20"/>
<line opacity="0.1" stroke="#000000" stroke-width="1" x1="380" y1="657" x2="380" y2="20"/>
<line opacity="0.1" stroke="#000000" stroke-width="1" x1="391" y1="657" x2="391" y2="20"/>
<line opacity="0.1" stroke="#000000" stroke-width="1" x1="402" y1="657" x2="402" y2="20"/>
<line opacity="0.1" stroke="#000000" stroke-width="1" x1="413" y1="657" x2="413" y2="20"/>
<line opacity="0.1" stroke="#000000" stroke-width="1" x1="424" y1="657" x2="424" y2="20"/>
<line opacity="0.1" stroke="#000000" stroke-width="1" x1="435" y1="657" x2="435" y2="20"/>
<line opacity="0.1" stroke="#000000" stroke-width="1" x1="446" y1="657" x2="446" y2="20"/>
<line opacity="0.1" stroke="#000000" stroke-width="1" x1="457" y1="657" x2="457" y2="20"/>
<line opacity="0.1" stroke="#000000" stroke-width="1" x1="468" y1="657" x2="468" y2="20"/>
<line opacity="0.1" stroke="#000000" stroke-width="1" x1="479" y1="657" x2="479" y2="20"/>
<line opacity="0.1" stroke="#000000" stroke-width="1" x1="490" y1="657" x2="490" y2="20"/>
<line opacity="0.1" stroke="#000000" stroke-width="1" x1="501" y1="657" x2="501" y2="20"/>
<line opacity="0.1" stroke="#000000" stroke-width="1" x1="511" y1="657" x2="511" y2="20"/>
<line opacity="0.1" stroke="#000000" stroke-width="1" x1="522" y1="657" x2="522" y2="20"/>
<line opacity="0.1" stroke="#000000" stroke-width="1" x1="533" y1="657" x2="533" y2="20"/>
<line opacity="0.1" stroke="#000000" stroke-width="1" x1="544" y1="657" x2="544" y2="20"/>
<line opacity="0.1" stroke="#000000" stroke-width="1" x1="555" y1="657" x2="555" y2="20"/>
<line opacity="0.1" stroke="#000000" stroke-width="1" x1="566" y1="657" x2="566" y2="20"/>
<line opacity="0.1" stroke="#000000" stroke-width="1" x1="577" y1="657" x2="577" y2="20"/>
<line opacity="0.1" stroke="#000000" stroke-width="1" x1="588" y1="657" x2="588" y2="20"/>
<line opacity="0.1" stroke="#000000" stroke-width="1" x1="599" y1="657" x2="599" y2="20"/>
<line opacity="0.1" stroke="#000000" stroke-width="1" x1="610" y1="657" x2="610" y2="20"/>
<line opacity="0.1" stroke="#000000" stroke-width="1" x1="621" y1="657" x2="621" y2="20"/>
<line opacity="0.1" stroke="#000000" stroke-width="1" x1="631" y1="657" x2="631" y2="20"/>
<line opacity="0.1" stroke="#000000" stroke-width="1" x1="642" y1="657" x2="642" y2="20"/>
<line opacity="0.1" stroke="#000000" stroke-width="1" x1="653" y1="657" x2="653" y2="20"/>
<line opacity="0.1" stroke="#000000" stroke-width="1" x1="664" y1="657" x2="664" y2="20"/>
<line opacity="0.1" stroke="#000000" stroke-width="1" x1="675" y1="657" x2="675" y2="20"/>
<line opacity="0.1" stroke="#000000" stroke-width="1" x1="686" y1="657" x2="686" y2="20"/>
<line opacity="0.1" stroke="#000000" stroke-width="1" x1="697" y1="657" x2="697" y2="20"/>
<line opacity="0.1" stroke="#000000" stroke-width="1" x1="708" y1="657" x2="708" y2="20"/>
<line opacity="0.1" stroke="#000000" stroke-width="1" x1="719" y1="657" x2="719" y2="20"/>
<line opacity="0.1" stroke="#000000" stroke-width="1" x1="730" y1="657" x2="730" y2="20"/>
<line opacity="0.1" stroke="#000000" stroke-width="1" x1="741" y1="657" x2="741" y2="20"/>
<line opacity="0.1" stroke="#000000" stroke-width="1" x1="752" y1="657" x2="752" y2="20"/>
<line opacity="0.1" stroke="#000000" stroke-width="1" x1="762" y1="657" x2="762" y2="20"/>
<line opacity="0.1" stroke="#000000" stroke-width="1" x1="773" y1="657" x2="773" y2="20"/>
<line opacity="0.1" stroke="#000000" stroke-width="1" x1="784" y1="657" x2="784" y2="20"/>
<line opacity="0.1" stroke="#000000" stroke-width="1" x1="795" y1="657" x2="795" y2="20"/>
<line opacity="0.1" stroke="#000000" stroke-width="1" x1="806" y1="657" x2="806" y2="20"/>
<line opacity="0.1" stroke="#000000" stroke-width="1" x1="817" y1="657" x2="817" y2="20"/>
<line opacity="0.1" stroke="#000000" stroke-width="1" x1="828" y1="657" x2="828" y2="20"/>
<line opacity="0.1" stroke="#000000" stroke-width="1" x1="839" y1="657" x2="839" y2="20"/>
<line opacity="0.1" stroke="#000000" stroke-width="1" x1="850" y1="657" x2="850" y2="20"/>
<line opacity="0.1" stroke="#000000" stroke-width="1" x1="861" y1="657" x2="861" y2="20"/>
<line opacity="0.1" stroke="#000000" stroke-width="1" x1="872" y1="657" x2="872" y2="20"/>
<line opacity="0.1" stroke="#000000" stroke-width="1" x1="882" y1="657" x2="882" y2="20"/>
<line opacity="0.1" stroke="#000000" stroke-width="1" x1="893" y1="657" x2="893" y2="20"/>
<line opacity="0.1" stroke="#000000" stroke-width="1" x1="904" y1="657" x2="904" y2="20"/>
<line opacity="0.1" stroke="#000000" stroke-width="1" x1="915" y1="657" x2="915" y2="20"/>
<line opacity="0.1" stroke="#000000" stroke-width="1" x1="926" y1="657" x2="926" y2="20"/>
<line opacity="0.1" stroke="#000000" stroke-width="1" x1="937" y1="657" x2="937" y2="20"/>
<line opacity="0.1" stroke="#000000" stroke-width="1" x1="948" y1="657" x2="948" y2="20"/>
<line opacity="0.1" stroke="#000000" stroke-width="1" x1="959" y1="657" x2="959" y2="20"/>
<line opacity="0.1" stroke="#000000" stroke-width="1" x1="970" y1="657" x2="970" y2="20"/>
<line opacity="0.1" stroke="#000000" stroke-width="1" x1="981" y1="657" x2="981" y2="20"/>
<line opacity="0.1" stroke="#000000" stroke-width="1" x1="992" y1="657" x2="992" y2="20"/>
<line opacity="0.1" stroke="#000000" stroke-width="1" x1="1003" y1="657" x2="1003" y2="20"/>
<line opacity="0.1" stroke="#000000" stroke-width="1" x1="130" y1="657" x2="1003" y2="657"/>
<line opacity="0.1" stroke="#000000" stroke-width="1" x1="130" y1="648" x2="1003" y2="648"/>
<line opacity="0.1" stroke="#000000" stroke-width="1" x1="130" y1="639" x2="1003" y2="639"/>
<line opacity="0.1" stroke="#000000" stroke-width="1" x1="130" y1="630" x2="1003" y2="630"/>
<line opacity="0.1" stroke="#000000" stroke-width="1" x1="130" y1="621" x2="1003" y2="621"/>
<line opacity="0.1" stroke="#000000" stroke-width="1" x1="130" y1="612" x2="1003" y2="612"/>
<line opacity="0.1" stroke="#000000" stroke-width="1" x1="130" y1="603" x2="1003" y2="603"/>
<line opacity="0.1" stroke="#000000" stroke-width="1" x1="130" y1="594" x2="1003" y2="594"/>
<line opacity="0.1" stroke="#000000" stroke-width="1" x1="130" y1="585" x2="1003" y2="585"/>
<line opacity="0.1" stroke="#000000" stroke-width="1" x1="130" y1="576" x2="1003" y2="576"/>
<line opacity="0.1" stroke="#000000" stroke-width="1" x1="130" y1="566" x2="1003" y2="566"/>
<line opacity="0.1" stroke="#000000" stroke-width="1" x1="130" y1="557" x2="1003" y2="557"/>
<line opacity="0.1" stroke="#000000" stroke-width="1" x1="130" y1="548" x2="1003" y2="548"/>
<line opacity="0.1" stroke="#000000" stroke-width="1" x1="130" y1="539" x2="1003" y2="539"/>
<line opacity="0.1" stroke="#000000" stroke-width="1" x1="130" y1="530" x2="1003" y2="530"/>
<line opacity="0.1" stroke="#000000" stroke-width="1" x1="130" y1="521" x2="1003" y2="521"/>
<line opacity="0.1" stroke="#000000" stroke-width="1" x1="130" y1="512" x2="1003" y2="512"/>
<line opacity="0.1" stroke="#000000" stroke-width="1" x1="130" y1="503" x2="1003" y2="503"/>
<line opacity="0.1" stroke="#000000" stroke-width="1" x1="130" y1="494" x2="1003" y2="494"/>
<line opacity="0.1" stroke="#000000" stroke-width="1" x1="130" y1="485" x2="1003" y2="485"/>
<line opacity="0.1" stroke="#000000" stroke-width="1" x1="130" y1="475" x2="1003" y2="475"/>
<line opacity="0.1" stroke="#000000" stroke-width="1" x1="130" y1="466" x2="1003" y2="466"/>
<line opacity="0.1" stroke="#000000" stroke-width="1" x1="130" y1="457" x2="1003" y2="457"/>
<line opacity="0.1" stroke="#000000" stroke-width="1" x1="130" y1="448" x2="1003" y2="448"/>
<line opacity="0.1" stroke="#000000" stroke-width="1" x1="130" y1="439" x2="1003" y2="439"/>
<line opacity="0.1" stroke="#000000" stroke-width="1" x1="130" y1="430" x2="1003" y2="430"/>
<line opacity="0.1" stroke="#000000" stroke-width="1" x1="130" y1="421" x2="1003" y2="421"/>
<line opacity="0.1" stroke="#000000" stroke-width="1" x1="130" y1="412" x2="1003" y2="412"/>
<line opacity="0.1" stroke="#000000" stroke-width="1" x1="130" y1="403" x2="1003" y2="403"/>
<line opacity="0.1" stroke="#000000" stroke-width="1" x1="130" y1="394" x2="1003" y2="394"/>
<line opacity="0.1" stroke="#000000" stroke-width="1" x1="130" y1="384" x2="1003" y2="384"/>
<line opacity="0.1" stroke="#000000" stroke-width="1" x1="130" y1="375" x2="1003" y2="375"/>
<line opacity="0.1" stroke="#000000" stroke-width="1" x1="130" y1="366" x2="1003" y2="366"/>
<line opacity="0.1" stroke="#000000" stroke-width="1" x1="130" y1="357" x2="1003" y2="357"/>
<line opacity="0.1" stroke="#000000" stroke-width="1" x1="130" y1="348" x2="1003" y2="348"/>
<line opacity="0.1" stroke="#000000" stroke-width="1" x1="130" y1="339" x2="1003" y2="339"/>
<line opacity="0.1" stroke="#000000" stroke-width="1" x1="130" y1="330" x2="1003" y2="330"/>
<line opacity="0.1" stroke="#000000" stroke-width="1" x1="130" y1="321" x2="1003" y2="321"/>
<line opacity="0.1" stroke="#000000" stroke-width="1" x1="130" y1="312" x2="1003" y2="312"/>
<line opacity="0.1" stroke="#000000" stroke-width="1" x1="130" y1="303" x2="1003" y2="303"/>
<line opacity="0.1" stroke="#000000" stroke-width="1" x1="130" y1="293" x2="1003" y2="293"/>
<line opacity="0.1" stroke="#000000" stroke-width="1" x1="130" y1="284" x2="1003" y2="284"/>
<line opacity="0.1" stroke="#000000" stroke-width="1" x1="130" y1="275" x2="1003" y2="275"/>
<line opacity="0.1" stroke="#000000" stroke-width="1" x1="130" y1="266" x2="1003" y2="266"/>
<line opacity="0.1" stroke="#000000" stroke-width="1" x1="130" y1="257" x2="1003" y2="257"/>
<line opacity="0.1" stroke="#000000" stroke-width="1" x1="130" y1="248" x2="1003" y2="248"/>
<line opacity="0.1" stroke="#000000" stroke-width="1" x1="130" y1="239" x2="1003" y2="239"/>
<line opacity="0.1" stroke="#000000" stroke-width="1" x1="130" y1="230" x2="1003" y2="230"/>
<line opacity="0.1" stroke="#000000" stroke-width="1" x1="130" y1="221" x2="1003" y2="221"/>
<line opacity="0.1" stroke="#000000" stroke-width="1" x1="130" y1="212" x2="1003" y2="212"/>
<line opacity="0.1" stroke="#000000" stroke-width="1" x1="130" y1="202" x2="1003" y2="202"/>
<line opacity="0.1" stroke="#000000" stroke-width="1" x1="130" y1="193" x2="1003" y2="193"/>
<line opacity="0.1" stroke="#000000" stroke-width="1" x1="130" y1="184" x2="1003" y2="184"/>
<line opacity="0.1" stroke="#000000" stroke-width="1" x1="130" y1="175" x2="1003" y2="175"/>
<line opacity="0.1" stroke="#000000" stroke-width="1" x1="130" y1="166" x2="1003" y2="166"/>
<line opacity="0.1" stroke="#000000" stroke-width="1" x1="130" y1="157" x2="1003" y2="157"/>
<line opacity="0.1" stroke="#000000" stroke-width="1" x1="130" y1="148" x2="1003" y2="148"/>
<line opacity="0.1" stroke="#000000" stroke-width="1" x1="130" y1="139" x2="1003" y2="139"/>
<line opacity="0.1" stroke="#000000" stroke-width="1" x1="130" y1="130" x2="1003" y2="130"/>
<line opacity="0.1" stroke="#000000" stroke-width="1" x1="130" y1="121" x2="1003" y2="121"/>
<line opacity="0.1" stroke="#000000" stroke-width="1" x1="130" y1="111" x2="1003" y2="111"/>
<line opacity="0.1" stroke="#000000" stroke-width="1" x1="130" y1="102" x2="1003" y2="102"/>
<line opacity="0.1" stroke="#000000" stroke-width="1" x1="130" y1="93" x2="1003" y2="93"/>
<line opacity="0.1" stroke="#000000" stroke-width="1" x1="130" y1="84" x2="1003" y2="84"/>
<line opacity="0.1" stroke="#000000" stroke-width="1" x1="130" y1="75" x2="1003" y2="75"/>
<line opacity="0.1" stroke="#000000" stroke-width="1" x1="130" y1="66" x2="1003" y2="66"/>
<line opacity="0.1" stroke="#000000" stroke-width="1" x1="130" y1="57" x2="1003" y2="57"/>
<line opacity="0.1" stroke="#000000" stroke-width="1" x1="130" y1="48" x2="1003" y2="48"/>
<line opacity="0.1" stroke="#000000" stroke-width="1" x1="130" y1="39" x2="1003" y2="39"/>
<line opacity="0.1" stroke="#000000" stroke-width="1" x1="130" y1="30" x2="1003" y2="30"/>
<line opacity="0.1" stroke="#000000" stroke-width="1" x1="130" y1="20" x2="1003" y2="20"/>
<text x="20" y="339" dy="0.76em" text-anchor="middle" font-family="sans-serif" font-size="24.193548387096776" opacity="1" fill="#000000" transform="rotate(270, 20, 339)">
Power [dB]
</text>
<text x="567" y="748" dy="-0.5ex" text-anchor="middle" font-family="sans-serif" font-size="24.193548387096776" opacity="1" fill="#000000">
Frequency [Hz]
</text>
<line opacity="0.2" stroke="#000000" stroke-width="1" x1="130" y1="657" x2="130" y2="20"/>
<line opacity="0.2" stroke="#000000" stroke-width="1" x1="239" y1="657" x2="239" y2="20"/>
<line opacity="0.2" stroke="#000000" stroke-width="1" x1="348" y1="657" x2="348" y2="20"/>
<line opacity="0.2" stroke="#000000" stroke-width="1" x1="457" y1="657" x2="457" y2="20"/>
<line opacity="0.2" stroke="#000000" stroke-width="1" x1="566" y1="657" x2="566" y2="20"/>
<line opacity="0.2" stroke="#000000" stroke-width="1" x1="675" y1="657" x2="675" y2="20"/>
<line opacity="0.2" stroke="#000000" stroke-width="1" x1="784" y1="657" x2="784" y2="20"/>
<line opacity="0.2" stroke="#000000" stroke-width="1" x1="893" y1="657" x2="893" y2="20"/>
<line opacity="0.2" stroke="#000000" stroke-width="1" x1="1003" y1="657" x2="1003" y2="20"/>
<line opacity="0.2" stroke="#000000" stroke-width="1" x1="130" y1="612" x2="1003" y2="612"/>
<line opacity="0.2" stroke="#000000" stroke-width="1" x1="130" y1="521" x2="1003" y2="521"/>
<line opacity="0.2" stroke="#000000" stroke-width="1" x1="130" y1="430" x2="1003" y2="430"/>
<line opacity="0.2" stroke="#000000" stroke-width="1" x1="130" y1="339" x2="1003" y2="339"/>
<line opacity="0.2" stroke="#000000" stroke-width="1" x1="130" y1="248" x2="1003" y2="248"/>
<line opacity="0.2" stroke="#000000" stroke-width="1" x1="130" y1="157" x2="1003" y2="157"/>
<line opacity="0.2" stroke="#000000" stroke-width="1" x1="130" y1="66" x2="1003" y2="66"/>
<polyline fill="none" opacity="1" stroke="#000000" stroke-width="1" points="129,20 129,657 "/>
<text x="120" y="612" dy="0.5ex" text-anchor="end" font-family="sans-serif" font-size="24.193548387096776" opacity="1" fill="#000000">
-100.0
</text>
<polyline fill="none" opacity="1" stroke="#000000" stroke-width="1" points="124,612 129,612 "/>
<text x="120" y="521" dy="0.5ex" text-anchor="end" font-family="sans-serif" font-size="24.193548387096776" opacity="1" fill="#000000">
-80.0
</text>
<polyline fill="none" opacity="1" stroke="#000000" stroke-width="1" points="124,521 129,521 "/>
<text x="120" y="430" dy="0.5ex" text-anchor="end" font-family="sans-serif" font-size="24.193548387096776" opacity="1" fill="#000000">
-60.0
</text>
<polyline fill="none" opacity="1" stroke="#000000" stroke-width="1" points="124,430 129,430 "/>
<text x="120" y="339" dy="0.5ex" text-anchor="end" font-family="sans-serif" font-size="24.193548387096776" opacity="1" fill="#000000">
-40.0
</text>
<polyline fill="none" opacity="1" stroke="#000000" stroke-width="1" points="124,339 129,339 "/>
<text x="120" y="248" dy="0.5ex" text-anchor="end" font-family="sans-serif" font-size="24.193548387096776" opacity="1" fill="#000000">
-20.0
</text>
<polyline fill="none" opacity="1" stroke="#000000" stroke-width="1" points="124,248 129,248 "/>
<text x="120" y="157" dy="0.5ex" text-anchor="end" font-family="sans-serif" font-size="24.193548387096776" opacity="1" fill="#000000">
0.0
</text>
<polyline fill="none" opacity="1" stroke="#000000" stroke-width="1" points="124,157 129,157 "/>
<text x="120" y="66" dy="0.5ex" text-anchor="end" font-family="sans-serif" font-size="24.193548387096776" opacity="1" fill="#000000">
20.0
</text>
<polyline fill="none" opacity="1" stroke="#000000" stroke-width="1" points="124,66 129,66 "/>
<polyline fill="none" opacity="1" stroke="#000000" stroke-width="1" points="130,658 1003,658 "/>
<text x="130" y="668" dy="0.76em" text-anchor="middle" font-family="sans-serif" font-size="24.193548387096776" opacity="1" fill="#000000">
0.0
</text>
<polyline fill="none" opacity="1" stroke="#000000" stroke-width="1" points="130,658 130,663 "/>
<text x="239" y="668" dy="0.76em" text-anchor="middle" font-family="sans-serif" font-size="24.193548387096776" opacity="1" fill="#000000">
1000.0
</text>
<polyline fill="none" opacity="1" stroke="#000000" stroke-width="1" points="239,658 239,663 "/>
<text x="348" y="668" dy="0.76em" text-anchor="middle" font-family="sans-serif" font-size="24.193548387096776" opacity="1" fill="#000000">
2000.0
</text>
<polyline fill="none" opacity="1" stroke="#000000" stroke-width="1" points="348,658 348,663 "/>
<text x="457" y="668" dy="0.76em" text-anchor="middle" font-family="sans-serif" font-size="24.193548387096776" opacity="1" fill="#000000">
3000.0
</text>
<polyline fill="none" opacity="1" stroke="#000000" stroke-width="1" points="457,658 457,663 "/>
<text x="566" y="668" dy="0.76em" text-anchor="middle" font-family="sans-serif" font-size="24.193548387096776" opacity="1" fill="#000000">
4000.0
</text>
<polyline fill="none" opacity="1" stroke="#000000" stroke-width="1" points="566,658 566,663 "/>
<text x="675" y="668" dy="0.76em" text-anchor="middle" font-family="sans-serif" font-size="24.193548387096776" opacity="1" fill="#000000">
5000.0
</text>
<polyline fill="none" opacity="1" stroke="#000000" stroke-width="1" points="675,658 675,663 "/>
<text x="784" y="668" dy="0.76em" text-anchor="middle" font-family="sans-serif" font-size="24.193548387096776" opacity="1" fill="#000000">
6000.0
</text>
<polyline fill="none" opacity="1" stroke="#000000" stroke-width="1" points="784,658 784,663 "/>
<text x="893" y="668" dy="0.76em" text-anchor="middle" font-family="sans-serif" font-size="24.193548387096776" opacity="1" fill="#000000">
7000.0
</text>
<polyline fill="none" opacity="1" stroke="#000000" stroke-width="1" points="893,658 893,663 "/>
<text x="1003" y="668" dy="0.76em" text-anchor="middle" font-family="sans-serif" font-size="24.193548387096776" opacity="1" fill="#000000">
8000.0
</text>
<polyline fill="none" opacity="1" stroke="#000000" stroke-width="1" points="1003,658 1003,663 "/>
<polyline fill="none" opacity="1" stroke="#E6194B" stroke-width="1" points="130,288 131,250 133,234 134,240 136,198 137,229 139,247 140,207 142,156 143,153 145,223 146,212 148,156 149,142 151,225 152,161 154,174 155,186 157,181 158,168 160,180 161,184 163,220 164,183 166,145 167,145 169,171 170,187 172,178 173,209 175,195 176,176 178,187 180,223 181,216 183,245 184,237 186,208 187,193 189,163 190,158 192,161 193,238 195,179 196,180 198,196 199,189 201,158 202,160 204,192 205,142 207,127 208,131 210,140 211,153 213,132 214,125 216,163 217,168 219,184 220,249 222,191 223,172 225,217 227,245 228,177 230,170 231,194 233,184 234,184 236,193 237,205 239,256 240,170 242,158 243,173 245,198 246,185 248,179 249,203 251,187 252,171 254,195 255,205 257,202 258,212 260,193 261,199 263,213 264,238 266,206 267,226 269,230 270,253 272,234 273,207 275,260 277,213 278,193 280,196 281,189 283,175 284,168 286,190 287,159 289,155 290,182 292,176 293,147 295,154 296,149 298,146 299,158 301,185 302,184 304,153 305,165 307,182 308,210 310,258 311,189 313,197 314,227 316,203 317,208 319,198 320,180 322,190 324,201 325,202 327,186 328,193 330,206 331,204 333,202 334,227 336,243 337,261 339,257 340,195 342,195 343,266 345,244 346,272 348,256 349,223 351,201 352,195 354,211 355,222 357,227 358,180 360,193 361,205 363,202 364,283 366,256 367,240 369,225 370,251 372,221 374,278 375,201 377,234 378,211 380,209 381,224 383,227 384,238 386,283 387,275 389,219 390,209 392,235 393,216 395,239 396,229 398,210 399,237 401,232 402,228 404,237 405,214 407,220 408,223 410,214 411,273 413,214 414,242 416,224 417,222 419,254 421,251 422,254 424,265 425,264 427,299 428,289 430,245 431,230 433,250 434,263 436,259 437,310 439,243 440,256 442,291 443,260 445,227 446,220 448,238 449,243 451,230 452,241 454,255 455,255 457,245 458,287 460,329 461,305 463,291 464,305 466,289 467,230 469,237 471,327 472,252 474,271 475,260 477,260 478,249 480,230 481,224 483,233 484,252 486,266 487,264 489,265 490,226 492,218 493,233 495,246 496,243 498,245 499,243 501,246 502,252 504,251 505,245 507,237 508,246 510,270 511,267 513,249 514,257 516,263 518,274 519,368 521,339 522,281 524,257 525,256 527,257 528,247 530,248 531,261 533,268 534,267 536,282 537,288 539,307 540,324 542,277 543,269 545,279 546,282 548,265 549,265 551,293 552,305 554,284 555,268 557,271 558,287 560,292 561,293 563,292 564,290 566,276 568,267 569,274 571,310 572,321 574,292 575,299 577,307 578,287 580,290 581,343 583,356 584,357 586,302 587,291 589,294 590,292 592,297 593,326 595,358 596,352 598,308 599,323 601,402 602,340 604,316 605,309 607,304 608,305 610,380 611,350 613,349 615,321 616,339 618,338 619,336 621,312 622,302 624,316 625,366 627,343 628,345 630,389 631,376 633,335 634,334 636,326 637,323 639,396 640,325 642,304 643,329 645,377 646,390 648,342 649,329 651,331 652,355 654,386 655,388 657,325 658,312 660,320 661,321 663,316 665,329 666,376 668,349 669,382 671,360 672,318 674,315 675,327 677,322 678,343 680,373 681,343 683,361 684,379 686,439 687,489 689,492 690,502 692,465 693,448 695,427 696,362 698,349 699,331 701,361 702,461 704,470 705,463 707,465 708,457 710,420 712,378 713,351 715,343 716,373 718,412 719,374 721,374 722,405 724,373 725,366 727,406 728,413 730,441 731,458 733,441 734,406 736,389 737,350 739,365 740,419 742,418 743,479 745,508 746,478 748,467 749,376 751,352 752,364 754,414 755,474 757,512 758,534 760,468 762,539 763,472 765,500 766,502 768,504 769,492 771,485 772,460 774,446 775,448 777,407 778,372 780,379 781,434 783,506 784,515 786,489 787,504 789,543 790,494 792,431 793,382 795,358 796,360 798,350 799,379 801,483 802,490 804,437 805,390 807,393 809,391 810,407 812,389 813,363 815,353 816,360 818,348 819,365 821,478 822,472 824,502 825,502 827,446 828,389 830,356 831,362 833,419 834,438 836,457 837,477 839,485 840,417 842,383 843,365 845,401 846,414 848,416 849,450 851,523 852,447 854,414 855,439 857,429 859,453 860,494 862,496 863,521 865,519 866,527 868,544 869,486 871,468 872,480 874,463 875,469 877,415 878,393 880,390 881,374 883,351 884,359 886,432 887,425 889,384 890,360 892,389 893,398 895,384 896,398 898,452 899,443 901,396 902,390 904,419 906,497 907,440 909,400 910,400 912,437 913,498 915,551 916,429 918,392 919,394 921,413 922,407 924,400 925,424 927,468 928,607 930,491 931,479 933,484 934,480 936,487 937,518 939,535 940,432 942,383 943,392 945,428 946,379 948,367 949,388 951,384 952,392 954,433 956,420 957,442 959,454 960,472 962,496 963,520 965,441 966,425 968,440 969,457 971,406 972,384 974,411 975,401 977,385 978,423 980,512 981,501 983,555 984,550 986,477 987,457 989,463 990,465 992,511 993,529 995,531 996,533 998,536 999,561 1001,565 1003,579 1004,565 1004,561 1004,536 1004,533 1004,531 1004,529 1004,511 1004,465 1004,463 1004,457 1004,477 1004,550 1004,555 1004,501 1004,512 1004,423 1004,385 1004,401 1004,411 1004,384 1004,406 1004,457 1004,440 1004,425 1004,441 1004,520 1004,496 1004,472 1004,454 1004,442 1004,420 1004,433 1004,392 1004,384 1004,388 1004,367 1004,379 1004,428 1004,392 1004,383 1004,432 1004,535 1004,518 1004,487 1004,480 1004,484 1004,479 1004,491 1004,607 1004,468 1004,424 1004,400 1004,407 1004,413 1004,394 1004,392 1004,429 1004,551 1004,498 1004,437 1004,400 1004,400 1004,440 1004,497 1004,419 1004,390 1004,396 1004,443 1004,452 1004,398 1004,384 1004,398 1004,389 1004,360 1004,384 1004,425 1004,432 1004,359 1004,351 1004,374 1004,390 1004,393 1004,415 1004,469 1004,463 1004,480 1004,468 1004,486 1004,544 1004,527 1004,519 1004,521 1004,496 1004,494 1004,453 1004,429 1004,439 1004,414 1004,447 1004,523 1004,450 1004,416 1004,414 1004,401 1004,365 1004,383 1004,417 1004,485 1004,477 1004,457 1004,438 1004,419 1004,362 1004,356 1004,389 1004,446 1004,502 1004,502 1004,472 1004,478 1004,365 1004,348 1004,360 1004,353 1004,363 1004,389 1004,407 1004,391 1004,393 1004,390 1004,437 1004,490 1004,483 1004,379 1004,350 1004,360 1004,358 1004,382 1004,431 1004,494 1004,543 1004,504 1004,489 1004,515 1004,506 1004,434 1004,379 1004,372 1004,407 1004,448 1004,446 1004,460 1004,485 1004,492 1004,504 1004,502 1004,500 1004,472 1004,539 1004,468 1004,534 1004,512 1004,474 1004,414 1004,364 1004,352 1004,376 1004,467 1004,478 1004,508 1004,479 1004,418 1004,419 1004,365 1004,350 1004,389 1004,406 1004,441 1004,458 1004,441 1004,413 1004,406 1004,366 1004,373 1004,405 1004,374 1004,374 1004,412 1004,373 1004,343 1004,351 1004,378 1004,420 1004,457 1004,465 1004,463 1004,470 1004,461 1004,361 1004,331 1004,349 1004,362 1004,427 1004,448 1004,465 1004,502 1004,492 1004,489 1004,439 1004,379 1004,361 1004,343 1004,373 1004,343 1004,322 1004,327 1004,315 1004,318 1004,360 1004,382 1004,349 1004,376 1004,329 1004,316 1004,321 1004,320 1004,312 1004,325 1004,388 1004,386 1004,355 1004,331 1004,329 1004,342 1004,390 1004,377 1004,329 1004,304 1004,325 1004,396 1004,323 1004,326 1004,334 1004,335 1004,376 1004,389 1004,345 1004,343 1004,366 1004,316 1004,302 1004,312 1004,336 1004,338 1004,339 1004,321 1004,349 1004,350 1004,380 1004,305 1004,304 1004,309 1004,316 1004,340 1004,402 1004,323 1004,308 1004,352 1004,358 1004,326 1004,297 1004,292 1004,294 1004,291 1004,302 1004,357 1004,356 1004,343 1004,290 1004,287 1004,307 1004,299 1004,292 1004,321 1004,310 1004,274 1004,267 1004,276 1004,290 1004,292 1004,293 1004,292 1004,287 1004,271 1004,268 1004,284 1004,305 1004,293 1004,265 1004,265 1004,282 1004,279 1004,269 1004,277 1004,324 1004,307 1004,288 1004,282 1004,267 1004,268 1004,261 1004,248 1004,247 1004,257 1004,256 1004,257 1004,281 1004,339 1004,368 1004,274 1004,263 1004,257 1004,249 1004,267 1004,270 1004,246 1004,237 1004,245 1004,251 1004,252 1004,246 1004,243 1004,245 1004,243 1004,246 1004,233 1004,218 1004,226 1004,265 1004,264 1004,266 1004,252 1004,233 1004,224 1004,230 1004,249 1004,260 1004,260 1004,271 1004,252 1004,327 1004,237 1004,230 1004,289 1004,305 1004,291 1004,305 1004,329 1004,287 1004,245 1004,255 1004,255 1004,241 1004,230 1004,243 1004,238 1004,220 1004,227 1004,260 1004,291 1004,256 1004,243 1004,310 1004,259 1004,263 1004,250 1004,230 1004,245 1004,289 1004,299 1004,264 1004,265 1004,254 1004,251 1004,254 1004,222 1004,224 1004,242 1004,214 1004,273 1004,214 1004,223 1004,220 1004,214 1004,237 1004,228 1004,232 1004,237 1004,210 1004,229 1004,239 1004,216 1004,235 1004,209 1004,219 1004,275 1004,283 1004,238 1004,227 1004,224 1004,209 1004,211 1004,234 1004,201 1004,278 1004,221 1004,251 1004,225 1004,240 1004,256 1004,283 1004,202 1004,205 1004,193 1004,180 1004,227 1004,222 1004,211 1004,195 1004,201 1004,223 1004,256 1004,272 1004,244 1004,266 1004,195 1004,195 1004,257 1004,261 1004,243 1004,227 1004,202 1004,204 1004,206 1004,193 1004,186 1004,202 1004,201 1004,190 1004,180 1004,198 1004,208 1004,203 1004,227 1004,197 1004,189 1004,258 1004,210 1004,182 1004,165 1004,153 1004,184 1004,185 1004,158 1004,146 1004,149 1004,154 1004,147 1004,176 1004,182 1004,155 1004,159 1004,190 1004,168 1004,175 1004,189 1004,196 1004,193 1004,213 1004,260 1004,207 1004,234 1004,253 1004,230 1004,226 1004,206 1004,238 1004,213 1004,199 1004,193 1004,212 1004,202 1004,205 1004,195 1004,171 1004,187 1004,203 1004,179 1004,185 1004,198 1004,173 1004,158 1004,170 1004,256 1004,205 1004,193 1004,184 1004,184 1004,194 1004,170 1004,177 1004,245 1004,217 1004,172 1004,191 1004,249 1004,184 1004,168 1004,163 1004,125 1004,132 1004,153 1004,140 1004,131 1004,127 1004,142 1004,192 1004,160 1004,158 1004,189 1004,196 1004,180 1004,179 1004,238 1004,161 1004,158 1004,163 1004,193 1004,208 1004,237 1004,245 1004,216 1004,223 1004,187 1004,176 1004,195 1004,209 1004,178 1004,187 1004,171 1004,145 1004,145 1004,183 1004,220 1004,184 1004,180 1004,168 1004,181 1004,186 1004,174 1004,161 1004,225 1004,142 1004,156 1004,212 1004,223 1004,153 1004,156 1004,207 1004,247 1004,229 1004,198 1004,240 1004,234 1004,250 "/>
<polyline fill="none" opacity="1" stroke="#3CB44B" stroke-width="1" points="130,265 131,265 133,265 134,265 136,264 137,264 139,263 140,262 142,262 143,261 145,260 146,259 148,258 149,257 151,256 152,255 154,254 155,254 157,253 158,252 160,251 161,251 163,251 164,250 166,250 167,250 169,250 170,250 172,250 173,250 175,250 176,250 178,251 180,251 181,251 183,251 184,252 186,252 187,252 189,252 190,252 192,252 193,251 195,251 196,251 198,250 199,250 201,249 202,249 204,248 205,248 207,247 208,247 210,246 211,246 213,245 214,245 216,245 217,245 219,245 220,245 222,246 223,246 225,247 227,248 228,249 230,250 231,251 233,253 234,254 236,255 237,257 239,258 240,260 242,261 243,263 245,264 246,265 248,266 249,267 251,268 252,268 254,269 255,269 257,269 258,269 260,269 261,269 263,269 264,268 266,267 267,266 269,265 270,264 272,263 273,262 275,260 277,259 278,258 280,256 281,255 283,254 284,253 286,252 287,251 289,251 290,250 292,250 293,250 295,250 296,251 298,251 299,252 301,253 302,254 304,256 305,257 307,258 308,260 310,262 311,263 313,265 314,267 316,268 317,270 319,271 320,273 322,274 324,275 325,276 327,277 328,278 330,279 331,280 333,280 334,281 336,281 337,281 339,281 340,281 342,282 343,281 345,281 346,281 348,281 349,281 351,281 352,281 354,281 355,281 357,281 358,281 360,281 361,281 363,281 364,281 366,281 367,281 369,282 370,282 372,282 374,283 375,283 377,283 378,284 380,284 381,284 383,285 384,285 386,285 387,286 389,286 390,286 392,286 393,286 395,286 396,287 398,287 399,287 401,287 402,287 404,287 405,288 407,288 408,288 410,289 411,289 413,289 414,290 416,291 417,291 419,292 421,293 422,293 424,294 425,295 427,296 428,297 430,298 431,299 433,300 434,301 436,301 437,302 439,303 440,303 442,304 443,304 445,305 446,305 448,305 449,305 451,305 452,305 454,305 455,304 457,304 458,303 460,303 461,302 463,301 464,300 466,300 467,299 469,298 471,297 472,296 474,296 475,295 477,295 478,294 480,294 481,294 483,294 484,294 486,294 487,294 489,294 490,295 492,295 493,296 495,297 496,298 498,299 499,299 501,300 502,301 504,302 505,303 507,304 508,305 510,306 511,307 513,308 514,309 516,310 518,310 519,311 521,311 522,312 524,312 525,313 527,313 528,313 530,314 531,314 533,314 534,314 536,314 537,315 539,315 540,315 542,315 543,316 545,316 546,316 548,317 549,317 551,318 552,318 554,319 555,320 557,320 558,321 560,322 561,323 563,323 564,324 566,325 568,326 569,326 571,327 572,328 574,329 575,330 577,330 578,331 580,332 581,333 583,333 584,334 586,335 587,335 589,336 590,337 592,337 593,338 595,339 596,339 598,340 599,341 601,341 602,342 604,343 605,343 607,344 608,344 610,345 611,345 613,346 615,346 616,346 618,346 619,347 621,347 622,347 624,347 625,347 627,346 628,346 630,346 631,345 633,345 634,345 636,344 637,344 639,343 640,343 642,342 643,342 645,342 646,342 648,342 649,342 651,342 652,342 654,343 655,343 657,344 658,345 660,346 661,348 663,349 665,351 666,352 668,354 669,356 671,358 672,360 674,362 675,364 677,366 678,368 680,369 681,371 683,373 684,374 686,376 687,377 689,378 690,378 692,379 693,380 695,380 696,380 698,380 699,379 701,379 702,378 704,378 705,377 707,376 708,375 710,374 712,373 713,372 715,371 716,370 718,369 719,368 721,368 722,368 724,367 725,367 727,368 728,368 730,369 731,370 733,371 734,372 736,374 737,375 739,377 740,379 742,381 743,383 745,385 746,387 748,389 749,391 751,393 752,395 754,397 755,398 757,399 758,401 760,402 762,402 763,403 765,403 766,403 768,403 769,402 771,402 772,401 774,400 775,398 777,397 778,395 780,394 781,392 783,389 784,387 786,385 787,383 789,381 790,378 792,376 793,374 795,372 796,370 798,368 799,366 801,365 802,363 804,362 805,361 807,360 809,360 810,360 812,360 813,360 815,360 816,361 818,362 819,362 821,364 822,365 824,366 825,368 827,369 828,371 830,373 831,374 833,376 834,378 836,379 837,381 839,383 840,384 842,386 843,387 845,388 846,389 848,390 849,391 851,391 852,392 854,392 855,392 857,392 859,392 860,392 862,391 863,390 865,389 866,388 868,387 869,386 871,384 872,383 874,381 875,379 877,377 878,376 880,374 881,372 883,370 884,369 886,367 887,366 889,365 890,364 892,363 893,363 895,363 896,363 898,363 899,364 901,364 902,366 904,367 906,368 907,370 909,372 910,373 912,375 913,377 915,379 916,381 918,383 919,385 921,387 922,388 924,389 925,390 927,391 928,392 930,392 931,392 933,392 934,392 936,391 937,390 939,389 940,388 942,386 943,385 945,383 946,381 948,379 949,377 951,375 952,374 954,372 956,371 957,369 959,369 960,368 962,368 963,368 965,369 966,370 968,371 969,373 971,375 972,378 974,381 975,384 977,387 978,391 980,394 981,398 983,402 984,405 986,409 987,412 989,415 990,418 992,421 993,424 995,426 996,428 998,429 999,430 1001,431 1003,431 1004,431 1004,430 1004,429 1004,428 1004,426 1004,424 1004,421 1004,418 1004,415 1004,412 1004,409 1004,405 1004,402 1004,398 1004,394 1004,391 1004,387 1004,384 1004,381 1004,378 1004,375 1004,373 1004,371 1004,370 1004,369 1004,368 1004,368 1004,368 1004,369 1004,369 1004,371 1004,372 1004,374 1004,375 1004,377 1004,379 1004,381 1004,383 1004,385 1004,386 1004,388 1004,389 1004,390 1004,391 1004,392 1004,392 1004,392 1004,392 1004,392 1004,391 1004,390 1004,389 1004,388 1004,387 1004,385 1004,383 1004,381 1004,379 1004,377 1004,375 1004,373 1004,372 1004,370 1004,368 1004,367 1004,366 1004,364 1004,364 1004,363 1004,363 1004,363 1004,363 1004,363 1004,364 1004,365 1004,366 1004,367 1004,369 1004,370 1004,372 1004,374 1004,376 1004,377 1004,379 1004,381 1004,383 1004,384 1004,386 1004,387 1004,388 1004,389 1004,390 1004,391 1004,392 1004,392 1004,392 1004,392 1004,392 1004,392 1004,391 1004,391 1004,390 1004,389 1004,388 1004,387 1004,386 1004,384 1004,383 1004,381 1004,379 1004,378 1004,376 1004,374 1004,373 1004,371 1004,369 1004,368 1004,366 1004,365 1004,364 1004,362 1004,362 1004,361 1004,360 1004,360 1004,360 1004,360 1004,360 1004,360 1004,361 1004,362 1004,363 1004,365 1004,366 1004,368 1004,370 1004,372 1004,374 1004,376 1004,378 1004,381 1004,383 1004,385 1004,387 1004,389 1004,392 1004,394 1004,395 1004,397 1004,398 1004,400 1004,401 1004,402 1004,402 1004,403 1004,403 1004,403 1004,403 1004,402 1004,402 1004,401 1004,399 1004,398 1004,397 1004,395 1004,393 1004,391 1004,389 1004,387 1004,385 1004,383 1004,381 1004,379 1004,377 1004,375 1004,374 1004,372 1004,371 1004,370 1004,369 1004,368 1004,368 1004,367 1004,367 1004,368 1004,368 1004,368 1004,369 1004,370 1004,371 1004,372 1004,373 1004,374 1004,375 1004,376 1004,377 1004,378 1004,378 1004,379 1004,379 1004,380 1004,380 1004,380 1004,380 1004,379 1004,378 1004,378 1004,377 1004,376 1004,374 1004,373 1004,371 1004,369 1004,368 1004,366 1004,364 1004,362 1004,360 1004,358 1004,356 1004,354 1004,352 1004,351 1004,349 1004,348 1004,346 1004,345 1004,344 1004,343 1004,343 1004,342 1004,342 1004,342 1004,342 1004,342 1004,342 1004,342 1004,342 1004,343 1004,343 1004,344 1004,344 1004,345 1004,345 1004,345 1004,346 1004,346 1004,346 1004,347 1004,347 1004,347 1004,347 1004,347 1004,346 1004,346 1004,346 1004,346 1004,345 1004,345 1004,344 1004,344 1004,343 1004,343 1004,342 1004,341 1004,341 1004,340 1004,339 1004,339 1004,338 1004,337 1004,337 1004,336 1004,335 1004,335 1004,334 1004,333 1004,333 1004,332 1004,331 1004,330 1004,330 1004,329 1004,328 1004,327 1004,326 1004,326 1004,325 1004,324 1004,323 1004,323 1004,322 1004,321 1004,320 1004,320 1004,319 1004,318 1004,318 1004,317 1004,317 1004,316 1004,316 1004,316 1004,315 1004,315 1004,315 1004,315 1004,314 1004,314 1004,314 1004,314 1004,314 1004,313 1004,313 1004,313 1004,312 1004,312 1004,311 1004,311 1004,310 1004,310 1004,309 1004,308 1004,307 1004,306 1004,305 1004,304 1004,303 1004,302 1004,301 1004,300 1004,299 1004,299 1004,298 1004,297 1004,296 1004,295 1004,295 1004,294 1004,294 1004,294 1004,294 1004,294 1004,294 1004,294 1004,294 1004,295 1004,295 1004,296 1004,296 1004,297 1004,298 1004,299 1004,300 1004,300 1004,301 1004,302 1004,303 1004,303 1004,304 1004,304 1004,305 1004,305 1004,305 1004,305 1004,305 1004,305 1004,305 1004,304 1004,304 1004,303 1004,303 1004,302 1004,301 1004,301 1004,300 1004,299 1004,298 1004,297 1004,296 1004,295 1004,294 1004,293 1004,293 1004,292 1004,291 1004,291 1004,290 1004,289 1004,289 1004,289 1004,288 1004,288 1004,288 1004,287 1004,287 1004,287 1004,287 1004,287 1004,287 1004,286 1004,286 1004,286 1004,286 1004,286 1004,286 1004,285 1004,285 1004,285 1004,284 1004,284 1004,284 1004,283 1004,283 1004,283 1004,282 1004,282 1004,282 1004,281 1004,281 1004,281 1004,281 1004,281 1004,281 1004,281 1004,281 1004,281 1004,281 1004,281 1004,281 1004,281 1004,281 1004,281 1004,281 1004,281 1004,282 1004,281 1004,281 1004,281 1004,281 1004,281 1004,280 1004,280 1004,279 1004,278 1004,277 1004,276 1004,275 1004,274 1004,273 1004,271 1004,270 1004,268 1004,267 1004,265 1004,263 1004,262 1004,260 1004,258 1004,257 1004,256 1004,254 1004,253 1004,252 1004,251 1004,251 1004,250 1004,250 1004,250 1004,250 1004,251 1004,251 1004,252 1004,253 1004,254 1004,255 1004,256 1004,258 1004,259 1004,260 1004,262 1004,263 1004,264 1004,265 1004,266 1004,267 1004,268 1004,269 1004,269 1004,269 1004,269 1004,269 1004,269 1004,269 1004,268 1004,268 1004,267 1004,266 1004,265 1004,264 1004,263 1004,261 1004,260 1004,258 1004,257 1004,255 1004,254 1004,253 1004,251 1004,250 1004,249 1004,248 1004,247 1004,246 1004,246 1004,245 1004,245 1004,245 1004,245 1004,245 1004,245 1004,246 1004,246 1004,247 1004,247 1004,248 1004,248 1004,249 1004,249 1004,250 1004,250 1004,251 1004,251 1004,251 1004,252 1004,252 1004,252 1004,252 1004,252 1004,252 1004,251 1004,251 1004,251 1004,251 1004,250 1004,250 1004,250 1004,250 1004,250 1004,250 1004,250 1004,250 1004,250 1004,251 1004,251 1004,251 1004,252 1004,253 1004,254 1004,254 1004,255 1004,256 1004,257 1004,258 1004,259 1004,260 1004,261 1004,262 1004,262 1004,263 1004,264 1004,264 1004,265 1004,265 1004,265 "/>
<polyline fill="none" opacity="1" stroke="#FFE119" stroke-width="1" points="130,320 131,320 133,320 134,320 136,321 137,321 139,321 140,321 142,321 143,321 145,321 146,321 148,321 149,321 151,321 152,321 154,321 155,321 157,321 158,321 160,321 161,321 163,321 164,321 166,321 167,321 169,321 170,321 172,321 173,321 175,321 176,321 178,321 180,321 181,321 183,321 184,321 186,321 187,321 189,321 190,321 192,321 193,321 195,321 196,321 198,321 199,321 201,321 202,321 204,321 205,321 207,322 208,322 210,322 211,322 213,322 214,322 216,322 217,322 219,322 220,322 222,322 223,322 225,322 227,322 228,322 230,322 231,322 233,322 234,322 236,322 237,322 239,322 240,322 242,322 243,322 245,322 246,322 248,322 249,322 251,322 252,322 254,322 255,322 257,322 258,322 260,322 261,322 263,322 264,322 266,321 267,321 269,321 270,321 272,321 273,321 275,321 277,321 278,321 280,321 281,321 283,321 284,321 286,321 287,321 289,321 290,321 292,322 293,322 295,322 296,322 298,322 299,322 301,322 302,322 304,323 305,323 307,323 308,323 310,323 311,323 313,323 314,323 316,323 317,323 319,323 320,323 322,323 324,323 325,323 327,323 328,323 330,323 331,323 333,323 334,323 336,323 337,323 339,323 340,323 342,323 343,323 345,323 346,323 348,323 349,323 351,323 352,323 354,323 355,324 357,324 358,324 360,324 361,324 363,324 364,324 366,324 367,324 369,324 370,324 372,324 374,324 375,324 377,324 378,324 380,324 381,324 383,324 384,324 386,324 387,324 389,324 390,324 392,324 393,324 395,324 396,324 398,324 399,325 401,325 402,325 404,325 405,325 407,325 408,325 410,325 411,325 413,326 414,326 416,326 417,326 419,326 421,326 422,326 424,326 425,326 427,326 428,327 430,327 431,327 433,327 434,327 436,327 437,327 439,327 440,327 442,327 443,327 445,327 446,327 448,327 449,327 451,327 452,327 454,327 455,327 457,327 458,327 460,327 461,327 463,327 464,327 466,327 467,327 469,327 471,327 472,327 474,327 475,327 477,327 478,326 480,326 481,326 483,326 484,326 486,326 487,326 489,326 490,326 492,326 493,326 495,326 496,326 498,326 499,327 501,327 502,327 504,327 505,327 507,328 508,328 510,328 511,328 513,329 514,329 516,329 518,329 519,330 521,330 522,330 524,330 525,331 527,331 528,331 530,331 531,331 533,331 534,331 536,331 537,331 539,331 540,331 542,332 543,332 545,332 546,332 548,332 549,332 551,332 552,332 554,333 555,333 557,333 558,333 560,334 561,334 563,334 564,335 566,335 568,335 569,336 571,336 572,336 574,337 575,337 577,338 578,338 580,338 581,339 583,339 584,340 586,340 587,340 589,341 590,341 592,342 593,342 595,343 596,343 598,344 599,345 601,345 602,346 604,346 605,347 607,348 608,348 610,349 611,350 613,350 615,351 616,351 618,352 619,352 621,353 622,353 624,354 625,354 627,355 628,355 630,355 631,355 633,355 634,355 636,355 637,355 639,355 640,355 642,355 643,355 645,354 646,354 648,354 649,353 651,353 652,352 654,352 655,352 657,351 658,351 660,351 661,351 663,352 665,352 666,353 668,353 669,354 671,355 672,356 674,357 675,359 677,360 678,362 680,363 681,364 683,366 684,367 686,368 687,370 689,371 690,372 692,373 693,374 695,375 696,376 698,377 699,378 701,379 702,379 704,380 705,380 707,381 708,381 710,382 712,382 713,383 715,383 716,383 718,384 719,384 721,384 722,385 724,385 725,385 727,386 728,386 730,387 731,387 733,388 734,389 736,389 737,390 739,391 740,391 742,392 743,393 745,394 746,395 748,396 749,396 751,397 752,398 754,399 755,400 757,400 758,401 760,401 762,402 763,402 765,403 766,403 768,404 769,404 771,404 772,404 774,404 775,404 777,403 778,403 780,403 781,402 783,401 784,401 786,400 787,398 789,397 790,396 792,394 793,393 795,391 796,389 798,387 799,384 801,382 802,379 804,376 805,373 807,370 809,368 810,366 812,365 813,365 815,366 816,368 818,371 819,374 821,377 822,380 824,384 825,387 827,390 828,392 830,395 831,397 833,399 834,401 836,403 837,404 839,406 840,407 842,408 843,409 845,410 846,410 848,411 849,411 851,411 852,411 854,411 855,411 857,411 859,410 860,409 862,409 863,408 865,406 866,405 868,403 869,402 871,400 872,397 874,395 875,392 877,389 878,386 880,383 881,380 883,377 884,375 886,373 887,372 889,373 890,375 892,378 893,381 895,385 896,388 898,392 899,395 901,398 902,400 904,403 906,405 907,407 909,409 910,411 912,412 913,413 915,415 916,415 918,416 919,417 921,417 922,417 924,417 925,417 927,417 928,417 930,416 931,415 933,414 934,413 936,411 937,410 939,408 940,406 942,404 943,401 945,398 946,395 948,392 949,389 951,387 952,385 954,385 956,386 957,388 959,391 960,395 962,399 963,403 965,407 966,411 968,414 969,417 971,420 972,423 974,426 975,428 977,430 978,432 980,434 981,436 983,437 984,439 986,440 987,441 989,442 990,443 992,444 993,445 995,445 996,446 998,446 999,446 1001,447 1003,447 1004,447 1004,446 1004,446 1004,446 1004,445 1004,445 1004,444 1004,443 1004,442 1004,441 1004,440 1004,439 1004,437 1004,436 1004,434 1004,432 1004,430 1004,428 1004,426 1004,423 1004,420 1004,417 1004,414 1004,411 1004,407 1004,403 1004,399 1004,395 1004,391 1004,388 1004,386 1004,385 1004,385 1004,387 1004,389 1004,392 1004,395 1004,398 1004,401 1004,404 1004,406 1004,408 1004,410 1004,411 1004,413 1004,414 1004,415 1004,416 1004,417 1004,417 1004,417 1004,417 1004,417 1004,417 1004,417 1004,416 1004,415 1004,415 1004,413 1004,412 1004,411 1004,409 1004,407 1004,405 1004,403 1004,400 1004,398 1004,395 1004,392 1004,388 1004,385 1004,381 1004,378 1004,375 1004,373 1004,372 1004,373 1004,375 1004,377 1004,380 1004,383 1004,386 1004,389 1004,392 1004,395 1004,397 1004,400 1004,402 1004,403 1004,405 1004,406 1004,408 1004,409 1004,409 1004,410 1004,411 1004,411 1004,411 1004,411 1004,411 1004,411 1004,411 1004,410 1004,410 1004,409 1004,408 1004,407 1004,406 1004,404 1004,403 1004,401 1004,399 1004,397 1004,395 1004,392 1004,390 1004,387 1004,384 1004,380 1004,377 1004,374 1004,371 1004,368 1004,366 1004,365 1004,365 1004,366 1004,368 1004,370 1004,373 1004,376 1004,379 1004,382 1004,384 1004,387 1004,389 1004,391 1004,393 1004,394 1004,396 1004,397 1004,398 1004,400 1004,401 1004,401 1004,402 1004,403 1004,403 1004,403 1004,404 1004,404 1004,404 1004,404 1004,404 1004,404 1004,403 1004,403 1004,402 1004,402 1004,401 1004,401 1004,400 1004,400 1004,399 1004,398 1004,397 1004,396 1004,396 1004,395 1004,394 1004,393 1004,392 1004,391 1004,391 1004,390 1004,389 1004,389 1004,388 1004,387 1004,387 1004,386 1004,386 1004,385 1004,385 1004,385 1004,384 1004,384 1004,384 1004,383 1004,383 1004,383 1004,382 1004,382 1004,381 1004,381 1004,380 1004,380 1004,379 1004,379 1004,378 1004,377 1004,376 1004,375 1004,374 1004,373 1004,372 1004,371 1004,370 1004,368 1004,367 1004,366 1004,364 1004,363 1004,362 1004,360 1004,359 1004,357 1004,356 1004,355 1004,354 1004,353 1004,353 1004,352 1004,352 1004,351 1004,351 1004,351 1004,351 1004,352 1004,352 1004,352 1004,353 1004,353 1004,354 1004,354 1004,354 1004,355 1004,355 1004,355 1004,355 1004,355 1004,355 1004,355 1004,355 1004,355 1004,355 1004,355 1004,355 1004,354 1004,354 1004,353 1004,353 1004,352 1004,352 1004,351 1004,351 1004,350 1004,350 1004,349 1004,348 1004,348 1004,347 1004,346 1004,346 1004,345 1004,345 1004,344 1004,343 1004,343 1004,342 1004,342 1004,341 1004,341 1004,340 1004,340 1004,340 1004,339 1004,339 1004,338 1004,338 1004,338 1004,337 1004,337 1004,336 1004,336 1004,336 1004,335 1004,335 1004,335 1004,334 1004,334 1004,334 1004,333 1004,333 1004,333 1004,333 1004,332 1004,332 1004,332 1004,332 1004,332 1004,332 1004,332 1004,332 1004,331 1004,331 1004,331 1004,331 1004,331 1004,331 1004,331 1004,331 1004,331 1004,331 1004,331 1004,330 1004,330 1004,330 1004,330 1004,329 1004,329 1004,329 1004,329 1004,328 1004,328 1004,328 1004,328 1004,327 1004,327 1004,327 1004,327 1004,327 1004,326 1004,326 1004,326 1004,326 1004,326 1004,326 1004,326 1004,326 1004,326 1004,326 1004,326 1004,326 1004,326 1004,326 1004,327 1004,327 1004,327 1004,327 1004,327 1004,327 1004,327 1004,327 1004,327 1004,327 1004,327 1004,327 1004,327 1004,327 1004,327 1004,327 1004,327 1004,327 1004,327 1004,327 1004,327 1004,327 1004,327 1004,327 1004,327 1004,327 1004,327 1004,327 1004,327 1004,327 1004,327 1004,327 1004,327 1004,326 1004,326 1004,326 1004,326 1004,326 1004,326 1004,326 1004,326 1004,326 1004,326 1004,325 1004,325 1004,325 1004,325 1004,325 1004,325 1004,325 1004,325 1004,325 1004,324 1004,324 1004,324 1004,324 1004,324 1004,324 1004,324 1004,324 1004,324 1004,324 1004,324 1004,324 1004,324 1004,324 1004,324 1004,324 1004,324 1004,324 1004,324 1004,324 1004,324 1004,324 1004,324 1004,324 1004,324 1004,324 1004,324 1004,324 1004,324 1004,323 1004,323 1004,323 1004,323 1004,323 1004,323 1004,323 1004,323 1004,323 1004,323 1004,323 1004,323 1004,323 1004,323 1004,323 1004,323 1004,323 1004,323 1004,323 1004,323 1004,323 1004,323 1004,323 1004,323 1004,323 1004,323 1004,323 1004,323 1004,323 1004,323 1004,323 1004,323 1004,323 1004,323 1004,322 1004,322 1004,322 1004,322 1004,322 1004,322 1004,322 1004,322 1004,321 1004,321 1004,321 1004,321 1004,321 1004,321 1004,321 1004,321 1004,321 1004,321 1004,321 1004,321 1004,321 1004,321 1004,321 1004,321 1004,321 1004,322 1004,322 1004,322 1004,322 1004,322 1004,322 1004,322 1004,322 1004,322 1004,322 1004,322 1004,322 1004,322 1004,322 1004,322 1004,322 1004,322 1004,322 1004,322 1004,322 1004,322 1004,322 1004,322 1004,322 1004,322 1004,322 1004,322 1004,322 1004,322 1004,322 1004,322 1004,322 1004,322 1004,322 1004,322 1004,322 1004,322 1004,322 1004,322 1004,321 1004,321 1004,321 1004,321 1004,321 1004,321 1004,321 1004,321 1004,321 1004,321 1004,321 1004,321 1004,321 1004,321 1004,321 1004,321 1004,321 1004,321 1004,321 1004,321 1004,321 1004,321 1004,321 1004,321 1004,321 1004,321 1004,321 1004,321 1004,321 1004,321 1004,321 1004,321 1004,321 1004,321 1004,321 1004,321 1004,321 1004,321 1004,321 1004,321 1004,321 1004,321 1004,321 1004,321 1004,321 1004,321 1004,321 1004,320 1004,320 1004,320 "/>
<polyline fill="none" opacity="1" stroke="#0082C8" stroke-width="1" points="130,183 131,183 133,183 134,183 136,183 137,183 139,183 140,183 142,183 143,183 145,183 146,183 148,184 149,184 151,184 152,184 154,184 155,184 157,184 158,184 160,184 161,184 163,184 164,184 166,184 167,184 169,184 170,183 172,183 173,183 175,183 176,183 178,183 180,183 181,183 183,183 184,183 186,183 187,183 189,183 190,183 192,183 193,183 195,183 196,184 198,184 199,184 201,184 202,184 204,184 205,184 207,184 208,184 210,184 211,184 213,184 214,184 216,184 217,184 219,184 220,184 222,184 223,184 225,184 227,184 228,184 230,184 231,184 233,184 234,184 236,184 237,184 239,184 240,184 242,184 243,184 245,184 246,184 248,184 249,184 251,184 252,184 254,184 255,184 257,184 258,184 260,184 261,184 263,184 264,184 266,184 267,184 269,184 270,184 272,184 273,184 275,184 277,184 278,184 280,184 281,184 283,184 284,184 286,184 287,184 289,184 290,184 292,184 293,184 295,184 296,184 298,185 299,185 301,185 302,185 304,185 305,185 307,185 308,185 310,185 311,186 313,186 314,186 316,186 317,186 319,186 320,186 322,186 324,186 325,186 327,186 328,186 330,186 331,186 333,186 334,186 336,186 337,186 339,186 340,186 342,186 343,186 345,186 346,186 348,186 349,186 351,186 352,186 354,186 355,186 357,186 358,186 360,186 361,186 363,186 364,186 366,187 367,187 369,187 370,187 372,187 374,187 375,187 377,187 378,187 380,187 381,187 383,187 384,187 386,187 387,187 389,187 390,187 392,187 393,187 395,187 396,187 398,187 399,187 401,187 402,187 404,187 405,187 407,188 408,188 410,188 411,188 413,188 414,188 416,188 417,188 419,189 421,189 422,189 424,189 425,189 427,189 428,189 430,189 431,189 433,189 434,189 436,189 437,189 439,189 440,189 442,189 443,189 445,189 446,189 448,189 449,189 451,190 452,190 454,190 455,190 457,190 458,190 460,190 461,190 463,190 464,190 466,189 467,189 469,189 471,189 472,189 474,189 475,189 477,189 478,189 480,189 481,189 483,189 484,189 486,189 487,189 489,189 490,189 492,189 493,189 495,189 496,189 498,189 499,189 501,189 502,189 504,190 505,190 507,190 508,190 510,191 511,191 513,191 514,191 516,192 518,192 519,192 521,192 522,193 524,193 525,193 527,193 528,193 530,193 531,194 533,194 534,194 536,194 537,194 539,194 540,194 542,194 543,194 545,194 546,194 548,194 549,195 551,195 552,195 554,195 555,195 557,196 558,196 560,196 561,196 563,197 564,197 566,197 568,198 569,198 571,199 572,199 574,199 575,200 577,200 578,201 580,201 581,201 583,202 584,202 586,203 587,203 589,203 590,204 592,204 593,205 595,205 596,206 598,206 599,207 601,208 602,208 604,209 605,209 607,210 608,211 610,211 611,212 613,213 615,213 616,214 618,214 619,215 621,216 622,216 624,216 625,217 627,217 628,217 630,218 631,218 633,218 634,218 636,218 637,218 639,218 640,218 642,217 643,217 645,217 646,216 648,216 649,216 651,215 652,215 654,214 655,214 657,214 658,214 660,214 661,214 663,214 665,215 666,215 668,216 669,217 671,218 672,219 674,220 675,221 677,223 678,224 680,225 681,227 683,228 684,230 686,231 687,232 689,233 690,235 692,236 693,237 695,238 696,239 698,240 699,240 701,241 702,242 704,242 705,243 707,243 708,244 710,244 712,245 713,245 715,246 716,246 718,246 719,247 721,247 722,247 724,248 725,248 727,248 728,249 730,249 731,250 733,250 734,251 736,252 737,252 739,253 740,254 742,255 743,256 745,256 746,257 748,258 749,259 751,260 752,261 754,261 755,262 757,263 758,263 760,264 762,265 763,265 765,265 766,266 768,266 769,266 771,266 772,266 774,266 775,266 777,266 778,266 780,265 781,265 783,264 784,263 786,262 787,261 789,260 790,258 792,257 793,255 795,253 796,251 798,249 799,247 801,244 802,241 804,238 805,236 807,233 809,230 810,228 812,227 813,228 815,229 816,231 818,233 819,236 821,240 822,243 824,246 825,249 827,252 828,255 830,257 831,260 833,262 834,264 836,265 837,267 839,268 840,269 842,271 843,271 845,272 846,273 848,273 849,274 851,274 852,274 854,274 855,274 857,273 859,273 860,272 862,271 863,270 865,269 866,268 868,266 869,264 871,262 872,260 874,258 875,255 877,252 878,249 880,246 881,243 883,240 884,237 886,235 887,235 889,236 890,238 892,240 893,244 895,247 896,251 898,254 899,257 901,260 902,263 904,265 906,268 907,270 909,272 910,273 912,275 913,276 915,277 916,278 918,279 919,279 921,280 922,280 924,280 925,280 927,280 928,279 930,278 931,278 933,277 934,275 936,274 937,272 939,270 940,268 942,266 943,263 945,261 946,258 948,255 949,252 951,250 952,248 954,248 956,249 957,251 959,254 960,258 962,262 963,266 965,269 966,273 968,277 969,280 971,283 972,286 974,288 975,291 977,293 978,295 980,297 981,298 983,300 984,301 986,303 987,304 989,305 990,306 992,307 993,307 995,308 996,308 998,309 999,309 1001,309 1003,309 1004,309 1004,309 1004,309 1004,308 1004,308 1004,307 1004,307 1004,306 1004,305 1004,304 1004,303 1004,301 1004,300 1004,298 1004,297 1004,295 1004,293 1004,291 1004,288 1004,286 1004,283 1004,280 1004,277 1004,273 1004,269 1004,266 1004,262 1004,258 1004,254 1004,251 1004,249 1004,248 1004,248 1004,250 1004,252 1004,255 1004,258 1004,261 1004,263 1004,266 1004,268 1004,270 1004,272 1004,274 1004,275 1004,277 1004,278 1004,278 1004,279 1004,280 1004,280 1004,280 1004,280 1004,280 1004,279 1004,279 1004,278 1004,277 1004,276 1004,275 1004,273 1004,272 1004,270 1004,268 1004,265 1004,263 1004,260 1004,257 1004,254 1004,251 1004,247 1004,244 1004,240 1004,238 1004,236 1004,235 1004,235 1004,237 1004,240 1004,243 1004,246 1004,249 1004,252 1004,255 1004,258 1004,260 1004,262 1004,264 1004,266 1004,268 1004,269 1004,270 1004,271 1004,272 1004,273 1004,273 1004,274 1004,274 1004,274 1004,274 1004,274 1004,273 1004,273 1004,272 1004,271 1004,271 1004,269 1004,268 1004,267 1004,265 1004,264 1004,262 1004,260 1004,257 1004,255 1004,252 1004,249 1004,246 1004,243 1004,240 1004,236 1004,233 1004,231 1004,229 1004,228 1004,227 1004,228 1004,230 1004,233 1004,236 1004,238 1004,241 1004,244 1004,247 1004,249 1004,251 1004,253 1004,255 1004,257 1004,258 1004,260 1004,261 1004,262 1004,263 1004,264 1004,265 1004,265 1004,266 1004,266 1004,266 1004,266 1004,266 1004,266 1004,266 1004,266 1004,266 1004,265 1004,265 1004,265 1004,264 1004,263 1004,263 1004,262 1004,261 1004,261 1004,260 1004,259 1004,258 1004,257 1004,256 1004,256 1004,255 1004,254 1004,253 1004,252 1004,252 1004,251 1004,250 1004,250 1004,249 1004,249 1004,248 1004,248 1004,248 1004,247 1004,247 1004,247 1004,246 1004,246 1004,246 1004,245 1004,245 1004,244 1004,244 1004,243 1004,243 1004,242 1004,242 1004,241 1004,240 1004,240 1004,239 1004,238 1004,237 1004,236 1004,235 1004,233 1004,232 1004,231 1004,230 1004,228 1004,227 1004,225 1004,224 1004,223 1004,221 1004,220 1004,219 1004,218 1004,217 1004,216 1004,215 1004,215 1004,214 1004,214 1004,214 1004,214 1004,214 1004,214 1004,214 1004,215 1004,215 1004,216 1004,216 1004,216 1004,217 1004,217 1004,217 1004,218 1004,218 1004,218 1004,218 1004,218 1004,218 1004,218 1004,218 1004,217 1004,217 1004,217 1004,216 1004,216 1004,216 1004,215 1004,214 1004,214 1004,213 1004,213 1004,212 1004,211 1004,211 1004,210 1004,209 1004,209 1004,208 1004,208 1004,207 1004,206 1004,206 1004,205 1004,205 1004,204 1004,204 1004,203 1004,203 1004,203 1004,202 1004,202 1004,201 1004,201 1004,201 1004,200 1004,200 1004,199 1004,199 1004,199 1004,198 1004,198 1004,197 1004,197 1004,197 1004,196 1004,196 1004,196 1004,196 1004,195 1004,195 1004,195 1004,195 1004,195 1004,194 1004,194 1004,194 1004,194 1004,194 1004,194 1004,194 1004,194 1004,194 1004,194 1004,194 1004,194 1004,193 1004,193 1004,193 1004,193 1004,193 1004,193 1004,192 1004,192 1004,192 1004,192 1004,191 1004,191 1004,191 1004,191 1004,190 1004,190 1004,190 1004,190 1004,189 1004,189 1004,189 1004,189 1004,189 1004,189 1004,189 1004,189 1004,189 1004,189 1004,189 1004,189 1004,189 1004,189 1004,189 1004,189 1004,189 1004,189 1004,189 1004,189 1004,189 1004,189 1004,189 1004,189 1004,189 1004,190 1004,190 1004,190 1004,190 1004,190 1004,190 1004,190 1004,190 1004,190 1004,190 1004,189 1004,189 1004,189 1004,189 1004,189 1004,189 1004,189 1004,189 1004,189 1004,189 1004,189 1004,189 1004,189 1004,189 1004,189 1004,189 1004,189 1004,189 1004,189 1004,189 1004,189 1004,188 1004,188 1004,188 1004,188 1004,188 1004,188 1004,188 1004,188 1004,187 1004,187 1004,187 1004,187 1004,187 1004,187 1004,187 1004,187 1004,187 1004,187 1004,187 1004,187 1004,187 1004,187 1004,187 1004,187 1004,187 1004,187 1004,187 1004,187 1004,187 1004,187 1004,187 1004,187 1004,187 1004,187 1004,187 1004,186 1004,186 1004,186 1004,186 1004,186 1004,186 1004,186 1004,186 1004,186 1004,186 1004,186 1004,186 1004,186 1004,186 1004,186 1004,186 1004,186 1004,186 1004,186 1004,186 1004,186 1004,186 1004,186 1004,186 1004,186 1004,186 1004,186 1004,186 1004,186 1004,186 1004,186 1004,186 1004,186 1004,186 1004,186 1004,186 1004,185 1004,185 1004,185 1004,185 1004,185 1004,185 1004,185 1004,185 1004,185 1004,184 1004,184 1004,184 1004,184 1004,184 1004,184 1004,184 1004,184 1004,184 1004,184 1004,184 1004,184 1004,184 1004,184 1004,184 1004,184 1004,184 1004,184 1004,184 1004,184 1004,184 1004,184 1004,184 1004,184 1004,184 1004,184 1004,184 1004,184 1004,184 1004,184 1004,184 1004,184 1004,184 1004,184 1004,184 1004,184 1004,184 1004,184 1004,184 1004,184 1004,184 1004,184 1004,184 1004,184 1004,184 1004,184 1004,184 1004,184 1004,184 1004,184 1004,184 1004,184 1004,184 1004,184 1004,184 1004,184 1004,184 1004,184 1004,184 1004,184 1004,184 1004,184 1004,184 1004,184 1004,184 1004,184 1004,184 1004,183 1004,183 1004,183 1004,183 1004,183 1004,183 1004,183 1004,183 1004,183 1004,183 1004,183 1004,183 1004,183 1004,183 1004,183 1004,183 1004,183 1004,184 1004,184 1004,184 1004,184 1004,184 1004,184 1004,184 1004,184 1004,184 1004,184 1004,184 1004,184 1004,184 1004,184 1004,184 1004,183 1004,183 1004,183 1004,183 1004,183 1004,183 1004,183 1004,183 1004,183 1004,183 1004,183 "/>
<rect x="514" y="25" width="485" height="157" opacity="0.8" fill="#FFFFFF" stroke="none"/>
<rect x="514" y="25" width="485" height="157" opacity="1" fill="none" stroke="#000000"/>
<text x="554" y="35" dy="0.76em" text-anchor="start" font-family="sans-serif" font-size="24.193548387096776" opacity="1" fill="#000000">
(1) log_power
</text>
<text x="554" y="73" dy="0.76em" text-anchor="start" font-family="sans-serif" font-size="24.193548387096776" opacity="1" fill="#000000">
(2) spectral_envelope by cepstrum
</text>
<text x="554" y="110" dy="0.76em" text-anchor="start" font-family="sans-serif" font-size="24.193548387096776" opacity="1" fill="#000000">
(3) spectral_envelope by levinson-durbin
</text>
<text x="554" y="148" dy="0.76em" text-anchor="start" font-family="sans-serif" font-size="24.193548387096776" opacity="1" fill="#000000">
(4) spectral_envelope by burg
</text>
<polyline fill="none" opacity="1" stroke="#E6194B" stroke-width="1" points="524,47 544,47 "/>
<polyline fill="none" opacity="1" stroke="#3CB44B" stroke-width="1" points="524,85 544,85 "/>
<polyline fill="none" opacity="1" stroke="#FFE119" stroke-width="1" points="524,122 544,122 "/>
<polyline fill="none" opacity="1" stroke="#0082C8" stroke-width="1" points="524,160 544,160 "/>
</svg>
