<svg width="1024" height="768" viewBox="0 0 1024 768" xmlns="http://www.w3.org/2000/svg">
<rect x="0" y="0" width="1024" height="768" opacity="1" fill="#FFFFFF" stroke="none"/>
<line opacity="0.1" stroke="#000000" stroke-width="1" x1="130" y1="657" x2="130" y2="20"/>
<line opacity="0.1" stroke="#000000" stroke-width="1" x1="140" y1="657" x2="140" y2="20"/>
<line opacity="0.1" stroke="#000000" stroke-width="1" x1="151" y1="657" x2="151" y2="20"/>
<line opacity="0.1" stroke="#000000" stroke-width="1" x1="162" y1="657" x2="162" y2="20"/>
<line opacity="0.1" stroke="#000000" stroke-width="1" x1="173" y1="657" x2="173" y2="20"/>
<line opacity="0.1" stroke="#000000" stroke-width="1" x1="184" y1="657" x2="184" y2="20"/>
<line opacity="0.1" stroke="#000000" stroke-width="1" x1="195" y1="657" x2="195" y2="20"/>
<line opacity="0.1" stroke="#000000" stroke-width="1" x1="206" y1="657" x2="206" y2="20"/>
<line opacity="0.1" stroke="#000000" stroke-width="1" x1="217" y1="657" x2="217" y2="20"/>
<line opacity="0.1" stroke="#000000" stroke-width="1" x1="228" y1="657" x2="228" y2="20"/>
<line opacity="0.1" stroke="#000000" stroke-width="1" x1="239" y1="657" x2="239" y2="20"/>
<line opacity="0.1" stroke="#000000" stroke-width="1" x1="250" y1="657" x2="250" y2="20"/>
<line opacity="0.1" stroke="#000000" stroke-width="1" x1="260" y1="657" x2="260" y2="20"/>
<line opacity="0.1" stroke="#000000" stroke-width="1" x1="271" y1="657" x2="271" y2="20"/>
<line opacity="0.1" stroke="#000000" stroke-width="1" x1="282" y1="657" x2="282" y2="20"/>
<line opacity="0.1" stroke="#000000" stroke-width="1" x1="293" y1="657" x2="293" y2="20"/>
<line opacity="0.1" stroke="#000000" stroke-width="1" x1="304" y1="657" x2="304" y2="20"/>
<line opacity="0.1" stroke="#000000" stroke-width="1" x1="315" y1="657" x2="315" y2="20"/>
<line opacity="0.1" stroke="#000000" stroke-width="1" x1="326" y1="657" x2="326" y2="20"/>
<line opacity="0.1" stroke="#000000" stroke-width="1" x1="337" y1="657" x2="337" y2="20"/>
<line opacity="0.1" stroke="#000000" stroke-width="1" x1="348" y1="657" x2="348" y2="20"/>
<line opacity="0.1" stroke="#000000" stroke-width="1" x1="359" y1="657" x2="359" y2="20"/>
<line opacity="0.1" stroke="#000000" stroke-width="1" x1="370" y1="657" x2="370" y2="20"/>
<line opacity="0.1" stroke="#000000" stroke-width="1" x1="380" y1="657" x2="380" y2="20"/>
<line opacity="0.1" stroke="#000000" stroke-width="1" x1="391" y1="657" x2="391" y2="20"/>
<line opacity="0.1" stroke="#000000" stroke-width="1" x1="402" y1="657" x2="402" y2="20"/>
<line opacity="0.1" stroke="#000000" stroke-width="1" x1="413" y1="657" x2="413" y2="20"/>
<line opacity="0.1" stroke="#000000" stroke-width="1" x1="424" y1="657" x2="424" y2="20"/>
<line opacity="0.1" stroke="#000000" stroke-width="1" x1="435" y1="657" x2="435" y2="20"/>
<line opacity="0.1" stroke="#000000" stroke-width="1" x1="446" y1="657" x2="446" y2="20"/>
<line opacity="0.1" stroke="#000000" stroke-width="1" x1="457" y1="657" x2="457" y2="20"/>
<line opacity="0.1" stroke="#000000" stroke-width="1" x1="468" y1="657" x2="468" y2="20"/>
<line opacity="0.1" stroke="#000000" stroke-width="1" x1="479" y1="657" x2="479" y2="20"/>
<line opacity="0.1" stroke="#000000" stroke-width="1" x1="490" y1="657" x2="490" y2="20"/>
<line opacity="0.1" stroke="#000000" stroke-width="1" x1="501" y1="657" x2="501" y2="20"/>
<line opacity="0.1" stroke="#000000" stroke-width="1" x1="511" y1="657" x2="511" y2="20"/>
<line opacity="0.1" stroke="#000000" stroke-width="1" x1="522" y1="657" x2="522" y2="20"/>
<line opacity="0.1" stroke="#000000" stroke-width="1" x1="533" y1="657" x2="533" y2="20"/>
<line opacity="0.1" stroke="#000000" stroke-width="1" x1="544" y1="657" x2="544" y2="20"/>
<line opacity="0.1" stroke="#000000" stroke-width="1" x1="555" y1="657" x2="555" y2="20"/>
<line opacity="0.1" stroke="#000000" stroke-width="1" x1="566" y1="657" x2="566" y2="20"/>
<line opacity="0.1" stroke="#000000" stroke-width="1" x1="577" y1="657" x2="577" y2="20"/>
<line opacity="0.1" stroke="#000000" stroke-width="1" x1="588" y1="657" x2="588" y2="20"/>
<line opacity="0.1" stroke="#000000" stroke-width="1" x1="599" y1="657" x2="599" y2="20"/>
<line opacity="0.1" stroke="#000000" stroke-width="1" x1="610" y1="657" x2="610" y2="20"/>
<line opacity="0.1" stroke="#000000" stroke-width="1" x1="621" y1="657" x2="621" y2="20"/>
<line opacity="0.1" stroke="#000000" stroke-width="1" x1="631" y1="657" x2="631" y2="20"/>
<line opacity="0.1" stroke="#000000" stroke-width="1" x1="642" y1="657" x2="642" y2="20"/>
<line opacity="0.1" stroke="#000000" stroke-width="1" x1="653" y1="657" x2="653" y2="20"/>
<line opacity="0.1" stroke="#000000" stroke-width="1" x1="664" y1="657" x2="664" y2="20"/>
<line opacity="0.1" stroke="#000000" stroke-width="1" x1="675" y1="657" x2="675" y2="20"/>
<line opacity="0.1" stroke="#000000" stroke-width="1" x1="686" y1="657" x2="686" y2="20"/>
<line opacity="0.1" stroke="#000000" stroke-width="1" x1="697" y1="657" x2="697" y2="20"/>
<line opacity="0.1" stroke="#000000" stroke-width="1" x1="708" y1="657" x2="708" y2="20"/>
<line opacity="0.1" stroke="#000000" stroke-width="1" x1="719" y1="657" x2="719" y2="20"/>
<line opacity="0.1" stroke="#000000" stroke-width="1" x1="730" y1="657" x2="730" y2="20"/>
<line opacity="0.1" stroke="#000000" stroke-width="1" x1="741" y1="657" x2="741" y2="20"/>
<line opacity="0.1" stroke="#000000" stroke-width="1" x1="752" y1="657" x2="752" y2="20"/>
<line opacity="0.1" stroke="#000000" stroke-width="1" x1="762" y1="657" x2="762" y2="20"/>
<line opacity="0.1" stroke="#000000" stroke-width="1" x1="773" y1="657" x2="773" y2="20"/>
<line opacity="0.1" stroke="#000000" stroke-width="1" x1="784" y1="657" x2="784" y2="20"/>
<line opacity="0.1" stroke="#000000" stroke-width="1" x1="795" y1="657" x2="795" y2="20"/>
<line opacity="0.1" stroke="#000000" stroke-width="1" x1="806" y1="657" x2="806" y2="20"/>
<line opacity="0.1" stroke="#000000" stroke-width="1" x1="817" y1="657" x2="817" y2="20"/>
<line opacity="0.1" stroke="#000000" stroke-width="1" x1="828" y1="657" x2="828" y2="20"/>
<line opacity="0.1" stroke="#000000" stroke-width="1" x1="839" y1="657" x2="839" y2="20"/>
<line opacity="0.1" stroke="#000000" stroke-width="1" x1="850" y1="657" x2="850" y2="20"/>
<line opacity="0.1" stroke="#000000" stroke-width="1" x1="861" y1="657" x2="861" y2="20"/>
<line opacity="0.1" stroke="#000000" stroke-width="1" x1="872" y1="657" x2="872" y2="20"/>
<line opacity="0.1" stroke="#000000" stroke-width="1" x1="882" y1="657" x2="882" y2="20"/>
<line opacity="0.1" stroke="#000000" stroke-width="1" x1="893" y1="657" x2="893" y2="20"/>
<line opacity="0.1" stroke="#000000" stroke-width="1" x1="904" y1="657" x2="904" y2="20"/>
<line opacity="0.1" stroke="#000000" stroke-width="1" x1="915" y1="657" x2="915" y2="20"/>
<line opacity="0.1" stroke="#000000" stroke-width="1" x1="926" y1="657" x2="926" y2="20"/>
<line opacity="0.1" stroke="#000000" stroke-width="1" x1="937" y1="657" x2="937" y2="20"/>
<line opacity="0.1" stroke="#000000" stroke-width="1" x1="948" y1="657" x2="948" y2="20"/>
<line opacity="0.1" stroke="#000000" stroke-width="1" x1="959" y1="657" x2="959" y2="20"/>
<line opacity="0.1" stroke="#000000" stroke-width="1" x1="970" y1="657" x2="970" y2="20"/>
<line opacity="0.1" stroke="#000000" stroke-width="1" x1="981" y1="657" x2="981" y2="20"/>
<line opacity="0.1" stroke="#000000" stroke-width="1" x1="992" y1="657" x2="992" y2="20"/>
<line opacity="0.1" stroke="#000000" stroke-width="1" x1="1003" y1="657" x2="1003" y2="20"/>
<line opacity="0.1" stroke="#000000" stroke-width="1" x1="130" y1="657" x2="1003" y2="657"/>
<line opacity="0.1" stroke="#000000" stroke-width="1" x1="130" y1="648" x2="1003" y2="648"/>
<line opacity="0.1" stroke="#000000" stroke-width="1" x1="130" y1="639" x2="1003" y2="639"/>
<line opacity="0.1" stroke="#000000" stroke-width="1" x1="130" y1="630" x2="1003" y2="630"/>
<line opacity="0.1" stroke="#000000" stroke-width="1" x1="130" y1="621" x2="1003" y2="621"/>
<line opacity="0.1" stroke="#000000" stroke-width="1" x1="130" y1="612" x2="1003" y2="612"/>
<line opacity="0.1" stroke="#000000" stroke-width="1" x1="130" y1="603" x2="1003" y2="603"/>
<line opacity="0.1" stroke="#000000" stroke-width="1" x1="130" y1="594" x2="1003" y2="594"/>
<line opacity="0.1" stroke="#000000" stroke-width="1" x1="130" y1="585" x2="1003" y2="585"/>
<line opacity="0.1" stroke="#000000" stroke-width="1" x1="130" y1="576" x2="1003" y2="576"/>
<line opacity="0.1" stroke="#000000" stroke-width="1" x1="130" y1="566" x2="1003" y2="566"/>
<line opacity="0.1" stroke="#000000" stroke-width="1" x1="130" y1="557" x2="1003" y2="557"/>
<line opacity="0.1" stroke="#000000" stroke-width="1" x1="130" y1="548" x2="1003" y2="548"/>
<line opacity="0.1" stroke="#000000" stroke-width="1" x1="130" y1="539" x2="1003" y2="539"/>
<line opacity="0.1" stroke="#000000" stroke-width="1" x1="130" y1="530" x2="1003" y2="530"/>
<line opacity="0.1" stroke="#000000" stroke-width="1" x1="130" y1="521" x2="1003" y2="521"/>
<line opacity="0.1" stroke="#000000" stroke-width="1" x1="130" y1="512" x2="1003" y2="512"/>
<line opacity="0.1" stroke="#000000" stroke-width="1" x1="130" y1="503" x2="1003" y2="503"/>
<line opacity="0.1" stroke="#000000" stroke-width="1" x1="130" y1="494" x2="1003" y2="494"/>
<line opacity="0.1" stroke="#000000" stroke-width="1" x1="130" y1="485" x2="1003" y2="485"/>
<line opacity="0.1" stroke="#000000" stroke-width="1" x1="130" y1="475" x2="1003" y2="475"/>
<line opacity="0.1" stroke="#000000" stroke-width="1" x1="130" y1="466" x2="1003" y2="466"/>
<line opacity="0.1" stroke="#000000" stroke-width="1" x1="130" y1="457" x2="1003" y2="457"/>
<line opacity="0.1" stroke="#000000" stroke-width="1" x1="130" y1="448" x2="1003" y2="448"/>
<line opacity="0.1" stroke="#000000" stroke-width="1" x1="130" y1="439" x2="1003" y2="439"/>
<line opacity="0.1" stroke="#000000" stroke-width="1" x1="130" y1="430" x2="1003" y2="430"/>
<line opacity="0.1" stroke="#000000" stroke-width="1" x1="130" y1="421" x2="1003" y2="421"/>
<line opacity="0.1" stroke="#000000" stroke-width="1" x1="130" y1="412" x2="1003" y2="412"/>
<line opacity="0.1" stroke="#000000" stroke-width="1" x1="130" y1="403" x2="1003" y2="403"/>
<line opacity="0.1" stroke="#000000" stroke-width="1" x1="130" y1="394" x2="1003" y2="394"/>
<line opacity="0.1" stroke="#000000" stroke-width="1" x1="130" y1="384" x2="1003" y2="384"/>
<line opacity="0.1" stroke="#000000" stroke-width="1" x1="130" y1="375" x2="1003" y2="375"/>
<line opacity="0.1" stroke="#000000" stroke-width="1" x1="130" y1="366" x2="1003" y2="366"/>
<line opacity="0.1" stroke="#000000" stroke-width="1" x1="130" y1="357" x2="1003" y2="357"/>
<line opacity="0.1" stroke="#000000" stroke-width="1" x1="130" y1="348" x2="1003" y2="348"/>
<line opacity="0.1" stroke="#000000" stroke-width="1" x1="130" y1="339" x2="1003" y2="339"/>
<line opacity="0.1" stroke="#000000" stroke-width="1" x1="130" y1="330" x2="1003" y2="330"/>
<line opacity="0.1" stroke="#000000" stroke-width="1" x1="130" y1="321" x2="1003" y2="321"/>
<line opacity="0.1" stroke="#000000" stroke-width="1" x1="130" y1="312" x2="1003" y2="312"/>
<line opacity="0.1" stroke="#000000" stroke-width="1" x1="130" y1="303" x2="1003" y2="303"/>
<line opacity="0.1" stroke="#000000" stroke-width="1" x1="130" y1="293" x2="1003" y2="293"/>
<line opacity="0.1" stroke="#000000" stroke-width="1" x1="130" y1="284" x2="1003" y2="284"/>
<line opacity="0.1" stroke="#000000" stroke-width="1" x1="130" y1="275" x2="1003" y2="275"/>
<line opacity="0.1" stroke="#000000" stroke-width="1" x1="130" y1="266" x2="1003" y2="266"/>
<line opacity="0.1" stroke="#000000" stroke-width="1" x1="130" y1="257" x2="1003" y2="257"/>
<line opacity="0.1" stroke="#000000" stroke-width="1" x1="130" y1="248" x2="1003" y2="248"/>
<line opacity="0.1" stroke="#000000" stroke-width="1" x1="130" y1="239" x2="1003" y2="239"/>
<line opacity="0.1" stroke="#000000" stroke-width="1" x1="130" y1="230" x2="1003" y2="230"/>
<line opacity="0.1" stroke="#000000" stroke-width="1" x1="130" y1="221" x2="1003" y2="221"/>
<line opacity="0.1" stroke="#000000" stroke-width="1" x1="130" y1="212" x2="1003" y2="212"/>
<line opacity="0.1" stroke="#000000" stroke-width="1" x1="130" y1="202" x2="1003" y2="202"/>
<line opacity="0.1" stroke="#000000" stroke-width="1" x1="130" y1="193" x2="1003" y2="193"/>
<line opacity="0.1" stroke="#000000" stroke-width="1" x1="130" y1="184" x2="1003" y2="184"/>
<line opacity="0.1" stroke="#000000" stroke-width="1" x1="130" y1="175" x2="1003" y2="175"/>
<line opacity="0.1" stroke="#000000" stroke-width="1" x1="130" y1="166" x2="1003" y2="166"/>
<line opacity="0.1" stroke="#000000" stroke-width="1" x1="130" y1="157" x2="1003" y2="157"/>
<line opacity="0.1" stroke="#000000" stroke-width="1" x1="130" y1="148" x2="1003" y2="148"/>
<line opacity="0.1" stroke="#000000" stroke-width="1" x1="130" y1="139" x2="1003" y2="139"/>
<line opacity="0.1" stroke="#000000" stroke-width="1" x1="130" y1="130" x2="1003" y2="130"/>
<line opacity="0.1" stroke="#000000" stroke-width="1" x1="130" y1="121" x2="1003" y2="121"/>
<line opacity="0.1" stroke="#000000" stroke-width="1" x1="130" y1="111" x2="1003" y2="111"/>
<line opacity="0.1" stroke="#000000" stroke-width="1" x1="130" y1="102" x2="1003" y2="102"/>
<line opacity="0.1" stroke="#000000" stroke-width="1" x1="130" y1="93" x2="1003" y2="93"/>
<line opacity="0.1" stroke="#000000" stroke-width="1" x1="130" y1="84" x2="1003" y2="84"/>
<line opacity="0.1" stroke="#000000" stroke-width="1" x1="130" y1="75" x2="1003" y2="75"/>
<line opacity="0.1" stroke="#000000" stroke-width="1" x1="130" y1="66" x2="1003" y2="66"/>
<line opacity="0.1" stroke="#000000" stroke-width="1" x1="130" y1="57" x2="1003" y2="57"/>
<line opacity="0.1" stroke="#000000" stroke-width="1" x1="130" y1="48" x2="1003" y2="48"/>
<line opacity="0.1" stroke="#000000" stroke-width="1" x1="130" y1="39" x2="1003" y2="39"/>
<line opacity="0.1" stroke="#000000" stroke-width="1" x1="130" y1="30" x2="1003" y2="30"/>
<line opacity="0.1" stroke="#000000" stroke-width="1" x1="130" y1="20" x2="1003" y2="20"/>
<text x="20" y="339" dy="0.76em" text-anchor="middle" font-family="sans-serif" font-size="24.193548387096776" opacity="1" fill="#000000" transform="rotate(270, 20, 339)">
Power [dB]
</text>
<text x="567" y="748" dy="-0.5ex" text-anchor="middle" font-family="sans-serif" font-size="24.193548387096776" opacity="1" fill="#000000">
Frequency [Hz]
</text>
<line opacity="0.2" stroke="#000000" stroke-width="1" x1="130" y1="657" x2="130" y2="20"/>
<line opacity="0.2" stroke="#000000" stroke-width="1" x1="239" y1="657" x2="239" y2="20"/>
<line opacity="0.2" stroke="#000000" stroke-width="1" x1="348" y1="657" x2="348" y2="20"/>
<line opacity="0.2" stroke="#000000" stroke-width="1" x1="457" y1="657" x2="457" y2="20"/>
<line opacity="0.2" stroke="#000000" stroke-width="1" x1="566" y1="657" x2="566" y2="20"/>
<line opacity="0.2" stroke="#000000" stroke-width="1" x1="675" y1="657" x2="675" y2="20"/>
<line opacity="0.2" stroke="#000000" stroke-width="1" x1="784" y1="657" x2="784" y2="20"/>
<line opacity="0.2" stroke="#000000" stroke-width="1" x1="893" y1="657" x2="893" y2="20"/>
<line opacity="0.2" stroke="#000000" stroke-width="1" x1="1003" y1="657" x2="1003" y2="20"/>
<line opacity="0.2" stroke="#000000" stroke-width="1" x1="130" y1="657" x2="1003" y2="657"/>
<line opacity="0.2" stroke="#000000" stroke-width="1" x1="130" y1="566" x2="1003" y2="566"/>
<line opacity="0.2" stroke="#000000" stroke-width="1" x1="130" y1="475" x2="1003" y2="475"/>
<line opacity="0.2" stroke="#000000" stroke-width="1" x1="130" y1="384" x2="1003" y2="384"/>
<line opacity="0.2" stroke="#000000" stroke-width="1" x1="130" y1="293" x2="1003" y2="293"/>
<line opacity="0.2" stroke="#000000" stroke-width="1" x1="130" y1="202" x2="1003" y2="202"/>
<line opacity="0.2" stroke="#000000" stroke-width="1" x1="130" y1="111" x2="1003" y2="111"/>
<line opacity="0.2" stroke="#000000" stroke-width="1" x1="130" y1="20" x2="1003" y2="20"/>
<polyline fill="none" opacity="1" stroke="#000000" stroke-width="1" points="129,20 129,657 "/>
<text x="120" y="657" dy="0.5ex" text-anchor="end" font-family="sans-serif" font-size="24.193548387096776" opacity="1" fill="#000000">
-100.0
</text>
<polyline fill="none" opacity="1" stroke="#000000" stroke-width="1" points="124,657 129,657 "/>
<text x="120" y="566" dy="0.5ex" text-anchor="end" font-family="sans-serif" font-size="24.193548387096776" opacity="1" fill="#000000">
-80.0
</text>
<polyline fill="none" opacity="1" stroke="#000000" stroke-width="1" points="124,566 129,566 "/>
<text x="120" y="475" dy="0.5ex" text-anchor="end" font-family="sans-serif" font-size="24.193548387096776" opacity="1" fill="#000000">
-60.0
</text>
<polyline fill="none" opacity="1" stroke="#000000" stroke-width="1" points="124,475 129,475 "/>
<text x="120" y="384" dy="0.5ex" text-anchor="end" font-family="sans-serif" font-size="24.193548387096776" opacity="1" fill="#000000">
-40.0
</text>
<polyline fill="none" opacity="1" stroke="#000000" stroke-width="1" points="124,384 129,384 "/>
<text x="120" y="293" dy="0.5ex" text-anchor="end" font-family="sans-serif" font-size="24.193548387096776" opacity="1" fill="#000000">
-20.0
</text>
<polyline fill="none" opacity="1" stroke="#000000" stroke-width="1" points="124,293 129,293 "/>
<text x="120" y="202" dy="0.5ex" text-anchor="end" font-family="sans-serif" font-size="24.193548387096776" opacity="1" fill="#000000">
0.0
</text>
<polyline fill="none" opacity="1" stroke="#000000" stroke-width="1" points="124,202 129,202 "/>
<text x="120" y="111" dy="0.5ex" text-anchor="end" font-family="sans-serif" font-size="24.193548387096776" opacity="1" fill="#000000">
20.0
</text>
<polyline fill="none" opacity="1" stroke="#000000" stroke-width="1" points="124,111 129,111 "/>
<text x="120" y="20" dy="0.5ex" text-anchor="end" font-family="sans-serif" font-size="24.193548387096776" opacity="1" fill="#000000">
40.0
</text>
<polyline fill="none" opacity="1" stroke="#000000" stroke-width="1" points="124,20 129,20 "/>
<polyline fill="none" opacity="1" stroke="#000000" stroke-width="1" points="130,658 1003,658 "/>
<text x="130" y="668" dy="0.76em" text-anchor="middle" font-family="sans-serif" font-size="24.193548387096776" opacity="1" fill="#000000">
0.0
</text>
<polyline fill="none" opacity="1" stroke="#000000" stroke-width="1" points="130,658 130,663 "/>
<text x="239" y="668" dy="0.76em" text-anchor="middle" font-family="sans-serif" font-size="24.193548387096776" opacity="1" fill="#000000">
1000.0
</text>
<polyline fill="none" opacity="1" stroke="#000000" stroke-width="1" points="239,658 239,663 "/>
<text x="348" y="668" dy="0.76em" text-anchor="middle" font-family="sans-serif" font-size="24.193548387096776" opacity="1" fill="#000000">
2000.0
</text>
<polyline fill="none" opacity="1" stroke="#000000" stroke-width="1" points="348,658 348,663 "/>
<text x="457" y="668" dy="0.76em" text-anchor="middle" font-family="sans-serif" font-size="24.193548387096776" opacity="1" fill="#000000">
3000.0
</text>
<polyline fill="none" opacity="1" stroke="#000000" stroke-width="1" points="457,658 457,663 "/>
<text x="566" y="668" dy="0.76em" text-anchor="middle" font-family="sans-serif" font-size="24.193548387096776" opacity="1" fill="#000000">
4000.0
</text>
<polyline fill="none" opacity="1" stroke="#000000" stroke-width="1" points="566,658 566,663 "/>
<text x="675" y="668" dy="0.76em" text-anchor="middle" font-family="sans-serif" font-size="24.193548387096776" opacity="1" fill="#000000">
5000.0
</text>
<polyline fill="none" opacity="1" stroke="#000000" stroke-width="1" points="675,658 675,663 "/>
<text x="784" y="668" dy="0.76em" text-anchor="middle" font-family="sans-serif" font-size="24.193548387096776" opacity="1" fill="#000000">
6000.0
</text>
<polyline fill="none" opacity="1" stroke="#000000" stroke-width="1" points="784,658 784,663 "/>
<text x="893" y="668" dy="0.76em" text-anchor="middle" font-family="sans-serif" font-size="24.193548387096776" opacity="1" fill="#000000">
7000.0
</text>
<polyline fill="none" opacity="1" stroke="#000000" stroke-width="1" points="893,658 893,663 "/>
<text x="1003" y="668" dy="0.76em" text-anchor="middle" font-family="sans-serif" font-size="24.193548387096776" opacity="1" fill="#000000">
8000.0
</text>
<polyline fill="none" opacity="1" stroke="#000000" stroke-width="1" points="1003,658 1003,663 "/>
<polyline fill="none" opacity="1" stroke="#E6194B" stroke-width="1" points="130,333 131,340 133,308 134,313 136,318 137,306 139,531 140,313 142,268 143,270 145,308 146,259 148,214 149,205 151,280 152,212 154,223 155,284 157,229 158,222 160,227 161,232 163,279 164,324 166,215 167,223 169,331 170,234 172,224 173,256 175,246 176,225 178,236 180,315 181,277 183,296 184,313 186,253 187,352 189,273 190,260 192,233 193,298 195,225 196,226 198,242 199,235 201,204 202,207 204,248 205,203 207,177 208,180 210,196 211,207 213,180 214,174 216,209 217,411 219,305 220,396 222,237 223,218 225,264 227,302 228,228 230,219 231,258 233,256 234,253 236,261 237,251 239,366 240,265 242,218 243,224 245,244 246,286 248,237 249,255 251,233 252,222 254,284 255,255 257,247 258,261 260,323 261,278 263,259 264,309 266,356 267,288 269,281 270,305 272,298 273,253 275,307 277,279 278,268 280,256 281,237 283,230 284,237 286,236 287,213 289,205 290,244 292,221 293,197 295,214 296,220 298,198 299,204 301,236 302,235 304,198 305,220 307,239 308,258 310,315 311,235 313,250 314,275 316,340 317,287 319,259 320,234 322,268 324,295 325,248 327,231 328,241 330,258 331,253 333,267 334,287 336,291 337,317 339,353 340,252 342,245 343,313 345,300 346,341 348,361 349,270 351,249 352,267 354,282 355,280 357,278 358,226 360,240 361,282 363,271 364,412 366,302 367,395 369,272 370,298 372,298 374,326 375,264 377,286 378,286 380,332 381,272 383,289 384,337 386,337 387,321 389,287 390,281 392,289 393,282 395,304 396,301 398,257 399,284 401,330 402,335 404,297 405,292 407,273 408,288 410,361 411,463 413,300 414,315 416,290 417,271 419,317 421,321 422,321 424,333 425,311 427,350 428,336 430,463 431,361 433,338 434,308 436,305 437,359 439,290 440,302 442,341 443,328 445,297 446,301 448,295 449,311 451,337 452,303 454,301 455,346 457,303 458,368 460,382 461,352 463,350 464,379 466,336 467,290 469,295 471,374 472,298 474,321 475,333 477,307 478,296 480,276 481,270 483,279 484,298 486,312 487,310 489,333 490,341 492,315 493,311 495,309 496,302 498,315 499,367 501,427 502,412 504,447 505,407 507,385 508,415 510,446 511,362 513,325 514,371 516,326 518,327 519,417 521,389 522,328 524,303 525,310 527,311 528,293 530,294 531,320 533,330 534,316 536,328 537,385 539,407 540,532 542,345 543,325 545,338 546,352 548,317 549,311 551,339 552,351 554,342 555,340 557,348 558,368 560,372 561,352 563,339 564,338 566,343 568,328 569,323 571,357 572,525 574,406 575,464 577,396 578,419 580,445 581,413 583,464 584,412 586,405 587,506 589,362 590,342 592,348 593,388 595,417 596,397 598,354 599,370 601,471 602,425 604,369 605,359 607,387 608,358 610,556 611,396 613,422 615,368 616,396 618,402 619,427 621,398 622,405 624,417 625,440 627,392 628,394 630,487 631,433 633,386 634,424 636,372 637,370 639,442 640,411 642,377 643,383 645,439 646,438 648,500 649,424 651,391 652,422 654,499 655,435 657,371 658,360 660,384 661,416 663,430 665,408 666,459 668,425 669,430 671,450 672,408 674,401 675,490 677,454 678,445 680,439 681,418 683,420 684,425 686,561 687,540 689,548 690,550 692,511 693,496 695,476 696,410 698,411 699,453 701,447 702,516 704,574 705,527 707,537 708,504 710,466 712,527 713,428 715,393 716,418 718,498 719,436 721,426 722,453 724,426 725,411 727,486 728,465 730,528 731,503 733,532 734,486 736,436 737,413 739,417 740,527 742,464 743,525 745,575 746,526 748,536 749,422 751,402 752,427 754,501 755,530 757,557 758,627 760,537 762,622 763,519 765,562 766,597 768,578 769,538 771,572 772,548 774,548 775,506 777,530 778,446 780,435 781,482 783,557 784,648 786,556 787,551 789,591 790,574 792,488 793,485 795,540 796,424 798,396 799,425 801,538 802,541 804,483 805,443 807,558 809,437 810,495 812,438 813,409 815,399 816,433 818,421 819,423 821,568 822,522 824,548 825,590 827,496 828,443 830,441 831,453 833,466 834,524 836,562 837,566 839,534 840,472 842,520 843,433 845,450 846,474 848,465 849,574 851,585 852,609 854,470 855,497 857,479 859,511 860,540 862,585 863,658 865,574 866,628 868,592 869,546 871,517 872,571 874,579 875,658 877,465 878,440 880,443 881,428 883,408 884,424 886,505 887,479 889,463 890,457 892,452 893,479 895,470 896,456 898,498 899,489 901,443 902,447 904,504 906,550 907,567 909,477 910,449 912,484 913,565 915,605 916,477 918,439 919,452 921,476 922,473 924,575 925,482 927,514 928,658 930,538 931,570 933,542 934,603 936,658 937,658 939,608 940,505 942,454 943,463 945,503 946,433 948,417 949,440 951,436 952,438 954,562 956,478 957,570 959,500 960,519 962,550 963,589 965,509 966,475 968,512 969,518 971,453 972,431 974,458 975,453 977,434 978,470 980,565 981,547 983,611 984,600 986,524 987,504 989,617 990,516 992,558 993,586 995,589 996,630 998,584 999,611 1001,658 1003,625 1004,658 1004,611 1004,584 1004,630 1004,589 1004,586 1004,558 1004,516 1004,617 1004,504 1004,524 1004,600 1004,611 1004,547 1004,565 1004,470 1004,434 1004,453 1004,458 1004,431 1004,453 1004,518 1004,512 1004,475 1004,509 1004,589 1004,550 1004,519 1004,500 1004,570 1004,478 1004,562 1004,438 1004,436 1004,440 1004,417 1004,433 1004,503 1004,463 1004,454 1004,505 1004,608 1004,658 1004,658 1004,603 1004,542 1004,570 1004,538 1004,658 1004,514 1004,482 1004,575 1004,473 1004,476 1004,452 1004,439 1004,477 1004,605 1004,565 1004,484 1004,449 1004,477 1004,567 1004,550 1004,504 1004,447 1004,443 1004,489 1004,498 1004,456 1004,470 1004,479 1004,452 1004,457 1004,463 1004,479 1004,505 1004,424 1004,408 1004,428 1004,443 1004,440 1004,465 1004,658 1004,579 1004,571 1004,517 1004,546 1004,592 1004,628 1004,574 1004,658 1004,585 1004,540 1004,511 1004,479 1004,497 1004,470 1004,609 1004,585 1004,574 1004,465 1004,474 1004,450 1004,433 1004,520 1004,472 1004,534 1004,566 1004,562 1004,524 1004,466 1004,453 1004,441 1004,443 1004,496 1004,590 1004,548 1004,522 1004,568 1004,423 1004,421 1004,433 1004,399 1004,409 1004,438 1004,495 1004,437 1004,558 1004,443 1004,483 1004,541 1004,538 1004,425 1004,396 1004,424 1004,540 1004,485 1004,488 1004,574 1004,591 1004,551 1004,556 1004,648 1004,557 1004,482 1004,435 1004,446 1004,530 1004,506 1004,548 1004,548 1004,572 1004,538 1004,578 1004,597 1004,562 1004,519 1004,622 1004,537 1004,627 1004,557 1004,530 1004,501 1004,427 1004,402 1004,422 1004,536 1004,526 1004,575 1004,525 1004,464 1004,527 1004,417 1004,413 1004,436 1004,486 1004,532 1004,503 1004,528 1004,465 1004,486 1004,411 1004,426 1004,453 1004,426 1004,436 1004,498 1004,418 1004,393 1004,428 1004,527 1004,466 1004,504 1004,537 1004,527 1004,574 1004,516 1004,447 1004,453 1004,411 1004,410 1004,476 1004,496 1004,511 1004,550 1004,548 1004,540 1004,561 1004,425 1004,420 1004,418 1004,439 1004,445 1004,454 1004,490 1004,401 1004,408 1004,450 1004,430 1004,425 1004,459 1004,408 1004,430 1004,416 1004,384 1004,360 1004,371 1004,435 1004,499 1004,422 1004,391 1004,424 1004,500 1004,438 1004,439 1004,383 1004,377 1004,411 1004,442 1004,370 1004,372 1004,424 1004,386 1004,433 1004,487 1004,394 1004,392 1004,440 1004,417 1004,405 1004,398 1004,427 1004,402 1004,396 1004,368 1004,422 1004,396 1004,556 1004,358 1004,387 1004,359 1004,369 1004,425 1004,471 1004,370 1004,354 1004,397 1004,417 1004,388 1004,348 1004,342 1004,362 1004,506 1004,405 1004,412 1004,464 1004,413 1004,445 1004,419 1004,396 1004,464 1004,406 1004,525 1004,357 1004,323 1004,328 1004,343 1004,338 1004,339 1004,352 1004,372 1004,368 1004,348 1004,340 1004,342 1004,351 1004,339 1004,311 1004,317 1004,352 1004,338 1004,325 1004,345 1004,532 1004,407 1004,385 1004,328 1004,316 1004,330 1004,320 1004,294 1004,293 1004,311 1004,310 1004,303 1004,328 1004,389 1004,417 1004,327 1004,326 1004,371 1004,325 1004,362 1004,446 1004,415 1004,385 1004,407 1004,447 1004,412 1004,427 1004,367 1004,315 1004,302 1004,309 1004,311 1004,315 1004,341 1004,333 1004,310 1004,312 1004,298 1004,279 1004,270 1004,276 1004,296 1004,307 1004,333 1004,321 1004,298 1004,374 1004,295 1004,290 1004,336 1004,379 1004,350 1004,352 1004,382 1004,368 1004,303 1004,346 1004,301 1004,303 1004,337 1004,311 1004,295 1004,301 1004,297 1004,328 1004,341 1004,302 1004,290 1004,359 1004,305 1004,308 1004,338 1004,361 1004,463 1004,336 1004,350 1004,311 1004,333 1004,321 1004,321 1004,317 1004,271 1004,290 1004,315 1004,300 1004,463 1004,361 1004,288 1004,273 1004,292 1004,297 1004,335 1004,330 1004,284 1004,257 1004,301 1004,304 1004,282 1004,289 1004,281 1004,287 1004,321 1004,337 1004,337 1004,289 1004,272 1004,332 1004,286 1004,286 1004,264 1004,326 1004,298 1004,298 1004,272 1004,395 1004,302 1004,412 1004,271 1004,282 1004,240 1004,226 1004,278 1004,280 1004,282 1004,267 1004,249 1004,270 1004,361 1004,341 1004,300 1004,313 1004,245 1004,252 1004,353 1004,317 1004,291 1004,287 1004,267 1004,253 1004,258 1004,241 1004,231 1004,248 1004,295 1004,268 1004,234 1004,259 1004,287 1004,340 1004,275 1004,250 1004,235 1004,315 1004,258 1004,239 1004,220 1004,198 1004,235 1004,236 1004,204 1004,198 1004,220 1004,214 1004,197 1004,221 1004,244 1004,205 1004,213 1004,236 1004,237 1004,230 1004,237 1004,256 1004,268 1004,279 1004,307 1004,253 1004,298 1004,305 1004,281 1004,288 1004,356 1004,309 1004,259 1004,278 1004,323 1004,261 1004,247 1004,255 1004,284 1004,222 1004,233 1004,255 1004,237 1004,286 1004,244 1004,224 1004,218 1004,265 1004,366 1004,251 1004,261 1004,253 1004,256 1004,258 1004,219 1004,228 1004,302 1004,264 1004,218 1004,237 1004,396 1004,305 1004,411 1004,209 1004,174 1004,180 1004,207 1004,196 1004,180 1004,177 1004,203 1004,248 1004,207 1004,204 1004,235 1004,242 1004,226 1004,225 1004,298 1004,233 1004,260 1004,273 1004,352 1004,253 1004,313 1004,296 1004,277 1004,315 1004,236 1004,225 1004,246 1004,256 1004,224 1004,234 1004,331 1004,223 1004,215 1004,324 1004,279 1004,232 1004,227 1004,222 1004,229 1004,284 1004,223 1004,212 1004,280 1004,205 1004,214 1004,259 1004,308 1004,270 1004,268 1004,313 1004,531 1004,306 1004,318 1004,313 1004,308 1004,340 "/>
<polyline fill="none" opacity="1" stroke="#3CB44B" stroke-width="1" points="130,352 131,351 133,351 134,350 136,350 137,349 139,347 140,346 142,344 143,343 145,341 146,339 148,337 149,335 151,333 152,331 154,330 155,328 157,326 158,325 160,323 161,322 163,321 164,320 166,319 167,319 169,318 170,318 172,318 173,318 175,318 176,318 178,319 180,319 181,319 183,320 184,320 186,320 187,321 189,321 190,321 192,321 193,321 195,321 196,321 198,321 199,320 201,320 202,319 204,319 205,318 207,318 208,317 210,316 211,316 213,315 214,314 216,314 217,314 219,313 220,313 222,313 223,313 225,314 227,314 228,315 230,316 231,317 233,318 234,319 236,320 237,322 239,323 240,325 242,326 243,328 245,329 246,331 248,332 249,333 251,334 252,335 254,336 255,336 257,337 258,337 260,337 261,336 263,336 264,335 266,334 267,333 269,331 270,330 272,328 273,327 275,325 277,323 278,321 280,319 281,318 283,316 284,314 286,313 287,312 289,311 290,310 292,309 293,308 295,308 296,308 298,308 299,308 301,309 302,310 304,310 305,311 307,313 308,314 310,316 311,317 313,319 314,320 316,322 317,324 319,325 320,327 322,328 324,330 325,331 327,332 328,333 330,334 331,335 333,336 334,337 336,337 337,338 339,338 340,338 342,339 343,339 345,339 346,339 348,339 349,339 351,339 352,339 354,339 355,339 357,340 358,340 360,340 361,340 363,341 364,341 366,341 367,342 369,342 370,343 372,343 374,344 375,344 377,345 378,345 380,345 381,346 383,346 384,346 386,347 387,347 389,347 390,347 392,347 393,347 395,347 396,347 398,348 399,348 401,348 402,348 404,348 405,349 407,349 408,349 410,350 411,351 413,351 414,352 416,353 417,354 419,354 421,355 422,356 424,357 425,358 427,359 428,360 430,361 431,362 433,362 434,363 436,363 437,364 439,364 440,364 442,364 443,364 445,363 446,363 448,362 449,361 451,360 452,359 454,358 455,357 457,356 458,355 460,354 461,353 463,352 464,351 466,350 467,349 469,349 471,349 472,349 474,349 475,349 477,349 478,350 480,351 481,352 483,353 484,355 486,357 487,358 489,360 490,362 492,364 493,366 495,368 496,369 498,371 499,373 501,374 502,375 504,377 505,377 507,378 508,379 510,379 511,379 513,379 514,378 516,378 518,377 519,376 521,375 522,374 524,372 525,371 527,370 528,368 530,367 531,366 533,365 534,364 536,363 537,362 539,362 540,361 542,361 543,362 545,362 546,363 548,364 549,365 551,366 552,368 554,369 555,371 557,373 558,375 560,377 561,379 563,381 564,383 566,385 568,387 569,389 571,390 572,392 574,393 575,394 577,395 578,396 580,397 581,397 583,397 584,398 586,398 587,398 589,398 590,397 592,397 593,397 595,397 596,396 598,396 599,396 601,396 602,395 604,395 605,395 607,396 608,396 610,396 611,396 613,397 615,397 616,398 618,398 619,399 621,399 622,400 624,400 625,401 627,401 628,402 630,402 631,402 633,403 634,403 636,403 637,403 639,403 640,402 642,402 643,402 645,402 646,402 648,401 649,401 651,401 652,401 654,401 655,402 657,402 658,402 660,403 661,404 663,405 665,406 666,407 668,409 669,411 671,412 672,414 674,416 675,418 677,420 678,422 680,425 681,427 683,429 684,430 686,432 687,434 689,435 690,436 692,438 693,438 695,439 696,439 698,439 699,439 701,439 702,439 704,438 705,437 707,436 708,435 710,434 712,432 713,431 715,430 716,428 718,427 719,426 721,425 722,424 724,424 725,423 727,423 728,423 730,424 731,424 733,425 734,427 736,428 737,430 739,431 740,433 742,436 743,438 745,441 746,443 748,446 749,448 751,451 752,454 754,456 755,458 757,461 758,463 760,464 762,466 763,467 765,469 766,469 768,470 769,470 771,470 772,470 774,469 775,469 777,468 778,466 780,465 781,463 783,461 784,459 786,457 787,455 789,453 790,451 792,448 793,446 795,444 796,442 798,440 799,438 801,436 802,434 804,433 805,431 807,430 809,429 810,428 812,428 813,427 815,427 816,427 818,427 819,428 821,429 822,430 824,431 825,432 827,433 828,435 830,437 831,438 833,440 834,442 836,445 837,447 839,449 840,451 842,453 843,455 845,457 846,459 848,461 849,463 851,464 852,465 854,466 855,467 857,468 859,468 860,468 862,468 863,467 865,466 866,465 868,464 869,462 871,460 872,458 874,456 875,454 877,451 878,449 880,446 881,444 883,441 884,439 886,437 887,435 889,433 890,431 892,430 893,429 895,428 896,428 898,428 899,428 901,429 902,430 904,431 906,433 907,435 909,437 910,440 912,442 913,445 915,448 916,451 918,454 919,457 921,459 922,462 924,464 925,466 927,468 928,469 930,470 931,471 933,471 934,471 936,470 937,469 939,468 940,466 942,464 943,462 945,459 946,457 948,454 949,451 951,448 952,445 954,443 956,440 957,438 959,436 960,435 962,433 963,433 965,432 966,432 968,433 969,434 971,436 972,438 974,441 975,443 977,447 978,450 980,454 981,459 983,463 984,467 986,471 987,476 989,480 990,484 992,487 993,491 995,493 996,496 998,498 999,499 1001,500 1003,500 1004,500 1004,499 1004,498 1004,496 1004,493 1004,491 1004,487 1004,484 1004,480 1004,476 1004,471 1004,467 1004,463 1004,459 1004,454 1004,450 1004,447 1004,443 1004,441 1004,438 1004,436 1004,434 1004,433 1004,432 1004,432 1004,433 1004,433 1004,435 1004,436 1004,438 1004,440 1004,443 1004,445 1004,448 1004,451 1004,454 1004,457 1004,459 1004,462 1004,464 1004,466 1004,468 1004,469 1004,470 1004,471 1004,471 1004,471 1004,470 1004,469 1004,468 1004,466 1004,464 1004,462 1004,459 1004,457 1004,454 1004,451 1004,448 1004,445 1004,442 1004,440 1004,437 1004,435 1004,433 1004,431 1004,430 1004,429 1004,428 1004,428 1004,428 1004,428 1004,429 1004,430 1004,431 1004,433 1004,435 1004,437 1004,439 1004,441 1004,444 1004,446 1004,449 1004,451 1004,454 1004,456 1004,458 1004,460 1004,462 1004,464 1004,465 1004,466 1004,467 1004,468 1004,468 1004,468 1004,468 1004,467 1004,466 1004,465 1004,464 1004,463 1004,461 1004,459 1004,457 1004,455 1004,453 1004,451 1004,449 1004,447 1004,445 1004,442 1004,440 1004,438 1004,437 1004,435 1004,433 1004,432 1004,431 1004,430 1004,429 1004,428 1004,427 1004,427 1004,427 1004,427 1004,428 1004,428 1004,429 1004,430 1004,431 1004,433 1004,434 1004,436 1004,438 1004,440 1004,442 1004,444 1004,446 1004,448 1004,451 1004,453 1004,455 1004,457 1004,459 1004,461 1004,463 1004,465 1004,466 1004,468 1004,469 1004,469 1004,470 1004,470 1004,470 1004,470 1004,469 1004,469 1004,467 1004,466 1004,464 1004,463 1004,461 1004,458 1004,456 1004,454 1004,451 1004,448 1004,446 1004,443 1004,441 1004,438 1004,436 1004,433 1004,431 1004,430 1004,428 1004,427 1004,425 1004,424 1004,424 1004,423 1004,423 1004,423 1004,424 1004,424 1004,425 1004,426 1004,427 1004,428 1004,430 1004,431 1004,432 1004,434 1004,435 1004,436 1004,437 1004,438 1004,439 1004,439 1004,439 1004,439 1004,439 1004,439 1004,438 1004,438 1004,436 1004,435 1004,434 1004,432 1004,430 1004,429 1004,427 1004,425 1004,422 1004,420 1004,418 1004,416 1004,414 1004,412 1004,411 1004,409 1004,407 1004,406 1004,405 1004,404 1004,403 1004,402 1004,402 1004,402 1004,401 1004,401 1004,401 1004,401 1004,401 1004,402 1004,402 1004,402 1004,402 1004,402 1004,403 1004,403 1004,403 1004,403 1004,403 1004,402 1004,402 1004,402 1004,401 1004,401 1004,400 1004,400 1004,399 1004,399 1004,398 1004,398 1004,397 1004,397 1004,396 1004,396 1004,396 1004,396 1004,395 1004,395 1004,395 1004,396 1004,396 1004,396 1004,396 1004,397 1004,397 1004,397 1004,397 1004,398 1004,398 1004,398 1004,398 1004,397 1004,397 1004,397 1004,396 1004,395 1004,394 1004,393 1004,392 1004,390 1004,389 1004,387 1004,385 1004,383 1004,381 1004,379 1004,377 1004,375 1004,373 1004,371 1004,369 1004,368 1004,366 1004,365 1004,364 1004,363 1004,362 1004,362 1004,361 1004,361 1004,362 1004,362 1004,363 1004,364 1004,365 1004,366 1004,367 1004,368 1004,370 1004,371 1004,372 1004,374 1004,375 1004,376 1004,377 1004,378 1004,378 1004,379 1004,379 1004,379 1004,379 1004,378 1004,377 1004,377 1004,375 1004,374 1004,373 1004,371 1004,369 1004,368 1004,366 1004,364 1004,362 1004,360 1004,358 1004,357 1004,355 1004,353 1004,352 1004,351 1004,350 1004,349 1004,349 1004,349 1004,349 1004,349 1004,349 1004,349 1004,350 1004,351 1004,352 1004,353 1004,354 1004,355 1004,356 1004,357 1004,358 1004,359 1004,360 1004,361 1004,362 1004,363 1004,363 1004,364 1004,364 1004,364 1004,364 1004,364 1004,363 1004,363 1004,362 1004,362 1004,361 1004,360 1004,359 1004,358 1004,357 1004,356 1004,355 1004,354 1004,354 1004,353 1004,352 1004,351 1004,351 1004,350 1004,349 1004,349 1004,349 1004,348 1004,348 1004,348 1004,348 1004,348 1004,347 1004,347 1004,347 1004,347 1004,347 1004,347 1004,347 1004,347 1004,346 1004,346 1004,346 1004,345 1004,345 1004,345 1004,344 1004,344 1004,343 1004,343 1004,342 1004,342 1004,341 1004,341 1004,341 1004,340 1004,340 1004,340 1004,340 1004,339 1004,339 1004,339 1004,339 1004,339 1004,339 1004,339 1004,339 1004,339 1004,339 1004,338 1004,338 1004,338 1004,337 1004,337 1004,336 1004,335 1004,334 1004,333 1004,332 1004,331 1004,330 1004,328 1004,327 1004,325 1004,324 1004,322 1004,320 1004,319 1004,317 1004,316 1004,314 1004,313 1004,311 1004,310 1004,310 1004,309 1004,308 1004,308 1004,308 1004,308 1004,308 1004,309 1004,310 1004,311 1004,312 1004,313 1004,314 1004,316 1004,318 1004,319 1004,321 1004,323 1004,325 1004,327 1004,328 1004,330 1004,331 1004,333 1004,334 1004,335 1004,336 1004,336 1004,337 1004,337 1004,337 1004,336 1004,336 1004,335 1004,334 1004,333 1004,332 1004,331 1004,329 1004,328 1004,326 1004,325 1004,323 1004,322 1004,320 1004,319 1004,318 1004,317 1004,316 1004,315 1004,314 1004,314 1004,313 1004,313 1004,313 1004,313 1004,314 1004,314 1004,314 1004,315 1004,316 1004,316 1004,317 1004,318 1004,318 1004,319 1004,319 1004,320 1004,320 1004,321 1004,321 1004,321 1004,321 1004,321 1004,321 1004,321 1004,321 1004,320 1004,320 1004,320 1004,319 1004,319 1004,319 1004,318 1004,318 1004,318 1004,318 1004,318 1004,318 1004,319 1004,319 1004,320 1004,321 1004,322 1004,323 1004,325 1004,326 1004,328 1004,330 1004,331 1004,333 1004,335 1004,337 1004,339 1004,341 1004,343 1004,344 1004,346 1004,347 1004,349 1004,350 1004,350 1004,351 1004,351 "/>
<polyline fill="none" opacity="1" stroke="#FFE119" stroke-width="1" points="130,392 131,392 133,392 134,392 136,392 137,392 139,392 140,392 142,392 143,393 145,393 146,393 148,393 149,393 151,393 152,393 154,393 155,393 157,393 158,394 160,393 161,393 163,393 164,393 166,393 167,393 169,393 170,393 172,393 173,393 175,393 176,393 178,392 180,392 181,392 183,392 184,392 186,392 187,392 189,392 190,393 192,393 193,393 195,393 196,393 198,393 199,393 201,393 202,394 204,394 205,394 207,394 208,394 210,394 211,394 213,395 214,395 216,395 217,395 219,395 220,395 222,395 223,395 225,395 227,395 228,395 230,395 231,395 233,395 234,395 236,395 237,395 239,395 240,394 242,394 243,394 245,394 246,394 248,394 249,394 251,394 252,394 254,394 255,394 257,394 258,394 260,394 261,394 263,394 264,394 266,394 267,394 269,394 270,394 272,394 273,394 275,393 277,393 278,393 280,393 281,393 283,393 284,393 286,394 287,394 289,394 290,394 292,394 293,394 295,395 296,395 298,395 299,395 301,396 302,396 304,396 305,396 307,397 308,397 310,397 311,397 313,397 314,397 316,397 317,398 319,398 320,398 322,398 324,398 325,398 327,398 328,397 330,397 331,397 333,397 334,397 336,397 337,397 339,397 340,397 342,397 343,397 345,397 346,397 348,397 349,397 351,398 352,398 354,398 355,398 357,398 358,398 360,399 361,399 363,399 364,399 366,399 367,399 369,399 370,399 372,399 374,399 375,400 377,400 378,400 380,400 381,400 383,400 384,400 386,400 387,400 389,400 390,400 392,400 393,400 395,400 396,400 398,400 399,400 401,400 402,400 404,401 405,401 407,401 408,401 410,402 411,402 413,402 414,402 416,403 417,403 419,403 421,403 422,403 424,404 425,404 427,404 428,404 430,404 431,404 433,404 434,404 436,404 437,405 439,405 440,405 442,405 443,405 445,405 446,405 448,405 449,405 451,405 452,405 454,405 455,405 457,405 458,405 460,405 461,405 463,405 464,405 466,405 467,405 469,405 471,405 472,405 474,404 475,404 477,404 478,404 480,404 481,404 483,403 484,403 486,403 487,403 489,403 490,403 492,403 493,403 495,403 496,403 498,404 499,404 501,404 502,405 504,405 505,406 507,406 508,407 510,407 511,408 513,408 514,409 516,409 518,410 519,410 521,411 522,411 524,412 525,412 527,412 528,413 530,413 531,413 533,413 534,413 536,414 537,414 539,414 540,414 542,414 543,414 545,414 546,415 548,415 549,415 551,415 552,416 554,416 555,417 557,417 558,418 560,418 561,419 563,419 564,420 566,421 568,422 569,422 571,423 572,424 574,425 575,425 577,426 578,427 580,428 581,429 583,429 584,430 586,431 587,432 589,433 590,434 592,435 593,436 595,437 596,438 598,439 599,440 601,441 602,442 604,444 605,445 607,446 608,447 610,449 611,450 613,451 615,453 616,454 618,455 619,456 621,457 622,458 624,459 625,460 627,460 628,461 630,461 631,462 633,462 634,462 636,462 637,462 639,462 640,461 642,461 643,460 645,460 646,459 648,458 649,457 651,456 652,456 654,455 655,454 657,454 658,454 660,454 661,454 663,454 665,455 666,456 668,458 669,459 671,461 672,464 674,466 675,469 677,471 678,474 680,477 681,480 683,482 684,485 686,488 687,490 689,493 690,495 692,497 693,499 695,501 696,503 698,505 699,507 701,508 702,509 704,511 705,512 707,513 708,514 710,515 712,516 713,516 715,517 716,518 718,518 719,519 721,520 722,520 724,521 725,522 727,523 728,524 730,525 731,526 733,527 734,528 736,529 737,531 739,532 740,534 742,535 743,537 745,539 746,540 748,542 749,544 751,546 752,547 754,549 755,550 757,551 758,553 760,554 762,555 763,556 765,557 766,557 768,558 769,558 771,559 772,559 774,559 775,558 777,558 778,557 780,556 781,555 783,554 784,552 786,550 787,548 789,546 790,543 792,540 793,536 795,533 796,529 798,524 799,519 801,514 802,509 804,503 805,497 807,492 809,487 810,483 812,481 813,481 815,483 816,487 818,493 819,499 821,505 822,512 824,518 825,524 827,530 828,536 830,541 831,545 833,549 834,553 836,557 837,560 839,562 840,565 842,567 843,569 845,570 846,572 848,573 849,573 851,574 852,574 854,574 855,573 857,572 859,571 860,570 862,568 863,566 865,564 866,561 868,558 869,554 871,550 872,546 874,541 875,536 877,530 878,524 880,517 881,511 883,505 884,500 886,497 887,496 889,497 890,501 892,507 893,513 895,520 896,527 898,534 899,540 901,546 902,552 904,557 906,561 907,566 909,569 910,573 912,575 913,578 915,580 916,582 918,583 919,585 921,585 922,586 924,586 925,586 927,585 928,584 930,583 931,581 933,579 934,577 936,574 937,571 939,567 940,563 942,558 943,553 945,547 946,541 948,535 949,530 951,525 952,522 954,521 956,523 957,528 959,534 960,541 962,549 963,557 965,565 966,572 968,579 969,586 971,592 972,597 974,602 975,607 977,612 978,616 980,619 981,623 983,626 984,629 986,631 987,634 989,636 990,638 992,639 993,641 995,642 996,643 998,643 999,644 1001,644 1003,644 1004,644 1004,644 1004,643 1004,643 1004,642 1004,641 1004,639 1004,638 1004,636 1004,634 1004,631 1004,629 1004,626 1004,623 1004,619 1004,616 1004,612 1004,607 1004,602 1004,597 1004,592 1004,586 1004,579 1004,572 1004,565 1004,557 1004,549 1004,541 1004,534 1004,528 1004,523 1004,521 1004,522 1004,525 1004,530 1004,535 1004,541 1004,547 1004,553 1004,558 1004,563 1004,567 1004,571 1004,574 1004,577 1004,579 1004,581 1004,583 1004,584 1004,585 1004,586 1004,586 1004,586 1004,585 1004,585 1004,583 1004,582 1004,580 1004,578 1004,575 1004,573 1004,569 1004,566 1004,561 1004,557 1004,552 1004,546 1004,540 1004,534 1004,527 1004,520 1004,513 1004,507 1004,501 1004,497 1004,496 1004,497 1004,500 1004,505 1004,511 1004,517 1004,524 1004,530 1004,536 1004,541 1004,546 1004,550 1004,554 1004,558 1004,561 1004,564 1004,566 1004,568 1004,570 1004,571 1004,572 1004,573 1004,574 1004,574 1004,574 1004,573 1004,573 1004,572 1004,570 1004,569 1004,567 1004,565 1004,562 1004,560 1004,557 1004,553 1004,549 1004,545 1004,541 1004,536 1004,530 1004,524 1004,518 1004,512 1004,505 1004,499 1004,493 1004,487 1004,483 1004,481 1004,481 1004,483 1004,487 1004,492 1004,497 1004,503 1004,509 1004,514 1004,519 1004,524 1004,529 1004,533 1004,536 1004,540 1004,543 1004,546 1004,548 1004,550 1004,552 1004,554 1004,555 1004,556 1004,557 1004,558 1004,558 1004,559 1004,559 1004,559 1004,558 1004,558 1004,557 1004,557 1004,556 1004,555 1004,554 1004,553 1004,551 1004,550 1004,549 1004,547 1004,546 1004,544 1004,542 1004,540 1004,539 1004,537 1004,535 1004,534 1004,532 1004,531 1004,529 1004,528 1004,527 1004,526 1004,525 1004,524 1004,523 1004,522 1004,521 1004,520 1004,520 1004,519 1004,518 1004,518 1004,517 1004,516 1004,516 1004,515 1004,514 1004,513 1004,512 1004,511 1004,509 1004,508 1004,507 1004,505 1004,503 1004,501 1004,499 1004,497 1004,495 1004,493 1004,490 1004,488 1004,485 1004,482 1004,480 1004,477 1004,474 1004,471 1004,469 1004,466 1004,464 1004,461 1004,459 1004,458 1004,456 1004,455 1004,454 1004,454 1004,454 1004,454 1004,454 1004,454 1004,455 1004,456 1004,456 1004,457 1004,458 1004,459 1004,460 1004,460 1004,461 1004,461 1004,462 1004,462 1004,462 1004,462 1004,462 1004,462 1004,461 1004,461 1004,460 1004,460 1004,459 1004,458 1004,457 1004,456 1004,455 1004,454 1004,453 1004,451 1004,450 1004,449 1004,447 1004,446 1004,445 1004,444 1004,442 1004,441 1004,440 1004,439 1004,438 1004,437 1004,436 1004,435 1004,434 1004,433 1004,432 1004,431 1004,430 1004,429 1004,429 1004,428 1004,427 1004,426 1004,425 1004,425 1004,424 1004,423 1004,422 1004,422 1004,421 1004,420 1004,419 1004,419 1004,418 1004,418 1004,417 1004,417 1004,416 1004,416 1004,415 1004,415 1004,415 1004,415 1004,414 1004,414 1004,414 1004,414 1004,414 1004,414 1004,414 1004,413 1004,413 1004,413 1004,413 1004,413 1004,412 1004,412 1004,412 1004,411 1004,411 1004,410 1004,410 1004,409 1004,409 1004,408 1004,408 1004,407 1004,407 1004,406 1004,406 1004,405 1004,405 1004,404 1004,404 1004,404 1004,403 1004,403 1004,403 1004,403 1004,403 1004,403 1004,403 1004,403 1004,403 1004,403 1004,404 1004,404 1004,404 1004,404 1004,404 1004,404 1004,405 1004,405 1004,405 1004,405 1004,405 1004,405 1004,405 1004,405 1004,405 1004,405 1004,405 1004,405 1004,405 1004,405 1004,405 1004,405 1004,405 1004,405 1004,405 1004,405 1004,405 1004,405 1004,405 1004,405 1004,404 1004,404 1004,404 1004,404 1004,404 1004,404 1004,404 1004,404 1004,404 1004,403 1004,403 1004,403 1004,403 1004,403 1004,402 1004,402 1004,402 1004,402 1004,401 1004,401 1004,401 1004,401 1004,400 1004,400 1004,400 1004,400 1004,400 1004,400 1004,400 1004,400 1004,400 1004,400 1004,400 1004,400 1004,400 1004,400 1004,400 1004,400 1004,400 1004,400 1004,400 1004,399 1004,399 1004,399 1004,399 1004,399 1004,399 1004,399 1004,399 1004,399 1004,399 1004,398 1004,398 1004,398 1004,398 1004,398 1004,398 1004,397 1004,397 1004,397 1004,397 1004,397 1004,397 1004,397 1004,397 1004,397 1004,397 1004,397 1004,397 1004,397 1004,397 1004,397 1004,398 1004,398 1004,398 1004,398 1004,398 1004,398 1004,398 1004,397 1004,397 1004,397 1004,397 1004,397 1004,397 1004,397 1004,396 1004,396 1004,396 1004,396 1004,395 1004,395 1004,395 1004,395 1004,394 1004,394 1004,394 1004,394 1004,394 1004,394 1004,393 1004,393 1004,393 1004,393 1004,393 1004,393 1004,393 1004,394 1004,394 1004,394 1004,394 1004,394 1004,394 1004,394 1004,394 1004,394 1004,394 1004,394 1004,394 1004,394 1004,394 1004,394 1004,394 1004,394 1004,394 1004,394 1004,394 1004,394 1004,394 1004,394 1004,395 1004,395 1004,395 1004,395 1004,395 1004,395 1004,395 1004,395 1004,395 1004,395 1004,395 1004,395 1004,395 1004,395 1004,395 1004,395 1004,395 1004,395 1004,394 1004,394 1004,394 1004,394 1004,394 1004,394 1004,394 1004,393 1004,393 1004,393 1004,393 1004,393 1004,393 1004,393 1004,393 1004,392 1004,392 1004,392 1004,392 1004,392 1004,392 1004,392 1004,392 1004,393 1004,393 1004,393 1004,393 1004,393 1004,393 1004,393 1004,393 1004,393 1004,393 1004,393 1004,393 1004,394 1004,393 1004,393 1004,393 1004,393 1004,393 1004,393 1004,393 1004,393 1004,393 1004,393 1004,392 1004,392 1004,392 1004,392 1004,392 1004,392 1004,392 1004,392 "/>
<polyline fill="none" opacity="1" stroke="#0082C8" stroke-width="1" points="130,254 131,254 133,254 134,254 136,255 137,255 139,255 140,255 142,255 143,255 145,255 146,255 148,256 149,256 151,256 152,256 154,256 155,256 157,256 158,256 160,256 161,256 163,256 164,256 166,256 167,256 169,256 170,255 172,255 173,255 175,255 176,255 178,255 180,255 181,255 183,255 184,255 186,255 187,255 189,255 190,255 192,255 193,255 195,255 196,256 198,256 199,256 201,256 202,256 204,256 205,256 207,257 208,257 210,257 211,257 213,257 214,257 216,257 217,257 219,257 220,257 222,257 223,257 225,257 227,257 228,257 230,257 231,257 233,257 234,257 236,257 237,257 239,257 240,257 242,257 243,257 245,257 246,257 248,257 249,257 251,257 252,257 254,257 255,257 257,257 258,257 260,257 261,257 263,257 264,257 266,256 267,256 269,256 270,256 272,256 273,256 275,256 277,256 278,256 280,256 281,256 283,256 284,256 286,256 287,256 289,256 290,256 292,257 293,257 295,257 296,257 298,258 299,258 301,258 302,258 304,259 305,259 307,259 308,259 310,259 311,260 313,260 314,260 316,260 317,260 319,260 320,260 322,260 324,260 325,260 327,260 328,260 330,260 331,260 333,260 334,260 336,260 337,260 339,260 340,260 342,260 343,260 345,260 346,260 348,260 349,260 351,260 352,260 354,260 355,261 357,261 358,261 360,261 361,261 363,261 364,261 366,262 367,262 369,262 370,262 372,262 374,262 375,262 377,262 378,262 380,262 381,262 383,262 384,262 386,262 387,262 389,262 390,262 392,262 393,262 395,262 396,262 398,263 399,263 401,263 402,263 404,263 405,263 407,264 408,264 410,264 411,264 413,265 414,265 416,265 417,265 419,266 421,266 422,266 424,266 425,266 427,266 428,267 430,267 431,267 433,267 434,267 436,267 437,267 439,267 440,267 442,267 443,267 445,267 446,267 448,267 449,267 451,268 452,268 454,268 455,268 457,268 458,268 460,268 461,268 463,268 464,268 466,267 467,267 469,267 471,267 472,267 474,267 475,267 477,267 478,266 480,266 481,266 483,266 484,266 486,266 487,266 489,266 490,266 492,266 493,266 495,266 496,266 498,266 499,267 501,267 502,267 504,268 505,268 507,269 508,269 510,270 511,270 513,271 514,271 516,272 518,272 519,273 521,273 522,274 524,274 525,275 527,275 528,275 530,275 531,276 533,276 534,276 536,276 537,276 539,276 540,276 542,277 543,277 545,277 546,277 548,277 549,278 551,278 552,278 554,279 555,279 557,280 558,280 560,281 561,281 563,282 564,283 566,283 568,284 569,285 571,286 572,286 574,287 575,288 577,289 578,290 580,290 581,291 583,292 584,293 586,294 587,295 589,295 590,296 592,297 593,298 595,299 596,300 598,301 599,303 601,304 602,305 604,306 605,307 607,309 608,310 610,311 611,313 613,314 615,315 616,316 618,317 619,319 621,320 622,320 624,321 625,322 627,323 628,323 630,324 631,324 633,324 634,325 636,324 637,324 639,324 640,324 642,323 643,323 645,322 646,321 648,321 649,320 651,319 652,318 654,317 655,317 657,316 658,316 660,316 661,316 663,317 665,318 666,319 668,320 669,322 671,324 672,326 674,328 675,331 677,334 678,337 680,339 681,342 683,345 684,348 686,350 687,353 689,355 690,358 692,360 693,362 695,364 696,366 698,368 699,369 701,371 702,372 704,373 705,374 707,375 708,376 710,377 712,378 713,379 715,380 716,380 718,381 719,382 721,382 722,383 724,384 725,384 727,385 728,386 730,387 731,388 733,389 734,391 736,392 737,393 739,395 740,396 742,398 743,400 745,401 746,403 748,405 749,406 751,408 752,410 754,411 755,413 757,414 758,415 760,416 762,418 763,419 765,419 766,420 768,421 769,421 771,421 772,421 774,421 775,421 777,420 778,420 780,419 781,418 783,416 784,415 786,413 787,411 789,408 790,405 792,402 793,399 795,395 796,391 798,387 799,382 801,377 802,371 804,365 805,360 807,354 809,349 810,345 812,343 813,344 815,346 816,350 818,355 819,361 821,368 822,375 824,381 825,387 827,393 828,398 830,403 831,408 833,412 834,416 836,419 837,422 839,425 840,427 842,430 843,431 845,433 846,434 848,435 849,436 851,436 852,436 854,436 855,436 857,435 859,434 860,432 862,431 863,429 865,426 866,424 868,420 869,417 871,413 872,408 874,404 875,398 877,392 878,386 880,380 881,374 883,368 884,363 886,359 887,358 889,360 890,364 892,369 893,376 895,383 896,390 898,397 899,403 901,409 902,414 904,419 906,424 907,428 909,432 910,435 912,438 913,440 915,443 916,444 918,446 919,447 921,448 922,448 924,448 925,448 927,448 928,447 930,445 931,444 933,442 934,439 936,437 937,433 939,429 940,425 942,421 943,415 945,410 946,404 948,398 949,392 951,388 952,385 954,384 956,386 957,390 959,396 960,404 962,412 963,420 965,427 966,435 968,442 969,448 971,454 972,460 974,465 975,470 977,474 978,478 980,482 981,485 983,488 984,491 986,494 987,496 989,498 990,500 992,502 993,503 995,504 996,505 998,506 999,506 1001,507 1003,507 1004,507 1004,506 1004,506 1004,505 1004,504 1004,503 1004,502 1004,500 1004,498 1004,496 1004,494 1004,491 1004,488 1004,485 1004,482 1004,478 1004,474 1004,470 1004,465 1004,460 1004,454 1004,448 1004,442 1004,435 1004,427 1004,420 1004,412 1004,404 1004,396 1004,390 1004,386 1004,384 1004,385 1004,388 1004,392 1004,398 1004,404 1004,410 1004,415 1004,421 1004,425 1004,429 1004,433 1004,437 1004,439 1004,442 1004,444 1004,445 1004,447 1004,448 1004,448 1004,448 1004,448 1004,448 1004,447 1004,446 1004,444 1004,443 1004,440 1004,438 1004,435 1004,432 1004,428 1004,424 1004,419 1004,414 1004,409 1004,403 1004,397 1004,390 1004,383 1004,376 1004,369 1004,364 1004,360 1004,358 1004,359 1004,363 1004,368 1004,374 1004,380 1004,386 1004,392 1004,398 1004,404 1004,408 1004,413 1004,417 1004,420 1004,424 1004,426 1004,429 1004,431 1004,432 1004,434 1004,435 1004,436 1004,436 1004,436 1004,436 1004,436 1004,435 1004,434 1004,433 1004,431 1004,430 1004,427 1004,425 1004,422 1004,419 1004,416 1004,412 1004,408 1004,403 1004,398 1004,393 1004,387 1004,381 1004,375 1004,368 1004,361 1004,355 1004,350 1004,346 1004,344 1004,343 1004,345 1004,349 1004,354 1004,360 1004,365 1004,371 1004,377 1004,382 1004,387 1004,391 1004,395 1004,399 1004,402 1004,405 1004,408 1004,411 1004,413 1004,415 1004,416 1004,418 1004,419 1004,420 1004,420 1004,421 1004,421 1004,421 1004,421 1004,421 1004,421 1004,420 1004,419 1004,419 1004,418 1004,416 1004,415 1004,414 1004,413 1004,411 1004,410 1004,408 1004,406 1004,405 1004,403 1004,401 1004,400 1004,398 1004,396 1004,395 1004,393 1004,392 1004,391 1004,389 1004,388 1004,387 1004,386 1004,385 1004,384 1004,384 1004,383 1004,382 1004,382 1004,381 1004,380 1004,380 1004,379 1004,378 1004,377 1004,376 1004,375 1004,374 1004,373 1004,372 1004,371 1004,369 1004,368 1004,366 1004,364 1004,362 1004,360 1004,358 1004,355 1004,353 1004,350 1004,348 1004,345 1004,342 1004,339 1004,337 1004,334 1004,331 1004,328 1004,326 1004,324 1004,322 1004,320 1004,319 1004,318 1004,317 1004,316 1004,316 1004,316 1004,316 1004,317 1004,317 1004,318 1004,319 1004,320 1004,321 1004,321 1004,322 1004,323 1004,323 1004,324 1004,324 1004,324 1004,324 1004,325 1004,324 1004,324 1004,324 1004,323 1004,323 1004,322 1004,321 1004,320 1004,320 1004,319 1004,317 1004,316 1004,315 1004,314 1004,313 1004,311 1004,310 1004,309 1004,307 1004,306 1004,305 1004,304 1004,303 1004,301 1004,300 1004,299 1004,298 1004,297 1004,296 1004,295 1004,295 1004,294 1004,293 1004,292 1004,291 1004,290 1004,290 1004,289 1004,288 1004,287 1004,286 1004,286 1004,285 1004,284 1004,283 1004,283 1004,282 1004,281 1004,281 1004,280 1004,280 1004,279 1004,279 1004,278 1004,278 1004,278 1004,277 1004,277 1004,277 1004,277 1004,277 1004,276 1004,276 1004,276 1004,276 1004,276 1004,276 1004,276 1004,275 1004,275 1004,275 1004,275 1004,274 1004,274 1004,273 1004,273 1004,272 1004,272 1004,271 1004,271 1004,270 1004,270 1004,269 1004,269 1004,268 1004,268 1004,267 1004,267 1004,267 1004,266 1004,266 1004,266 1004,266 1004,266 1004,266 1004,266 1004,266 1004,266 1004,266 1004,266 1004,266 1004,266 1004,266 1004,267 1004,267 1004,267 1004,267 1004,267 1004,267 1004,267 1004,267 1004,268 1004,268 1004,268 1004,268 1004,268 1004,268 1004,268 1004,268 1004,268 1004,268 1004,267 1004,267 1004,267 1004,267 1004,267 1004,267 1004,267 1004,267 1004,267 1004,267 1004,267 1004,267 1004,267 1004,267 1004,267 1004,266 1004,266 1004,266 1004,266 1004,266 1004,266 1004,265 1004,265 1004,265 1004,265 1004,264 1004,264 1004,264 1004,264 1004,263 1004,263 1004,263 1004,263 1004,263 1004,263 1004,262 1004,262 1004,262 1004,262 1004,262 1004,262 1004,262 1004,262 1004,262 1004,262 1004,262 1004,262 1004,262 1004,262 1004,262 1004,262 1004,262 1004,262 1004,262 1004,262 1004,262 1004,261 1004,261 1004,261 1004,261 1004,261 1004,261 1004,261 1004,260 1004,260 1004,260 1004,260 1004,260 1004,260 1004,260 1004,260 1004,260 1004,260 1004,260 1004,260 1004,260 1004,260 1004,260 1004,260 1004,260 1004,260 1004,260 1004,260 1004,260 1004,260 1004,260 1004,260 1004,260 1004,260 1004,260 1004,260 1004,260 1004,259 1004,259 1004,259 1004,259 1004,259 1004,258 1004,258 1004,258 1004,258 1004,257 1004,257 1004,257 1004,257 1004,256 1004,256 1004,256 1004,256 1004,256 1004,256 1004,256 1004,256 1004,256 1004,256 1004,256 1004,256 1004,256 1004,256 1004,256 1004,256 1004,256 1004,257 1004,257 1004,257 1004,257 1004,257 1004,257 1004,257 1004,257 1004,257 1004,257 1004,257 1004,257 1004,257 1004,257 1004,257 1004,257 1004,257 1004,257 1004,257 1004,257 1004,257 1004,257 1004,257 1004,257 1004,257 1004,257 1004,257 1004,257 1004,257 1004,257 1004,257 1004,257 1004,257 1004,257 1004,257 1004,257 1004,257 1004,257 1004,257 1004,256 1004,256 1004,256 1004,256 1004,256 1004,256 1004,256 1004,255 1004,255 1004,255 1004,255 1004,255 1004,255 1004,255 1004,255 1004,255 1004,255 1004,255 1004,255 1004,255 1004,255 1004,255 1004,255 1004,255 1004,256 1004,256 1004,256 1004,256 1004,256 1004,256 1004,256 1004,256 1004,256 1004,256 1004,256 1004,256 1004,256 1004,256 1004,256 1004,255 1004,255 1004,255 1004,255 1004,255 1004,255 1004,255 1004,255 1004,254 1004,254 1004,254 "/>
<rect x="514" y="25" width="485" height="157" opacity="0.8" fill="#FFFFFF" stroke="none"/>
<rect x="514" y="25" width="485" height="157" opacity="1" fill="none" stroke="#000000"/>
<text x="554" y="35" dy="0.76em" text-anchor="start" font-family="sans-serif" font-size="24.193548387096776" opacity="1" fill="#000000">
(1) log_power
</text>
<text x="554" y="73" dy="0.76em" text-anchor="start" font-family="sans-serif" font-size="24.193548387096776" opacity="1" fill="#000000">
(2) spectral_envelope by cepstrum
</text>
<text x="554" y="110" dy="0.76em" text-anchor="start" font-family="sans-serif" font-size="24.193548387096776" opacity="1" fill="#000000">
(3) spectral_envelope by levinson-durbin
</text>
<text x="554" y="148" dy="0.76em" text-anchor="start" font-family="sans-serif" font-size="24.193548387096776" opacity="1" fill="#000000">
(4) spectral_envelope by burg
</text>
<polyline fill="none" opacity="1" stroke="#E6194B" stroke-width="1" points="524,47 544,47 "/>
<polyline fill="none" opacity="1" stroke="#3CB44B" stroke-width="1" points="524,85 544,85 "/>
<polyline fill="none" opacity="1" stroke="#FFE119" stroke-width="1" points="524,122 544,122 "/>
<polyline fill="none" opacity="1" stroke="#0082C8" stroke-width="1" points="524,160 544,160 "/>
</svg>
