<svg width="1024" height="768" viewBox="0 0 1024 768" xmlns="http://www.w3.org/2000/svg">
<rect x="0" y="0" width="1024" height="768" opacity="1" fill="#FFFFFF" stroke="none"/>
<line opacity="0.1" stroke="#000000" stroke-width="1" x1="130" y1="657" x2="130" y2="20"/>
<line opacity="0.1" stroke="#000000" stroke-width="1" x1="140" y1="657" x2="140" y2="20"/>
<line opacity="0.1" stroke="#000000" stroke-width="1" x1="151" y1="657" x2="151" y2="20"/>
<line opacity="0.1" stroke="#000000" stroke-width="1" x1="162" y1="657" x2="162" y2="20"/>
<line opacity="0.1" stroke="#000000" stroke-width="1" x1="173" y1="657" x2="173" y2="20"/>
<line opacity="0.1" stroke="#000000" stroke-width="1" x1="184" y1="657" x2="184" y2="20"/>
<line opacity="0.1" stroke="#000000" stroke-width="1" x1="195" y1="657" x2="195" y2="20"/>
<line opacity="0.1" stroke="#000000" stroke-width="1" x1="206" y1="657" x2="206" y2="20"/>
<line opacity="0.1" stroke="#000000" stroke-width="1" x1="217" y1="657" x2="217" y2="20"/>
<line opacity="0.1" stroke="#000000" stroke-width="1" x1="228" y1="657" x2="228" y2="20"/>
<line opacity="0.1" stroke="#000000" stroke-width="1" x1="239" y1="657" x2="239" y2="20"/>
<line opacity="0.1" stroke="#000000" stroke-width="1" x1="250" y1="657" x2="250" y2="20"/>
<line opacity="0.1" stroke="#000000" stroke-width="1" x1="260" y1="657" x2="260" y2="20"/>
<line opacity="0.1" stroke="#000000" stroke-width="1" x1="271" y1="657" x2="271" y2="20"/>
<line opacity="0.1" stroke="#000000" stroke-width="1" x1="282" y1="657" x2="282" y2="20"/>
<line opacity="0.1" stroke="#000000" stroke-width="1" x1="293" y1="657" x2="293" y2="20"/>
<line opacity="0.1" stroke="#000000" stroke-width="1" x1="304" y1="657" x2="304" y2="20"/>
<line opacity="0.1" stroke="#000000" stroke-width="1" x1="315" y1="657" x2="315" y2="20"/>
<line opacity="0.1" stroke="#000000" stroke-width="1" x1="326" y1="657" x2="326" y2="20"/>
<line opacity="0.1" stroke="#000000" stroke-width="1" x1="337" y1="657" x2="337" y2="20"/>
<line opacity="0.1" stroke="#000000" stroke-width="1" x1="348" y1="657" x2="348" y2="20"/>
<line opacity="0.1" stroke="#000000" stroke-width="1" x1="359" y1="657" x2="359" y2="20"/>
<line opacity="0.1" stroke="#000000" stroke-width="1" x1="370" y1="657" x2="370" y2="20"/>
<line opacity="0.1" stroke="#000000" stroke-width="1" x1="380" y1="657" x2="380" y2="20"/>
<line opacity="0.1" stroke="#000000" stroke-width="1" x1="391" y1="657" x2="391" y2="20"/>
<line opacity="0.1" stroke="#000000" stroke-width="1" x1="402" y1="657" x2="402" y2="20"/>
<line opacity="0.1" stroke="#000000" stroke-width="1" x1="413" y1="657" x2="413" y2="20"/>
<line opacity="0.1" stroke="#000000" stroke-width="1" x1="424" y1="657" x2="424" y2="20"/>
<line opacity="0.1" stroke="#000000" stroke-width="1" x1="435" y1="657" x2="435" y2="20"/>
<line opacity="0.1" stroke="#000000" stroke-width="1" x1="446" y1="657" x2="446" y2="20"/>
<line opacity="0.1" stroke="#000000" stroke-width="1" x1="457" y1="657" x2="457" y2="20"/>
<line opacity="0.1" stroke="#000000" stroke-width="1" x1="468" y1="657" x2="468" y2="20"/>
<line opacity="0.1" stroke="#000000" stroke-width="1" x1="479" y1="657" x2="479" y2="20"/>
<line opacity="0.1" stroke="#000000" stroke-width="1" x1="490" y1="657" x2="490" y2="20"/>
<line opacity="0.1" stroke="#000000" stroke-width="1" x1="501" y1="657" x2="501" y2="20"/>
<line opacity="0.1" stroke="#000000" stroke-width="1" x1="511" y1="657" x2="511" y2="20"/>
<line opacity="0.1" stroke="#000000" stroke-width="1" x1="522" y1="657" x2="522" y2="20"/>
<line opacity="0.1" stroke="#000000" stroke-width="1" x1="533" y1="657" x2="533" y2="20"/>
<line opacity="0.1" stroke="#000000" stroke-width="1" x1="544" y1="657" x2="544" y2="20"/>
<line opacity="0.1" stroke="#000000" stroke-width="1" x1="555" y1="657" x2="555" y2="20"/>
<line opacity="0.1" stroke="#000000" stroke-width="1" x1="566" y1="657" x2="566" y2="20"/>
<line opacity="0.1" stroke="#000000" stroke-width="1" x1="577" y1="657" x2="577" y2="20"/>
<line opacity="0.1" stroke="#000000" stroke-width="1" x1="588" y1="657" x2="588" y2="20"/>
<line opacity="0.1" stroke="#000000" stroke-width="1" x1="599" y1="657" x2="599" y2="20"/>
<line opacity="0.1" stroke="#000000" stroke-width="1" x1="610" y1="657" x2="610" y2="20"/>
<line opacity="0.1" stroke="#000000" stroke-width="1" x1="621" y1="657" x2="621" y2="20"/>
<line opacity="0.1" stroke="#000000" stroke-width="1" x1="631" y1="657" x2="631" y2="20"/>
<line opacity="0.1" stroke="#000000" stroke-width="1" x1="642" y1="657" x2="642" y2="20"/>
<line opacity="0.1" stroke="#000000" stroke-width="1" x1="653" y1="657" x2="653" y2="20"/>
<line opacity="0.1" stroke="#000000" stroke-width="1" x1="664" y1="657" x2="664" y2="20"/>
<line opacity="0.1" stroke="#000000" stroke-width="1" x1="675" y1="657" x2="675" y2="20"/>
<line opacity="0.1" stroke="#000000" stroke-width="1" x1="686" y1="657" x2="686" y2="20"/>
<line opacity="0.1" stroke="#000000" stroke-width="1" x1="697" y1="657" x2="697" y2="20"/>
<line opacity="0.1" stroke="#000000" stroke-width="1" x1="708" y1="657" x2="708" y2="20"/>
<line opacity="0.1" stroke="#000000" stroke-width="1" x1="719" y1="657" x2="719" y2="20"/>
<line opacity="0.1" stroke="#000000" stroke-width="1" x1="730" y1="657" x2="730" y2="20"/>
<line opacity="0.1" stroke="#000000" stroke-width="1" x1="741" y1="657" x2="741" y2="20"/>
<line opacity="0.1" stroke="#000000" stroke-width="1" x1="752" y1="657" x2="752" y2="20"/>
<line opacity="0.1" stroke="#000000" stroke-width="1" x1="762" y1="657" x2="762" y2="20"/>
<line opacity="0.1" stroke="#000000" stroke-width="1" x1="773" y1="657" x2="773" y2="20"/>
<line opacity="0.1" stroke="#000000" stroke-width="1" x1="784" y1="657" x2="784" y2="20"/>
<line opacity="0.1" stroke="#000000" stroke-width="1" x1="795" y1="657" x2="795" y2="20"/>
<line opacity="0.1" stroke="#000000" stroke-width="1" x1="806" y1="657" x2="806" y2="20"/>
<line opacity="0.1" stroke="#000000" stroke-width="1" x1="817" y1="657" x2="817" y2="20"/>
<line opacity="0.1" stroke="#000000" stroke-width="1" x1="828" y1="657" x2="828" y2="20"/>
<line opacity="0.1" stroke="#000000" stroke-width="1" x1="839" y1="657" x2="839" y2="20"/>
<line opacity="0.1" stroke="#000000" stroke-width="1" x1="850" y1="657" x2="850" y2="20"/>
<line opacity="0.1" stroke="#000000" stroke-width="1" x1="861" y1="657" x2="861" y2="20"/>
<line opacity="0.1" stroke="#000000" stroke-width="1" x1="872" y1="657" x2="872" y2="20"/>
<line opacity="0.1" stroke="#000000" stroke-width="1" x1="882" y1="657" x2="882" y2="20"/>
<line opacity="0.1" stroke="#000000" stroke-width="1" x1="893" y1="657" x2="893" y2="20"/>
<line opacity="0.1" stroke="#000000" stroke-width="1" x1="904" y1="657" x2="904" y2="20"/>
<line opacity="0.1" stroke="#000000" stroke-width="1" x1="915" y1="657" x2="915" y2="20"/>
<line opacity="0.1" stroke="#000000" stroke-width="1" x1="926" y1="657" x2="926" y2="20"/>
<line opacity="0.1" stroke="#000000" stroke-width="1" x1="937" y1="657" x2="937" y2="20"/>
<line opacity="0.1" stroke="#000000" stroke-width="1" x1="948" y1="657" x2="948" y2="20"/>
<line opacity="0.1" stroke="#000000" stroke-width="1" x1="959" y1="657" x2="959" y2="20"/>
<line opacity="0.1" stroke="#000000" stroke-width="1" x1="970" y1="657" x2="970" y2="20"/>
<line opacity="0.1" stroke="#000000" stroke-width="1" x1="981" y1="657" x2="981" y2="20"/>
<line opacity="0.1" stroke="#000000" stroke-width="1" x1="992" y1="657" x2="992" y2="20"/>
<line opacity="0.1" stroke="#000000" stroke-width="1" x1="1003" y1="657" x2="1003" y2="20"/>
<line opacity="0.1" stroke="#000000" stroke-width="1" x1="130" y1="657" x2="1003" y2="657"/>
<line opacity="0.1" stroke="#000000" stroke-width="1" x1="130" y1="650" x2="1003" y2="650"/>
<line opacity="0.1" stroke="#000000" stroke-width="1" x1="130" y1="642" x2="1003" y2="642"/>
<line opacity="0.1" stroke="#000000" stroke-width="1" x1="130" y1="634" x2="1003" y2="634"/>
<line opacity="0.1" stroke="#000000" stroke-width="1" x1="130" y1="626" x2="1003" y2="626"/>
<line opacity="0.1" stroke="#000000" stroke-width="1" x1="130" y1="618" x2="1003" y2="618"/>
<line opacity="0.1" stroke="#000000" stroke-width="1" x1="130" y1="610" x2="1003" y2="610"/>
<line opacity="0.1" stroke="#000000" stroke-width="1" x1="130" y1="602" x2="1003" y2="602"/>
<line opacity="0.1" stroke="#000000" stroke-width="1" x1="130" y1="594" x2="1003" y2="594"/>
<line opacity="0.1" stroke="#000000" stroke-width="1" x1="130" y1="586" x2="1003" y2="586"/>
<line opacity="0.1" stroke="#000000" stroke-width="1" x1="130" y1="578" x2="1003" y2="578"/>
<line opacity="0.1" stroke="#000000" stroke-width="1" x1="130" y1="570" x2="1003" y2="570"/>
<line opacity="0.1" stroke="#000000" stroke-width="1" x1="130" y1="562" x2="1003" y2="562"/>
<line opacity="0.1" stroke="#000000" stroke-width="1" x1="130" y1="554" x2="1003" y2="554"/>
<line opacity="0.1" stroke="#000000" stroke-width="1" x1="130" y1="546" x2="1003" y2="546"/>
<line opacity="0.1" stroke="#000000" stroke-width="1" x1="130" y1="538" x2="1003" y2="538"/>
<line opacity="0.1" stroke="#000000" stroke-width="1" x1="130" y1="530" x2="1003" y2="530"/>
<line opacity="0.1" stroke="#000000" stroke-width="1" x1="130" y1="522" x2="1003" y2="522"/>
<line opacity="0.1" stroke="#000000" stroke-width="1" x1="130" y1="514" x2="1003" y2="514"/>
<line opacity="0.1" stroke="#000000" stroke-width="1" x1="130" y1="506" x2="1003" y2="506"/>
<line opacity="0.1" stroke="#000000" stroke-width="1" x1="130" y1="498" x2="1003" y2="498"/>
<line opacity="0.1" stroke="#000000" stroke-width="1" x1="130" y1="490" x2="1003" y2="490"/>
<line opacity="0.1" stroke="#000000" stroke-width="1" x1="130" y1="482" x2="1003" y2="482"/>
<line opacity="0.1" stroke="#000000" stroke-width="1" x1="130" y1="474" x2="1003" y2="474"/>
<line opacity="0.1" stroke="#000000" stroke-width="1" x1="130" y1="466" x2="1003" y2="466"/>
<line opacity="0.1" stroke="#000000" stroke-width="1" x1="130" y1="458" x2="1003" y2="458"/>
<line opacity="0.1" stroke="#000000" stroke-width="1" x1="130" y1="450" x2="1003" y2="450"/>
<line opacity="0.1" stroke="#000000" stroke-width="1" x1="130" y1="443" x2="1003" y2="443"/>
<line opacity="0.1" stroke="#000000" stroke-width="1" x1="130" y1="435" x2="1003" y2="435"/>
<line opacity="0.1" stroke="#000000" stroke-width="1" x1="130" y1="427" x2="1003" y2="427"/>
<line opacity="0.1" stroke="#000000" stroke-width="1" x1="130" y1="419" x2="1003" y2="419"/>
<line opacity="0.1" stroke="#000000" stroke-width="1" x1="130" y1="411" x2="1003" y2="411"/>
<line opacity="0.1" stroke="#000000" stroke-width="1" x1="130" y1="403" x2="1003" y2="403"/>
<line opacity="0.1" stroke="#000000" stroke-width="1" x1="130" y1="395" x2="1003" y2="395"/>
<line opacity="0.1" stroke="#000000" stroke-width="1" x1="130" y1="387" x2="1003" y2="387"/>
<line opacity="0.1" stroke="#000000" stroke-width="1" x1="130" y1="379" x2="1003" y2="379"/>
<line opacity="0.1" stroke="#000000" stroke-width="1" x1="130" y1="371" x2="1003" y2="371"/>
<line opacity="0.1" stroke="#000000" stroke-width="1" x1="130" y1="363" x2="1003" y2="363"/>
<line opacity="0.1" stroke="#000000" stroke-width="1" x1="130" y1="355" x2="1003" y2="355"/>
<line opacity="0.1" stroke="#000000" stroke-width="1" x1="130" y1="347" x2="1003" y2="347"/>
<line opacity="0.1" stroke="#000000" stroke-width="1" x1="130" y1="339" x2="1003" y2="339"/>
<line opacity="0.1" stroke="#000000" stroke-width="1" x1="130" y1="331" x2="1003" y2="331"/>
<line opacity="0.1" stroke="#000000" stroke-width="1" x1="130" y1="323" x2="1003" y2="323"/>
<line opacity="0.1" stroke="#000000" stroke-width="1" x1="130" y1="315" x2="1003" y2="315"/>
<line opacity="0.1" stroke="#000000" stroke-width="1" x1="130" y1="307" x2="1003" y2="307"/>
<line opacity="0.1" stroke="#000000" stroke-width="1" x1="130" y1="299" x2="1003" y2="299"/>
<line opacity="0.1" stroke="#000000" stroke-width="1" x1="130" y1="291" x2="1003" y2="291"/>
<line opacity="0.1" stroke="#000000" stroke-width="1" x1="130" y1="283" x2="1003" y2="283"/>
<line opacity="0.1" stroke="#000000" stroke-width="1" x1="130" y1="275" x2="1003" y2="275"/>
<line opacity="0.1" stroke="#000000" stroke-width="1" x1="130" y1="267" x2="1003" y2="267"/>
<line opacity="0.1" stroke="#000000" stroke-width="1" x1="130" y1="259" x2="1003" y2="259"/>
<line opacity="0.1" stroke="#000000" stroke-width="1" x1="130" y1="251" x2="1003" y2="251"/>
<line opacity="0.1" stroke="#000000" stroke-width="1" x1="130" y1="243" x2="1003" y2="243"/>
<line opacity="0.1" stroke="#000000" stroke-width="1" x1="130" y1="235" x2="1003" y2="235"/>
<line opacity="0.1" stroke="#000000" stroke-width="1" x1="130" y1="228" x2="1003" y2="228"/>
<line opacity="0.1" stroke="#000000" stroke-width="1" x1="130" y1="220" x2="1003" y2="220"/>
<line opacity="0.1" stroke="#000000" stroke-width="1" x1="130" y1="212" x2="1003" y2="212"/>
<line opacity="0.1" stroke="#000000" stroke-width="1" x1="130" y1="204" x2="1003" y2="204"/>
<line opacity="0.1" stroke="#000000" stroke-width="1" x1="130" y1="196" x2="1003" y2="196"/>
<line opacity="0.1" stroke="#000000" stroke-width="1" x1="130" y1="188" x2="1003" y2="188"/>
<line opacity="0.1" stroke="#000000" stroke-width="1" x1="130" y1="180" x2="1003" y2="180"/>
<line opacity="0.1" stroke="#000000" stroke-width="1" x1="130" y1="172" x2="1003" y2="172"/>
<line opacity="0.1" stroke="#000000" stroke-width="1" x1="130" y1="164" x2="1003" y2="164"/>
<line opacity="0.1" stroke="#000000" stroke-width="1" x1="130" y1="156" x2="1003" y2="156"/>
<line opacity="0.1" stroke="#000000" stroke-width="1" x1="130" y1="148" x2="1003" y2="148"/>
<line opacity="0.1" stroke="#000000" stroke-width="1" x1="130" y1="140" x2="1003" y2="140"/>
<line opacity="0.1" stroke="#000000" stroke-width="1" x1="130" y1="132" x2="1003" y2="132"/>
<line opacity="0.1" stroke="#000000" stroke-width="1" x1="130" y1="124" x2="1003" y2="124"/>
<line opacity="0.1" stroke="#000000" stroke-width="1" x1="130" y1="116" x2="1003" y2="116"/>
<line opacity="0.1" stroke="#000000" stroke-width="1" x1="130" y1="108" x2="1003" y2="108"/>
<line opacity="0.1" stroke="#000000" stroke-width="1" x1="130" y1="100" x2="1003" y2="100"/>
<line opacity="0.1" stroke="#000000" stroke-width="1" x1="130" y1="92" x2="1003" y2="92"/>
<line opacity="0.1" stroke="#000000" stroke-width="1" x1="130" y1="84" x2="1003" y2="84"/>
<line opacity="0.1" stroke="#000000" stroke-width="1" x1="130" y1="76" x2="1003" y2="76"/>
<line opacity="0.1" stroke="#000000" stroke-width="1" x1="130" y1="68" x2="1003" y2="68"/>
<line opacity="0.1" stroke="#000000" stroke-width="1" x1="130" y1="60" x2="1003" y2="60"/>
<line opacity="0.1" stroke="#000000" stroke-width="1" x1="130" y1="52" x2="1003" y2="52"/>
<line opacity="0.1" stroke="#000000" stroke-width="1" x1="130" y1="44" x2="1003" y2="44"/>
<line opacity="0.1" stroke="#000000" stroke-width="1" x1="130" y1="36" x2="1003" y2="36"/>
<line opacity="0.1" stroke="#000000" stroke-width="1" x1="130" y1="28" x2="1003" y2="28"/>
<line opacity="0.1" stroke="#000000" stroke-width="1" x1="130" y1="20" x2="1003" y2="20"/>
<text x="20" y="339" dy="0.76em" text-anchor="middle" font-family="sans-serif" font-size="24.193548387096776" opacity="1" fill="#000000" transform="rotate(270, 20, 339)">
Power [dB]
</text>
<text x="567" y="748" dy="-0.5ex" text-anchor="middle" font-family="sans-serif" font-size="24.193548387096776" opacity="1" fill="#000000">
Frequency [Hz]
</text>
<line opacity="0.2" stroke="#000000" stroke-width="1" x1="130" y1="657" x2="130" y2="20"/>
<line opacity="0.2" stroke="#000000" stroke-width="1" x1="239" y1="657" x2="239" y2="20"/>
<line opacity="0.2" stroke="#000000" stroke-width="1" x1="348" y1="657" x2="348" y2="20"/>
<line opacity="0.2" stroke="#000000" stroke-width="1" x1="457" y1="657" x2="457" y2="20"/>
<line opacity="0.2" stroke="#000000" stroke-width="1" x1="566" y1="657" x2="566" y2="20"/>
<line opacity="0.2" stroke="#000000" stroke-width="1" x1="675" y1="657" x2="675" y2="20"/>
<line opacity="0.2" stroke="#000000" stroke-width="1" x1="784" y1="657" x2="784" y2="20"/>
<line opacity="0.2" stroke="#000000" stroke-width="1" x1="893" y1="657" x2="893" y2="20"/>
<line opacity="0.2" stroke="#000000" stroke-width="1" x1="1003" y1="657" x2="1003" y2="20"/>
<line opacity="0.2" stroke="#000000" stroke-width="1" x1="130" y1="657" x2="1003" y2="657"/>
<line opacity="0.2" stroke="#000000" stroke-width="1" x1="130" y1="578" x2="1003" y2="578"/>
<line opacity="0.2" stroke="#000000" stroke-width="1" x1="130" y1="498" x2="1003" y2="498"/>
<line opacity="0.2" stroke="#000000" stroke-width="1" x1="130" y1="419" x2="1003" y2="419"/>
<line opacity="0.2" stroke="#000000" stroke-width="1" x1="130" y1="339" x2="1003" y2="339"/>
<line opacity="0.2" stroke="#000000" stroke-width="1" x1="130" y1="259" x2="1003" y2="259"/>
<line opacity="0.2" stroke="#000000" stroke-width="1" x1="130" y1="180" x2="1003" y2="180"/>
<line opacity="0.2" stroke="#000000" stroke-width="1" x1="130" y1="100" x2="1003" y2="100"/>
<line opacity="0.2" stroke="#000000" stroke-width="1" x1="130" y1="20" x2="1003" y2="20"/>
<polyline fill="none" opacity="1" stroke="#000000" stroke-width="1" points="129,20 129,657 "/>
<text x="120" y="657" dy="0.5ex" text-anchor="end" font-family="sans-serif" font-size="24.193548387096776" opacity="1" fill="#000000">
-60.0
</text>
<polyline fill="none" opacity="1" stroke="#000000" stroke-width="1" points="124,657 129,657 "/>
<text x="120" y="578" dy="0.5ex" text-anchor="end" font-family="sans-serif" font-size="24.193548387096776" opacity="1" fill="#000000">
-50.0
</text>
<polyline fill="none" opacity="1" stroke="#000000" stroke-width="1" points="124,578 129,578 "/>
<text x="120" y="498" dy="0.5ex" text-anchor="end" font-family="sans-serif" font-size="24.193548387096776" opacity="1" fill="#000000">
-40.0
</text>
<polyline fill="none" opacity="1" stroke="#000000" stroke-width="1" points="124,498 129,498 "/>
<text x="120" y="419" dy="0.5ex" text-anchor="end" font-family="sans-serif" font-size="24.193548387096776" opacity="1" fill="#000000">
-30.0
</text>
<polyline fill="none" opacity="1" stroke="#000000" stroke-width="1" points="124,419 129,419 "/>
<text x="120" y="339" dy="0.5ex" text-anchor="end" font-family="sans-serif" font-size="24.193548387096776" opacity="1" fill="#000000">
-20.0
</text>
<polyline fill="none" opacity="1" stroke="#000000" stroke-width="1" points="124,339 129,339 "/>
<text x="120" y="259" dy="0.5ex" text-anchor="end" font-family="sans-serif" font-size="24.193548387096776" opacity="1" fill="#000000">
-10.0
</text>
<polyline fill="none" opacity="1" stroke="#000000" stroke-width="1" points="124,259 129,259 "/>
<text x="120" y="180" dy="0.5ex" text-anchor="end" font-family="sans-serif" font-size="24.193548387096776" opacity="1" fill="#000000">
0.0
</text>
<polyline fill="none" opacity="1" stroke="#000000" stroke-width="1" points="124,180 129,180 "/>
<text x="120" y="100" dy="0.5ex" text-anchor="end" font-family="sans-serif" font-size="24.193548387096776" opacity="1" fill="#000000">
10.0
</text>
<polyline fill="none" opacity="1" stroke="#000000" stroke-width="1" points="124,100 129,100 "/>
<text x="120" y="20" dy="0.5ex" text-anchor="end" font-family="sans-serif" font-size="24.193548387096776" opacity="1" fill="#000000">
20.0
</text>
<polyline fill="none" opacity="1" stroke="#000000" stroke-width="1" points="124,20 129,20 "/>
<polyline fill="none" opacity="1" stroke="#000000" stroke-width="1" points="130,658 1003,658 "/>
<text x="130" y="668" dy="0.76em" text-anchor="middle" font-family="sans-serif" font-size="24.193548387096776" opacity="1" fill="#000000">
0.0
</text>
<polyline fill="none" opacity="1" stroke="#000000" stroke-width="1" points="130,658 130,663 "/>
<text x="239" y="668" dy="0.76em" text-anchor="middle" font-family="sans-serif" font-size="24.193548387096776" opacity="1" fill="#000000">
1000.0
</text>
<polyline fill="none" opacity="1" stroke="#000000" stroke-width="1" points="239,658 239,663 "/>
<text x="348" y="668" dy="0.76em" text-anchor="middle" font-family="sans-serif" font-size="24.193548387096776" opacity="1" fill="#000000">
2000.0
</text>
<polyline fill="none" opacity="1" stroke="#000000" stroke-width="1" points="348,658 348,663 "/>
<text x="457" y="668" dy="0.76em" text-anchor="middle" font-family="sans-serif" font-size="24.193548387096776" opacity="1" fill="#000000">
3000.0
</text>
<polyline fill="none" opacity="1" stroke="#000000" stroke-width="1" points="457,658 457,663 "/>
<text x="566" y="668" dy="0.76em" text-anchor="middle" font-family="sans-serif" font-size="24.193548387096776" opacity="1" fill="#000000">
4000.0
</text>
<polyline fill="none" opacity="1" stroke="#000000" stroke-width="1" points="566,658 566,663 "/>
<text x="675" y="668" dy="0.76em" text-anchor="middle" font-family="sans-serif" font-size="24.193548387096776" opacity="1" fill="#000000">
5000.0
</text>
<polyline fill="none" opacity="1" stroke="#000000" stroke-width="1" points="675,658 675,663 "/>
<text x="784" y="668" dy="0.76em" text-anchor="middle" font-family="sans-serif" font-size="24.193548387096776" opacity="1" fill="#000000">
6000.0
</text>
<polyline fill="none" opacity="1" stroke="#000000" stroke-width="1" points="784,658 784,663 "/>
<text x="893" y="668" dy="0.76em" text-anchor="middle" font-family="sans-serif" font-size="24.193548387096776" opacity="1" fill="#000000">
7000.0
</text>
<polyline fill="none" opacity="1" stroke="#000000" stroke-width="1" points="893,658 893,663 "/>
<text x="1003" y="668" dy="0.76em" text-anchor="middle" font-family="sans-serif" font-size="24.193548387096776" opacity="1" fill="#000000">
8000.0
</text>
<polyline fill="none" opacity="1" stroke="#000000" stroke-width="1" points="1003,658 1003,663 "/>
<polyline fill="none" opacity="1" stroke="#E6194B" stroke-width="1" points="130,292 131,292 133,271 134,272 136,239 137,242 139,242 140,216 142,259 143,197 145,158 146,169 148,208 149,179 151,198 152,192 154,190 155,217 157,193 158,146 160,112 161,116 163,183 164,193 166,260 167,271 169,207 170,202 172,250 173,264 175,183 176,188 178,217 180,189 181,182 183,183 184,190 186,184 187,166 189,183 190,80 192,64 193,99 195,143 196,188 198,221 199,249 201,239 202,245 204,165 205,148 207,124 208,147 210,169 211,173 213,180 214,190 216,183 217,142 219,130 220,85 222,52 223,62 225,107 227,166 228,205 230,235 231,247 233,241 234,243 236,198 237,171 239,162 240,173 242,211 243,244 245,170 246,183 248,194 249,157 251,182 252,110 254,102 255,133 257,195 258,259 260,253 261,214 263,219 264,256 266,248 267,237 269,203 270,183 272,216 273,197 275,174 277,150 278,144 280,168 281,149 283,119 284,89 286,96 287,129 289,172 290,208 292,189 293,177 295,143 296,136 298,198 299,122 301,114 302,156 304,180 305,152 307,128 308,134 310,105 311,112 313,80 314,53 316,58 317,88 319,122 320,148 322,165 324,158 325,158 327,154 328,125 330,103 331,106 333,141 334,166 336,163 337,173 339,128 340,124 342,137 343,158 345,94 346,77 348,92 349,135 351,169 352,179 354,206 355,226 357,244 358,233 360,222 361,236 363,210 364,220 366,260 367,237 369,180 370,183 372,179 374,153 375,124 377,91 378,90 380,118 381,207 383,177 384,205 386,234 387,297 389,236 390,182 392,154 393,124 395,137 396,182 398,260 399,166 401,136 402,136 404,137 405,142 407,115 408,86 410,97 411,160 413,180 414,170 416,179 417,204 419,186 421,175 422,163 424,144 425,161 427,213 428,180 430,176 431,172 433,167 434,230 436,173 437,157 439,124 440,132 442,177 443,255 445,233 446,229 448,260 449,241 451,245 452,221 454,252 455,293 457,253 458,264 460,220 461,281 463,178 464,157 466,225 467,178 469,152 471,125 472,142 474,176 475,203 477,264 478,242 480,253 481,223 483,221 484,207 486,175 487,176 489,176 490,241 492,197 493,304 495,176 496,173 498,185 499,226 501,152 502,161 504,208 505,217 507,284 508,250 510,280 511,233 513,240 514,262 516,237 518,272 519,357 521,345 522,325 524,306 525,289 527,289 528,240 530,199 531,196 533,178 534,188 536,236 537,243 539,218 540,242 542,287 543,374 545,337 546,339 548,314 549,308 551,325 552,292 554,272 555,290 557,289 558,281 560,266 561,268 563,257 564,224 566,209 568,223 569,242 571,250 572,290 574,243 575,252 577,290 578,347 580,274 581,249 583,258 584,310 586,312 587,299 589,320 590,314 592,288 593,295 595,327 596,299 598,324 599,395 601,389 602,332 604,323 605,375 607,335 608,345 610,321 611,364 613,326 615,334 616,349 618,404 619,318 621,300 622,270 624,247 625,226 627,248 628,307 630,344 631,334 633,295 634,301 636,375 637,370 639,385 640,360 642,311 643,292 645,295 646,303 648,308 649,332 651,347 652,337 654,385 655,336 657,342 658,376 660,390 661,370 663,339 665,357 666,363 668,352 669,341 671,321 672,344 674,361 675,323 677,326 678,371 680,303 681,291 683,306 684,347 686,349 687,335 689,350 690,431 692,434 693,457 695,460 696,476 698,442 699,436 701,436 702,422 704,461 705,458 707,386 708,354 710,360 712,402 713,384 715,377 716,426 718,463 719,443 721,449 722,506 724,501 725,501 727,522 728,498 730,500 731,500 733,640 734,451 736,427 737,429 739,461 740,445 742,451 743,435 745,412 746,387 748,385 749,330 751,306 752,322 754,414 755,386 757,511 758,410 760,420 762,403 763,407 765,430 766,435 768,440 769,437 771,464 772,453 774,476 775,475 777,447 778,440 780,451 781,495 783,465 784,440 786,451 787,475 789,491 790,469 792,505 793,449 795,428 796,427 798,493 799,447 801,457 802,433 804,455 805,383 807,347 809,342 810,372 812,491 813,480 815,455 816,452 818,351 819,306 821,297 822,320 824,403 825,426 827,472 828,442 830,459 831,451 833,439 834,513 836,483 837,394 839,350 840,332 842,334 843,359 845,360 846,339 848,350 849,413 851,446 852,474 854,490 855,493 857,486 859,484 860,492 862,486 863,500 865,494 866,471 868,460 869,468 871,493 872,590 874,459 875,434 877,443 878,494 880,477 881,481 883,462 884,476 886,468 887,438 889,442 890,377 892,337 893,345 895,429 896,413 898,464 899,470 901,472 902,473 904,459 906,450 907,458 909,493 910,463 912,486 913,473 915,443 916,437 918,370 919,343 921,352 922,402 924,435 925,453 927,450 928,438 930,412 931,358 933,345 934,367 936,461 937,453 939,431 940,493 942,438 943,450 945,474 946,462 948,449 949,453 951,455 952,555 954,443 956,432 957,415 959,410 960,419 962,420 963,419 965,445 966,465 968,485 969,501 971,490 972,497 974,496 975,505 977,537 978,518 980,521 981,517 983,481 984,469 986,481 987,472 989,519 990,474 992,420 993,395 995,408 996,463 998,452 999,475 1001,514 1003,498 1004,514 1004,475 1004,452 1004,463 1004,408 1004,395 1004,420 1004,474 1004,519 1004,472 1004,481 1004,469 1004,481 1004,517 1004,521 1004,518 1004,537 1004,505 1004,496 1004,497 1004,490 1004,501 1004,485 1004,465 1004,445 1004,419 1004,420 1004,419 1004,410 1004,415 1004,432 1004,443 1004,555 1004,455 1004,453 1004,449 1004,462 1004,474 1004,450 1004,438 1004,493 1004,431 1004,453 1004,461 1004,367 1004,345 1004,358 1004,412 1004,438 1004,450 1004,453 1004,435 1004,402 1004,352 1004,343 1004,370 1004,437 1004,443 1004,473 1004,486 1004,463 1004,493 1004,458 1004,450 1004,459 1004,473 1004,472 1004,470 1004,464 1004,413 1004,429 1004,345 1004,337 1004,377 1004,442 1004,438 1004,468 1004,476 1004,462 1004,481 1004,477 1004,494 1004,443 1004,434 1004,459 1004,590 1004,493 1004,468 1004,460 1004,471 1004,494 1004,500 1004,486 1004,492 1004,484 1004,486 1004,493 1004,490 1004,474 1004,446 1004,413 1004,350 1004,339 1004,360 1004,359 1004,334 1004,332 1004,350 1004,394 1004,483 1004,513 1004,439 1004,451 1004,459 1004,442 1004,472 1004,426 1004,403 1004,320 1004,297 1004,306 1004,351 1004,452 1004,455 1004,480 1004,491 1004,372 1004,342 1004,347 1004,383 1004,455 1004,433 1004,457 1004,447 1004,493 1004,427 1004,428 1004,449 1004,505 1004,469 1004,491 1004,475 1004,451 1004,440 1004,465 1004,495 1004,451 1004,440 1004,447 1004,475 1004,476 1004,453 1004,464 1004,437 1004,440 1004,435 1004,430 1004,407 1004,403 1004,420 1004,410 1004,511 1004,386 1004,414 1004,322 1004,306 1004,330 1004,385 1004,387 1004,412 1004,435 1004,451 1004,445 1004,461 1004,429 1004,427 1004,451 1004,640 1004,500 1004,500 1004,498 1004,522 1004,501 1004,501 1004,506 1004,449 1004,443 1004,463 1004,426 1004,377 1004,384 1004,402 1004,360 1004,354 1004,386 1004,458 1004,461 1004,422 1004,436 1004,436 1004,442 1004,476 1004,460 1004,457 1004,434 1004,431 1004,350 1004,335 1004,349 1004,347 1004,306 1004,291 1004,303 1004,371 1004,326 1004,323 1004,361 1004,344 1004,321 1004,341 1004,352 1004,363 1004,357 1004,339 1004,370 1004,390 1004,376 1004,342 1004,336 1004,385 1004,337 1004,347 1004,332 1004,308 1004,303 1004,295 1004,292 1004,311 1004,360 1004,385 1004,370 1004,375 1004,301 1004,295 1004,334 1004,344 1004,307 1004,248 1004,226 1004,247 1004,270 1004,300 1004,318 1004,404 1004,349 1004,334 1004,326 1004,364 1004,321 1004,345 1004,335 1004,375 1004,323 1004,332 1004,389 1004,395 1004,324 1004,299 1004,327 1004,295 1004,288 1004,314 1004,320 1004,299 1004,312 1004,310 1004,258 1004,249 1004,274 1004,347 1004,290 1004,252 1004,243 1004,290 1004,250 1004,242 1004,223 1004,209 1004,224 1004,257 1004,268 1004,266 1004,281 1004,289 1004,290 1004,272 1004,292 1004,325 1004,308 1004,314 1004,339 1004,337 1004,374 1004,287 1004,242 1004,218 1004,243 1004,236 1004,188 1004,178 1004,196 1004,199 1004,240 1004,289 1004,289 1004,306 1004,325 1004,345 1004,357 1004,272 1004,237 1004,262 1004,240 1004,233 1004,280 1004,250 1004,284 1004,217 1004,208 1004,161 1004,152 1004,226 1004,185 1004,173 1004,176 1004,304 1004,197 1004,241 1004,176 1004,176 1004,175 1004,207 1004,221 1004,223 1004,253 1004,242 1004,264 1004,203 1004,176 1004,142 1004,125 1004,152 1004,178 1004,225 1004,157 1004,178 1004,281 1004,220 1004,264 1004,253 1004,293 1004,252 1004,221 1004,245 1004,241 1004,260 1004,229 1004,233 1004,255 1004,177 1004,132 1004,124 1004,157 1004,173 1004,230 1004,167 1004,172 1004,176 1004,180 1004,213 1004,161 1004,144 1004,163 1004,175 1004,186 1004,204 1004,179 1004,170 1004,180 1004,160 1004,97 1004,86 1004,115 1004,142 1004,137 1004,136 1004,136 1004,166 1004,260 1004,182 1004,137 1004,124 1004,154 1004,182 1004,236 1004,297 1004,234 1004,205 1004,177 1004,207 1004,118 1004,90 1004,91 1004,124 1004,153 1004,179 1004,183 1004,180 1004,237 1004,260 1004,220 1004,210 1004,236 1004,222 1004,233 1004,244 1004,226 1004,206 1004,179 1004,169 1004,135 1004,92 1004,77 1004,94 1004,158 1004,137 1004,124 1004,128 1004,173 1004,163 1004,166 1004,141 1004,106 1004,103 1004,125 1004,154 1004,158 1004,158 1004,165 1004,148 1004,122 1004,88 1004,58 1004,53 1004,80 1004,112 1004,105 1004,134 1004,128 1004,152 1004,180 1004,156 1004,114 1004,122 1004,198 1004,136 1004,143 1004,177 1004,189 1004,208 1004,172 1004,129 1004,96 1004,89 1004,119 1004,149 1004,168 1004,144 1004,150 1004,174 1004,197 1004,216 1004,183 1004,203 1004,237 1004,248 1004,256 1004,219 1004,214 1004,253 1004,259 1004,195 1004,133 1004,102 1004,110 1004,182 1004,157 1004,194 1004,183 1004,170 1004,244 1004,211 1004,173 1004,162 1004,171 1004,198 1004,243 1004,241 1004,247 1004,235 1004,205 1004,166 1004,107 1004,62 1004,52 1004,85 1004,130 1004,142 1004,183 1004,190 1004,180 1004,173 1004,169 1004,147 1004,124 1004,148 1004,165 1004,245 1004,239 1004,249 1004,221 1004,188 1004,143 1004,99 1004,64 1004,80 1004,183 1004,166 1004,184 1004,190 1004,183 1004,182 1004,189 1004,217 1004,188 1004,183 1004,264 1004,250 1004,202 1004,207 1004,271 1004,260 1004,193 1004,183 1004,116 1004,112 1004,146 1004,193 1004,217 1004,190 1004,192 1004,198 1004,179 1004,208 1004,169 1004,158 1004,197 1004,259 1004,216 1004,242 1004,242 1004,239 1004,272 1004,271 1004,292 "/>
<polyline fill="none" opacity="1" stroke="#3CB44B" stroke-width="1" points="130,270 131,270 133,269 134,269 136,268 137,268 139,267 140,266 142,265 143,264 145,262 146,261 148,259 149,258 151,256 152,255 154,254 155,252 157,251 158,250 160,248 161,247 163,247 164,246 166,245 167,244 169,244 170,244 172,243 173,243 175,243 176,243 178,243 180,243 181,243 183,243 184,242 186,242 187,242 189,242 190,241 192,240 193,240 195,239 196,238 198,237 199,236 201,235 202,234 204,233 205,232 207,231 208,230 210,230 211,229 213,228 214,228 216,228 217,228 219,228 220,229 222,230 223,231 225,232 227,233 228,234 230,236 231,237 233,239 234,240 236,242 237,244 239,245 240,246 242,248 243,249 245,250 246,251 248,252 249,252 251,253 252,253 254,253 255,253 257,253 258,252 260,252 261,251 263,250 264,249 266,248 267,247 269,246 270,245 272,243 273,242 275,240 277,238 278,237 280,235 281,234 283,232 284,231 286,229 287,228 289,226 290,225 292,224 293,223 295,222 296,221 298,220 299,219 301,219 302,218 304,218 305,218 307,218 308,218 310,218 311,219 313,219 314,220 316,221 317,222 319,223 320,224 322,225 324,227 325,229 327,230 328,232 330,234 331,236 333,238 334,240 336,242 337,244 339,246 340,248 342,250 343,252 345,254 346,256 348,258 349,259 351,261 352,262 354,263 355,264 357,265 358,265 360,266 361,266 363,266 364,266 366,266 367,265 369,265 370,264 372,263 374,262 375,261 377,259 378,258 380,257 381,255 383,254 384,252 386,251 387,249 389,248 390,247 392,246 393,246 395,245 396,245 398,245 399,246 401,246 402,247 404,248 405,250 407,251 408,253 410,255 411,257 413,259 414,261 416,263 417,266 419,268 421,270 422,272 424,274 425,276 427,278 428,279 430,281 431,282 433,283 434,285 436,286 437,287 439,287 440,288 442,288 443,289 445,289 446,289 448,289 449,289 451,289 452,288 454,288 455,287 457,287 458,286 460,286 461,285 463,285 464,284 466,283 467,283 469,283 471,282 472,282 474,282 475,282 477,282 478,282 480,283 481,283 483,284 484,285 486,286 487,287 489,288 490,290 492,291 493,293 495,294 496,296 498,298 499,300 501,302 502,304 504,306 505,308 507,310 508,311 510,313 511,315 513,316 514,318 516,319 518,320 519,321 521,322 522,322 524,323 525,323 527,323 528,323 530,323 531,323 533,322 534,321 536,321 537,320 539,319 540,318 542,317 543,316 545,315 546,314 548,313 549,312 551,312 552,311 554,311 555,311 557,311 558,311 560,312 561,313 563,314 564,315 566,316 568,318 569,319 571,321 572,323 574,325 575,327 577,329 578,331 580,333 581,334 583,336 584,338 586,339 587,341 589,342 590,343 592,344 593,344 595,345 596,345 598,345 599,345 601,345 602,344 604,344 605,343 607,342 608,341 610,340 611,339 613,338 615,338 616,337 618,336 619,335 621,335 622,334 624,334 625,334 627,334 628,334 630,334 631,335 633,335 634,336 636,337 637,338 639,339 640,340 642,341 643,342 645,344 646,345 648,346 649,347 651,348 652,348 654,349 655,350 657,350 658,351 660,351 661,352 663,352 665,352 666,352 668,353 669,353 671,353 672,354 674,354 675,355 677,355 678,356 680,357 681,359 683,360 684,362 686,363 687,365 689,367 690,369 692,372 693,374 695,377 696,379 698,382 699,384 701,386 702,389 704,391 705,393 707,395 708,396 710,398 712,399 713,400 715,401 716,401 718,401 719,401 721,400 722,400 724,398 725,397 727,395 728,394 730,392 731,389 733,387 734,385 736,382 737,380 739,377 740,375 742,372 743,370 745,368 746,366 748,365 749,364 751,363 752,362 754,362 755,362 757,363 758,364 760,365 762,366 763,368 765,370 766,372 768,374 769,376 771,378 772,380 774,382 775,384 777,385 778,387 780,388 781,389 783,390 784,390 786,390 787,390 789,389 790,388 792,387 793,386 795,384 796,382 798,380 799,378 801,375 802,372 804,370 805,367 807,364 809,361 810,359 812,356 813,354 815,352 816,350 818,349 819,348 821,347 822,347 824,347 825,347 827,348 828,349 830,350 831,352 833,354 834,356 836,359 837,361 839,363 840,366 842,369 843,371 845,373 846,376 848,378 849,380 851,382 852,383 854,385 855,386 857,387 859,388 860,389 862,389 863,389 865,389 866,389 868,389 869,389 871,388 872,388 874,387 875,386 877,385 878,384 880,383 881,382 883,381 884,380 886,379 887,378 889,377 890,376 892,375 893,374 895,374 896,373 898,372 899,371 901,371 902,370 904,369 906,368 907,368 909,367 910,366 912,366 913,365 915,365 916,364 918,363 919,363 921,363 922,362 924,362 925,362 927,362 928,362 930,362 931,362 933,363 934,363 936,364 937,365 939,366 940,367 942,368 943,369 945,371 946,372 948,374 949,375 951,377 952,379 954,380 956,382 957,383 959,385 960,386 962,387 963,388 965,389 966,390 968,391 969,391 971,392 972,392 974,392 975,392 977,392 978,392 980,391 981,391 983,390 984,389 986,389 987,388 989,387 990,387 992,386 993,385 995,385 996,384 998,384 999,383 1001,383 1003,383 1004,383 1004,383 1004,384 1004,384 1004,385 1004,385 1004,386 1004,387 1004,387 1004,388 1004,389 1004,389 1004,390 1004,391 1004,391 1004,392 1004,392 1004,392 1004,392 1004,392 1004,392 1004,391 1004,391 1004,390 1004,389 1004,388 1004,387 1004,386 1004,385 1004,383 1004,382 1004,380 1004,379 1004,377 1004,375 1004,374 1004,372 1004,371 1004,369 1004,368 1004,367 1004,366 1004,365 1004,364 1004,363 1004,363 1004,362 1004,362 1004,362 1004,362 1004,362 1004,362 1004,362 1004,363 1004,363 1004,363 1004,364 1004,365 1004,365 1004,366 1004,366 1004,367 1004,368 1004,368 1004,369 1004,370 1004,371 1004,371 1004,372 1004,373 1004,374 1004,374 1004,375 1004,376 1004,377 1004,378 1004,379 1004,380 1004,381 1004,382 1004,383 1004,384 1004,385 1004,386 1004,387 1004,388 1004,388 1004,389 1004,389 1004,389 1004,389 1004,389 1004,389 1004,389 1004,388 1004,387 1004,386 1004,385 1004,383 1004,382 1004,380 1004,378 1004,376 1004,373 1004,371 1004,369 1004,366 1004,363 1004,361 1004,359 1004,356 1004,354 1004,352 1004,350 1004,349 1004,348 1004,347 1004,347 1004,347 1004,347 1004,348 1004,349 1004,350 1004,352 1004,354 1004,356 1004,359 1004,361 1004,364 1004,367 1004,370 1004,372 1004,375 1004,378 1004,380 1004,382 1004,384 1004,386 1004,387 1004,388 1004,389 1004,390 1004,390 1004,390 1004,390 1004,389 1004,388 1004,387 1004,385 1004,384 1004,382 1004,380 1004,378 1004,376 1004,374 1004,372 1004,370 1004,368 1004,366 1004,365 1004,364 1004,363 1004,362 1004,362 1004,362 1004,363 1004,364 1004,365 1004,366 1004,368 1004,370 1004,372 1004,375 1004,377 1004,380 1004,382 1004,385 1004,387 1004,389 1004,392 1004,394 1004,395 1004,397 1004,398 1004,400 1004,400 1004,401 1004,401 1004,401 1004,401 1004,400 1004,399 1004,398 1004,396 1004,395 1004,393 1004,391 1004,389 1004,386 1004,384 1004,382 1004,379 1004,377 1004,374 1004,372 1004,369 1004,367 1004,365 1004,363 1004,362 1004,360 1004,359 1004,357 1004,356 1004,355 1004,355 1004,354 1004,354 1004,353 1004,353 1004,353 1004,352 1004,352 1004,352 1004,352 1004,351 1004,351 1004,350 1004,350 1004,349 1004,348 1004,348 1004,347 1004,346 1004,345 1004,344 1004,342 1004,341 1004,340 1004,339 1004,338 1004,337 1004,336 1004,335 1004,335 1004,334 1004,334 1004,334 1004,334 1004,334 1004,334 1004,335 1004,335 1004,336 1004,337 1004,338 1004,338 1004,339 1004,340 1004,341 1004,342 1004,343 1004,344 1004,344 1004,345 1004,345 1004,345 1004,345 1004,345 1004,344 1004,344 1004,343 1004,342 1004,341 1004,339 1004,338 1004,336 1004,334 1004,333 1004,331 1004,329 1004,327 1004,325 1004,323 1004,321 1004,319 1004,318 1004,316 1004,315 1004,314 1004,313 1004,312 1004,311 1004,311 1004,311 1004,311 1004,311 1004,312 1004,312 1004,313 1004,314 1004,315 1004,316 1004,317 1004,318 1004,319 1004,320 1004,321 1004,321 1004,322 1004,323 1004,323 1004,323 1004,323 1004,323 1004,323 1004,322 1004,322 1004,321 1004,320 1004,319 1004,318 1004,316 1004,315 1004,313 1004,311 1004,310 1004,308 1004,306 1004,304 1004,302 1004,300 1004,298 1004,296 1004,294 1004,293 1004,291 1004,290 1004,288 1004,287 1004,286 1004,285 1004,284 1004,283 1004,283 1004,282 1004,282 1004,282 1004,282 1004,282 1004,282 1004,283 1004,283 1004,283 1004,284 1004,285 1004,285 1004,286 1004,286 1004,287 1004,287 1004,288 1004,288 1004,289 1004,289 1004,289 1004,289 1004,289 1004,289 1004,288 1004,288 1004,287 1004,287 1004,286 1004,285 1004,283 1004,282 1004,281 1004,279 1004,278 1004,276 1004,274 1004,272 1004,270 1004,268 1004,266 1004,263 1004,261 1004,259 1004,257 1004,255 1004,253 1004,251 1004,250 1004,248 1004,247 1004,246 1004,246 1004,245 1004,245 1004,245 1004,246 1004,246 1004,247 1004,248 1004,249 1004,251 1004,252 1004,254 1004,255 1004,257 1004,258 1004,259 1004,261 1004,262 1004,263 1004,264 1004,265 1004,265 1004,266 1004,266 1004,266 1004,266 1004,266 1004,265 1004,265 1004,264 1004,263 1004,262 1004,261 1004,259 1004,258 1004,256 1004,254 1004,252 1004,250 1004,248 1004,246 1004,244 1004,242 1004,240 1004,238 1004,236 1004,234 1004,232 1004,230 1004,229 1004,227 1004,225 1004,224 1004,223 1004,222 1004,221 1004,220 1004,219 1004,219 1004,218 1004,218 1004,218 1004,218 1004,218 1004,218 1004,219 1004,219 1004,220 1004,221 1004,222 1004,223 1004,224 1004,225 1004,226 1004,228 1004,229 1004,231 1004,232 1004,234 1004,235 1004,237 1004,238 1004,240 1004,242 1004,243 1004,245 1004,246 1004,247 1004,248 1004,249 1004,250 1004,251 1004,252 1004,252 1004,253 1004,253 1004,253 1004,253 1004,253 1004,252 1004,252 1004,251 1004,250 1004,249 1004,248 1004,246 1004,245 1004,244 1004,242 1004,240 1004,239 1004,237 1004,236 1004,234 1004,233 1004,232 1004,231 1004,230 1004,229 1004,228 1004,228 1004,228 1004,228 1004,228 1004,229 1004,230 1004,230 1004,231 1004,232 1004,233 1004,234 1004,235 1004,236 1004,237 1004,238 1004,239 1004,240 1004,240 1004,241 1004,242 1004,242 1004,242 1004,242 1004,243 1004,243 1004,243 1004,243 1004,243 1004,243 1004,243 1004,243 1004,244 1004,244 1004,244 1004,245 1004,246 1004,247 1004,247 1004,248 1004,250 1004,251 1004,252 1004,254 1004,255 1004,256 1004,258 1004,259 1004,261 1004,262 1004,264 1004,265 1004,266 1004,267 1004,268 1004,268 1004,269 1004,269 1004,270 "/>
<polyline fill="none" opacity="1" stroke="#FFE119" stroke-width="1" points="130,366 131,366 133,366 134,366 136,366 137,366 139,366 140,367 142,367 143,367 145,367 146,367 148,367 149,367 151,368 152,368 154,368 155,368 157,368 158,369 160,369 161,369 163,369 164,369 166,369 167,369 169,370 170,370 172,370 173,370 175,370 176,370 178,370 180,370 181,370 183,370 184,370 186,370 187,370 189,370 190,370 192,370 193,370 195,370 196,370 198,370 199,370 201,370 202,370 204,370 205,370 207,370 208,370 210,370 211,370 213,370 214,370 216,370 217,370 219,370 220,370 222,370 223,370 225,370 227,370 228,370 230,370 231,370 233,370 234,371 236,371 237,371 239,370 240,370 242,370 243,370 245,370 246,370 248,370 249,370 251,370 252,370 254,370 255,370 257,370 258,370 260,370 261,369 263,369 264,369 266,369 267,369 269,369 270,369 272,369 273,369 275,369 277,369 278,369 280,369 281,369 283,369 284,369 286,369 287,369 289,370 290,370 292,370 293,370 295,370 296,370 298,370 299,370 301,370 302,370 304,370 305,370 307,370 308,370 310,370 311,370 313,370 314,370 316,370 317,370 319,370 320,370 322,371 324,371 325,371 327,371 328,371 330,371 331,371 333,371 334,371 336,371 337,371 339,371 340,371 342,371 343,371 345,371 346,371 348,371 349,371 351,371 352,371 354,371 355,371 357,371 358,371 360,371 361,371 363,371 364,371 366,371 367,371 369,371 370,371 372,371 374,371 375,371 377,371 378,371 380,371 381,371 383,371 384,372 386,372 387,372 389,372 390,372 392,372 393,372 395,371 396,371 398,371 399,371 401,371 402,371 404,371 405,371 407,371 408,371 410,371 411,371 413,371 414,371 416,371 417,371 419,371 421,371 422,371 424,371 425,371 427,371 428,371 430,372 431,372 433,372 434,372 436,372 437,372 439,373 440,373 442,373 443,373 445,373 446,373 448,373 449,373 451,373 452,373 454,373 455,373 457,372 458,372 460,372 461,372 463,372 464,372 466,372 467,371 469,371 471,371 472,371 474,371 475,371 477,371 478,371 480,371 481,371 483,371 484,371 486,371 487,371 489,371 490,371 492,371 493,370 495,370 496,370 498,370 499,370 501,369 502,369 504,369 505,368 507,368 508,368 510,367 511,367 513,367 514,366 516,366 518,366 519,366 521,366 522,366 524,366 525,367 527,367 528,367 530,367 531,368 533,368 534,368 536,368 537,368 539,368 540,368 542,368 543,367 545,367 546,366 548,365 549,364 551,363 552,361 554,360 555,358 557,356 558,354 560,352 561,350 563,349 564,348 566,347 568,347 569,348 571,350 572,352 574,355 575,358 577,361 578,365 580,369 581,373 583,377 584,380 586,384 587,387 589,390 590,393 592,395 593,397 595,399 596,401 598,402 599,403 601,404 602,405 604,405 605,405 607,405 608,404 610,403 611,402 613,401 615,399 616,396 618,394 619,391 621,388 622,385 624,382 625,378 627,375 628,372 630,370 631,369 633,370 634,371 636,375 637,379 639,384 640,389 642,395 643,400 645,406 646,411 648,417 649,422 651,427 652,431 654,436 655,440 657,445 658,449 660,453 661,457 663,461 665,464 666,468 668,472 669,475 671,479 672,482 674,486 675,489 677,493 678,496 680,499 681,502 683,505 684,508 686,511 687,514 689,517 690,519 692,522 693,524 695,527 696,529 698,531 699,533 701,535 702,536 704,538 705,539 707,541 708,542 710,543 712,544 713,544 715,545 716,545 718,546 719,546 721,546 722,546 724,545 725,545 727,544 728,544 730,543 731,542 733,541 734,540 736,539 737,538 739,537 740,536 742,535 743,535 745,534 746,534 748,535 749,535 751,536 752,537 754,539 755,541 757,543 758,545 760,547 762,549 763,552 765,554 766,557 768,559 769,561 771,563 772,565 774,567 775,569 777,570 778,571 780,573 781,574 783,574 784,575 786,575 787,575 789,575 790,575 792,574 793,573 795,572 796,571 798,569 799,567 801,565 802,562 804,559 805,555 807,551 809,546 810,541 812,535 813,528 815,521 816,512 818,502 819,491 821,480 822,470 824,466 825,470 827,480 828,492 830,504 831,515 833,525 834,534 836,542 837,549 839,555 840,561 842,566 843,570 845,575 846,578 848,582 849,585 851,588 852,590 854,592 855,594 857,596 859,597 860,599 862,600 863,601 865,601 866,602 868,602 869,602 871,602 872,602 874,601 875,601 877,600 878,599 880,598 881,597 883,596 884,595 886,594 887,592 889,591 890,589 892,588 893,586 895,584 896,583 898,581 899,579 901,578 902,576 904,574 906,573 907,571 909,570 910,568 912,567 913,565 915,564 916,563 918,562 919,562 921,562 922,563 924,564 925,565 927,568 928,571 930,574 931,578 933,583 934,587 936,592 937,598 939,603 940,608 942,613 943,618 945,623 946,628 948,633 949,637 951,642 952,646 954,650 956,654 957,658 959,658 960,658 962,658 963,658 965,658 966,658 968,658 969,658 971,658 972,658 974,658 975,658 977,658 978,658 980,658 981,658 983,658 984,658 986,658 987,658 989,658 990,658 992,658 993,658 995,658 996,658 998,658 999,658 1001,658 1003,658 1004,658 1004,658 1004,658 1004,658 1004,658 1004,658 1004,658 1004,658 1004,658 1004,658 1004,658 1004,658 1004,658 1004,658 1004,658 1004,658 1004,658 1004,658 1004,658 1004,658 1004,658 1004,658 1004,658 1004,658 1004,658 1004,658 1004,658 1004,658 1004,658 1004,658 1004,654 1004,650 1004,646 1004,642 1004,637 1004,633 1004,628 1004,623 1004,618 1004,613 1004,608 1004,603 1004,598 1004,592 1004,587 1004,583 1004,578 1004,574 1004,571 1004,568 1004,565 1004,564 1004,563 1004,562 1004,562 1004,562 1004,563 1004,564 1004,565 1004,567 1004,568 1004,570 1004,571 1004,573 1004,574 1004,576 1004,578 1004,579 1004,581 1004,583 1004,584 1004,586 1004,588 1004,589 1004,591 1004,592 1004,594 1004,595 1004,596 1004,597 1004,598 1004,599 1004,600 1004,601 1004,601 1004,602 1004,602 1004,602 1004,602 1004,602 1004,601 1004,601 1004,600 1004,599 1004,597 1004,596 1004,594 1004,592 1004,590 1004,588 1004,585 1004,582 1004,578 1004,575 1004,570 1004,566 1004,561 1004,555 1004,549 1004,542 1004,534 1004,525 1004,515 1004,504 1004,492 1004,480 1004,470 1004,466 1004,470 1004,480 1004,491 1004,502 1004,512 1004,521 1004,528 1004,535 1004,541 1004,546 1004,551 1004,555 1004,559 1004,562 1004,565 1004,567 1004,569 1004,571 1004,572 1004,573 1004,574 1004,575 1004,575 1004,575 1004,575 1004,575 1004,574 1004,574 1004,573 1004,571 1004,570 1004,569 1004,567 1004,565 1004,563 1004,561 1004,559 1004,557 1004,554 1004,552 1004,549 1004,547 1004,545 1004,543 1004,541 1004,539 1004,537 1004,536 1004,535 1004,535 1004,534 1004,534 1004,535 1004,535 1004,536 1004,537 1004,538 1004,539 1004,540 1004,541 1004,542 1004,543 1004,544 1004,544 1004,545 1004,545 1004,546 1004,546 1004,546 1004,546 1004,545 1004,545 1004,544 1004,544 1004,543 1004,542 1004,541 1004,539 1004,538 1004,536 1004,535 1004,533 1004,531 1004,529 1004,527 1004,524 1004,522 1004,519 1004,517 1004,514 1004,511 1004,508 1004,505 1004,502 1004,499 1004,496 1004,493 1004,489 1004,486 1004,482 1004,479 1004,475 1004,472 1004,468 1004,464 1004,461 1004,457 1004,453 1004,449 1004,445 1004,440 1004,436 1004,431 1004,427 1004,422 1004,417 1004,411 1004,406 1004,400 1004,395 1004,389 1004,384 1004,379 1004,375 1004,371 1004,370 1004,369 1004,370 1004,372 1004,375 1004,378 1004,382 1004,385 1004,388 1004,391 1004,394 1004,396 1004,399 1004,401 1004,402 1004,403 1004,404 1004,405 1004,405 1004,405 1004,405 1004,404 1004,403 1004,402 1004,401 1004,399 1004,397 1004,395 1004,393 1004,390 1004,387 1004,384 1004,380 1004,377 1004,373 1004,369 1004,365 1004,361 1004,358 1004,355 1004,352 1004,350 1004,348 1004,347 1004,347 1004,348 1004,349 1004,350 1004,352 1004,354 1004,356 1004,358 1004,360 1004,361 1004,363 1004,364 1004,365 1004,366 1004,367 1004,367 1004,368 1004,368 1004,368 1004,368 1004,368 1004,368 1004,368 1004,368 1004,367 1004,367 1004,367 1004,367 1004,366 1004,366 1004,366 1004,366 1004,366 1004,366 1004,366 1004,367 1004,367 1004,367 1004,368 1004,368 1004,368 1004,369 1004,369 1004,369 1004,370 1004,370 1004,370 1004,370 1004,370 1004,371 1004,371 1004,371 1004,371 1004,371 1004,371 1004,371 1004,371 1004,371 1004,371 1004,371 1004,371 1004,371 1004,371 1004,371 1004,371 1004,371 1004,372 1004,372 1004,372 1004,372 1004,372 1004,372 1004,372 1004,373 1004,373 1004,373 1004,373 1004,373 1004,373 1004,373 1004,373 1004,373 1004,373 1004,373 1004,373 1004,372 1004,372 1004,372 1004,372 1004,372 1004,372 1004,371 1004,371 1004,371 1004,371 1004,371 1004,371 1004,371 1004,371 1004,371 1004,371 1004,371 1004,371 1004,371 1004,371 1004,371 1004,371 1004,371 1004,371 1004,371 1004,371 1004,371 1004,371 1004,371 1004,372 1004,372 1004,372 1004,372 1004,372 1004,372 1004,372 1004,371 1004,371 1004,371 1004,371 1004,371 1004,371 1004,371 1004,371 1004,371 1004,371 1004,371 1004,371 1004,371 1004,371 1004,371 1004,371 1004,371 1004,371 1004,371 1004,371 1004,371 1004,371 1004,371 1004,371 1004,371 1004,371 1004,371 1004,371 1004,371 1004,371 1004,371 1004,371 1004,371 1004,371 1004,371 1004,371 1004,371 1004,371 1004,371 1004,371 1004,371 1004,370 1004,370 1004,370 1004,370 1004,370 1004,370 1004,370 1004,370 1004,370 1004,370 1004,370 1004,370 1004,370 1004,370 1004,370 1004,370 1004,370 1004,370 1004,370 1004,370 1004,370 1004,370 1004,369 1004,369 1004,369 1004,369 1004,369 1004,369 1004,369 1004,369 1004,369 1004,369 1004,369 1004,369 1004,369 1004,369 1004,369 1004,369 1004,369 1004,369 1004,370 1004,370 1004,370 1004,370 1004,370 1004,370 1004,370 1004,370 1004,370 1004,370 1004,370 1004,370 1004,370 1004,370 1004,370 1004,371 1004,371 1004,371 1004,370 1004,370 1004,370 1004,370 1004,370 1004,370 1004,370 1004,370 1004,370 1004,370 1004,370 1004,370 1004,370 1004,370 1004,370 1004,370 1004,370 1004,370 1004,370 1004,370 1004,370 1004,370 1004,370 1004,370 1004,370 1004,370 1004,370 1004,370 1004,370 1004,370 1004,370 1004,370 1004,370 1004,370 1004,370 1004,370 1004,370 1004,370 1004,370 1004,370 1004,370 1004,370 1004,370 1004,369 1004,369 1004,369 1004,369 1004,369 1004,369 1004,369 1004,368 1004,368 1004,368 1004,368 1004,368 1004,367 1004,367 1004,367 1004,367 1004,367 1004,367 1004,367 1004,366 1004,366 1004,366 1004,366 1004,366 1004,366 "/>
<polyline fill="none" opacity="1" stroke="#0082C8" stroke-width="1" points="130,223 131,223 133,223 134,223 136,224 137,224 139,224 140,224 142,224 143,224 145,224 146,224 148,225 149,225 151,225 152,225 154,225 155,226 157,226 158,226 160,226 161,226 163,226 164,227 166,227 167,227 169,227 170,227 172,227 173,227 175,227 176,227 178,227 180,227 181,227 183,227 184,227 186,227 187,227 189,227 190,227 192,227 193,227 195,227 196,227 198,227 199,227 201,227 202,227 204,227 205,227 207,227 208,227 210,227 211,227 213,227 214,227 216,227 217,227 219,227 220,227 222,228 223,228 225,228 227,228 228,228 230,228 231,228 233,228 234,228 236,228 237,228 239,228 240,228 242,228 243,228 245,228 246,228 248,228 249,227 251,227 252,227 254,227 255,227 257,227 258,227 260,227 261,227 263,227 264,227 266,227 267,227 269,227 270,227 272,227 273,227 275,227 277,227 278,227 280,227 281,227 283,227 284,227 286,227 287,227 289,227 290,227 292,227 293,227 295,227 296,227 298,227 299,227 301,227 302,227 304,227 305,227 307,227 308,227 310,228 311,228 313,228 314,228 316,228 317,228 319,228 320,228 322,228 324,228 325,228 327,228 328,228 330,228 331,228 333,228 334,228 336,228 337,228 339,228 340,228 342,228 343,228 345,228 346,228 348,228 349,228 351,228 352,228 354,228 355,228 357,228 358,228 360,228 361,228 363,228 364,228 366,228 367,228 369,228 370,228 372,228 374,229 375,229 377,229 378,229 380,229 381,229 383,229 384,229 386,229 387,229 389,229 390,229 392,229 393,229 395,229 396,229 398,229 399,229 401,229 402,229 404,228 405,228 407,228 408,228 410,228 411,228 413,228 414,228 416,228 417,228 419,228 421,228 422,228 424,228 425,229 427,229 428,229 430,229 431,229 433,229 434,229 436,230 437,230 439,230 440,230 442,230 443,230 445,230 446,230 448,230 449,230 451,230 452,230 454,230 455,230 457,230 458,230 460,230 461,229 463,229 464,229 466,229 467,229 469,229 471,229 472,228 474,228 475,228 477,228 478,228 480,228 481,228 483,228 484,228 486,228 487,228 489,228 490,228 492,228 493,228 495,228 496,227 498,227 499,227 501,227 502,226 504,226 505,226 507,225 508,225 510,225 511,224 513,224 514,224 516,224 518,224 519,223 521,224 522,224 524,224 525,224 527,224 528,224 530,225 531,225 533,225 534,225 536,226 537,226 539,226 540,225 542,225 543,225 545,224 546,223 548,222 549,221 551,220 552,219 554,217 555,215 557,213 558,211 560,210 561,208 563,206 564,205 566,205 568,205 569,205 571,207 572,209 574,212 575,215 577,219 578,222 580,226 581,230 583,234 584,238 586,241 587,244 589,247 590,250 592,252 593,255 595,257 596,258 598,260 599,261 601,262 602,262 604,263 605,262 607,262 608,262 610,261 611,259 613,258 615,256 616,254 618,251 619,249 621,246 622,242 624,239 625,235 627,232 628,230 630,228 631,227 633,227 634,229 636,232 637,236 639,241 640,246 642,252 643,258 645,263 646,269 648,274 649,279 651,284 652,289 654,293 655,298 657,302 658,306 660,310 661,314 663,318 665,322 666,326 668,329 669,333 671,336 672,340 674,343 675,347 677,350 678,353 680,357 681,360 683,363 684,366 686,369 687,371 689,374 690,377 692,379 693,382 695,384 696,386 698,388 699,390 701,392 702,394 704,395 705,397 707,398 708,399 710,400 712,401 713,402 715,402 716,403 718,403 719,403 721,403 722,403 724,403 725,402 727,402 728,401 730,400 731,399 733,398 734,397 736,396 737,395 739,394 740,394 742,393 743,392 745,392 746,392 748,392 749,393 751,393 752,395 754,396 755,398 757,400 758,402 760,404 762,407 763,409 765,412 766,414 768,416 769,419 771,421 772,423 774,424 775,426 777,428 778,429 780,430 781,431 783,432 784,432 786,432 787,433 789,432 790,432 792,431 793,431 795,429 796,428 798,426 799,424 801,422 802,419 804,416 805,413 807,408 809,404 810,398 812,392 813,386 815,378 816,369 818,359 819,348 821,337 822,328 824,324 825,327 827,337 828,349 830,361 831,372 833,382 834,391 836,399 837,406 839,412 840,418 842,423 843,428 845,432 846,436 848,439 849,442 851,445 852,447 854,450 855,452 857,453 859,455 860,456 862,457 863,458 865,459 866,459 868,459 869,459 871,459 872,459 874,459 875,458 877,457 878,457 880,456 881,455 883,454 884,452 886,451 887,450 889,448 890,447 892,445 893,443 895,442 896,440 898,438 899,437 901,435 902,433 904,432 906,430 907,429 909,427 910,425 912,424 913,423 915,422 916,421 918,420 919,419 921,419 922,420 924,421 925,423 927,425 928,428 930,431 931,435 933,440 934,445 936,450 937,455 939,460 940,465 942,471 943,476 945,481 946,486 948,490 949,495 951,499 952,503 954,508 956,511 957,515 959,519 960,522 962,526 963,529 965,532 966,535 968,537 969,540 971,543 972,545 974,547 975,549 977,551 978,553 980,555 981,556 983,558 984,559 986,560 987,561 989,563 990,563 992,564 993,565 995,566 996,566 998,566 999,567 1001,567 1003,567 1004,567 1004,567 1004,566 1004,566 1004,566 1004,565 1004,564 1004,563 1004,563 1004,561 1004,560 1004,559 1004,558 1004,556 1004,555 1004,553 1004,551 1004,549 1004,547 1004,545 1004,543 1004,540 1004,537 1004,535 1004,532 1004,529 1004,526 1004,522 1004,519 1004,515 1004,511 1004,508 1004,503 1004,499 1004,495 1004,490 1004,486 1004,481 1004,476 1004,471 1004,465 1004,460 1004,455 1004,450 1004,445 1004,440 1004,435 1004,431 1004,428 1004,425 1004,423 1004,421 1004,420 1004,419 1004,419 1004,420 1004,421 1004,422 1004,423 1004,424 1004,425 1004,427 1004,429 1004,430 1004,432 1004,433 1004,435 1004,437 1004,438 1004,440 1004,442 1004,443 1004,445 1004,447 1004,448 1004,450 1004,451 1004,452 1004,454 1004,455 1004,456 1004,457 1004,457 1004,458 1004,459 1004,459 1004,459 1004,459 1004,459 1004,459 1004,459 1004,458 1004,457 1004,456 1004,455 1004,453 1004,452 1004,450 1004,447 1004,445 1004,442 1004,439 1004,436 1004,432 1004,428 1004,423 1004,418 1004,412 1004,406 1004,399 1004,391 1004,382 1004,372 1004,361 1004,349 1004,337 1004,327 1004,324 1004,328 1004,337 1004,348 1004,359 1004,369 1004,378 1004,386 1004,392 1004,398 1004,404 1004,408 1004,413 1004,416 1004,419 1004,422 1004,424 1004,426 1004,428 1004,429 1004,431 1004,431 1004,432 1004,432 1004,433 1004,432 1004,432 1004,432 1004,431 1004,430 1004,429 1004,428 1004,426 1004,424 1004,423 1004,421 1004,419 1004,416 1004,414 1004,412 1004,409 1004,407 1004,404 1004,402 1004,400 1004,398 1004,396 1004,395 1004,393 1004,393 1004,392 1004,392 1004,392 1004,392 1004,393 1004,394 1004,394 1004,395 1004,396 1004,397 1004,398 1004,399 1004,400 1004,401 1004,402 1004,402 1004,403 1004,403 1004,403 1004,403 1004,403 1004,403 1004,402 1004,402 1004,401 1004,400 1004,399 1004,398 1004,397 1004,395 1004,394 1004,392 1004,390 1004,388 1004,386 1004,384 1004,382 1004,379 1004,377 1004,374 1004,371 1004,369 1004,366 1004,363 1004,360 1004,357 1004,353 1004,350 1004,347 1004,343 1004,340 1004,336 1004,333 1004,329 1004,326 1004,322 1004,318 1004,314 1004,310 1004,306 1004,302 1004,298 1004,293 1004,289 1004,284 1004,279 1004,274 1004,269 1004,263 1004,258 1004,252 1004,246 1004,241 1004,236 1004,232 1004,229 1004,227 1004,227 1004,228 1004,230 1004,232 1004,235 1004,239 1004,242 1004,246 1004,249 1004,251 1004,254 1004,256 1004,258 1004,259 1004,261 1004,262 1004,262 1004,262 1004,263 1004,262 1004,262 1004,261 1004,260 1004,258 1004,257 1004,255 1004,252 1004,250 1004,247 1004,244 1004,241 1004,238 1004,234 1004,230 1004,226 1004,222 1004,219 1004,215 1004,212 1004,209 1004,207 1004,205 1004,205 1004,205 1004,205 1004,206 1004,208 1004,210 1004,211 1004,213 1004,215 1004,217 1004,219 1004,220 1004,221 1004,222 1004,223 1004,224 1004,225 1004,225 1004,225 1004,226 1004,226 1004,226 1004,225 1004,225 1004,225 1004,225 1004,224 1004,224 1004,224 1004,224 1004,224 1004,224 1004,223 1004,224 1004,224 1004,224 1004,224 1004,224 1004,225 1004,225 1004,225 1004,226 1004,226 1004,226 1004,227 1004,227 1004,227 1004,227 1004,228 1004,228 1004,228 1004,228 1004,228 1004,228 1004,228 1004,228 1004,228 1004,228 1004,228 1004,228 1004,228 1004,228 1004,228 1004,228 1004,229 1004,229 1004,229 1004,229 1004,229 1004,229 1004,229 1004,230 1004,230 1004,230 1004,230 1004,230 1004,230 1004,230 1004,230 1004,230 1004,230 1004,230 1004,230 1004,230 1004,230 1004,230 1004,230 1004,230 1004,229 1004,229 1004,229 1004,229 1004,229 1004,229 1004,229 1004,228 1004,228 1004,228 1004,228 1004,228 1004,228 1004,228 1004,228 1004,228 1004,228 1004,228 1004,228 1004,228 1004,228 1004,229 1004,229 1004,229 1004,229 1004,229 1004,229 1004,229 1004,229 1004,229 1004,229 1004,229 1004,229 1004,229 1004,229 1004,229 1004,229 1004,229 1004,229 1004,229 1004,229 1004,228 1004,228 1004,228 1004,228 1004,228 1004,228 1004,228 1004,228 1004,228 1004,228 1004,228 1004,228 1004,228 1004,228 1004,228 1004,228 1004,228 1004,228 1004,228 1004,228 1004,228 1004,228 1004,228 1004,228 1004,228 1004,228 1004,228 1004,228 1004,228 1004,228 1004,228 1004,228 1004,228 1004,228 1004,228 1004,228 1004,228 1004,228 1004,228 1004,228 1004,228 1004,228 1004,227 1004,227 1004,227 1004,227 1004,227 1004,227 1004,227 1004,227 1004,227 1004,227 1004,227 1004,227 1004,227 1004,227 1004,227 1004,227 1004,227 1004,227 1004,227 1004,227 1004,227 1004,227 1004,227 1004,227 1004,227 1004,227 1004,227 1004,227 1004,227 1004,227 1004,227 1004,227 1004,227 1004,227 1004,227 1004,227 1004,227 1004,227 1004,227 1004,227 1004,228 1004,228 1004,228 1004,228 1004,228 1004,228 1004,228 1004,228 1004,228 1004,228 1004,228 1004,228 1004,228 1004,228 1004,228 1004,228 1004,228 1004,228 1004,227 1004,227 1004,227 1004,227 1004,227 1004,227 1004,227 1004,227 1004,227 1004,227 1004,227 1004,227 1004,227 1004,227 1004,227 1004,227 1004,227 1004,227 1004,227 1004,227 1004,227 1004,227 1004,227 1004,227 1004,227 1004,227 1004,227 1004,227 1004,227 1004,227 1004,227 1004,227 1004,227 1004,227 1004,227 1004,227 1004,227 1004,227 1004,226 1004,226 1004,226 1004,226 1004,226 1004,226 1004,225 1004,225 1004,225 1004,225 1004,225 1004,224 1004,224 1004,224 1004,224 1004,224 1004,224 1004,224 1004,224 1004,223 1004,223 1004,223 "/>
<rect x="514" y="25" width="485" height="157" opacity="0.8" fill="#FFFFFF" stroke="none"/>
<rect x="514" y="25" width="485" height="157" opacity="1" fill="none" stroke="#000000"/>
<text x="554" y="35" dy="0.76em" text-anchor="start" font-family="sans-serif" font-size="24.193548387096776" opacity="1" fill="#000000">
(1) log_power
</text>
<text x="554" y="73" dy="0.76em" text-anchor="start" font-family="sans-serif" font-size="24.193548387096776" opacity="1" fill="#000000">
(2) spectral_envelope by cepstrum
</text>
<text x="554" y="110" dy="0.76em" text-anchor="start" font-family="sans-serif" font-size="24.193548387096776" opacity="1" fill="#000000">
(3) spectral_envelope by levinson-durbin
</text>
<text x="554" y="148" dy="0.76em" text-anchor="start" font-family="sans-serif" font-size="24.193548387096776" opacity="1" fill="#000000">
(4) spectral_envelope by burg
</text>
<polyline fill="none" opacity="1" stroke="#E6194B" stroke-width="1" points="524,47 544,47 "/>
<polyline fill="none" opacity="1" stroke="#3CB44B" stroke-width="1" points="524,85 544,85 "/>
<polyline fill="none" opacity="1" stroke="#FFE119" stroke-width="1" points="524,122 544,122 "/>
<polyline fill="none" opacity="1" stroke="#0082C8" stroke-width="1" points="524,160 544,160 "/>
</svg>
