<svg width="1024" height="768" viewBox="0 0 1024 768" xmlns="http://www.w3.org/2000/svg">
<rect x="0" y="0" width="1024" height="768" opacity="1" fill="#FFFFFF" stroke="none"/>
<line opacity="0.1" stroke="#000000" stroke-width="1" x1="130" y1="657" x2="130" y2="20"/>
<line opacity="0.1" stroke="#000000" stroke-width="1" x1="140" y1="657" x2="140" y2="20"/>
<line opacity="0.1" stroke="#000000" stroke-width="1" x1="151" y1="657" x2="151" y2="20"/>
<line opacity="0.1" stroke="#000000" stroke-width="1" x1="162" y1="657" x2="162" y2="20"/>
<line opacity="0.1" stroke="#000000" stroke-width="1" x1="173" y1="657" x2="173" y2="20"/>
<line opacity="0.1" stroke="#000000" stroke-width="1" x1="184" y1="657" x2="184" y2="20"/>
<line opacity="0.1" stroke="#000000" stroke-width="1" x1="195" y1="657" x2="195" y2="20"/>
<line opacity="0.1" stroke="#000000" stroke-width="1" x1="206" y1="657" x2="206" y2="20"/>
<line opacity="0.1" stroke="#000000" stroke-width="1" x1="217" y1="657" x2="217" y2="20"/>
<line opacity="0.1" stroke="#000000" stroke-width="1" x1="228" y1="657" x2="228" y2="20"/>
<line opacity="0.1" stroke="#000000" stroke-width="1" x1="239" y1="657" x2="239" y2="20"/>
<line opacity="0.1" stroke="#000000" stroke-width="1" x1="250" y1="657" x2="250" y2="20"/>
<line opacity="0.1" stroke="#000000" stroke-width="1" x1="260" y1="657" x2="260" y2="20"/>
<line opacity="0.1" stroke="#000000" stroke-width="1" x1="271" y1="657" x2="271" y2="20"/>
<line opacity="0.1" stroke="#000000" stroke-width="1" x1="282" y1="657" x2="282" y2="20"/>
<line opacity="0.1" stroke="#000000" stroke-width="1" x1="293" y1="657" x2="293" y2="20"/>
<line opacity="0.1" stroke="#000000" stroke-width="1" x1="304" y1="657" x2="304" y2="20"/>
<line opacity="0.1" stroke="#000000" stroke-width="1" x1="315" y1="657" x2="315" y2="20"/>
<line opacity="0.1" stroke="#000000" stroke-width="1" x1="326" y1="657" x2="326" y2="20"/>
<line opacity="0.1" stroke="#000000" stroke-width="1" x1="337" y1="657" x2="337" y2="20"/>
<line opacity="0.1" stroke="#000000" stroke-width="1" x1="348" y1="657" x2="348" y2="20"/>
<line opacity="0.1" stroke="#000000" stroke-width="1" x1="359" y1="657" x2="359" y2="20"/>
<line opacity="0.1" stroke="#000000" stroke-width="1" x1="370" y1="657" x2="370" y2="20"/>
<line opacity="0.1" stroke="#000000" stroke-width="1" x1="380" y1="657" x2="380" y2="20"/>
<line opacity="0.1" stroke="#000000" stroke-width="1" x1="391" y1="657" x2="391" y2="20"/>
<line opacity="0.1" stroke="#000000" stroke-width="1" x1="402" y1="657" x2="402" y2="20"/>
<line opacity="0.1" stroke="#000000" stroke-width="1" x1="413" y1="657" x2="413" y2="20"/>
<line opacity="0.1" stroke="#000000" stroke-width="1" x1="424" y1="657" x2="424" y2="20"/>
<line opacity="0.1" stroke="#000000" stroke-width="1" x1="435" y1="657" x2="435" y2="20"/>
<line opacity="0.1" stroke="#000000" stroke-width="1" x1="446" y1="657" x2="446" y2="20"/>
<line opacity="0.1" stroke="#000000" stroke-width="1" x1="457" y1="657" x2="457" y2="20"/>
<line opacity="0.1" stroke="#000000" stroke-width="1" x1="468" y1="657" x2="468" y2="20"/>
<line opacity="0.1" stroke="#000000" stroke-width="1" x1="479" y1="657" x2="479" y2="20"/>
<line opacity="0.1" stroke="#000000" stroke-width="1" x1="490" y1="657" x2="490" y2="20"/>
<line opacity="0.1" stroke="#000000" stroke-width="1" x1="501" y1="657" x2="501" y2="20"/>
<line opacity="0.1" stroke="#000000" stroke-width="1" x1="511" y1="657" x2="511" y2="20"/>
<line opacity="0.1" stroke="#000000" stroke-width="1" x1="522" y1="657" x2="522" y2="20"/>
<line opacity="0.1" stroke="#000000" stroke-width="1" x1="533" y1="657" x2="533" y2="20"/>
<line opacity="0.1" stroke="#000000" stroke-width="1" x1="544" y1="657" x2="544" y2="20"/>
<line opacity="0.1" stroke="#000000" stroke-width="1" x1="555" y1="657" x2="555" y2="20"/>
<line opacity="0.1" stroke="#000000" stroke-width="1" x1="566" y1="657" x2="566" y2="20"/>
<line opacity="0.1" stroke="#000000" stroke-width="1" x1="577" y1="657" x2="577" y2="20"/>
<line opacity="0.1" stroke="#000000" stroke-width="1" x1="588" y1="657" x2="588" y2="20"/>
<line opacity="0.1" stroke="#000000" stroke-width="1" x1="599" y1="657" x2="599" y2="20"/>
<line opacity="0.1" stroke="#000000" stroke-width="1" x1="610" y1="657" x2="610" y2="20"/>
<line opacity="0.1" stroke="#000000" stroke-width="1" x1="621" y1="657" x2="621" y2="20"/>
<line opacity="0.1" stroke="#000000" stroke-width="1" x1="631" y1="657" x2="631" y2="20"/>
<line opacity="0.1" stroke="#000000" stroke-width="1" x1="642" y1="657" x2="642" y2="20"/>
<line opacity="0.1" stroke="#000000" stroke-width="1" x1="653" y1="657" x2="653" y2="20"/>
<line opacity="0.1" stroke="#000000" stroke-width="1" x1="664" y1="657" x2="664" y2="20"/>
<line opacity="0.1" stroke="#000000" stroke-width="1" x1="675" y1="657" x2="675" y2="20"/>
<line opacity="0.1" stroke="#000000" stroke-width="1" x1="686" y1="657" x2="686" y2="20"/>
<line opacity="0.1" stroke="#000000" stroke-width="1" x1="697" y1="657" x2="697" y2="20"/>
<line opacity="0.1" stroke="#000000" stroke-width="1" x1="708" y1="657" x2="708" y2="20"/>
<line opacity="0.1" stroke="#000000" stroke-width="1" x1="719" y1="657" x2="719" y2="20"/>
<line opacity="0.1" stroke="#000000" stroke-width="1" x1="730" y1="657" x2="730" y2="20"/>
<line opacity="0.1" stroke="#000000" stroke-width="1" x1="741" y1="657" x2="741" y2="20"/>
<line opacity="0.1" stroke="#000000" stroke-width="1" x1="752" y1="657" x2="752" y2="20"/>
<line opacity="0.1" stroke="#000000" stroke-width="1" x1="762" y1="657" x2="762" y2="20"/>
<line opacity="0.1" stroke="#000000" stroke-width="1" x1="773" y1="657" x2="773" y2="20"/>
<line opacity="0.1" stroke="#000000" stroke-width="1" x1="784" y1="657" x2="784" y2="20"/>
<line opacity="0.1" stroke="#000000" stroke-width="1" x1="795" y1="657" x2="795" y2="20"/>
<line opacity="0.1" stroke="#000000" stroke-width="1" x1="806" y1="657" x2="806" y2="20"/>
<line opacity="0.1" stroke="#000000" stroke-width="1" x1="817" y1="657" x2="817" y2="20"/>
<line opacity="0.1" stroke="#000000" stroke-width="1" x1="828" y1="657" x2="828" y2="20"/>
<line opacity="0.1" stroke="#000000" stroke-width="1" x1="839" y1="657" x2="839" y2="20"/>
<line opacity="0.1" stroke="#000000" stroke-width="1" x1="850" y1="657" x2="850" y2="20"/>
<line opacity="0.1" stroke="#000000" stroke-width="1" x1="861" y1="657" x2="861" y2="20"/>
<line opacity="0.1" stroke="#000000" stroke-width="1" x1="872" y1="657" x2="872" y2="20"/>
<line opacity="0.1" stroke="#000000" stroke-width="1" x1="882" y1="657" x2="882" y2="20"/>
<line opacity="0.1" stroke="#000000" stroke-width="1" x1="893" y1="657" x2="893" y2="20"/>
<line opacity="0.1" stroke="#000000" stroke-width="1" x1="904" y1="657" x2="904" y2="20"/>
<line opacity="0.1" stroke="#000000" stroke-width="1" x1="915" y1="657" x2="915" y2="20"/>
<line opacity="0.1" stroke="#000000" stroke-width="1" x1="926" y1="657" x2="926" y2="20"/>
<line opacity="0.1" stroke="#000000" stroke-width="1" x1="937" y1="657" x2="937" y2="20"/>
<line opacity="0.1" stroke="#000000" stroke-width="1" x1="948" y1="657" x2="948" y2="20"/>
<line opacity="0.1" stroke="#000000" stroke-width="1" x1="959" y1="657" x2="959" y2="20"/>
<line opacity="0.1" stroke="#000000" stroke-width="1" x1="970" y1="657" x2="970" y2="20"/>
<line opacity="0.1" stroke="#000000" stroke-width="1" x1="981" y1="657" x2="981" y2="20"/>
<line opacity="0.1" stroke="#000000" stroke-width="1" x1="992" y1="657" x2="992" y2="20"/>
<line opacity="0.1" stroke="#000000" stroke-width="1" x1="1003" y1="657" x2="1003" y2="20"/>
<line opacity="0.1" stroke="#000000" stroke-width="1" x1="130" y1="657" x2="1003" y2="657"/>
<line opacity="0.1" stroke="#000000" stroke-width="1" x1="130" y1="650" x2="1003" y2="650"/>
<line opacity="0.1" stroke="#000000" stroke-width="1" x1="130" y1="642" x2="1003" y2="642"/>
<line opacity="0.1" stroke="#000000" stroke-width="1" x1="130" y1="634" x2="1003" y2="634"/>
<line opacity="0.1" stroke="#000000" stroke-width="1" x1="130" y1="626" x2="1003" y2="626"/>
<line opacity="0.1" stroke="#000000" stroke-width="1" x1="130" y1="618" x2="1003" y2="618"/>
<line opacity="0.1" stroke="#000000" stroke-width="1" x1="130" y1="610" x2="1003" y2="610"/>
<line opacity="0.1" stroke="#000000" stroke-width="1" x1="130" y1="602" x2="1003" y2="602"/>
<line opacity="0.1" stroke="#000000" stroke-width="1" x1="130" y1="594" x2="1003" y2="594"/>
<line opacity="0.1" stroke="#000000" stroke-width="1" x1="130" y1="586" x2="1003" y2="586"/>
<line opacity="0.1" stroke="#000000" stroke-width="1" x1="130" y1="578" x2="1003" y2="578"/>
<line opacity="0.1" stroke="#000000" stroke-width="1" x1="130" y1="570" x2="1003" y2="570"/>
<line opacity="0.1" stroke="#000000" stroke-width="1" x1="130" y1="562" x2="1003" y2="562"/>
<line opacity="0.1" stroke="#000000" stroke-width="1" x1="130" y1="554" x2="1003" y2="554"/>
<line opacity="0.1" stroke="#000000" stroke-width="1" x1="130" y1="546" x2="1003" y2="546"/>
<line opacity="0.1" stroke="#000000" stroke-width="1" x1="130" y1="538" x2="1003" y2="538"/>
<line opacity="0.1" stroke="#000000" stroke-width="1" x1="130" y1="530" x2="1003" y2="530"/>
<line opacity="0.1" stroke="#000000" stroke-width="1" x1="130" y1="522" x2="1003" y2="522"/>
<line opacity="0.1" stroke="#000000" stroke-width="1" x1="130" y1="514" x2="1003" y2="514"/>
<line opacity="0.1" stroke="#000000" stroke-width="1" x1="130" y1="506" x2="1003" y2="506"/>
<line opacity="0.1" stroke="#000000" stroke-width="1" x1="130" y1="498" x2="1003" y2="498"/>
<line opacity="0.1" stroke="#000000" stroke-width="1" x1="130" y1="490" x2="1003" y2="490"/>
<line opacity="0.1" stroke="#000000" stroke-width="1" x1="130" y1="482" x2="1003" y2="482"/>
<line opacity="0.1" stroke="#000000" stroke-width="1" x1="130" y1="474" x2="1003" y2="474"/>
<line opacity="0.1" stroke="#000000" stroke-width="1" x1="130" y1="466" x2="1003" y2="466"/>
<line opacity="0.1" stroke="#000000" stroke-width="1" x1="130" y1="458" x2="1003" y2="458"/>
<line opacity="0.1" stroke="#000000" stroke-width="1" x1="130" y1="450" x2="1003" y2="450"/>
<line opacity="0.1" stroke="#000000" stroke-width="1" x1="130" y1="443" x2="1003" y2="443"/>
<line opacity="0.1" stroke="#000000" stroke-width="1" x1="130" y1="435" x2="1003" y2="435"/>
<line opacity="0.1" stroke="#000000" stroke-width="1" x1="130" y1="427" x2="1003" y2="427"/>
<line opacity="0.1" stroke="#000000" stroke-width="1" x1="130" y1="419" x2="1003" y2="419"/>
<line opacity="0.1" stroke="#000000" stroke-width="1" x1="130" y1="411" x2="1003" y2="411"/>
<line opacity="0.1" stroke="#000000" stroke-width="1" x1="130" y1="403" x2="1003" y2="403"/>
<line opacity="0.1" stroke="#000000" stroke-width="1" x1="130" y1="395" x2="1003" y2="395"/>
<line opacity="0.1" stroke="#000000" stroke-width="1" x1="130" y1="387" x2="1003" y2="387"/>
<line opacity="0.1" stroke="#000000" stroke-width="1" x1="130" y1="379" x2="1003" y2="379"/>
<line opacity="0.1" stroke="#000000" stroke-width="1" x1="130" y1="371" x2="1003" y2="371"/>
<line opacity="0.1" stroke="#000000" stroke-width="1" x1="130" y1="363" x2="1003" y2="363"/>
<line opacity="0.1" stroke="#000000" stroke-width="1" x1="130" y1="355" x2="1003" y2="355"/>
<line opacity="0.1" stroke="#000000" stroke-width="1" x1="130" y1="347" x2="1003" y2="347"/>
<line opacity="0.1" stroke="#000000" stroke-width="1" x1="130" y1="339" x2="1003" y2="339"/>
<line opacity="0.1" stroke="#000000" stroke-width="1" x1="130" y1="331" x2="1003" y2="331"/>
<line opacity="0.1" stroke="#000000" stroke-width="1" x1="130" y1="323" x2="1003" y2="323"/>
<line opacity="0.1" stroke="#000000" stroke-width="1" x1="130" y1="315" x2="1003" y2="315"/>
<line opacity="0.1" stroke="#000000" stroke-width="1" x1="130" y1="307" x2="1003" y2="307"/>
<line opacity="0.1" stroke="#000000" stroke-width="1" x1="130" y1="299" x2="1003" y2="299"/>
<line opacity="0.1" stroke="#000000" stroke-width="1" x1="130" y1="291" x2="1003" y2="291"/>
<line opacity="0.1" stroke="#000000" stroke-width="1" x1="130" y1="283" x2="1003" y2="283"/>
<line opacity="0.1" stroke="#000000" stroke-width="1" x1="130" y1="275" x2="1003" y2="275"/>
<line opacity="0.1" stroke="#000000" stroke-width="1" x1="130" y1="267" x2="1003" y2="267"/>
<line opacity="0.1" stroke="#000000" stroke-width="1" x1="130" y1="259" x2="1003" y2="259"/>
<line opacity="0.1" stroke="#000000" stroke-width="1" x1="130" y1="251" x2="1003" y2="251"/>
<line opacity="0.1" stroke="#000000" stroke-width="1" x1="130" y1="243" x2="1003" y2="243"/>
<line opacity="0.1" stroke="#000000" stroke-width="1" x1="130" y1="235" x2="1003" y2="235"/>
<line opacity="0.1" stroke="#000000" stroke-width="1" x1="130" y1="228" x2="1003" y2="228"/>
<line opacity="0.1" stroke="#000000" stroke-width="1" x1="130" y1="220" x2="1003" y2="220"/>
<line opacity="0.1" stroke="#000000" stroke-width="1" x1="130" y1="212" x2="1003" y2="212"/>
<line opacity="0.1" stroke="#000000" stroke-width="1" x1="130" y1="204" x2="1003" y2="204"/>
<line opacity="0.1" stroke="#000000" stroke-width="1" x1="130" y1="196" x2="1003" y2="196"/>
<line opacity="0.1" stroke="#000000" stroke-width="1" x1="130" y1="188" x2="1003" y2="188"/>
<line opacity="0.1" stroke="#000000" stroke-width="1" x1="130" y1="180" x2="1003" y2="180"/>
<line opacity="0.1" stroke="#000000" stroke-width="1" x1="130" y1="172" x2="1003" y2="172"/>
<line opacity="0.1" stroke="#000000" stroke-width="1" x1="130" y1="164" x2="1003" y2="164"/>
<line opacity="0.1" stroke="#000000" stroke-width="1" x1="130" y1="156" x2="1003" y2="156"/>
<line opacity="0.1" stroke="#000000" stroke-width="1" x1="130" y1="148" x2="1003" y2="148"/>
<line opacity="0.1" stroke="#000000" stroke-width="1" x1="130" y1="140" x2="1003" y2="140"/>
<line opacity="0.1" stroke="#000000" stroke-width="1" x1="130" y1="132" x2="1003" y2="132"/>
<line opacity="0.1" stroke="#000000" stroke-width="1" x1="130" y1="124" x2="1003" y2="124"/>
<line opacity="0.1" stroke="#000000" stroke-width="1" x1="130" y1="116" x2="1003" y2="116"/>
<line opacity="0.1" stroke="#000000" stroke-width="1" x1="130" y1="108" x2="1003" y2="108"/>
<line opacity="0.1" stroke="#000000" stroke-width="1" x1="130" y1="100" x2="1003" y2="100"/>
<line opacity="0.1" stroke="#000000" stroke-width="1" x1="130" y1="92" x2="1003" y2="92"/>
<line opacity="0.1" stroke="#000000" stroke-width="1" x1="130" y1="84" x2="1003" y2="84"/>
<line opacity="0.1" stroke="#000000" stroke-width="1" x1="130" y1="76" x2="1003" y2="76"/>
<line opacity="0.1" stroke="#000000" stroke-width="1" x1="130" y1="68" x2="1003" y2="68"/>
<line opacity="0.1" stroke="#000000" stroke-width="1" x1="130" y1="60" x2="1003" y2="60"/>
<line opacity="0.1" stroke="#000000" stroke-width="1" x1="130" y1="52" x2="1003" y2="52"/>
<line opacity="0.1" stroke="#000000" stroke-width="1" x1="130" y1="44" x2="1003" y2="44"/>
<line opacity="0.1" stroke="#000000" stroke-width="1" x1="130" y1="36" x2="1003" y2="36"/>
<line opacity="0.1" stroke="#000000" stroke-width="1" x1="130" y1="28" x2="1003" y2="28"/>
<line opacity="0.1" stroke="#000000" stroke-width="1" x1="130" y1="20" x2="1003" y2="20"/>
<text x="20" y="339" dy="0.76em" text-anchor="middle" font-family="sans-serif" font-size="24.193548387096776" opacity="1" fill="#000000" transform="rotate(270, 20, 339)">
Power [dB]
</text>
<text x="567" y="748" dy="-0.5ex" text-anchor="middle" font-family="sans-serif" font-size="24.193548387096776" opacity="1" fill="#000000">
Frequency [Hz]
</text>
<line opacity="0.2" stroke="#000000" stroke-width="1" x1="130" y1="657" x2="130" y2="20"/>
<line opacity="0.2" stroke="#000000" stroke-width="1" x1="239" y1="657" x2="239" y2="20"/>
<line opacity="0.2" stroke="#000000" stroke-width="1" x1="348" y1="657" x2="348" y2="20"/>
<line opacity="0.2" stroke="#000000" stroke-width="1" x1="457" y1="657" x2="457" y2="20"/>
<line opacity="0.2" stroke="#000000" stroke-width="1" x1="566" y1="657" x2="566" y2="20"/>
<line opacity="0.2" stroke="#000000" stroke-width="1" x1="675" y1="657" x2="675" y2="20"/>
<line opacity="0.2" stroke="#000000" stroke-width="1" x1="784" y1="657" x2="784" y2="20"/>
<line opacity="0.2" stroke="#000000" stroke-width="1" x1="893" y1="657" x2="893" y2="20"/>
<line opacity="0.2" stroke="#000000" stroke-width="1" x1="1003" y1="657" x2="1003" y2="20"/>
<line opacity="0.2" stroke="#000000" stroke-width="1" x1="130" y1="657" x2="1003" y2="657"/>
<line opacity="0.2" stroke="#000000" stroke-width="1" x1="130" y1="578" x2="1003" y2="578"/>
<line opacity="0.2" stroke="#000000" stroke-width="1" x1="130" y1="498" x2="1003" y2="498"/>
<line opacity="0.2" stroke="#000000" stroke-width="1" x1="130" y1="419" x2="1003" y2="419"/>
<line opacity="0.2" stroke="#000000" stroke-width="1" x1="130" y1="339" x2="1003" y2="339"/>
<line opacity="0.2" stroke="#000000" stroke-width="1" x1="130" y1="259" x2="1003" y2="259"/>
<line opacity="0.2" stroke="#000000" stroke-width="1" x1="130" y1="180" x2="1003" y2="180"/>
<line opacity="0.2" stroke="#000000" stroke-width="1" x1="130" y1="100" x2="1003" y2="100"/>
<line opacity="0.2" stroke="#000000" stroke-width="1" x1="130" y1="20" x2="1003" y2="20"/>
<polyline fill="none" opacity="1" stroke="#000000" stroke-width="1" points="129,20 129,657 "/>
<text x="120" y="657" dy="0.5ex" text-anchor="end" font-family="sans-serif" font-size="24.193548387096776" opacity="1" fill="#000000">
-60.0
</text>
<polyline fill="none" opacity="1" stroke="#000000" stroke-width="1" points="124,657 129,657 "/>
<text x="120" y="578" dy="0.5ex" text-anchor="end" font-family="sans-serif" font-size="24.193548387096776" opacity="1" fill="#000000">
-50.0
</text>
<polyline fill="none" opacity="1" stroke="#000000" stroke-width="1" points="124,578 129,578 "/>
<text x="120" y="498" dy="0.5ex" text-anchor="end" font-family="sans-serif" font-size="24.193548387096776" opacity="1" fill="#000000">
-40.0
</text>
<polyline fill="none" opacity="1" stroke="#000000" stroke-width="1" points="124,498 129,498 "/>
<text x="120" y="419" dy="0.5ex" text-anchor="end" font-family="sans-serif" font-size="24.193548387096776" opacity="1" fill="#000000">
-30.0
</text>
<polyline fill="none" opacity="1" stroke="#000000" stroke-width="1" points="124,419 129,419 "/>
<text x="120" y="339" dy="0.5ex" text-anchor="end" font-family="sans-serif" font-size="24.193548387096776" opacity="1" fill="#000000">
-20.0
</text>
<polyline fill="none" opacity="1" stroke="#000000" stroke-width="1" points="124,339 129,339 "/>
<text x="120" y="259" dy="0.5ex" text-anchor="end" font-family="sans-serif" font-size="24.193548387096776" opacity="1" fill="#000000">
-10.0
</text>
<polyline fill="none" opacity="1" stroke="#000000" stroke-width="1" points="124,259 129,259 "/>
<text x="120" y="180" dy="0.5ex" text-anchor="end" font-family="sans-serif" font-size="24.193548387096776" opacity="1" fill="#000000">
0.0
</text>
<polyline fill="none" opacity="1" stroke="#000000" stroke-width="1" points="124,180 129,180 "/>
<text x="120" y="100" dy="0.5ex" text-anchor="end" font-family="sans-serif" font-size="24.193548387096776" opacity="1" fill="#000000">
10.0
</text>
<polyline fill="none" opacity="1" stroke="#000000" stroke-width="1" points="124,100 129,100 "/>
<text x="120" y="20" dy="0.5ex" text-anchor="end" font-family="sans-serif" font-size="24.193548387096776" opacity="1" fill="#000000">
20.0
</text>
<polyline fill="none" opacity="1" stroke="#000000" stroke-width="1" points="124,20 129,20 "/>
<polyline fill="none" opacity="1" stroke="#000000" stroke-width="1" points="130,658 1003,658 "/>
<text x="130" y="668" dy="0.76em" text-anchor="middle" font-family="sans-serif" font-size="24.193548387096776" opacity="1" fill="#000000">
0.0
</text>
<polyline fill="none" opacity="1" stroke="#000000" stroke-width="1" points="130,658 130,663 "/>
<text x="239" y="668" dy="0.76em" text-anchor="middle" font-family="sans-serif" font-size="24.193548387096776" opacity="1" fill="#000000">
1000.0
</text>
<polyline fill="none" opacity="1" stroke="#000000" stroke-width="1" points="239,658 239,663 "/>
<text x="348" y="668" dy="0.76em" text-anchor="middle" font-family="sans-serif" font-size="24.193548387096776" opacity="1" fill="#000000">
2000.0
</text>
<polyline fill="none" opacity="1" stroke="#000000" stroke-width="1" points="348,658 348,663 "/>
<text x="457" y="668" dy="0.76em" text-anchor="middle" font-family="sans-serif" font-size="24.193548387096776" opacity="1" fill="#000000">
3000.0
</text>
<polyline fill="none" opacity="1" stroke="#000000" stroke-width="1" points="457,658 457,663 "/>
<text x="566" y="668" dy="0.76em" text-anchor="middle" font-family="sans-serif" font-size="24.193548387096776" opacity="1" fill="#000000">
4000.0
</text>
<polyline fill="none" opacity="1" stroke="#000000" stroke-width="1" points="566,658 566,663 "/>
<text x="675" y="668" dy="0.76em" text-anchor="middle" font-family="sans-serif" font-size="24.193548387096776" opacity="1" fill="#000000">
5000.0
</text>
<polyline fill="none" opacity="1" stroke="#000000" stroke-width="1" points="675,658 675,663 "/>
<text x="784" y="668" dy="0.76em" text-anchor="middle" font-family="sans-serif" font-size="24.193548387096776" opacity="1" fill="#000000">
6000.0
</text>
<polyline fill="none" opacity="1" stroke="#000000" stroke-width="1" points="784,658 784,663 "/>
<text x="893" y="668" dy="0.76em" text-anchor="middle" font-family="sans-serif" font-size="24.193548387096776" opacity="1" fill="#000000">
7000.0
</text>
<polyline fill="none" opacity="1" stroke="#000000" stroke-width="1" points="893,658 893,663 "/>
<text x="1003" y="668" dy="0.76em" text-anchor="middle" font-family="sans-serif" font-size="24.193548387096776" opacity="1" fill="#000000">
8000.0
</text>
<polyline fill="none" opacity="1" stroke="#000000" stroke-width="1" points="1003,658 1003,663 "/>
<polyline fill="none" opacity="1" stroke="#E6194B" stroke-width="1" points="130,292 131,294 133,285 134,276 136,274 137,284 139,273 140,241 142,279 143,199 145,160 146,169 148,209 149,180 151,200 152,194 154,193 155,227 157,206 158,146 160,112 161,116 163,183 164,193 166,273 167,301 169,234 170,265 172,259 173,266 175,186 176,197 178,226 180,192 181,196 183,196 184,201 186,199 187,174 189,188 190,98 192,73 193,101 195,195 196,203 198,227 199,258 201,240 202,287 204,196 205,156 207,189 208,214 210,175 211,197 213,187 214,201 216,199 217,145 219,145 220,106 222,87 223,130 225,205 227,170 228,205 230,243 231,295 233,255 234,276 236,224 237,184 239,190 240,220 242,363 243,273 245,200 246,199 248,218 249,165 251,182 252,131 254,118 255,138 257,230 258,269 260,304 261,272 263,244 264,258 266,248 267,238 269,204 270,212 272,260 273,244 275,178 277,180 278,159 280,195 281,157 283,155 284,130 286,164 287,189 289,194 290,254 292,197 293,186 295,311 296,230 298,202 299,213 301,187 302,295 304,181 305,204 307,140 308,209 310,105 311,193 313,81 314,57 316,60 317,88 319,124 320,165 322,165 324,273 325,158 327,179 328,126 330,111 331,113 333,141 334,166 336,325 337,173 339,134 340,194 342,137 343,161 345,103 346,77 348,96 349,151 351,169 352,179 354,212 355,279 357,357 358,255 360,260 361,237 363,211 364,236 366,288 367,244 369,180 370,236 372,183 374,196 375,125 377,94 378,104 380,150 381,223 383,203 384,235 386,256 387,305 389,344 390,191 392,176 393,135 395,170 396,211 398,297 399,270 401,168 402,139 404,163 405,246 407,191 408,138 410,124 411,218 413,180 414,201 416,181 417,302 419,187 421,275 422,163 424,159 425,166 427,213 428,183 430,220 431,175 433,249 434,230 436,188 437,181 439,229 440,161 442,183 443,255 445,236 446,233 448,343 449,250 451,246 452,251 454,282 455,352 457,295 458,328 460,221 461,281 463,218 464,271 466,274 467,241 469,157 471,129 472,145 474,180 475,205 477,265 478,252 480,262 481,223 483,258 484,217 486,186 487,192 489,183 490,245 492,197 493,306 495,246 496,189 498,189 499,234 501,158 502,168 504,246 505,256 507,314 508,277 510,285 511,380 513,251 514,286 516,237 518,288 519,383 521,349 522,359 524,315 525,321 527,294 528,258 530,318 531,197 533,192 534,212 536,248 537,243 539,218 540,242 542,300 543,382 545,337 546,342 548,325 549,328 551,325 552,308 554,272 555,304 557,296 558,324 560,267 561,380 563,258 564,308 566,243 568,239 569,243 571,429 572,324 574,244 575,265 577,357 578,356 580,352 581,256 583,258 584,310 586,337 587,335 589,361 590,346 592,290 593,302 595,328 596,402 598,346 599,403 601,392 602,332 604,326 605,382 607,362 608,393 610,324 611,370 613,326 615,344 616,351 618,424 619,329 621,306 622,284 624,254 625,229 627,253 628,317 630,354 631,334 633,302 634,354 636,383 637,371 639,387 640,366 642,312 643,311 645,421 646,332 648,313 649,336 651,349 652,359 654,408 655,372 657,349 658,376 660,435 661,380 663,354 665,454 666,389 668,352 669,343 671,329 672,391 674,414 675,354 677,330 678,380 680,305 681,307 683,477 684,363 686,369 687,335 689,361 690,557 692,435 693,471 695,471 696,531 698,442 699,454 701,446 702,422 704,471 705,497 707,391 708,356 710,385 712,447 713,462 715,384 716,426 718,562 719,508 721,459 722,527 724,522 725,505 727,658 728,508 730,502 731,509 733,642 734,453 736,431 737,458 739,497 740,453 742,483 743,456 745,478 746,395 748,445 749,362 751,341 752,325 754,453 755,398 757,556 758,432 760,422 762,403 763,415 765,436 766,438 768,442 769,484 771,466 772,454 774,488 775,490 777,487 778,541 780,506 781,534 783,489 784,456 786,457 787,475 789,525 790,470 792,514 793,450 795,435 796,438 798,494 799,447 801,525 802,441 804,455 805,392 807,408 809,369 810,375 812,502 813,495 815,541 816,452 818,443 819,361 821,329 822,339 824,412 825,434 827,517 828,520 830,490 831,476 833,592 834,568 836,484 837,426 839,359 840,332 842,337 843,379 845,383 846,345 848,350 849,413 851,464 852,474 854,514 855,535 857,598 859,535 860,496 862,490 863,510 865,496 866,507 868,491 869,478 871,509 872,603 874,467 875,436 877,443 878,504 880,478 881,523 883,481 884,478 886,486 887,491 889,478 890,380 892,338 893,346 895,472 896,413 898,479 899,508 901,478 902,628 904,460 906,450 907,458 909,527 910,467 912,513 913,478 915,444 916,437 918,370 919,347 921,370 922,462 924,436 925,465 927,456 928,438 930,512 931,371 933,347 934,367 936,481 937,457 939,439 940,496 942,444 943,456 945,496 946,491 948,450 949,495 951,455 952,558 954,501 956,438 957,421 959,457 960,465 962,472 963,465 965,448 966,471 968,485 969,527 971,511 972,499 974,499 975,527 977,542 978,546 980,521 981,540 983,484 984,477 986,481 987,531 989,535 990,488 992,436 993,422 995,487 996,464 998,480 999,514 1001,515 1003,498 1004,515 1004,514 1004,480 1004,464 1004,487 1004,422 1004,436 1004,488 1004,535 1004,531 1004,481 1004,477 1004,484 1004,540 1004,521 1004,546 1004,542 1004,527 1004,499 1004,499 1004,511 1004,527 1004,485 1004,471 1004,448 1004,465 1004,472 1004,465 1004,457 1004,421 1004,438 1004,501 1004,558 1004,455 1004,495 1004,450 1004,491 1004,496 1004,456 1004,444 1004,496 1004,439 1004,457 1004,481 1004,367 1004,347 1004,371 1004,512 1004,438 1004,456 1004,465 1004,436 1004,462 1004,370 1004,347 1004,370 1004,437 1004,444 1004,478 1004,513 1004,467 1004,527 1004,458 1004,450 1004,460 1004,628 1004,478 1004,508 1004,479 1004,413 1004,472 1004,346 1004,338 1004,380 1004,478 1004,491 1004,486 1004,478 1004,481 1004,523 1004,478 1004,504 1004,443 1004,436 1004,467 1004,603 1004,509 1004,478 1004,491 1004,507 1004,496 1004,510 1004,490 1004,496 1004,535 1004,598 1004,535 1004,514 1004,474 1004,464 1004,413 1004,350 1004,345 1004,383 1004,379 1004,337 1004,332 1004,359 1004,426 1004,484 1004,568 1004,592 1004,476 1004,490 1004,520 1004,517 1004,434 1004,412 1004,339 1004,329 1004,361 1004,443 1004,452 1004,541 1004,495 1004,502 1004,375 1004,369 1004,408 1004,392 1004,455 1004,441 1004,525 1004,447 1004,494 1004,438 1004,435 1004,450 1004,514 1004,470 1004,525 1004,475 1004,457 1004,456 1004,489 1004,534 1004,506 1004,541 1004,487 1004,490 1004,488 1004,454 1004,466 1004,484 1004,442 1004,438 1004,436 1004,415 1004,403 1004,422 1004,432 1004,556 1004,398 1004,453 1004,325 1004,341 1004,362 1004,445 1004,395 1004,478 1004,456 1004,483 1004,453 1004,497 1004,458 1004,431 1004,453 1004,642 1004,509 1004,502 1004,508 1004,658 1004,505 1004,522 1004,527 1004,459 1004,508 1004,562 1004,426 1004,384 1004,462 1004,447 1004,385 1004,356 1004,391 1004,497 1004,471 1004,422 1004,446 1004,454 1004,442 1004,531 1004,471 1004,471 1004,435 1004,557 1004,361 1004,335 1004,369 1004,363 1004,477 1004,307 1004,305 1004,380 1004,330 1004,354 1004,414 1004,391 1004,329 1004,343 1004,352 1004,389 1004,454 1004,354 1004,380 1004,435 1004,376 1004,349 1004,372 1004,408 1004,359 1004,349 1004,336 1004,313 1004,332 1004,421 1004,311 1004,312 1004,366 1004,387 1004,371 1004,383 1004,354 1004,302 1004,334 1004,354 1004,317 1004,253 1004,229 1004,254 1004,284 1004,306 1004,329 1004,424 1004,351 1004,344 1004,326 1004,370 1004,324 1004,393 1004,362 1004,382 1004,326 1004,332 1004,392 1004,403 1004,346 1004,402 1004,328 1004,302 1004,290 1004,346 1004,361 1004,335 1004,337 1004,310 1004,258 1004,256 1004,352 1004,356 1004,357 1004,265 1004,244 1004,324 1004,429 1004,243 1004,239 1004,243 1004,308 1004,258 1004,380 1004,267 1004,324 1004,296 1004,304 1004,272 1004,308 1004,325 1004,328 1004,325 1004,342 1004,337 1004,382 1004,300 1004,242 1004,218 1004,243 1004,248 1004,212 1004,192 1004,197 1004,318 1004,258 1004,294 1004,321 1004,315 1004,359 1004,349 1004,383 1004,288 1004,237 1004,286 1004,251 1004,380 1004,285 1004,277 1004,314 1004,256 1004,246 1004,168 1004,158 1004,234 1004,189 1004,189 1004,246 1004,306 1004,197 1004,245 1004,183 1004,192 1004,186 1004,217 1004,258 1004,223 1004,262 1004,252 1004,265 1004,205 1004,180 1004,145 1004,129 1004,157 1004,241 1004,274 1004,271 1004,218 1004,281 1004,221 1004,328 1004,295 1004,352 1004,282 1004,251 1004,246 1004,250 1004,343 1004,233 1004,236 1004,255 1004,183 1004,161 1004,229 1004,181 1004,188 1004,230 1004,249 1004,175 1004,220 1004,183 1004,213 1004,166 1004,159 1004,163 1004,275 1004,187 1004,302 1004,181 1004,201 1004,180 1004,218 1004,124 1004,138 1004,191 1004,246 1004,163 1004,139 1004,168 1004,270 1004,297 1004,211 1004,170 1004,135 1004,176 1004,191 1004,344 1004,305 1004,256 1004,235 1004,203 1004,223 1004,150 1004,104 1004,94 1004,125 1004,196 1004,183 1004,236 1004,180 1004,244 1004,288 1004,236 1004,211 1004,237 1004,260 1004,255 1004,357 1004,279 1004,212 1004,179 1004,169 1004,151 1004,96 1004,77 1004,103 1004,161 1004,137 1004,194 1004,134 1004,173 1004,325 1004,166 1004,141 1004,113 1004,111 1004,126 1004,179 1004,158 1004,273 1004,165 1004,165 1004,124 1004,88 1004,60 1004,57 1004,81 1004,193 1004,105 1004,209 1004,140 1004,204 1004,181 1004,295 1004,187 1004,213 1004,202 1004,230 1004,311 1004,186 1004,197 1004,254 1004,194 1004,189 1004,164 1004,130 1004,155 1004,157 1004,195 1004,159 1004,180 1004,178 1004,244 1004,260 1004,212 1004,204 1004,238 1004,248 1004,258 1004,244 1004,272 1004,304 1004,269 1004,230 1004,138 1004,118 1004,131 1004,182 1004,165 1004,218 1004,199 1004,200 1004,273 1004,363 1004,220 1004,190 1004,184 1004,224 1004,276 1004,255 1004,295 1004,243 1004,205 1004,170 1004,205 1004,130 1004,87 1004,106 1004,145 1004,145 1004,199 1004,201 1004,187 1004,197 1004,175 1004,214 1004,189 1004,156 1004,196 1004,287 1004,240 1004,258 1004,227 1004,203 1004,195 1004,101 1004,73 1004,98 1004,188 1004,174 1004,199 1004,201 1004,196 1004,196 1004,192 1004,226 1004,197 1004,186 1004,266 1004,259 1004,265 1004,234 1004,301 1004,273 1004,193 1004,183 1004,116 1004,112 1004,146 1004,206 1004,227 1004,193 1004,194 1004,200 1004,180 1004,209 1004,169 1004,160 1004,199 1004,279 1004,241 1004,273 1004,284 1004,274 1004,276 1004,285 1004,294 "/>
<polyline fill="none" opacity="1" stroke="#3CB44B" stroke-width="1" points="130,286 131,286 133,286 134,286 136,285 137,285 139,284 140,283 142,282 143,281 145,280 146,278 148,277 149,276 151,274 152,273 154,272 155,270 157,269 158,268 160,266 161,265 163,264 164,263 166,263 167,262 169,261 170,261 172,260 173,260 175,260 176,259 178,259 180,259 181,259 183,259 184,259 186,259 187,258 189,258 190,258 192,258 193,258 195,258 196,257 198,257 199,257 201,257 202,256 204,256 205,256 207,256 208,256 210,256 211,256 213,256 214,257 216,257 217,257 219,258 220,259 222,259 223,260 225,261 227,262 228,263 230,264 231,265 233,266 234,267 236,268 237,269 239,270 240,271 242,272 243,273 245,273 246,274 248,274 249,275 251,275 252,275 254,275 255,275 257,275 258,275 260,275 261,274 263,274 264,273 266,273 267,272 269,272 270,271 272,270 273,269 275,268 277,268 278,267 280,266 281,265 283,264 284,263 286,262 287,262 289,261 290,260 292,259 293,258 295,257 296,256 298,255 299,254 301,253 302,252 304,251 305,249 307,248 308,247 310,247 311,246 313,245 314,244 316,244 317,243 319,243 320,243 322,243 324,243 325,244 327,245 328,246 330,247 331,249 333,250 334,252 336,254 337,256 339,258 340,260 342,262 343,265 345,267 346,269 348,271 349,273 351,275 352,277 354,279 355,280 357,282 358,283 360,284 361,285 363,286 364,286 366,287 367,287 369,287 370,287 372,286 374,286 375,285 377,284 378,283 380,282 381,281 383,280 384,279 386,278 387,276 389,275 390,274 392,273 393,272 395,272 396,271 398,270 399,270 401,270 402,270 404,271 405,272 407,272 408,273 410,275 411,276 413,278 414,279 416,281 417,283 419,285 421,287 422,289 424,290 425,292 427,294 428,296 430,297 431,299 433,300 434,302 436,303 437,304 439,305 440,305 442,306 443,306 445,307 446,307 448,307 449,307 451,306 452,306 454,305 455,305 457,304 458,303 460,302 461,302 463,301 464,300 466,299 467,298 469,297 471,297 472,296 474,296 475,295 477,295 478,295 480,296 481,296 483,297 484,298 486,299 487,300 489,301 490,303 492,305 493,307 495,309 496,311 498,313 499,315 501,317 502,320 504,322 505,324 507,326 508,328 510,330 511,332 513,333 514,335 516,336 518,337 519,338 521,339 522,339 524,339 525,340 527,340 528,339 530,339 531,339 533,338 534,337 536,337 537,336 539,335 540,334 542,333 543,333 545,332 546,331 548,331 549,330 551,330 552,330 554,330 555,331 557,332 558,332 560,333 561,335 563,336 564,337 566,339 568,341 569,343 571,344 572,346 574,348 575,350 577,352 578,353 580,355 581,356 583,357 584,358 586,359 587,360 589,360 590,361 592,361 593,361 595,360 596,360 598,359 599,358 601,358 602,357 604,355 605,354 607,353 608,352 610,351 611,350 613,349 615,348 616,348 618,347 619,347 621,347 622,347 624,347 625,348 627,349 628,350 630,351 631,352 633,354 634,355 636,357 637,358 639,360 640,362 642,363 643,365 645,366 646,368 648,369 649,370 651,371 652,372 654,373 655,373 657,374 658,374 660,374 661,375 663,375 665,375 666,375 668,375 669,375 671,375 672,376 674,376 675,377 677,377 678,378 680,379 681,381 683,382 684,384 686,386 687,388 689,390 690,392 692,395 693,397 695,400 696,403 698,405 699,408 701,410 702,413 704,415 705,417 707,419 708,420 710,422 712,423 713,424 715,425 716,425 718,425 719,425 721,424 722,423 724,422 725,420 727,419 728,417 730,415 731,413 733,410 734,408 736,405 737,403 739,400 740,398 742,395 743,393 745,391 746,390 748,388 749,387 751,386 752,385 754,385 755,385 757,386 758,386 760,387 762,389 763,390 765,391 766,393 768,395 769,397 771,399 772,400 774,402 775,404 777,405 778,406 780,407 781,408 783,409 784,409 786,409 787,409 789,409 790,408 792,407 793,406 795,405 796,404 798,402 799,400 801,398 802,396 804,394 805,392 807,390 809,388 810,386 812,384 813,382 815,381 816,379 818,378 819,377 821,377 822,377 824,377 825,377 827,377 828,378 830,379 831,380 833,382 834,383 836,385 837,387 839,388 840,390 842,392 843,394 845,396 846,397 848,399 849,400 851,402 852,403 854,404 855,405 857,406 859,407 860,407 862,408 863,408 865,408 866,408 868,408 869,408 871,408 872,407 874,407 875,406 877,406 878,405 880,404 881,404 883,403 884,402 886,401 887,400 889,400 890,399 892,398 893,397 895,396 896,395 898,394 899,394 901,393 902,392 904,391 906,390 907,389 909,388 910,387 912,386 913,385 915,385 916,384 918,383 919,383 921,382 922,382 924,381 925,381 927,381 928,381 930,381 931,382 933,382 934,383 936,384 937,385 939,386 940,387 942,388 943,390 945,391 946,393 948,395 949,396 951,398 952,400 954,401 956,403 957,404 959,406 960,407 962,408 963,410 965,411 966,411 968,412 969,413 971,413 972,413 974,413 975,413 977,413 978,413 980,413 981,412 983,412 984,411 986,411 987,410 989,409 990,409 992,408 993,407 995,407 996,406 998,406 999,406 1001,406 1003,406 1004,406 1004,406 1004,406 1004,406 1004,407 1004,407 1004,408 1004,409 1004,409 1004,410 1004,411 1004,411 1004,412 1004,412 1004,413 1004,413 1004,413 1004,413 1004,413 1004,413 1004,413 1004,413 1004,412 1004,411 1004,411 1004,410 1004,408 1004,407 1004,406 1004,404 1004,403 1004,401 1004,400 1004,398 1004,396 1004,395 1004,393 1004,391 1004,390 1004,388 1004,387 1004,386 1004,385 1004,384 1004,383 1004,382 1004,382 1004,381 1004,381 1004,381 1004,381 1004,381 1004,382 1004,382 1004,383 1004,383 1004,384 1004,385 1004,385 1004,386 1004,387 1004,388 1004,389 1004,390 1004,391 1004,392 1004,393 1004,394 1004,394 1004,395 1004,396 1004,397 1004,398 1004,399 1004,400 1004,400 1004,401 1004,402 1004,403 1004,404 1004,404 1004,405 1004,406 1004,406 1004,407 1004,407 1004,408 1004,408 1004,408 1004,408 1004,408 1004,408 1004,408 1004,407 1004,407 1004,406 1004,405 1004,404 1004,403 1004,402 1004,400 1004,399 1004,397 1004,396 1004,394 1004,392 1004,390 1004,388 1004,387 1004,385 1004,383 1004,382 1004,380 1004,379 1004,378 1004,377 1004,377 1004,377 1004,377 1004,377 1004,377 1004,378 1004,379 1004,381 1004,382 1004,384 1004,386 1004,388 1004,390 1004,392 1004,394 1004,396 1004,398 1004,400 1004,402 1004,404 1004,405 1004,406 1004,407 1004,408 1004,409 1004,409 1004,409 1004,409 1004,409 1004,408 1004,407 1004,406 1004,405 1004,404 1004,402 1004,400 1004,399 1004,397 1004,395 1004,393 1004,391 1004,390 1004,389 1004,387 1004,386 1004,386 1004,385 1004,385 1004,385 1004,386 1004,387 1004,388 1004,390 1004,391 1004,393 1004,395 1004,398 1004,400 1004,403 1004,405 1004,408 1004,410 1004,413 1004,415 1004,417 1004,419 1004,420 1004,422 1004,423 1004,424 1004,425 1004,425 1004,425 1004,425 1004,424 1004,423 1004,422 1004,420 1004,419 1004,417 1004,415 1004,413 1004,410 1004,408 1004,405 1004,403 1004,400 1004,397 1004,395 1004,392 1004,390 1004,388 1004,386 1004,384 1004,382 1004,381 1004,379 1004,378 1004,377 1004,377 1004,376 1004,376 1004,375 1004,375 1004,375 1004,375 1004,375 1004,375 1004,375 1004,374 1004,374 1004,374 1004,373 1004,373 1004,372 1004,371 1004,370 1004,369 1004,368 1004,366 1004,365 1004,363 1004,362 1004,360 1004,358 1004,357 1004,355 1004,354 1004,352 1004,351 1004,350 1004,349 1004,348 1004,347 1004,347 1004,347 1004,347 1004,347 1004,348 1004,348 1004,349 1004,350 1004,351 1004,352 1004,353 1004,354 1004,355 1004,357 1004,358 1004,358 1004,359 1004,360 1004,360 1004,361 1004,361 1004,361 1004,360 1004,360 1004,359 1004,358 1004,357 1004,356 1004,355 1004,353 1004,352 1004,350 1004,348 1004,346 1004,344 1004,343 1004,341 1004,339 1004,337 1004,336 1004,335 1004,333 1004,332 1004,332 1004,331 1004,330 1004,330 1004,330 1004,330 1004,331 1004,331 1004,332 1004,333 1004,333 1004,334 1004,335 1004,336 1004,337 1004,337 1004,338 1004,339 1004,339 1004,339 1004,340 1004,340 1004,339 1004,339 1004,339 1004,338 1004,337 1004,336 1004,335 1004,333 1004,332 1004,330 1004,328 1004,326 1004,324 1004,322 1004,320 1004,317 1004,315 1004,313 1004,311 1004,309 1004,307 1004,305 1004,303 1004,301 1004,300 1004,299 1004,298 1004,297 1004,296 1004,296 1004,295 1004,295 1004,295 1004,296 1004,296 1004,297 1004,297 1004,298 1004,299 1004,300 1004,301 1004,302 1004,302 1004,303 1004,304 1004,305 1004,305 1004,306 1004,306 1004,307 1004,307 1004,307 1004,307 1004,306 1004,306 1004,305 1004,305 1004,304 1004,303 1004,302 1004,300 1004,299 1004,297 1004,296 1004,294 1004,292 1004,290 1004,289 1004,287 1004,285 1004,283 1004,281 1004,279 1004,278 1004,276 1004,275 1004,273 1004,272 1004,272 1004,271 1004,270 1004,270 1004,270 1004,270 1004,271 1004,272 1004,272 1004,273 1004,274 1004,275 1004,276 1004,278 1004,279 1004,280 1004,281 1004,282 1004,283 1004,284 1004,285 1004,286 1004,286 1004,287 1004,287 1004,287 1004,287 1004,286 1004,286 1004,285 1004,284 1004,283 1004,282 1004,280 1004,279 1004,277 1004,275 1004,273 1004,271 1004,269 1004,267 1004,265 1004,262 1004,260 1004,258 1004,256 1004,254 1004,252 1004,250 1004,249 1004,247 1004,246 1004,245 1004,244 1004,243 1004,243 1004,243 1004,243 1004,243 1004,244 1004,244 1004,245 1004,246 1004,247 1004,247 1004,248 1004,249 1004,251 1004,252 1004,253 1004,254 1004,255 1004,256 1004,257 1004,258 1004,259 1004,260 1004,261 1004,262 1004,262 1004,263 1004,264 1004,265 1004,266 1004,267 1004,268 1004,268 1004,269 1004,270 1004,271 1004,272 1004,272 1004,273 1004,273 1004,274 1004,274 1004,275 1004,275 1004,275 1004,275 1004,275 1004,275 1004,275 1004,275 1004,274 1004,274 1004,273 1004,273 1004,272 1004,271 1004,270 1004,269 1004,268 1004,267 1004,266 1004,265 1004,264 1004,263 1004,262 1004,261 1004,260 1004,259 1004,259 1004,258 1004,257 1004,257 1004,257 1004,256 1004,256 1004,256 1004,256 1004,256 1004,256 1004,256 1004,256 1004,257 1004,257 1004,257 1004,257 1004,258 1004,258 1004,258 1004,258 1004,258 1004,258 1004,259 1004,259 1004,259 1004,259 1004,259 1004,259 1004,259 1004,260 1004,260 1004,260 1004,261 1004,261 1004,262 1004,263 1004,263 1004,264 1004,265 1004,266 1004,268 1004,269 1004,270 1004,272 1004,273 1004,274 1004,276 1004,277 1004,278 1004,280 1004,281 1004,282 1004,283 1004,284 1004,285 1004,285 1004,286 1004,286 1004,286 "/>
<polyline fill="none" opacity="1" stroke="#FFE119" stroke-width="1" points="130,366 131,366 133,366 134,366 136,366 137,366 139,366 140,367 142,367 143,367 145,367 146,367 148,367 149,367 151,368 152,368 154,368 155,368 157,368 158,369 160,369 161,369 163,369 164,369 166,369 167,369 169,370 170,370 172,370 173,370 175,370 176,370 178,370 180,370 181,370 183,370 184,370 186,370 187,370 189,370 190,370 192,370 193,370 195,370 196,370 198,370 199,370 201,370 202,370 204,370 205,370 207,370 208,370 210,370 211,370 213,370 214,370 216,370 217,370 219,370 220,370 222,370 223,370 225,370 227,370 228,370 230,370 231,370 233,370 234,371 236,371 237,371 239,370 240,370 242,370 243,370 245,370 246,370 248,370 249,370 251,370 252,370 254,370 255,370 257,370 258,370 260,370 261,369 263,369 264,369 266,369 267,369 269,369 270,369 272,369 273,369 275,369 277,369 278,369 280,369 281,369 283,369 284,369 286,369 287,369 289,370 290,370 292,370 293,370 295,370 296,370 298,370 299,370 301,370 302,370 304,370 305,370 307,370 308,370 310,370 311,370 313,370 314,370 316,370 317,370 319,370 320,370 322,371 324,371 325,371 327,371 328,371 330,371 331,371 333,371 334,371 336,371 337,371 339,371 340,371 342,371 343,371 345,371 346,371 348,371 349,371 351,371 352,371 354,371 355,371 357,371 358,371 360,371 361,371 363,371 364,371 366,371 367,371 369,371 370,371 372,371 374,371 375,371 377,371 378,371 380,371 381,371 383,371 384,372 386,372 387,372 389,372 390,372 392,372 393,372 395,371 396,371 398,371 399,371 401,371 402,371 404,371 405,371 407,371 408,371 410,371 411,371 413,371 414,371 416,371 417,371 419,371 421,371 422,371 424,371 425,371 427,371 428,371 430,372 431,372 433,372 434,372 436,372 437,372 439,373 440,373 442,373 443,373 445,373 446,373 448,373 449,373 451,373 452,373 454,373 455,373 457,372 458,372 460,372 461,372 463,372 464,372 466,372 467,371 469,371 471,371 472,371 474,371 475,371 477,371 478,371 480,371 481,371 483,371 484,371 486,371 487,371 489,371 490,371 492,371 493,370 495,370 496,370 498,370 499,370 501,369 502,369 504,369 505,368 507,368 508,368 510,367 511,367 513,367 514,366 516,366 518,366 519,366 521,366 522,366 524,366 525,367 527,367 528,367 530,367 531,368 533,368 534,368 536,368 537,368 539,368 540,368 542,368 543,367 545,367 546,366 548,365 549,364 551,363 552,361 554,360 555,358 557,356 558,354 560,352 561,350 563,349 564,348 566,347 568,347 569,348 571,350 572,352 574,355 575,358 577,361 578,365 580,369 581,373 583,377 584,380 586,384 587,387 589,390 590,393 592,395 593,397 595,399 596,401 598,402 599,403 601,404 602,405 604,405 605,405 607,405 608,404 610,403 611,402 613,401 615,399 616,396 618,394 619,391 621,388 622,385 624,382 625,378 627,375 628,372 630,370 631,369 633,370 634,371 636,375 637,379 639,384 640,389 642,395 643,400 645,406 646,411 648,417 649,422 651,427 652,431 654,436 655,440 657,445 658,449 660,453 661,457 663,461 665,464 666,468 668,472 669,475 671,479 672,482 674,486 675,489 677,493 678,496 680,499 681,502 683,505 684,508 686,511 687,514 689,517 690,519 692,522 693,524 695,527 696,529 698,531 699,533 701,535 702,536 704,538 705,539 707,541 708,542 710,543 712,544 713,544 715,545 716,545 718,546 719,546 721,546 722,546 724,545 725,545 727,544 728,544 730,543 731,542 733,541 734,540 736,539 737,538 739,537 740,536 742,535 743,535 745,534 746,534 748,535 749,535 751,536 752,537 754,539 755,541 757,543 758,545 760,547 762,549 763,552 765,554 766,557 768,559 769,561 771,563 772,565 774,567 775,569 777,570 778,571 780,573 781,574 783,574 784,575 786,575 787,575 789,575 790,575 792,574 793,573 795,572 796,571 798,569 799,567 801,565 802,562 804,559 805,555 807,551 809,546 810,541 812,535 813,528 815,521 816,512 818,502 819,491 821,480 822,470 824,466 825,470 827,480 828,492 830,504 831,515 833,525 834,534 836,542 837,549 839,555 840,561 842,566 843,570 845,575 846,578 848,582 849,585 851,588 852,590 854,592 855,594 857,596 859,597 860,599 862,600 863,601 865,601 866,602 868,602 869,602 871,602 872,602 874,601 875,601 877,600 878,599 880,598 881,597 883,596 884,595 886,594 887,592 889,591 890,589 892,588 893,586 895,584 896,583 898,581 899,579 901,578 902,576 904,574 906,573 907,571 909,570 910,568 912,567 913,565 915,564 916,563 918,562 919,562 921,562 922,563 924,564 925,565 927,568 928,571 930,574 931,578 933,583 934,587 936,592 937,598 939,603 940,608 942,613 943,618 945,623 946,628 948,633 949,637 951,642 952,646 954,650 956,654 957,658 959,658 960,658 962,658 963,658 965,658 966,658 968,658 969,658 971,658 972,658 974,658 975,658 977,658 978,658 980,658 981,658 983,658 984,658 986,658 987,658 989,658 990,658 992,658 993,658 995,658 996,658 998,658 999,658 1001,658 1003,658 1004,658 1004,658 1004,658 1004,658 1004,658 1004,658 1004,658 1004,658 1004,658 1004,658 1004,658 1004,658 1004,658 1004,658 1004,658 1004,658 1004,658 1004,658 1004,658 1004,658 1004,658 1004,658 1004,658 1004,658 1004,658 1004,658 1004,658 1004,658 1004,658 1004,658 1004,654 1004,650 1004,646 1004,642 1004,637 1004,633 1004,628 1004,623 1004,618 1004,613 1004,608 1004,603 1004,598 1004,592 1004,587 1004,583 1004,578 1004,574 1004,571 1004,568 1004,565 1004,564 1004,563 1004,562 1004,562 1004,562 1004,563 1004,564 1004,565 1004,567 1004,568 1004,570 1004,571 1004,573 1004,574 1004,576 1004,578 1004,579 1004,581 1004,583 1004,584 1004,586 1004,588 1004,589 1004,591 1004,592 1004,594 1004,595 1004,596 1004,597 1004,598 1004,599 1004,600 1004,601 1004,601 1004,602 1004,602 1004,602 1004,602 1004,602 1004,601 1004,601 1004,600 1004,599 1004,597 1004,596 1004,594 1004,592 1004,590 1004,588 1004,585 1004,582 1004,578 1004,575 1004,570 1004,566 1004,561 1004,555 1004,549 1004,542 1004,534 1004,525 1004,515 1004,504 1004,492 1004,480 1004,470 1004,466 1004,470 1004,480 1004,491 1004,502 1004,512 1004,521 1004,528 1004,535 1004,541 1004,546 1004,551 1004,555 1004,559 1004,562 1004,565 1004,567 1004,569 1004,571 1004,572 1004,573 1004,574 1004,575 1004,575 1004,575 1004,575 1004,575 1004,574 1004,574 1004,573 1004,571 1004,570 1004,569 1004,567 1004,565 1004,563 1004,561 1004,559 1004,557 1004,554 1004,552 1004,549 1004,547 1004,545 1004,543 1004,541 1004,539 1004,537 1004,536 1004,535 1004,535 1004,534 1004,534 1004,535 1004,535 1004,536 1004,537 1004,538 1004,539 1004,540 1004,541 1004,542 1004,543 1004,544 1004,544 1004,545 1004,545 1004,546 1004,546 1004,546 1004,546 1004,545 1004,545 1004,544 1004,544 1004,543 1004,542 1004,541 1004,539 1004,538 1004,536 1004,535 1004,533 1004,531 1004,529 1004,527 1004,524 1004,522 1004,519 1004,517 1004,514 1004,511 1004,508 1004,505 1004,502 1004,499 1004,496 1004,493 1004,489 1004,486 1004,482 1004,479 1004,475 1004,472 1004,468 1004,464 1004,461 1004,457 1004,453 1004,449 1004,445 1004,440 1004,436 1004,431 1004,427 1004,422 1004,417 1004,411 1004,406 1004,400 1004,395 1004,389 1004,384 1004,379 1004,375 1004,371 1004,370 1004,369 1004,370 1004,372 1004,375 1004,378 1004,382 1004,385 1004,388 1004,391 1004,394 1004,396 1004,399 1004,401 1004,402 1004,403 1004,404 1004,405 1004,405 1004,405 1004,405 1004,404 1004,403 1004,402 1004,401 1004,399 1004,397 1004,395 1004,393 1004,390 1004,387 1004,384 1004,380 1004,377 1004,373 1004,369 1004,365 1004,361 1004,358 1004,355 1004,352 1004,350 1004,348 1004,347 1004,347 1004,348 1004,349 1004,350 1004,352 1004,354 1004,356 1004,358 1004,360 1004,361 1004,363 1004,364 1004,365 1004,366 1004,367 1004,367 1004,368 1004,368 1004,368 1004,368 1004,368 1004,368 1004,368 1004,368 1004,367 1004,367 1004,367 1004,367 1004,366 1004,366 1004,366 1004,366 1004,366 1004,366 1004,366 1004,367 1004,367 1004,367 1004,368 1004,368 1004,368 1004,369 1004,369 1004,369 1004,370 1004,370 1004,370 1004,370 1004,370 1004,371 1004,371 1004,371 1004,371 1004,371 1004,371 1004,371 1004,371 1004,371 1004,371 1004,371 1004,371 1004,371 1004,371 1004,371 1004,371 1004,371 1004,372 1004,372 1004,372 1004,372 1004,372 1004,372 1004,372 1004,373 1004,373 1004,373 1004,373 1004,373 1004,373 1004,373 1004,373 1004,373 1004,373 1004,373 1004,373 1004,372 1004,372 1004,372 1004,372 1004,372 1004,372 1004,371 1004,371 1004,371 1004,371 1004,371 1004,371 1004,371 1004,371 1004,371 1004,371 1004,371 1004,371 1004,371 1004,371 1004,371 1004,371 1004,371 1004,371 1004,371 1004,371 1004,371 1004,371 1004,371 1004,372 1004,372 1004,372 1004,372 1004,372 1004,372 1004,372 1004,371 1004,371 1004,371 1004,371 1004,371 1004,371 1004,371 1004,371 1004,371 1004,371 1004,371 1004,371 1004,371 1004,371 1004,371 1004,371 1004,371 1004,371 1004,371 1004,371 1004,371 1004,371 1004,371 1004,371 1004,371 1004,371 1004,371 1004,371 1004,371 1004,371 1004,371 1004,371 1004,371 1004,371 1004,371 1004,371 1004,371 1004,371 1004,371 1004,371 1004,371 1004,370 1004,370 1004,370 1004,370 1004,370 1004,370 1004,370 1004,370 1004,370 1004,370 1004,370 1004,370 1004,370 1004,370 1004,370 1004,370 1004,370 1004,370 1004,370 1004,370 1004,370 1004,370 1004,369 1004,369 1004,369 1004,369 1004,369 1004,369 1004,369 1004,369 1004,369 1004,369 1004,369 1004,369 1004,369 1004,369 1004,369 1004,369 1004,369 1004,369 1004,370 1004,370 1004,370 1004,370 1004,370 1004,370 1004,370 1004,370 1004,370 1004,370 1004,370 1004,370 1004,370 1004,370 1004,370 1004,371 1004,371 1004,371 1004,370 1004,370 1004,370 1004,370 1004,370 1004,370 1004,370 1004,370 1004,370 1004,370 1004,370 1004,370 1004,370 1004,370 1004,370 1004,370 1004,370 1004,370 1004,370 1004,370 1004,370 1004,370 1004,370 1004,370 1004,370 1004,370 1004,370 1004,370 1004,370 1004,370 1004,370 1004,370 1004,370 1004,370 1004,370 1004,370 1004,370 1004,370 1004,370 1004,370 1004,370 1004,370 1004,370 1004,369 1004,369 1004,369 1004,369 1004,369 1004,369 1004,369 1004,368 1004,368 1004,368 1004,368 1004,368 1004,367 1004,367 1004,367 1004,367 1004,367 1004,367 1004,367 1004,366 1004,366 1004,366 1004,366 1004,366 1004,366 "/>
<polyline fill="none" opacity="1" stroke="#0082C8" stroke-width="1" points="130,223 131,223 133,223 134,223 136,224 137,224 139,224 140,224 142,224 143,224 145,224 146,224 148,225 149,225 151,225 152,225 154,225 155,226 157,226 158,226 160,226 161,226 163,226 164,227 166,227 167,227 169,227 170,227 172,227 173,227 175,227 176,227 178,227 180,227 181,227 183,227 184,227 186,227 187,227 189,227 190,227 192,227 193,227 195,227 196,227 198,227 199,227 201,227 202,227 204,227 205,227 207,227 208,227 210,227 211,227 213,227 214,227 216,227 217,227 219,227 220,227 222,228 223,228 225,228 227,228 228,228 230,228 231,228 233,228 234,228 236,228 237,228 239,228 240,228 242,228 243,228 245,228 246,228 248,228 249,227 251,227 252,227 254,227 255,227 257,227 258,227 260,227 261,227 263,227 264,227 266,227 267,227 269,227 270,227 272,227 273,227 275,227 277,227 278,227 280,227 281,227 283,227 284,227 286,227 287,227 289,227 290,227 292,227 293,227 295,227 296,227 298,227 299,227 301,227 302,227 304,227 305,227 307,227 308,227 310,228 311,228 313,228 314,228 316,228 317,228 319,228 320,228 322,228 324,228 325,228 327,228 328,228 330,228 331,228 333,228 334,228 336,228 337,228 339,228 340,228 342,228 343,228 345,228 346,228 348,228 349,228 351,228 352,228 354,228 355,228 357,228 358,228 360,228 361,228 363,228 364,228 366,228 367,228 369,228 370,228 372,228 374,229 375,229 377,229 378,229 380,229 381,229 383,229 384,229 386,229 387,229 389,229 390,229 392,229 393,229 395,229 396,229 398,229 399,229 401,229 402,229 404,228 405,228 407,228 408,228 410,228 411,228 413,228 414,228 416,228 417,228 419,228 421,228 422,228 424,228 425,229 427,229 428,229 430,229 431,229 433,229 434,229 436,230 437,230 439,230 440,230 442,230 443,230 445,230 446,230 448,230 449,230 451,230 452,230 454,230 455,230 457,230 458,230 460,230 461,229 463,229 464,229 466,229 467,229 469,229 471,229 472,228 474,228 475,228 477,228 478,228 480,228 481,228 483,228 484,228 486,228 487,228 489,228 490,228 492,228 493,228 495,228 496,227 498,227 499,227 501,227 502,226 504,226 505,226 507,225 508,225 510,225 511,224 513,224 514,224 516,224 518,224 519,223 521,224 522,224 524,224 525,224 527,224 528,224 530,225 531,225 533,225 534,225 536,226 537,226 539,226 540,225 542,225 543,225 545,224 546,223 548,222 549,221 551,220 552,219 554,217 555,215 557,213 558,211 560,210 561,208 563,206 564,205 566,205 568,205 569,205 571,207 572,209 574,212 575,215 577,219 578,222 580,226 581,230 583,234 584,238 586,241 587,244 589,247 590,250 592,252 593,255 595,257 596,258 598,260 599,261 601,262 602,262 604,263 605,262 607,262 608,262 610,261 611,259 613,258 615,256 616,254 618,251 619,249 621,246 622,242 624,239 625,235 627,232 628,230 630,228 631,227 633,227 634,229 636,232 637,236 639,241 640,246 642,252 643,258 645,263 646,269 648,274 649,279 651,284 652,289 654,293 655,298 657,302 658,306 660,310 661,314 663,318 665,322 666,326 668,329 669,333 671,336 672,340 674,343 675,347 677,350 678,353 680,357 681,360 683,363 684,366 686,369 687,371 689,374 690,377 692,379 693,382 695,384 696,386 698,388 699,390 701,392 702,394 704,395 705,397 707,398 708,399 710,400 712,401 713,402 715,402 716,403 718,403 719,403 721,403 722,403 724,403 725,402 727,402 728,401 730,400 731,399 733,398 734,397 736,396 737,395 739,394 740,394 742,393 743,392 745,392 746,392 748,392 749,393 751,393 752,395 754,396 755,398 757,400 758,402 760,404 762,407 763,409 765,412 766,414 768,416 769,419 771,421 772,423 774,424 775,426 777,428 778,429 780,430 781,431 783,432 784,432 786,432 787,433 789,432 790,432 792,431 793,431 795,429 796,428 798,426 799,424 801,422 802,419 804,416 805,413 807,408 809,404 810,398 812,392 813,386 815,378 816,369 818,359 819,348 821,337 822,328 824,324 825,327 827,337 828,349 830,361 831,372 833,382 834,391 836,399 837,406 839,412 840,418 842,423 843,428 845,432 846,436 848,439 849,442 851,445 852,447 854,450 855,452 857,453 859,455 860,456 862,457 863,458 865,459 866,459 868,459 869,459 871,459 872,459 874,459 875,458 877,457 878,457 880,456 881,455 883,454 884,452 886,451 887,450 889,448 890,447 892,445 893,443 895,442 896,440 898,438 899,437 901,435 902,433 904,432 906,430 907,429 909,427 910,425 912,424 913,423 915,422 916,421 918,420 919,419 921,419 922,420 924,421 925,423 927,425 928,428 930,431 931,435 933,440 934,445 936,450 937,455 939,460 940,465 942,471 943,476 945,481 946,486 948,490 949,495 951,499 952,503 954,508 956,511 957,515 959,519 960,522 962,526 963,529 965,532 966,535 968,537 969,540 971,543 972,545 974,547 975,549 977,551 978,553 980,555 981,556 983,558 984,559 986,560 987,561 989,563 990,563 992,564 993,565 995,566 996,566 998,566 999,567 1001,567 1003,567 1004,567 1004,567 1004,566 1004,566 1004,566 1004,565 1004,564 1004,563 1004,563 1004,561 1004,560 1004,559 1004,558 1004,556 1004,555 1004,553 1004,551 1004,549 1004,547 1004,545 1004,543 1004,540 1004,537 1004,535 1004,532 1004,529 1004,526 1004,522 1004,519 1004,515 1004,511 1004,508 1004,503 1004,499 1004,495 1004,490 1004,486 1004,481 1004,476 1004,471 1004,465 1004,460 1004,455 1004,450 1004,445 1004,440 1004,435 1004,431 1004,428 1004,425 1004,423 1004,421 1004,420 1004,419 1004,419 1004,420 1004,421 1004,422 1004,423 1004,424 1004,425 1004,427 1004,429 1004,430 1004,432 1004,433 1004,435 1004,437 1004,438 1004,440 1004,442 1004,443 1004,445 1004,447 1004,448 1004,450 1004,451 1004,452 1004,454 1004,455 1004,456 1004,457 1004,457 1004,458 1004,459 1004,459 1004,459 1004,459 1004,459 1004,459 1004,459 1004,458 1004,457 1004,456 1004,455 1004,453 1004,452 1004,450 1004,447 1004,445 1004,442 1004,439 1004,436 1004,432 1004,428 1004,423 1004,418 1004,412 1004,406 1004,399 1004,391 1004,382 1004,372 1004,361 1004,349 1004,337 1004,327 1004,324 1004,328 1004,337 1004,348 1004,359 1004,369 1004,378 1004,386 1004,392 1004,398 1004,404 1004,408 1004,413 1004,416 1004,419 1004,422 1004,424 1004,426 1004,428 1004,429 1004,431 1004,431 1004,432 1004,432 1004,433 1004,432 1004,432 1004,432 1004,431 1004,430 1004,429 1004,428 1004,426 1004,424 1004,423 1004,421 1004,419 1004,416 1004,414 1004,412 1004,409 1004,407 1004,404 1004,402 1004,400 1004,398 1004,396 1004,395 1004,393 1004,393 1004,392 1004,392 1004,392 1004,392 1004,393 1004,394 1004,394 1004,395 1004,396 1004,397 1004,398 1004,399 1004,400 1004,401 1004,402 1004,402 1004,403 1004,403 1004,403 1004,403 1004,403 1004,403 1004,402 1004,402 1004,401 1004,400 1004,399 1004,398 1004,397 1004,395 1004,394 1004,392 1004,390 1004,388 1004,386 1004,384 1004,382 1004,379 1004,377 1004,374 1004,371 1004,369 1004,366 1004,363 1004,360 1004,357 1004,353 1004,350 1004,347 1004,343 1004,340 1004,336 1004,333 1004,329 1004,326 1004,322 1004,318 1004,314 1004,310 1004,306 1004,302 1004,298 1004,293 1004,289 1004,284 1004,279 1004,274 1004,269 1004,263 1004,258 1004,252 1004,246 1004,241 1004,236 1004,232 1004,229 1004,227 1004,227 1004,228 1004,230 1004,232 1004,235 1004,239 1004,242 1004,246 1004,249 1004,251 1004,254 1004,256 1004,258 1004,259 1004,261 1004,262 1004,262 1004,262 1004,263 1004,262 1004,262 1004,261 1004,260 1004,258 1004,257 1004,255 1004,252 1004,250 1004,247 1004,244 1004,241 1004,238 1004,234 1004,230 1004,226 1004,222 1004,219 1004,215 1004,212 1004,209 1004,207 1004,205 1004,205 1004,205 1004,205 1004,206 1004,208 1004,210 1004,211 1004,213 1004,215 1004,217 1004,219 1004,220 1004,221 1004,222 1004,223 1004,224 1004,225 1004,225 1004,225 1004,226 1004,226 1004,226 1004,225 1004,225 1004,225 1004,225 1004,224 1004,224 1004,224 1004,224 1004,224 1004,224 1004,223 1004,224 1004,224 1004,224 1004,224 1004,224 1004,225 1004,225 1004,225 1004,226 1004,226 1004,226 1004,227 1004,227 1004,227 1004,227 1004,228 1004,228 1004,228 1004,228 1004,228 1004,228 1004,228 1004,228 1004,228 1004,228 1004,228 1004,228 1004,228 1004,228 1004,228 1004,228 1004,229 1004,229 1004,229 1004,229 1004,229 1004,229 1004,229 1004,230 1004,230 1004,230 1004,230 1004,230 1004,230 1004,230 1004,230 1004,230 1004,230 1004,230 1004,230 1004,230 1004,230 1004,230 1004,230 1004,230 1004,229 1004,229 1004,229 1004,229 1004,229 1004,229 1004,229 1004,228 1004,228 1004,228 1004,228 1004,228 1004,228 1004,228 1004,228 1004,228 1004,228 1004,228 1004,228 1004,228 1004,228 1004,229 1004,229 1004,229 1004,229 1004,229 1004,229 1004,229 1004,229 1004,229 1004,229 1004,229 1004,229 1004,229 1004,229 1004,229 1004,229 1004,229 1004,229 1004,229 1004,229 1004,228 1004,228 1004,228 1004,228 1004,228 1004,228 1004,228 1004,228 1004,228 1004,228 1004,228 1004,228 1004,228 1004,228 1004,228 1004,228 1004,228 1004,228 1004,228 1004,228 1004,228 1004,228 1004,228 1004,228 1004,228 1004,228 1004,228 1004,228 1004,228 1004,228 1004,228 1004,228 1004,228 1004,228 1004,228 1004,228 1004,228 1004,228 1004,228 1004,228 1004,228 1004,228 1004,227 1004,227 1004,227 1004,227 1004,227 1004,227 1004,227 1004,227 1004,227 1004,227 1004,227 1004,227 1004,227 1004,227 1004,227 1004,227 1004,227 1004,227 1004,227 1004,227 1004,227 1004,227 1004,227 1004,227 1004,227 1004,227 1004,227 1004,227 1004,227 1004,227 1004,227 1004,227 1004,227 1004,227 1004,227 1004,227 1004,227 1004,227 1004,227 1004,227 1004,228 1004,228 1004,228 1004,228 1004,228 1004,228 1004,228 1004,228 1004,228 1004,228 1004,228 1004,228 1004,228 1004,228 1004,228 1004,228 1004,228 1004,228 1004,227 1004,227 1004,227 1004,227 1004,227 1004,227 1004,227 1004,227 1004,227 1004,227 1004,227 1004,227 1004,227 1004,227 1004,227 1004,227 1004,227 1004,227 1004,227 1004,227 1004,227 1004,227 1004,227 1004,227 1004,227 1004,227 1004,227 1004,227 1004,227 1004,227 1004,227 1004,227 1004,227 1004,227 1004,227 1004,227 1004,227 1004,227 1004,226 1004,226 1004,226 1004,226 1004,226 1004,226 1004,225 1004,225 1004,225 1004,225 1004,225 1004,224 1004,224 1004,224 1004,224 1004,224 1004,224 1004,224 1004,224 1004,223 1004,223 1004,223 "/>
<rect x="514" y="25" width="485" height="157" opacity="0.8" fill="#FFFFFF" stroke="none"/>
<rect x="514" y="25" width="485" height="157" opacity="1" fill="none" stroke="#000000"/>
<text x="554" y="35" dy="0.76em" text-anchor="start" font-family="sans-serif" font-size="24.193548387096776" opacity="1" fill="#000000">
(1) log_power
</text>
<text x="554" y="73" dy="0.76em" text-anchor="start" font-family="sans-serif" font-size="24.193548387096776" opacity="1" fill="#000000">
(2) spectral_envelope by cepstrum
</text>
<text x="554" y="110" dy="0.76em" text-anchor="start" font-family="sans-serif" font-size="24.193548387096776" opacity="1" fill="#000000">
(3) spectral_envelope by levinson-durbin
</text>
<text x="554" y="148" dy="0.76em" text-anchor="start" font-family="sans-serif" font-size="24.193548387096776" opacity="1" fill="#000000">
(4) spectral_envelope by burg
</text>
<polyline fill="none" opacity="1" stroke="#E6194B" stroke-width="1" points="524,47 544,47 "/>
<polyline fill="none" opacity="1" stroke="#3CB44B" stroke-width="1" points="524,85 544,85 "/>
<polyline fill="none" opacity="1" stroke="#FFE119" stroke-width="1" points="524,122 544,122 "/>
<polyline fill="none" opacity="1" stroke="#0082C8" stroke-width="1" points="524,160 544,160 "/>
</svg>
