<svg width="1024" height="768" viewBox="0 0 1024 768" xmlns="http://www.w3.org/2000/svg">
<rect x="0" y="0" width="1024" height="768" opacity="1" fill="#FFFFFF" stroke="none"/>
<line opacity="0.1" stroke="#000000" stroke-width="1" x1="130" y1="657" x2="130" y2="20"/>
<line opacity="0.1" stroke="#000000" stroke-width="1" x1="140" y1="657" x2="140" y2="20"/>
<line opacity="0.1" stroke="#000000" stroke-width="1" x1="151" y1="657" x2="151" y2="20"/>
<line opacity="0.1" stroke="#000000" stroke-width="1" x1="162" y1="657" x2="162" y2="20"/>
<line opacity="0.1" stroke="#000000" stroke-width="1" x1="173" y1="657" x2="173" y2="20"/>
<line opacity="0.1" stroke="#000000" stroke-width="1" x1="184" y1="657" x2="184" y2="20"/>
<line opacity="0.1" stroke="#000000" stroke-width="1" x1="195" y1="657" x2="195" y2="20"/>
<line opacity="0.1" stroke="#000000" stroke-width="1" x1="206" y1="657" x2="206" y2="20"/>
<line opacity="0.1" stroke="#000000" stroke-width="1" x1="217" y1="657" x2="217" y2="20"/>
<line opacity="0.1" stroke="#000000" stroke-width="1" x1="228" y1="657" x2="228" y2="20"/>
<line opacity="0.1" stroke="#000000" stroke-width="1" x1="239" y1="657" x2="239" y2="20"/>
<line opacity="0.1" stroke="#000000" stroke-width="1" x1="250" y1="657" x2="250" y2="20"/>
<line opacity="0.1" stroke="#000000" stroke-width="1" x1="260" y1="657" x2="260" y2="20"/>
<line opacity="0.1" stroke="#000000" stroke-width="1" x1="271" y1="657" x2="271" y2="20"/>
<line opacity="0.1" stroke="#000000" stroke-width="1" x1="282" y1="657" x2="282" y2="20"/>
<line opacity="0.1" stroke="#000000" stroke-width="1" x1="293" y1="657" x2="293" y2="20"/>
<line opacity="0.1" stroke="#000000" stroke-width="1" x1="304" y1="657" x2="304" y2="20"/>
<line opacity="0.1" stroke="#000000" stroke-width="1" x1="315" y1="657" x2="315" y2="20"/>
<line opacity="0.1" stroke="#000000" stroke-width="1" x1="326" y1="657" x2="326" y2="20"/>
<line opacity="0.1" stroke="#000000" stroke-width="1" x1="337" y1="657" x2="337" y2="20"/>
<line opacity="0.1" stroke="#000000" stroke-width="1" x1="348" y1="657" x2="348" y2="20"/>
<line opacity="0.1" stroke="#000000" stroke-width="1" x1="359" y1="657" x2="359" y2="20"/>
<line opacity="0.1" stroke="#000000" stroke-width="1" x1="370" y1="657" x2="370" y2="20"/>
<line opacity="0.1" stroke="#000000" stroke-width="1" x1="380" y1="657" x2="380" y2="20"/>
<line opacity="0.1" stroke="#000000" stroke-width="1" x1="391" y1="657" x2="391" y2="20"/>
<line opacity="0.1" stroke="#000000" stroke-width="1" x1="402" y1="657" x2="402" y2="20"/>
<line opacity="0.1" stroke="#000000" stroke-width="1" x1="413" y1="657" x2="413" y2="20"/>
<line opacity="0.1" stroke="#000000" stroke-width="1" x1="424" y1="657" x2="424" y2="20"/>
<line opacity="0.1" stroke="#000000" stroke-width="1" x1="435" y1="657" x2="435" y2="20"/>
<line opacity="0.1" stroke="#000000" stroke-width="1" x1="446" y1="657" x2="446" y2="20"/>
<line opacity="0.1" stroke="#000000" stroke-width="1" x1="457" y1="657" x2="457" y2="20"/>
<line opacity="0.1" stroke="#000000" stroke-width="1" x1="468" y1="657" x2="468" y2="20"/>
<line opacity="0.1" stroke="#000000" stroke-width="1" x1="479" y1="657" x2="479" y2="20"/>
<line opacity="0.1" stroke="#000000" stroke-width="1" x1="490" y1="657" x2="490" y2="20"/>
<line opacity="0.1" stroke="#000000" stroke-width="1" x1="501" y1="657" x2="501" y2="20"/>
<line opacity="0.1" stroke="#000000" stroke-width="1" x1="511" y1="657" x2="511" y2="20"/>
<line opacity="0.1" stroke="#000000" stroke-width="1" x1="522" y1="657" x2="522" y2="20"/>
<line opacity="0.1" stroke="#000000" stroke-width="1" x1="533" y1="657" x2="533" y2="20"/>
<line opacity="0.1" stroke="#000000" stroke-width="1" x1="544" y1="657" x2="544" y2="20"/>
<line opacity="0.1" stroke="#000000" stroke-width="1" x1="555" y1="657" x2="555" y2="20"/>
<line opacity="0.1" stroke="#000000" stroke-width="1" x1="566" y1="657" x2="566" y2="20"/>
<line opacity="0.1" stroke="#000000" stroke-width="1" x1="577" y1="657" x2="577" y2="20"/>
<line opacity="0.1" stroke="#000000" stroke-width="1" x1="588" y1="657" x2="588" y2="20"/>
<line opacity="0.1" stroke="#000000" stroke-width="1" x1="599" y1="657" x2="599" y2="20"/>
<line opacity="0.1" stroke="#000000" stroke-width="1" x1="610" y1="657" x2="610" y2="20"/>
<line opacity="0.1" stroke="#000000" stroke-width="1" x1="621" y1="657" x2="621" y2="20"/>
<line opacity="0.1" stroke="#000000" stroke-width="1" x1="631" y1="657" x2="631" y2="20"/>
<line opacity="0.1" stroke="#000000" stroke-width="1" x1="642" y1="657" x2="642" y2="20"/>
<line opacity="0.1" stroke="#000000" stroke-width="1" x1="653" y1="657" x2="653" y2="20"/>
<line opacity="0.1" stroke="#000000" stroke-width="1" x1="664" y1="657" x2="664" y2="20"/>
<line opacity="0.1" stroke="#000000" stroke-width="1" x1="675" y1="657" x2="675" y2="20"/>
<line opacity="0.1" stroke="#000000" stroke-width="1" x1="686" y1="657" x2="686" y2="20"/>
<line opacity="0.1" stroke="#000000" stroke-width="1" x1="697" y1="657" x2="697" y2="20"/>
<line opacity="0.1" stroke="#000000" stroke-width="1" x1="708" y1="657" x2="708" y2="20"/>
<line opacity="0.1" stroke="#000000" stroke-width="1" x1="719" y1="657" x2="719" y2="20"/>
<line opacity="0.1" stroke="#000000" stroke-width="1" x1="730" y1="657" x2="730" y2="20"/>
<line opacity="0.1" stroke="#000000" stroke-width="1" x1="741" y1="657" x2="741" y2="20"/>
<line opacity="0.1" stroke="#000000" stroke-width="1" x1="752" y1="657" x2="752" y2="20"/>
<line opacity="0.1" stroke="#000000" stroke-width="1" x1="762" y1="657" x2="762" y2="20"/>
<line opacity="0.1" stroke="#000000" stroke-width="1" x1="773" y1="657" x2="773" y2="20"/>
<line opacity="0.1" stroke="#000000" stroke-width="1" x1="784" y1="657" x2="784" y2="20"/>
<line opacity="0.1" stroke="#000000" stroke-width="1" x1="795" y1="657" x2="795" y2="20"/>
<line opacity="0.1" stroke="#000000" stroke-width="1" x1="806" y1="657" x2="806" y2="20"/>
<line opacity="0.1" stroke="#000000" stroke-width="1" x1="817" y1="657" x2="817" y2="20"/>
<line opacity="0.1" stroke="#000000" stroke-width="1" x1="828" y1="657" x2="828" y2="20"/>
<line opacity="0.1" stroke="#000000" stroke-width="1" x1="839" y1="657" x2="839" y2="20"/>
<line opacity="0.1" stroke="#000000" stroke-width="1" x1="850" y1="657" x2="850" y2="20"/>
<line opacity="0.1" stroke="#000000" stroke-width="1" x1="861" y1="657" x2="861" y2="20"/>
<line opacity="0.1" stroke="#000000" stroke-width="1" x1="872" y1="657" x2="872" y2="20"/>
<line opacity="0.1" stroke="#000000" stroke-width="1" x1="882" y1="657" x2="882" y2="20"/>
<line opacity="0.1" stroke="#000000" stroke-width="1" x1="893" y1="657" x2="893" y2="20"/>
<line opacity="0.1" stroke="#000000" stroke-width="1" x1="904" y1="657" x2="904" y2="20"/>
<line opacity="0.1" stroke="#000000" stroke-width="1" x1="915" y1="657" x2="915" y2="20"/>
<line opacity="0.1" stroke="#000000" stroke-width="1" x1="926" y1="657" x2="926" y2="20"/>
<line opacity="0.1" stroke="#000000" stroke-width="1" x1="937" y1="657" x2="937" y2="20"/>
<line opacity="0.1" stroke="#000000" stroke-width="1" x1="948" y1="657" x2="948" y2="20"/>
<line opacity="0.1" stroke="#000000" stroke-width="1" x1="959" y1="657" x2="959" y2="20"/>
<line opacity="0.1" stroke="#000000" stroke-width="1" x1="970" y1="657" x2="970" y2="20"/>
<line opacity="0.1" stroke="#000000" stroke-width="1" x1="981" y1="657" x2="981" y2="20"/>
<line opacity="0.1" stroke="#000000" stroke-width="1" x1="992" y1="657" x2="992" y2="20"/>
<line opacity="0.1" stroke="#000000" stroke-width="1" x1="1003" y1="657" x2="1003" y2="20"/>
<line opacity="0.1" stroke="#000000" stroke-width="1" x1="130" y1="657" x2="1003" y2="657"/>
<line opacity="0.1" stroke="#000000" stroke-width="1" x1="130" y1="648" x2="1003" y2="648"/>
<line opacity="0.1" stroke="#000000" stroke-width="1" x1="130" y1="639" x2="1003" y2="639"/>
<line opacity="0.1" stroke="#000000" stroke-width="1" x1="130" y1="630" x2="1003" y2="630"/>
<line opacity="0.1" stroke="#000000" stroke-width="1" x1="130" y1="621" x2="1003" y2="621"/>
<line opacity="0.1" stroke="#000000" stroke-width="1" x1="130" y1="612" x2="1003" y2="612"/>
<line opacity="0.1" stroke="#000000" stroke-width="1" x1="130" y1="603" x2="1003" y2="603"/>
<line opacity="0.1" stroke="#000000" stroke-width="1" x1="130" y1="594" x2="1003" y2="594"/>
<line opacity="0.1" stroke="#000000" stroke-width="1" x1="130" y1="585" x2="1003" y2="585"/>
<line opacity="0.1" stroke="#000000" stroke-width="1" x1="130" y1="576" x2="1003" y2="576"/>
<line opacity="0.1" stroke="#000000" stroke-width="1" x1="130" y1="566" x2="1003" y2="566"/>
<line opacity="0.1" stroke="#000000" stroke-width="1" x1="130" y1="557" x2="1003" y2="557"/>
<line opacity="0.1" stroke="#000000" stroke-width="1" x1="130" y1="548" x2="1003" y2="548"/>
<line opacity="0.1" stroke="#000000" stroke-width="1" x1="130" y1="539" x2="1003" y2="539"/>
<line opacity="0.1" stroke="#000000" stroke-width="1" x1="130" y1="530" x2="1003" y2="530"/>
<line opacity="0.1" stroke="#000000" stroke-width="1" x1="130" y1="521" x2="1003" y2="521"/>
<line opacity="0.1" stroke="#000000" stroke-width="1" x1="130" y1="512" x2="1003" y2="512"/>
<line opacity="0.1" stroke="#000000" stroke-width="1" x1="130" y1="503" x2="1003" y2="503"/>
<line opacity="0.1" stroke="#000000" stroke-width="1" x1="130" y1="494" x2="1003" y2="494"/>
<line opacity="0.1" stroke="#000000" stroke-width="1" x1="130" y1="485" x2="1003" y2="485"/>
<line opacity="0.1" stroke="#000000" stroke-width="1" x1="130" y1="475" x2="1003" y2="475"/>
<line opacity="0.1" stroke="#000000" stroke-width="1" x1="130" y1="466" x2="1003" y2="466"/>
<line opacity="0.1" stroke="#000000" stroke-width="1" x1="130" y1="457" x2="1003" y2="457"/>
<line opacity="0.1" stroke="#000000" stroke-width="1" x1="130" y1="448" x2="1003" y2="448"/>
<line opacity="0.1" stroke="#000000" stroke-width="1" x1="130" y1="439" x2="1003" y2="439"/>
<line opacity="0.1" stroke="#000000" stroke-width="1" x1="130" y1="430" x2="1003" y2="430"/>
<line opacity="0.1" stroke="#000000" stroke-width="1" x1="130" y1="421" x2="1003" y2="421"/>
<line opacity="0.1" stroke="#000000" stroke-width="1" x1="130" y1="412" x2="1003" y2="412"/>
<line opacity="0.1" stroke="#000000" stroke-width="1" x1="130" y1="403" x2="1003" y2="403"/>
<line opacity="0.1" stroke="#000000" stroke-width="1" x1="130" y1="394" x2="1003" y2="394"/>
<line opacity="0.1" stroke="#000000" stroke-width="1" x1="130" y1="384" x2="1003" y2="384"/>
<line opacity="0.1" stroke="#000000" stroke-width="1" x1="130" y1="375" x2="1003" y2="375"/>
<line opacity="0.1" stroke="#000000" stroke-width="1" x1="130" y1="366" x2="1003" y2="366"/>
<line opacity="0.1" stroke="#000000" stroke-width="1" x1="130" y1="357" x2="1003" y2="357"/>
<line opacity="0.1" stroke="#000000" stroke-width="1" x1="130" y1="348" x2="1003" y2="348"/>
<line opacity="0.1" stroke="#000000" stroke-width="1" x1="130" y1="339" x2="1003" y2="339"/>
<line opacity="0.1" stroke="#000000" stroke-width="1" x1="130" y1="330" x2="1003" y2="330"/>
<line opacity="0.1" stroke="#000000" stroke-width="1" x1="130" y1="321" x2="1003" y2="321"/>
<line opacity="0.1" stroke="#000000" stroke-width="1" x1="130" y1="312" x2="1003" y2="312"/>
<line opacity="0.1" stroke="#000000" stroke-width="1" x1="130" y1="303" x2="1003" y2="303"/>
<line opacity="0.1" stroke="#000000" stroke-width="1" x1="130" y1="293" x2="1003" y2="293"/>
<line opacity="0.1" stroke="#000000" stroke-width="1" x1="130" y1="284" x2="1003" y2="284"/>
<line opacity="0.1" stroke="#000000" stroke-width="1" x1="130" y1="275" x2="1003" y2="275"/>
<line opacity="0.1" stroke="#000000" stroke-width="1" x1="130" y1="266" x2="1003" y2="266"/>
<line opacity="0.1" stroke="#000000" stroke-width="1" x1="130" y1="257" x2="1003" y2="257"/>
<line opacity="0.1" stroke="#000000" stroke-width="1" x1="130" y1="248" x2="1003" y2="248"/>
<line opacity="0.1" stroke="#000000" stroke-width="1" x1="130" y1="239" x2="1003" y2="239"/>
<line opacity="0.1" stroke="#000000" stroke-width="1" x1="130" y1="230" x2="1003" y2="230"/>
<line opacity="0.1" stroke="#000000" stroke-width="1" x1="130" y1="221" x2="1003" y2="221"/>
<line opacity="0.1" stroke="#000000" stroke-width="1" x1="130" y1="212" x2="1003" y2="212"/>
<line opacity="0.1" stroke="#000000" stroke-width="1" x1="130" y1="202" x2="1003" y2="202"/>
<line opacity="0.1" stroke="#000000" stroke-width="1" x1="130" y1="193" x2="1003" y2="193"/>
<line opacity="0.1" stroke="#000000" stroke-width="1" x1="130" y1="184" x2="1003" y2="184"/>
<line opacity="0.1" stroke="#000000" stroke-width="1" x1="130" y1="175" x2="1003" y2="175"/>
<line opacity="0.1" stroke="#000000" stroke-width="1" x1="130" y1="166" x2="1003" y2="166"/>
<line opacity="0.1" stroke="#000000" stroke-width="1" x1="130" y1="157" x2="1003" y2="157"/>
<line opacity="0.1" stroke="#000000" stroke-width="1" x1="130" y1="148" x2="1003" y2="148"/>
<line opacity="0.1" stroke="#000000" stroke-width="1" x1="130" y1="139" x2="1003" y2="139"/>
<line opacity="0.1" stroke="#000000" stroke-width="1" x1="130" y1="130" x2="1003" y2="130"/>
<line opacity="0.1" stroke="#000000" stroke-width="1" x1="130" y1="121" x2="1003" y2="121"/>
<line opacity="0.1" stroke="#000000" stroke-width="1" x1="130" y1="111" x2="1003" y2="111"/>
<line opacity="0.1" stroke="#000000" stroke-width="1" x1="130" y1="102" x2="1003" y2="102"/>
<line opacity="0.1" stroke="#000000" stroke-width="1" x1="130" y1="93" x2="1003" y2="93"/>
<line opacity="0.1" stroke="#000000" stroke-width="1" x1="130" y1="84" x2="1003" y2="84"/>
<line opacity="0.1" stroke="#000000" stroke-width="1" x1="130" y1="75" x2="1003" y2="75"/>
<line opacity="0.1" stroke="#000000" stroke-width="1" x1="130" y1="66" x2="1003" y2="66"/>
<line opacity="0.1" stroke="#000000" stroke-width="1" x1="130" y1="57" x2="1003" y2="57"/>
<line opacity="0.1" stroke="#000000" stroke-width="1" x1="130" y1="48" x2="1003" y2="48"/>
<line opacity="0.1" stroke="#000000" stroke-width="1" x1="130" y1="39" x2="1003" y2="39"/>
<line opacity="0.1" stroke="#000000" stroke-width="1" x1="130" y1="30" x2="1003" y2="30"/>
<line opacity="0.1" stroke="#000000" stroke-width="1" x1="130" y1="20" x2="1003" y2="20"/>
<text x="20" y="339" dy="0.76em" text-anchor="middle" font-family="sans-serif" font-size="24.193548387096776" opacity="1" fill="#000000" transform="rotate(270, 20, 339)">
Power [dB]
</text>
<text x="567" y="748" dy="-0.5ex" text-anchor="middle" font-family="sans-serif" font-size="24.193548387096776" opacity="1" fill="#000000">
Frequency [Hz]
</text>
<line opacity="0.2" stroke="#000000" stroke-width="1" x1="130" y1="657" x2="130" y2="20"/>
<line opacity="0.2" stroke="#000000" stroke-width="1" x1="239" y1="657" x2="239" y2="20"/>
<line opacity="0.2" stroke="#000000" stroke-width="1" x1="348" y1="657" x2="348" y2="20"/>
<line opacity="0.2" stroke="#000000" stroke-width="1" x1="457" y1="657" x2="457" y2="20"/>
<line opacity="0.2" stroke="#000000" stroke-width="1" x1="566" y1="657" x2="566" y2="20"/>
<line opacity="0.2" stroke="#000000" stroke-width="1" x1="675" y1="657" x2="675" y2="20"/>
<line opacity="0.2" stroke="#000000" stroke-width="1" x1="784" y1="657" x2="784" y2="20"/>
<line opacity="0.2" stroke="#000000" stroke-width="1" x1="893" y1="657" x2="893" y2="20"/>
<line opacity="0.2" stroke="#000000" stroke-width="1" x1="1003" y1="657" x2="1003" y2="20"/>
<line opacity="0.2" stroke="#000000" stroke-width="1" x1="130" y1="657" x2="1003" y2="657"/>
<line opacity="0.2" stroke="#000000" stroke-width="1" x1="130" y1="566" x2="1003" y2="566"/>
<line opacity="0.2" stroke="#000000" stroke-width="1" x1="130" y1="475" x2="1003" y2="475"/>
<line opacity="0.2" stroke="#000000" stroke-width="1" x1="130" y1="384" x2="1003" y2="384"/>
<line opacity="0.2" stroke="#000000" stroke-width="1" x1="130" y1="293" x2="1003" y2="293"/>
<line opacity="0.2" stroke="#000000" stroke-width="1" x1="130" y1="202" x2="1003" y2="202"/>
<line opacity="0.2" stroke="#000000" stroke-width="1" x1="130" y1="111" x2="1003" y2="111"/>
<line opacity="0.2" stroke="#000000" stroke-width="1" x1="130" y1="20" x2="1003" y2="20"/>
<polyline fill="none" opacity="1" stroke="#000000" stroke-width="1" points="129,20 129,657 "/>
<text x="120" y="657" dy="0.5ex" text-anchor="end" font-family="sans-serif" font-size="24.193548387096776" opacity="1" fill="#000000">
-100.0
</text>
<polyline fill="none" opacity="1" stroke="#000000" stroke-width="1" points="124,657 129,657 "/>
<text x="120" y="566" dy="0.5ex" text-anchor="end" font-family="sans-serif" font-size="24.193548387096776" opacity="1" fill="#000000">
-80.0
</text>
<polyline fill="none" opacity="1" stroke="#000000" stroke-width="1" points="124,566 129,566 "/>
<text x="120" y="475" dy="0.5ex" text-anchor="end" font-family="sans-serif" font-size="24.193548387096776" opacity="1" fill="#000000">
-60.0
</text>
<polyline fill="none" opacity="1" stroke="#000000" stroke-width="1" points="124,475 129,475 "/>
<text x="120" y="384" dy="0.5ex" text-anchor="end" font-family="sans-serif" font-size="24.193548387096776" opacity="1" fill="#000000">
-40.0
</text>
<polyline fill="none" opacity="1" stroke="#000000" stroke-width="1" points="124,384 129,384 "/>
<text x="120" y="293" dy="0.5ex" text-anchor="end" font-family="sans-serif" font-size="24.193548387096776" opacity="1" fill="#000000">
-20.0
</text>
<polyline fill="none" opacity="1" stroke="#000000" stroke-width="1" points="124,293 129,293 "/>
<text x="120" y="202" dy="0.5ex" text-anchor="end" font-family="sans-serif" font-size="24.193548387096776" opacity="1" fill="#000000">
0.0
</text>
<polyline fill="none" opacity="1" stroke="#000000" stroke-width="1" points="124,202 129,202 "/>
<text x="120" y="111" dy="0.5ex" text-anchor="end" font-family="sans-serif" font-size="24.193548387096776" opacity="1" fill="#000000">
20.0
</text>
<polyline fill="none" opacity="1" stroke="#000000" stroke-width="1" points="124,111 129,111 "/>
<text x="120" y="20" dy="0.5ex" text-anchor="end" font-family="sans-serif" font-size="24.193548387096776" opacity="1" fill="#000000">
40.0
</text>
<polyline fill="none" opacity="1" stroke="#000000" stroke-width="1" points="124,20 129,20 "/>
<polyline fill="none" opacity="1" stroke="#000000" stroke-width="1" points="130,658 1003,658 "/>
<text x="130" y="668" dy="0.76em" text-anchor="middle" font-family="sans-serif" font-size="24.193548387096776" opacity="1" fill="#000000">
0.0
</text>
<polyline fill="none" opacity="1" stroke="#000000" stroke-width="1" points="130,658 130,663 "/>
<text x="239" y="668" dy="0.76em" text-anchor="middle" font-family="sans-serif" font-size="24.193548387096776" opacity="1" fill="#000000">
1000.0
</text>
<polyline fill="none" opacity="1" stroke="#000000" stroke-width="1" points="239,658 239,663 "/>
<text x="348" y="668" dy="0.76em" text-anchor="middle" font-family="sans-serif" font-size="24.193548387096776" opacity="1" fill="#000000">
2000.0
</text>
<polyline fill="none" opacity="1" stroke="#000000" stroke-width="1" points="348,658 348,663 "/>
<text x="457" y="668" dy="0.76em" text-anchor="middle" font-family="sans-serif" font-size="24.193548387096776" opacity="1" fill="#000000">
3000.0
</text>
<polyline fill="none" opacity="1" stroke="#000000" stroke-width="1" points="457,658 457,663 "/>
<text x="566" y="668" dy="0.76em" text-anchor="middle" font-family="sans-serif" font-size="24.193548387096776" opacity="1" fill="#000000">
4000.0
</text>
<polyline fill="none" opacity="1" stroke="#000000" stroke-width="1" points="566,658 566,663 "/>
<text x="675" y="668" dy="0.76em" text-anchor="middle" font-family="sans-serif" font-size="24.193548387096776" opacity="1" fill="#000000">
5000.0
</text>
<polyline fill="none" opacity="1" stroke="#000000" stroke-width="1" points="675,658 675,663 "/>
<text x="784" y="668" dy="0.76em" text-anchor="middle" font-family="sans-serif" font-size="24.193548387096776" opacity="1" fill="#000000">
6000.0
</text>
<polyline fill="none" opacity="1" stroke="#000000" stroke-width="1" points="784,658 784,663 "/>
<text x="893" y="668" dy="0.76em" text-anchor="middle" font-family="sans-serif" font-size="24.193548387096776" opacity="1" fill="#000000">
7000.0
</text>
<polyline fill="none" opacity="1" stroke="#000000" stroke-width="1" points="893,658 893,663 "/>
<text x="1003" y="668" dy="0.76em" text-anchor="middle" font-family="sans-serif" font-size="24.193548387096776" opacity="1" fill="#000000">
8000.0
</text>
<polyline fill="none" opacity="1" stroke="#000000" stroke-width="1" points="1003,658 1003,663 "/>
<polyline fill="none" opacity="1" stroke="#E6194B" stroke-width="1" points="130,303 131,305 133,295 134,285 136,283 137,295 139,281 140,245 142,289 143,197 145,152 146,163 148,209 149,175 151,198 152,191 154,190 155,229 157,205 158,137 160,98 161,102 163,179 164,190 166,281 167,313 169,237 170,273 172,265 173,274 175,182 176,195 178,227 180,190 181,194 183,194 184,199 186,197 187,168 189,185 190,82 192,54 193,85 195,192 196,202 198,229 199,264 201,244 202,297 204,193 205,148 207,186 208,214 210,169 211,195 213,183 214,200 216,197 217,136 219,136 220,91 222,69 223,118 225,204 227,164 228,204 230,247 231,306 233,261 234,285 236,226 237,180 239,187 240,222 242,385 243,282 245,198 246,197 248,219 249,158 251,178 252,120 254,105 255,127 257,232 258,278 260,317 261,281 263,248 264,264 266,253 267,242 269,203 270,212 272,266 273,249 275,173 277,175 278,151 280,192 281,149 283,147 284,118 286,157 287,186 289,191 290,260 292,194 293,182 295,325 296,232 298,201 299,213 301,183 302,307 304,176 305,203 307,130 308,208 310,90 311,190 313,63 314,35 316,38 317,71 319,112 320,159 322,159 324,281 325,150 327,174 328,113 330,97 331,98 333,131 334,159 336,341 337,167 339,123 340,191 342,127 343,153 345,88 346,58 348,80 349,142 351,162 352,174 354,212 355,289 357,378 358,262 360,266 361,241 363,211 364,239 366,298 367,248 369,175 370,239 372,179 374,194 375,112 377,77 378,88 380,141 381,224 383,202 384,238 386,262 387,319 389,363 390,188 392,170 393,124 395,164 396,211 398,309 399,279 401,162 402,128 404,156 405,250 407,188 408,127 410,112 411,219 413,176 414,200 416,177 417,315 419,183 421,284 422,156 424,151 425,160 427,213 428,179 430,221 431,170 433,254 434,233 436,185 437,176 439,231 440,154 442,179 443,261 445,240 446,236 448,362 449,256 451,250 452,257 454,292 455,372 457,307 458,345 460,222 461,291 463,219 464,279 466,283 467,245 469,149 471,117 472,135 474,175 475,204 477,272 478,257 480,269 481,225 483,264 484,217 486,182 487,189 489,178 490,250 492,195 493,320 495,251 496,186 498,185 499,237 501,150 502,162 504,251 505,262 507,328 508,286 510,296 511,404 513,257 514,296 516,240 518,299 519,408 521,368 522,380 524,330 525,336 527,306 528,264 530,333 531,195 533,189 534,212 536,253 537,248 539,218 540,246 542,313 543,406 545,355 546,360 548,341 549,345 551,342 552,321 554,280 555,317 557,307 558,340 560,274 561,404 563,264 564,322 566,248 568,242 569,247 571,460 572,340 574,248 575,272 577,377 578,377 580,371 581,262 583,265 584,325 586,355 587,352 589,382 590,365 592,301 593,315 595,345 596,430 598,365 599,430 601,417 602,350 604,343 605,406 607,383 608,419 610,340 611,393 613,342 615,363 616,370 618,455 619,345 621,320 622,294 624,260 625,231 627,259 628,332 630,374 631,351 633,315 634,374 636,407 637,394 639,412 640,388 642,326 643,325 645,451 646,349 648,327 649,354 651,368 652,380 654,436 655,394 657,368 658,399 660,467 661,404 663,375 665,489 666,414 668,372 669,362 671,346 672,416 674,443 675,374 677,347 678,404 680,319 681,321 683,515 684,385 686,391 687,352 689,382 690,607 692,467 693,508 695,508 696,576 698,475 699,489 701,480 702,452 704,508 705,538 707,417 708,377 710,410 712,480 713,498 715,409 716,457 718,612 719,550 721,495 722,572 724,566 725,547 727,658 728,551 730,544 731,551 733,658 734,487 736,462 737,493 739,538 740,488 742,522 743,491 745,516 746,421 748,478 749,384 751,360 752,341 754,488 755,425 757,605 758,463 760,452 762,430 763,444 765,468 766,470 768,475 769,522 771,502 772,489 774,527 775,530 777,526 778,587 780,548 781,580 783,529 784,491 786,492 787,513 789,570 790,507 792,557 793,484 795,467 796,471 798,534 799,480 801,570 802,474 804,490 805,418 807,436 809,391 810,398 812,544 813,535 815,588 816,486 818,476 819,383 821,346 822,357 824,440 825,466 827,561 828,564 830,529 831,514 833,646 834,619 836,523 837,457 839,380 840,349 842,355 843,402 845,407 846,364 848,370 849,442 851,500 852,511 854,557 855,581 857,653 859,581 860,537 862,530 863,553 865,537 866,549 868,531 869,516 871,552 872,658 874,504 875,468 877,476 878,545 880,516 881,567 883,519 884,516 886,525 887,530 889,516 890,404 892,356 893,365 895,509 896,442 898,517 899,550 901,516 902,658 904,495 906,484 907,494 909,572 910,503 912,556 913,516 915,477 916,469 918,392 919,367 921,392 922,497 924,468 925,501 927,490 928,470 930,555 931,394 933,367 934,389 936,519 937,493 939,471 940,537 942,477 943,491 945,536 946,531 948,484 949,536 951,489 952,607 954,543 956,471 957,451 959,492 960,501 962,509 963,501 965,482 966,507 968,524 969,572 971,554 972,539 974,540 975,572 977,590 978,594 980,566 981,587 983,523 984,514 986,520 987,576 989,581 990,527 992,468 993,452 995,527 996,500 998,518 999,557 1001,558 1003,539 1004,558 1004,557 1004,518 1004,500 1004,527 1004,452 1004,468 1004,527 1004,581 1004,576 1004,520 1004,514 1004,523 1004,587 1004,566 1004,594 1004,590 1004,572 1004,540 1004,539 1004,554 1004,572 1004,524 1004,507 1004,482 1004,501 1004,509 1004,501 1004,492 1004,451 1004,471 1004,543 1004,607 1004,489 1004,536 1004,484 1004,531 1004,536 1004,491 1004,477 1004,537 1004,471 1004,493 1004,519 1004,389 1004,367 1004,394 1004,555 1004,470 1004,490 1004,501 1004,468 1004,497 1004,392 1004,367 1004,392 1004,469 1004,477 1004,516 1004,556 1004,503 1004,572 1004,494 1004,484 1004,495 1004,658 1004,516 1004,550 1004,517 1004,442 1004,509 1004,365 1004,356 1004,404 1004,516 1004,530 1004,525 1004,516 1004,519 1004,567 1004,516 1004,545 1004,476 1004,468 1004,504 1004,658 1004,552 1004,516 1004,531 1004,549 1004,537 1004,553 1004,530 1004,537 1004,581 1004,653 1004,581 1004,557 1004,511 1004,500 1004,442 1004,370 1004,364 1004,407 1004,402 1004,355 1004,349 1004,380 1004,457 1004,523 1004,619 1004,646 1004,514 1004,529 1004,564 1004,561 1004,466 1004,440 1004,357 1004,346 1004,383 1004,476 1004,486 1004,588 1004,535 1004,544 1004,398 1004,391 1004,436 1004,418 1004,490 1004,474 1004,570 1004,480 1004,534 1004,471 1004,467 1004,484 1004,557 1004,507 1004,570 1004,513 1004,492 1004,491 1004,529 1004,580 1004,548 1004,587 1004,526 1004,530 1004,527 1004,489 1004,502 1004,522 1004,475 1004,470 1004,468 1004,444 1004,430 1004,452 1004,463 1004,605 1004,425 1004,488 1004,341 1004,360 1004,384 1004,478 1004,421 1004,516 1004,491 1004,522 1004,488 1004,538 1004,493 1004,462 1004,487 1004,658 1004,551 1004,544 1004,551 1004,658 1004,547 1004,566 1004,572 1004,495 1004,550 1004,612 1004,457 1004,409 1004,498 1004,480 1004,410 1004,377 1004,417 1004,538 1004,508 1004,452 1004,480 1004,489 1004,475 1004,576 1004,508 1004,508 1004,467 1004,607 1004,382 1004,352 1004,391 1004,385 1004,515 1004,321 1004,319 1004,404 1004,347 1004,374 1004,443 1004,416 1004,346 1004,362 1004,372 1004,414 1004,489 1004,375 1004,404 1004,467 1004,399 1004,368 1004,394 1004,436 1004,380 1004,368 1004,354 1004,327 1004,349 1004,451 1004,325 1004,326 1004,388 1004,412 1004,394 1004,407 1004,374 1004,315 1004,351 1004,374 1004,332 1004,259 1004,231 1004,260 1004,294 1004,320 1004,345 1004,455 1004,370 1004,363 1004,342 1004,393 1004,340 1004,419 1004,383 1004,406 1004,343 1004,350 1004,417 1004,430 1004,365 1004,430 1004,345 1004,315 1004,301 1004,365 1004,382 1004,352 1004,355 1004,325 1004,265 1004,262 1004,371 1004,377 1004,377 1004,272 1004,248 1004,340 1004,460 1004,247 1004,242 1004,248 1004,322 1004,264 1004,404 1004,274 1004,340 1004,307 1004,317 1004,280 1004,321 1004,342 1004,345 1004,341 1004,360 1004,355 1004,406 1004,313 1004,246 1004,218 1004,248 1004,253 1004,212 1004,189 1004,195 1004,333 1004,264 1004,306 1004,336 1004,330 1004,380 1004,368 1004,408 1004,299 1004,240 1004,296 1004,257 1004,404 1004,296 1004,286 1004,328 1004,262 1004,251 1004,162 1004,150 1004,237 1004,185 1004,186 1004,251 1004,320 1004,195 1004,250 1004,178 1004,189 1004,182 1004,217 1004,264 1004,225 1004,269 1004,257 1004,272 1004,204 1004,175 1004,135 1004,117 1004,149 1004,245 1004,283 1004,279 1004,219 1004,291 1004,222 1004,345 1004,307 1004,372 1004,292 1004,257 1004,250 1004,256 1004,362 1004,236 1004,240 1004,261 1004,179 1004,154 1004,231 1004,176 1004,185 1004,233 1004,254 1004,170 1004,221 1004,179 1004,213 1004,160 1004,151 1004,156 1004,284 1004,183 1004,315 1004,177 1004,200 1004,176 1004,219 1004,112 1004,127 1004,188 1004,250 1004,156 1004,128 1004,162 1004,279 1004,309 1004,211 1004,164 1004,124 1004,170 1004,188 1004,363 1004,319 1004,262 1004,238 1004,202 1004,224 1004,141 1004,88 1004,77 1004,112 1004,194 1004,179 1004,239 1004,175 1004,248 1004,298 1004,239 1004,211 1004,241 1004,266 1004,262 1004,378 1004,289 1004,212 1004,174 1004,162 1004,142 1004,80 1004,58 1004,88 1004,153 1004,127 1004,191 1004,123 1004,167 1004,341 1004,159 1004,131 1004,98 1004,97 1004,113 1004,174 1004,150 1004,281 1004,159 1004,159 1004,112 1004,71 1004,38 1004,35 1004,63 1004,190 1004,90 1004,208 1004,130 1004,203 1004,176 1004,307 1004,183 1004,213 1004,201 1004,232 1004,325 1004,182 1004,194 1004,260 1004,191 1004,186 1004,157 1004,118 1004,147 1004,149 1004,192 1004,151 1004,175 1004,173 1004,249 1004,266 1004,212 1004,203 1004,242 1004,253 1004,264 1004,248 1004,281 1004,317 1004,278 1004,232 1004,127 1004,105 1004,120 1004,178 1004,158 1004,219 1004,197 1004,198 1004,282 1004,385 1004,222 1004,187 1004,180 1004,226 1004,285 1004,261 1004,306 1004,247 1004,204 1004,164 1004,204 1004,118 1004,69 1004,91 1004,136 1004,136 1004,197 1004,200 1004,183 1004,195 1004,169 1004,214 1004,186 1004,148 1004,193 1004,297 1004,244 1004,264 1004,229 1004,202 1004,192 1004,85 1004,54 1004,82 1004,185 1004,168 1004,197 1004,199 1004,194 1004,194 1004,190 1004,227 1004,195 1004,182 1004,274 1004,265 1004,273 1004,237 1004,313 1004,281 1004,190 1004,179 1004,102 1004,98 1004,137 1004,205 1004,229 1004,190 1004,191 1004,198 1004,175 1004,209 1004,163 1004,152 1004,197 1004,289 1004,245 1004,281 1004,295 1004,283 1004,285 1004,295 1004,305 "/>
<polyline fill="none" opacity="1" stroke="#3CB44B" stroke-width="1" points="130,297 131,297 133,297 134,296 136,295 137,295 139,294 140,292 142,291 143,290 145,288 146,287 148,285 149,284 151,282 152,280 154,279 155,277 157,276 158,275 160,273 161,272 163,271 164,270 166,269 167,269 169,268 170,267 172,267 173,267 175,266 176,266 178,266 180,266 181,265 183,265 184,265 186,265 187,265 189,265 190,265 192,264 193,264 195,264 196,264 198,263 199,263 201,263 202,263 204,262 205,262 207,262 208,262 210,262 211,262 213,262 214,262 216,262 217,262 219,263 220,263 222,264 223,265 225,266 227,266 228,267 230,268 231,270 233,271 234,272 236,273 237,274 239,275 240,276 242,278 243,279 245,279 246,280 248,281 249,282 251,282 252,282 254,283 255,283 257,283 258,283 260,283 261,282 263,282 264,281 266,281 267,280 269,280 270,279 272,278 273,277 275,276 277,275 278,274 280,273 281,272 283,271 284,270 286,269 287,268 289,267 290,266 292,265 293,264 295,263 296,262 298,260 299,259 301,258 302,256 304,255 305,254 307,252 308,251 310,250 311,248 313,247 314,246 316,245 317,244 319,243 320,242 322,241 324,241 325,240 327,240 328,240 330,240 331,240 333,241 334,242 336,243 337,244 339,245 340,247 342,248 343,250 345,252 346,254 348,256 349,259 351,261 352,263 354,266 355,268 357,270 358,272 360,274 361,276 363,277 364,279 366,280 367,281 369,282 370,282 372,283 374,283 375,283 377,282 378,282 380,281 381,280 383,279 384,278 386,276 387,275 389,274 390,272 392,270 393,269 395,268 396,266 398,265 399,264 401,263 402,262 404,261 405,261 407,261 408,260 410,261 411,261 413,261 414,262 416,263 417,264 419,266 421,267 422,269 424,270 425,272 427,274 428,276 430,278 431,280 433,282 434,284 436,285 437,287 439,289 440,290 442,292 443,293 445,294 446,295 448,296 449,296 451,296 452,297 454,297 455,296 457,296 458,296 460,295 461,294 463,293 464,292 466,291 467,290 469,289 471,287 472,286 474,285 475,284 477,283 478,282 480,281 481,281 483,280 484,280 486,280 487,280 489,280 490,281 492,281 493,282 495,283 496,285 498,286 499,288 501,290 502,292 504,294 505,297 507,299 508,302 510,304 511,307 513,309 514,311 516,314 518,316 519,318 521,320 522,322 524,323 525,324 527,325 528,326 530,327 531,327 533,327 534,327 536,327 537,326 539,326 540,325 542,324 543,323 545,322 546,322 548,321 549,320 551,319 552,318 554,318 555,318 557,318 558,318 560,318 561,319 563,319 564,320 566,322 568,323 569,325 571,326 572,328 574,330 575,333 577,335 578,337 580,339 581,341 583,344 584,346 586,347 587,349 589,351 590,352 592,353 593,354 595,355 596,355 598,355 599,355 601,355 602,354 604,353 605,352 607,351 608,350 610,349 611,348 613,347 615,345 616,344 618,343 619,342 621,342 622,341 624,341 625,340 627,341 628,341 630,341 631,342 633,343 634,344 636,345 637,347 639,348 640,350 642,352 643,354 645,355 646,357 648,359 649,360 651,362 652,363 654,365 655,366 657,367 658,368 660,368 661,369 663,369 665,370 666,370 668,370 669,370 671,370 672,370 674,371 675,371 677,371 678,372 680,373 681,374 683,375 684,376 686,378 687,380 689,382 690,384 692,387 693,390 695,393 696,397 698,400 699,404 701,407 702,411 704,414 705,418 707,421 708,425 710,428 712,431 713,433 715,435 716,437 718,439 719,440 721,440 722,440 724,440 725,440 727,439 728,437 730,436 731,434 733,432 734,429 736,427 737,424 739,422 740,419 742,416 743,414 745,411 746,409 748,407 749,406 751,404 752,403 754,403 755,402 757,402 758,402 760,403 762,404 763,405 765,407 766,409 768,411 769,413 771,415 772,417 774,419 775,421 777,424 778,426 780,427 781,429 783,430 784,431 786,432 787,432 789,432 790,432 792,432 793,431 795,430 796,428 798,427 799,425 801,423 802,420 804,418 805,416 807,413 809,411 810,409 812,406 813,404 815,403 816,401 818,399 819,398 821,397 822,397 824,396 825,396 827,396 828,397 830,398 831,399 833,400 834,402 836,403 837,405 839,407 840,409 842,411 843,413 845,415 846,417 848,419 849,421 851,423 852,425 854,426 855,428 857,429 859,430 860,431 862,432 863,433 865,433 866,433 868,434 869,434 871,433 872,433 874,433 875,432 877,432 878,431 880,431 881,430 883,429 884,428 886,428 887,427 889,426 890,425 892,424 893,423 895,422 896,421 898,420 899,419 901,418 902,417 904,416 906,415 907,414 909,413 910,412 912,411 913,410 915,409 916,408 918,407 919,406 921,406 922,405 924,405 925,404 927,404 928,404 930,404 931,404 933,405 934,405 936,406 937,407 939,408 940,410 942,411 943,413 945,414 946,416 948,418 949,420 951,422 952,424 954,426 956,428 957,430 959,431 960,433 962,435 963,436 965,437 966,439 968,440 969,440 971,441 972,441 974,442 975,442 977,442 978,442 980,441 981,441 983,440 984,440 986,439 987,438 989,437 990,437 992,436 993,435 995,435 996,434 998,434 999,433 1001,433 1003,433 1004,433 1004,433 1004,434 1004,434 1004,435 1004,435 1004,436 1004,437 1004,437 1004,438 1004,439 1004,440 1004,440 1004,441 1004,441 1004,442 1004,442 1004,442 1004,442 1004,441 1004,441 1004,440 1004,440 1004,439 1004,437 1004,436 1004,435 1004,433 1004,431 1004,430 1004,428 1004,426 1004,424 1004,422 1004,420 1004,418 1004,416 1004,414 1004,413 1004,411 1004,410 1004,408 1004,407 1004,406 1004,405 1004,405 1004,404 1004,404 1004,404 1004,404 1004,404 1004,405 1004,405 1004,406 1004,406 1004,407 1004,408 1004,409 1004,410 1004,411 1004,412 1004,413 1004,414 1004,415 1004,416 1004,417 1004,418 1004,419 1004,420 1004,421 1004,422 1004,423 1004,424 1004,425 1004,426 1004,427 1004,428 1004,428 1004,429 1004,430 1004,431 1004,431 1004,432 1004,432 1004,433 1004,433 1004,433 1004,434 1004,434 1004,433 1004,433 1004,433 1004,432 1004,431 1004,430 1004,429 1004,428 1004,426 1004,425 1004,423 1004,421 1004,419 1004,417 1004,415 1004,413 1004,411 1004,409 1004,407 1004,405 1004,403 1004,402 1004,400 1004,399 1004,398 1004,397 1004,396 1004,396 1004,396 1004,397 1004,397 1004,398 1004,399 1004,401 1004,403 1004,404 1004,406 1004,409 1004,411 1004,413 1004,416 1004,418 1004,420 1004,423 1004,425 1004,427 1004,428 1004,430 1004,431 1004,432 1004,432 1004,432 1004,432 1004,432 1004,431 1004,430 1004,429 1004,427 1004,426 1004,424 1004,421 1004,419 1004,417 1004,415 1004,413 1004,411 1004,409 1004,407 1004,405 1004,404 1004,403 1004,402 1004,402 1004,402 1004,403 1004,403 1004,404 1004,406 1004,407 1004,409 1004,411 1004,414 1004,416 1004,419 1004,422 1004,424 1004,427 1004,429 1004,432 1004,434 1004,436 1004,437 1004,439 1004,440 1004,440 1004,440 1004,440 1004,440 1004,439 1004,437 1004,435 1004,433 1004,431 1004,428 1004,425 1004,421 1004,418 1004,414 1004,411 1004,407 1004,404 1004,400 1004,397 1004,393 1004,390 1004,387 1004,384 1004,382 1004,380 1004,378 1004,376 1004,375 1004,374 1004,373 1004,372 1004,371 1004,371 1004,371 1004,370 1004,370 1004,370 1004,370 1004,370 1004,370 1004,369 1004,369 1004,368 1004,368 1004,367 1004,366 1004,365 1004,363 1004,362 1004,360 1004,359 1004,357 1004,355 1004,354 1004,352 1004,350 1004,348 1004,347 1004,345 1004,344 1004,343 1004,342 1004,341 1004,341 1004,341 1004,340 1004,341 1004,341 1004,342 1004,342 1004,343 1004,344 1004,345 1004,347 1004,348 1004,349 1004,350 1004,351 1004,352 1004,353 1004,354 1004,355 1004,355 1004,355 1004,355 1004,355 1004,354 1004,353 1004,352 1004,351 1004,349 1004,347 1004,346 1004,344 1004,341 1004,339 1004,337 1004,335 1004,333 1004,330 1004,328 1004,326 1004,325 1004,323 1004,322 1004,320 1004,319 1004,319 1004,318 1004,318 1004,318 1004,318 1004,318 1004,318 1004,319 1004,320 1004,321 1004,322 1004,322 1004,323 1004,324 1004,325 1004,326 1004,326 1004,327 1004,327 1004,327 1004,327 1004,327 1004,326 1004,325 1004,324 1004,323 1004,322 1004,320 1004,318 1004,316 1004,314 1004,311 1004,309 1004,307 1004,304 1004,302 1004,299 1004,297 1004,294 1004,292 1004,290 1004,288 1004,286 1004,285 1004,283 1004,282 1004,281 1004,281 1004,280 1004,280 1004,280 1004,280 1004,280 1004,281 1004,281 1004,282 1004,283 1004,284 1004,285 1004,286 1004,287 1004,289 1004,290 1004,291 1004,292 1004,293 1004,294 1004,295 1004,296 1004,296 1004,296 1004,297 1004,297 1004,296 1004,296 1004,296 1004,295 1004,294 1004,293 1004,292 1004,290 1004,289 1004,287 1004,285 1004,284 1004,282 1004,280 1004,278 1004,276 1004,274 1004,272 1004,270 1004,269 1004,267 1004,266 1004,264 1004,263 1004,262 1004,261 1004,261 1004,261 1004,260 1004,261 1004,261 1004,261 1004,262 1004,263 1004,264 1004,265 1004,266 1004,268 1004,269 1004,270 1004,272 1004,274 1004,275 1004,276 1004,278 1004,279 1004,280 1004,281 1004,282 1004,282 1004,283 1004,283 1004,283 1004,282 1004,282 1004,281 1004,280 1004,279 1004,277 1004,276 1004,274 1004,272 1004,270 1004,268 1004,266 1004,263 1004,261 1004,259 1004,256 1004,254 1004,252 1004,250 1004,248 1004,247 1004,245 1004,244 1004,243 1004,242 1004,241 1004,240 1004,240 1004,240 1004,240 1004,240 1004,241 1004,241 1004,242 1004,243 1004,244 1004,245 1004,246 1004,247 1004,248 1004,250 1004,251 1004,252 1004,254 1004,255 1004,256 1004,258 1004,259 1004,260 1004,262 1004,263 1004,264 1004,265 1004,266 1004,267 1004,268 1004,269 1004,270 1004,271 1004,272 1004,273 1004,274 1004,275 1004,276 1004,277 1004,278 1004,279 1004,280 1004,280 1004,281 1004,281 1004,282 1004,282 1004,283 1004,283 1004,283 1004,283 1004,283 1004,282 1004,282 1004,282 1004,281 1004,280 1004,279 1004,279 1004,278 1004,276 1004,275 1004,274 1004,273 1004,272 1004,271 1004,270 1004,268 1004,267 1004,266 1004,266 1004,265 1004,264 1004,263 1004,263 1004,262 1004,262 1004,262 1004,262 1004,262 1004,262 1004,262 1004,262 1004,262 1004,262 1004,263 1004,263 1004,263 1004,263 1004,264 1004,264 1004,264 1004,264 1004,265 1004,265 1004,265 1004,265 1004,265 1004,265 1004,265 1004,266 1004,266 1004,266 1004,266 1004,267 1004,267 1004,267 1004,268 1004,269 1004,269 1004,270 1004,271 1004,272 1004,273 1004,275 1004,276 1004,277 1004,279 1004,280 1004,282 1004,284 1004,285 1004,287 1004,288 1004,290 1004,291 1004,292 1004,294 1004,295 1004,295 1004,296 1004,297 1004,297 "/>
<polyline fill="none" opacity="1" stroke="#FFE119" stroke-width="1" points="130,306 131,306 133,306 134,306 136,306 137,306 139,306 140,306 142,306 143,307 145,307 146,307 148,307 149,307 151,308 152,308 154,308 155,308 157,309 158,309 160,309 161,309 163,309 164,310 166,310 167,310 169,310 170,310 172,310 173,310 175,310 176,310 178,310 180,310 181,310 183,310 184,310 186,310 187,310 189,310 190,310 192,310 193,310 195,310 196,310 198,310 199,310 201,310 202,310 204,310 205,310 207,310 208,310 210,310 211,310 213,310 214,310 216,310 217,310 219,310 220,311 222,311 223,311 225,311 227,311 228,311 230,311 231,311 233,311 234,311 236,311 237,311 239,311 240,311 242,311 243,311 245,311 246,311 248,311 249,311 251,310 252,310 254,310 255,310 257,310 258,310 260,310 261,310 263,310 264,310 266,310 267,310 269,310 270,310 272,310 273,310 275,310 277,310 278,310 280,310 281,310 283,310 284,310 286,310 287,310 289,310 290,310 292,310 293,310 295,310 296,310 298,310 299,310 301,310 302,310 304,310 305,310 307,310 308,311 310,311 311,311 313,311 314,311 316,311 317,311 319,311 320,311 322,311 324,311 325,311 327,311 328,311 330,311 331,311 333,311 334,311 336,311 337,311 339,312 340,312 342,312 343,312 345,312 346,312 348,312 349,312 351,312 352,312 354,312 355,312 357,312 358,312 360,312 361,312 363,312 364,312 366,312 367,312 369,312 370,312 372,312 374,312 375,312 377,312 378,312 380,312 381,312 383,312 384,312 386,312 387,312 389,312 390,312 392,312 393,312 395,312 396,312 398,312 399,312 401,312 402,312 404,312 405,312 407,312 408,311 410,311 411,311 413,311 414,311 416,311 417,311 419,311 421,311 422,312 424,312 425,312 427,312 428,312 430,312 431,312 433,312 434,313 436,313 437,313 439,313 440,313 442,313 443,313 445,313 446,314 448,314 449,314 451,314 452,314 454,314 455,314 457,313 458,313 460,313 461,313 463,313 464,313 466,313 467,312 469,312 471,312 472,312 474,312 475,312 477,312 478,311 480,311 481,311 483,311 484,311 486,311 487,311 489,311 490,311 492,310 493,310 495,310 496,310 498,310 499,310 501,310 502,310 504,309 505,309 507,309 508,309 510,309 511,308 513,308 514,308 516,308 518,308 519,307 521,307 522,307 524,307 525,307 527,307 528,307 530,306 531,306 533,306 534,306 536,306 537,306 539,306 540,306 542,305 543,305 545,305 546,304 548,304 549,303 551,302 552,301 554,300 555,299 557,298 558,297 560,296 561,295 563,294 564,293 566,292 568,292 569,292 571,292 572,292 574,294 575,295 577,297 578,300 580,302 581,305 583,309 584,312 586,316 587,319 589,322 590,326 592,329 593,332 595,335 596,338 598,340 599,342 601,344 602,346 604,347 605,348 607,349 608,350 610,350 611,350 613,349 615,348 616,347 618,345 619,343 621,340 622,337 624,333 625,329 627,324 628,319 630,313 631,308 633,303 634,301 636,300 637,303 639,309 640,317 642,327 643,337 645,346 646,356 648,365 649,374 651,382 652,389 654,397 655,403 657,410 658,416 660,421 661,426 663,431 665,436 666,440 668,445 669,448 671,452 672,456 674,459 675,462 677,465 678,468 680,470 681,472 683,475 684,477 686,479 687,480 689,482 690,484 692,485 693,486 695,488 696,489 698,490 699,491 701,491 702,492 704,493 705,493 707,494 708,494 710,495 712,495 713,496 715,496 716,496 718,497 719,497 721,498 722,498 724,498 725,499 727,500 728,500 730,501 731,502 733,503 734,503 736,504 737,506 739,507 740,508 742,509 743,510 745,512 746,513 748,514 749,516 751,517 752,519 754,520 755,521 757,523 758,524 760,525 762,526 763,527 765,528 766,529 768,530 769,531 771,532 772,532 774,533 775,533 777,533 778,534 780,534 781,534 783,533 784,533 786,532 787,532 789,531 790,530 792,529 793,527 795,526 796,524 798,522 799,519 801,517 802,514 804,510 805,507 807,503 809,498 810,493 812,488 813,482 815,476 816,469 818,461 819,454 821,446 822,440 824,437 825,436 827,439 828,446 830,454 831,464 833,473 834,482 836,491 837,499 839,506 840,514 842,520 843,526 845,532 846,537 848,542 849,546 851,551 852,555 854,558 855,562 857,565 859,568 860,570 862,573 863,575 865,577 866,579 868,580 869,582 871,583 872,584 874,585 875,586 877,586 878,586 880,586 881,586 883,586 884,585 886,585 887,584 889,582 890,581 892,579 893,577 895,575 896,572 898,570 899,566 901,563 902,559 904,555 906,550 907,545 909,540 910,534 912,529 913,523 915,518 916,515 918,513 919,513 921,516 922,521 924,527 925,534 927,542 928,550 930,557 931,565 933,572 934,578 936,585 937,590 939,596 940,601 942,606 943,611 945,615 946,620 948,624 949,627 951,631 952,634 954,638 956,641 957,643 959,646 960,649 962,651 963,654 965,656 966,658 968,658 969,658 971,658 972,658 974,658 975,658 977,658 978,658 980,658 981,658 983,658 984,658 986,658 987,658 989,658 990,658 992,658 993,658 995,658 996,658 998,658 999,658 1001,658 1003,658 "/>
<polyline fill="none" opacity="1" stroke="#0082C8" stroke-width="1" points="130,252 131,252 133,252 134,252 136,252 137,252 139,253 140,253 142,253 143,253 145,253 146,253 148,254 149,254 151,254 152,254 154,255 155,255 157,255 158,255 160,255 161,256 163,256 164,256 166,256 167,256 169,256 170,257 172,257 173,257 175,257 176,257 178,257 180,257 181,257 183,257 184,257 186,257 187,257 189,257 190,257 192,257 193,257 195,257 196,257 198,257 199,257 201,257 202,257 204,257 205,257 207,257 208,257 210,257 211,257 213,257 214,257 216,257 217,257 219,257 220,257 222,257 223,257 225,257 227,257 228,257 230,257 231,257 233,257 234,257 236,257 237,257 239,257 240,257 242,257 243,257 245,257 246,257 248,257 249,257 251,257 252,257 254,257 255,257 257,257 258,257 260,256 261,256 263,256 264,256 266,256 267,256 269,256 270,256 272,256 273,256 275,256 277,256 278,256 280,256 281,256 283,256 284,256 286,256 287,256 289,256 290,256 292,256 293,256 295,257 296,257 298,257 299,257 301,257 302,257 304,257 305,257 307,257 308,257 310,257 311,257 313,257 314,257 316,257 317,257 319,257 320,257 322,258 324,258 325,258 327,258 328,258 330,258 331,258 333,258 334,258 336,258 337,258 339,258 340,258 342,258 343,258 345,258 346,258 348,258 349,258 351,258 352,258 354,258 355,258 357,258 358,258 360,258 361,258 363,258 364,258 366,258 367,258 369,258 370,258 372,258 374,258 375,258 377,258 378,258 380,258 381,258 383,259 384,259 386,259 387,259 389,259 390,259 392,259 393,259 395,258 396,258 398,258 399,258 401,258 402,258 404,258 405,258 407,258 408,258 410,258 411,258 413,258 414,258 416,258 417,258 419,258 421,258 422,258 424,258 425,258 427,258 428,258 430,259 431,259 433,259 434,259 436,259 437,259 439,259 440,260 442,260 443,260 445,260 446,260 448,260 449,260 451,260 452,260 454,260 455,260 457,260 458,260 460,260 461,260 463,259 464,259 466,259 467,259 469,259 471,259 472,258 474,258 475,258 477,258 478,258 480,258 481,258 483,258 484,257 486,257 487,257 489,257 490,257 492,257 493,257 495,257 496,257 498,257 499,256 501,256 502,256 504,256 505,256 507,256 508,255 510,255 511,255 513,255 514,254 516,254 518,254 519,254 521,254 522,253 524,253 525,253 527,253 528,253 530,253 531,253 533,253 534,253 536,253 537,252 539,252 540,252 542,252 543,251 545,251 546,251 548,250 549,249 551,249 552,248 554,247 555,246 557,245 558,244 560,243 561,241 563,240 564,239 566,239 568,238 569,238 571,238 572,239 574,240 575,242 577,244 578,246 580,249 581,252 583,255 584,259 586,262 587,266 589,269 590,272 592,276 593,279 595,281 596,284 598,286 599,289 601,291 602,292 604,294 605,295 607,296 608,296 610,296 611,296 613,295 615,295 616,293 618,291 619,289 621,287 622,283 624,280 625,275 627,270 628,265 630,260 631,254 633,250 634,247 636,247 637,250 639,255 640,264 642,273 643,283 645,293 646,302 648,312 649,320 651,328 652,336 654,343 655,350 657,356 658,362 660,368 661,373 663,378 665,382 666,387 668,391 669,395 671,399 672,402 674,405 675,408 677,411 678,414 680,417 681,419 683,421 684,423 686,425 687,427 689,429 690,430 692,432 693,433 695,434 696,435 698,436 699,437 701,438 702,439 704,439 705,440 707,440 708,441 710,441 712,442 713,442 715,442 716,443 718,443 719,444 721,444 722,444 724,445 725,445 727,446 728,447 730,447 731,448 733,449 734,450 736,451 737,452 739,453 740,454 742,456 743,457 745,458 746,460 748,461 749,462 751,464 752,465 754,466 755,468 757,469 758,470 760,472 762,473 763,474 765,475 766,476 768,477 769,477 771,478 772,479 774,479 775,480 777,480 778,480 780,480 781,480 783,480 784,479 786,479 787,478 789,477 790,476 792,475 793,474 795,472 796,470 798,468 799,466 801,463 802,460 804,457 805,453 807,449 809,445 810,440 812,435 813,429 815,422 816,415 818,408 819,400 821,393 822,387 824,383 825,383 827,386 828,392 830,401 831,410 833,419 834,429 836,437 837,445 839,453 840,460 842,467 843,473 845,478 846,483 848,488 849,493 851,497 852,501 854,505 855,508 857,511 859,514 860,517 862,519 863,521 865,523 866,525 868,527 869,528 871,529 872,531 874,531 875,532 877,532 878,533 880,533 881,533 883,532 884,532 886,531 887,530 889,529 890,527 892,526 893,524 895,521 896,519 898,516 899,513 901,509 902,506 904,501 906,497 907,492 909,486 910,481 912,475 913,470 915,465 916,461 918,459 919,459 921,462 922,467 924,473 925,481 927,488 928,496 930,504 931,511 933,518 934,525 936,531 937,537 939,543 940,548 942,553 943,557 945,562 946,566 948,570 949,574 951,577 952,581 954,584 956,587 957,590 959,593 960,595 962,598 963,600 965,602 966,604 968,606 969,608 971,610 972,612 974,613 975,615 977,616 978,617 980,618 981,620 983,621 984,621 986,622 987,623 989,624 990,624 992,625 993,625 995,626 996,626 998,626 999,627 1001,627 1003,627 "/>
<rect x="655" y="260" width="344" height="157" opacity="0.8" fill="#FFFFFF" stroke="none"/>
<rect x="655" y="260" width="344" height="157" opacity="1" fill="none" stroke="#000000"/>
<text x="695" y="270" dy="0.76em" text-anchor="start" font-family="sans-serif" font-size="24.193548387096776" opacity="1" fill="#000000">
log_power
</text>
<text x="695" y="308" dy="0.76em" text-anchor="start" font-family="sans-serif" font-size="24.193548387096776" opacity="1" fill="#000000">
spectral_envelope
</text>
<text x="695" y="345" dy="0.76em" text-anchor="start" font-family="sans-serif" font-size="24.193548387096776" opacity="1" fill="#000000">
levinson_durbin_log_power
</text>
<text x="695" y="383" dy="0.76em" text-anchor="start" font-family="sans-serif" font-size="24.193548387096776" opacity="1" fill="#000000">
burg_log_power
</text>
<polyline fill="none" opacity="1" stroke="#E6194B" stroke-width="1" points="665,282 685,282 "/>
<polyline fill="none" opacity="1" stroke="#3CB44B" stroke-width="1" points="665,320 685,320 "/>
<polyline fill="none" opacity="1" stroke="#FFE119" stroke-width="1" points="665,357 685,357 "/>
<polyline fill="none" opacity="1" stroke="#0082C8" stroke-width="1" points="665,395 685,395 "/>
</svg>
