<svg width="1024" height="768" viewBox="0 0 1024 768" xmlns="http://www.w3.org/2000/svg">
<rect x="0" y="0" width="1024" height="768" opacity="1" fill="#FFFFFF" stroke="none"/>
<line opacity="0.1" stroke="#000000" stroke-width="1" x1="130" y1="657" x2="130" y2="20"/>
<line opacity="0.1" stroke="#000000" stroke-width="1" x1="140" y1="657" x2="140" y2="20"/>
<line opacity="0.1" stroke="#000000" stroke-width="1" x1="151" y1="657" x2="151" y2="20"/>
<line opacity="0.1" stroke="#000000" stroke-width="1" x1="162" y1="657" x2="162" y2="20"/>
<line opacity="0.1" stroke="#000000" stroke-width="1" x1="173" y1="657" x2="173" y2="20"/>
<line opacity="0.1" stroke="#000000" stroke-width="1" x1="184" y1="657" x2="184" y2="20"/>
<line opacity="0.1" stroke="#000000" stroke-width="1" x1="195" y1="657" x2="195" y2="20"/>
<line opacity="0.1" stroke="#000000" stroke-width="1" x1="206" y1="657" x2="206" y2="20"/>
<line opacity="0.1" stroke="#000000" stroke-width="1" x1="217" y1="657" x2="217" y2="20"/>
<line opacity="0.1" stroke="#000000" stroke-width="1" x1="228" y1="657" x2="228" y2="20"/>
<line opacity="0.1" stroke="#000000" stroke-width="1" x1="239" y1="657" x2="239" y2="20"/>
<line opacity="0.1" stroke="#000000" stroke-width="1" x1="250" y1="657" x2="250" y2="20"/>
<line opacity="0.1" stroke="#000000" stroke-width="1" x1="260" y1="657" x2="260" y2="20"/>
<line opacity="0.1" stroke="#000000" stroke-width="1" x1="271" y1="657" x2="271" y2="20"/>
<line opacity="0.1" stroke="#000000" stroke-width="1" x1="282" y1="657" x2="282" y2="20"/>
<line opacity="0.1" stroke="#000000" stroke-width="1" x1="293" y1="657" x2="293" y2="20"/>
<line opacity="0.1" stroke="#000000" stroke-width="1" x1="304" y1="657" x2="304" y2="20"/>
<line opacity="0.1" stroke="#000000" stroke-width="1" x1="315" y1="657" x2="315" y2="20"/>
<line opacity="0.1" stroke="#000000" stroke-width="1" x1="326" y1="657" x2="326" y2="20"/>
<line opacity="0.1" stroke="#000000" stroke-width="1" x1="337" y1="657" x2="337" y2="20"/>
<line opacity="0.1" stroke="#000000" stroke-width="1" x1="348" y1="657" x2="348" y2="20"/>
<line opacity="0.1" stroke="#000000" stroke-width="1" x1="359" y1="657" x2="359" y2="20"/>
<line opacity="0.1" stroke="#000000" stroke-width="1" x1="370" y1="657" x2="370" y2="20"/>
<line opacity="0.1" stroke="#000000" stroke-width="1" x1="380" y1="657" x2="380" y2="20"/>
<line opacity="0.1" stroke="#000000" stroke-width="1" x1="391" y1="657" x2="391" y2="20"/>
<line opacity="0.1" stroke="#000000" stroke-width="1" x1="402" y1="657" x2="402" y2="20"/>
<line opacity="0.1" stroke="#000000" stroke-width="1" x1="413" y1="657" x2="413" y2="20"/>
<line opacity="0.1" stroke="#000000" stroke-width="1" x1="424" y1="657" x2="424" y2="20"/>
<line opacity="0.1" stroke="#000000" stroke-width="1" x1="435" y1="657" x2="435" y2="20"/>
<line opacity="0.1" stroke="#000000" stroke-width="1" x1="446" y1="657" x2="446" y2="20"/>
<line opacity="0.1" stroke="#000000" stroke-width="1" x1="457" y1="657" x2="457" y2="20"/>
<line opacity="0.1" stroke="#000000" stroke-width="1" x1="468" y1="657" x2="468" y2="20"/>
<line opacity="0.1" stroke="#000000" stroke-width="1" x1="479" y1="657" x2="479" y2="20"/>
<line opacity="0.1" stroke="#000000" stroke-width="1" x1="490" y1="657" x2="490" y2="20"/>
<line opacity="0.1" stroke="#000000" stroke-width="1" x1="501" y1="657" x2="501" y2="20"/>
<line opacity="0.1" stroke="#000000" stroke-width="1" x1="511" y1="657" x2="511" y2="20"/>
<line opacity="0.1" stroke="#000000" stroke-width="1" x1="522" y1="657" x2="522" y2="20"/>
<line opacity="0.1" stroke="#000000" stroke-width="1" x1="533" y1="657" x2="533" y2="20"/>
<line opacity="0.1" stroke="#000000" stroke-width="1" x1="544" y1="657" x2="544" y2="20"/>
<line opacity="0.1" stroke="#000000" stroke-width="1" x1="555" y1="657" x2="555" y2="20"/>
<line opacity="0.1" stroke="#000000" stroke-width="1" x1="566" y1="657" x2="566" y2="20"/>
<line opacity="0.1" stroke="#000000" stroke-width="1" x1="577" y1="657" x2="577" y2="20"/>
<line opacity="0.1" stroke="#000000" stroke-width="1" x1="588" y1="657" x2="588" y2="20"/>
<line opacity="0.1" stroke="#000000" stroke-width="1" x1="599" y1="657" x2="599" y2="20"/>
<line opacity="0.1" stroke="#000000" stroke-width="1" x1="610" y1="657" x2="610" y2="20"/>
<line opacity="0.1" stroke="#000000" stroke-width="1" x1="621" y1="657" x2="621" y2="20"/>
<line opacity="0.1" stroke="#000000" stroke-width="1" x1="631" y1="657" x2="631" y2="20"/>
<line opacity="0.1" stroke="#000000" stroke-width="1" x1="642" y1="657" x2="642" y2="20"/>
<line opacity="0.1" stroke="#000000" stroke-width="1" x1="653" y1="657" x2="653" y2="20"/>
<line opacity="0.1" stroke="#000000" stroke-width="1" x1="664" y1="657" x2="664" y2="20"/>
<line opacity="0.1" stroke="#000000" stroke-width="1" x1="675" y1="657" x2="675" y2="20"/>
<line opacity="0.1" stroke="#000000" stroke-width="1" x1="686" y1="657" x2="686" y2="20"/>
<line opacity="0.1" stroke="#000000" stroke-width="1" x1="697" y1="657" x2="697" y2="20"/>
<line opacity="0.1" stroke="#000000" stroke-width="1" x1="708" y1="657" x2="708" y2="20"/>
<line opacity="0.1" stroke="#000000" stroke-width="1" x1="719" y1="657" x2="719" y2="20"/>
<line opacity="0.1" stroke="#000000" stroke-width="1" x1="730" y1="657" x2="730" y2="20"/>
<line opacity="0.1" stroke="#000000" stroke-width="1" x1="741" y1="657" x2="741" y2="20"/>
<line opacity="0.1" stroke="#000000" stroke-width="1" x1="752" y1="657" x2="752" y2="20"/>
<line opacity="0.1" stroke="#000000" stroke-width="1" x1="762" y1="657" x2="762" y2="20"/>
<line opacity="0.1" stroke="#000000" stroke-width="1" x1="773" y1="657" x2="773" y2="20"/>
<line opacity="0.1" stroke="#000000" stroke-width="1" x1="784" y1="657" x2="784" y2="20"/>
<line opacity="0.1" stroke="#000000" stroke-width="1" x1="795" y1="657" x2="795" y2="20"/>
<line opacity="0.1" stroke="#000000" stroke-width="1" x1="806" y1="657" x2="806" y2="20"/>
<line opacity="0.1" stroke="#000000" stroke-width="1" x1="817" y1="657" x2="817" y2="20"/>
<line opacity="0.1" stroke="#000000" stroke-width="1" x1="828" y1="657" x2="828" y2="20"/>
<line opacity="0.1" stroke="#000000" stroke-width="1" x1="839" y1="657" x2="839" y2="20"/>
<line opacity="0.1" stroke="#000000" stroke-width="1" x1="850" y1="657" x2="850" y2="20"/>
<line opacity="0.1" stroke="#000000" stroke-width="1" x1="861" y1="657" x2="861" y2="20"/>
<line opacity="0.1" stroke="#000000" stroke-width="1" x1="872" y1="657" x2="872" y2="20"/>
<line opacity="0.1" stroke="#000000" stroke-width="1" x1="882" y1="657" x2="882" y2="20"/>
<line opacity="0.1" stroke="#000000" stroke-width="1" x1="893" y1="657" x2="893" y2="20"/>
<line opacity="0.1" stroke="#000000" stroke-width="1" x1="904" y1="657" x2="904" y2="20"/>
<line opacity="0.1" stroke="#000000" stroke-width="1" x1="915" y1="657" x2="915" y2="20"/>
<line opacity="0.1" stroke="#000000" stroke-width="1" x1="926" y1="657" x2="926" y2="20"/>
<line opacity="0.1" stroke="#000000" stroke-width="1" x1="937" y1="657" x2="937" y2="20"/>
<line opacity="0.1" stroke="#000000" stroke-width="1" x1="948" y1="657" x2="948" y2="20"/>
<line opacity="0.1" stroke="#000000" stroke-width="1" x1="959" y1="657" x2="959" y2="20"/>
<line opacity="0.1" stroke="#000000" stroke-width="1" x1="970" y1="657" x2="970" y2="20"/>
<line opacity="0.1" stroke="#000000" stroke-width="1" x1="981" y1="657" x2="981" y2="20"/>
<line opacity="0.1" stroke="#000000" stroke-width="1" x1="992" y1="657" x2="992" y2="20"/>
<line opacity="0.1" stroke="#000000" stroke-width="1" x1="1003" y1="657" x2="1003" y2="20"/>
<line opacity="0.1" stroke="#000000" stroke-width="1" x1="130" y1="657" x2="1003" y2="657"/>
<line opacity="0.1" stroke="#000000" stroke-width="1" x1="130" y1="648" x2="1003" y2="648"/>
<line opacity="0.1" stroke="#000000" stroke-width="1" x1="130" y1="639" x2="1003" y2="639"/>
<line opacity="0.1" stroke="#000000" stroke-width="1" x1="130" y1="630" x2="1003" y2="630"/>
<line opacity="0.1" stroke="#000000" stroke-width="1" x1="130" y1="621" x2="1003" y2="621"/>
<line opacity="0.1" stroke="#000000" stroke-width="1" x1="130" y1="612" x2="1003" y2="612"/>
<line opacity="0.1" stroke="#000000" stroke-width="1" x1="130" y1="603" x2="1003" y2="603"/>
<line opacity="0.1" stroke="#000000" stroke-width="1" x1="130" y1="594" x2="1003" y2="594"/>
<line opacity="0.1" stroke="#000000" stroke-width="1" x1="130" y1="585" x2="1003" y2="585"/>
<line opacity="0.1" stroke="#000000" stroke-width="1" x1="130" y1="576" x2="1003" y2="576"/>
<line opacity="0.1" stroke="#000000" stroke-width="1" x1="130" y1="566" x2="1003" y2="566"/>
<line opacity="0.1" stroke="#000000" stroke-width="1" x1="130" y1="557" x2="1003" y2="557"/>
<line opacity="0.1" stroke="#000000" stroke-width="1" x1="130" y1="548" x2="1003" y2="548"/>
<line opacity="0.1" stroke="#000000" stroke-width="1" x1="130" y1="539" x2="1003" y2="539"/>
<line opacity="0.1" stroke="#000000" stroke-width="1" x1="130" y1="530" x2="1003" y2="530"/>
<line opacity="0.1" stroke="#000000" stroke-width="1" x1="130" y1="521" x2="1003" y2="521"/>
<line opacity="0.1" stroke="#000000" stroke-width="1" x1="130" y1="512" x2="1003" y2="512"/>
<line opacity="0.1" stroke="#000000" stroke-width="1" x1="130" y1="503" x2="1003" y2="503"/>
<line opacity="0.1" stroke="#000000" stroke-width="1" x1="130" y1="494" x2="1003" y2="494"/>
<line opacity="0.1" stroke="#000000" stroke-width="1" x1="130" y1="485" x2="1003" y2="485"/>
<line opacity="0.1" stroke="#000000" stroke-width="1" x1="130" y1="475" x2="1003" y2="475"/>
<line opacity="0.1" stroke="#000000" stroke-width="1" x1="130" y1="466" x2="1003" y2="466"/>
<line opacity="0.1" stroke="#000000" stroke-width="1" x1="130" y1="457" x2="1003" y2="457"/>
<line opacity="0.1" stroke="#000000" stroke-width="1" x1="130" y1="448" x2="1003" y2="448"/>
<line opacity="0.1" stroke="#000000" stroke-width="1" x1="130" y1="439" x2="1003" y2="439"/>
<line opacity="0.1" stroke="#000000" stroke-width="1" x1="130" y1="430" x2="1003" y2="430"/>
<line opacity="0.1" stroke="#000000" stroke-width="1" x1="130" y1="421" x2="1003" y2="421"/>
<line opacity="0.1" stroke="#000000" stroke-width="1" x1="130" y1="412" x2="1003" y2="412"/>
<line opacity="0.1" stroke="#000000" stroke-width="1" x1="130" y1="403" x2="1003" y2="403"/>
<line opacity="0.1" stroke="#000000" stroke-width="1" x1="130" y1="394" x2="1003" y2="394"/>
<line opacity="0.1" stroke="#000000" stroke-width="1" x1="130" y1="384" x2="1003" y2="384"/>
<line opacity="0.1" stroke="#000000" stroke-width="1" x1="130" y1="375" x2="1003" y2="375"/>
<line opacity="0.1" stroke="#000000" stroke-width="1" x1="130" y1="366" x2="1003" y2="366"/>
<line opacity="0.1" stroke="#000000" stroke-width="1" x1="130" y1="357" x2="1003" y2="357"/>
<line opacity="0.1" stroke="#000000" stroke-width="1" x1="130" y1="348" x2="1003" y2="348"/>
<line opacity="0.1" stroke="#000000" stroke-width="1" x1="130" y1="339" x2="1003" y2="339"/>
<line opacity="0.1" stroke="#000000" stroke-width="1" x1="130" y1="330" x2="1003" y2="330"/>
<line opacity="0.1" stroke="#000000" stroke-width="1" x1="130" y1="321" x2="1003" y2="321"/>
<line opacity="0.1" stroke="#000000" stroke-width="1" x1="130" y1="312" x2="1003" y2="312"/>
<line opacity="0.1" stroke="#000000" stroke-width="1" x1="130" y1="303" x2="1003" y2="303"/>
<line opacity="0.1" stroke="#000000" stroke-width="1" x1="130" y1="293" x2="1003" y2="293"/>
<line opacity="0.1" stroke="#000000" stroke-width="1" x1="130" y1="284" x2="1003" y2="284"/>
<line opacity="0.1" stroke="#000000" stroke-width="1" x1="130" y1="275" x2="1003" y2="275"/>
<line opacity="0.1" stroke="#000000" stroke-width="1" x1="130" y1="266" x2="1003" y2="266"/>
<line opacity="0.1" stroke="#000000" stroke-width="1" x1="130" y1="257" x2="1003" y2="257"/>
<line opacity="0.1" stroke="#000000" stroke-width="1" x1="130" y1="248" x2="1003" y2="248"/>
<line opacity="0.1" stroke="#000000" stroke-width="1" x1="130" y1="239" x2="1003" y2="239"/>
<line opacity="0.1" stroke="#000000" stroke-width="1" x1="130" y1="230" x2="1003" y2="230"/>
<line opacity="0.1" stroke="#000000" stroke-width="1" x1="130" y1="221" x2="1003" y2="221"/>
<line opacity="0.1" stroke="#000000" stroke-width="1" x1="130" y1="212" x2="1003" y2="212"/>
<line opacity="0.1" stroke="#000000" stroke-width="1" x1="130" y1="202" x2="1003" y2="202"/>
<line opacity="0.1" stroke="#000000" stroke-width="1" x1="130" y1="193" x2="1003" y2="193"/>
<line opacity="0.1" stroke="#000000" stroke-width="1" x1="130" y1="184" x2="1003" y2="184"/>
<line opacity="0.1" stroke="#000000" stroke-width="1" x1="130" y1="175" x2="1003" y2="175"/>
<line opacity="0.1" stroke="#000000" stroke-width="1" x1="130" y1="166" x2="1003" y2="166"/>
<line opacity="0.1" stroke="#000000" stroke-width="1" x1="130" y1="157" x2="1003" y2="157"/>
<line opacity="0.1" stroke="#000000" stroke-width="1" x1="130" y1="148" x2="1003" y2="148"/>
<line opacity="0.1" stroke="#000000" stroke-width="1" x1="130" y1="139" x2="1003" y2="139"/>
<line opacity="0.1" stroke="#000000" stroke-width="1" x1="130" y1="130" x2="1003" y2="130"/>
<line opacity="0.1" stroke="#000000" stroke-width="1" x1="130" y1="121" x2="1003" y2="121"/>
<line opacity="0.1" stroke="#000000" stroke-width="1" x1="130" y1="111" x2="1003" y2="111"/>
<line opacity="0.1" stroke="#000000" stroke-width="1" x1="130" y1="102" x2="1003" y2="102"/>
<line opacity="0.1" stroke="#000000" stroke-width="1" x1="130" y1="93" x2="1003" y2="93"/>
<line opacity="0.1" stroke="#000000" stroke-width="1" x1="130" y1="84" x2="1003" y2="84"/>
<line opacity="0.1" stroke="#000000" stroke-width="1" x1="130" y1="75" x2="1003" y2="75"/>
<line opacity="0.1" stroke="#000000" stroke-width="1" x1="130" y1="66" x2="1003" y2="66"/>
<line opacity="0.1" stroke="#000000" stroke-width="1" x1="130" y1="57" x2="1003" y2="57"/>
<line opacity="0.1" stroke="#000000" stroke-width="1" x1="130" y1="48" x2="1003" y2="48"/>
<line opacity="0.1" stroke="#000000" stroke-width="1" x1="130" y1="39" x2="1003" y2="39"/>
<line opacity="0.1" stroke="#000000" stroke-width="1" x1="130" y1="30" x2="1003" y2="30"/>
<line opacity="0.1" stroke="#000000" stroke-width="1" x1="130" y1="20" x2="1003" y2="20"/>
<text x="20" y="339" dy="0.76em" text-anchor="middle" font-family="sans-serif" font-size="24.193548387096776" opacity="1" fill="#000000" transform="rotate(270, 20, 339)">
Power [dB]
</text>
<text x="567" y="748" dy="-0.5ex" text-anchor="middle" font-family="sans-serif" font-size="24.193548387096776" opacity="1" fill="#000000">
Frequency [Hz]
</text>
<line opacity="0.2" stroke="#000000" stroke-width="1" x1="130" y1="657" x2="130" y2="20"/>
<line opacity="0.2" stroke="#000000" stroke-width="1" x1="239" y1="657" x2="239" y2="20"/>
<line opacity="0.2" stroke="#000000" stroke-width="1" x1="348" y1="657" x2="348" y2="20"/>
<line opacity="0.2" stroke="#000000" stroke-width="1" x1="457" y1="657" x2="457" y2="20"/>
<line opacity="0.2" stroke="#000000" stroke-width="1" x1="566" y1="657" x2="566" y2="20"/>
<line opacity="0.2" stroke="#000000" stroke-width="1" x1="675" y1="657" x2="675" y2="20"/>
<line opacity="0.2" stroke="#000000" stroke-width="1" x1="784" y1="657" x2="784" y2="20"/>
<line opacity="0.2" stroke="#000000" stroke-width="1" x1="893" y1="657" x2="893" y2="20"/>
<line opacity="0.2" stroke="#000000" stroke-width="1" x1="1003" y1="657" x2="1003" y2="20"/>
<line opacity="0.2" stroke="#000000" stroke-width="1" x1="130" y1="612" x2="1003" y2="612"/>
<line opacity="0.2" stroke="#000000" stroke-width="1" x1="130" y1="521" x2="1003" y2="521"/>
<line opacity="0.2" stroke="#000000" stroke-width="1" x1="130" y1="430" x2="1003" y2="430"/>
<line opacity="0.2" stroke="#000000" stroke-width="1" x1="130" y1="339" x2="1003" y2="339"/>
<line opacity="0.2" stroke="#000000" stroke-width="1" x1="130" y1="248" x2="1003" y2="248"/>
<line opacity="0.2" stroke="#000000" stroke-width="1" x1="130" y1="157" x2="1003" y2="157"/>
<line opacity="0.2" stroke="#000000" stroke-width="1" x1="130" y1="66" x2="1003" y2="66"/>
<polyline fill="none" opacity="1" stroke="#000000" stroke-width="1" points="129,20 129,657 "/>
<text x="120" y="612" dy="0.5ex" text-anchor="end" font-family="sans-serif" font-size="24.193548387096776" opacity="1" fill="#000000">
-100.0
</text>
<polyline fill="none" opacity="1" stroke="#000000" stroke-width="1" points="124,612 129,612 "/>
<text x="120" y="521" dy="0.5ex" text-anchor="end" font-family="sans-serif" font-size="24.193548387096776" opacity="1" fill="#000000">
-80.0
</text>
<polyline fill="none" opacity="1" stroke="#000000" stroke-width="1" points="124,521 129,521 "/>
<text x="120" y="430" dy="0.5ex" text-anchor="end" font-family="sans-serif" font-size="24.193548387096776" opacity="1" fill="#000000">
-60.0
</text>
<polyline fill="none" opacity="1" stroke="#000000" stroke-width="1" points="124,430 129,430 "/>
<text x="120" y="339" dy="0.5ex" text-anchor="end" font-family="sans-serif" font-size="24.193548387096776" opacity="1" fill="#000000">
-40.0
</text>
<polyline fill="none" opacity="1" stroke="#000000" stroke-width="1" points="124,339 129,339 "/>
<text x="120" y="248" dy="0.5ex" text-anchor="end" font-family="sans-serif" font-size="24.193548387096776" opacity="1" fill="#000000">
-20.0
</text>
<polyline fill="none" opacity="1" stroke="#000000" stroke-width="1" points="124,248 129,248 "/>
<text x="120" y="157" dy="0.5ex" text-anchor="end" font-family="sans-serif" font-size="24.193548387096776" opacity="1" fill="#000000">
0.0
</text>
<polyline fill="none" opacity="1" stroke="#000000" stroke-width="1" points="124,157 129,157 "/>
<text x="120" y="66" dy="0.5ex" text-anchor="end" font-family="sans-serif" font-size="24.193548387096776" opacity="1" fill="#000000">
20.0
</text>
<polyline fill="none" opacity="1" stroke="#000000" stroke-width="1" points="124,66 129,66 "/>
<polyline fill="none" opacity="1" stroke="#000000" stroke-width="1" points="130,658 1003,658 "/>
<text x="130" y="668" dy="0.76em" text-anchor="middle" font-family="sans-serif" font-size="24.193548387096776" opacity="1" fill="#000000">
0.0
</text>
<polyline fill="none" opacity="1" stroke="#000000" stroke-width="1" points="130,658 130,663 "/>
<text x="239" y="668" dy="0.76em" text-anchor="middle" font-family="sans-serif" font-size="24.193548387096776" opacity="1" fill="#000000">
1000.0
</text>
<polyline fill="none" opacity="1" stroke="#000000" stroke-width="1" points="239,658 239,663 "/>
<text x="348" y="668" dy="0.76em" text-anchor="middle" font-family="sans-serif" font-size="24.193548387096776" opacity="1" fill="#000000">
2000.0
</text>
<polyline fill="none" opacity="1" stroke="#000000" stroke-width="1" points="348,658 348,663 "/>
<text x="457" y="668" dy="0.76em" text-anchor="middle" font-family="sans-serif" font-size="24.193548387096776" opacity="1" fill="#000000">
3000.0
</text>
<polyline fill="none" opacity="1" stroke="#000000" stroke-width="1" points="457,658 457,663 "/>
<text x="566" y="668" dy="0.76em" text-anchor="middle" font-family="sans-serif" font-size="24.193548387096776" opacity="1" fill="#000000">
4000.0
</text>
<polyline fill="none" opacity="1" stroke="#000000" stroke-width="1" points="566,658 566,663 "/>
<text x="675" y="668" dy="0.76em" text-anchor="middle" font-family="sans-serif" font-size="24.193548387096776" opacity="1" fill="#000000">
5000.0
</text>
<polyline fill="none" opacity="1" stroke="#000000" stroke-width="1" points="675,658 675,663 "/>
<text x="784" y="668" dy="0.76em" text-anchor="middle" font-family="sans-serif" font-size="24.193548387096776" opacity="1" fill="#000000">
6000.0
</text>
<polyline fill="none" opacity="1" stroke="#000000" stroke-width="1" points="784,658 784,663 "/>
<text x="893" y="668" dy="0.76em" text-anchor="middle" font-family="sans-serif" font-size="24.193548387096776" opacity="1" fill="#000000">
7000.0
</text>
<polyline fill="none" opacity="1" stroke="#000000" stroke-width="1" points="893,658 893,663 "/>
<text x="1003" y="668" dy="0.76em" text-anchor="middle" font-family="sans-serif" font-size="24.193548387096776" opacity="1" fill="#000000">
8000.0
</text>
<polyline fill="none" opacity="1" stroke="#000000" stroke-width="1" points="1003,658 1003,663 "/>
<polyline fill="none" opacity="1" stroke="#E6194B" stroke-width="1" points="130,285 131,285 133,262 134,262 136,225 137,229 139,228 140,199 142,248 143,177 145,132 146,144 148,189 149,156 151,178 152,171 154,169 155,199 157,172 158,118 160,80 161,84 163,161 164,172 166,248 167,261 169,188 170,182 172,237 173,253 175,160 176,166 178,200 180,168 181,159 183,161 184,168 186,162 187,141 189,160 190,43 192,25 193,64 195,115 196,166 198,204 199,236 201,225 202,231 204,141 205,121 207,94 208,119 210,145 211,150 213,158 214,168 216,160 217,114 219,100 220,49 222,20 223,22 225,74 227,141 228,186 230,220 231,234 233,228 234,229 236,177 237,147 239,137 240,150 242,193 243,230 245,146 246,161 248,174 249,131 251,160 252,78 254,68 255,104 257,175 258,248 260,241 261,196 263,202 264,244 266,235 267,222 269,184 270,160 272,198 273,177 275,151 277,123 278,116 280,144 281,122 283,88 284,53 286,62 287,99 289,148 290,189 292,168 293,154 295,115 296,108 298,178 299,91 301,82 302,130 304,157 305,125 307,98 308,105 310,72 311,79 313,43 314,20 316,20 317,52 319,91 320,121 322,140 324,133 325,132 327,127 328,95 330,69 331,72 333,113 334,141 336,138 337,149 339,97 340,93 342,108 343,132 345,59 346,39 348,57 349,106 351,144 352,156 354,187 355,210 357,231 358,218 360,205 361,222 363,191 364,203 366,249 367,223 369,157 370,161 372,156 374,126 375,94 377,56 378,54 380,86 381,188 383,153 384,186 386,219 387,290 389,222 390,160 392,128 393,93 395,108 396,159 398,249 399,141 401,107 402,107 404,108 405,114 407,83 408,50 410,63 411,134 413,157 414,146 416,156 417,184 419,165 421,152 422,137 424,116 425,136 427,195 428,157 430,152 431,148 433,142 434,215 436,149 437,131 439,94 440,103 442,154 443,243 445,218 446,213 448,249 449,227 451,232 452,204 454,240 455,287 457,241 458,254 460,204 461,273 463,155 464,131 466,209 467,155 469,125 471,94 472,114 474,153 475,184 477,254 478,228 480,240 481,207 483,204 484,188 486,152 487,153 489,152 490,227 492,177 493,298 495,153 496,149 498,163 499,210 501,126 502,136 504,189 505,200 507,277 508,238 510,271 511,218 513,226 514,251 516,222 518,263 519,360 521,346 522,323 524,302 525,282 527,282 528,226 530,179 531,175 533,155 534,166 536,222 537,230 539,200 540,228 542,279 543,379 545,337 546,339 548,311 549,303 551,324 552,286 554,262 555,283 557,282 558,273 560,255 561,257 563,246 564,207 566,190 568,206 569,229 571,237 572,283 574,230 575,240 577,283 578,348 580,265 581,236 583,246 584,306 586,308 587,294 589,317 590,310 592,280 593,289 595,325 596,293 598,322 599,402 601,397 602,331 604,321 605,381 607,334 608,346 610,319 611,367 613,324 615,333 616,351 618,414 619,315 621,294 622,260 624,233 625,210 627,235 628,303 630,345 631,333 633,289 634,296 636,380 637,375 639,392 640,363 642,307 643,286 645,288 646,297 648,303 649,331 651,348 652,337 654,392 655,335 657,342 658,381 660,397 661,375 663,339 665,359 666,366 668,354 669,342 671,318 672,345 674,364 675,321 677,324 678,375 680,298 681,284 683,301 684,348 686,351 687,334 689,352 690,444 692,448 693,473 695,477 696,495 698,456 699,450 701,450 702,434 704,479 705,475 707,393 708,356 710,363 712,411 713,390 715,382 716,439 718,481 719,458 721,465 722,530 724,524 725,525 727,549 728,521 730,523 731,523 733,658 734,467 736,439 737,442 739,478 740,460 742,467 743,449 745,422 746,394 748,392 749,328 751,302 752,319 754,425 755,392 757,535 758,420 760,432 762,412 763,417 765,443 766,448 768,454 769,450 771,481 772,469 774,496 775,494 777,463 778,455 780,467 781,517 783,483 784,454 786,467 787,494 789,513 790,488 792,529 793,464 795,441 796,439 798,514 799,462 801,474 802,447 804,472 805,389 807,348 809,343 810,376 812,512 813,500 815,472 816,468 818,352 819,301 821,291 822,317 824,413 825,438 827,491 828,457 830,476 831,467 833,453 834,538 836,504 837,402 839,352 840,331 842,333 843,362 845,363 846,339 848,351 849,423 851,461 852,493 854,511 855,515 857,507 859,505 860,514 862,507 863,522 865,517 866,490 868,478 869,487 871,515 872,626 874,476 875,448 877,458 878,516 880,497 881,501 883,480 884,495 886,486 887,452 889,457 890,382 892,337 893,346 895,442 896,424 898,482 899,489 901,491 902,492 904,477 906,466 907,475 909,515 910,481 912,507 913,492 915,458 916,451 918,374 919,344 921,354 922,411 924,449 925,469 927,466 928,452 930,423 931,361 933,346 934,371 936,479 937,469 939,444 940,515 942,452 943,466 945,494 946,479 948,465 949,469 951,471 952,586 954,458 956,445 957,425 959,420 960,431 962,431 963,431 965,460 966,483 968,505 969,524 971,512 972,520 974,518 975,529 977,566 978,543 980,547 981,543 983,501 984,487 986,502 987,491 989,544 990,494 992,431 993,403 995,418 996,480 998,469 999,494 1001,539 1003,521 1004,539 1004,494 1004,469 1004,480 1004,418 1004,403 1004,431 1004,494 1004,544 1004,491 1004,502 1004,487 1004,501 1004,543 1004,547 1004,543 1004,566 1004,529 1004,518 1004,520 1004,512 1004,524 1004,505 1004,483 1004,460 1004,431 1004,431 1004,431 1004,420 1004,425 1004,445 1004,458 1004,586 1004,471 1004,469 1004,465 1004,479 1004,494 1004,466 1004,452 1004,515 1004,444 1004,469 1004,479 1004,371 1004,346 1004,361 1004,423 1004,452 1004,466 1004,469 1004,449 1004,411 1004,354 1004,344 1004,374 1004,451 1004,458 1004,492 1004,507 1004,481 1004,515 1004,475 1004,466 1004,477 1004,492 1004,491 1004,489 1004,482 1004,424 1004,442 1004,346 1004,337 1004,382 1004,457 1004,452 1004,486 1004,495 1004,480 1004,501 1004,497 1004,516 1004,458 1004,448 1004,476 1004,626 1004,515 1004,487 1004,478 1004,490 1004,517 1004,522 1004,507 1004,514 1004,505 1004,507 1004,515 1004,511 1004,493 1004,461 1004,423 1004,351 1004,339 1004,363 1004,362 1004,333 1004,331 1004,352 1004,402 1004,504 1004,538 1004,453 1004,467 1004,476 1004,457 1004,491 1004,438 1004,413 1004,317 1004,291 1004,301 1004,352 1004,468 1004,472 1004,500 1004,512 1004,376 1004,343 1004,348 1004,389 1004,472 1004,447 1004,474 1004,462 1004,514 1004,439 1004,441 1004,464 1004,529 1004,488 1004,513 1004,494 1004,467 1004,454 1004,483 1004,517 1004,467 1004,455 1004,463 1004,494 1004,496 1004,469 1004,481 1004,450 1004,454 1004,448 1004,443 1004,417 1004,412 1004,432 1004,420 1004,535 1004,392 1004,425 1004,319 1004,302 1004,328 1004,392 1004,394 1004,422 1004,449 1004,467 1004,460 1004,478 1004,442 1004,439 1004,467 1004,658 1004,523 1004,523 1004,521 1004,549 1004,525 1004,524 1004,530 1004,465 1004,458 1004,481 1004,439 1004,382 1004,390 1004,411 1004,363 1004,356 1004,393 1004,475 1004,479 1004,434 1004,450 1004,450 1004,456 1004,495 1004,477 1004,473 1004,448 1004,444 1004,352 1004,334 1004,351 1004,348 1004,301 1004,284 1004,298 1004,375 1004,324 1004,321 1004,364 1004,345 1004,318 1004,342 1004,354 1004,366 1004,359 1004,339 1004,375 1004,397 1004,381 1004,342 1004,335 1004,392 1004,337 1004,348 1004,331 1004,303 1004,297 1004,288 1004,286 1004,307 1004,363 1004,392 1004,375 1004,380 1004,296 1004,289 1004,333 1004,345 1004,303 1004,235 1004,210 1004,233 1004,260 1004,294 1004,315 1004,414 1004,351 1004,333 1004,324 1004,367 1004,319 1004,346 1004,334 1004,381 1004,321 1004,331 1004,397 1004,402 1004,322 1004,293 1004,325 1004,289 1004,280 1004,310 1004,317 1004,294 1004,308 1004,306 1004,246 1004,236 1004,265 1004,348 1004,283 1004,240 1004,230 1004,283 1004,237 1004,229 1004,206 1004,190 1004,207 1004,246 1004,257 1004,255 1004,273 1004,282 1004,283 1004,262 1004,286 1004,324 1004,303 1004,311 1004,339 1004,337 1004,379 1004,279 1004,228 1004,200 1004,230 1004,222 1004,166 1004,155 1004,175 1004,179 1004,226 1004,282 1004,282 1004,302 1004,323 1004,346 1004,360 1004,263 1004,222 1004,251 1004,226 1004,218 1004,271 1004,238 1004,277 1004,200 1004,189 1004,136 1004,126 1004,210 1004,163 1004,149 1004,153 1004,298 1004,177 1004,227 1004,152 1004,153 1004,152 1004,188 1004,204 1004,207 1004,240 1004,228 1004,254 1004,184 1004,153 1004,114 1004,94 1004,125 1004,155 1004,209 1004,131 1004,155 1004,273 1004,204 1004,254 1004,241 1004,287 1004,240 1004,204 1004,232 1004,227 1004,249 1004,213 1004,218 1004,243 1004,154 1004,103 1004,94 1004,131 1004,149 1004,215 1004,142 1004,148 1004,152 1004,157 1004,195 1004,136 1004,116 1004,137 1004,152 1004,165 1004,184 1004,156 1004,146 1004,157 1004,134 1004,63 1004,50 1004,83 1004,114 1004,108 1004,107 1004,107 1004,141 1004,249 1004,159 1004,108 1004,93 1004,128 1004,160 1004,222 1004,290 1004,219 1004,186 1004,153 1004,188 1004,86 1004,54 1004,56 1004,94 1004,126 1004,156 1004,161 1004,157 1004,223 1004,249 1004,203 1004,191 1004,222 1004,205 1004,218 1004,231 1004,210 1004,187 1004,156 1004,144 1004,106 1004,57 1004,39 1004,59 1004,132 1004,108 1004,93 1004,97 1004,149 1004,138 1004,141 1004,113 1004,72 1004,69 1004,95 1004,127 1004,132 1004,133 1004,140 1004,121 1004,91 1004,52 1004,20 1004,20 1004,43 1004,79 1004,72 1004,105 1004,98 1004,125 1004,157 1004,130 1004,82 1004,91 1004,178 1004,108 1004,115 1004,154 1004,168 1004,189 1004,148 1004,99 1004,62 1004,53 1004,88 1004,122 1004,144 1004,116 1004,123 1004,151 1004,177 1004,198 1004,160 1004,184 1004,222 1004,235 1004,244 1004,202 1004,196 1004,241 1004,248 1004,175 1004,104 1004,68 1004,78 1004,160 1004,131 1004,174 1004,161 1004,146 1004,230 1004,193 1004,150 1004,137 1004,147 1004,177 1004,229 1004,228 1004,234 1004,220 1004,186 1004,141 1004,74 1004,22 1004,20 1004,49 1004,100 1004,114 1004,160 1004,168 1004,158 1004,150 1004,145 1004,119 1004,94 1004,121 1004,141 1004,231 1004,225 1004,236 1004,204 1004,166 1004,115 1004,64 1004,25 1004,43 1004,160 1004,141 1004,162 1004,168 1004,161 1004,159 1004,168 1004,200 1004,166 1004,160 1004,253 1004,237 1004,182 1004,188 1004,261 1004,248 1004,172 1004,161 1004,84 1004,80 1004,118 1004,172 1004,199 1004,169 1004,171 1004,178 1004,156 1004,189 1004,144 1004,132 1004,177 1004,248 1004,199 1004,228 1004,229 1004,225 1004,262 1004,262 1004,285 "/>
<polyline fill="none" opacity="1" stroke="#3CB44B" stroke-width="1" points="130,260 131,260 133,259 134,259 136,258 137,257 139,256 140,255 142,254 143,253 145,251 146,250 148,248 149,246 151,245 152,243 154,241 155,240 157,238 158,237 160,236 161,234 163,233 164,232 166,232 167,231 169,230 170,230 172,230 173,230 175,229 176,229 178,229 180,229 181,229 183,229 184,229 186,228 187,228 189,228 190,227 192,226 193,226 195,225 196,224 198,223 199,222 201,221 202,219 204,218 205,217 207,216 208,215 210,214 211,213 213,213 214,212 216,212 217,212 219,212 220,213 222,214 223,215 225,216 227,218 228,219 230,221 231,223 233,225 234,226 236,228 237,230 239,232 240,233 242,235 243,236 245,237 246,238 248,239 249,240 251,240 252,241 254,241 255,241 257,240 258,240 260,239 261,239 263,238 264,237 266,235 267,234 269,233 270,231 272,229 273,228 275,226 277,224 278,222 280,220 281,219 283,217 284,215 286,213 287,212 289,210 290,209 292,207 293,206 295,205 296,204 298,203 299,202 301,202 302,201 304,201 305,201 307,201 308,201 310,201 311,201 313,202 314,203 316,204 317,205 319,206 320,208 322,209 324,211 325,213 327,215 328,217 330,219 331,221 333,224 334,226 336,228 337,231 339,233 340,236 342,238 343,240 345,242 346,244 348,246 349,248 351,250 352,251 354,252 355,253 357,254 358,255 360,255 361,256 363,256 364,256 366,255 367,255 369,254 370,253 372,252 374,251 375,250 377,248 378,247 380,245 381,243 383,241 384,240 386,238 387,237 389,235 390,234 392,233 393,232 395,232 396,232 398,232 399,232 401,233 402,234 404,235 405,237 407,239 408,241 410,243 411,245 413,248 414,250 416,253 417,255 419,258 421,260 422,262 424,265 425,267 427,269 428,271 430,272 431,274 433,276 434,277 436,278 437,279 439,280 440,281 442,281 443,281 445,282 446,282 448,282 449,282 451,281 452,281 454,280 455,280 457,279 458,279 460,278 461,277 463,277 464,276 466,276 467,275 469,274 471,274 472,274 474,274 475,274 477,274 478,274 480,275 481,275 483,276 484,277 486,278 487,279 489,281 490,282 492,284 493,286 495,288 496,290 498,292 499,295 501,297 502,299 504,301 505,303 507,306 508,308 510,310 511,311 513,313 514,315 516,316 518,317 519,318 521,319 522,320 524,321 525,321 527,321 528,321 530,321 531,320 533,320 534,319 536,318 537,317 539,316 540,315 542,314 543,313 545,312 546,310 548,309 549,309 551,308 552,307 554,307 555,307 557,307 558,307 560,308 561,309 563,310 564,311 566,313 568,315 569,316 571,318 572,321 574,323 575,325 577,327 578,330 580,332 581,334 583,336 584,338 586,339 587,341 589,342 590,343 592,344 593,345 595,345 596,346 598,346 599,346 601,345 602,345 604,344 605,343 607,342 608,341 610,340 611,339 613,338 615,337 616,336 618,335 619,335 621,334 622,333 624,333 625,333 627,333 628,333 630,334 631,334 633,335 634,336 636,337 637,338 639,339 640,340 642,342 643,343 645,344 646,345 648,347 649,348 651,349 652,350 654,351 655,351 657,352 658,353 660,353 661,353 663,354 665,354 666,354 668,355 669,355 671,355 672,356 674,356 675,357 677,358 678,359 680,360 681,361 683,363 684,365 686,367 687,369 689,371 690,374 692,376 693,379 695,382 696,385 698,388 699,390 701,393 702,396 704,398 705,401 707,403 708,405 710,406 712,408 713,409 715,409 716,410 718,410 719,410 721,409 722,408 724,407 725,405 727,404 728,401 730,399 731,397 733,394 734,391 736,388 737,385 739,383 740,380 742,377 743,375 745,372 746,370 748,369 749,367 751,366 752,366 754,366 755,366 757,366 758,367 760,369 762,370 763,372 765,374 766,377 768,379 769,381 771,384 772,386 774,388 775,390 777,392 778,394 780,395 781,396 783,397 784,397 786,397 787,397 789,397 790,396 792,394 793,393 795,391 796,388 798,386 799,383 801,380 802,377 804,374 805,371 807,368 809,365 810,362 812,359 813,356 815,354 816,352 818,350 819,349 821,348 822,348 824,348 825,348 827,349 828,350 830,352 831,354 833,356 834,359 836,361 837,364 839,367 840,370 842,373 843,376 845,378 846,381 848,383 849,386 851,388 852,390 854,391 855,393 857,394 859,395 860,396 862,396 863,397 865,397 866,397 868,396 869,396 871,395 872,394 874,394 875,393 877,392 878,391 880,389 881,388 883,387 884,386 886,385 887,384 889,383 890,382 892,381 893,380 895,379 896,378 898,377 899,376 901,375 902,374 904,373 906,373 907,372 909,371 910,370 912,370 913,369 915,368 916,368 918,367 919,366 921,366 922,366 924,365 925,365 927,365 928,365 930,365 931,365 933,366 934,367 936,367 937,368 939,369 940,371 942,372 943,374 945,375 946,377 948,379 949,380 951,382 952,384 954,386 956,388 957,389 959,391 960,393 962,394 963,395 965,396 966,397 968,398 969,399 971,399 972,400 974,400 975,400 977,399 978,399 980,399 981,398 983,397 984,397 986,396 987,395 989,394 990,393 992,393 993,392 995,391 996,391 998,390 999,390 1001,390 1003,389 1004,390 1004,390 1004,390 1004,391 1004,391 1004,392 1004,393 1004,393 1004,394 1004,395 1004,396 1004,397 1004,397 1004,398 1004,399 1004,399 1004,399 1004,400 1004,400 1004,400 1004,399 1004,399 1004,398 1004,397 1004,396 1004,395 1004,394 1004,393 1004,391 1004,389 1004,388 1004,386 1004,384 1004,382 1004,380 1004,379 1004,377 1004,375 1004,374 1004,372 1004,371 1004,369 1004,368 1004,367 1004,367 1004,366 1004,365 1004,365 1004,365 1004,365 1004,365 1004,365 1004,366 1004,366 1004,366 1004,367 1004,368 1004,368 1004,369 1004,370 1004,370 1004,371 1004,372 1004,373 1004,373 1004,374 1004,375 1004,376 1004,377 1004,378 1004,379 1004,380 1004,381 1004,382 1004,383 1004,384 1004,385 1004,386 1004,387 1004,388 1004,389 1004,391 1004,392 1004,393 1004,394 1004,394 1004,395 1004,396 1004,396 1004,397 1004,397 1004,397 1004,396 1004,396 1004,395 1004,394 1004,393 1004,391 1004,390 1004,388 1004,386 1004,383 1004,381 1004,378 1004,376 1004,373 1004,370 1004,367 1004,364 1004,361 1004,359 1004,356 1004,354 1004,352 1004,350 1004,349 1004,348 1004,348 1004,348 1004,348 1004,349 1004,350 1004,352 1004,354 1004,356 1004,359 1004,362 1004,365 1004,368 1004,371 1004,374 1004,377 1004,380 1004,383 1004,386 1004,388 1004,391 1004,393 1004,394 1004,396 1004,397 1004,397 1004,397 1004,397 1004,397 1004,396 1004,395 1004,394 1004,392 1004,390 1004,388 1004,386 1004,384 1004,381 1004,379 1004,377 1004,374 1004,372 1004,370 1004,369 1004,367 1004,366 1004,366 1004,366 1004,366 1004,366 1004,367 1004,369 1004,370 1004,372 1004,375 1004,377 1004,380 1004,383 1004,385 1004,388 1004,391 1004,394 1004,397 1004,399 1004,401 1004,404 1004,405 1004,407 1004,408 1004,409 1004,410 1004,410 1004,410 1004,409 1004,409 1004,408 1004,406 1004,405 1004,403 1004,401 1004,398 1004,396 1004,393 1004,390 1004,388 1004,385 1004,382 1004,379 1004,376 1004,374 1004,371 1004,369 1004,367 1004,365 1004,363 1004,361 1004,360 1004,359 1004,358 1004,357 1004,356 1004,356 1004,355 1004,355 1004,355 1004,354 1004,354 1004,354 1004,353 1004,353 1004,353 1004,352 1004,351 1004,351 1004,350 1004,349 1004,348 1004,347 1004,345 1004,344 1004,343 1004,342 1004,340 1004,339 1004,338 1004,337 1004,336 1004,335 1004,334 1004,334 1004,333 1004,333 1004,333 1004,333 1004,333 1004,334 1004,335 1004,335 1004,336 1004,337 1004,338 1004,339 1004,340 1004,341 1004,342 1004,343 1004,344 1004,345 1004,345 1004,346 1004,346 1004,346 1004,345 1004,345 1004,344 1004,343 1004,342 1004,341 1004,339 1004,338 1004,336 1004,334 1004,332 1004,330 1004,327 1004,325 1004,323 1004,321 1004,318 1004,316 1004,315 1004,313 1004,311 1004,310 1004,309 1004,308 1004,307 1004,307 1004,307 1004,307 1004,307 1004,308 1004,309 1004,309 1004,310 1004,312 1004,313 1004,314 1004,315 1004,316 1004,317 1004,318 1004,319 1004,320 1004,320 1004,321 1004,321 1004,321 1004,321 1004,321 1004,320 1004,319 1004,318 1004,317 1004,316 1004,315 1004,313 1004,311 1004,310 1004,308 1004,306 1004,303 1004,301 1004,299 1004,297 1004,295 1004,292 1004,290 1004,288 1004,286 1004,284 1004,282 1004,281 1004,279 1004,278 1004,277 1004,276 1004,275 1004,275 1004,274 1004,274 1004,274 1004,274 1004,274 1004,274 1004,274 1004,275 1004,276 1004,276 1004,277 1004,277 1004,278 1004,279 1004,279 1004,280 1004,280 1004,281 1004,281 1004,282 1004,282 1004,282 1004,282 1004,281 1004,281 1004,281 1004,280 1004,279 1004,278 1004,277 1004,276 1004,274 1004,272 1004,271 1004,269 1004,267 1004,265 1004,262 1004,260 1004,258 1004,255 1004,253 1004,250 1004,248 1004,245 1004,243 1004,241 1004,239 1004,237 1004,235 1004,234 1004,233 1004,232 1004,232 1004,232 1004,232 1004,232 1004,233 1004,234 1004,235 1004,237 1004,238 1004,240 1004,241 1004,243 1004,245 1004,247 1004,248 1004,250 1004,251 1004,252 1004,253 1004,254 1004,255 1004,255 1004,256 1004,256 1004,256 1004,255 1004,255 1004,254 1004,253 1004,252 1004,251 1004,250 1004,248 1004,246 1004,244 1004,242 1004,240 1004,238 1004,236 1004,233 1004,231 1004,228 1004,226 1004,224 1004,221 1004,219 1004,217 1004,215 1004,213 1004,211 1004,209 1004,208 1004,206 1004,205 1004,204 1004,203 1004,202 1004,201 1004,201 1004,201 1004,201 1004,201 1004,201 1004,201 1004,202 1004,202 1004,203 1004,204 1004,205 1004,206 1004,207 1004,209 1004,210 1004,212 1004,213 1004,215 1004,217 1004,219 1004,220 1004,222 1004,224 1004,226 1004,228 1004,229 1004,231 1004,233 1004,234 1004,235 1004,237 1004,238 1004,239 1004,239 1004,240 1004,240 1004,241 1004,241 1004,241 1004,240 1004,240 1004,239 1004,238 1004,237 1004,236 1004,235 1004,233 1004,232 1004,230 1004,228 1004,226 1004,225 1004,223 1004,221 1004,219 1004,218 1004,216 1004,215 1004,214 1004,213 1004,212 1004,212 1004,212 1004,212 1004,213 1004,213 1004,214 1004,215 1004,216 1004,217 1004,218 1004,219 1004,221 1004,222 1004,223 1004,224 1004,225 1004,226 1004,226 1004,227 1004,228 1004,228 1004,228 1004,229 1004,229 1004,229 1004,229 1004,229 1004,229 1004,229 1004,230 1004,230 1004,230 1004,230 1004,231 1004,232 1004,232 1004,233 1004,234 1004,236 1004,237 1004,238 1004,240 1004,241 1004,243 1004,245 1004,246 1004,248 1004,250 1004,251 1004,253 1004,254 1004,255 1004,256 1004,257 1004,258 1004,259 1004,259 1004,260 "/>
<polyline fill="none" opacity="1" stroke="#FFE119" stroke-width="1" points="130,263 131,263 133,263 134,264 136,264 137,264 139,264 140,264 142,264 143,264 145,264 146,264 148,264 149,264 151,264 152,264 154,265 155,265 157,265 158,265 160,265 161,265 163,265 164,265 166,265 167,265 169,265 170,266 172,266 173,266 175,266 176,266 178,266 180,266 181,266 183,266 184,266 186,266 187,266 189,266 190,266 192,266 193,266 195,266 196,266 198,266 199,266 201,266 202,266 204,266 205,266 207,266 208,266 210,266 211,266 213,266 214,266 216,266 217,266 219,266 220,266 222,266 223,266 225,266 227,266 228,266 230,266 231,266 233,266 234,266 236,266 237,266 239,266 240,266 242,266 243,266 245,266 246,266 248,266 249,266 251,266 252,266 254,266 255,266 257,266 258,265 260,265 261,265 263,265 264,265 266,265 267,265 269,265 270,265 272,265 273,265 275,265 277,265 278,265 280,265 281,265 283,265 284,265 286,265 287,265 289,265 290,265 292,266 293,266 295,266 296,266 298,266 299,266 301,266 302,266 304,266 305,266 307,266 308,266 310,266 311,266 313,266 314,266 316,266 317,266 319,266 320,266 322,266 324,266 325,266 327,266 328,266 330,266 331,266 333,266 334,266 336,266 337,266 339,266 340,266 342,266 343,266 345,266 346,266 348,266 349,266 351,266 352,266 354,266 355,266 357,266 358,266 360,266 361,266 363,266 364,266 366,266 367,266 369,266 370,266 372,266 374,266 375,266 377,266 378,266 380,267 381,267 383,267 384,267 386,267 387,267 389,267 390,267 392,267 393,267 395,267 396,267 398,267 399,266 401,266 402,266 404,266 405,266 407,266 408,266 410,266 411,266 413,266 414,266 416,266 417,266 419,266 421,266 422,266 424,266 425,266 427,266 428,267 430,267 431,267 433,267 434,267 436,267 437,267 439,267 440,267 442,267 443,267 445,267 446,267 448,267 449,267 451,267 452,267 454,267 455,267 457,267 458,267 460,267 461,267 463,267 464,267 466,267 467,267 469,266 471,266 472,266 474,266 475,266 477,266 478,266 480,266 481,266 483,266 484,266 486,266 487,266 489,266 490,266 492,266 493,266 495,266 496,266 498,266 499,265 501,265 502,265 504,265 505,265 507,265 508,264 510,264 511,264 513,264 514,264 516,264 518,264 519,264 521,264 522,264 524,264 525,264 527,264 528,264 530,264 531,264 533,265 534,265 536,265 537,265 539,265 540,265 542,264 543,264 545,264 546,263 548,263 549,262 551,262 552,261 554,260 555,259 557,258 558,257 560,256 561,255 563,254 564,253 566,253 568,253 569,253 571,254 572,255 574,257 575,259 577,261 578,263 580,265 581,267 583,269 584,272 586,274 587,275 589,277 590,279 592,280 593,281 595,282 596,283 598,284 599,285 601,285 602,286 604,286 605,286 607,286 608,285 610,285 611,284 613,283 615,282 616,281 618,279 619,278 621,276 622,274 624,272 625,270 627,269 628,267 630,266 631,265 633,266 634,267 636,268 637,271 639,273 640,277 642,280 643,283 645,286 646,289 648,292 649,295 651,298 652,301 654,303 655,306 657,308 658,311 660,313 661,315 663,318 665,320 666,322 668,324 669,326 671,328 672,330 674,332 675,334 677,336 678,338 680,340 681,341 683,343 684,345 686,346 687,348 689,350 690,351 692,353 693,354 695,355 696,356 698,358 699,359 701,360 702,361 704,362 705,362 707,363 708,364 710,364 712,365 713,365 715,366 716,366 718,366 719,366 721,366 722,366 724,366 725,366 727,365 728,365 730,365 731,364 733,363 734,363 736,362 737,362 739,361 740,361 742,360 743,360 745,360 746,360 748,360 749,360 751,361 752,361 754,362 755,363 757,364 758,366 760,367 762,368 763,370 765,371 766,372 768,374 769,375 771,376 772,377 774,378 775,379 777,380 778,381 780,381 781,382 783,382 784,383 786,383 787,383 789,383 790,383 792,382 793,382 795,381 796,380 798,379 799,378 801,377 802,375 804,374 805,372 807,369 809,367 810,364 812,360 813,356 815,352 816,347 818,341 819,335 821,328 822,323 824,321 825,323 827,328 828,335 830,342 831,348 833,354 834,359 836,364 837,368 839,371 840,375 842,378 843,380 845,383 846,385 848,387 849,389 851,390 852,392 854,393 855,394 857,395 859,396 860,396 862,397 863,397 865,398 866,398 868,398 869,398 871,398 872,398 874,398 875,398 877,397 878,397 880,396 881,396 883,395 884,394 886,394 887,393 889,392 890,391 892,390 893,389 895,388 896,387 898,386 899,385 901,384 902,383 904,382 906,382 907,381 909,380 910,379 912,378 913,377 915,377 916,376 918,376 919,375 921,375 922,376 924,376 925,377 927,379 928,380 930,382 931,385 933,387 934,390 936,393 937,396 939,399 940,402 942,405 943,408 945,410 946,413 948,416 949,419 951,421 952,424 954,426 956,428 957,430 959,432 960,434 962,436 963,438 965,440 966,441 968,443 969,444 971,446 972,447 974,448 975,450 977,451 978,452 980,453 981,454 983,455 984,455 986,456 987,457 989,457 990,458 992,458 993,459 995,459 996,459 998,459 999,460 1001,460 1003,460 1004,460 1004,460 1004,459 1004,459 1004,459 1004,459 1004,458 1004,458 1004,457 1004,457 1004,456 1004,455 1004,455 1004,454 1004,453 1004,452 1004,451 1004,450 1004,448 1004,447 1004,446 1004,444 1004,443 1004,441 1004,440 1004,438 1004,436 1004,434 1004,432 1004,430 1004,428 1004,426 1004,424 1004,421 1004,419 1004,416 1004,413 1004,410 1004,408 1004,405 1004,402 1004,399 1004,396 1004,393 1004,390 1004,387 1004,385 1004,382 1004,380 1004,379 1004,377 1004,376 1004,376 1004,375 1004,375 1004,376 1004,376 1004,377 1004,377 1004,378 1004,379 1004,380 1004,381 1004,382 1004,382 1004,383 1004,384 1004,385 1004,386 1004,387 1004,388 1004,389 1004,390 1004,391 1004,392 1004,393 1004,394 1004,394 1004,395 1004,396 1004,396 1004,397 1004,397 1004,398 1004,398 1004,398 1004,398 1004,398 1004,398 1004,398 1004,398 1004,397 1004,397 1004,396 1004,396 1004,395 1004,394 1004,393 1004,392 1004,390 1004,389 1004,387 1004,385 1004,383 1004,380 1004,378 1004,375 1004,371 1004,368 1004,364 1004,359 1004,354 1004,348 1004,342 1004,335 1004,328 1004,323 1004,321 1004,323 1004,328 1004,335 1004,341 1004,347 1004,352 1004,356 1004,360 1004,364 1004,367 1004,369 1004,372 1004,374 1004,375 1004,377 1004,378 1004,379 1004,380 1004,381 1004,382 1004,382 1004,383 1004,383 1004,383 1004,383 1004,383 1004,382 1004,382 1004,381 1004,381 1004,380 1004,379 1004,378 1004,377 1004,376 1004,375 1004,374 1004,372 1004,371 1004,370 1004,368 1004,367 1004,366 1004,364 1004,363 1004,362 1004,361 1004,361 1004,360 1004,360 1004,360 1004,360 1004,360 1004,360 1004,361 1004,361 1004,362 1004,362 1004,363 1004,363 1004,364 1004,365 1004,365 1004,365 1004,366 1004,366 1004,366 1004,366 1004,366 1004,366 1004,366 1004,366 1004,365 1004,365 1004,364 1004,364 1004,363 1004,362 1004,362 1004,361 1004,360 1004,359 1004,358 1004,356 1004,355 1004,354 1004,353 1004,351 1004,350 1004,348 1004,346 1004,345 1004,343 1004,341 1004,340 1004,338 1004,336 1004,334 1004,332 1004,330 1004,328 1004,326 1004,324 1004,322 1004,320 1004,318 1004,315 1004,313 1004,311 1004,308 1004,306 1004,303 1004,301 1004,298 1004,295 1004,292 1004,289 1004,286 1004,283 1004,280 1004,277 1004,273 1004,271 1004,268 1004,267 1004,266 1004,265 1004,266 1004,267 1004,269 1004,270 1004,272 1004,274 1004,276 1004,278 1004,279 1004,281 1004,282 1004,283 1004,284 1004,285 1004,285 1004,286 1004,286 1004,286 1004,286 1004,285 1004,285 1004,284 1004,283 1004,282 1004,281 1004,280 1004,279 1004,277 1004,275 1004,274 1004,272 1004,269 1004,267 1004,265 1004,263 1004,261 1004,259 1004,257 1004,255 1004,254 1004,253 1004,253 1004,253 1004,253 1004,254 1004,255 1004,256 1004,257 1004,258 1004,259 1004,260 1004,261 1004,262 1004,262 1004,263 1004,263 1004,264 1004,264 1004,264 1004,265 1004,265 1004,265 1004,265 1004,265 1004,265 1004,264 1004,264 1004,264 1004,264 1004,264 1004,264 1004,264 1004,264 1004,264 1004,264 1004,264 1004,264 1004,264 1004,264 1004,264 1004,264 1004,265 1004,265 1004,265 1004,265 1004,265 1004,265 1004,266 1004,266 1004,266 1004,266 1004,266 1004,266 1004,266 1004,266 1004,266 1004,266 1004,266 1004,266 1004,266 1004,266 1004,266 1004,266 1004,266 1004,266 1004,266 1004,266 1004,267 1004,267 1004,267 1004,267 1004,267 1004,267 1004,267 1004,267 1004,267 1004,267 1004,267 1004,267 1004,267 1004,267 1004,267 1004,267 1004,267 1004,267 1004,267 1004,267 1004,267 1004,267 1004,267 1004,267 1004,267 1004,267 1004,267 1004,266 1004,266 1004,266 1004,266 1004,266 1004,266 1004,266 1004,266 1004,266 1004,266 1004,266 1004,266 1004,266 1004,266 1004,266 1004,266 1004,266 1004,266 1004,266 1004,267 1004,267 1004,267 1004,267 1004,267 1004,267 1004,267 1004,267 1004,267 1004,267 1004,267 1004,267 1004,267 1004,266 1004,266 1004,266 1004,266 1004,266 1004,266 1004,266 1004,266 1004,266 1004,266 1004,266 1004,266 1004,266 1004,266 1004,266 1004,266 1004,266 1004,266 1004,266 1004,266 1004,266 1004,266 1004,266 1004,266 1004,266 1004,266 1004,266 1004,266 1004,266 1004,266 1004,266 1004,266 1004,266 1004,266 1004,266 1004,266 1004,266 1004,266 1004,266 1004,266 1004,266 1004,266 1004,266 1004,266 1004,266 1004,266 1004,266 1004,266 1004,266 1004,266 1004,266 1004,266 1004,266 1004,266 1004,266 1004,266 1004,266 1004,266 1004,265 1004,265 1004,265 1004,265 1004,265 1004,265 1004,265 1004,265 1004,265 1004,265 1004,265 1004,265 1004,265 1004,265 1004,265 1004,265 1004,265 1004,265 1004,265 1004,265 1004,265 1004,265 1004,266 1004,266 1004,266 1004,266 1004,266 1004,266 1004,266 1004,266 1004,266 1004,266 1004,266 1004,266 1004,266 1004,266 1004,266 1004,266 1004,266 1004,266 1004,266 1004,266 1004,266 1004,266 1004,266 1004,266 1004,266 1004,266 1004,266 1004,266 1004,266 1004,266 1004,266 1004,266 1004,266 1004,266 1004,266 1004,266 1004,266 1004,266 1004,266 1004,266 1004,266 1004,266 1004,266 1004,266 1004,266 1004,266 1004,266 1004,266 1004,266 1004,266 1004,266 1004,266 1004,266 1004,266 1004,266 1004,266 1004,266 1004,266 1004,265 1004,265 1004,265 1004,265 1004,265 1004,265 1004,265 1004,265 1004,265 1004,265 1004,265 1004,264 1004,264 1004,264 1004,264 1004,264 1004,264 1004,264 1004,264 1004,264 1004,264 1004,264 1004,264 1004,264 1004,263 1004,263 "/>
<polyline fill="none" opacity="1" stroke="#0082C8" stroke-width="1" points="130,182 131,182 133,182 134,182 136,182 137,182 139,182 140,182 142,182 143,182 145,182 146,183 148,183 149,183 151,183 152,183 154,183 155,183 157,183 158,183 160,183 161,184 163,184 164,184 166,184 167,184 169,184 170,184 172,184 173,184 175,184 176,184 178,184 180,184 181,184 183,184 184,184 186,184 187,184 189,184 190,184 192,184 193,184 195,184 196,184 198,184 199,184 201,184 202,184 204,184 205,184 207,184 208,184 210,184 211,184 213,184 214,184 216,184 217,184 219,184 220,184 222,184 223,184 225,184 227,184 228,184 230,184 231,184 233,184 234,184 236,184 237,184 239,184 240,184 242,184 243,184 245,184 246,184 248,184 249,184 251,184 252,184 254,184 255,184 257,184 258,184 260,184 261,184 263,184 264,184 266,184 267,184 269,184 270,184 272,184 273,184 275,184 277,184 278,184 280,184 281,184 283,184 284,184 286,184 287,184 289,184 290,184 292,184 293,184 295,184 296,184 298,184 299,184 301,184 302,184 304,184 305,184 307,184 308,184 310,184 311,184 313,184 314,184 316,184 317,184 319,184 320,184 322,185 324,185 325,185 327,185 328,185 330,185 331,185 333,185 334,185 336,185 337,185 339,185 340,185 342,185 343,185 345,185 346,185 348,185 349,185 351,185 352,185 354,185 355,185 357,185 358,185 360,185 361,185 363,185 364,185 366,185 367,185 369,185 370,185 372,185 374,185 375,185 377,185 378,185 380,185 381,185 383,185 384,185 386,185 387,185 389,185 390,185 392,185 393,185 395,185 396,185 398,185 399,185 401,185 402,185 404,185 405,185 407,185 408,185 410,185 411,185 413,185 414,185 416,185 417,185 419,185 421,185 422,185 424,185 425,185 427,185 428,185 430,185 431,185 433,185 434,185 436,186 437,186 439,186 440,186 442,186 443,186 445,186 446,186 448,186 449,186 451,186 452,186 454,186 455,186 457,186 458,186 460,185 461,185 463,185 464,185 466,185 467,185 469,185 471,185 472,185 474,185 475,185 477,185 478,185 480,185 481,185 483,185 484,185 486,185 487,185 489,185 490,185 492,185 493,184 495,184 496,184 498,184 499,184 501,184 502,184 504,183 505,183 507,183 508,183 510,183 511,182 513,182 514,182 516,182 518,182 519,182 521,182 522,182 524,182 525,182 527,182 528,183 530,183 531,183 533,183 534,183 536,183 537,183 539,183 540,183 542,183 543,183 545,182 546,182 548,181 549,181 551,180 552,179 554,178 555,177 557,176 558,175 560,174 561,173 563,172 564,172 566,171 568,171 569,172 571,173 572,174 574,175 575,177 577,179 578,181 580,184 581,186 583,188 584,190 586,192 587,194 589,196 590,197 592,199 593,200 595,201 596,202 598,203 599,203 601,204 602,204 604,204 605,204 607,204 608,204 610,203 611,203 613,202 615,201 616,199 618,198 619,196 621,195 622,193 624,191 625,189 627,187 628,185 630,184 631,184 633,184 634,185 636,187 637,189 639,192 640,195 642,198 643,201 645,205 646,208 648,211 649,214 651,217 652,219 654,222 655,224 657,227 658,229 660,232 661,234 663,236 665,238 666,240 668,242 669,244 671,246 672,248 674,250 675,252 677,254 678,256 680,258 681,260 683,262 684,263 686,265 687,267 689,268 690,270 692,271 693,272 695,274 696,275 698,276 699,277 701,278 702,279 704,280 705,281 707,282 708,282 710,283 712,283 713,284 715,284 716,284 718,285 719,285 721,285 722,285 724,284 725,284 727,284 728,283 730,283 731,283 733,282 734,281 736,281 737,280 739,280 740,279 742,279 743,278 745,278 746,278 748,278 749,279 751,279 752,280 754,281 755,282 757,283 758,284 760,285 762,287 763,288 765,290 766,291 768,292 769,293 771,295 772,296 774,297 775,298 777,299 778,299 780,300 781,300 783,301 784,301 786,301 787,301 789,301 790,301 792,301 793,300 795,300 796,299 798,298 799,297 801,295 802,294 804,292 805,290 807,288 809,285 810,282 812,279 813,275 815,270 816,265 818,259 819,253 821,247 822,241 824,239 825,241 827,247 828,254 830,261 831,267 833,273 834,278 836,282 837,286 839,290 840,293 842,296 843,299 845,301 846,303 848,305 849,307 851,309 852,310 854,311 855,312 857,313 859,314 860,315 862,315 863,316 865,316 866,317 868,317 869,317 871,317 872,317 874,316 875,316 877,316 878,315 880,315 881,314 883,313 884,313 886,312 887,311 889,310 890,309 892,309 893,308 895,307 896,306 898,305 899,304 901,303 902,302 904,301 906,300 907,299 909,298 910,297 912,297 913,296 915,295 916,295 918,294 919,294 921,294 922,294 924,295 925,296 927,297 928,299 930,301 931,303 933,306 934,308 936,311 937,314 939,317 940,320 942,323 943,326 945,329 946,332 948,334 949,337 951,340 952,342 954,344 956,347 957,349 959,351 960,353 962,355 963,356 965,358 966,360 968,361 969,363 971,364 972,366 974,367 975,368 977,369 978,370 980,371 981,372 983,373 984,374 986,374 987,375 989,376 990,376 992,377 993,377 995,377 996,378 998,378 999,378 1001,378 1003,378 1004,378 1004,378 1004,378 1004,378 1004,377 1004,377 1004,377 1004,376 1004,376 1004,375 1004,374 1004,374 1004,373 1004,372 1004,371 1004,370 1004,369 1004,368 1004,367 1004,366 1004,364 1004,363 1004,361 1004,360 1004,358 1004,356 1004,355 1004,353 1004,351 1004,349 1004,347 1004,344 1004,342 1004,340 1004,337 1004,334 1004,332 1004,329 1004,326 1004,323 1004,320 1004,317 1004,314 1004,311 1004,308 1004,306 1004,303 1004,301 1004,299 1004,297 1004,296 1004,295 1004,294 1004,294 1004,294 1004,294 1004,295 1004,295 1004,296 1004,297 1004,297 1004,298 1004,299 1004,300 1004,301 1004,302 1004,303 1004,304 1004,305 1004,306 1004,307 1004,308 1004,309 1004,309 1004,310 1004,311 1004,312 1004,313 1004,313 1004,314 1004,315 1004,315 1004,316 1004,316 1004,316 1004,317 1004,317 1004,317 1004,317 1004,317 1004,316 1004,316 1004,315 1004,315 1004,314 1004,313 1004,312 1004,311 1004,310 1004,309 1004,307 1004,305 1004,303 1004,301 1004,299 1004,296 1004,293 1004,290 1004,286 1004,282 1004,278 1004,273 1004,267 1004,261 1004,254 1004,247 1004,241 1004,239 1004,241 1004,247 1004,253 1004,259 1004,265 1004,270 1004,275 1004,279 1004,282 1004,285 1004,288 1004,290 1004,292 1004,294 1004,295 1004,297 1004,298 1004,299 1004,300 1004,300 1004,301 1004,301 1004,301 1004,301 1004,301 1004,301 1004,301 1004,300 1004,300 1004,299 1004,299 1004,298 1004,297 1004,296 1004,295 1004,293 1004,292 1004,291 1004,290 1004,288 1004,287 1004,285 1004,284 1004,283 1004,282 1004,281 1004,280 1004,279 1004,279 1004,278 1004,278 1004,278 1004,278 1004,279 1004,279 1004,280 1004,280 1004,281 1004,281 1004,282 1004,283 1004,283 1004,283 1004,284 1004,284 1004,284 1004,285 1004,285 1004,285 1004,285 1004,284 1004,284 1004,284 1004,283 1004,283 1004,282 1004,282 1004,281 1004,280 1004,279 1004,278 1004,277 1004,276 1004,275 1004,274 1004,272 1004,271 1004,270 1004,268 1004,267 1004,265 1004,263 1004,262 1004,260 1004,258 1004,256 1004,254 1004,252 1004,250 1004,248 1004,246 1004,244 1004,242 1004,240 1004,238 1004,236 1004,234 1004,232 1004,229 1004,227 1004,224 1004,222 1004,219 1004,217 1004,214 1004,211 1004,208 1004,205 1004,201 1004,198 1004,195 1004,192 1004,189 1004,187 1004,185 1004,184 1004,184 1004,184 1004,185 1004,187 1004,189 1004,191 1004,193 1004,195 1004,196 1004,198 1004,199 1004,201 1004,202 1004,203 1004,203 1004,204 1004,204 1004,204 1004,204 1004,204 1004,204 1004,203 1004,203 1004,202 1004,201 1004,200 1004,199 1004,197 1004,196 1004,194 1004,192 1004,190 1004,188 1004,186 1004,184 1004,181 1004,179 1004,177 1004,175 1004,174 1004,173 1004,172 1004,171 1004,171 1004,172 1004,172 1004,173 1004,174 1004,175 1004,176 1004,177 1004,178 1004,179 1004,180 1004,181 1004,181 1004,182 1004,182 1004,183 1004,183 1004,183 1004,183 1004,183 1004,183 1004,183 1004,183 1004,183 1004,183 1004,183 1004,182 1004,182 1004,182 1004,182 1004,182 1004,182 1004,182 1004,182 1004,182 1004,182 1004,182 1004,183 1004,183 1004,183 1004,183 1004,183 1004,184 1004,184 1004,184 1004,184 1004,184 1004,184 1004,184 1004,185 1004,185 1004,185 1004,185 1004,185 1004,185 1004,185 1004,185 1004,185 1004,185 1004,185 1004,185 1004,185 1004,185 1004,185 1004,185 1004,185 1004,185 1004,185 1004,185 1004,185 1004,185 1004,186 1004,186 1004,186 1004,186 1004,186 1004,186 1004,186 1004,186 1004,186 1004,186 1004,186 1004,186 1004,186 1004,186 1004,186 1004,186 1004,185 1004,185 1004,185 1004,185 1004,185 1004,185 1004,185 1004,185 1004,185 1004,185 1004,185 1004,185 1004,185 1004,185 1004,185 1004,185 1004,185 1004,185 1004,185 1004,185 1004,185 1004,185 1004,185 1004,185 1004,185 1004,185 1004,185 1004,185 1004,185 1004,185 1004,185 1004,185 1004,185 1004,185 1004,185 1004,185 1004,185 1004,185 1004,185 1004,185 1004,185 1004,185 1004,185 1004,185 1004,185 1004,185 1004,185 1004,185 1004,185 1004,185 1004,185 1004,185 1004,185 1004,185 1004,185 1004,185 1004,185 1004,185 1004,185 1004,185 1004,185 1004,185 1004,185 1004,185 1004,185 1004,185 1004,185 1004,185 1004,185 1004,185 1004,185 1004,185 1004,185 1004,185 1004,185 1004,184 1004,184 1004,184 1004,184 1004,184 1004,184 1004,184 1004,184 1004,184 1004,184 1004,184 1004,184 1004,184 1004,184 1004,184 1004,184 1004,184 1004,184 1004,184 1004,184 1004,184 1004,184 1004,184 1004,184 1004,184 1004,184 1004,184 1004,184 1004,184 1004,184 1004,184 1004,184 1004,184 1004,184 1004,184 1004,184 1004,184 1004,184 1004,184 1004,184 1004,184 1004,184 1004,184 1004,184 1004,184 1004,184 1004,184 1004,184 1004,184 1004,184 1004,184 1004,184 1004,184 1004,184 1004,184 1004,184 1004,184 1004,184 1004,184 1004,184 1004,184 1004,184 1004,184 1004,184 1004,184 1004,184 1004,184 1004,184 1004,184 1004,184 1004,184 1004,184 1004,184 1004,184 1004,184 1004,184 1004,184 1004,184 1004,184 1004,184 1004,184 1004,184 1004,184 1004,184 1004,184 1004,184 1004,184 1004,184 1004,184 1004,184 1004,184 1004,184 1004,184 1004,184 1004,184 1004,184 1004,184 1004,184 1004,184 1004,184 1004,184 1004,184 1004,184 1004,184 1004,184 1004,184 1004,183 1004,183 1004,183 1004,183 1004,183 1004,183 1004,183 1004,183 1004,183 1004,183 1004,182 1004,182 1004,182 1004,182 1004,182 1004,182 1004,182 1004,182 1004,182 1004,182 "/>
<rect x="514" y="25" width="485" height="157" opacity="0.8" fill="#FFFFFF" stroke="none"/>
<rect x="514" y="25" width="485" height="157" opacity="1" fill="none" stroke="#000000"/>
<text x="554" y="35" dy="0.76em" text-anchor="start" font-family="sans-serif" font-size="24.193548387096776" opacity="1" fill="#000000">
(1) log_power
</text>
<text x="554" y="73" dy="0.76em" text-anchor="start" font-family="sans-serif" font-size="24.193548387096776" opacity="1" fill="#000000">
(2) spectral_envelope by cepstrum
</text>
<text x="554" y="110" dy="0.76em" text-anchor="start" font-family="sans-serif" font-size="24.193548387096776" opacity="1" fill="#000000">
(3) spectral_envelope by levinson-durbin
</text>
<text x="554" y="148" dy="0.76em" text-anchor="start" font-family="sans-serif" font-size="24.193548387096776" opacity="1" fill="#000000">
(4) spectral_envelope by burg
</text>
<polyline fill="none" opacity="1" stroke="#E6194B" stroke-width="1" points="524,47 544,47 "/>
<polyline fill="none" opacity="1" stroke="#3CB44B" stroke-width="1" points="524,85 544,85 "/>
<polyline fill="none" opacity="1" stroke="#FFE119" stroke-width="1" points="524,122 544,122 "/>
<polyline fill="none" opacity="1" stroke="#0082C8" stroke-width="1" points="524,160 544,160 "/>
</svg>
