<svg width="1024" height="768" viewBox="0 0 1024 768" xmlns="http://www.w3.org/2000/svg">
<rect x="0" y="0" width="1024" height="768" opacity="1" fill="#FFFFFF" stroke="none"/>
<line opacity="0.1" stroke="#000000" stroke-width="1" x1="130" y1="657" x2="130" y2="20"/>
<line opacity="0.1" stroke="#000000" stroke-width="1" x1="140" y1="657" x2="140" y2="20"/>
<line opacity="0.1" stroke="#000000" stroke-width="1" x1="151" y1="657" x2="151" y2="20"/>
<line opacity="0.1" stroke="#000000" stroke-width="1" x1="162" y1="657" x2="162" y2="20"/>
<line opacity="0.1" stroke="#000000" stroke-width="1" x1="173" y1="657" x2="173" y2="20"/>
<line opacity="0.1" stroke="#000000" stroke-width="1" x1="184" y1="657" x2="184" y2="20"/>
<line opacity="0.1" stroke="#000000" stroke-width="1" x1="195" y1="657" x2="195" y2="20"/>
<line opacity="0.1" stroke="#000000" stroke-width="1" x1="206" y1="657" x2="206" y2="20"/>
<line opacity="0.1" stroke="#000000" stroke-width="1" x1="217" y1="657" x2="217" y2="20"/>
<line opacity="0.1" stroke="#000000" stroke-width="1" x1="228" y1="657" x2="228" y2="20"/>
<line opacity="0.1" stroke="#000000" stroke-width="1" x1="239" y1="657" x2="239" y2="20"/>
<line opacity="0.1" stroke="#000000" stroke-width="1" x1="250" y1="657" x2="250" y2="20"/>
<line opacity="0.1" stroke="#000000" stroke-width="1" x1="260" y1="657" x2="260" y2="20"/>
<line opacity="0.1" stroke="#000000" stroke-width="1" x1="271" y1="657" x2="271" y2="20"/>
<line opacity="0.1" stroke="#000000" stroke-width="1" x1="282" y1="657" x2="282" y2="20"/>
<line opacity="0.1" stroke="#000000" stroke-width="1" x1="293" y1="657" x2="293" y2="20"/>
<line opacity="0.1" stroke="#000000" stroke-width="1" x1="304" y1="657" x2="304" y2="20"/>
<line opacity="0.1" stroke="#000000" stroke-width="1" x1="315" y1="657" x2="315" y2="20"/>
<line opacity="0.1" stroke="#000000" stroke-width="1" x1="326" y1="657" x2="326" y2="20"/>
<line opacity="0.1" stroke="#000000" stroke-width="1" x1="337" y1="657" x2="337" y2="20"/>
<line opacity="0.1" stroke="#000000" stroke-width="1" x1="348" y1="657" x2="348" y2="20"/>
<line opacity="0.1" stroke="#000000" stroke-width="1" x1="359" y1="657" x2="359" y2="20"/>
<line opacity="0.1" stroke="#000000" stroke-width="1" x1="370" y1="657" x2="370" y2="20"/>
<line opacity="0.1" stroke="#000000" stroke-width="1" x1="380" y1="657" x2="380" y2="20"/>
<line opacity="0.1" stroke="#000000" stroke-width="1" x1="391" y1="657" x2="391" y2="20"/>
<line opacity="0.1" stroke="#000000" stroke-width="1" x1="402" y1="657" x2="402" y2="20"/>
<line opacity="0.1" stroke="#000000" stroke-width="1" x1="413" y1="657" x2="413" y2="20"/>
<line opacity="0.1" stroke="#000000" stroke-width="1" x1="424" y1="657" x2="424" y2="20"/>
<line opacity="0.1" stroke="#000000" stroke-width="1" x1="435" y1="657" x2="435" y2="20"/>
<line opacity="0.1" stroke="#000000" stroke-width="1" x1="446" y1="657" x2="446" y2="20"/>
<line opacity="0.1" stroke="#000000" stroke-width="1" x1="457" y1="657" x2="457" y2="20"/>
<line opacity="0.1" stroke="#000000" stroke-width="1" x1="468" y1="657" x2="468" y2="20"/>
<line opacity="0.1" stroke="#000000" stroke-width="1" x1="479" y1="657" x2="479" y2="20"/>
<line opacity="0.1" stroke="#000000" stroke-width="1" x1="490" y1="657" x2="490" y2="20"/>
<line opacity="0.1" stroke="#000000" stroke-width="1" x1="501" y1="657" x2="501" y2="20"/>
<line opacity="0.1" stroke="#000000" stroke-width="1" x1="511" y1="657" x2="511" y2="20"/>
<line opacity="0.1" stroke="#000000" stroke-width="1" x1="522" y1="657" x2="522" y2="20"/>
<line opacity="0.1" stroke="#000000" stroke-width="1" x1="533" y1="657" x2="533" y2="20"/>
<line opacity="0.1" stroke="#000000" stroke-width="1" x1="544" y1="657" x2="544" y2="20"/>
<line opacity="0.1" stroke="#000000" stroke-width="1" x1="555" y1="657" x2="555" y2="20"/>
<line opacity="0.1" stroke="#000000" stroke-width="1" x1="566" y1="657" x2="566" y2="20"/>
<line opacity="0.1" stroke="#000000" stroke-width="1" x1="577" y1="657" x2="577" y2="20"/>
<line opacity="0.1" stroke="#000000" stroke-width="1" x1="588" y1="657" x2="588" y2="20"/>
<line opacity="0.1" stroke="#000000" stroke-width="1" x1="599" y1="657" x2="599" y2="20"/>
<line opacity="0.1" stroke="#000000" stroke-width="1" x1="610" y1="657" x2="610" y2="20"/>
<line opacity="0.1" stroke="#000000" stroke-width="1" x1="621" y1="657" x2="621" y2="20"/>
<line opacity="0.1" stroke="#000000" stroke-width="1" x1="631" y1="657" x2="631" y2="20"/>
<line opacity="0.1" stroke="#000000" stroke-width="1" x1="642" y1="657" x2="642" y2="20"/>
<line opacity="0.1" stroke="#000000" stroke-width="1" x1="653" y1="657" x2="653" y2="20"/>
<line opacity="0.1" stroke="#000000" stroke-width="1" x1="664" y1="657" x2="664" y2="20"/>
<line opacity="0.1" stroke="#000000" stroke-width="1" x1="675" y1="657" x2="675" y2="20"/>
<line opacity="0.1" stroke="#000000" stroke-width="1" x1="686" y1="657" x2="686" y2="20"/>
<line opacity="0.1" stroke="#000000" stroke-width="1" x1="697" y1="657" x2="697" y2="20"/>
<line opacity="0.1" stroke="#000000" stroke-width="1" x1="708" y1="657" x2="708" y2="20"/>
<line opacity="0.1" stroke="#000000" stroke-width="1" x1="719" y1="657" x2="719" y2="20"/>
<line opacity="0.1" stroke="#000000" stroke-width="1" x1="730" y1="657" x2="730" y2="20"/>
<line opacity="0.1" stroke="#000000" stroke-width="1" x1="741" y1="657" x2="741" y2="20"/>
<line opacity="0.1" stroke="#000000" stroke-width="1" x1="752" y1="657" x2="752" y2="20"/>
<line opacity="0.1" stroke="#000000" stroke-width="1" x1="762" y1="657" x2="762" y2="20"/>
<line opacity="0.1" stroke="#000000" stroke-width="1" x1="773" y1="657" x2="773" y2="20"/>
<line opacity="0.1" stroke="#000000" stroke-width="1" x1="784" y1="657" x2="784" y2="20"/>
<line opacity="0.1" stroke="#000000" stroke-width="1" x1="795" y1="657" x2="795" y2="20"/>
<line opacity="0.1" stroke="#000000" stroke-width="1" x1="806" y1="657" x2="806" y2="20"/>
<line opacity="0.1" stroke="#000000" stroke-width="1" x1="817" y1="657" x2="817" y2="20"/>
<line opacity="0.1" stroke="#000000" stroke-width="1" x1="828" y1="657" x2="828" y2="20"/>
<line opacity="0.1" stroke="#000000" stroke-width="1" x1="839" y1="657" x2="839" y2="20"/>
<line opacity="0.1" stroke="#000000" stroke-width="1" x1="850" y1="657" x2="850" y2="20"/>
<line opacity="0.1" stroke="#000000" stroke-width="1" x1="861" y1="657" x2="861" y2="20"/>
<line opacity="0.1" stroke="#000000" stroke-width="1" x1="872" y1="657" x2="872" y2="20"/>
<line opacity="0.1" stroke="#000000" stroke-width="1" x1="882" y1="657" x2="882" y2="20"/>
<line opacity="0.1" stroke="#000000" stroke-width="1" x1="893" y1="657" x2="893" y2="20"/>
<line opacity="0.1" stroke="#000000" stroke-width="1" x1="904" y1="657" x2="904" y2="20"/>
<line opacity="0.1" stroke="#000000" stroke-width="1" x1="915" y1="657" x2="915" y2="20"/>
<line opacity="0.1" stroke="#000000" stroke-width="1" x1="926" y1="657" x2="926" y2="20"/>
<line opacity="0.1" stroke="#000000" stroke-width="1" x1="937" y1="657" x2="937" y2="20"/>
<line opacity="0.1" stroke="#000000" stroke-width="1" x1="948" y1="657" x2="948" y2="20"/>
<line opacity="0.1" stroke="#000000" stroke-width="1" x1="959" y1="657" x2="959" y2="20"/>
<line opacity="0.1" stroke="#000000" stroke-width="1" x1="970" y1="657" x2="970" y2="20"/>
<line opacity="0.1" stroke="#000000" stroke-width="1" x1="981" y1="657" x2="981" y2="20"/>
<line opacity="0.1" stroke="#000000" stroke-width="1" x1="992" y1="657" x2="992" y2="20"/>
<line opacity="0.1" stroke="#000000" stroke-width="1" x1="1003" y1="657" x2="1003" y2="20"/>
<line opacity="0.1" stroke="#000000" stroke-width="1" x1="130" y1="657" x2="1003" y2="657"/>
<line opacity="0.1" stroke="#000000" stroke-width="1" x1="130" y1="648" x2="1003" y2="648"/>
<line opacity="0.1" stroke="#000000" stroke-width="1" x1="130" y1="639" x2="1003" y2="639"/>
<line opacity="0.1" stroke="#000000" stroke-width="1" x1="130" y1="630" x2="1003" y2="630"/>
<line opacity="0.1" stroke="#000000" stroke-width="1" x1="130" y1="621" x2="1003" y2="621"/>
<line opacity="0.1" stroke="#000000" stroke-width="1" x1="130" y1="612" x2="1003" y2="612"/>
<line opacity="0.1" stroke="#000000" stroke-width="1" x1="130" y1="603" x2="1003" y2="603"/>
<line opacity="0.1" stroke="#000000" stroke-width="1" x1="130" y1="594" x2="1003" y2="594"/>
<line opacity="0.1" stroke="#000000" stroke-width="1" x1="130" y1="585" x2="1003" y2="585"/>
<line opacity="0.1" stroke="#000000" stroke-width="1" x1="130" y1="576" x2="1003" y2="576"/>
<line opacity="0.1" stroke="#000000" stroke-width="1" x1="130" y1="566" x2="1003" y2="566"/>
<line opacity="0.1" stroke="#000000" stroke-width="1" x1="130" y1="557" x2="1003" y2="557"/>
<line opacity="0.1" stroke="#000000" stroke-width="1" x1="130" y1="548" x2="1003" y2="548"/>
<line opacity="0.1" stroke="#000000" stroke-width="1" x1="130" y1="539" x2="1003" y2="539"/>
<line opacity="0.1" stroke="#000000" stroke-width="1" x1="130" y1="530" x2="1003" y2="530"/>
<line opacity="0.1" stroke="#000000" stroke-width="1" x1="130" y1="521" x2="1003" y2="521"/>
<line opacity="0.1" stroke="#000000" stroke-width="1" x1="130" y1="512" x2="1003" y2="512"/>
<line opacity="0.1" stroke="#000000" stroke-width="1" x1="130" y1="503" x2="1003" y2="503"/>
<line opacity="0.1" stroke="#000000" stroke-width="1" x1="130" y1="494" x2="1003" y2="494"/>
<line opacity="0.1" stroke="#000000" stroke-width="1" x1="130" y1="485" x2="1003" y2="485"/>
<line opacity="0.1" stroke="#000000" stroke-width="1" x1="130" y1="475" x2="1003" y2="475"/>
<line opacity="0.1" stroke="#000000" stroke-width="1" x1="130" y1="466" x2="1003" y2="466"/>
<line opacity="0.1" stroke="#000000" stroke-width="1" x1="130" y1="457" x2="1003" y2="457"/>
<line opacity="0.1" stroke="#000000" stroke-width="1" x1="130" y1="448" x2="1003" y2="448"/>
<line opacity="0.1" stroke="#000000" stroke-width="1" x1="130" y1="439" x2="1003" y2="439"/>
<line opacity="0.1" stroke="#000000" stroke-width="1" x1="130" y1="430" x2="1003" y2="430"/>
<line opacity="0.1" stroke="#000000" stroke-width="1" x1="130" y1="421" x2="1003" y2="421"/>
<line opacity="0.1" stroke="#000000" stroke-width="1" x1="130" y1="412" x2="1003" y2="412"/>
<line opacity="0.1" stroke="#000000" stroke-width="1" x1="130" y1="403" x2="1003" y2="403"/>
<line opacity="0.1" stroke="#000000" stroke-width="1" x1="130" y1="394" x2="1003" y2="394"/>
<line opacity="0.1" stroke="#000000" stroke-width="1" x1="130" y1="384" x2="1003" y2="384"/>
<line opacity="0.1" stroke="#000000" stroke-width="1" x1="130" y1="375" x2="1003" y2="375"/>
<line opacity="0.1" stroke="#000000" stroke-width="1" x1="130" y1="366" x2="1003" y2="366"/>
<line opacity="0.1" stroke="#000000" stroke-width="1" x1="130" y1="357" x2="1003" y2="357"/>
<line opacity="0.1" stroke="#000000" stroke-width="1" x1="130" y1="348" x2="1003" y2="348"/>
<line opacity="0.1" stroke="#000000" stroke-width="1" x1="130" y1="339" x2="1003" y2="339"/>
<line opacity="0.1" stroke="#000000" stroke-width="1" x1="130" y1="330" x2="1003" y2="330"/>
<line opacity="0.1" stroke="#000000" stroke-width="1" x1="130" y1="321" x2="1003" y2="321"/>
<line opacity="0.1" stroke="#000000" stroke-width="1" x1="130" y1="312" x2="1003" y2="312"/>
<line opacity="0.1" stroke="#000000" stroke-width="1" x1="130" y1="303" x2="1003" y2="303"/>
<line opacity="0.1" stroke="#000000" stroke-width="1" x1="130" y1="293" x2="1003" y2="293"/>
<line opacity="0.1" stroke="#000000" stroke-width="1" x1="130" y1="284" x2="1003" y2="284"/>
<line opacity="0.1" stroke="#000000" stroke-width="1" x1="130" y1="275" x2="1003" y2="275"/>
<line opacity="0.1" stroke="#000000" stroke-width="1" x1="130" y1="266" x2="1003" y2="266"/>
<line opacity="0.1" stroke="#000000" stroke-width="1" x1="130" y1="257" x2="1003" y2="257"/>
<line opacity="0.1" stroke="#000000" stroke-width="1" x1="130" y1="248" x2="1003" y2="248"/>
<line opacity="0.1" stroke="#000000" stroke-width="1" x1="130" y1="239" x2="1003" y2="239"/>
<line opacity="0.1" stroke="#000000" stroke-width="1" x1="130" y1="230" x2="1003" y2="230"/>
<line opacity="0.1" stroke="#000000" stroke-width="1" x1="130" y1="221" x2="1003" y2="221"/>
<line opacity="0.1" stroke="#000000" stroke-width="1" x1="130" y1="212" x2="1003" y2="212"/>
<line opacity="0.1" stroke="#000000" stroke-width="1" x1="130" y1="202" x2="1003" y2="202"/>
<line opacity="0.1" stroke="#000000" stroke-width="1" x1="130" y1="193" x2="1003" y2="193"/>
<line opacity="0.1" stroke="#000000" stroke-width="1" x1="130" y1="184" x2="1003" y2="184"/>
<line opacity="0.1" stroke="#000000" stroke-width="1" x1="130" y1="175" x2="1003" y2="175"/>
<line opacity="0.1" stroke="#000000" stroke-width="1" x1="130" y1="166" x2="1003" y2="166"/>
<line opacity="0.1" stroke="#000000" stroke-width="1" x1="130" y1="157" x2="1003" y2="157"/>
<line opacity="0.1" stroke="#000000" stroke-width="1" x1="130" y1="148" x2="1003" y2="148"/>
<line opacity="0.1" stroke="#000000" stroke-width="1" x1="130" y1="139" x2="1003" y2="139"/>
<line opacity="0.1" stroke="#000000" stroke-width="1" x1="130" y1="130" x2="1003" y2="130"/>
<line opacity="0.1" stroke="#000000" stroke-width="1" x1="130" y1="121" x2="1003" y2="121"/>
<line opacity="0.1" stroke="#000000" stroke-width="1" x1="130" y1="111" x2="1003" y2="111"/>
<line opacity="0.1" stroke="#000000" stroke-width="1" x1="130" y1="102" x2="1003" y2="102"/>
<line opacity="0.1" stroke="#000000" stroke-width="1" x1="130" y1="93" x2="1003" y2="93"/>
<line opacity="0.1" stroke="#000000" stroke-width="1" x1="130" y1="84" x2="1003" y2="84"/>
<line opacity="0.1" stroke="#000000" stroke-width="1" x1="130" y1="75" x2="1003" y2="75"/>
<line opacity="0.1" stroke="#000000" stroke-width="1" x1="130" y1="66" x2="1003" y2="66"/>
<line opacity="0.1" stroke="#000000" stroke-width="1" x1="130" y1="57" x2="1003" y2="57"/>
<line opacity="0.1" stroke="#000000" stroke-width="1" x1="130" y1="48" x2="1003" y2="48"/>
<line opacity="0.1" stroke="#000000" stroke-width="1" x1="130" y1="39" x2="1003" y2="39"/>
<line opacity="0.1" stroke="#000000" stroke-width="1" x1="130" y1="30" x2="1003" y2="30"/>
<line opacity="0.1" stroke="#000000" stroke-width="1" x1="130" y1="20" x2="1003" y2="20"/>
<text x="20" y="339" dy="0.76em" text-anchor="middle" font-family="sans-serif" font-size="24.193548387096776" opacity="1" fill="#000000" transform="rotate(270, 20, 339)">
Power [dB]
</text>
<text x="567" y="748" dy="-0.5ex" text-anchor="middle" font-family="sans-serif" font-size="24.193548387096776" opacity="1" fill="#000000">
Frequency [Hz]
</text>
<line opacity="0.2" stroke="#000000" stroke-width="1" x1="130" y1="657" x2="130" y2="20"/>
<line opacity="0.2" stroke="#000000" stroke-width="1" x1="239" y1="657" x2="239" y2="20"/>
<line opacity="0.2" stroke="#000000" stroke-width="1" x1="348" y1="657" x2="348" y2="20"/>
<line opacity="0.2" stroke="#000000" stroke-width="1" x1="457" y1="657" x2="457" y2="20"/>
<line opacity="0.2" stroke="#000000" stroke-width="1" x1="566" y1="657" x2="566" y2="20"/>
<line opacity="0.2" stroke="#000000" stroke-width="1" x1="675" y1="657" x2="675" y2="20"/>
<line opacity="0.2" stroke="#000000" stroke-width="1" x1="784" y1="657" x2="784" y2="20"/>
<line opacity="0.2" stroke="#000000" stroke-width="1" x1="893" y1="657" x2="893" y2="20"/>
<line opacity="0.2" stroke="#000000" stroke-width="1" x1="1003" y1="657" x2="1003" y2="20"/>
<line opacity="0.2" stroke="#000000" stroke-width="1" x1="130" y1="657" x2="1003" y2="657"/>
<line opacity="0.2" stroke="#000000" stroke-width="1" x1="130" y1="566" x2="1003" y2="566"/>
<line opacity="0.2" stroke="#000000" stroke-width="1" x1="130" y1="475" x2="1003" y2="475"/>
<line opacity="0.2" stroke="#000000" stroke-width="1" x1="130" y1="384" x2="1003" y2="384"/>
<line opacity="0.2" stroke="#000000" stroke-width="1" x1="130" y1="293" x2="1003" y2="293"/>
<line opacity="0.2" stroke="#000000" stroke-width="1" x1="130" y1="202" x2="1003" y2="202"/>
<line opacity="0.2" stroke="#000000" stroke-width="1" x1="130" y1="111" x2="1003" y2="111"/>
<line opacity="0.2" stroke="#000000" stroke-width="1" x1="130" y1="20" x2="1003" y2="20"/>
<polyline fill="none" opacity="1" stroke="#000000" stroke-width="1" points="129,20 129,657 "/>
<text x="120" y="657" dy="0.5ex" text-anchor="end" font-family="sans-serif" font-size="24.193548387096776" opacity="1" fill="#000000">
-100.0
</text>
<polyline fill="none" opacity="1" stroke="#000000" stroke-width="1" points="124,657 129,657 "/>
<text x="120" y="566" dy="0.5ex" text-anchor="end" font-family="sans-serif" font-size="24.193548387096776" opacity="1" fill="#000000">
-80.0
</text>
<polyline fill="none" opacity="1" stroke="#000000" stroke-width="1" points="124,566 129,566 "/>
<text x="120" y="475" dy="0.5ex" text-anchor="end" font-family="sans-serif" font-size="24.193548387096776" opacity="1" fill="#000000">
-60.0
</text>
<polyline fill="none" opacity="1" stroke="#000000" stroke-width="1" points="124,475 129,475 "/>
<text x="120" y="384" dy="0.5ex" text-anchor="end" font-family="sans-serif" font-size="24.193548387096776" opacity="1" fill="#000000">
-40.0
</text>
<polyline fill="none" opacity="1" stroke="#000000" stroke-width="1" points="124,384 129,384 "/>
<text x="120" y="293" dy="0.5ex" text-anchor="end" font-family="sans-serif" font-size="24.193548387096776" opacity="1" fill="#000000">
-20.0
</text>
<polyline fill="none" opacity="1" stroke="#000000" stroke-width="1" points="124,293 129,293 "/>
<text x="120" y="202" dy="0.5ex" text-anchor="end" font-family="sans-serif" font-size="24.193548387096776" opacity="1" fill="#000000">
0.0
</text>
<polyline fill="none" opacity="1" stroke="#000000" stroke-width="1" points="124,202 129,202 "/>
<text x="120" y="111" dy="0.5ex" text-anchor="end" font-family="sans-serif" font-size="24.193548387096776" opacity="1" fill="#000000">
20.0
</text>
<polyline fill="none" opacity="1" stroke="#000000" stroke-width="1" points="124,111 129,111 "/>
<text x="120" y="20" dy="0.5ex" text-anchor="end" font-family="sans-serif" font-size="24.193548387096776" opacity="1" fill="#000000">
40.0
</text>
<polyline fill="none" opacity="1" stroke="#000000" stroke-width="1" points="124,20 129,20 "/>
<polyline fill="none" opacity="1" stroke="#000000" stroke-width="1" points="130,658 1003,658 "/>
<text x="130" y="668" dy="0.76em" text-anchor="middle" font-family="sans-serif" font-size="24.193548387096776" opacity="1" fill="#000000">
0.0
</text>
<polyline fill="none" opacity="1" stroke="#000000" stroke-width="1" points="130,658 130,663 "/>
<text x="239" y="668" dy="0.76em" text-anchor="middle" font-family="sans-serif" font-size="24.193548387096776" opacity="1" fill="#000000">
1000.0
</text>
<polyline fill="none" opacity="1" stroke="#000000" stroke-width="1" points="239,658 239,663 "/>
<text x="348" y="668" dy="0.76em" text-anchor="middle" font-family="sans-serif" font-size="24.193548387096776" opacity="1" fill="#000000">
2000.0
</text>
<polyline fill="none" opacity="1" stroke="#000000" stroke-width="1" points="348,658 348,663 "/>
<text x="457" y="668" dy="0.76em" text-anchor="middle" font-family="sans-serif" font-size="24.193548387096776" opacity="1" fill="#000000">
3000.0
</text>
<polyline fill="none" opacity="1" stroke="#000000" stroke-width="1" points="457,658 457,663 "/>
<text x="566" y="668" dy="0.76em" text-anchor="middle" font-family="sans-serif" font-size="24.193548387096776" opacity="1" fill="#000000">
4000.0
</text>
<polyline fill="none" opacity="1" stroke="#000000" stroke-width="1" points="566,658 566,663 "/>
<text x="675" y="668" dy="0.76em" text-anchor="middle" font-family="sans-serif" font-size="24.193548387096776" opacity="1" fill="#000000">
5000.0
</text>
<polyline fill="none" opacity="1" stroke="#000000" stroke-width="1" points="675,658 675,663 "/>
<text x="784" y="668" dy="0.76em" text-anchor="middle" font-family="sans-serif" font-size="24.193548387096776" opacity="1" fill="#000000">
6000.0
</text>
<polyline fill="none" opacity="1" stroke="#000000" stroke-width="1" points="784,658 784,663 "/>
<text x="893" y="668" dy="0.76em" text-anchor="middle" font-family="sans-serif" font-size="24.193548387096776" opacity="1" fill="#000000">
7000.0
</text>
<polyline fill="none" opacity="1" stroke="#000000" stroke-width="1" points="893,658 893,663 "/>
<text x="1003" y="668" dy="0.76em" text-anchor="middle" font-family="sans-serif" font-size="24.193548387096776" opacity="1" fill="#000000">
8000.0
</text>
<polyline fill="none" opacity="1" stroke="#000000" stroke-width="1" points="1003,658 1003,663 "/>
<polyline fill="none" opacity="1" stroke="#E6194B" stroke-width="1" points="130,330 131,333 133,323 134,312 136,310 137,322 139,309 140,272 142,316 143,225 145,180 146,190 148,236 149,202 151,226 152,218 154,217 155,256 157,232 158,164 160,126 161,129 163,207 164,218 166,309 167,341 169,265 170,300 172,293 173,301 175,209 176,223 178,255 180,217 181,221 183,221 184,227 186,225 187,195 189,212 190,109 192,81 193,113 195,220 196,229 198,257 199,292 201,271 202,325 204,221 205,175 207,214 208,242 210,197 211,222 213,211 214,227 216,225 217,163 219,163 220,119 222,97 223,145 225,232 227,192 228,232 230,274 231,334 233,288 234,312 236,254 237,208 239,214 240,249 242,412 243,309 245,226 246,224 248,247 249,186 251,205 252,147 254,132 255,154 257,260 258,305 260,344 261,308 263,275 264,292 266,280 267,269 269,230 270,240 272,294 273,276 275,200 277,202 278,179 280,220 281,176 283,174 284,145 286,184 287,213 289,219 290,288 292,222 293,210 295,352 296,260 298,228 299,240 301,211 302,334 304,203 305,231 307,157 308,236 310,117 311,218 313,90 314,62 316,65 317,98 319,139 320,186 322,186 324,309 325,177 327,202 328,141 330,124 331,126 333,158 334,186 336,369 337,194 339,150 340,219 342,154 343,181 345,115 346,85 348,107 349,170 351,190 352,202 354,239 355,316 357,405 358,289 360,294 361,268 363,238 364,267 366,326 367,276 369,202 370,267 372,206 374,221 375,139 377,104 378,116 380,168 381,251 383,230 384,265 386,290 387,346 389,391 390,215 392,198 393,152 395,191 396,239 398,337 399,306 401,189 402,156 404,183 405,278 407,216 408,154 410,139 411,246 413,203 414,227 416,204 417,342 419,211 421,311 422,183 424,179 425,187 427,241 428,206 430,248 431,197 433,281 434,260 436,212 437,204 439,259 440,181 442,207 443,288 445,267 446,263 448,389 449,283 451,278 452,284 454,319 455,399 457,334 458,372 460,249 461,319 463,247 464,307 466,310 467,272 469,176 471,144 472,162 474,203 475,231 477,300 478,285 480,297 481,252 483,292 484,245 486,209 487,217 489,206 490,277 492,223 493,347 495,279 496,213 498,213 499,264 501,177 502,189 504,278 505,289 507,356 508,313 510,323 511,431 513,284 514,324 516,268 518,326 519,435 521,396 522,408 524,357 525,364 527,334 528,291 530,360 531,222 533,216 534,239 536,280 537,275 539,246 540,274 542,340 543,433 545,382 546,388 548,369 549,372 551,369 552,349 554,308 555,344 557,335 558,367 560,302 561,432 563,292 564,350 566,275 568,270 569,274 571,487 572,368 574,275 575,300 577,405 578,404 580,399 581,290 583,292 584,352 586,383 587,380 589,410 590,392 592,329 593,342 595,372 596,457 598,393 599,457 601,445 602,377 604,370 605,433 607,410 608,447 610,368 611,420 613,370 615,391 616,398 618,482 619,373 621,347 622,321 624,288 625,258 627,286 628,360 630,401 631,379 633,342 634,401 636,435 637,421 639,440 640,415 642,353 643,352 645,478 646,376 648,355 649,381 651,395 652,408 654,464 655,422 657,396 658,426 660,494 661,431 663,402 665,516 666,441 668,400 669,389 671,373 672,444 674,470 675,402 677,374 678,431 680,346 681,348 683,542 684,412 686,419 687,380 689,409 690,634 692,494 693,535 695,535 696,604 698,503 699,516 701,507 702,480 704,536 705,566 707,444 708,404 710,437 712,507 713,525 715,436 716,484 718,639 719,577 721,522 722,599 724,594 725,575 727,658 728,578 730,571 731,578 733,658 734,514 736,489 737,520 739,566 740,515 742,549 743,518 745,544 746,448 748,506 749,411 751,387 752,369 754,515 755,452 757,632 758,490 760,480 762,457 763,471 765,495 766,497 768,503 769,550 771,530 772,516 774,555 775,557 777,553 778,615 780,576 781,607 783,556 784,518 786,520 787,540 789,597 790,534 792,585 793,512 795,495 796,498 798,562 799,508 801,597 802,501 804,517 805,445 807,463 809,418 810,426 812,571 813,562 815,615 816,514 818,503 819,410 821,373 822,385 824,467 825,493 827,588 828,592 830,557 831,541 833,658 834,646 836,550 837,484 839,408 840,377 842,383 843,430 845,434 846,391 848,397 849,469 851,528 852,539 854,585 855,608 857,658 859,608 860,564 862,557 863,580 865,564 866,577 868,558 869,543 871,579 872,658 874,531 875,495 877,503 878,573 880,543 881,595 883,546 884,543 886,553 887,558 889,544 890,431 892,383 893,393 895,537 896,469 898,545 899,577 901,544 902,658 904,522 906,512 907,521 909,600 910,530 912,583 913,543 915,504 916,497 918,420 919,394 921,419 922,525 924,496 925,529 927,518 928,497 930,582 931,421 933,394 934,416 936,547 937,520 939,499 940,564 942,504 943,519 945,564 946,559 948,512 949,563 951,517 952,635 954,570 956,498 957,479 959,519 960,528 962,536 963,529 965,509 966,535 968,551 969,599 971,581 972,567 974,568 975,599 977,617 978,621 980,593 981,614 983,551 984,542 986,547 987,604 989,609 990,554 992,495 993,480 995,554 996,527 998,545 999,585 1001,585 1003,567 1004,585 1004,585 1004,545 1004,527 1004,554 1004,480 1004,495 1004,554 1004,609 1004,604 1004,547 1004,542 1004,551 1004,614 1004,593 1004,621 1004,617 1004,599 1004,568 1004,567 1004,581 1004,599 1004,551 1004,535 1004,509 1004,529 1004,536 1004,528 1004,519 1004,479 1004,498 1004,570 1004,635 1004,517 1004,563 1004,512 1004,559 1004,564 1004,519 1004,504 1004,564 1004,499 1004,520 1004,547 1004,416 1004,394 1004,421 1004,582 1004,497 1004,518 1004,529 1004,496 1004,525 1004,419 1004,394 1004,420 1004,497 1004,504 1004,543 1004,583 1004,530 1004,600 1004,521 1004,512 1004,522 1004,658 1004,544 1004,577 1004,545 1004,469 1004,537 1004,393 1004,383 1004,431 1004,544 1004,558 1004,553 1004,543 1004,546 1004,595 1004,543 1004,573 1004,503 1004,495 1004,531 1004,658 1004,579 1004,543 1004,558 1004,577 1004,564 1004,580 1004,557 1004,564 1004,608 1004,658 1004,608 1004,585 1004,539 1004,528 1004,469 1004,397 1004,391 1004,434 1004,430 1004,383 1004,377 1004,408 1004,484 1004,550 1004,646 1004,658 1004,541 1004,557 1004,592 1004,588 1004,493 1004,467 1004,385 1004,373 1004,410 1004,503 1004,514 1004,615 1004,562 1004,571 1004,426 1004,418 1004,463 1004,445 1004,517 1004,501 1004,597 1004,508 1004,562 1004,498 1004,495 1004,512 1004,585 1004,534 1004,597 1004,540 1004,520 1004,518 1004,556 1004,607 1004,576 1004,615 1004,553 1004,557 1004,555 1004,516 1004,530 1004,550 1004,503 1004,497 1004,495 1004,471 1004,457 1004,480 1004,490 1004,632 1004,452 1004,515 1004,369 1004,387 1004,411 1004,506 1004,448 1004,544 1004,518 1004,549 1004,515 1004,566 1004,520 1004,489 1004,514 1004,658 1004,578 1004,571 1004,578 1004,658 1004,575 1004,594 1004,599 1004,522 1004,577 1004,639 1004,484 1004,436 1004,525 1004,507 1004,437 1004,404 1004,444 1004,566 1004,536 1004,480 1004,507 1004,516 1004,503 1004,604 1004,535 1004,535 1004,494 1004,634 1004,409 1004,380 1004,419 1004,412 1004,542 1004,348 1004,346 1004,431 1004,374 1004,402 1004,470 1004,444 1004,373 1004,389 1004,400 1004,441 1004,516 1004,402 1004,431 1004,494 1004,426 1004,396 1004,422 1004,464 1004,408 1004,395 1004,381 1004,355 1004,376 1004,478 1004,352 1004,353 1004,415 1004,440 1004,421 1004,435 1004,401 1004,342 1004,379 1004,401 1004,360 1004,286 1004,258 1004,288 1004,321 1004,347 1004,373 1004,482 1004,398 1004,391 1004,370 1004,420 1004,368 1004,447 1004,410 1004,433 1004,370 1004,377 1004,445 1004,457 1004,393 1004,457 1004,372 1004,342 1004,329 1004,392 1004,410 1004,380 1004,383 1004,352 1004,292 1004,290 1004,399 1004,404 1004,405 1004,300 1004,275 1004,368 1004,487 1004,274 1004,270 1004,275 1004,350 1004,292 1004,432 1004,302 1004,367 1004,335 1004,344 1004,308 1004,349 1004,369 1004,372 1004,369 1004,388 1004,382 1004,433 1004,340 1004,274 1004,246 1004,275 1004,280 1004,239 1004,216 1004,222 1004,360 1004,291 1004,334 1004,364 1004,357 1004,408 1004,396 1004,435 1004,326 1004,268 1004,324 1004,284 1004,431 1004,323 1004,313 1004,356 1004,289 1004,278 1004,189 1004,177 1004,264 1004,213 1004,213 1004,279 1004,347 1004,223 1004,277 1004,206 1004,217 1004,209 1004,245 1004,292 1004,252 1004,297 1004,285 1004,300 1004,231 1004,203 1004,162 1004,144 1004,176 1004,272 1004,310 1004,307 1004,247 1004,319 1004,249 1004,372 1004,334 1004,399 1004,319 1004,284 1004,278 1004,283 1004,389 1004,263 1004,267 1004,288 1004,207 1004,181 1004,259 1004,204 1004,212 1004,260 1004,281 1004,197 1004,248 1004,206 1004,241 1004,187 1004,179 1004,183 1004,311 1004,211 1004,342 1004,204 1004,227 1004,203 1004,246 1004,139 1004,154 1004,216 1004,278 1004,183 1004,156 1004,189 1004,306 1004,337 1004,239 1004,191 1004,152 1004,198 1004,215 1004,391 1004,346 1004,290 1004,265 1004,230 1004,251 1004,168 1004,116 1004,104 1004,139 1004,221 1004,206 1004,267 1004,202 1004,276 1004,326 1004,267 1004,238 1004,268 1004,294 1004,289 1004,405 1004,316 1004,239 1004,202 1004,190 1004,170 1004,107 1004,85 1004,115 1004,181 1004,154 1004,219 1004,150 1004,194 1004,369 1004,186 1004,158 1004,126 1004,124 1004,141 1004,202 1004,177 1004,309 1004,186 1004,186 1004,139 1004,98 1004,65 1004,62 1004,90 1004,218 1004,117 1004,236 1004,157 1004,231 1004,203 1004,334 1004,211 1004,240 1004,228 1004,260 1004,352 1004,210 1004,222 1004,288 1004,219 1004,213 1004,184 1004,145 1004,174 1004,176 1004,220 1004,179 1004,202 1004,200 1004,276 1004,294 1004,240 1004,230 1004,269 1004,280 1004,292 1004,275 1004,308 1004,344 1004,305 1004,260 1004,154 1004,132 1004,147 1004,205 1004,186 1004,247 1004,224 1004,226 1004,309 1004,412 1004,249 1004,214 1004,208 1004,254 1004,312 1004,288 1004,334 1004,274 1004,232 1004,192 1004,232 1004,145 1004,97 1004,119 1004,163 1004,163 1004,225 1004,227 1004,211 1004,222 1004,197 1004,242 1004,214 1004,175 1004,221 1004,325 1004,271 1004,292 1004,257 1004,229 1004,220 1004,113 1004,81 1004,109 1004,212 1004,195 1004,225 1004,227 1004,221 1004,221 1004,217 1004,255 1004,223 1004,209 1004,301 1004,293 1004,300 1004,265 1004,341 1004,309 1004,218 1004,207 1004,129 1004,126 1004,164 1004,232 1004,256 1004,217 1004,218 1004,226 1004,202 1004,236 1004,190 1004,180 1004,225 1004,316 1004,272 1004,309 1004,322 1004,310 1004,312 1004,323 1004,333 "/>
<polyline fill="none" opacity="1" stroke="#3CB44B" stroke-width="1" points="130,324 131,324 133,324 134,323 136,323 137,322 139,321 140,320 142,319 143,317 145,316 146,314 148,313 149,311 151,309 152,308 154,306 155,305 157,303 158,302 160,301 161,300 163,298 164,297 166,297 167,296 169,295 170,295 172,294 173,294 175,294 176,293 178,293 180,293 181,293 183,293 184,293 186,293 187,292 189,292 190,292 192,292 193,292 195,291 196,291 198,291 199,291 201,290 202,290 204,290 205,289 207,289 208,289 210,289 211,289 213,289 214,289 216,289 217,290 219,290 220,291 222,291 223,292 225,293 227,294 228,295 230,296 231,297 233,298 234,299 236,300 237,302 239,303 240,304 242,305 243,306 245,307 246,308 248,308 249,309 251,309 252,310 254,310 255,310 257,310 258,310 260,310 261,310 263,309 264,309 266,308 267,308 269,307 270,306 272,305 273,304 275,304 277,303 278,302 280,301 281,300 283,299 284,298 286,297 287,296 289,295 290,293 292,292 293,291 295,290 296,289 298,288 299,286 301,285 302,284 304,283 305,281 307,280 308,279 310,277 311,276 313,275 314,273 316,272 317,271 319,270 320,269 322,269 324,268 325,268 327,267 328,267 330,267 331,268 333,268 334,269 336,270 337,271 339,272 340,274 342,276 343,277 345,279 346,282 348,284 349,286 351,288 352,291 354,293 355,295 357,297 358,299 360,301 361,303 363,305 364,306 366,307 367,309 369,309 370,310 372,310 374,310 375,310 377,310 378,309 380,308 381,308 383,306 384,305 386,304 387,302 389,301 390,299 392,298 393,296 395,295 396,294 398,292 399,291 401,290 402,289 404,289 405,288 407,288 408,288 410,288 411,288 413,289 414,290 416,291 417,292 419,293 421,294 422,296 424,298 425,300 427,301 428,303 430,305 431,307 433,309 434,311 436,313 437,314 439,316 440,318 442,319 443,320 445,321 446,322 448,323 449,323 451,324 452,324 454,324 455,324 457,323 458,323 460,322 461,321 463,321 464,320 466,318 467,317 469,316 471,315 472,314 474,312 475,311 477,310 478,309 480,309 481,308 483,307 484,307 486,307 487,307 489,307 490,308 492,309 493,310 495,311 496,312 498,314 499,316 501,318 502,320 504,322 505,324 507,327 508,329 510,332 511,334 513,336 514,339 516,341 518,343 519,345 521,347 522,349 524,350 525,352 527,353 528,353 530,354 531,354 533,355 534,354 536,354 537,354 539,353 540,352 542,352 543,351 545,350 546,349 548,348 549,347 551,346 552,346 554,345 555,345 557,345 558,345 560,345 561,346 563,347 564,348 566,349 568,350 569,352 571,354 572,356 574,358 575,360 577,362 578,364 580,367 581,369 583,371 584,373 586,375 587,377 589,378 590,379 592,381 593,381 595,382 596,382 598,382 599,382 601,382 602,381 604,381 605,380 607,379 608,378 610,376 611,375 613,374 615,373 616,372 618,371 619,370 621,369 622,368 624,368 625,368 627,368 628,368 630,369 631,369 633,370 634,371 636,373 637,374 639,376 640,377 642,379 643,381 645,383 646,384 648,386 649,388 651,389 652,391 654,392 655,393 657,394 658,395 660,396 661,396 663,397 665,397 666,397 668,397 669,398 671,398 672,398 674,398 675,398 677,399 678,399 680,400 681,401 683,402 684,404 686,405 687,407 689,409 690,412 692,415 693,418 695,421 696,424 698,427 699,431 701,435 702,438 704,442 705,445 707,449 708,452 710,455 712,458 713,460 715,463 716,464 718,466 719,467 721,468 722,468 724,468 725,467 727,466 728,465 730,463 731,461 733,459 734,457 736,454 737,452 739,449 740,446 742,444 743,441 745,439 746,437 748,435 749,433 751,432 752,431 754,430 755,430 757,430 758,430 760,431 762,432 763,433 765,434 766,436 768,438 769,440 771,442 772,444 774,447 775,449 777,451 778,453 780,455 781,456 783,458 784,459 786,459 787,460 789,460 790,460 792,459 793,458 795,457 796,456 798,454 799,452 801,450 802,448 804,446 805,443 807,441 809,438 810,436 812,434 813,432 815,430 816,428 818,427 819,426 821,425 822,424 824,424 825,424 827,424 828,424 830,425 831,426 833,427 834,429 836,431 837,432 839,434 840,436 842,438 843,440 845,443 846,445 848,447 849,449 851,450 852,452 854,454 855,455 857,457 859,458 860,459 862,459 863,460 865,460 866,461 868,461 869,461 871,461 872,461 874,460 875,460 877,459 878,459 880,458 881,457 883,457 884,456 886,455 887,454 889,453 890,452 892,451 893,450 895,449 896,448 898,447 899,446 901,445 902,444 904,443 906,442 907,441 909,440 910,439 912,438 913,437 915,436 916,435 918,434 919,434 921,433 922,432 924,432 925,432 927,431 928,431 930,432 931,432 933,432 934,433 936,434 937,435 939,436 940,437 942,438 943,440 945,442 946,443 948,445 949,447 951,449 952,451 954,453 956,455 957,457 959,459 960,460 962,462 963,463 965,465 966,466 968,467 969,468 971,468 972,469 974,469 975,469 977,469 978,469 980,469 981,468 983,468 984,467 986,466 987,465 989,465 990,464 992,463 993,463 995,462 996,462 998,461 999,461 1001,461 1003,461 1004,461 1004,461 1004,461 1004,462 1004,462 1004,463 1004,463 1004,464 1004,465 1004,465 1004,466 1004,467 1004,468 1004,468 1004,469 1004,469 1004,469 1004,469 1004,469 1004,469 1004,468 1004,468 1004,467 1004,466 1004,465 1004,463 1004,462 1004,460 1004,459 1004,457 1004,455 1004,453 1004,451 1004,449 1004,447 1004,445 1004,443 1004,442 1004,440 1004,438 1004,437 1004,436 1004,435 1004,434 1004,433 1004,432 1004,432 1004,432 1004,431 1004,431 1004,432 1004,432 1004,432 1004,433 1004,434 1004,434 1004,435 1004,436 1004,437 1004,438 1004,439 1004,440 1004,441 1004,442 1004,443 1004,444 1004,445 1004,446 1004,447 1004,448 1004,449 1004,450 1004,451 1004,452 1004,453 1004,454 1004,455 1004,456 1004,457 1004,457 1004,458 1004,459 1004,459 1004,460 1004,460 1004,461 1004,461 1004,461 1004,461 1004,461 1004,460 1004,460 1004,459 1004,459 1004,458 1004,457 1004,455 1004,454 1004,452 1004,450 1004,449 1004,447 1004,445 1004,443 1004,440 1004,438 1004,436 1004,434 1004,432 1004,431 1004,429 1004,427 1004,426 1004,425 1004,424 1004,424 1004,424 1004,424 1004,424 1004,425 1004,426 1004,427 1004,428 1004,430 1004,432 1004,434 1004,436 1004,438 1004,441 1004,443 1004,446 1004,448 1004,450 1004,452 1004,454 1004,456 1004,457 1004,458 1004,459 1004,460 1004,460 1004,460 1004,459 1004,459 1004,458 1004,456 1004,455 1004,453 1004,451 1004,449 1004,447 1004,444 1004,442 1004,440 1004,438 1004,436 1004,434 1004,433 1004,432 1004,431 1004,430 1004,430 1004,430 1004,430 1004,431 1004,432 1004,433 1004,435 1004,437 1004,439 1004,441 1004,444 1004,446 1004,449 1004,452 1004,454 1004,457 1004,459 1004,461 1004,463 1004,465 1004,466 1004,467 1004,468 1004,468 1004,468 1004,467 1004,466 1004,464 1004,463 1004,460 1004,458 1004,455 1004,452 1004,449 1004,445 1004,442 1004,438 1004,435 1004,431 1004,427 1004,424 1004,421 1004,418 1004,415 1004,412 1004,409 1004,407 1004,405 1004,404 1004,402 1004,401 1004,400 1004,399 1004,399 1004,398 1004,398 1004,398 1004,398 1004,398 1004,397 1004,397 1004,397 1004,397 1004,396 1004,396 1004,395 1004,394 1004,393 1004,392 1004,391 1004,389 1004,388 1004,386 1004,384 1004,383 1004,381 1004,379 1004,377 1004,376 1004,374 1004,373 1004,371 1004,370 1004,369 1004,369 1004,368 1004,368 1004,368 1004,368 1004,368 1004,369 1004,370 1004,371 1004,372 1004,373 1004,374 1004,375 1004,376 1004,378 1004,379 1004,380 1004,381 1004,381 1004,382 1004,382 1004,382 1004,382 1004,382 1004,381 1004,381 1004,379 1004,378 1004,377 1004,375 1004,373 1004,371 1004,369 1004,367 1004,364 1004,362 1004,360 1004,358 1004,356 1004,354 1004,352 1004,350 1004,349 1004,348 1004,347 1004,346 1004,345 1004,345 1004,345 1004,345 1004,345 1004,346 1004,346 1004,347 1004,348 1004,349 1004,350 1004,351 1004,352 1004,352 1004,353 1004,354 1004,354 1004,354 1004,355 1004,354 1004,354 1004,353 1004,353 1004,352 1004,350 1004,349 1004,347 1004,345 1004,343 1004,341 1004,339 1004,336 1004,334 1004,332 1004,329 1004,327 1004,324 1004,322 1004,320 1004,318 1004,316 1004,314 1004,312 1004,311 1004,310 1004,309 1004,308 1004,307 1004,307 1004,307 1004,307 1004,307 1004,308 1004,309 1004,309 1004,310 1004,311 1004,312 1004,314 1004,315 1004,316 1004,317 1004,318 1004,320 1004,321 1004,321 1004,322 1004,323 1004,323 1004,324 1004,324 1004,324 1004,324 1004,323 1004,323 1004,322 1004,321 1004,320 1004,319 1004,318 1004,316 1004,314 1004,313 1004,311 1004,309 1004,307 1004,305 1004,303 1004,301 1004,300 1004,298 1004,296 1004,294 1004,293 1004,292 1004,291 1004,290 1004,289 1004,288 1004,288 1004,288 1004,288 1004,288 1004,289 1004,289 1004,290 1004,291 1004,292 1004,294 1004,295 1004,296 1004,298 1004,299 1004,301 1004,302 1004,304 1004,305 1004,306 1004,308 1004,308 1004,309 1004,310 1004,310 1004,310 1004,310 1004,310 1004,309 1004,309 1004,307 1004,306 1004,305 1004,303 1004,301 1004,299 1004,297 1004,295 1004,293 1004,291 1004,288 1004,286 1004,284 1004,282 1004,279 1004,277 1004,276 1004,274 1004,272 1004,271 1004,270 1004,269 1004,268 1004,268 1004,267 1004,267 1004,267 1004,268 1004,268 1004,269 1004,269 1004,270 1004,271 1004,272 1004,273 1004,275 1004,276 1004,277 1004,279 1004,280 1004,281 1004,283 1004,284 1004,285 1004,286 1004,288 1004,289 1004,290 1004,291 1004,292 1004,293 1004,295 1004,296 1004,297 1004,298 1004,299 1004,300 1004,301 1004,302 1004,303 1004,304 1004,304 1004,305 1004,306 1004,307 1004,308 1004,308 1004,309 1004,309 1004,310 1004,310 1004,310 1004,310 1004,310 1004,310 1004,310 1004,309 1004,309 1004,308 1004,308 1004,307 1004,306 1004,305 1004,304 1004,303 1004,302 1004,300 1004,299 1004,298 1004,297 1004,296 1004,295 1004,294 1004,293 1004,292 1004,291 1004,291 1004,290 1004,290 1004,289 1004,289 1004,289 1004,289 1004,289 1004,289 1004,289 1004,289 1004,290 1004,290 1004,290 1004,291 1004,291 1004,291 1004,291 1004,292 1004,292 1004,292 1004,292 1004,292 1004,293 1004,293 1004,293 1004,293 1004,293 1004,293 1004,293 1004,294 1004,294 1004,294 1004,295 1004,295 1004,296 1004,297 1004,297 1004,298 1004,300 1004,301 1004,302 1004,303 1004,305 1004,306 1004,308 1004,309 1004,311 1004,313 1004,314 1004,316 1004,317 1004,319 1004,320 1004,321 1004,322 1004,323 1004,323 1004,324 1004,324 "/>
<polyline fill="none" opacity="1" stroke="#FFE119" stroke-width="1" points="130,334 131,334 133,334 134,334 136,334 137,334 139,334 140,334 142,335 143,335 145,335 146,335 148,335 149,336 151,336 152,336 154,336 155,336 157,337 158,337 160,337 161,337 163,337 164,338 166,338 167,338 169,338 170,338 172,338 173,338 175,338 176,338 178,338 180,338 181,338 183,338 184,338 186,338 187,338 189,338 190,338 192,338 193,338 195,338 196,338 198,338 199,338 201,338 202,338 204,338 205,338 207,338 208,338 210,338 211,338 213,338 214,338 216,338 217,338 219,338 220,339 222,339 223,339 225,339 227,339 228,339 230,339 231,339 233,339 234,339 236,339 237,339 239,339 240,339 242,339 243,339 245,339 246,339 248,339 249,339 251,338 252,338 254,338 255,338 257,338 258,338 260,338 261,338 263,338 264,338 266,338 267,338 269,338 270,337 272,337 273,337 275,337 277,337 278,338 280,338 281,338 283,338 284,338 286,338 287,338 289,338 290,338 292,338 293,338 295,338 296,338 298,338 299,338 301,338 302,338 304,338 305,338 307,339 308,339 310,339 311,339 313,339 314,339 316,339 317,339 319,339 320,339 322,339 324,339 325,339 327,339 328,339 330,339 331,339 333,339 334,339 336,340 337,340 339,340 340,340 342,340 343,340 345,340 346,340 348,340 349,340 351,340 352,340 354,340 355,340 357,340 358,340 360,340 361,340 363,340 364,340 366,340 367,340 369,340 370,340 372,340 374,340 375,340 377,340 378,340 380,340 381,340 383,340 384,340 386,340 387,340 389,340 390,340 392,340 393,340 395,340 396,340 398,340 399,340 401,340 402,340 404,340 405,340 407,339 408,339 410,339 411,339 413,339 414,339 416,339 417,339 419,339 421,339 422,340 424,340 425,340 427,340 428,340 430,340 431,340 433,341 434,341 436,341 437,341 439,341 440,342 442,342 443,342 445,342 446,342 448,342 449,342 451,342 452,342 454,342 455,341 457,341 458,341 460,341 461,341 463,341 464,340 466,340 467,340 469,340 471,340 472,340 474,340 475,340 477,340 478,339 480,339 481,339 483,339 484,339 486,339 487,339 489,339 490,339 492,339 493,339 495,339 496,338 498,338 499,338 501,338 502,337 504,337 505,336 507,336 508,336 510,335 511,335 513,335 514,334 516,334 518,334 519,334 521,334 522,334 524,334 525,335 527,335 528,335 530,335 531,336 533,336 534,336 536,336 537,336 539,336 540,336 542,336 543,335 545,335 546,334 548,333 549,331 551,330 552,328 554,326 555,324 557,322 558,320 560,318 561,316 563,314 564,313 566,312 568,313 569,313 571,315 572,318 574,321 575,324 577,328 578,333 580,337 581,342 583,346 584,350 586,354 587,358 589,361 590,364 592,367 593,370 595,372 596,374 598,375 599,377 601,378 602,378 604,379 605,379 607,378 608,378 610,376 611,375 613,373 615,371 616,369 618,366 619,363 621,359 622,355 624,352 625,348 627,344 628,341 630,339 631,338 633,338 634,340 636,344 637,348 639,354 640,360 642,366 643,373 645,379 646,386 648,392 649,398 651,403 652,409 654,414 655,419 657,424 658,429 660,433 661,438 663,442 665,446 666,451 668,455 669,459 671,463 672,467 674,471 675,475 677,479 678,482 680,486 681,490 683,493 684,497 686,500 687,503 689,506 690,509 692,512 693,515 695,517 696,520 698,522 699,524 701,527 702,528 704,530 705,532 707,533 708,535 710,536 712,537 713,538 715,538 716,539 718,539 719,539 721,539 722,539 724,539 725,538 727,538 728,537 730,536 731,535 733,534 734,533 736,532 737,530 739,529 740,528 742,527 743,527 745,526 746,526 748,527 749,527 751,528 752,530 754,531 755,533 757,536 758,538 760,541 762,543 763,546 765,549 766,552 768,554 769,557 771,559 772,562 774,564 775,565 777,567 778,569 780,570 781,571 783,572 784,572 786,573 787,573 789,573 790,572 792,572 793,571 795,569 796,568 798,566 799,564 801,561 802,558 804,554 805,550 807,545 809,540 810,534 812,527 813,519 815,510 816,500 818,489 819,476 821,464 822,453 824,448 825,453 827,464 828,478 830,491 831,504 833,515 834,525 836,534 837,543 839,550 840,556 842,562 843,567 845,572 846,577 848,581 849,584 851,587 852,590 854,593 855,595 857,597 859,598 860,600 862,601 863,602 865,603 866,603 868,603 869,604 871,603 872,603 874,603 875,602 877,601 878,601 880,599 881,598 883,597 884,596 886,594 887,592 889,591 890,589 892,587 893,585 895,583 896,581 898,580 899,578 901,576 902,574 904,572 906,570 907,568 909,567 910,565 912,563 913,562 915,560 916,559 918,558 919,558 921,558 922,558 924,560 925,562 927,564 928,568 930,572 931,576 933,581 934,587 936,593 937,599 939,605 940,611 942,616 943,622 945,628 946,634 948,639 949,644 951,649 952,654 954,658 956,658 957,658 959,658 960,658 962,658 963,658 965,658 966,658 968,658 969,658 971,658 972,658 974,658 975,658 977,658 978,658 980,658 981,658 983,658 984,658 986,658 987,658 989,658 990,658 992,658 993,658 995,658 996,658 998,658 999,658 1001,658 1003,658 1004,658 1004,658 1004,658 1004,658 1004,658 1004,658 1004,658 1004,658 1004,658 1004,658 1004,658 1004,658 1004,658 1004,658 1004,658 1004,658 1004,658 1004,658 1004,658 1004,658 1004,658 1004,658 1004,658 1004,658 1004,658 1004,658 1004,658 1004,658 1004,658 1004,658 1004,658 1004,658 1004,654 1004,649 1004,644 1004,639 1004,634 1004,628 1004,622 1004,616 1004,611 1004,605 1004,599 1004,593 1004,587 1004,581 1004,576 1004,572 1004,568 1004,564 1004,562 1004,560 1004,558 1004,558 1004,558 1004,558 1004,559 1004,560 1004,562 1004,563 1004,565 1004,567 1004,568 1004,570 1004,572 1004,574 1004,576 1004,578 1004,580 1004,581 1004,583 1004,585 1004,587 1004,589 1004,591 1004,592 1004,594 1004,596 1004,597 1004,598 1004,599 1004,601 1004,601 1004,602 1004,603 1004,603 1004,603 1004,604 1004,603 1004,603 1004,603 1004,602 1004,601 1004,600 1004,598 1004,597 1004,595 1004,593 1004,590 1004,587 1004,584 1004,581 1004,577 1004,572 1004,567 1004,562 1004,556 1004,550 1004,543 1004,534 1004,525 1004,515 1004,504 1004,491 1004,478 1004,464 1004,453 1004,448 1004,453 1004,464 1004,476 1004,489 1004,500 1004,510 1004,519 1004,527 1004,534 1004,540 1004,545 1004,550 1004,554 1004,558 1004,561 1004,564 1004,566 1004,568 1004,569 1004,571 1004,572 1004,572 1004,573 1004,573 1004,573 1004,572 1004,572 1004,571 1004,570 1004,569 1004,567 1004,565 1004,564 1004,562 1004,559 1004,557 1004,554 1004,552 1004,549 1004,546 1004,543 1004,541 1004,538 1004,536 1004,533 1004,531 1004,530 1004,528 1004,527 1004,527 1004,526 1004,526 1004,527 1004,527 1004,528 1004,529 1004,530 1004,532 1004,533 1004,534 1004,535 1004,536 1004,537 1004,538 1004,538 1004,539 1004,539 1004,539 1004,539 1004,539 1004,539 1004,538 1004,538 1004,537 1004,536 1004,535 1004,533 1004,532 1004,530 1004,528 1004,527 1004,524 1004,522 1004,520 1004,517 1004,515 1004,512 1004,509 1004,506 1004,503 1004,500 1004,497 1004,493 1004,490 1004,486 1004,482 1004,479 1004,475 1004,471 1004,467 1004,463 1004,459 1004,455 1004,451 1004,446 1004,442 1004,438 1004,433 1004,429 1004,424 1004,419 1004,414 1004,409 1004,403 1004,398 1004,392 1004,386 1004,379 1004,373 1004,366 1004,360 1004,354 1004,348 1004,344 1004,340 1004,338 1004,338 1004,339 1004,341 1004,344 1004,348 1004,352 1004,355 1004,359 1004,363 1004,366 1004,369 1004,371 1004,373 1004,375 1004,376 1004,378 1004,378 1004,379 1004,379 1004,378 1004,378 1004,377 1004,375 1004,374 1004,372 1004,370 1004,367 1004,364 1004,361 1004,358 1004,354 1004,350 1004,346 1004,342 1004,337 1004,333 1004,328 1004,324 1004,321 1004,318 1004,315 1004,313 1004,313 1004,312 1004,313 1004,314 1004,316 1004,318 1004,320 1004,322 1004,324 1004,326 1004,328 1004,330 1004,331 1004,333 1004,334 1004,335 1004,335 1004,336 1004,336 1004,336 1004,336 1004,336 1004,336 1004,336 1004,336 1004,335 1004,335 1004,335 1004,335 1004,334 1004,334 1004,334 1004,334 1004,334 1004,334 1004,334 1004,335 1004,335 1004,335 1004,336 1004,336 1004,336 1004,337 1004,337 1004,338 1004,338 1004,338 1004,338 1004,339 1004,339 1004,339 1004,339 1004,339 1004,339 1004,339 1004,339 1004,339 1004,339 1004,339 1004,339 1004,340 1004,340 1004,340 1004,340 1004,340 1004,340 1004,340 1004,340 1004,340 1004,341 1004,341 1004,341 1004,341 1004,341 1004,341 1004,342 1004,342 1004,342 1004,342 1004,342 1004,342 1004,342 1004,342 1004,342 1004,342 1004,341 1004,341 1004,341 1004,341 1004,341 1004,340 1004,340 1004,340 1004,340 1004,340 1004,340 1004,340 1004,339 1004,339 1004,339 1004,339 1004,339 1004,339 1004,339 1004,339 1004,339 1004,339 1004,340 1004,340 1004,340 1004,340 1004,340 1004,340 1004,340 1004,340 1004,340 1004,340 1004,340 1004,340 1004,340 1004,340 1004,340 1004,340 1004,340 1004,340 1004,340 1004,340 1004,340 1004,340 1004,340 1004,340 1004,340 1004,340 1004,340 1004,340 1004,340 1004,340 1004,340 1004,340 1004,340 1004,340 1004,340 1004,340 1004,340 1004,340 1004,340 1004,340 1004,340 1004,340 1004,340 1004,340 1004,340 1004,340 1004,340 1004,339 1004,339 1004,339 1004,339 1004,339 1004,339 1004,339 1004,339 1004,339 1004,339 1004,339 1004,339 1004,339 1004,339 1004,339 1004,339 1004,339 1004,339 1004,339 1004,338 1004,338 1004,338 1004,338 1004,338 1004,338 1004,338 1004,338 1004,338 1004,338 1004,338 1004,338 1004,338 1004,338 1004,338 1004,338 1004,338 1004,338 1004,338 1004,337 1004,337 1004,337 1004,337 1004,337 1004,338 1004,338 1004,338 1004,338 1004,338 1004,338 1004,338 1004,338 1004,338 1004,338 1004,338 1004,338 1004,338 1004,339 1004,339 1004,339 1004,339 1004,339 1004,339 1004,339 1004,339 1004,339 1004,339 1004,339 1004,339 1004,339 1004,339 1004,339 1004,339 1004,339 1004,339 1004,339 1004,339 1004,338 1004,338 1004,338 1004,338 1004,338 1004,338 1004,338 1004,338 1004,338 1004,338 1004,338 1004,338 1004,338 1004,338 1004,338 1004,338 1004,338 1004,338 1004,338 1004,338 1004,338 1004,338 1004,338 1004,338 1004,338 1004,338 1004,338 1004,338 1004,338 1004,338 1004,338 1004,338 1004,338 1004,338 1004,338 1004,338 1004,338 1004,337 1004,337 1004,337 1004,337 1004,337 1004,336 1004,336 1004,336 1004,336 1004,336 1004,335 1004,335 1004,335 1004,335 1004,335 1004,334 1004,334 1004,334 1004,334 1004,334 1004,334 1004,334 "/>
<polyline fill="none" opacity="1" stroke="#0082C8" stroke-width="1" points="130,252 131,252 133,252 134,252 136,253 137,253 139,253 140,253 142,253 143,253 145,253 146,254 148,254 149,254 151,254 152,254 154,255 155,255 157,255 158,255 160,255 161,256 163,256 164,256 166,256 167,256 169,256 170,257 172,257 173,257 175,257 176,257 178,257 180,257 181,257 183,257 184,257 186,257 187,257 189,257 190,257 192,257 193,257 195,257 196,257 198,257 199,257 201,257 202,257 204,257 205,257 207,257 208,257 210,257 211,257 213,257 214,257 216,257 217,257 219,257 220,257 222,257 223,257 225,257 227,257 228,257 230,257 231,257 233,257 234,257 236,257 237,257 239,257 240,257 242,257 243,257 245,257 246,257 248,257 249,257 251,257 252,257 254,257 255,257 257,257 258,256 260,256 261,256 263,256 264,256 266,256 267,256 269,256 270,256 272,256 273,256 275,256 277,256 278,256 280,256 281,256 283,256 284,256 286,256 287,256 289,256 290,256 292,256 293,257 295,257 296,257 298,257 299,257 301,257 302,257 304,257 305,257 307,257 308,257 310,257 311,257 313,257 314,257 316,257 317,257 319,257 320,257 322,258 324,258 325,258 327,258 328,258 330,258 331,258 333,258 334,258 336,258 337,258 339,258 340,258 342,258 343,258 345,258 346,258 348,258 349,258 351,258 352,258 354,258 355,258 357,258 358,258 360,258 361,258 363,258 364,258 366,258 367,258 369,258 370,258 372,258 374,258 375,258 377,258 378,258 380,258 381,259 383,259 384,259 386,259 387,259 389,259 390,259 392,259 393,259 395,259 396,259 398,258 399,258 401,258 402,258 404,258 405,258 407,258 408,258 410,258 411,258 413,258 414,258 416,258 417,258 419,258 421,258 422,258 424,258 425,258 427,258 428,259 430,259 431,259 433,259 434,259 436,260 437,260 439,260 440,260 442,260 443,260 445,260 446,260 448,260 449,260 451,260 452,260 454,260 455,260 457,260 458,260 460,259 461,259 463,259 464,259 466,259 467,259 469,258 471,258 472,258 474,258 475,258 477,258 478,258 480,258 481,258 483,258 484,258 486,258 487,258 489,258 490,258 492,258 493,257 495,257 496,257 498,257 499,256 501,256 502,256 504,255 505,255 507,254 508,254 510,254 511,253 513,253 514,253 516,253 518,253 519,252 521,253 522,253 524,253 525,253 527,253 528,254 530,254 531,254 533,255 534,255 536,255 537,255 539,255 540,255 542,254 543,254 545,253 546,252 548,251 549,250 551,248 552,247 554,245 555,243 557,241 558,239 560,237 561,235 563,233 564,232 566,231 568,231 569,232 571,234 572,236 574,239 575,243 577,247 578,251 580,256 581,260 583,264 584,269 586,272 587,276 589,280 590,283 592,286 593,288 595,290 596,292 598,294 599,295 601,296 602,297 604,297 605,297 607,297 608,296 610,295 611,294 613,292 615,290 616,287 618,284 619,281 621,278 622,274 624,270 625,266 627,263 628,259 630,257 631,256 633,257 634,259 636,262 637,267 639,272 640,279 642,285 643,291 645,298 646,304 648,310 649,316 651,322 652,327 654,332 655,337 657,342 658,347 660,352 661,356 663,361 665,365 666,369 668,373 669,377 671,381 672,385 674,389 675,393 677,397 678,401 680,405 681,408 683,412 684,415 686,418 687,422 689,425 690,428 692,431 693,433 695,436 696,438 698,441 699,443 701,445 702,447 704,449 705,450 707,452 708,453 710,454 712,455 713,456 715,457 716,457 718,458 719,458 721,458 722,458 724,457 725,457 727,456 728,455 730,455 731,454 733,452 734,451 736,450 737,449 739,448 740,447 742,446 743,445 745,445 746,445 748,445 749,446 751,447 752,448 754,450 755,452 757,454 758,457 760,459 762,462 763,465 765,468 766,470 768,473 769,475 771,478 772,480 774,482 775,484 777,486 778,487 780,488 781,489 783,490 784,491 786,491 787,491 789,491 790,491 792,490 793,489 795,488 796,486 798,484 799,482 801,479 802,476 804,473 805,469 807,464 809,459 810,452 812,446 813,438 815,429 816,419 818,407 819,395 821,382 822,371 824,367 825,371 827,382 828,396 830,410 831,422 833,434 834,444 836,453 837,461 839,468 840,475 842,481 843,486 845,491 846,495 848,499 849,503 851,506 852,508 854,511 855,513 857,515 859,517 860,518 862,519 863,520 865,521 866,522 868,522 869,522 871,522 872,522 874,521 875,521 877,520 878,519 880,518 881,517 883,515 884,514 886,513 887,511 889,509 890,507 892,506 893,504 895,502 896,500 898,498 899,496 901,494 902,492 904,490 906,489 907,487 909,485 910,483 912,482 913,480 915,479 916,478 918,477 919,476 921,476 922,477 924,478 925,480 927,483 928,486 930,490 931,495 933,500 934,505 936,511 937,517 939,523 940,529 942,535 943,541 945,546 946,552 948,557 949,563 951,568 952,572 954,577 956,582 957,586 959,590 960,594 962,598 963,601 965,605 966,608 968,611 969,614 971,617 972,620 974,622 975,625 977,627 978,629 980,631 981,633 983,634 984,636 986,637 987,639 989,640 990,641 992,642 993,643 995,643 996,644 998,644 999,645 1001,645 1003,645 1004,645 1004,645 1004,644 1004,644 1004,643 1004,643 1004,642 1004,641 1004,640 1004,639 1004,637 1004,636 1004,634 1004,633 1004,631 1004,629 1004,627 1004,625 1004,622 1004,620 1004,617 1004,614 1004,611 1004,608 1004,605 1004,601 1004,598 1004,594 1004,590 1004,586 1004,582 1004,577 1004,572 1004,568 1004,563 1004,557 1004,552 1004,546 1004,541 1004,535 1004,529 1004,523 1004,517 1004,511 1004,505 1004,500 1004,495 1004,490 1004,486 1004,483 1004,480 1004,478 1004,477 1004,476 1004,476 1004,477 1004,478 1004,479 1004,480 1004,482 1004,483 1004,485 1004,487 1004,489 1004,490 1004,492 1004,494 1004,496 1004,498 1004,500 1004,502 1004,504 1004,506 1004,507 1004,509 1004,511 1004,513 1004,514 1004,515 1004,517 1004,518 1004,519 1004,520 1004,521 1004,521 1004,522 1004,522 1004,522 1004,522 1004,522 1004,521 1004,520 1004,519 1004,518 1004,517 1004,515 1004,513 1004,511 1004,508 1004,506 1004,503 1004,499 1004,495 1004,491 1004,486 1004,481 1004,475 1004,468 1004,461 1004,453 1004,444 1004,434 1004,422 1004,410 1004,396 1004,382 1004,371 1004,367 1004,371 1004,382 1004,395 1004,407 1004,419 1004,429 1004,438 1004,446 1004,452 1004,459 1004,464 1004,469 1004,473 1004,476 1004,479 1004,482 1004,484 1004,486 1004,488 1004,489 1004,490 1004,491 1004,491 1004,491 1004,491 1004,491 1004,490 1004,489 1004,488 1004,487 1004,486 1004,484 1004,482 1004,480 1004,478 1004,475 1004,473 1004,470 1004,468 1004,465 1004,462 1004,459 1004,457 1004,454 1004,452 1004,450 1004,448 1004,447 1004,446 1004,445 1004,445 1004,445 1004,445 1004,446 1004,447 1004,448 1004,449 1004,450 1004,451 1004,452 1004,454 1004,455 1004,455 1004,456 1004,457 1004,457 1004,458 1004,458 1004,458 1004,458 1004,457 1004,457 1004,456 1004,455 1004,454 1004,453 1004,452 1004,450 1004,449 1004,447 1004,445 1004,443 1004,441 1004,438 1004,436 1004,433 1004,431 1004,428 1004,425 1004,422 1004,418 1004,415 1004,412 1004,408 1004,405 1004,401 1004,397 1004,393 1004,389 1004,385 1004,381 1004,377 1004,373 1004,369 1004,365 1004,361 1004,356 1004,352 1004,347 1004,342 1004,337 1004,332 1004,327 1004,322 1004,316 1004,310 1004,304 1004,298 1004,291 1004,285 1004,279 1004,272 1004,267 1004,262 1004,259 1004,257 1004,256 1004,257 1004,259 1004,263 1004,266 1004,270 1004,274 1004,278 1004,281 1004,284 1004,287 1004,290 1004,292 1004,294 1004,295 1004,296 1004,297 1004,297 1004,297 1004,297 1004,296 1004,295 1004,294 1004,292 1004,290 1004,288 1004,286 1004,283 1004,280 1004,276 1004,272 1004,269 1004,264 1004,260 1004,256 1004,251 1004,247 1004,243 1004,239 1004,236 1004,234 1004,232 1004,231 1004,231 1004,232 1004,233 1004,235 1004,237 1004,239 1004,241 1004,243 1004,245 1004,247 1004,248 1004,250 1004,251 1004,252 1004,253 1004,254 1004,254 1004,255 1004,255 1004,255 1004,255 1004,255 1004,255 1004,254 1004,254 1004,254 1004,253 1004,253 1004,253 1004,253 1004,253 1004,252 1004,253 1004,253 1004,253 1004,253 1004,253 1004,254 1004,254 1004,254 1004,255 1004,255 1004,256 1004,256 1004,256 1004,257 1004,257 1004,257 1004,257 1004,258 1004,258 1004,258 1004,258 1004,258 1004,258 1004,258 1004,258 1004,258 1004,258 1004,258 1004,258 1004,258 1004,258 1004,258 1004,258 1004,259 1004,259 1004,259 1004,259 1004,259 1004,259 1004,260 1004,260 1004,260 1004,260 1004,260 1004,260 1004,260 1004,260 1004,260 1004,260 1004,260 1004,260 1004,260 1004,260 1004,260 1004,260 1004,259 1004,259 1004,259 1004,259 1004,259 1004,258 1004,258 1004,258 1004,258 1004,258 1004,258 1004,258 1004,258 1004,258 1004,258 1004,258 1004,258 1004,258 1004,258 1004,258 1004,258 1004,258 1004,258 1004,258 1004,258 1004,259 1004,259 1004,259 1004,259 1004,259 1004,259 1004,259 1004,259 1004,259 1004,259 1004,259 1004,258 1004,258 1004,258 1004,258 1004,258 1004,258 1004,258 1004,258 1004,258 1004,258 1004,258 1004,258 1004,258 1004,258 1004,258 1004,258 1004,258 1004,258 1004,258 1004,258 1004,258 1004,258 1004,258 1004,258 1004,258 1004,258 1004,258 1004,258 1004,258 1004,258 1004,258 1004,258 1004,258 1004,258 1004,258 1004,258 1004,258 1004,258 1004,258 1004,257 1004,257 1004,257 1004,257 1004,257 1004,257 1004,257 1004,257 1004,257 1004,257 1004,257 1004,257 1004,257 1004,257 1004,257 1004,257 1004,257 1004,257 1004,257 1004,256 1004,256 1004,256 1004,256 1004,256 1004,256 1004,256 1004,256 1004,256 1004,256 1004,256 1004,256 1004,256 1004,256 1004,256 1004,256 1004,256 1004,256 1004,256 1004,256 1004,256 1004,256 1004,256 1004,257 1004,257 1004,257 1004,257 1004,257 1004,257 1004,257 1004,257 1004,257 1004,257 1004,257 1004,257 1004,257 1004,257 1004,257 1004,257 1004,257 1004,257 1004,257 1004,257 1004,257 1004,257 1004,257 1004,257 1004,257 1004,257 1004,257 1004,257 1004,257 1004,257 1004,257 1004,257 1004,257 1004,257 1004,257 1004,257 1004,257 1004,257 1004,257 1004,257 1004,257 1004,257 1004,257 1004,257 1004,257 1004,257 1004,257 1004,257 1004,257 1004,257 1004,257 1004,257 1004,257 1004,257 1004,257 1004,257 1004,257 1004,257 1004,256 1004,256 1004,256 1004,256 1004,256 1004,256 1004,255 1004,255 1004,255 1004,255 1004,255 1004,254 1004,254 1004,254 1004,254 1004,254 1004,253 1004,253 1004,253 1004,253 1004,253 1004,253 1004,253 1004,252 1004,252 1004,252 "/>
<rect x="514" y="25" width="485" height="157" opacity="0.8" fill="#FFFFFF" stroke="none"/>
<rect x="514" y="25" width="485" height="157" opacity="1" fill="none" stroke="#000000"/>
<text x="554" y="35" dy="0.76em" text-anchor="start" font-family="sans-serif" font-size="24.193548387096776" opacity="1" fill="#000000">
(1) log_power
</text>
<text x="554" y="73" dy="0.76em" text-anchor="start" font-family="sans-serif" font-size="24.193548387096776" opacity="1" fill="#000000">
(2) spectral_envelope by cepstrum
</text>
<text x="554" y="110" dy="0.76em" text-anchor="start" font-family="sans-serif" font-size="24.193548387096776" opacity="1" fill="#000000">
(3) spectral_envelope by levinson-durbin
</text>
<text x="554" y="148" dy="0.76em" text-anchor="start" font-family="sans-serif" font-size="24.193548387096776" opacity="1" fill="#000000">
(4) spectral_envelope by burg
</text>
<polyline fill="none" opacity="1" stroke="#E6194B" stroke-width="1" points="524,47 544,47 "/>
<polyline fill="none" opacity="1" stroke="#3CB44B" stroke-width="1" points="524,85 544,85 "/>
<polyline fill="none" opacity="1" stroke="#FFE119" stroke-width="1" points="524,122 544,122 "/>
<polyline fill="none" opacity="1" stroke="#0082C8" stroke-width="1" points="524,160 544,160 "/>
</svg>
