<svg width="1024" height="768" viewBox="0 0 1024 768" xmlns="http://www.w3.org/2000/svg">
<rect x="0" y="0" width="1024" height="768" opacity="1" fill="#FFFFFF" stroke="none"/>
<line opacity="0.1" stroke="#000000" stroke-width="1" x1="130" y1="657" x2="130" y2="20"/>
<line opacity="0.1" stroke="#000000" stroke-width="1" x1="140" y1="657" x2="140" y2="20"/>
<line opacity="0.1" stroke="#000000" stroke-width="1" x1="151" y1="657" x2="151" y2="20"/>
<line opacity="0.1" stroke="#000000" stroke-width="1" x1="162" y1="657" x2="162" y2="20"/>
<line opacity="0.1" stroke="#000000" stroke-width="1" x1="173" y1="657" x2="173" y2="20"/>
<line opacity="0.1" stroke="#000000" stroke-width="1" x1="184" y1="657" x2="184" y2="20"/>
<line opacity="0.1" stroke="#000000" stroke-width="1" x1="195" y1="657" x2="195" y2="20"/>
<line opacity="0.1" stroke="#000000" stroke-width="1" x1="206" y1="657" x2="206" y2="20"/>
<line opacity="0.1" stroke="#000000" stroke-width="1" x1="217" y1="657" x2="217" y2="20"/>
<line opacity="0.1" stroke="#000000" stroke-width="1" x1="228" y1="657" x2="228" y2="20"/>
<line opacity="0.1" stroke="#000000" stroke-width="1" x1="239" y1="657" x2="239" y2="20"/>
<line opacity="0.1" stroke="#000000" stroke-width="1" x1="250" y1="657" x2="250" y2="20"/>
<line opacity="0.1" stroke="#000000" stroke-width="1" x1="260" y1="657" x2="260" y2="20"/>
<line opacity="0.1" stroke="#000000" stroke-width="1" x1="271" y1="657" x2="271" y2="20"/>
<line opacity="0.1" stroke="#000000" stroke-width="1" x1="282" y1="657" x2="282" y2="20"/>
<line opacity="0.1" stroke="#000000" stroke-width="1" x1="293" y1="657" x2="293" y2="20"/>
<line opacity="0.1" stroke="#000000" stroke-width="1" x1="304" y1="657" x2="304" y2="20"/>
<line opacity="0.1" stroke="#000000" stroke-width="1" x1="315" y1="657" x2="315" y2="20"/>
<line opacity="0.1" stroke="#000000" stroke-width="1" x1="326" y1="657" x2="326" y2="20"/>
<line opacity="0.1" stroke="#000000" stroke-width="1" x1="337" y1="657" x2="337" y2="20"/>
<line opacity="0.1" stroke="#000000" stroke-width="1" x1="348" y1="657" x2="348" y2="20"/>
<line opacity="0.1" stroke="#000000" stroke-width="1" x1="359" y1="657" x2="359" y2="20"/>
<line opacity="0.1" stroke="#000000" stroke-width="1" x1="370" y1="657" x2="370" y2="20"/>
<line opacity="0.1" stroke="#000000" stroke-width="1" x1="380" y1="657" x2="380" y2="20"/>
<line opacity="0.1" stroke="#000000" stroke-width="1" x1="391" y1="657" x2="391" y2="20"/>
<line opacity="0.1" stroke="#000000" stroke-width="1" x1="402" y1="657" x2="402" y2="20"/>
<line opacity="0.1" stroke="#000000" stroke-width="1" x1="413" y1="657" x2="413" y2="20"/>
<line opacity="0.1" stroke="#000000" stroke-width="1" x1="424" y1="657" x2="424" y2="20"/>
<line opacity="0.1" stroke="#000000" stroke-width="1" x1="435" y1="657" x2="435" y2="20"/>
<line opacity="0.1" stroke="#000000" stroke-width="1" x1="446" y1="657" x2="446" y2="20"/>
<line opacity="0.1" stroke="#000000" stroke-width="1" x1="457" y1="657" x2="457" y2="20"/>
<line opacity="0.1" stroke="#000000" stroke-width="1" x1="468" y1="657" x2="468" y2="20"/>
<line opacity="0.1" stroke="#000000" stroke-width="1" x1="479" y1="657" x2="479" y2="20"/>
<line opacity="0.1" stroke="#000000" stroke-width="1" x1="490" y1="657" x2="490" y2="20"/>
<line opacity="0.1" stroke="#000000" stroke-width="1" x1="501" y1="657" x2="501" y2="20"/>
<line opacity="0.1" stroke="#000000" stroke-width="1" x1="511" y1="657" x2="511" y2="20"/>
<line opacity="0.1" stroke="#000000" stroke-width="1" x1="522" y1="657" x2="522" y2="20"/>
<line opacity="0.1" stroke="#000000" stroke-width="1" x1="533" y1="657" x2="533" y2="20"/>
<line opacity="0.1" stroke="#000000" stroke-width="1" x1="544" y1="657" x2="544" y2="20"/>
<line opacity="0.1" stroke="#000000" stroke-width="1" x1="555" y1="657" x2="555" y2="20"/>
<line opacity="0.1" stroke="#000000" stroke-width="1" x1="566" y1="657" x2="566" y2="20"/>
<line opacity="0.1" stroke="#000000" stroke-width="1" x1="577" y1="657" x2="577" y2="20"/>
<line opacity="0.1" stroke="#000000" stroke-width="1" x1="588" y1="657" x2="588" y2="20"/>
<line opacity="0.1" stroke="#000000" stroke-width="1" x1="599" y1="657" x2="599" y2="20"/>
<line opacity="0.1" stroke="#000000" stroke-width="1" x1="610" y1="657" x2="610" y2="20"/>
<line opacity="0.1" stroke="#000000" stroke-width="1" x1="621" y1="657" x2="621" y2="20"/>
<line opacity="0.1" stroke="#000000" stroke-width="1" x1="631" y1="657" x2="631" y2="20"/>
<line opacity="0.1" stroke="#000000" stroke-width="1" x1="642" y1="657" x2="642" y2="20"/>
<line opacity="0.1" stroke="#000000" stroke-width="1" x1="653" y1="657" x2="653" y2="20"/>
<line opacity="0.1" stroke="#000000" stroke-width="1" x1="664" y1="657" x2="664" y2="20"/>
<line opacity="0.1" stroke="#000000" stroke-width="1" x1="675" y1="657" x2="675" y2="20"/>
<line opacity="0.1" stroke="#000000" stroke-width="1" x1="686" y1="657" x2="686" y2="20"/>
<line opacity="0.1" stroke="#000000" stroke-width="1" x1="697" y1="657" x2="697" y2="20"/>
<line opacity="0.1" stroke="#000000" stroke-width="1" x1="708" y1="657" x2="708" y2="20"/>
<line opacity="0.1" stroke="#000000" stroke-width="1" x1="719" y1="657" x2="719" y2="20"/>
<line opacity="0.1" stroke="#000000" stroke-width="1" x1="730" y1="657" x2="730" y2="20"/>
<line opacity="0.1" stroke="#000000" stroke-width="1" x1="741" y1="657" x2="741" y2="20"/>
<line opacity="0.1" stroke="#000000" stroke-width="1" x1="752" y1="657" x2="752" y2="20"/>
<line opacity="0.1" stroke="#000000" stroke-width="1" x1="762" y1="657" x2="762" y2="20"/>
<line opacity="0.1" stroke="#000000" stroke-width="1" x1="773" y1="657" x2="773" y2="20"/>
<line opacity="0.1" stroke="#000000" stroke-width="1" x1="784" y1="657" x2="784" y2="20"/>
<line opacity="0.1" stroke="#000000" stroke-width="1" x1="795" y1="657" x2="795" y2="20"/>
<line opacity="0.1" stroke="#000000" stroke-width="1" x1="806" y1="657" x2="806" y2="20"/>
<line opacity="0.1" stroke="#000000" stroke-width="1" x1="817" y1="657" x2="817" y2="20"/>
<line opacity="0.1" stroke="#000000" stroke-width="1" x1="828" y1="657" x2="828" y2="20"/>
<line opacity="0.1" stroke="#000000" stroke-width="1" x1="839" y1="657" x2="839" y2="20"/>
<line opacity="0.1" stroke="#000000" stroke-width="1" x1="850" y1="657" x2="850" y2="20"/>
<line opacity="0.1" stroke="#000000" stroke-width="1" x1="861" y1="657" x2="861" y2="20"/>
<line opacity="0.1" stroke="#000000" stroke-width="1" x1="872" y1="657" x2="872" y2="20"/>
<line opacity="0.1" stroke="#000000" stroke-width="1" x1="882" y1="657" x2="882" y2="20"/>
<line opacity="0.1" stroke="#000000" stroke-width="1" x1="893" y1="657" x2="893" y2="20"/>
<line opacity="0.1" stroke="#000000" stroke-width="1" x1="904" y1="657" x2="904" y2="20"/>
<line opacity="0.1" stroke="#000000" stroke-width="1" x1="915" y1="657" x2="915" y2="20"/>
<line opacity="0.1" stroke="#000000" stroke-width="1" x1="926" y1="657" x2="926" y2="20"/>
<line opacity="0.1" stroke="#000000" stroke-width="1" x1="937" y1="657" x2="937" y2="20"/>
<line opacity="0.1" stroke="#000000" stroke-width="1" x1="948" y1="657" x2="948" y2="20"/>
<line opacity="0.1" stroke="#000000" stroke-width="1" x1="959" y1="657" x2="959" y2="20"/>
<line opacity="0.1" stroke="#000000" stroke-width="1" x1="970" y1="657" x2="970" y2="20"/>
<line opacity="0.1" stroke="#000000" stroke-width="1" x1="981" y1="657" x2="981" y2="20"/>
<line opacity="0.1" stroke="#000000" stroke-width="1" x1="992" y1="657" x2="992" y2="20"/>
<line opacity="0.1" stroke="#000000" stroke-width="1" x1="1003" y1="657" x2="1003" y2="20"/>
<line opacity="0.1" stroke="#000000" stroke-width="1" x1="130" y1="657" x2="1003" y2="657"/>
<line opacity="0.1" stroke="#000000" stroke-width="1" x1="130" y1="648" x2="1003" y2="648"/>
<line opacity="0.1" stroke="#000000" stroke-width="1" x1="130" y1="639" x2="1003" y2="639"/>
<line opacity="0.1" stroke="#000000" stroke-width="1" x1="130" y1="630" x2="1003" y2="630"/>
<line opacity="0.1" stroke="#000000" stroke-width="1" x1="130" y1="621" x2="1003" y2="621"/>
<line opacity="0.1" stroke="#000000" stroke-width="1" x1="130" y1="612" x2="1003" y2="612"/>
<line opacity="0.1" stroke="#000000" stroke-width="1" x1="130" y1="603" x2="1003" y2="603"/>
<line opacity="0.1" stroke="#000000" stroke-width="1" x1="130" y1="594" x2="1003" y2="594"/>
<line opacity="0.1" stroke="#000000" stroke-width="1" x1="130" y1="585" x2="1003" y2="585"/>
<line opacity="0.1" stroke="#000000" stroke-width="1" x1="130" y1="576" x2="1003" y2="576"/>
<line opacity="0.1" stroke="#000000" stroke-width="1" x1="130" y1="566" x2="1003" y2="566"/>
<line opacity="0.1" stroke="#000000" stroke-width="1" x1="130" y1="557" x2="1003" y2="557"/>
<line opacity="0.1" stroke="#000000" stroke-width="1" x1="130" y1="548" x2="1003" y2="548"/>
<line opacity="0.1" stroke="#000000" stroke-width="1" x1="130" y1="539" x2="1003" y2="539"/>
<line opacity="0.1" stroke="#000000" stroke-width="1" x1="130" y1="530" x2="1003" y2="530"/>
<line opacity="0.1" stroke="#000000" stroke-width="1" x1="130" y1="521" x2="1003" y2="521"/>
<line opacity="0.1" stroke="#000000" stroke-width="1" x1="130" y1="512" x2="1003" y2="512"/>
<line opacity="0.1" stroke="#000000" stroke-width="1" x1="130" y1="503" x2="1003" y2="503"/>
<line opacity="0.1" stroke="#000000" stroke-width="1" x1="130" y1="494" x2="1003" y2="494"/>
<line opacity="0.1" stroke="#000000" stroke-width="1" x1="130" y1="485" x2="1003" y2="485"/>
<line opacity="0.1" stroke="#000000" stroke-width="1" x1="130" y1="475" x2="1003" y2="475"/>
<line opacity="0.1" stroke="#000000" stroke-width="1" x1="130" y1="466" x2="1003" y2="466"/>
<line opacity="0.1" stroke="#000000" stroke-width="1" x1="130" y1="457" x2="1003" y2="457"/>
<line opacity="0.1" stroke="#000000" stroke-width="1" x1="130" y1="448" x2="1003" y2="448"/>
<line opacity="0.1" stroke="#000000" stroke-width="1" x1="130" y1="439" x2="1003" y2="439"/>
<line opacity="0.1" stroke="#000000" stroke-width="1" x1="130" y1="430" x2="1003" y2="430"/>
<line opacity="0.1" stroke="#000000" stroke-width="1" x1="130" y1="421" x2="1003" y2="421"/>
<line opacity="0.1" stroke="#000000" stroke-width="1" x1="130" y1="412" x2="1003" y2="412"/>
<line opacity="0.1" stroke="#000000" stroke-width="1" x1="130" y1="403" x2="1003" y2="403"/>
<line opacity="0.1" stroke="#000000" stroke-width="1" x1="130" y1="394" x2="1003" y2="394"/>
<line opacity="0.1" stroke="#000000" stroke-width="1" x1="130" y1="384" x2="1003" y2="384"/>
<line opacity="0.1" stroke="#000000" stroke-width="1" x1="130" y1="375" x2="1003" y2="375"/>
<line opacity="0.1" stroke="#000000" stroke-width="1" x1="130" y1="366" x2="1003" y2="366"/>
<line opacity="0.1" stroke="#000000" stroke-width="1" x1="130" y1="357" x2="1003" y2="357"/>
<line opacity="0.1" stroke="#000000" stroke-width="1" x1="130" y1="348" x2="1003" y2="348"/>
<line opacity="0.1" stroke="#000000" stroke-width="1" x1="130" y1="339" x2="1003" y2="339"/>
<line opacity="0.1" stroke="#000000" stroke-width="1" x1="130" y1="330" x2="1003" y2="330"/>
<line opacity="0.1" stroke="#000000" stroke-width="1" x1="130" y1="321" x2="1003" y2="321"/>
<line opacity="0.1" stroke="#000000" stroke-width="1" x1="130" y1="312" x2="1003" y2="312"/>
<line opacity="0.1" stroke="#000000" stroke-width="1" x1="130" y1="303" x2="1003" y2="303"/>
<line opacity="0.1" stroke="#000000" stroke-width="1" x1="130" y1="293" x2="1003" y2="293"/>
<line opacity="0.1" stroke="#000000" stroke-width="1" x1="130" y1="284" x2="1003" y2="284"/>
<line opacity="0.1" stroke="#000000" stroke-width="1" x1="130" y1="275" x2="1003" y2="275"/>
<line opacity="0.1" stroke="#000000" stroke-width="1" x1="130" y1="266" x2="1003" y2="266"/>
<line opacity="0.1" stroke="#000000" stroke-width="1" x1="130" y1="257" x2="1003" y2="257"/>
<line opacity="0.1" stroke="#000000" stroke-width="1" x1="130" y1="248" x2="1003" y2="248"/>
<line opacity="0.1" stroke="#000000" stroke-width="1" x1="130" y1="239" x2="1003" y2="239"/>
<line opacity="0.1" stroke="#000000" stroke-width="1" x1="130" y1="230" x2="1003" y2="230"/>
<line opacity="0.1" stroke="#000000" stroke-width="1" x1="130" y1="221" x2="1003" y2="221"/>
<line opacity="0.1" stroke="#000000" stroke-width="1" x1="130" y1="212" x2="1003" y2="212"/>
<line opacity="0.1" stroke="#000000" stroke-width="1" x1="130" y1="202" x2="1003" y2="202"/>
<line opacity="0.1" stroke="#000000" stroke-width="1" x1="130" y1="193" x2="1003" y2="193"/>
<line opacity="0.1" stroke="#000000" stroke-width="1" x1="130" y1="184" x2="1003" y2="184"/>
<line opacity="0.1" stroke="#000000" stroke-width="1" x1="130" y1="175" x2="1003" y2="175"/>
<line opacity="0.1" stroke="#000000" stroke-width="1" x1="130" y1="166" x2="1003" y2="166"/>
<line opacity="0.1" stroke="#000000" stroke-width="1" x1="130" y1="157" x2="1003" y2="157"/>
<line opacity="0.1" stroke="#000000" stroke-width="1" x1="130" y1="148" x2="1003" y2="148"/>
<line opacity="0.1" stroke="#000000" stroke-width="1" x1="130" y1="139" x2="1003" y2="139"/>
<line opacity="0.1" stroke="#000000" stroke-width="1" x1="130" y1="130" x2="1003" y2="130"/>
<line opacity="0.1" stroke="#000000" stroke-width="1" x1="130" y1="121" x2="1003" y2="121"/>
<line opacity="0.1" stroke="#000000" stroke-width="1" x1="130" y1="111" x2="1003" y2="111"/>
<line opacity="0.1" stroke="#000000" stroke-width="1" x1="130" y1="102" x2="1003" y2="102"/>
<line opacity="0.1" stroke="#000000" stroke-width="1" x1="130" y1="93" x2="1003" y2="93"/>
<line opacity="0.1" stroke="#000000" stroke-width="1" x1="130" y1="84" x2="1003" y2="84"/>
<line opacity="0.1" stroke="#000000" stroke-width="1" x1="130" y1="75" x2="1003" y2="75"/>
<line opacity="0.1" stroke="#000000" stroke-width="1" x1="130" y1="66" x2="1003" y2="66"/>
<line opacity="0.1" stroke="#000000" stroke-width="1" x1="130" y1="57" x2="1003" y2="57"/>
<line opacity="0.1" stroke="#000000" stroke-width="1" x1="130" y1="48" x2="1003" y2="48"/>
<line opacity="0.1" stroke="#000000" stroke-width="1" x1="130" y1="39" x2="1003" y2="39"/>
<line opacity="0.1" stroke="#000000" stroke-width="1" x1="130" y1="30" x2="1003" y2="30"/>
<line opacity="0.1" stroke="#000000" stroke-width="1" x1="130" y1="20" x2="1003" y2="20"/>
<text x="20" y="339" dy="0.76em" text-anchor="middle" font-family="sans-serif" font-size="24.193548387096776" opacity="1" fill="#000000" transform="rotate(270, 20, 339)">
Power [dB]
</text>
<text x="567" y="748" dy="-0.5ex" text-anchor="middle" font-family="sans-serif" font-size="24.193548387096776" opacity="1" fill="#000000">
Frequency [Hz]
</text>
<line opacity="0.2" stroke="#000000" stroke-width="1" x1="130" y1="657" x2="130" y2="20"/>
<line opacity="0.2" stroke="#000000" stroke-width="1" x1="239" y1="657" x2="239" y2="20"/>
<line opacity="0.2" stroke="#000000" stroke-width="1" x1="348" y1="657" x2="348" y2="20"/>
<line opacity="0.2" stroke="#000000" stroke-width="1" x1="457" y1="657" x2="457" y2="20"/>
<line opacity="0.2" stroke="#000000" stroke-width="1" x1="566" y1="657" x2="566" y2="20"/>
<line opacity="0.2" stroke="#000000" stroke-width="1" x1="675" y1="657" x2="675" y2="20"/>
<line opacity="0.2" stroke="#000000" stroke-width="1" x1="784" y1="657" x2="784" y2="20"/>
<line opacity="0.2" stroke="#000000" stroke-width="1" x1="893" y1="657" x2="893" y2="20"/>
<line opacity="0.2" stroke="#000000" stroke-width="1" x1="1003" y1="657" x2="1003" y2="20"/>
<line opacity="0.2" stroke="#000000" stroke-width="1" x1="130" y1="657" x2="1003" y2="657"/>
<line opacity="0.2" stroke="#000000" stroke-width="1" x1="130" y1="566" x2="1003" y2="566"/>
<line opacity="0.2" stroke="#000000" stroke-width="1" x1="130" y1="475" x2="1003" y2="475"/>
<line opacity="0.2" stroke="#000000" stroke-width="1" x1="130" y1="384" x2="1003" y2="384"/>
<line opacity="0.2" stroke="#000000" stroke-width="1" x1="130" y1="293" x2="1003" y2="293"/>
<line opacity="0.2" stroke="#000000" stroke-width="1" x1="130" y1="202" x2="1003" y2="202"/>
<line opacity="0.2" stroke="#000000" stroke-width="1" x1="130" y1="111" x2="1003" y2="111"/>
<line opacity="0.2" stroke="#000000" stroke-width="1" x1="130" y1="20" x2="1003" y2="20"/>
<polyline fill="none" opacity="1" stroke="#000000" stroke-width="1" points="129,20 129,657 "/>
<text x="120" y="657" dy="0.5ex" text-anchor="end" font-family="sans-serif" font-size="24.193548387096776" opacity="1" fill="#000000">
-100.0
</text>
<polyline fill="none" opacity="1" stroke="#000000" stroke-width="1" points="124,657 129,657 "/>
<text x="120" y="566" dy="0.5ex" text-anchor="end" font-family="sans-serif" font-size="24.193548387096776" opacity="1" fill="#000000">
-80.0
</text>
<polyline fill="none" opacity="1" stroke="#000000" stroke-width="1" points="124,566 129,566 "/>
<text x="120" y="475" dy="0.5ex" text-anchor="end" font-family="sans-serif" font-size="24.193548387096776" opacity="1" fill="#000000">
-60.0
</text>
<polyline fill="none" opacity="1" stroke="#000000" stroke-width="1" points="124,475 129,475 "/>
<text x="120" y="384" dy="0.5ex" text-anchor="end" font-family="sans-serif" font-size="24.193548387096776" opacity="1" fill="#000000">
-40.0
</text>
<polyline fill="none" opacity="1" stroke="#000000" stroke-width="1" points="124,384 129,384 "/>
<text x="120" y="293" dy="0.5ex" text-anchor="end" font-family="sans-serif" font-size="24.193548387096776" opacity="1" fill="#000000">
-20.0
</text>
<polyline fill="none" opacity="1" stroke="#000000" stroke-width="1" points="124,293 129,293 "/>
<text x="120" y="202" dy="0.5ex" text-anchor="end" font-family="sans-serif" font-size="24.193548387096776" opacity="1" fill="#000000">
0.0
</text>
<polyline fill="none" opacity="1" stroke="#000000" stroke-width="1" points="124,202 129,202 "/>
<text x="120" y="111" dy="0.5ex" text-anchor="end" font-family="sans-serif" font-size="24.193548387096776" opacity="1" fill="#000000">
20.0
</text>
<polyline fill="none" opacity="1" stroke="#000000" stroke-width="1" points="124,111 129,111 "/>
<text x="120" y="20" dy="0.5ex" text-anchor="end" font-family="sans-serif" font-size="24.193548387096776" opacity="1" fill="#000000">
40.0
</text>
<polyline fill="none" opacity="1" stroke="#000000" stroke-width="1" points="124,20 129,20 "/>
<polyline fill="none" opacity="1" stroke="#000000" stroke-width="1" points="130,658 1003,658 "/>
<text x="130" y="668" dy="0.76em" text-anchor="middle" font-family="sans-serif" font-size="24.193548387096776" opacity="1" fill="#000000">
0.0
</text>
<polyline fill="none" opacity="1" stroke="#000000" stroke-width="1" points="130,658 130,663 "/>
<text x="239" y="668" dy="0.76em" text-anchor="middle" font-family="sans-serif" font-size="24.193548387096776" opacity="1" fill="#000000">
1000.0
</text>
<polyline fill="none" opacity="1" stroke="#000000" stroke-width="1" points="239,658 239,663 "/>
<text x="348" y="668" dy="0.76em" text-anchor="middle" font-family="sans-serif" font-size="24.193548387096776" opacity="1" fill="#000000">
2000.0
</text>
<polyline fill="none" opacity="1" stroke="#000000" stroke-width="1" points="348,658 348,663 "/>
<text x="457" y="668" dy="0.76em" text-anchor="middle" font-family="sans-serif" font-size="24.193548387096776" opacity="1" fill="#000000">
3000.0
</text>
<polyline fill="none" opacity="1" stroke="#000000" stroke-width="1" points="457,658 457,663 "/>
<text x="566" y="668" dy="0.76em" text-anchor="middle" font-family="sans-serif" font-size="24.193548387096776" opacity="1" fill="#000000">
4000.0
</text>
<polyline fill="none" opacity="1" stroke="#000000" stroke-width="1" points="566,658 566,663 "/>
<text x="675" y="668" dy="0.76em" text-anchor="middle" font-family="sans-serif" font-size="24.193548387096776" opacity="1" fill="#000000">
5000.0
</text>
<polyline fill="none" opacity="1" stroke="#000000" stroke-width="1" points="675,658 675,663 "/>
<text x="784" y="668" dy="0.76em" text-anchor="middle" font-family="sans-serif" font-size="24.193548387096776" opacity="1" fill="#000000">
6000.0
</text>
<polyline fill="none" opacity="1" stroke="#000000" stroke-width="1" points="784,658 784,663 "/>
<text x="893" y="668" dy="0.76em" text-anchor="middle" font-family="sans-serif" font-size="24.193548387096776" opacity="1" fill="#000000">
7000.0
</text>
<polyline fill="none" opacity="1" stroke="#000000" stroke-width="1" points="893,658 893,663 "/>
<text x="1003" y="668" dy="0.76em" text-anchor="middle" font-family="sans-serif" font-size="24.193548387096776" opacity="1" fill="#000000">
8000.0
</text>
<polyline fill="none" opacity="1" stroke="#000000" stroke-width="1" points="1003,658 1003,663 "/>
<polyline fill="none" opacity="1" stroke="#E6194B" stroke-width="1" points="130,247 131,250 133,277 134,300 136,269 137,311 139,302 140,334 142,214 143,196 145,222 146,277 148,172 149,149 151,218 152,210 154,227 155,274 157,289 158,217 160,191 161,290 163,178 164,225 166,184 167,224 169,149 170,174 172,141 173,131 175,241 176,168 178,204 180,199 181,280 183,231 184,172 186,163 187,203 189,175 190,134 192,102 193,142 195,80 196,61 198,134 199,103 201,215 202,213 204,186 205,263 207,216 208,266 210,174 211,171 213,207 214,155 216,240 217,154 219,127 220,104 222,148 223,153 225,166 227,212 228,206 230,320 231,178 233,167 234,262 236,168 237,185 239,197 240,148 242,145 243,163 245,143 246,175 248,212 249,189 251,226 252,195 254,236 255,287 257,324 258,232 260,201 261,481 263,223 264,230 266,243 267,214 269,365 270,215 272,313 273,233 275,268 277,258 278,386 280,213 281,280 283,218 284,318 286,264 287,244 289,245 290,213 292,207 293,280 295,313 296,336 298,293 299,309 301,280 302,250 304,277 305,235 307,241 308,255 310,285 311,249 313,235 314,210 316,215 317,421 319,278 320,319 322,307 324,265 325,268 327,281 328,293 330,248 331,274 333,320 334,288 336,273 337,333 339,260 340,308 342,289 343,332 345,260 346,245 348,331 349,306 351,287 352,276 354,300 355,286 357,277 358,297 360,307 361,330 363,347 364,299 366,285 367,399 369,272 370,272 372,319 374,250 375,238 377,308 378,357 380,267 381,257 383,289 384,266 386,316 387,264 389,264 390,286 392,301 393,408 395,276 396,260 398,250 399,274 401,251 402,263 404,239 405,266 407,334 408,352 410,246 411,259 413,245 414,264 416,220 417,179 419,187 421,230 422,223 424,199 425,220 427,208 428,245 430,377 431,293 433,212 434,229 436,297 437,275 439,223 440,220 442,263 443,267 445,293 446,320 448,458 449,344 451,298 452,358 454,278 455,372 457,281 458,303 460,429 461,267 463,267 464,382 466,289 467,276 469,255 471,256 472,245 474,324 475,406 477,248 478,230 480,271 481,296 483,219 484,214 486,270 487,268 489,292 490,249 492,253 493,230 495,316 496,270 498,268 499,346 501,251 502,305 504,237 505,207 507,209 508,274 510,271 511,246 513,229 514,273 516,240 518,266 519,269 521,370 522,302 524,322 525,353 527,318 528,305 530,374 531,380 533,418 534,417 536,397 537,412 539,419 540,380 542,320 543,300 545,347 546,305 548,317 549,296 551,290 552,353 554,421 555,314 557,326 558,340 560,321 561,423 563,391 564,339 566,358 568,388 569,391 571,363 572,320 574,305 575,361 577,369 578,329 580,323 581,481 583,577 584,364 586,343 587,374 589,335 590,330 592,405 593,345 595,305 596,322 598,447 599,417 601,393 602,447 604,396 605,391 607,346 608,316 610,340 611,414 613,381 615,357 616,358 618,421 619,422 621,356 622,358 624,402 625,370 627,526 628,327 630,316 631,351 633,456 634,449 636,392 637,418 639,354 640,436 642,353 643,339 645,366 646,341 648,333 649,382 651,411 652,480 654,441 655,346 657,319 658,356 660,357 661,343 663,439 665,341 666,416 668,332 669,363 671,445 672,444 674,472 675,428 677,425 678,456 680,428 681,470 683,419 684,410 686,387 687,406 689,470 690,383 692,424 693,461 695,378 696,368 698,417 699,461 701,453 702,448 704,423 705,406 707,557 708,422 710,408 712,425 713,459 715,512 716,392 718,373 719,402 721,407 722,424 724,456 725,458 727,536 728,441 730,398 731,414 733,428 734,359 736,324 737,327 739,360 740,432 742,443 743,448 745,386 746,385 748,465 749,486 751,498 752,422 754,472 755,561 757,470 758,500 760,616 762,443 763,451 765,469 766,469 768,450 769,444 771,541 772,458 774,418 775,455 777,478 778,439 780,474 781,470 783,502 784,467 786,447 787,529 789,372 790,347 792,360 793,413 795,510 796,555 798,522 799,540 801,546 802,536 804,536 805,510 807,498 809,427 810,431 812,574 813,487 815,388 816,360 818,373 819,415 821,425 822,487 824,480 825,500 827,490 828,451 830,458 831,468 833,478 834,500 836,501 837,481 839,425 840,441 842,492 843,411 845,408 846,443 848,553 849,610 851,465 852,497 854,602 855,497 857,530 859,488 860,452 862,436 863,476 865,448 866,486 868,557 869,489 871,461 872,501 874,458 875,457 877,481 878,514 880,477 881,479 883,499 884,466 886,470 887,485 889,463 890,450 892,390 893,374 895,377 896,403 898,487 899,568 901,469 902,516 904,511 906,500 907,468 909,530 910,437 912,453 913,530 915,531 916,549 918,565 919,530 921,463 922,484 924,539 925,465 927,468 928,491 930,542 931,497 933,522 934,510 936,460 937,466 939,490 940,500 942,519 943,551 945,627 946,570 948,518 949,546 951,542 952,497 954,483 956,533 957,580 959,658 960,542 962,581 963,515 965,477 966,451 968,658 969,484 971,442 972,420 974,466 975,658 977,487 978,416 980,406 981,418 983,423 984,437 986,426 987,408 989,430 990,504 992,471 993,567 995,526 996,516 998,486 999,533 1001,506 1003,502 1004,506 1004,533 1004,486 1004,516 1004,526 1004,567 1004,471 1004,504 1004,430 1004,408 1004,426 1004,437 1004,423 1004,418 1004,406 1004,416 1004,487 1004,658 1004,466 1004,420 1004,442 1004,484 1004,658 1004,451 1004,477 1004,515 1004,581 1004,542 1004,658 1004,580 1004,533 1004,483 1004,497 1004,542 1004,546 1004,518 1004,570 1004,627 1004,551 1004,519 1004,500 1004,490 1004,466 1004,460 1004,510 1004,522 1004,497 1004,542 1004,491 1004,468 1004,465 1004,539 1004,484 1004,463 1004,530 1004,565 1004,549 1004,531 1004,530 1004,453 1004,437 1004,530 1004,468 1004,500 1004,511 1004,516 1004,469 1004,568 1004,487 1004,403 1004,377 1004,374 1004,390 1004,450 1004,463 1004,485 1004,470 1004,466 1004,499 1004,479 1004,477 1004,514 1004,481 1004,457 1004,458 1004,501 1004,461 1004,489 1004,557 1004,486 1004,448 1004,476 1004,436 1004,452 1004,488 1004,530 1004,497 1004,602 1004,497 1004,465 1004,610 1004,553 1004,443 1004,408 1004,411 1004,492 1004,441 1004,425 1004,481 1004,501 1004,500 1004,478 1004,468 1004,458 1004,451 1004,490 1004,500 1004,480 1004,487 1004,425 1004,415 1004,373 1004,360 1004,388 1004,487 1004,574 1004,431 1004,427 1004,498 1004,510 1004,536 1004,536 1004,546 1004,540 1004,522 1004,555 1004,510 1004,413 1004,360 1004,347 1004,372 1004,529 1004,447 1004,467 1004,502 1004,470 1004,474 1004,439 1004,478 1004,455 1004,418 1004,458 1004,541 1004,444 1004,450 1004,469 1004,469 1004,451 1004,443 1004,616 1004,500 1004,470 1004,561 1004,472 1004,422 1004,498 1004,486 1004,465 1004,385 1004,386 1004,448 1004,443 1004,432 1004,360 1004,327 1004,324 1004,359 1004,428 1004,414 1004,398 1004,441 1004,536 1004,458 1004,456 1004,424 1004,407 1004,402 1004,373 1004,392 1004,512 1004,459 1004,425 1004,408 1004,422 1004,557 1004,406 1004,423 1004,448 1004,453 1004,461 1004,417 1004,368 1004,378 1004,461 1004,424 1004,383 1004,470 1004,406 1004,387 1004,410 1004,419 1004,470 1004,428 1004,456 1004,425 1004,428 1004,472 1004,444 1004,445 1004,363 1004,332 1004,416 1004,341 1004,439 1004,343 1004,357 1004,356 1004,319 1004,346 1004,441 1004,480 1004,411 1004,382 1004,333 1004,341 1004,366 1004,339 1004,353 1004,436 1004,354 1004,418 1004,392 1004,449 1004,456 1004,351 1004,316 1004,327 1004,526 1004,370 1004,402 1004,358 1004,356 1004,422 1004,421 1004,358 1004,357 1004,381 1004,414 1004,340 1004,316 1004,346 1004,391 1004,396 1004,447 1004,393 1004,417 1004,447 1004,322 1004,305 1004,345 1004,405 1004,330 1004,335 1004,374 1004,343 1004,364 1004,577 1004,481 1004,323 1004,329 1004,369 1004,361 1004,305 1004,320 1004,363 1004,391 1004,388 1004,358 1004,339 1004,391 1004,423 1004,321 1004,340 1004,326 1004,314 1004,421 1004,353 1004,290 1004,296 1004,317 1004,305 1004,347 1004,300 1004,320 1004,380 1004,419 1004,412 1004,397 1004,417 1004,418 1004,380 1004,374 1004,305 1004,318 1004,353 1004,322 1004,302 1004,370 1004,269 1004,266 1004,240 1004,273 1004,229 1004,246 1004,271 1004,274 1004,209 1004,207 1004,237 1004,305 1004,251 1004,346 1004,268 1004,270 1004,316 1004,230 1004,253 1004,249 1004,292 1004,268 1004,270 1004,214 1004,219 1004,296 1004,271 1004,230 1004,248 1004,406 1004,324 1004,245 1004,256 1004,255 1004,276 1004,289 1004,382 1004,267 1004,267 1004,429 1004,303 1004,281 1004,372 1004,278 1004,358 1004,298 1004,344 1004,458 1004,320 1004,293 1004,267 1004,263 1004,220 1004,223 1004,275 1004,297 1004,229 1004,212 1004,293 1004,377 1004,245 1004,208 1004,220 1004,199 1004,223 1004,230 1004,187 1004,179 1004,220 1004,264 1004,245 1004,259 1004,246 1004,352 1004,334 1004,266 1004,239 1004,263 1004,251 1004,274 1004,250 1004,260 1004,276 1004,408 1004,301 1004,286 1004,264 1004,264 1004,316 1004,266 1004,289 1004,257 1004,267 1004,357 1004,308 1004,238 1004,250 1004,319 1004,272 1004,272 1004,399 1004,285 1004,299 1004,347 1004,330 1004,307 1004,297 1004,277 1004,286 1004,300 1004,276 1004,287 1004,306 1004,331 1004,245 1004,260 1004,332 1004,289 1004,308 1004,260 1004,333 1004,273 1004,288 1004,320 1004,274 1004,248 1004,293 1004,281 1004,268 1004,265 1004,307 1004,319 1004,278 1004,421 1004,215 1004,210 1004,235 1004,249 1004,285 1004,255 1004,241 1004,235 1004,277 1004,250 1004,280 1004,309 1004,293 1004,336 1004,313 1004,280 1004,207 1004,213 1004,245 1004,244 1004,264 1004,318 1004,218 1004,280 1004,213 1004,386 1004,258 1004,268 1004,233 1004,313 1004,215 1004,365 1004,214 1004,243 1004,230 1004,223 1004,481 1004,201 1004,232 1004,324 1004,287 1004,236 1004,195 1004,226 1004,189 1004,212 1004,175 1004,143 1004,163 1004,145 1004,148 1004,197 1004,185 1004,168 1004,262 1004,167 1004,178 1004,320 1004,206 1004,212 1004,166 1004,153 1004,148 1004,104 1004,127 1004,154 1004,240 1004,155 1004,207 1004,171 1004,174 1004,266 1004,216 1004,263 1004,186 1004,213 1004,215 1004,103 1004,134 1004,61 1004,80 1004,142 1004,102 1004,134 1004,175 1004,203 1004,163 1004,172 1004,231 1004,280 1004,199 1004,204 1004,168 1004,241 1004,131 1004,141 1004,174 1004,149 1004,224 1004,184 1004,225 1004,178 1004,290 1004,191 1004,217 1004,289 1004,274 1004,227 1004,210 1004,218 1004,149 1004,172 1004,277 1004,222 1004,196 1004,214 1004,334 1004,302 1004,311 1004,269 1004,300 1004,277 1004,250 "/>
<polyline fill="none" opacity="1" stroke="#3CB44B" stroke-width="1" points="130,311 131,311 133,311 134,311 136,310 137,309 139,309 140,308 142,307 143,305 145,304 146,303 148,301 149,299 151,298 152,296 154,294 155,292 157,290 158,288 160,286 161,284 163,282 164,280 166,278 167,276 169,274 170,273 172,271 173,270 175,268 176,267 178,266 180,265 181,264 183,263 184,263 186,263 187,262 189,262 190,262 192,262 193,263 195,263 196,263 198,264 199,264 201,264 202,265 204,265 205,266 207,266 208,266 210,267 211,267 213,267 214,267 216,268 217,268 219,268 220,268 222,268 223,268 225,268 227,269 228,269 230,269 231,270 233,270 234,271 236,272 237,273 239,274 240,275 242,277 243,278 245,280 246,282 248,284 249,286 251,289 252,291 254,293 255,296 257,298 258,300 260,303 261,305 263,307 264,309 266,311 267,312 269,314 270,315 272,316 273,317 275,317 277,318 278,318 280,318 281,318 283,317 284,317 286,316 287,316 289,315 290,314 292,313 293,312 295,312 296,311 298,310 299,310 301,309 302,309 304,309 305,309 307,309 308,309 310,310 311,311 313,311 314,312 316,313 317,314 319,315 320,317 322,318 324,319 325,320 327,321 328,322 330,323 331,324 333,325 334,326 336,326 337,327 339,327 340,327 342,327 343,327 345,327 346,327 348,327 349,326 351,326 352,326 354,326 355,325 357,325 358,325 360,325 361,325 363,325 364,325 366,325 367,325 369,326 370,326 372,326 374,327 375,327 377,327 378,327 380,327 381,328 383,327 384,327 386,327 387,326 389,326 390,325 392,324 393,323 395,321 396,320 398,318 399,316 401,314 402,312 404,310 405,308 407,307 408,305 410,303 411,301 413,300 414,298 416,297 417,297 419,296 421,296 422,296 424,296 425,297 427,298 428,300 430,301 431,303 433,306 434,308 436,311 437,313 439,316 440,319 442,322 443,324 445,327 446,330 448,332 449,334 451,336 452,338 454,339 455,340 457,340 458,340 460,340 461,340 463,339 464,337 466,336 467,334 469,332 471,330 472,327 474,325 475,322 477,319 478,317 480,314 481,312 483,309 484,307 486,305 487,304 489,302 490,301 492,301 493,301 495,301 496,301 498,302 499,303 501,304 502,306 504,307 505,310 507,312 508,314 510,317 511,320 513,322 514,325 516,328 518,331 519,333 521,336 522,338 524,341 525,343 527,345 528,346 530,348 531,349 533,351 534,352 536,353 537,353 539,354 540,354 542,355 543,355 545,355 546,355 548,355 549,355 551,356 552,356 554,356 555,356 557,356 558,356 560,356 561,356 563,357 564,357 566,357 568,358 569,358 571,359 572,359 574,360 575,360 577,361 578,362 580,362 581,363 583,363 584,364 586,364 587,365 589,366 590,366 592,366 593,367 595,367 596,368 598,368 599,368 601,369 602,369 604,369 605,370 607,370 608,370 610,370 611,371 613,371 615,371 616,371 618,371 619,371 621,371 622,371 624,371 625,371 627,371 628,371 630,371 631,371 633,370 634,370 636,370 637,370 639,369 640,369 642,369 643,369 645,368 646,368 648,368 649,368 651,368 652,369 654,369 655,369 657,370 658,370 660,371 661,372 663,373 665,374 666,375 668,376 669,377 671,379 672,380 674,382 675,383 677,385 678,386 680,388 681,389 683,390 684,392 686,393 687,394 689,395 690,396 692,396 693,397 695,397 696,397 698,397 699,397 701,397 702,397 704,396 705,396 707,395 708,394 710,394 712,393 713,392 715,391 716,390 718,390 719,389 721,388 722,388 724,387 725,387 727,387 728,387 730,387 731,388 733,388 734,389 736,389 737,390 739,391 740,392 742,394 743,395 745,396 746,398 748,399 749,401 751,402 752,404 754,405 755,407 757,408 758,409 760,410 762,412 763,413 765,414 766,414 768,415 769,416 771,416 772,416 774,417 775,417 777,417 778,417 780,417 781,417 783,416 784,416 786,416 787,415 789,415 790,414 792,414 793,413 795,413 796,413 798,412 799,412 801,411 802,411 804,411 805,410 807,410 809,410 810,410 812,410 813,410 815,410 816,410 818,410 819,410 821,410 822,410 824,411 825,411 827,412 828,412 830,413 831,413 833,414 834,414 836,415 837,416 839,416 840,417 842,418 843,419 845,419 846,420 848,420 849,421 851,421 852,422 854,422 855,422 857,423 859,423 860,423 862,423 863,423 865,422 866,422 868,422 869,421 871,421 872,420 874,419 875,418 877,418 878,417 880,416 881,415 883,414 884,414 886,413 887,412 889,412 890,411 892,411 893,411 895,411 896,411 898,411 899,411 901,412 902,412 904,413 906,414 907,415 909,416 910,418 912,419 913,421 915,422 916,424 918,426 919,427 921,429 922,431 924,433 925,434 927,436 928,438 930,439 931,440 933,442 934,443 936,444 937,444 939,445 940,445 942,446 943,446 945,446 946,445 948,445 949,445 951,444 952,443 954,442 956,441 957,440 959,439 960,438 962,436 963,435 965,434 966,432 968,431 969,430 971,429 972,427 974,426 975,425 977,424 978,423 980,422 981,421 983,421 984,420 986,419 987,419 989,418 990,418 992,417 993,417 995,417 996,416 998,416 999,416 1001,416 1003,416 1004,416 1004,416 1004,416 1004,416 1004,417 1004,417 1004,417 1004,418 1004,418 1004,419 1004,419 1004,420 1004,421 1004,421 1004,422 1004,423 1004,424 1004,425 1004,426 1004,427 1004,429 1004,430 1004,431 1004,432 1004,434 1004,435 1004,436 1004,438 1004,439 1004,440 1004,441 1004,442 1004,443 1004,444 1004,445 1004,445 1004,445 1004,446 1004,446 1004,446 1004,445 1004,445 1004,444 1004,444 1004,443 1004,442 1004,440 1004,439 1004,438 1004,436 1004,434 1004,433 1004,431 1004,429 1004,427 1004,426 1004,424 1004,422 1004,421 1004,419 1004,418 1004,416 1004,415 1004,414 1004,413 1004,412 1004,412 1004,411 1004,411 1004,411 1004,411 1004,411 1004,411 1004,411 1004,412 1004,412 1004,413 1004,414 1004,414 1004,415 1004,416 1004,417 1004,418 1004,418 1004,419 1004,420 1004,421 1004,421 1004,422 1004,422 1004,422 1004,423 1004,423 1004,423 1004,423 1004,423 1004,422 1004,422 1004,422 1004,421 1004,421 1004,420 1004,420 1004,419 1004,419 1004,418 1004,417 1004,416 1004,416 1004,415 1004,414 1004,414 1004,413 1004,413 1004,412 1004,412 1004,411 1004,411 1004,410 1004,410 1004,410 1004,410 1004,410 1004,410 1004,410 1004,410 1004,410 1004,410 1004,410 1004,410 1004,411 1004,411 1004,411 1004,412 1004,412 1004,413 1004,413 1004,413 1004,414 1004,414 1004,415 1004,415 1004,416 1004,416 1004,416 1004,417 1004,417 1004,417 1004,417 1004,417 1004,417 1004,416 1004,416 1004,416 1004,415 1004,414 1004,414 1004,413 1004,412 1004,410 1004,409 1004,408 1004,407 1004,405 1004,404 1004,402 1004,401 1004,399 1004,398 1004,396 1004,395 1004,394 1004,392 1004,391 1004,390 1004,389 1004,389 1004,388 1004,388 1004,387 1004,387 1004,387 1004,387 1004,387 1004,388 1004,388 1004,389 1004,390 1004,390 1004,391 1004,392 1004,393 1004,394 1004,394 1004,395 1004,396 1004,396 1004,397 1004,397 1004,397 1004,397 1004,397 1004,397 1004,397 1004,396 1004,396 1004,395 1004,394 1004,393 1004,392 1004,390 1004,389 1004,388 1004,386 1004,385 1004,383 1004,382 1004,380 1004,379 1004,377 1004,376 1004,375 1004,374 1004,373 1004,372 1004,371 1004,370 1004,370 1004,369 1004,369 1004,369 1004,368 1004,368 1004,368 1004,368 1004,368 1004,369 1004,369 1004,369 1004,369 1004,370 1004,370 1004,370 1004,370 1004,371 1004,371 1004,371 1004,371 1004,371 1004,371 1004,371 1004,371 1004,371 1004,371 1004,371 1004,371 1004,371 1004,371 1004,370 1004,370 1004,370 1004,370 1004,369 1004,369 1004,369 1004,368 1004,368 1004,368 1004,367 1004,367 1004,366 1004,366 1004,366 1004,365 1004,364 1004,364 1004,363 1004,363 1004,362 1004,362 1004,361 1004,360 1004,360 1004,359 1004,359 1004,358 1004,358 1004,357 1004,357 1004,357 1004,356 1004,356 1004,356 1004,356 1004,356 1004,356 1004,356 1004,356 1004,355 1004,355 1004,355 1004,355 1004,355 1004,355 1004,354 1004,354 1004,353 1004,353 1004,352 1004,351 1004,349 1004,348 1004,346 1004,345 1004,343 1004,341 1004,338 1004,336 1004,333 1004,331 1004,328 1004,325 1004,322 1004,320 1004,317 1004,314 1004,312 1004,310 1004,307 1004,306 1004,304 1004,303 1004,302 1004,301 1004,301 1004,301 1004,301 1004,301 1004,302 1004,304 1004,305 1004,307 1004,309 1004,312 1004,314 1004,317 1004,319 1004,322 1004,325 1004,327 1004,330 1004,332 1004,334 1004,336 1004,337 1004,339 1004,340 1004,340 1004,340 1004,340 1004,340 1004,339 1004,338 1004,336 1004,334 1004,332 1004,330 1004,327 1004,324 1004,322 1004,319 1004,316 1004,313 1004,311 1004,308 1004,306 1004,303 1004,301 1004,300 1004,298 1004,297 1004,296 1004,296 1004,296 1004,296 1004,297 1004,297 1004,298 1004,300 1004,301 1004,303 1004,305 1004,307 1004,308 1004,310 1004,312 1004,314 1004,316 1004,318 1004,320 1004,321 1004,323 1004,324 1004,325 1004,326 1004,326 1004,327 1004,327 1004,327 1004,328 1004,327 1004,327 1004,327 1004,327 1004,327 1004,326 1004,326 1004,326 1004,325 1004,325 1004,325 1004,325 1004,325 1004,325 1004,325 1004,325 1004,325 1004,326 1004,326 1004,326 1004,326 1004,327 1004,327 1004,327 1004,327 1004,327 1004,327 1004,327 1004,327 1004,326 1004,326 1004,325 1004,324 1004,323 1004,322 1004,321 1004,320 1004,319 1004,318 1004,317 1004,315 1004,314 1004,313 1004,312 1004,311 1004,311 1004,310 1004,309 1004,309 1004,309 1004,309 1004,309 1004,309 1004,310 1004,310 1004,311 1004,312 1004,312 1004,313 1004,314 1004,315 1004,316 1004,316 1004,317 1004,317 1004,318 1004,318 1004,318 1004,318 1004,317 1004,317 1004,316 1004,315 1004,314 1004,312 1004,311 1004,309 1004,307 1004,305 1004,303 1004,300 1004,298 1004,296 1004,293 1004,291 1004,289 1004,286 1004,284 1004,282 1004,280 1004,278 1004,277 1004,275 1004,274 1004,273 1004,272 1004,271 1004,270 1004,270 1004,269 1004,269 1004,269 1004,268 1004,268 1004,268 1004,268 1004,268 1004,268 1004,268 1004,267 1004,267 1004,267 1004,267 1004,266 1004,266 1004,266 1004,265 1004,265 1004,264 1004,264 1004,264 1004,263 1004,263 1004,263 1004,262 1004,262 1004,262 1004,262 1004,263 1004,263 1004,263 1004,264 1004,265 1004,266 1004,267 1004,268 1004,270 1004,271 1004,273 1004,274 1004,276 1004,278 1004,280 1004,282 1004,284 1004,286 1004,288 1004,290 1004,292 1004,294 1004,296 1004,298 1004,299 1004,301 1004,303 1004,304 1004,305 1004,307 1004,308 1004,309 1004,309 1004,310 1004,311 1004,311 1004,311 "/>
<polyline fill="none" opacity="1" stroke="#FFE119" stroke-width="1" points="130,356 131,356 133,356 134,356 136,356 137,356 139,356 140,356 142,356 143,356 145,356 146,356 148,356 149,356 151,356 152,356 154,356 155,356 157,356 158,356 160,356 161,356 163,356 164,356 166,356 167,356 169,356 170,356 172,356 173,357 175,357 176,357 178,357 180,357 181,357 183,357 184,357 186,357 187,357 189,357 190,357 192,357 193,357 195,357 196,357 198,357 199,357 201,357 202,357 204,357 205,357 207,357 208,357 210,357 211,357 213,357 214,357 216,357 217,357 219,357 220,357 222,358 223,358 225,358 227,358 228,358 230,358 231,358 233,358 234,358 236,358 237,358 239,358 240,358 242,358 243,359 245,359 246,359 248,359 249,359 251,359 252,359 254,359 255,360 257,360 258,360 260,360 261,360 263,360 264,360 266,360 267,361 269,361 270,361 272,361 273,361 275,361 277,361 278,361 280,361 281,361 283,361 284,361 286,362 287,362 289,362 290,362 292,362 293,362 295,362 296,362 298,363 299,363 301,363 302,363 304,363 305,364 307,364 308,364 310,364 311,364 313,365 314,365 316,365 317,365 319,366 320,366 322,366 324,366 325,366 327,367 328,367 330,367 331,367 333,367 334,367 336,368 337,368 339,368 340,368 342,368 343,368 345,368 346,368 348,368 349,368 351,368 352,368 354,368 355,368 357,368 358,368 360,367 361,367 363,367 364,367 366,366 367,366 369,366 370,365 372,365 374,365 375,364 377,364 378,363 380,363 381,362 383,361 384,361 386,360 387,360 389,359 390,358 392,358 393,357 395,357 396,356 398,356 399,356 401,355 402,355 404,355 405,355 407,355 408,355 410,355 411,356 413,356 414,356 416,357 417,357 419,358 421,359 422,359 424,360 425,360 427,361 428,362 430,362 431,363 433,363 434,364 436,364 437,365 439,365 440,366 442,366 443,366 445,366 446,366 448,367 449,367 451,367 452,366 454,366 455,366 457,366 458,366 460,366 461,366 463,365 464,365 466,365 467,365 469,365 471,365 472,364 474,364 475,364 477,364 478,364 480,364 481,364 483,364 484,364 486,364 487,363 489,363 490,363 492,363 493,363 495,363 496,363 498,363 499,362 501,362 502,362 504,362 505,362 507,362 508,361 510,361 511,361 513,362 514,362 516,362 518,362 519,363 521,364 522,364 524,365 525,366 527,368 528,369 530,370 531,372 533,373 534,375 536,377 537,378 539,380 540,382 542,383 543,385 545,386 546,388 548,389 549,391 551,392 552,393 554,394 555,395 557,396 558,397 560,397 561,398 563,398 564,398 566,399 568,399 569,399 571,399 572,399 574,399 575,399 577,398 578,398 580,398 581,398 583,398 584,398 586,398 587,398 589,399 590,399 592,400 593,401 595,402 596,403 598,404 599,405 601,407 602,408 604,410 605,411 607,413 608,414 610,416 611,417 613,418 615,420 616,421 618,422 619,423 621,424 622,425 624,425 625,426 627,426 628,426 630,426 631,426 633,426 634,426 636,425 637,425 639,424 640,424 642,423 643,422 645,422 646,421 648,421 649,420 651,420 652,420 654,420 655,421 657,422 658,423 660,424 661,426 663,428 665,430 666,432 668,435 669,437 671,440 672,442 674,445 675,447 677,449 678,452 680,454 681,456 683,457 684,459 686,460 687,462 689,463 690,464 692,464 693,465 695,465 696,465 698,465 699,464 701,464 702,463 704,461 705,460 707,458 708,456 710,454 712,451 713,448 715,445 716,442 718,438 719,435 721,431 722,428 724,425 725,423 727,422 728,422 730,423 731,425 733,429 734,433 736,438 737,444 739,449 740,455 742,460 743,465 745,470 746,475 748,479 749,484 751,487 752,491 754,494 755,497 757,500 758,503 760,505 762,507 763,508 765,510 766,511 768,512 769,513 771,513 772,513 774,513 775,513 777,513 778,512 780,511 781,509 783,508 784,506 786,504 787,501 789,499 790,495 792,492 793,488 795,485 796,481 798,476 799,472 801,468 802,465 804,463 805,461 807,461 809,463 810,465 812,469 813,474 815,479 816,485 818,490 819,496 821,501 822,506 824,511 825,516 827,520 828,524 830,528 831,531 833,534 834,537 836,540 837,542 839,544 840,546 842,548 843,549 845,550 846,551 848,552 849,552 851,552 852,552 854,552 855,552 857,551 859,550 860,549 862,548 863,546 865,544 866,542 868,540 869,537 871,535 872,532 874,529 875,526 877,523 878,520 880,517 881,514 883,512 884,511 886,511 887,511 889,513 890,515 892,518 893,522 895,526 896,530 898,535 899,539 901,544 902,548 904,552 906,557 907,560 909,564 910,568 912,571 913,574 915,577 916,580 918,582 919,584 921,586 922,588 924,590 925,592 927,593 928,595 930,596 931,597 933,598 934,598 936,599 937,599 939,600 940,600 942,600 943,600 945,599 946,599 948,599 949,598 951,597 952,596 954,595 956,594 957,593 959,592 960,590 962,589 963,587 965,585 966,583 968,581 969,579 971,577 972,575 974,572 975,570 977,567 978,565 980,562 981,559 983,557 984,554 986,551 987,548 989,546 990,543 992,541 993,538 995,536 996,535 998,533 999,532 1001,532 1003,531 "/>
<polyline fill="none" opacity="1" stroke="#0082C8" stroke-width="1" points="130,256 131,256 133,256 134,256 136,256 137,256 139,256 140,256 142,256 143,256 145,256 146,256 148,256 149,256 151,256 152,256 154,256 155,256 157,256 158,256 160,256 161,256 163,256 164,256 166,256 167,256 169,256 170,256 172,257 173,257 175,257 176,257 178,257 180,257 181,257 183,257 184,257 186,257 187,257 189,257 190,257 192,257 193,257 195,257 196,257 198,257 199,257 201,257 202,257 204,257 205,257 207,257 208,257 210,257 211,257 213,257 214,257 216,257 217,257 219,257 220,258 222,258 223,258 225,258 227,258 228,258 230,258 231,258 233,258 234,258 236,258 237,258 239,258 240,258 242,258 243,259 245,259 246,259 248,259 249,259 251,259 252,259 254,259 255,260 257,260 258,260 260,260 261,260 263,260 264,260 266,260 267,261 269,261 270,261 272,261 273,261 275,261 277,261 278,261 280,261 281,261 283,261 284,261 286,262 287,262 289,262 290,262 292,262 293,262 295,262 296,262 298,263 299,263 301,263 302,263 304,263 305,264 307,264 308,264 310,264 311,265 313,265 314,265 316,265 317,265 319,266 320,266 322,266 324,266 325,267 327,267 328,267 330,267 331,267 333,267 334,267 336,268 337,268 339,268 340,268 342,268 343,268 345,268 346,268 348,268 349,268 351,268 352,268 354,268 355,268 357,268 358,268 360,267 361,267 363,267 364,267 366,266 367,266 369,266 370,265 372,265 374,265 375,264 377,264 378,263 380,263 381,262 383,261 384,261 386,260 387,260 389,259 390,258 392,258 393,257 395,257 396,256 398,256 399,256 401,255 402,255 404,255 405,255 407,255 408,255 410,255 411,256 413,256 414,256 416,257 417,257 419,258 421,259 422,259 424,260 425,260 427,261 428,262 430,262 431,263 433,263 434,264 436,264 437,265 439,265 440,266 442,266 443,266 445,266 446,266 448,267 449,267 451,267 452,267 454,266 455,266 457,266 458,266 460,266 461,266 463,266 464,265 466,265 467,265 469,265 471,265 472,264 474,264 475,264 477,264 478,264 480,264 481,264 483,264 484,264 486,264 487,264 489,263 490,263 492,263 493,263 495,263 496,263 498,263 499,262 501,262 502,262 504,262 505,262 507,262 508,261 510,261 511,261 513,262 514,262 516,262 518,262 519,263 521,264 522,264 524,265 525,266 527,268 528,269 530,270 531,272 533,273 534,275 536,277 537,278 539,280 540,282 542,283 543,285 545,286 546,288 548,289 549,291 551,292 552,293 554,294 555,295 557,296 558,297 560,297 561,298 563,298 564,298 566,299 568,299 569,299 571,299 572,299 574,299 575,299 577,298 578,298 580,298 581,298 583,298 584,298 586,298 587,299 589,299 590,299 592,300 593,301 595,302 596,303 598,304 599,305 601,307 602,308 604,310 605,311 607,313 608,314 610,316 611,317 613,318 615,320 616,321 618,322 619,323 621,324 622,325 624,325 625,326 627,326 628,326 630,326 631,326 633,326 634,326 636,325 637,325 639,324 640,324 642,323 643,322 645,322 646,321 648,321 649,320 651,320 652,320 654,320 655,321 657,322 658,323 660,324 661,326 663,328 665,330 666,332 668,335 669,337 671,340 672,342 674,345 675,347 677,349 678,352 680,354 681,356 683,357 684,359 686,361 687,362 689,363 690,364 692,364 693,365 695,365 696,365 698,365 699,364 701,364 702,363 704,362 705,360 707,358 708,356 710,354 712,351 713,348 715,345 716,342 718,338 719,335 721,331 722,328 724,325 725,323 727,322 728,322 730,323 731,325 733,329 734,333 736,338 737,344 739,349 740,355 742,360 743,365 745,370 746,375 748,380 749,384 751,387 752,391 754,394 755,397 757,400 758,403 760,405 762,407 763,408 765,410 766,411 768,412 769,413 771,413 772,414 774,414 775,413 777,413 778,412 780,411 781,410 783,408 784,406 786,404 787,401 789,399 790,395 792,392 793,388 795,385 796,381 798,376 799,372 801,369 802,365 804,363 805,361 807,361 809,363 810,365 812,369 813,374 815,379 816,385 818,390 819,396 821,401 822,406 824,411 825,416 827,420 828,424 830,428 831,431 833,434 834,437 836,440 837,442 839,444 840,446 842,448 843,449 845,450 846,451 848,452 849,452 851,453 852,453 854,452 855,452 857,451 859,450 860,449 862,448 863,446 865,444 866,442 868,440 869,437 871,435 872,432 874,429 875,426 877,423 878,420 880,417 881,414 883,412 884,411 886,411 887,411 889,413 890,415 892,418 893,422 895,426 896,430 898,435 899,439 901,444 902,448 904,452 906,457 907,460 909,464 910,468 912,471 913,474 915,477 916,480 918,482 919,484 921,487 922,488 924,490 925,492 927,493 928,495 930,496 931,497 933,498 934,498 936,499 937,499 939,500 940,500 942,500 943,500 945,499 946,499 948,499 949,498 951,497 952,496 954,495 956,494 957,493 959,492 960,490 962,489 963,487 965,485 966,483 968,481 969,479 971,477 972,475 974,472 975,470 977,467 978,465 980,462 981,459 983,457 984,454 986,451 987,448 989,446 990,443 992,441 993,438 995,436 996,435 998,433 999,432 1001,432 1003,431 "/>
<rect x="655" y="260" width="344" height="157" opacity="0.8" fill="#FFFFFF" stroke="none"/>
<rect x="655" y="260" width="344" height="157" opacity="1" fill="none" stroke="#000000"/>
<text x="695" y="270" dy="0.76em" text-anchor="start" font-family="sans-serif" font-size="24.193548387096776" opacity="1" fill="#000000">
log_power
</text>
<text x="695" y="308" dy="0.76em" text-anchor="start" font-family="sans-serif" font-size="24.193548387096776" opacity="1" fill="#000000">
spectral_envelope
</text>
<text x="695" y="345" dy="0.76em" text-anchor="start" font-family="sans-serif" font-size="24.193548387096776" opacity="1" fill="#000000">
levinson_durbin_log_power
</text>
<text x="695" y="383" dy="0.76em" text-anchor="start" font-family="sans-serif" font-size="24.193548387096776" opacity="1" fill="#000000">
burg_log_power
</text>
<polyline fill="none" opacity="1" stroke="#E6194B" stroke-width="1" points="665,282 685,282 "/>
<polyline fill="none" opacity="1" stroke="#3CB44B" stroke-width="1" points="665,320 685,320 "/>
<polyline fill="none" opacity="1" stroke="#FFE119" stroke-width="1" points="665,357 685,357 "/>
<polyline fill="none" opacity="1" stroke="#0082C8" stroke-width="1" points="665,395 685,395 "/>
</svg>
