<svg width="1024" height="768" viewBox="0 0 1024 768" xmlns="http://www.w3.org/2000/svg">
<rect x="0" y="0" width="1024" height="768" opacity="1" fill="#FFFFFF" stroke="none"/>
<line opacity="0.1" stroke="#000000" stroke-width="1" x1="130" y1="657" x2="130" y2="20"/>
<line opacity="0.1" stroke="#000000" stroke-width="1" x1="140" y1="657" x2="140" y2="20"/>
<line opacity="0.1" stroke="#000000" stroke-width="1" x1="151" y1="657" x2="151" y2="20"/>
<line opacity="0.1" stroke="#000000" stroke-width="1" x1="162" y1="657" x2="162" y2="20"/>
<line opacity="0.1" stroke="#000000" stroke-width="1" x1="173" y1="657" x2="173" y2="20"/>
<line opacity="0.1" stroke="#000000" stroke-width="1" x1="184" y1="657" x2="184" y2="20"/>
<line opacity="0.1" stroke="#000000" stroke-width="1" x1="195" y1="657" x2="195" y2="20"/>
<line opacity="0.1" stroke="#000000" stroke-width="1" x1="206" y1="657" x2="206" y2="20"/>
<line opacity="0.1" stroke="#000000" stroke-width="1" x1="217" y1="657" x2="217" y2="20"/>
<line opacity="0.1" stroke="#000000" stroke-width="1" x1="228" y1="657" x2="228" y2="20"/>
<line opacity="0.1" stroke="#000000" stroke-width="1" x1="239" y1="657" x2="239" y2="20"/>
<line opacity="0.1" stroke="#000000" stroke-width="1" x1="250" y1="657" x2="250" y2="20"/>
<line opacity="0.1" stroke="#000000" stroke-width="1" x1="260" y1="657" x2="260" y2="20"/>
<line opacity="0.1" stroke="#000000" stroke-width="1" x1="271" y1="657" x2="271" y2="20"/>
<line opacity="0.1" stroke="#000000" stroke-width="1" x1="282" y1="657" x2="282" y2="20"/>
<line opacity="0.1" stroke="#000000" stroke-width="1" x1="293" y1="657" x2="293" y2="20"/>
<line opacity="0.1" stroke="#000000" stroke-width="1" x1="304" y1="657" x2="304" y2="20"/>
<line opacity="0.1" stroke="#000000" stroke-width="1" x1="315" y1="657" x2="315" y2="20"/>
<line opacity="0.1" stroke="#000000" stroke-width="1" x1="326" y1="657" x2="326" y2="20"/>
<line opacity="0.1" stroke="#000000" stroke-width="1" x1="337" y1="657" x2="337" y2="20"/>
<line opacity="0.1" stroke="#000000" stroke-width="1" x1="348" y1="657" x2="348" y2="20"/>
<line opacity="0.1" stroke="#000000" stroke-width="1" x1="359" y1="657" x2="359" y2="20"/>
<line opacity="0.1" stroke="#000000" stroke-width="1" x1="370" y1="657" x2="370" y2="20"/>
<line opacity="0.1" stroke="#000000" stroke-width="1" x1="380" y1="657" x2="380" y2="20"/>
<line opacity="0.1" stroke="#000000" stroke-width="1" x1="391" y1="657" x2="391" y2="20"/>
<line opacity="0.1" stroke="#000000" stroke-width="1" x1="402" y1="657" x2="402" y2="20"/>
<line opacity="0.1" stroke="#000000" stroke-width="1" x1="413" y1="657" x2="413" y2="20"/>
<line opacity="0.1" stroke="#000000" stroke-width="1" x1="424" y1="657" x2="424" y2="20"/>
<line opacity="0.1" stroke="#000000" stroke-width="1" x1="435" y1="657" x2="435" y2="20"/>
<line opacity="0.1" stroke="#000000" stroke-width="1" x1="446" y1="657" x2="446" y2="20"/>
<line opacity="0.1" stroke="#000000" stroke-width="1" x1="457" y1="657" x2="457" y2="20"/>
<line opacity="0.1" stroke="#000000" stroke-width="1" x1="468" y1="657" x2="468" y2="20"/>
<line opacity="0.1" stroke="#000000" stroke-width="1" x1="479" y1="657" x2="479" y2="20"/>
<line opacity="0.1" stroke="#000000" stroke-width="1" x1="490" y1="657" x2="490" y2="20"/>
<line opacity="0.1" stroke="#000000" stroke-width="1" x1="501" y1="657" x2="501" y2="20"/>
<line opacity="0.1" stroke="#000000" stroke-width="1" x1="511" y1="657" x2="511" y2="20"/>
<line opacity="0.1" stroke="#000000" stroke-width="1" x1="522" y1="657" x2="522" y2="20"/>
<line opacity="0.1" stroke="#000000" stroke-width="1" x1="533" y1="657" x2="533" y2="20"/>
<line opacity="0.1" stroke="#000000" stroke-width="1" x1="544" y1="657" x2="544" y2="20"/>
<line opacity="0.1" stroke="#000000" stroke-width="1" x1="555" y1="657" x2="555" y2="20"/>
<line opacity="0.1" stroke="#000000" stroke-width="1" x1="566" y1="657" x2="566" y2="20"/>
<line opacity="0.1" stroke="#000000" stroke-width="1" x1="577" y1="657" x2="577" y2="20"/>
<line opacity="0.1" stroke="#000000" stroke-width="1" x1="588" y1="657" x2="588" y2="20"/>
<line opacity="0.1" stroke="#000000" stroke-width="1" x1="599" y1="657" x2="599" y2="20"/>
<line opacity="0.1" stroke="#000000" stroke-width="1" x1="610" y1="657" x2="610" y2="20"/>
<line opacity="0.1" stroke="#000000" stroke-width="1" x1="621" y1="657" x2="621" y2="20"/>
<line opacity="0.1" stroke="#000000" stroke-width="1" x1="631" y1="657" x2="631" y2="20"/>
<line opacity="0.1" stroke="#000000" stroke-width="1" x1="642" y1="657" x2="642" y2="20"/>
<line opacity="0.1" stroke="#000000" stroke-width="1" x1="653" y1="657" x2="653" y2="20"/>
<line opacity="0.1" stroke="#000000" stroke-width="1" x1="664" y1="657" x2="664" y2="20"/>
<line opacity="0.1" stroke="#000000" stroke-width="1" x1="675" y1="657" x2="675" y2="20"/>
<line opacity="0.1" stroke="#000000" stroke-width="1" x1="686" y1="657" x2="686" y2="20"/>
<line opacity="0.1" stroke="#000000" stroke-width="1" x1="697" y1="657" x2="697" y2="20"/>
<line opacity="0.1" stroke="#000000" stroke-width="1" x1="708" y1="657" x2="708" y2="20"/>
<line opacity="0.1" stroke="#000000" stroke-width="1" x1="719" y1="657" x2="719" y2="20"/>
<line opacity="0.1" stroke="#000000" stroke-width="1" x1="730" y1="657" x2="730" y2="20"/>
<line opacity="0.1" stroke="#000000" stroke-width="1" x1="741" y1="657" x2="741" y2="20"/>
<line opacity="0.1" stroke="#000000" stroke-width="1" x1="752" y1="657" x2="752" y2="20"/>
<line opacity="0.1" stroke="#000000" stroke-width="1" x1="762" y1="657" x2="762" y2="20"/>
<line opacity="0.1" stroke="#000000" stroke-width="1" x1="773" y1="657" x2="773" y2="20"/>
<line opacity="0.1" stroke="#000000" stroke-width="1" x1="784" y1="657" x2="784" y2="20"/>
<line opacity="0.1" stroke="#000000" stroke-width="1" x1="795" y1="657" x2="795" y2="20"/>
<line opacity="0.1" stroke="#000000" stroke-width="1" x1="806" y1="657" x2="806" y2="20"/>
<line opacity="0.1" stroke="#000000" stroke-width="1" x1="817" y1="657" x2="817" y2="20"/>
<line opacity="0.1" stroke="#000000" stroke-width="1" x1="828" y1="657" x2="828" y2="20"/>
<line opacity="0.1" stroke="#000000" stroke-width="1" x1="839" y1="657" x2="839" y2="20"/>
<line opacity="0.1" stroke="#000000" stroke-width="1" x1="850" y1="657" x2="850" y2="20"/>
<line opacity="0.1" stroke="#000000" stroke-width="1" x1="861" y1="657" x2="861" y2="20"/>
<line opacity="0.1" stroke="#000000" stroke-width="1" x1="872" y1="657" x2="872" y2="20"/>
<line opacity="0.1" stroke="#000000" stroke-width="1" x1="882" y1="657" x2="882" y2="20"/>
<line opacity="0.1" stroke="#000000" stroke-width="1" x1="893" y1="657" x2="893" y2="20"/>
<line opacity="0.1" stroke="#000000" stroke-width="1" x1="904" y1="657" x2="904" y2="20"/>
<line opacity="0.1" stroke="#000000" stroke-width="1" x1="915" y1="657" x2="915" y2="20"/>
<line opacity="0.1" stroke="#000000" stroke-width="1" x1="926" y1="657" x2="926" y2="20"/>
<line opacity="0.1" stroke="#000000" stroke-width="1" x1="937" y1="657" x2="937" y2="20"/>
<line opacity="0.1" stroke="#000000" stroke-width="1" x1="948" y1="657" x2="948" y2="20"/>
<line opacity="0.1" stroke="#000000" stroke-width="1" x1="959" y1="657" x2="959" y2="20"/>
<line opacity="0.1" stroke="#000000" stroke-width="1" x1="970" y1="657" x2="970" y2="20"/>
<line opacity="0.1" stroke="#000000" stroke-width="1" x1="981" y1="657" x2="981" y2="20"/>
<line opacity="0.1" stroke="#000000" stroke-width="1" x1="992" y1="657" x2="992" y2="20"/>
<line opacity="0.1" stroke="#000000" stroke-width="1" x1="1003" y1="657" x2="1003" y2="20"/>
<line opacity="0.1" stroke="#000000" stroke-width="1" x1="130" y1="657" x2="1003" y2="657"/>
<line opacity="0.1" stroke="#000000" stroke-width="1" x1="130" y1="648" x2="1003" y2="648"/>
<line opacity="0.1" stroke="#000000" stroke-width="1" x1="130" y1="639" x2="1003" y2="639"/>
<line opacity="0.1" stroke="#000000" stroke-width="1" x1="130" y1="630" x2="1003" y2="630"/>
<line opacity="0.1" stroke="#000000" stroke-width="1" x1="130" y1="621" x2="1003" y2="621"/>
<line opacity="0.1" stroke="#000000" stroke-width="1" x1="130" y1="612" x2="1003" y2="612"/>
<line opacity="0.1" stroke="#000000" stroke-width="1" x1="130" y1="603" x2="1003" y2="603"/>
<line opacity="0.1" stroke="#000000" stroke-width="1" x1="130" y1="594" x2="1003" y2="594"/>
<line opacity="0.1" stroke="#000000" stroke-width="1" x1="130" y1="585" x2="1003" y2="585"/>
<line opacity="0.1" stroke="#000000" stroke-width="1" x1="130" y1="576" x2="1003" y2="576"/>
<line opacity="0.1" stroke="#000000" stroke-width="1" x1="130" y1="566" x2="1003" y2="566"/>
<line opacity="0.1" stroke="#000000" stroke-width="1" x1="130" y1="557" x2="1003" y2="557"/>
<line opacity="0.1" stroke="#000000" stroke-width="1" x1="130" y1="548" x2="1003" y2="548"/>
<line opacity="0.1" stroke="#000000" stroke-width="1" x1="130" y1="539" x2="1003" y2="539"/>
<line opacity="0.1" stroke="#000000" stroke-width="1" x1="130" y1="530" x2="1003" y2="530"/>
<line opacity="0.1" stroke="#000000" stroke-width="1" x1="130" y1="521" x2="1003" y2="521"/>
<line opacity="0.1" stroke="#000000" stroke-width="1" x1="130" y1="512" x2="1003" y2="512"/>
<line opacity="0.1" stroke="#000000" stroke-width="1" x1="130" y1="503" x2="1003" y2="503"/>
<line opacity="0.1" stroke="#000000" stroke-width="1" x1="130" y1="494" x2="1003" y2="494"/>
<line opacity="0.1" stroke="#000000" stroke-width="1" x1="130" y1="485" x2="1003" y2="485"/>
<line opacity="0.1" stroke="#000000" stroke-width="1" x1="130" y1="475" x2="1003" y2="475"/>
<line opacity="0.1" stroke="#000000" stroke-width="1" x1="130" y1="466" x2="1003" y2="466"/>
<line opacity="0.1" stroke="#000000" stroke-width="1" x1="130" y1="457" x2="1003" y2="457"/>
<line opacity="0.1" stroke="#000000" stroke-width="1" x1="130" y1="448" x2="1003" y2="448"/>
<line opacity="0.1" stroke="#000000" stroke-width="1" x1="130" y1="439" x2="1003" y2="439"/>
<line opacity="0.1" stroke="#000000" stroke-width="1" x1="130" y1="430" x2="1003" y2="430"/>
<line opacity="0.1" stroke="#000000" stroke-width="1" x1="130" y1="421" x2="1003" y2="421"/>
<line opacity="0.1" stroke="#000000" stroke-width="1" x1="130" y1="412" x2="1003" y2="412"/>
<line opacity="0.1" stroke="#000000" stroke-width="1" x1="130" y1="403" x2="1003" y2="403"/>
<line opacity="0.1" stroke="#000000" stroke-width="1" x1="130" y1="394" x2="1003" y2="394"/>
<line opacity="0.1" stroke="#000000" stroke-width="1" x1="130" y1="384" x2="1003" y2="384"/>
<line opacity="0.1" stroke="#000000" stroke-width="1" x1="130" y1="375" x2="1003" y2="375"/>
<line opacity="0.1" stroke="#000000" stroke-width="1" x1="130" y1="366" x2="1003" y2="366"/>
<line opacity="0.1" stroke="#000000" stroke-width="1" x1="130" y1="357" x2="1003" y2="357"/>
<line opacity="0.1" stroke="#000000" stroke-width="1" x1="130" y1="348" x2="1003" y2="348"/>
<line opacity="0.1" stroke="#000000" stroke-width="1" x1="130" y1="339" x2="1003" y2="339"/>
<line opacity="0.1" stroke="#000000" stroke-width="1" x1="130" y1="330" x2="1003" y2="330"/>
<line opacity="0.1" stroke="#000000" stroke-width="1" x1="130" y1="321" x2="1003" y2="321"/>
<line opacity="0.1" stroke="#000000" stroke-width="1" x1="130" y1="312" x2="1003" y2="312"/>
<line opacity="0.1" stroke="#000000" stroke-width="1" x1="130" y1="303" x2="1003" y2="303"/>
<line opacity="0.1" stroke="#000000" stroke-width="1" x1="130" y1="293" x2="1003" y2="293"/>
<line opacity="0.1" stroke="#000000" stroke-width="1" x1="130" y1="284" x2="1003" y2="284"/>
<line opacity="0.1" stroke="#000000" stroke-width="1" x1="130" y1="275" x2="1003" y2="275"/>
<line opacity="0.1" stroke="#000000" stroke-width="1" x1="130" y1="266" x2="1003" y2="266"/>
<line opacity="0.1" stroke="#000000" stroke-width="1" x1="130" y1="257" x2="1003" y2="257"/>
<line opacity="0.1" stroke="#000000" stroke-width="1" x1="130" y1="248" x2="1003" y2="248"/>
<line opacity="0.1" stroke="#000000" stroke-width="1" x1="130" y1="239" x2="1003" y2="239"/>
<line opacity="0.1" stroke="#000000" stroke-width="1" x1="130" y1="230" x2="1003" y2="230"/>
<line opacity="0.1" stroke="#000000" stroke-width="1" x1="130" y1="221" x2="1003" y2="221"/>
<line opacity="0.1" stroke="#000000" stroke-width="1" x1="130" y1="212" x2="1003" y2="212"/>
<line opacity="0.1" stroke="#000000" stroke-width="1" x1="130" y1="202" x2="1003" y2="202"/>
<line opacity="0.1" stroke="#000000" stroke-width="1" x1="130" y1="193" x2="1003" y2="193"/>
<line opacity="0.1" stroke="#000000" stroke-width="1" x1="130" y1="184" x2="1003" y2="184"/>
<line opacity="0.1" stroke="#000000" stroke-width="1" x1="130" y1="175" x2="1003" y2="175"/>
<line opacity="0.1" stroke="#000000" stroke-width="1" x1="130" y1="166" x2="1003" y2="166"/>
<line opacity="0.1" stroke="#000000" stroke-width="1" x1="130" y1="157" x2="1003" y2="157"/>
<line opacity="0.1" stroke="#000000" stroke-width="1" x1="130" y1="148" x2="1003" y2="148"/>
<line opacity="0.1" stroke="#000000" stroke-width="1" x1="130" y1="139" x2="1003" y2="139"/>
<line opacity="0.1" stroke="#000000" stroke-width="1" x1="130" y1="130" x2="1003" y2="130"/>
<line opacity="0.1" stroke="#000000" stroke-width="1" x1="130" y1="121" x2="1003" y2="121"/>
<line opacity="0.1" stroke="#000000" stroke-width="1" x1="130" y1="111" x2="1003" y2="111"/>
<line opacity="0.1" stroke="#000000" stroke-width="1" x1="130" y1="102" x2="1003" y2="102"/>
<line opacity="0.1" stroke="#000000" stroke-width="1" x1="130" y1="93" x2="1003" y2="93"/>
<line opacity="0.1" stroke="#000000" stroke-width="1" x1="130" y1="84" x2="1003" y2="84"/>
<line opacity="0.1" stroke="#000000" stroke-width="1" x1="130" y1="75" x2="1003" y2="75"/>
<line opacity="0.1" stroke="#000000" stroke-width="1" x1="130" y1="66" x2="1003" y2="66"/>
<line opacity="0.1" stroke="#000000" stroke-width="1" x1="130" y1="57" x2="1003" y2="57"/>
<line opacity="0.1" stroke="#000000" stroke-width="1" x1="130" y1="48" x2="1003" y2="48"/>
<line opacity="0.1" stroke="#000000" stroke-width="1" x1="130" y1="39" x2="1003" y2="39"/>
<line opacity="0.1" stroke="#000000" stroke-width="1" x1="130" y1="30" x2="1003" y2="30"/>
<line opacity="0.1" stroke="#000000" stroke-width="1" x1="130" y1="20" x2="1003" y2="20"/>
<text x="20" y="339" dy="0.76em" text-anchor="middle" font-family="sans-serif" font-size="24.193548387096776" opacity="1" fill="#000000" transform="rotate(270, 20, 339)">
Power [dB]
</text>
<text x="567" y="748" dy="-0.5ex" text-anchor="middle" font-family="sans-serif" font-size="24.193548387096776" opacity="1" fill="#000000">
Frequency [Hz]
</text>
<line opacity="0.2" stroke="#000000" stroke-width="1" x1="130" y1="657" x2="130" y2="20"/>
<line opacity="0.2" stroke="#000000" stroke-width="1" x1="239" y1="657" x2="239" y2="20"/>
<line opacity="0.2" stroke="#000000" stroke-width="1" x1="348" y1="657" x2="348" y2="20"/>
<line opacity="0.2" stroke="#000000" stroke-width="1" x1="457" y1="657" x2="457" y2="20"/>
<line opacity="0.2" stroke="#000000" stroke-width="1" x1="566" y1="657" x2="566" y2="20"/>
<line opacity="0.2" stroke="#000000" stroke-width="1" x1="675" y1="657" x2="675" y2="20"/>
<line opacity="0.2" stroke="#000000" stroke-width="1" x1="784" y1="657" x2="784" y2="20"/>
<line opacity="0.2" stroke="#000000" stroke-width="1" x1="893" y1="657" x2="893" y2="20"/>
<line opacity="0.2" stroke="#000000" stroke-width="1" x1="1003" y1="657" x2="1003" y2="20"/>
<line opacity="0.2" stroke="#000000" stroke-width="1" x1="130" y1="612" x2="1003" y2="612"/>
<line opacity="0.2" stroke="#000000" stroke-width="1" x1="130" y1="521" x2="1003" y2="521"/>
<line opacity="0.2" stroke="#000000" stroke-width="1" x1="130" y1="430" x2="1003" y2="430"/>
<line opacity="0.2" stroke="#000000" stroke-width="1" x1="130" y1="339" x2="1003" y2="339"/>
<line opacity="0.2" stroke="#000000" stroke-width="1" x1="130" y1="248" x2="1003" y2="248"/>
<line opacity="0.2" stroke="#000000" stroke-width="1" x1="130" y1="157" x2="1003" y2="157"/>
<line opacity="0.2" stroke="#000000" stroke-width="1" x1="130" y1="66" x2="1003" y2="66"/>
<polyline fill="none" opacity="1" stroke="#000000" stroke-width="1" points="129,20 129,657 "/>
<text x="120" y="612" dy="0.5ex" text-anchor="end" font-family="sans-serif" font-size="24.193548387096776" opacity="1" fill="#000000">
-100.0
</text>
<polyline fill="none" opacity="1" stroke="#000000" stroke-width="1" points="124,612 129,612 "/>
<text x="120" y="521" dy="0.5ex" text-anchor="end" font-family="sans-serif" font-size="24.193548387096776" opacity="1" fill="#000000">
-80.0
</text>
<polyline fill="none" opacity="1" stroke="#000000" stroke-width="1" points="124,521 129,521 "/>
<text x="120" y="430" dy="0.5ex" text-anchor="end" font-family="sans-serif" font-size="24.193548387096776" opacity="1" fill="#000000">
-60.0
</text>
<polyline fill="none" opacity="1" stroke="#000000" stroke-width="1" points="124,430 129,430 "/>
<text x="120" y="339" dy="0.5ex" text-anchor="end" font-family="sans-serif" font-size="24.193548387096776" opacity="1" fill="#000000">
-40.0
</text>
<polyline fill="none" opacity="1" stroke="#000000" stroke-width="1" points="124,339 129,339 "/>
<text x="120" y="248" dy="0.5ex" text-anchor="end" font-family="sans-serif" font-size="24.193548387096776" opacity="1" fill="#000000">
-20.0
</text>
<polyline fill="none" opacity="1" stroke="#000000" stroke-width="1" points="124,248 129,248 "/>
<text x="120" y="157" dy="0.5ex" text-anchor="end" font-family="sans-serif" font-size="24.193548387096776" opacity="1" fill="#000000">
0.0
</text>
<polyline fill="none" opacity="1" stroke="#000000" stroke-width="1" points="124,157 129,157 "/>
<text x="120" y="66" dy="0.5ex" text-anchor="end" font-family="sans-serif" font-size="24.193548387096776" opacity="1" fill="#000000">
20.0
</text>
<polyline fill="none" opacity="1" stroke="#000000" stroke-width="1" points="124,66 129,66 "/>
<polyline fill="none" opacity="1" stroke="#000000" stroke-width="1" points="130,658 1003,658 "/>
<text x="130" y="668" dy="0.76em" text-anchor="middle" font-family="sans-serif" font-size="24.193548387096776" opacity="1" fill="#000000">
0.0
</text>
<polyline fill="none" opacity="1" stroke="#000000" stroke-width="1" points="130,658 130,663 "/>
<text x="239" y="668" dy="0.76em" text-anchor="middle" font-family="sans-serif" font-size="24.193548387096776" opacity="1" fill="#000000">
1000.0
</text>
<polyline fill="none" opacity="1" stroke="#000000" stroke-width="1" points="239,658 239,663 "/>
<text x="348" y="668" dy="0.76em" text-anchor="middle" font-family="sans-serif" font-size="24.193548387096776" opacity="1" fill="#000000">
2000.0
</text>
<polyline fill="none" opacity="1" stroke="#000000" stroke-width="1" points="348,658 348,663 "/>
<text x="457" y="668" dy="0.76em" text-anchor="middle" font-family="sans-serif" font-size="24.193548387096776" opacity="1" fill="#000000">
3000.0
</text>
<polyline fill="none" opacity="1" stroke="#000000" stroke-width="1" points="457,658 457,663 "/>
<text x="566" y="668" dy="0.76em" text-anchor="middle" font-family="sans-serif" font-size="24.193548387096776" opacity="1" fill="#000000">
4000.0
</text>
<polyline fill="none" opacity="1" stroke="#000000" stroke-width="1" points="566,658 566,663 "/>
<text x="675" y="668" dy="0.76em" text-anchor="middle" font-family="sans-serif" font-size="24.193548387096776" opacity="1" fill="#000000">
5000.0
</text>
<polyline fill="none" opacity="1" stroke="#000000" stroke-width="1" points="675,658 675,663 "/>
<text x="784" y="668" dy="0.76em" text-anchor="middle" font-family="sans-serif" font-size="24.193548387096776" opacity="1" fill="#000000">
6000.0
</text>
<polyline fill="none" opacity="1" stroke="#000000" stroke-width="1" points="784,658 784,663 "/>
<text x="893" y="668" dy="0.76em" text-anchor="middle" font-family="sans-serif" font-size="24.193548387096776" opacity="1" fill="#000000">
7000.0
</text>
<polyline fill="none" opacity="1" stroke="#000000" stroke-width="1" points="893,658 893,663 "/>
<text x="1003" y="668" dy="0.76em" text-anchor="middle" font-family="sans-serif" font-size="24.193548387096776" opacity="1" fill="#000000">
8000.0
</text>
<polyline fill="none" opacity="1" stroke="#000000" stroke-width="1" points="1003,658 1003,663 "/>
<polyline fill="none" opacity="1" stroke="#E6194B" stroke-width="1" points="130,229 131,216 133,241 134,257 136,210 137,222 139,255 140,256 142,180 143,164 145,198 146,173 148,128 149,106 151,107 152,135 154,205 155,196 157,229 158,172 160,170 161,261 163,159 164,207 166,161 167,147 169,122 170,154 172,112 173,89 175,109 176,150 178,179 180,180 181,193 183,196 184,154 186,143 187,176 189,137 190,111 192,69 193,73 195,55 196,32 198,43 199,77 201,177 202,144 204,158 205,230 207,196 208,190 210,155 211,153 213,129 214,126 216,121 217,69 219,60 220,81 222,129 223,132 225,139 227,148 228,159 230,266 231,154 233,148 234,142 236,137 237,164 239,150 240,127 242,122 243,119 245,121 246,148 248,153 249,162 251,193 252,170 254,205 255,188 257,168 258,175 260,181 261,167 263,183 264,199 266,212 267,195 269,192 270,197 272,284 273,211 275,194 277,206 278,190 280,185 281,220 283,197 284,214 286,223 287,217 289,190 290,177 292,188 293,243 295,268 296,276 298,259 299,273 301,208 302,203 304,235 305,201 307,223 308,236 310,241 311,228 313,209 314,190 316,187 317,207 319,244 320,293 322,272 324,244 325,240 327,255 328,265 330,229 331,256 333,292 334,270 336,255 337,265 339,241 340,235 342,267 343,289 345,241 346,222 348,304 349,254 351,269 352,252 354,282 355,255 357,257 358,271 360,261 361,269 363,277 364,264 366,266 367,258 369,232 370,236 372,239 374,218 375,220 377,252 378,339 380,249 381,231 383,244 384,247 386,278 387,237 389,244 390,261 392,274 393,265 395,232 396,227 398,230 399,225 401,221 402,218 404,215 405,227 407,308 408,332 410,227 411,237 413,222 414,221 416,183 417,160 419,161 421,180 422,193 424,176 425,196 427,188 428,198 430,277 431,232 433,193 434,208 436,263 437,223 439,195 440,200 442,238 443,242 445,260 446,283 448,301 449,274 451,267 452,270 454,260 455,244 457,260 458,277 460,318 461,238 463,220 464,213 466,249 467,226 469,231 471,232 472,227 474,266 475,287 477,223 478,210 480,227 481,243 483,201 484,190 486,205 487,221 489,252 490,217 492,224 493,205 495,253 496,223 498,234 499,231 501,229 502,233 504,202 505,185 507,189 508,199 510,232 511,218 513,211 514,255 516,211 518,238 519,250 521,286 522,254 524,298 525,246 527,258 528,280 530,355 531,355 533,340 534,345 536,359 537,349 539,347 540,313 542,285 543,281 545,296 546,286 548,295 549,277 551,255 552,264 554,316 555,293 557,288 558,308 560,298 561,320 563,343 564,294 566,309 568,370 569,359 571,315 572,294 574,280 575,279 577,297 578,306 580,303 581,346 583,311 584,330 586,322 587,325 589,301 590,301 592,310 593,271 595,271 596,298 598,418 599,397 601,354 602,369 604,370 605,356 607,317 608,294 610,295 611,353 613,348 615,329 616,335 618,360 619,355 621,329 622,340 624,383 625,348 627,325 628,304 630,297 631,306 633,330 634,429 636,370 637,386 639,331 640,373 642,325 643,309 645,309 646,308 648,315 649,364 651,393 652,438 654,414 655,322 657,291 658,314 660,338 661,323 663,347 665,319 666,313 668,312 669,344 671,425 672,402 674,404 675,395 677,397 678,437 680,394 681,421 683,370 684,359 686,367 687,378 689,362 690,355 692,405 693,402 695,345 696,350 698,363 699,390 701,433 702,404 704,388 705,330 707,303 708,313 710,347 712,370 713,359 715,402 716,360 718,331 719,331 721,347 722,347 724,357 725,400 727,446 728,362 730,342 731,380 733,343 734,314 736,304 737,308 739,333 740,371 742,407 743,388 745,350 746,356 748,431 749,454 751,407 752,403 754,418 755,540 757,449 758,467 760,432 762,417 763,432 765,445 766,448 768,431 769,407 771,421 772,435 774,400 775,413 777,421 778,356 780,360 781,405 783,451 784,426 786,417 787,494 789,345 790,327 792,342 793,395 795,477 796,460 798,452 799,507 801,528 802,518 804,512 805,469 807,474 809,405 810,383 812,451 813,468 815,348 816,327 818,346 819,395 821,399 822,402 824,453 825,442 827,472 828,414 830,427 831,425 833,448 834,463 836,417 837,397 839,402 840,407 842,474 843,367 845,356 846,376 848,429 849,469 851,433 852,447 854,487 855,479 857,460 859,428 860,420 862,392 863,392 865,428 866,463 868,443 869,430 871,432 872,425 874,410 875,438 877,436 878,427 880,455 881,461 883,443 884,439 886,444 887,455 889,439 890,423 892,371 893,354 895,356 896,379 898,467 899,453 901,449 902,431 904,421 906,463 907,431 909,400 910,404 912,435 913,505 915,512 916,507 918,478 919,435 921,432 922,463 924,456 925,430 927,450 928,472 930,460 931,467 933,477 934,466 936,438 937,448 939,466 940,481 942,493 943,506 945,580 946,521 948,500 949,527 951,511 952,475 954,462 956,459 957,473 959,636 960,491 962,549 963,496 965,459 966,430 968,482 969,429 971,413 972,376 974,394 975,498 977,462 978,396 980,384 981,398 983,405 984,402 986,394 987,389 989,412 990,427 992,446 993,492 995,490 996,484 998,468 999,475 1001,481 1003,484 1004,481 1004,475 1004,468 1004,484 1004,490 1004,492 1004,446 1004,427 1004,412 1004,389 1004,394 1004,402 1004,405 1004,398 1004,384 1004,396 1004,462 1004,498 1004,394 1004,376 1004,413 1004,429 1004,482 1004,430 1004,459 1004,496 1004,549 1004,491 1004,636 1004,473 1004,459 1004,462 1004,475 1004,511 1004,527 1004,500 1004,521 1004,580 1004,506 1004,493 1004,481 1004,466 1004,448 1004,438 1004,466 1004,477 1004,467 1004,460 1004,472 1004,450 1004,430 1004,456 1004,463 1004,432 1004,435 1004,478 1004,507 1004,512 1004,505 1004,435 1004,404 1004,400 1004,431 1004,463 1004,421 1004,431 1004,449 1004,453 1004,467 1004,379 1004,356 1004,354 1004,371 1004,423 1004,439 1004,455 1004,444 1004,439 1004,443 1004,461 1004,455 1004,427 1004,436 1004,438 1004,410 1004,425 1004,432 1004,430 1004,443 1004,463 1004,428 1004,392 1004,392 1004,420 1004,428 1004,460 1004,479 1004,487 1004,447 1004,433 1004,469 1004,429 1004,376 1004,356 1004,367 1004,474 1004,407 1004,402 1004,397 1004,417 1004,463 1004,448 1004,425 1004,427 1004,414 1004,472 1004,442 1004,453 1004,402 1004,399 1004,395 1004,346 1004,327 1004,348 1004,468 1004,451 1004,383 1004,405 1004,474 1004,469 1004,512 1004,518 1004,528 1004,507 1004,452 1004,460 1004,477 1004,395 1004,342 1004,327 1004,345 1004,494 1004,417 1004,426 1004,451 1004,405 1004,360 1004,356 1004,421 1004,413 1004,400 1004,435 1004,421 1004,407 1004,431 1004,448 1004,445 1004,432 1004,417 1004,432 1004,467 1004,449 1004,540 1004,418 1004,403 1004,407 1004,454 1004,431 1004,356 1004,350 1004,388 1004,407 1004,371 1004,333 1004,308 1004,304 1004,314 1004,343 1004,380 1004,342 1004,362 1004,446 1004,400 1004,357 1004,347 1004,347 1004,331 1004,331 1004,360 1004,402 1004,359 1004,370 1004,347 1004,313 1004,303 1004,330 1004,388 1004,404 1004,433 1004,390 1004,363 1004,350 1004,345 1004,402 1004,405 1004,355 1004,362 1004,378 1004,367 1004,359 1004,370 1004,421 1004,394 1004,437 1004,397 1004,395 1004,404 1004,402 1004,425 1004,344 1004,312 1004,313 1004,319 1004,347 1004,323 1004,338 1004,314 1004,291 1004,322 1004,414 1004,438 1004,393 1004,364 1004,315 1004,308 1004,309 1004,309 1004,325 1004,373 1004,331 1004,386 1004,370 1004,429 1004,330 1004,306 1004,297 1004,304 1004,325 1004,348 1004,383 1004,340 1004,329 1004,355 1004,360 1004,335 1004,329 1004,348 1004,353 1004,295 1004,294 1004,317 1004,356 1004,370 1004,369 1004,354 1004,397 1004,418 1004,298 1004,271 1004,271 1004,310 1004,301 1004,301 1004,325 1004,322 1004,330 1004,311 1004,346 1004,303 1004,306 1004,297 1004,279 1004,280 1004,294 1004,315 1004,359 1004,370 1004,309 1004,294 1004,343 1004,320 1004,298 1004,308 1004,288 1004,293 1004,316 1004,264 1004,255 1004,277 1004,295 1004,286 1004,296 1004,281 1004,285 1004,313 1004,347 1004,349 1004,359 1004,345 1004,340 1004,355 1004,355 1004,280 1004,258 1004,246 1004,298 1004,254 1004,286 1004,250 1004,238 1004,211 1004,255 1004,211 1004,218 1004,232 1004,199 1004,189 1004,185 1004,202 1004,233 1004,229 1004,231 1004,234 1004,223 1004,253 1004,205 1004,224 1004,217 1004,252 1004,221 1004,205 1004,190 1004,201 1004,243 1004,227 1004,210 1004,223 1004,287 1004,266 1004,227 1004,232 1004,231 1004,226 1004,249 1004,213 1004,220 1004,238 1004,318 1004,277 1004,260 1004,244 1004,260 1004,270 1004,267 1004,274 1004,301 1004,283 1004,260 1004,242 1004,238 1004,200 1004,195 1004,223 1004,263 1004,208 1004,193 1004,232 1004,277 1004,198 1004,188 1004,196 1004,176 1004,193 1004,180 1004,161 1004,160 1004,183 1004,221 1004,222 1004,237 1004,227 1004,332 1004,308 1004,227 1004,215 1004,218 1004,221 1004,225 1004,230 1004,227 1004,232 1004,265 1004,274 1004,261 1004,244 1004,237 1004,278 1004,247 1004,244 1004,231 1004,249 1004,339 1004,252 1004,220 1004,218 1004,239 1004,236 1004,232 1004,258 1004,266 1004,264 1004,277 1004,269 1004,261 1004,271 1004,257 1004,255 1004,282 1004,252 1004,269 1004,254 1004,304 1004,222 1004,241 1004,289 1004,267 1004,235 1004,241 1004,265 1004,255 1004,270 1004,292 1004,256 1004,229 1004,265 1004,255 1004,240 1004,244 1004,272 1004,293 1004,244 1004,207 1004,187 1004,190 1004,209 1004,228 1004,241 1004,236 1004,223 1004,201 1004,235 1004,203 1004,208 1004,273 1004,259 1004,276 1004,268 1004,243 1004,188 1004,177 1004,190 1004,217 1004,223 1004,214 1004,197 1004,220 1004,185 1004,190 1004,206 1004,194 1004,211 1004,284 1004,197 1004,192 1004,195 1004,212 1004,199 1004,183 1004,167 1004,181 1004,175 1004,168 1004,188 1004,205 1004,170 1004,193 1004,162 1004,153 1004,148 1004,121 1004,119 1004,122 1004,127 1004,150 1004,164 1004,137 1004,142 1004,148 1004,154 1004,266 1004,159 1004,148 1004,139 1004,132 1004,129 1004,81 1004,60 1004,69 1004,121 1004,126 1004,129 1004,153 1004,155 1004,190 1004,196 1004,230 1004,158 1004,144 1004,177 1004,77 1004,43 1004,32 1004,55 1004,73 1004,69 1004,111 1004,137 1004,176 1004,143 1004,154 1004,196 1004,193 1004,180 1004,179 1004,150 1004,109 1004,89 1004,112 1004,154 1004,122 1004,147 1004,161 1004,207 1004,159 1004,261 1004,170 1004,172 1004,229 1004,196 1004,205 1004,135 1004,107 1004,106 1004,128 1004,173 1004,198 1004,164 1004,180 1004,256 1004,255 1004,222 1004,210 1004,257 1004,241 1004,216 "/>
<polyline fill="none" opacity="1" stroke="#3CB44B" stroke-width="1" points="130,260 131,260 133,260 134,260 136,260 137,259 139,259 140,258 142,258 143,257 145,256 146,255 148,254 149,253 151,252 152,250 154,249 155,248 157,246 158,244 160,243 161,241 163,240 164,238 166,236 167,234 169,233 170,231 172,229 173,228 175,226 176,225 178,224 180,223 181,222 183,221 184,220 186,220 187,219 189,219 190,219 192,219 193,219 195,220 196,220 198,221 199,221 201,222 202,223 204,223 205,224 207,225 208,225 210,226 211,227 213,228 214,228 216,229 217,230 219,230 220,231 222,232 223,232 225,233 227,234 228,235 230,235 231,236 233,237 234,239 236,240 237,241 239,242 240,244 242,245 243,247 245,248 246,250 248,252 249,253 251,255 252,257 254,259 255,260 257,262 258,264 260,265 261,267 263,268 264,269 266,270 267,271 269,272 270,273 272,274 273,275 275,275 277,276 278,276 280,276 281,277 283,277 284,277 286,277 287,277 289,277 290,277 292,277 293,277 295,277 296,278 298,278 299,278 301,279 302,279 304,280 305,280 307,281 308,282 310,283 311,284 313,284 314,285 316,286 317,287 319,288 320,289 322,290 324,291 325,292 327,292 328,293 330,293 331,294 333,294 334,294 336,295 337,295 339,295 340,294 342,294 343,294 345,294 346,293 348,293 349,293 351,292 352,292 354,291 355,291 357,291 358,290 360,290 361,290 363,289 364,289 366,289 367,289 369,289 370,289 372,289 374,289 375,288 377,288 378,288 380,288 381,288 383,288 384,287 386,287 387,286 389,285 390,285 392,284 393,283 395,282 396,281 398,280 399,278 401,277 402,276 404,275 405,273 407,272 408,271 410,270 411,269 413,268 414,268 416,267 417,267 419,267 421,268 422,268 424,269 425,270 427,271 428,273 430,274 431,276 433,278 434,280 436,282 437,284 439,286 440,287 442,289 443,291 445,292 446,294 448,295 449,296 451,297 452,297 454,298 455,298 457,298 458,297 460,297 461,296 463,295 464,294 466,292 467,291 469,289 471,288 472,286 474,284 475,282 477,281 478,279 480,277 481,276 483,275 484,274 486,274 487,273 489,274 490,274 492,275 493,276 495,277 496,279 498,281 499,283 501,286 502,288 504,291 505,294 507,296 508,299 510,302 511,305 513,308 514,310 516,313 518,315 519,317 521,319 522,321 524,323 525,324 527,326 528,327 530,328 531,328 533,329 534,329 536,330 537,330 539,330 540,330 542,329 543,329 545,329 546,328 548,328 549,327 551,327 552,326 554,326 555,325 557,325 558,324 560,324 561,324 563,324 564,324 566,324 568,324 569,324 571,325 572,325 574,325 575,326 577,327 578,327 580,328 581,329 583,330 584,331 586,331 587,332 589,333 590,334 592,335 593,336 595,336 596,337 598,338 599,339 601,339 602,340 604,340 605,340 607,341 608,341 610,341 611,341 613,341 615,341 616,341 618,341 619,341 621,341 622,341 624,340 625,340 627,340 628,339 630,339 631,339 633,338 634,338 636,338 637,338 639,337 640,337 642,338 643,338 645,338 646,338 648,339 649,339 651,340 652,341 654,342 655,343 657,344 658,345 660,346 661,347 663,348 665,349 666,351 668,352 669,353 671,354 672,355 674,356 675,356 677,357 678,358 680,358 681,358 683,358 684,358 686,358 687,357 689,357 690,356 692,355 693,354 695,353 696,352 698,350 699,349 701,348 702,346 704,345 705,344 707,343 708,342 710,341 712,340 713,339 715,339 716,339 718,339 719,339 721,340 722,340 724,341 725,343 727,344 728,345 730,347 731,349 733,351 734,353 736,355 737,357 739,359 740,361 742,363 743,365 745,367 746,369 748,370 749,372 751,373 752,374 754,375 755,376 757,376 758,377 760,377 762,377 763,378 765,377 766,377 768,377 769,377 771,376 772,376 774,376 775,375 777,375 778,374 780,374 781,374 783,373 784,373 786,373 787,373 789,373 790,373 792,373 793,373 795,374 796,374 798,374 799,374 801,375 802,375 804,375 805,375 807,375 809,375 810,375 812,375 813,375 815,375 816,375 818,374 819,374 821,373 822,373 824,372 825,372 827,371 828,370 830,370 831,369 833,369 834,368 836,368 837,367 839,367 840,367 842,367 843,367 845,368 846,368 848,368 849,369 851,370 852,370 854,371 855,372 857,373 859,374 860,374 862,375 863,376 865,376 866,377 868,377 869,378 871,378 872,378 874,378 875,378 877,377 878,377 880,376 881,376 883,375 884,374 886,373 887,372 889,371 890,370 892,370 893,369 895,368 896,368 898,368 899,367 901,368 902,368 904,369 906,369 907,370 909,372 910,373 912,375 913,377 915,379 916,381 918,383 919,385 921,387 922,390 924,392 925,394 927,396 928,398 930,400 931,401 933,403 934,404 936,405 937,406 939,406 940,406 942,406 943,406 945,405 946,405 948,404 949,403 951,401 952,400 954,398 956,396 957,394 959,393 960,391 962,389 963,387 965,385 966,383 968,382 969,380 971,379 972,378 974,377 975,376 977,375 978,375 980,375 981,375 983,375 984,375 986,375 987,375 989,376 990,376 992,376 993,377 995,377 996,378 998,378 999,378 1001,378 1003,378 1004,378 1004,378 1004,378 1004,378 1004,377 1004,377 1004,376 1004,376 1004,376 1004,375 1004,375 1004,375 1004,375 1004,375 1004,375 1004,375 1004,375 1004,376 1004,377 1004,378 1004,379 1004,380 1004,382 1004,383 1004,385 1004,387 1004,389 1004,391 1004,393 1004,394 1004,396 1004,398 1004,400 1004,401 1004,403 1004,404 1004,405 1004,405 1004,406 1004,406 1004,406 1004,406 1004,406 1004,405 1004,404 1004,403 1004,401 1004,400 1004,398 1004,396 1004,394 1004,392 1004,390 1004,387 1004,385 1004,383 1004,381 1004,379 1004,377 1004,375 1004,373 1004,372 1004,370 1004,369 1004,369 1004,368 1004,368 1004,367 1004,368 1004,368 1004,368 1004,369 1004,370 1004,370 1004,371 1004,372 1004,373 1004,374 1004,375 1004,376 1004,376 1004,377 1004,377 1004,378 1004,378 1004,378 1004,378 1004,378 1004,377 1004,377 1004,376 1004,376 1004,375 1004,374 1004,374 1004,373 1004,372 1004,371 1004,370 1004,370 1004,369 1004,368 1004,368 1004,368 1004,367 1004,367 1004,367 1004,367 1004,367 1004,368 1004,368 1004,369 1004,369 1004,370 1004,370 1004,371 1004,372 1004,372 1004,373 1004,373 1004,374 1004,374 1004,375 1004,375 1004,375 1004,375 1004,375 1004,375 1004,375 1004,375 1004,375 1004,375 1004,375 1004,374 1004,374 1004,374 1004,374 1004,373 1004,373 1004,373 1004,373 1004,373 1004,373 1004,373 1004,373 1004,374 1004,374 1004,374 1004,375 1004,375 1004,376 1004,376 1004,376 1004,377 1004,377 1004,377 1004,377 1004,378 1004,377 1004,377 1004,377 1004,376 1004,376 1004,375 1004,374 1004,373 1004,372 1004,370 1004,369 1004,367 1004,365 1004,363 1004,361 1004,359 1004,357 1004,355 1004,353 1004,351 1004,349 1004,347 1004,345 1004,344 1004,343 1004,341 1004,340 1004,340 1004,339 1004,339 1004,339 1004,339 1004,339 1004,340 1004,341 1004,342 1004,343 1004,344 1004,345 1004,346 1004,348 1004,349 1004,350 1004,352 1004,353 1004,354 1004,355 1004,356 1004,357 1004,357 1004,358 1004,358 1004,358 1004,358 1004,358 1004,358 1004,357 1004,356 1004,356 1004,355 1004,354 1004,353 1004,352 1004,351 1004,349 1004,348 1004,347 1004,346 1004,345 1004,344 1004,343 1004,342 1004,341 1004,340 1004,339 1004,339 1004,338 1004,338 1004,338 1004,338 1004,337 1004,337 1004,338 1004,338 1004,338 1004,338 1004,339 1004,339 1004,339 1004,340 1004,340 1004,340 1004,341 1004,341 1004,341 1004,341 1004,341 1004,341 1004,341 1004,341 1004,341 1004,341 1004,341 1004,340 1004,340 1004,340 1004,339 1004,339 1004,338 1004,337 1004,336 1004,336 1004,335 1004,334 1004,333 1004,332 1004,331 1004,331 1004,330 1004,329 1004,328 1004,327 1004,327 1004,326 1004,325 1004,325 1004,325 1004,324 1004,324 1004,324 1004,324 1004,324 1004,324 1004,324 1004,324 1004,325 1004,325 1004,326 1004,326 1004,327 1004,327 1004,328 1004,328 1004,329 1004,329 1004,329 1004,330 1004,330 1004,330 1004,330 1004,329 1004,329 1004,328 1004,328 1004,327 1004,326 1004,324 1004,323 1004,321 1004,319 1004,317 1004,315 1004,313 1004,310 1004,308 1004,305 1004,302 1004,299 1004,296 1004,294 1004,291 1004,288 1004,286 1004,283 1004,281 1004,279 1004,277 1004,276 1004,275 1004,274 1004,274 1004,273 1004,274 1004,274 1004,275 1004,276 1004,277 1004,279 1004,281 1004,282 1004,284 1004,286 1004,288 1004,289 1004,291 1004,292 1004,294 1004,295 1004,296 1004,297 1004,297 1004,298 1004,298 1004,298 1004,297 1004,297 1004,296 1004,295 1004,294 1004,292 1004,291 1004,289 1004,287 1004,286 1004,284 1004,282 1004,280 1004,278 1004,276 1004,274 1004,273 1004,271 1004,270 1004,269 1004,268 1004,268 1004,267 1004,267 1004,267 1004,268 1004,268 1004,269 1004,270 1004,271 1004,272 1004,273 1004,275 1004,276 1004,277 1004,278 1004,280 1004,281 1004,282 1004,283 1004,284 1004,285 1004,285 1004,286 1004,287 1004,287 1004,288 1004,288 1004,288 1004,288 1004,288 1004,288 1004,289 1004,289 1004,289 1004,289 1004,289 1004,289 1004,289 1004,289 1004,290 1004,290 1004,290 1004,291 1004,291 1004,291 1004,292 1004,292 1004,293 1004,293 1004,293 1004,294 1004,294 1004,294 1004,294 1004,295 1004,295 1004,295 1004,294 1004,294 1004,294 1004,293 1004,293 1004,292 1004,292 1004,291 1004,290 1004,289 1004,288 1004,287 1004,286 1004,285 1004,284 1004,284 1004,283 1004,282 1004,281 1004,280 1004,280 1004,279 1004,279 1004,278 1004,278 1004,278 1004,277 1004,277 1004,277 1004,277 1004,277 1004,277 1004,277 1004,277 1004,277 1004,277 1004,276 1004,276 1004,276 1004,275 1004,275 1004,274 1004,273 1004,272 1004,271 1004,270 1004,269 1004,268 1004,267 1004,265 1004,264 1004,262 1004,260 1004,259 1004,257 1004,255 1004,253 1004,252 1004,250 1004,248 1004,247 1004,245 1004,244 1004,242 1004,241 1004,240 1004,239 1004,237 1004,236 1004,235 1004,235 1004,234 1004,233 1004,232 1004,232 1004,231 1004,230 1004,230 1004,229 1004,228 1004,228 1004,227 1004,226 1004,225 1004,225 1004,224 1004,223 1004,223 1004,222 1004,221 1004,221 1004,220 1004,220 1004,219 1004,219 1004,219 1004,219 1004,219 1004,220 1004,220 1004,221 1004,222 1004,223 1004,224 1004,225 1004,226 1004,228 1004,229 1004,231 1004,233 1004,234 1004,236 1004,238 1004,240 1004,241 1004,243 1004,244 1004,246 1004,248 1004,249 1004,250 1004,252 1004,253 1004,254 1004,255 1004,256 1004,257 1004,258 1004,258 1004,259 1004,259 1004,260 1004,260 1004,260 1004,260 "/>
<polyline fill="none" opacity="1" stroke="#FFE119" stroke-width="1" points="130,312 131,312 133,312 134,312 136,312 137,312 139,312 140,312 142,312 143,312 145,312 146,312 148,312 149,312 151,312 152,312 154,312 155,312 157,312 158,312 160,312 161,312 163,312 164,312 166,312 167,312 169,312 170,312 172,312 173,312 175,312 176,312 178,312 180,312 181,312 183,312 184,312 186,312 187,312 189,312 190,312 192,312 193,312 195,312 196,312 198,312 199,312 201,312 202,312 204,312 205,312 207,312 208,312 210,312 211,312 213,312 214,312 216,312 217,312 219,312 220,312 222,312 223,312 225,313 227,313 228,313 230,313 231,313 233,313 234,313 236,313 237,313 239,313 240,313 242,313 243,313 245,313 246,313 248,313 249,313 251,313 252,313 254,313 255,313 257,314 258,314 260,314 261,314 263,314 264,314 266,314 267,314 269,314 270,314 272,314 273,314 275,314 277,314 278,314 280,314 281,314 283,315 284,315 286,315 287,315 289,315 290,315 292,315 293,315 295,315 296,315 298,315 299,315 301,315 302,315 304,315 305,315 307,315 308,315 310,316 311,316 313,316 314,316 316,316 317,316 319,316 320,316 322,316 324,317 325,317 327,317 328,317 330,317 331,317 333,317 334,318 336,318 337,318 339,318 340,318 342,318 343,318 345,318 346,318 348,318 349,318 351,318 352,318 354,318 355,318 357,318 358,318 360,318 361,317 363,317 364,317 366,317 367,317 369,316 370,316 372,316 374,315 375,315 377,315 378,315 380,314 381,314 383,314 384,313 386,313 387,313 389,313 390,313 392,312 393,312 395,312 396,312 398,312 399,312 401,312 402,312 404,312 405,312 407,312 408,312 410,312 411,312 413,312 414,312 416,312 417,313 419,313 421,313 422,313 424,313 425,314 427,314 428,314 430,315 431,315 433,315 434,316 436,316 437,316 439,316 440,317 442,317 443,317 445,317 446,317 448,317 449,318 451,318 452,318 454,318 455,318 457,318 458,317 460,317 461,317 463,317 464,317 466,317 467,316 469,316 471,316 472,316 474,316 475,316 477,315 478,315 480,315 481,315 483,315 484,315 486,315 487,315 489,315 490,315 492,315 493,315 495,315 496,315 498,315 499,315 501,315 502,315 504,315 505,315 507,315 508,315 510,314 511,314 513,314 514,314 516,314 518,314 519,314 521,314 522,315 524,315 525,316 527,316 528,317 530,318 531,319 533,320 534,321 536,322 537,323 539,324 540,325 542,327 543,328 545,329 546,330 548,331 549,331 551,332 552,333 554,333 555,334 557,334 558,334 560,335 561,335 563,335 564,335 566,334 568,334 569,334 571,333 572,333 574,332 575,332 577,331 578,331 580,330 581,330 583,330 584,330 586,330 587,330 589,330 590,331 592,332 593,333 595,334 596,335 598,336 599,337 601,339 602,340 604,341 605,342 607,343 608,344 610,345 611,346 613,347 615,347 616,348 618,348 619,349 621,349 622,349 624,349 625,349 627,348 628,348 630,347 631,347 633,346 634,345 636,344 637,344 639,343 640,342 642,341 643,341 645,340 646,340 648,340 649,340 651,341 652,341 654,342 655,344 657,345 658,346 660,348 661,350 663,351 665,353 666,354 668,356 669,357 671,358 672,360 674,361 675,362 677,363 678,363 680,364 681,364 683,365 684,365 686,365 687,365 689,365 690,365 692,365 693,364 695,364 696,363 698,363 699,362 701,361 702,360 704,359 705,358 707,356 708,355 710,354 712,353 713,351 715,350 716,349 718,348 719,348 721,347 722,347 724,347 725,348 727,348 728,349 730,350 731,351 733,353 734,354 736,356 737,357 739,359 740,360 742,362 743,363 745,365 746,366 748,368 749,369 751,371 752,372 754,373 755,375 757,376 758,377 760,378 762,379 763,380 765,381 766,382 768,383 769,384 771,385 772,385 774,386 775,386 777,387 778,387 780,387 781,387 783,387 784,387 786,387 787,386 789,386 790,385 792,384 793,383 795,382 796,381 798,379 799,378 801,376 802,374 804,372 805,370 807,368 809,367 810,366 812,365 813,365 815,367 816,368 818,371 819,374 821,377 822,380 824,383 825,386 827,389 828,392 830,395 831,398 833,400 834,402 836,404 837,406 839,408 840,409 842,411 843,412 845,413 846,414 848,415 849,416 851,416 852,417 854,417 855,417 857,417 859,417 860,417 862,416 863,416 865,415 866,414 868,413 869,411 871,410 872,408 874,406 875,404 877,401 878,398 880,395 881,392 883,389 884,385 886,383 887,381 889,380 890,381 892,384 893,387 895,391 896,395 898,399 899,403 901,407 902,411 904,414 906,417 907,420 909,422 910,424 912,427 913,429 915,430 916,432 918,433 919,435 921,436 922,437 924,438 925,439 927,440 928,440 930,441 931,441 933,441 934,441 936,441 937,441 939,441 940,441 942,440 943,440 945,439 946,438 948,437 949,437 951,435 952,434 954,433 956,432 957,430 959,428 960,427 962,425 963,423 965,421 966,419 968,417 969,415 971,413 972,411 974,409 975,408 977,406 978,405 980,404 981,404 983,404 984,404 986,404 987,405 989,405 990,406 992,407 993,407 995,408 996,409 998,409 999,409 1001,409 1003,409 1004,409 1004,409 1004,409 1004,409 1004,408 1004,407 1004,407 1004,406 1004,405 1004,405 1004,404 1004,404 1004,404 1004,404 1004,404 1004,405 1004,406 1004,408 1004,409 1004,411 1004,413 1004,415 1004,417 1004,419 1004,421 1004,423 1004,425 1004,427 1004,428 1004,430 1004,432 1004,433 1004,434 1004,435 1004,437 1004,437 1004,438 1004,439 1004,440 1004,440 1004,441 1004,441 1004,441 1004,441 1004,441 1004,441 1004,441 1004,441 1004,440 1004,440 1004,439 1004,438 1004,437 1004,436 1004,435 1004,433 1004,432 1004,430 1004,429 1004,427 1004,424 1004,422 1004,420 1004,417 1004,414 1004,411 1004,407 1004,403 1004,399 1004,395 1004,391 1004,387 1004,384 1004,381 1004,380 1004,381 1004,383 1004,385 1004,389 1004,392 1004,395 1004,398 1004,401 1004,404 1004,406 1004,408 1004,410 1004,411 1004,413 1004,414 1004,415 1004,416 1004,416 1004,417 1004,417 1004,417 1004,417 1004,417 1004,417 1004,416 1004,416 1004,415 1004,414 1004,413 1004,412 1004,411 1004,409 1004,408 1004,406 1004,404 1004,402 1004,400 1004,398 1004,395 1004,392 1004,389 1004,386 1004,383 1004,380 1004,377 1004,374 1004,371 1004,368 1004,367 1004,365 1004,365 1004,366 1004,367 1004,368 1004,370 1004,372 1004,374 1004,376 1004,378 1004,379 1004,381 1004,382 1004,383 1004,384 1004,385 1004,386 1004,386 1004,387 1004,387 1004,387 1004,387 1004,387 1004,387 1004,387 1004,386 1004,386 1004,385 1004,385 1004,384 1004,383 1004,382 1004,381 1004,380 1004,379 1004,378 1004,377 1004,376 1004,375 1004,373 1004,372 1004,371 1004,369 1004,368 1004,366 1004,365 1004,363 1004,362 1004,360 1004,359 1004,357 1004,356 1004,354 1004,353 1004,351 1004,350 1004,349 1004,348 1004,348 1004,347 1004,347 1004,347 1004,348 1004,348 1004,349 1004,350 1004,351 1004,353 1004,354 1004,355 1004,356 1004,358 1004,359 1004,360 1004,361 1004,362 1004,363 1004,363 1004,364 1004,364 1004,365 1004,365 1004,365 1004,365 1004,365 1004,365 1004,365 1004,364 1004,364 1004,363 1004,363 1004,362 1004,361 1004,360 1004,358 1004,357 1004,356 1004,354 1004,353 1004,351 1004,350 1004,348 1004,346 1004,345 1004,344 1004,342 1004,341 1004,341 1004,340 1004,340 1004,340 1004,340 1004,341 1004,341 1004,342 1004,343 1004,344 1004,344 1004,345 1004,346 1004,347 1004,347 1004,348 1004,348 1004,349 1004,349 1004,349 1004,349 1004,349 1004,348 1004,348 1004,347 1004,347 1004,346 1004,345 1004,344 1004,343 1004,342 1004,341 1004,340 1004,339 1004,337 1004,336 1004,335 1004,334 1004,333 1004,332 1004,331 1004,330 1004,330 1004,330 1004,330 1004,330 1004,330 1004,330 1004,331 1004,331 1004,332 1004,332 1004,333 1004,333 1004,334 1004,334 1004,334 1004,335 1004,335 1004,335 1004,335 1004,334 1004,334 1004,334 1004,333 1004,333 1004,332 1004,331 1004,331 1004,330 1004,329 1004,328 1004,327 1004,325 1004,324 1004,323 1004,322 1004,321 1004,320 1004,319 1004,318 1004,317 1004,316 1004,316 1004,315 1004,315 1004,314 1004,314 1004,314 1004,314 1004,314 1004,314 1004,314 1004,314 1004,315 1004,315 1004,315 1004,315 1004,315 1004,315 1004,315 1004,315 1004,315 1004,315 1004,315 1004,315 1004,315 1004,315 1004,315 1004,315 1004,315 1004,315 1004,315 1004,315 1004,315 1004,315 1004,316 1004,316 1004,316 1004,316 1004,316 1004,316 1004,317 1004,317 1004,317 1004,317 1004,317 1004,317 1004,318 1004,318 1004,318 1004,318 1004,318 1004,318 1004,317 1004,317 1004,317 1004,317 1004,317 1004,317 1004,316 1004,316 1004,316 1004,316 1004,315 1004,315 1004,315 1004,314 1004,314 1004,314 1004,313 1004,313 1004,313 1004,313 1004,313 1004,312 1004,312 1004,312 1004,312 1004,312 1004,312 1004,312 1004,312 1004,312 1004,312 1004,312 1004,312 1004,312 1004,312 1004,312 1004,312 1004,312 1004,313 1004,313 1004,313 1004,313 1004,313 1004,314 1004,314 1004,314 1004,315 1004,315 1004,315 1004,315 1004,316 1004,316 1004,316 1004,317 1004,317 1004,317 1004,317 1004,317 1004,318 1004,318 1004,318 1004,318 1004,318 1004,318 1004,318 1004,318 1004,318 1004,318 1004,318 1004,318 1004,318 1004,318 1004,318 1004,318 1004,318 1004,318 1004,317 1004,317 1004,317 1004,317 1004,317 1004,317 1004,317 1004,316 1004,316 1004,316 1004,316 1004,316 1004,316 1004,316 1004,316 1004,316 1004,315 1004,315 1004,315 1004,315 1004,315 1004,315 1004,315 1004,315 1004,315 1004,315 1004,315 1004,315 1004,315 1004,315 1004,315 1004,315 1004,315 1004,315 1004,314 1004,314 1004,314 1004,314 1004,314 1004,314 1004,314 1004,314 1004,314 1004,314 1004,314 1004,314 1004,314 1004,314 1004,314 1004,314 1004,314 1004,313 1004,313 1004,313 1004,313 1004,313 1004,313 1004,313 1004,313 1004,313 1004,313 1004,313 1004,313 1004,313 1004,313 1004,313 1004,313 1004,313 1004,313 1004,313 1004,313 1004,313 1004,312 1004,312 1004,312 1004,312 1004,312 1004,312 1004,312 1004,312 1004,312 1004,312 1004,312 1004,312 1004,312 1004,312 1004,312 1004,312 1004,312 1004,312 1004,312 1004,312 1004,312 1004,312 1004,312 1004,312 1004,312 1004,312 1004,312 1004,312 1004,312 1004,312 1004,312 1004,312 1004,312 1004,312 1004,312 1004,312 1004,312 1004,312 1004,312 1004,312 1004,312 1004,312 1004,312 1004,312 1004,312 1004,312 1004,312 1004,312 1004,312 1004,312 1004,312 1004,312 1004,312 1004,312 1004,312 1004,312 1004,312 1004,312 1004,312 1004,312 1004,312 1004,312 "/>
<polyline fill="none" opacity="1" stroke="#0082C8" stroke-width="1" points="130,184 131,184 133,184 134,184 136,184 137,184 139,184 140,184 142,184 143,184 145,184 146,184 148,184 149,184 151,184 152,184 154,184 155,184 157,184 158,184 160,184 161,184 163,184 164,184 166,184 167,184 169,184 170,184 172,184 173,184 175,184 176,184 178,184 180,184 181,184 183,184 184,184 186,184 187,184 189,184 190,184 192,184 193,184 195,184 196,184 198,184 199,184 201,184 202,184 204,184 205,184 207,184 208,184 210,184 211,184 213,184 214,184 216,184 217,184 219,184 220,184 222,185 223,185 225,185 227,185 228,185 230,185 231,185 233,185 234,185 236,185 237,185 239,185 240,185 242,185 243,185 245,185 246,185 248,185 249,185 251,185 252,185 254,185 255,185 257,186 258,186 260,186 261,186 263,186 264,186 266,186 267,186 269,186 270,186 272,186 273,186 275,186 277,186 278,186 280,186 281,186 283,187 284,187 286,187 287,187 289,187 290,187 292,187 293,187 295,187 296,187 298,187 299,187 301,187 302,187 304,187 305,187 307,187 308,188 310,188 311,188 313,188 314,188 316,188 317,188 319,188 320,188 322,188 324,189 325,189 327,189 328,189 330,189 331,189 333,190 334,190 336,190 337,190 339,190 340,190 342,190 343,190 345,190 346,190 348,190 349,190 351,190 352,190 354,190 355,190 357,190 358,190 360,190 361,189 363,189 364,189 366,189 367,189 369,188 370,188 372,188 374,187 375,187 377,187 378,187 380,186 381,186 383,186 384,185 386,185 387,185 389,185 390,185 392,184 393,184 395,184 396,184 398,184 399,184 401,184 402,184 404,184 405,184 407,184 408,184 410,184 411,184 413,184 414,184 416,184 417,185 419,185 421,185 422,185 424,185 425,186 427,186 428,186 430,187 431,187 433,187 434,188 436,188 437,188 439,188 440,189 442,189 443,189 445,189 446,189 448,190 449,190 451,190 452,190 454,190 455,190 457,190 458,189 460,189 461,189 463,189 464,189 466,189 467,188 469,188 471,188 472,188 474,188 475,188 477,187 478,187 480,187 481,187 483,187 484,187 486,187 487,187 489,187 490,187 492,187 493,187 495,187 496,187 498,187 499,187 501,187 502,187 504,187 505,187 507,187 508,187 510,186 511,186 513,186 514,186 516,186 518,186 519,186 521,186 522,187 524,187 525,188 527,188 528,189 530,190 531,191 533,192 534,193 536,194 537,195 539,196 540,198 542,199 543,200 545,201 546,202 548,203 549,203 551,204 552,205 554,205 555,206 557,206 558,206 560,207 561,207 563,207 564,207 566,206 568,206 569,206 571,205 572,205 574,204 575,204 577,203 578,203 580,202 581,202 583,202 584,202 586,202 587,202 589,202 590,203 592,204 593,205 595,206 596,207 598,208 599,209 601,211 602,212 604,213 605,214 607,215 608,216 610,217 611,218 613,219 615,219 616,220 618,220 619,221 621,221 622,221 624,221 625,221 627,220 628,220 630,219 631,219 633,218 634,217 636,216 637,216 639,215 640,214 642,213 643,213 645,212 646,212 648,212 649,212 651,213 652,213 654,214 655,216 657,217 658,219 660,220 661,222 663,223 665,225 666,226 668,228 669,229 671,231 672,232 674,233 675,234 677,235 678,235 680,236 681,236 683,237 684,237 686,237 687,237 689,237 690,237 692,237 693,236 695,236 696,235 698,235 699,234 701,233 702,232 704,231 705,230 707,228 708,227 710,226 712,225 713,224 715,222 716,221 718,220 719,220 721,219 722,219 724,219 725,220 727,220 728,221 730,222 731,223 733,225 734,226 736,228 737,229 739,231 740,232 742,234 743,235 745,237 746,238 748,240 749,241 751,243 752,244 754,246 755,247 757,248 758,249 760,250 762,251 763,252 765,253 766,254 768,255 769,256 771,257 772,257 774,258 775,258 777,259 778,259 780,259 781,259 783,259 784,259 786,259 787,258 789,258 790,257 792,256 793,255 795,254 796,253 798,251 799,250 801,248 802,246 804,244 805,242 807,240 809,239 810,238 812,237 813,238 815,239 816,240 818,243 819,246 821,249 822,252 824,255 825,258 827,262 828,264 830,267 831,270 833,272 834,274 836,276 837,278 839,280 840,281 842,283 843,284 845,285 846,286 848,287 849,288 851,288 852,289 854,289 855,289 857,289 859,289 860,289 862,288 863,288 865,287 866,286 868,285 869,283 871,282 872,280 874,278 875,276 877,273 878,270 880,267 881,264 883,261 884,258 886,255 887,253 889,252 890,253 892,256 893,259 895,263 896,267 898,271 899,275 901,279 902,283 904,286 906,289 907,292 909,294 910,296 912,299 913,301 915,302 916,304 918,306 919,307 921,308 922,309 924,310 925,311 927,312 928,312 930,313 931,313 933,313 934,313 936,313 937,313 939,313 940,313 942,312 943,312 945,311 946,310 948,310 949,309 951,307 952,306 954,305 956,304 957,302 959,301 960,299 962,297 963,295 965,293 966,291 968,289 969,287 971,285 972,283 974,281 975,280 977,278 978,277 980,276 981,276 983,276 984,276 986,276 987,277 989,277 990,278 992,279 993,279 995,280 996,281 998,281 999,281 1001,281 1003,282 1004,281 1004,281 1004,281 1004,281 1004,280 1004,279 1004,279 1004,278 1004,277 1004,277 1004,276 1004,276 1004,276 1004,276 1004,276 1004,277 1004,278 1004,280 1004,281 1004,283 1004,285 1004,287 1004,289 1004,291 1004,293 1004,295 1004,297 1004,299 1004,301 1004,302 1004,304 1004,305 1004,306 1004,307 1004,309 1004,310 1004,310 1004,311 1004,312 1004,312 1004,313 1004,313 1004,313 1004,313 1004,313 1004,313 1004,313 1004,313 1004,312 1004,312 1004,311 1004,310 1004,309 1004,308 1004,307 1004,306 1004,304 1004,302 1004,301 1004,299 1004,296 1004,294 1004,292 1004,289 1004,286 1004,283 1004,279 1004,275 1004,271 1004,267 1004,263 1004,259 1004,256 1004,253 1004,252 1004,253 1004,255 1004,258 1004,261 1004,264 1004,267 1004,270 1004,273 1004,276 1004,278 1004,280 1004,282 1004,283 1004,285 1004,286 1004,287 1004,288 1004,288 1004,289 1004,289 1004,289 1004,289 1004,289 1004,289 1004,288 1004,288 1004,287 1004,286 1004,285 1004,284 1004,283 1004,281 1004,280 1004,278 1004,276 1004,274 1004,272 1004,270 1004,267 1004,264 1004,262 1004,258 1004,255 1004,252 1004,249 1004,246 1004,243 1004,240 1004,239 1004,238 1004,237 1004,238 1004,239 1004,240 1004,242 1004,244 1004,246 1004,248 1004,250 1004,251 1004,253 1004,254 1004,255 1004,256 1004,257 1004,258 1004,258 1004,259 1004,259 1004,259 1004,259 1004,259 1004,259 1004,259 1004,258 1004,258 1004,257 1004,257 1004,256 1004,255 1004,254 1004,253 1004,252 1004,251 1004,250 1004,249 1004,248 1004,247 1004,246 1004,244 1004,243 1004,241 1004,240 1004,238 1004,237 1004,235 1004,234 1004,232 1004,231 1004,229 1004,228 1004,226 1004,225 1004,223 1004,222 1004,221 1004,220 1004,220 1004,219 1004,219 1004,219 1004,220 1004,220 1004,221 1004,222 1004,224 1004,225 1004,226 1004,227 1004,228 1004,230 1004,231 1004,232 1004,233 1004,234 1004,235 1004,235 1004,236 1004,236 1004,237 1004,237 1004,237 1004,237 1004,237 1004,237 1004,237 1004,236 1004,236 1004,235 1004,235 1004,234 1004,233 1004,232 1004,231 1004,229 1004,228 1004,226 1004,225 1004,223 1004,222 1004,220 1004,219 1004,217 1004,216 1004,214 1004,213 1004,213 1004,212 1004,212 1004,212 1004,212 1004,213 1004,213 1004,214 1004,215 1004,216 1004,216 1004,217 1004,218 1004,219 1004,219 1004,220 1004,220 1004,221 1004,221 1004,221 1004,221 1004,221 1004,220 1004,220 1004,219 1004,219 1004,218 1004,217 1004,216 1004,215 1004,214 1004,213 1004,212 1004,211 1004,209 1004,208 1004,207 1004,206 1004,205 1004,204 1004,203 1004,202 1004,202 1004,202 1004,202 1004,202 1004,202 1004,202 1004,203 1004,203 1004,204 1004,204 1004,205 1004,205 1004,206 1004,206 1004,206 1004,207 1004,207 1004,207 1004,207 1004,206 1004,206 1004,206 1004,205 1004,205 1004,204 1004,203 1004,203 1004,202 1004,201 1004,200 1004,199 1004,198 1004,196 1004,195 1004,194 1004,193 1004,192 1004,191 1004,190 1004,189 1004,188 1004,188 1004,187 1004,187 1004,186 1004,186 1004,186 1004,186 1004,186 1004,186 1004,186 1004,186 1004,187 1004,187 1004,187 1004,187 1004,187 1004,187 1004,187 1004,187 1004,187 1004,187 1004,187 1004,187 1004,187 1004,187 1004,187 1004,187 1004,187 1004,187 1004,187 1004,187 1004,187 1004,187 1004,188 1004,188 1004,188 1004,188 1004,188 1004,188 1004,189 1004,189 1004,189 1004,189 1004,189 1004,189 1004,190 1004,190 1004,190 1004,190 1004,190 1004,190 1004,190 1004,189 1004,189 1004,189 1004,189 1004,189 1004,188 1004,188 1004,188 1004,188 1004,187 1004,187 1004,187 1004,186 1004,186 1004,186 1004,185 1004,185 1004,185 1004,185 1004,185 1004,184 1004,184 1004,184 1004,184 1004,184 1004,184 1004,184 1004,184 1004,184 1004,184 1004,184 1004,184 1004,184 1004,184 1004,184 1004,184 1004,184 1004,185 1004,185 1004,185 1004,185 1004,185 1004,186 1004,186 1004,186 1004,187 1004,187 1004,187 1004,187 1004,188 1004,188 1004,188 1004,189 1004,189 1004,189 1004,189 1004,189 1004,190 1004,190 1004,190 1004,190 1004,190 1004,190 1004,190 1004,190 1004,190 1004,190 1004,190 1004,190 1004,190 1004,190 1004,190 1004,190 1004,190 1004,190 1004,190 1004,189 1004,189 1004,189 1004,189 1004,189 1004,189 1004,188 1004,188 1004,188 1004,188 1004,188 1004,188 1004,188 1004,188 1004,188 1004,188 1004,187 1004,187 1004,187 1004,187 1004,187 1004,187 1004,187 1004,187 1004,187 1004,187 1004,187 1004,187 1004,187 1004,187 1004,187 1004,187 1004,187 1004,186 1004,186 1004,186 1004,186 1004,186 1004,186 1004,186 1004,186 1004,186 1004,186 1004,186 1004,186 1004,186 1004,186 1004,186 1004,186 1004,186 1004,185 1004,185 1004,185 1004,185 1004,185 1004,185 1004,185 1004,185 1004,185 1004,185 1004,185 1004,185 1004,185 1004,185 1004,185 1004,185 1004,185 1004,185 1004,185 1004,185 1004,185 1004,185 1004,185 1004,184 1004,184 1004,184 1004,184 1004,184 1004,184 1004,184 1004,184 1004,184 1004,184 1004,184 1004,184 1004,184 1004,184 1004,184 1004,184 1004,184 1004,184 1004,184 1004,184 1004,184 1004,184 1004,184 1004,184 1004,184 1004,184 1004,184 1004,184 1004,184 1004,184 1004,184 1004,184 1004,184 1004,184 1004,184 1004,184 1004,184 1004,184 1004,184 1004,184 1004,184 1004,184 1004,184 1004,184 1004,184 1004,184 1004,184 1004,184 1004,184 1004,184 1004,184 1004,184 1004,184 1004,184 1004,184 1004,184 1004,184 1004,184 1004,184 1004,184 "/>
<rect x="514" y="25" width="485" height="157" opacity="0.8" fill="#FFFFFF" stroke="none"/>
<rect x="514" y="25" width="485" height="157" opacity="1" fill="none" stroke="#000000"/>
<text x="554" y="35" dy="0.76em" text-anchor="start" font-family="sans-serif" font-size="24.193548387096776" opacity="1" fill="#000000">
(1) log_power
</text>
<text x="554" y="73" dy="0.76em" text-anchor="start" font-family="sans-serif" font-size="24.193548387096776" opacity="1" fill="#000000">
(2) spectral_envelope by cepstrum
</text>
<text x="554" y="110" dy="0.76em" text-anchor="start" font-family="sans-serif" font-size="24.193548387096776" opacity="1" fill="#000000">
(3) spectral_envelope by levinson-durbin
</text>
<text x="554" y="148" dy="0.76em" text-anchor="start" font-family="sans-serif" font-size="24.193548387096776" opacity="1" fill="#000000">
(4) spectral_envelope by burg
</text>
<polyline fill="none" opacity="1" stroke="#E6194B" stroke-width="1" points="524,47 544,47 "/>
<polyline fill="none" opacity="1" stroke="#3CB44B" stroke-width="1" points="524,85 544,85 "/>
<polyline fill="none" opacity="1" stroke="#FFE119" stroke-width="1" points="524,122 544,122 "/>
<polyline fill="none" opacity="1" stroke="#0082C8" stroke-width="1" points="524,160 544,160 "/>
</svg>
