<svg width="1024" height="768" viewBox="0 0 1024 768" xmlns="http://www.w3.org/2000/svg">
<rect x="0" y="0" width="1024" height="768" opacity="1" fill="#FFFFFF" stroke="none"/>
<line opacity="0.1" stroke="#000000" stroke-width="1" x1="130" y1="657" x2="130" y2="20"/>
<line opacity="0.1" stroke="#000000" stroke-width="1" x1="140" y1="657" x2="140" y2="20"/>
<line opacity="0.1" stroke="#000000" stroke-width="1" x1="151" y1="657" x2="151" y2="20"/>
<line opacity="0.1" stroke="#000000" stroke-width="1" x1="162" y1="657" x2="162" y2="20"/>
<line opacity="0.1" stroke="#000000" stroke-width="1" x1="173" y1="657" x2="173" y2="20"/>
<line opacity="0.1" stroke="#000000" stroke-width="1" x1="184" y1="657" x2="184" y2="20"/>
<line opacity="0.1" stroke="#000000" stroke-width="1" x1="195" y1="657" x2="195" y2="20"/>
<line opacity="0.1" stroke="#000000" stroke-width="1" x1="206" y1="657" x2="206" y2="20"/>
<line opacity="0.1" stroke="#000000" stroke-width="1" x1="217" y1="657" x2="217" y2="20"/>
<line opacity="0.1" stroke="#000000" stroke-width="1" x1="228" y1="657" x2="228" y2="20"/>
<line opacity="0.1" stroke="#000000" stroke-width="1" x1="239" y1="657" x2="239" y2="20"/>
<line opacity="0.1" stroke="#000000" stroke-width="1" x1="250" y1="657" x2="250" y2="20"/>
<line opacity="0.1" stroke="#000000" stroke-width="1" x1="260" y1="657" x2="260" y2="20"/>
<line opacity="0.1" stroke="#000000" stroke-width="1" x1="271" y1="657" x2="271" y2="20"/>
<line opacity="0.1" stroke="#000000" stroke-width="1" x1="282" y1="657" x2="282" y2="20"/>
<line opacity="0.1" stroke="#000000" stroke-width="1" x1="293" y1="657" x2="293" y2="20"/>
<line opacity="0.1" stroke="#000000" stroke-width="1" x1="304" y1="657" x2="304" y2="20"/>
<line opacity="0.1" stroke="#000000" stroke-width="1" x1="315" y1="657" x2="315" y2="20"/>
<line opacity="0.1" stroke="#000000" stroke-width="1" x1="326" y1="657" x2="326" y2="20"/>
<line opacity="0.1" stroke="#000000" stroke-width="1" x1="337" y1="657" x2="337" y2="20"/>
<line opacity="0.1" stroke="#000000" stroke-width="1" x1="348" y1="657" x2="348" y2="20"/>
<line opacity="0.1" stroke="#000000" stroke-width="1" x1="359" y1="657" x2="359" y2="20"/>
<line opacity="0.1" stroke="#000000" stroke-width="1" x1="370" y1="657" x2="370" y2="20"/>
<line opacity="0.1" stroke="#000000" stroke-width="1" x1="380" y1="657" x2="380" y2="20"/>
<line opacity="0.1" stroke="#000000" stroke-width="1" x1="391" y1="657" x2="391" y2="20"/>
<line opacity="0.1" stroke="#000000" stroke-width="1" x1="402" y1="657" x2="402" y2="20"/>
<line opacity="0.1" stroke="#000000" stroke-width="1" x1="413" y1="657" x2="413" y2="20"/>
<line opacity="0.1" stroke="#000000" stroke-width="1" x1="424" y1="657" x2="424" y2="20"/>
<line opacity="0.1" stroke="#000000" stroke-width="1" x1="435" y1="657" x2="435" y2="20"/>
<line opacity="0.1" stroke="#000000" stroke-width="1" x1="446" y1="657" x2="446" y2="20"/>
<line opacity="0.1" stroke="#000000" stroke-width="1" x1="457" y1="657" x2="457" y2="20"/>
<line opacity="0.1" stroke="#000000" stroke-width="1" x1="468" y1="657" x2="468" y2="20"/>
<line opacity="0.1" stroke="#000000" stroke-width="1" x1="479" y1="657" x2="479" y2="20"/>
<line opacity="0.1" stroke="#000000" stroke-width="1" x1="490" y1="657" x2="490" y2="20"/>
<line opacity="0.1" stroke="#000000" stroke-width="1" x1="501" y1="657" x2="501" y2="20"/>
<line opacity="0.1" stroke="#000000" stroke-width="1" x1="511" y1="657" x2="511" y2="20"/>
<line opacity="0.1" stroke="#000000" stroke-width="1" x1="522" y1="657" x2="522" y2="20"/>
<line opacity="0.1" stroke="#000000" stroke-width="1" x1="533" y1="657" x2="533" y2="20"/>
<line opacity="0.1" stroke="#000000" stroke-width="1" x1="544" y1="657" x2="544" y2="20"/>
<line opacity="0.1" stroke="#000000" stroke-width="1" x1="555" y1="657" x2="555" y2="20"/>
<line opacity="0.1" stroke="#000000" stroke-width="1" x1="566" y1="657" x2="566" y2="20"/>
<line opacity="0.1" stroke="#000000" stroke-width="1" x1="577" y1="657" x2="577" y2="20"/>
<line opacity="0.1" stroke="#000000" stroke-width="1" x1="588" y1="657" x2="588" y2="20"/>
<line opacity="0.1" stroke="#000000" stroke-width="1" x1="599" y1="657" x2="599" y2="20"/>
<line opacity="0.1" stroke="#000000" stroke-width="1" x1="610" y1="657" x2="610" y2="20"/>
<line opacity="0.1" stroke="#000000" stroke-width="1" x1="621" y1="657" x2="621" y2="20"/>
<line opacity="0.1" stroke="#000000" stroke-width="1" x1="631" y1="657" x2="631" y2="20"/>
<line opacity="0.1" stroke="#000000" stroke-width="1" x1="642" y1="657" x2="642" y2="20"/>
<line opacity="0.1" stroke="#000000" stroke-width="1" x1="653" y1="657" x2="653" y2="20"/>
<line opacity="0.1" stroke="#000000" stroke-width="1" x1="664" y1="657" x2="664" y2="20"/>
<line opacity="0.1" stroke="#000000" stroke-width="1" x1="675" y1="657" x2="675" y2="20"/>
<line opacity="0.1" stroke="#000000" stroke-width="1" x1="686" y1="657" x2="686" y2="20"/>
<line opacity="0.1" stroke="#000000" stroke-width="1" x1="697" y1="657" x2="697" y2="20"/>
<line opacity="0.1" stroke="#000000" stroke-width="1" x1="708" y1="657" x2="708" y2="20"/>
<line opacity="0.1" stroke="#000000" stroke-width="1" x1="719" y1="657" x2="719" y2="20"/>
<line opacity="0.1" stroke="#000000" stroke-width="1" x1="730" y1="657" x2="730" y2="20"/>
<line opacity="0.1" stroke="#000000" stroke-width="1" x1="741" y1="657" x2="741" y2="20"/>
<line opacity="0.1" stroke="#000000" stroke-width="1" x1="752" y1="657" x2="752" y2="20"/>
<line opacity="0.1" stroke="#000000" stroke-width="1" x1="762" y1="657" x2="762" y2="20"/>
<line opacity="0.1" stroke="#000000" stroke-width="1" x1="773" y1="657" x2="773" y2="20"/>
<line opacity="0.1" stroke="#000000" stroke-width="1" x1="784" y1="657" x2="784" y2="20"/>
<line opacity="0.1" stroke="#000000" stroke-width="1" x1="795" y1="657" x2="795" y2="20"/>
<line opacity="0.1" stroke="#000000" stroke-width="1" x1="806" y1="657" x2="806" y2="20"/>
<line opacity="0.1" stroke="#000000" stroke-width="1" x1="817" y1="657" x2="817" y2="20"/>
<line opacity="0.1" stroke="#000000" stroke-width="1" x1="828" y1="657" x2="828" y2="20"/>
<line opacity="0.1" stroke="#000000" stroke-width="1" x1="839" y1="657" x2="839" y2="20"/>
<line opacity="0.1" stroke="#000000" stroke-width="1" x1="850" y1="657" x2="850" y2="20"/>
<line opacity="0.1" stroke="#000000" stroke-width="1" x1="861" y1="657" x2="861" y2="20"/>
<line opacity="0.1" stroke="#000000" stroke-width="1" x1="872" y1="657" x2="872" y2="20"/>
<line opacity="0.1" stroke="#000000" stroke-width="1" x1="882" y1="657" x2="882" y2="20"/>
<line opacity="0.1" stroke="#000000" stroke-width="1" x1="893" y1="657" x2="893" y2="20"/>
<line opacity="0.1" stroke="#000000" stroke-width="1" x1="904" y1="657" x2="904" y2="20"/>
<line opacity="0.1" stroke="#000000" stroke-width="1" x1="915" y1="657" x2="915" y2="20"/>
<line opacity="0.1" stroke="#000000" stroke-width="1" x1="926" y1="657" x2="926" y2="20"/>
<line opacity="0.1" stroke="#000000" stroke-width="1" x1="937" y1="657" x2="937" y2="20"/>
<line opacity="0.1" stroke="#000000" stroke-width="1" x1="948" y1="657" x2="948" y2="20"/>
<line opacity="0.1" stroke="#000000" stroke-width="1" x1="959" y1="657" x2="959" y2="20"/>
<line opacity="0.1" stroke="#000000" stroke-width="1" x1="970" y1="657" x2="970" y2="20"/>
<line opacity="0.1" stroke="#000000" stroke-width="1" x1="981" y1="657" x2="981" y2="20"/>
<line opacity="0.1" stroke="#000000" stroke-width="1" x1="992" y1="657" x2="992" y2="20"/>
<line opacity="0.1" stroke="#000000" stroke-width="1" x1="1003" y1="657" x2="1003" y2="20"/>
<line opacity="0.1" stroke="#000000" stroke-width="1" x1="130" y1="657" x2="1003" y2="657"/>
<line opacity="0.1" stroke="#000000" stroke-width="1" x1="130" y1="648" x2="1003" y2="648"/>
<line opacity="0.1" stroke="#000000" stroke-width="1" x1="130" y1="639" x2="1003" y2="639"/>
<line opacity="0.1" stroke="#000000" stroke-width="1" x1="130" y1="630" x2="1003" y2="630"/>
<line opacity="0.1" stroke="#000000" stroke-width="1" x1="130" y1="621" x2="1003" y2="621"/>
<line opacity="0.1" stroke="#000000" stroke-width="1" x1="130" y1="612" x2="1003" y2="612"/>
<line opacity="0.1" stroke="#000000" stroke-width="1" x1="130" y1="603" x2="1003" y2="603"/>
<line opacity="0.1" stroke="#000000" stroke-width="1" x1="130" y1="594" x2="1003" y2="594"/>
<line opacity="0.1" stroke="#000000" stroke-width="1" x1="130" y1="585" x2="1003" y2="585"/>
<line opacity="0.1" stroke="#000000" stroke-width="1" x1="130" y1="576" x2="1003" y2="576"/>
<line opacity="0.1" stroke="#000000" stroke-width="1" x1="130" y1="566" x2="1003" y2="566"/>
<line opacity="0.1" stroke="#000000" stroke-width="1" x1="130" y1="557" x2="1003" y2="557"/>
<line opacity="0.1" stroke="#000000" stroke-width="1" x1="130" y1="548" x2="1003" y2="548"/>
<line opacity="0.1" stroke="#000000" stroke-width="1" x1="130" y1="539" x2="1003" y2="539"/>
<line opacity="0.1" stroke="#000000" stroke-width="1" x1="130" y1="530" x2="1003" y2="530"/>
<line opacity="0.1" stroke="#000000" stroke-width="1" x1="130" y1="521" x2="1003" y2="521"/>
<line opacity="0.1" stroke="#000000" stroke-width="1" x1="130" y1="512" x2="1003" y2="512"/>
<line opacity="0.1" stroke="#000000" stroke-width="1" x1="130" y1="503" x2="1003" y2="503"/>
<line opacity="0.1" stroke="#000000" stroke-width="1" x1="130" y1="494" x2="1003" y2="494"/>
<line opacity="0.1" stroke="#000000" stroke-width="1" x1="130" y1="485" x2="1003" y2="485"/>
<line opacity="0.1" stroke="#000000" stroke-width="1" x1="130" y1="475" x2="1003" y2="475"/>
<line opacity="0.1" stroke="#000000" stroke-width="1" x1="130" y1="466" x2="1003" y2="466"/>
<line opacity="0.1" stroke="#000000" stroke-width="1" x1="130" y1="457" x2="1003" y2="457"/>
<line opacity="0.1" stroke="#000000" stroke-width="1" x1="130" y1="448" x2="1003" y2="448"/>
<line opacity="0.1" stroke="#000000" stroke-width="1" x1="130" y1="439" x2="1003" y2="439"/>
<line opacity="0.1" stroke="#000000" stroke-width="1" x1="130" y1="430" x2="1003" y2="430"/>
<line opacity="0.1" stroke="#000000" stroke-width="1" x1="130" y1="421" x2="1003" y2="421"/>
<line opacity="0.1" stroke="#000000" stroke-width="1" x1="130" y1="412" x2="1003" y2="412"/>
<line opacity="0.1" stroke="#000000" stroke-width="1" x1="130" y1="403" x2="1003" y2="403"/>
<line opacity="0.1" stroke="#000000" stroke-width="1" x1="130" y1="394" x2="1003" y2="394"/>
<line opacity="0.1" stroke="#000000" stroke-width="1" x1="130" y1="384" x2="1003" y2="384"/>
<line opacity="0.1" stroke="#000000" stroke-width="1" x1="130" y1="375" x2="1003" y2="375"/>
<line opacity="0.1" stroke="#000000" stroke-width="1" x1="130" y1="366" x2="1003" y2="366"/>
<line opacity="0.1" stroke="#000000" stroke-width="1" x1="130" y1="357" x2="1003" y2="357"/>
<line opacity="0.1" stroke="#000000" stroke-width="1" x1="130" y1="348" x2="1003" y2="348"/>
<line opacity="0.1" stroke="#000000" stroke-width="1" x1="130" y1="339" x2="1003" y2="339"/>
<line opacity="0.1" stroke="#000000" stroke-width="1" x1="130" y1="330" x2="1003" y2="330"/>
<line opacity="0.1" stroke="#000000" stroke-width="1" x1="130" y1="321" x2="1003" y2="321"/>
<line opacity="0.1" stroke="#000000" stroke-width="1" x1="130" y1="312" x2="1003" y2="312"/>
<line opacity="0.1" stroke="#000000" stroke-width="1" x1="130" y1="303" x2="1003" y2="303"/>
<line opacity="0.1" stroke="#000000" stroke-width="1" x1="130" y1="293" x2="1003" y2="293"/>
<line opacity="0.1" stroke="#000000" stroke-width="1" x1="130" y1="284" x2="1003" y2="284"/>
<line opacity="0.1" stroke="#000000" stroke-width="1" x1="130" y1="275" x2="1003" y2="275"/>
<line opacity="0.1" stroke="#000000" stroke-width="1" x1="130" y1="266" x2="1003" y2="266"/>
<line opacity="0.1" stroke="#000000" stroke-width="1" x1="130" y1="257" x2="1003" y2="257"/>
<line opacity="0.1" stroke="#000000" stroke-width="1" x1="130" y1="248" x2="1003" y2="248"/>
<line opacity="0.1" stroke="#000000" stroke-width="1" x1="130" y1="239" x2="1003" y2="239"/>
<line opacity="0.1" stroke="#000000" stroke-width="1" x1="130" y1="230" x2="1003" y2="230"/>
<line opacity="0.1" stroke="#000000" stroke-width="1" x1="130" y1="221" x2="1003" y2="221"/>
<line opacity="0.1" stroke="#000000" stroke-width="1" x1="130" y1="212" x2="1003" y2="212"/>
<line opacity="0.1" stroke="#000000" stroke-width="1" x1="130" y1="202" x2="1003" y2="202"/>
<line opacity="0.1" stroke="#000000" stroke-width="1" x1="130" y1="193" x2="1003" y2="193"/>
<line opacity="0.1" stroke="#000000" stroke-width="1" x1="130" y1="184" x2="1003" y2="184"/>
<line opacity="0.1" stroke="#000000" stroke-width="1" x1="130" y1="175" x2="1003" y2="175"/>
<line opacity="0.1" stroke="#000000" stroke-width="1" x1="130" y1="166" x2="1003" y2="166"/>
<line opacity="0.1" stroke="#000000" stroke-width="1" x1="130" y1="157" x2="1003" y2="157"/>
<line opacity="0.1" stroke="#000000" stroke-width="1" x1="130" y1="148" x2="1003" y2="148"/>
<line opacity="0.1" stroke="#000000" stroke-width="1" x1="130" y1="139" x2="1003" y2="139"/>
<line opacity="0.1" stroke="#000000" stroke-width="1" x1="130" y1="130" x2="1003" y2="130"/>
<line opacity="0.1" stroke="#000000" stroke-width="1" x1="130" y1="121" x2="1003" y2="121"/>
<line opacity="0.1" stroke="#000000" stroke-width="1" x1="130" y1="111" x2="1003" y2="111"/>
<line opacity="0.1" stroke="#000000" stroke-width="1" x1="130" y1="102" x2="1003" y2="102"/>
<line opacity="0.1" stroke="#000000" stroke-width="1" x1="130" y1="93" x2="1003" y2="93"/>
<line opacity="0.1" stroke="#000000" stroke-width="1" x1="130" y1="84" x2="1003" y2="84"/>
<line opacity="0.1" stroke="#000000" stroke-width="1" x1="130" y1="75" x2="1003" y2="75"/>
<line opacity="0.1" stroke="#000000" stroke-width="1" x1="130" y1="66" x2="1003" y2="66"/>
<line opacity="0.1" stroke="#000000" stroke-width="1" x1="130" y1="57" x2="1003" y2="57"/>
<line opacity="0.1" stroke="#000000" stroke-width="1" x1="130" y1="48" x2="1003" y2="48"/>
<line opacity="0.1" stroke="#000000" stroke-width="1" x1="130" y1="39" x2="1003" y2="39"/>
<line opacity="0.1" stroke="#000000" stroke-width="1" x1="130" y1="30" x2="1003" y2="30"/>
<line opacity="0.1" stroke="#000000" stroke-width="1" x1="130" y1="20" x2="1003" y2="20"/>
<text x="20" y="339" dy="0.76em" text-anchor="middle" font-family="sans-serif" font-size="24.193548387096776" opacity="1" fill="#000000" transform="rotate(270, 20, 339)">
Power [dB]
</text>
<text x="567" y="748" dy="-0.5ex" text-anchor="middle" font-family="sans-serif" font-size="24.193548387096776" opacity="1" fill="#000000">
Frequency [Hz]
</text>
<line opacity="0.2" stroke="#000000" stroke-width="1" x1="130" y1="657" x2="130" y2="20"/>
<line opacity="0.2" stroke="#000000" stroke-width="1" x1="239" y1="657" x2="239" y2="20"/>
<line opacity="0.2" stroke="#000000" stroke-width="1" x1="348" y1="657" x2="348" y2="20"/>
<line opacity="0.2" stroke="#000000" stroke-width="1" x1="457" y1="657" x2="457" y2="20"/>
<line opacity="0.2" stroke="#000000" stroke-width="1" x1="566" y1="657" x2="566" y2="20"/>
<line opacity="0.2" stroke="#000000" stroke-width="1" x1="675" y1="657" x2="675" y2="20"/>
<line opacity="0.2" stroke="#000000" stroke-width="1" x1="784" y1="657" x2="784" y2="20"/>
<line opacity="0.2" stroke="#000000" stroke-width="1" x1="893" y1="657" x2="893" y2="20"/>
<line opacity="0.2" stroke="#000000" stroke-width="1" x1="1003" y1="657" x2="1003" y2="20"/>
<line opacity="0.2" stroke="#000000" stroke-width="1" x1="130" y1="657" x2="1003" y2="657"/>
<line opacity="0.2" stroke="#000000" stroke-width="1" x1="130" y1="566" x2="1003" y2="566"/>
<line opacity="0.2" stroke="#000000" stroke-width="1" x1="130" y1="475" x2="1003" y2="475"/>
<line opacity="0.2" stroke="#000000" stroke-width="1" x1="130" y1="384" x2="1003" y2="384"/>
<line opacity="0.2" stroke="#000000" stroke-width="1" x1="130" y1="293" x2="1003" y2="293"/>
<line opacity="0.2" stroke="#000000" stroke-width="1" x1="130" y1="202" x2="1003" y2="202"/>
<line opacity="0.2" stroke="#000000" stroke-width="1" x1="130" y1="111" x2="1003" y2="111"/>
<line opacity="0.2" stroke="#000000" stroke-width="1" x1="130" y1="20" x2="1003" y2="20"/>
<polyline fill="none" opacity="1" stroke="#000000" stroke-width="1" points="129,20 129,657 "/>
<text x="120" y="657" dy="0.5ex" text-anchor="end" font-family="sans-serif" font-size="24.193548387096776" opacity="1" fill="#000000">
-100.0
</text>
<polyline fill="none" opacity="1" stroke="#000000" stroke-width="1" points="124,657 129,657 "/>
<text x="120" y="566" dy="0.5ex" text-anchor="end" font-family="sans-serif" font-size="24.193548387096776" opacity="1" fill="#000000">
-80.0
</text>
<polyline fill="none" opacity="1" stroke="#000000" stroke-width="1" points="124,566 129,566 "/>
<text x="120" y="475" dy="0.5ex" text-anchor="end" font-family="sans-serif" font-size="24.193548387096776" opacity="1" fill="#000000">
-60.0
</text>
<polyline fill="none" opacity="1" stroke="#000000" stroke-width="1" points="124,475 129,475 "/>
<text x="120" y="384" dy="0.5ex" text-anchor="end" font-family="sans-serif" font-size="24.193548387096776" opacity="1" fill="#000000">
-40.0
</text>
<polyline fill="none" opacity="1" stroke="#000000" stroke-width="1" points="124,384 129,384 "/>
<text x="120" y="293" dy="0.5ex" text-anchor="end" font-family="sans-serif" font-size="24.193548387096776" opacity="1" fill="#000000">
-20.0
</text>
<polyline fill="none" opacity="1" stroke="#000000" stroke-width="1" points="124,293 129,293 "/>
<text x="120" y="202" dy="0.5ex" text-anchor="end" font-family="sans-serif" font-size="24.193548387096776" opacity="1" fill="#000000">
0.0
</text>
<polyline fill="none" opacity="1" stroke="#000000" stroke-width="1" points="124,202 129,202 "/>
<text x="120" y="111" dy="0.5ex" text-anchor="end" font-family="sans-serif" font-size="24.193548387096776" opacity="1" fill="#000000">
20.0
</text>
<polyline fill="none" opacity="1" stroke="#000000" stroke-width="1" points="124,111 129,111 "/>
<text x="120" y="20" dy="0.5ex" text-anchor="end" font-family="sans-serif" font-size="24.193548387096776" opacity="1" fill="#000000">
40.0
</text>
<polyline fill="none" opacity="1" stroke="#000000" stroke-width="1" points="124,20 129,20 "/>
<polyline fill="none" opacity="1" stroke="#000000" stroke-width="1" points="130,658 1003,658 "/>
<text x="130" y="668" dy="0.76em" text-anchor="middle" font-family="sans-serif" font-size="24.193548387096776" opacity="1" fill="#000000">
0.0
</text>
<polyline fill="none" opacity="1" stroke="#000000" stroke-width="1" points="130,658 130,663 "/>
<text x="239" y="668" dy="0.76em" text-anchor="middle" font-family="sans-serif" font-size="24.193548387096776" opacity="1" fill="#000000">
1000.0
</text>
<polyline fill="none" opacity="1" stroke="#000000" stroke-width="1" points="239,658 239,663 "/>
<text x="348" y="668" dy="0.76em" text-anchor="middle" font-family="sans-serif" font-size="24.193548387096776" opacity="1" fill="#000000">
2000.0
</text>
<polyline fill="none" opacity="1" stroke="#000000" stroke-width="1" points="348,658 348,663 "/>
<text x="457" y="668" dy="0.76em" text-anchor="middle" font-family="sans-serif" font-size="24.193548387096776" opacity="1" fill="#000000">
3000.0
</text>
<polyline fill="none" opacity="1" stroke="#000000" stroke-width="1" points="457,658 457,663 "/>
<text x="566" y="668" dy="0.76em" text-anchor="middle" font-family="sans-serif" font-size="24.193548387096776" opacity="1" fill="#000000">
4000.0
</text>
<polyline fill="none" opacity="1" stroke="#000000" stroke-width="1" points="566,658 566,663 "/>
<text x="675" y="668" dy="0.76em" text-anchor="middle" font-family="sans-serif" font-size="24.193548387096776" opacity="1" fill="#000000">
5000.0
</text>
<polyline fill="none" opacity="1" stroke="#000000" stroke-width="1" points="675,658 675,663 "/>
<text x="784" y="668" dy="0.76em" text-anchor="middle" font-family="sans-serif" font-size="24.193548387096776" opacity="1" fill="#000000">
6000.0
</text>
<polyline fill="none" opacity="1" stroke="#000000" stroke-width="1" points="784,658 784,663 "/>
<text x="893" y="668" dy="0.76em" text-anchor="middle" font-family="sans-serif" font-size="24.193548387096776" opacity="1" fill="#000000">
7000.0
</text>
<polyline fill="none" opacity="1" stroke="#000000" stroke-width="1" points="893,658 893,663 "/>
<text x="1003" y="668" dy="0.76em" text-anchor="middle" font-family="sans-serif" font-size="24.193548387096776" opacity="1" fill="#000000">
8000.0
</text>
<polyline fill="none" opacity="1" stroke="#000000" stroke-width="1" points="1003,658 1003,663 "/>
<polyline fill="none" opacity="1" stroke="#E6194B" stroke-width="1" points="130,275 131,277 133,304 134,328 136,297 137,338 139,330 140,362 142,241 143,224 145,249 146,304 148,199 149,176 151,245 152,238 154,254 155,302 157,316 158,244 160,218 161,318 163,206 164,252 166,211 167,252 169,176 170,201 172,168 173,159 175,268 176,196 178,232 180,226 181,307 183,258 184,200 186,190 187,230 189,202 190,161 192,129 193,170 195,107 196,88 198,162 199,130 201,242 202,240 204,214 205,291 207,244 208,293 210,201 211,199 213,235 214,182 216,267 217,181 219,154 220,132 222,175 223,180 225,193 227,240 228,234 230,347 231,205 233,194 234,289 236,195 237,213 239,225 240,176 242,173 243,191 245,171 246,203 248,240 249,216 251,253 252,223 254,264 255,314 257,351 258,259 260,228 261,508 263,250 264,257 266,270 267,241 269,393 270,243 272,341 273,260 275,295 277,286 278,413 280,240 281,307 283,246 284,346 286,291 287,271 289,273 290,241 292,234 293,307 295,341 296,364 298,320 299,337 301,307 302,277 304,305 305,262 307,268 308,282 310,313 311,277 313,263 314,238 316,243 317,448 319,305 320,347 322,334 324,293 325,296 327,309 328,320 330,275 331,302 333,347 334,315 336,300 337,361 339,287 340,335 342,316 343,359 345,287 346,273 348,359 349,333 351,315 352,304 354,327 355,313 357,305 358,325 360,335 361,357 363,374 364,326 366,313 367,426 369,299 370,299 372,347 374,277 375,266 377,335 378,384 380,294 381,285 383,317 384,294 386,343 387,292 389,292 390,313 392,329 393,436 395,303 396,287 398,278 399,302 401,278 402,290 404,267 405,294 407,362 408,379 410,274 411,286 413,273 414,291 416,247 417,207 419,215 421,258 422,250 424,226 425,248 427,236 428,272 430,405 431,321 433,240 434,257 436,324 437,303 439,251 440,247 442,290 443,294 445,321 446,348 448,485 449,372 451,326 452,385 454,306 455,400 457,309 458,330 460,456 461,294 463,294 464,409 466,317 467,303 469,283 471,284 472,272 474,352 475,433 477,275 478,258 480,298 481,324 483,247 484,242 486,297 487,296 489,320 490,277 492,281 493,257 495,343 496,297 498,295 499,373 501,279 502,332 504,264 505,234 507,236 508,302 510,299 511,273 513,256 514,300 516,267 518,294 519,297 521,397 522,329 524,349 525,381 527,346 528,332 530,401 531,408 533,445 534,444 536,425 537,439 539,446 540,408 542,348 543,328 545,374 546,332 548,344 549,323 551,317 552,380 554,448 555,342 557,353 558,367 560,348 561,450 563,419 564,367 566,386 568,416 569,418 571,390 572,348 574,333 575,388 577,396 578,356 580,351 581,509 583,604 584,391 586,371 587,402 589,362 590,357 592,433 593,372 595,332 596,349 598,474 599,445 601,421 602,475 604,423 605,418 607,373 608,343 610,367 611,441 613,408 615,384 616,385 618,448 619,449 621,383 622,386 624,430 625,397 627,553 628,354 630,343 631,378 633,483 634,476 636,420 637,446 639,382 640,463 642,381 643,366 645,393 646,368 648,360 649,409 651,439 652,507 654,469 655,373 657,346 658,384 660,384 661,371 663,467 665,368 666,443 668,360 669,390 671,472 672,471 674,500 675,456 677,453 678,483 680,455 681,497 683,446 684,438 686,414 687,433 689,497 690,410 692,451 693,488 695,406 696,396 698,444 699,488 701,480 702,475 704,450 705,433 707,584 708,450 710,436 712,453 713,487 715,540 716,420 718,401 719,430 721,434 722,452 724,484 725,485 727,564 728,468 730,425 731,442 733,456 734,386 736,351 737,354 739,388 740,460 742,470 743,475 745,413 746,412 748,493 749,513 751,525 752,449 754,499 755,589 757,498 758,527 760,644 762,471 763,479 765,496 766,496 768,477 769,471 771,569 772,485 774,446 775,483 777,506 778,467 780,501 781,497 783,530 784,494 786,474 787,556 789,400 790,374 792,388 793,441 795,537 796,582 798,549 799,568 801,574 802,563 804,563 805,537 807,526 809,454 810,458 812,601 813,514 815,415 816,387 818,400 819,442 821,453 822,515 824,508 825,528 827,517 828,478 830,486 831,495 833,505 834,528 836,529 837,508 839,453 840,469 842,520 843,438 845,435 846,470 848,581 849,637 851,493 852,524 854,629 855,525 857,557 859,515 860,479 862,464 863,503 865,475 866,513 868,585 869,516 871,489 872,528 874,486 875,484 877,508 878,541 880,505 881,507 883,527 884,493 886,498 887,512 889,490 890,478 892,417 893,401 895,405 896,430 898,514 899,595 901,496 902,544 904,538 906,527 907,495 909,558 910,464 912,480 913,557 915,559 916,576 918,592 919,557 921,491 922,511 924,566 925,492 927,495 928,518 930,569 931,525 933,550 934,537 936,488 937,493 939,517 940,528 942,547 943,578 945,654 946,597 948,546 949,574 951,570 952,524 954,510 956,560 957,608 959,658 960,569 962,608 963,542 965,505 966,478 968,658 969,511 971,469 972,447 974,493 975,658 977,515 978,443 980,434 981,445 983,451 984,465 986,453 987,435 989,457 990,532 992,499 993,594 995,554 996,543 998,513 999,560 1001,533 1003,530 1004,533 1004,560 1004,513 1004,543 1004,554 1004,594 1004,499 1004,532 1004,457 1004,435 1004,453 1004,465 1004,451 1004,445 1004,434 1004,443 1004,515 1004,658 1004,493 1004,447 1004,469 1004,511 1004,658 1004,478 1004,505 1004,542 1004,608 1004,569 1004,658 1004,608 1004,560 1004,510 1004,524 1004,570 1004,574 1004,546 1004,597 1004,654 1004,578 1004,547 1004,528 1004,517 1004,493 1004,488 1004,537 1004,550 1004,525 1004,569 1004,518 1004,495 1004,492 1004,566 1004,511 1004,491 1004,557 1004,592 1004,576 1004,559 1004,557 1004,480 1004,464 1004,558 1004,495 1004,527 1004,538 1004,544 1004,496 1004,595 1004,514 1004,430 1004,405 1004,401 1004,417 1004,478 1004,490 1004,512 1004,498 1004,493 1004,527 1004,507 1004,505 1004,541 1004,508 1004,484 1004,486 1004,528 1004,489 1004,516 1004,585 1004,513 1004,475 1004,503 1004,464 1004,479 1004,515 1004,557 1004,525 1004,629 1004,524 1004,493 1004,637 1004,581 1004,470 1004,435 1004,438 1004,520 1004,469 1004,453 1004,508 1004,529 1004,528 1004,505 1004,495 1004,486 1004,478 1004,517 1004,528 1004,508 1004,515 1004,453 1004,442 1004,400 1004,387 1004,415 1004,514 1004,601 1004,458 1004,454 1004,526 1004,537 1004,563 1004,563 1004,574 1004,568 1004,549 1004,582 1004,537 1004,441 1004,388 1004,374 1004,400 1004,556 1004,474 1004,494 1004,530 1004,497 1004,501 1004,467 1004,506 1004,483 1004,446 1004,485 1004,569 1004,471 1004,477 1004,496 1004,496 1004,479 1004,471 1004,644 1004,527 1004,498 1004,589 1004,499 1004,449 1004,525 1004,513 1004,493 1004,412 1004,413 1004,475 1004,470 1004,460 1004,388 1004,354 1004,351 1004,386 1004,456 1004,442 1004,425 1004,468 1004,564 1004,485 1004,484 1004,452 1004,434 1004,430 1004,401 1004,420 1004,540 1004,487 1004,453 1004,436 1004,450 1004,584 1004,433 1004,450 1004,475 1004,480 1004,488 1004,444 1004,396 1004,406 1004,488 1004,451 1004,410 1004,497 1004,433 1004,414 1004,438 1004,446 1004,497 1004,455 1004,483 1004,453 1004,456 1004,500 1004,471 1004,472 1004,390 1004,360 1004,443 1004,368 1004,467 1004,371 1004,384 1004,384 1004,346 1004,373 1004,469 1004,507 1004,439 1004,409 1004,360 1004,368 1004,393 1004,366 1004,381 1004,463 1004,382 1004,446 1004,420 1004,476 1004,483 1004,378 1004,343 1004,354 1004,553 1004,397 1004,430 1004,386 1004,383 1004,449 1004,448 1004,385 1004,384 1004,408 1004,441 1004,367 1004,343 1004,373 1004,418 1004,423 1004,475 1004,421 1004,445 1004,474 1004,349 1004,332 1004,372 1004,433 1004,357 1004,362 1004,402 1004,371 1004,391 1004,604 1004,509 1004,351 1004,356 1004,396 1004,388 1004,333 1004,348 1004,390 1004,418 1004,416 1004,386 1004,367 1004,419 1004,450 1004,348 1004,367 1004,353 1004,342 1004,448 1004,380 1004,317 1004,323 1004,344 1004,332 1004,374 1004,328 1004,348 1004,408 1004,446 1004,439 1004,425 1004,444 1004,445 1004,408 1004,401 1004,332 1004,346 1004,381 1004,349 1004,329 1004,397 1004,297 1004,294 1004,267 1004,300 1004,256 1004,273 1004,299 1004,302 1004,236 1004,234 1004,264 1004,332 1004,279 1004,373 1004,295 1004,297 1004,343 1004,257 1004,281 1004,277 1004,320 1004,296 1004,297 1004,242 1004,247 1004,324 1004,298 1004,258 1004,275 1004,433 1004,352 1004,272 1004,284 1004,283 1004,303 1004,317 1004,409 1004,294 1004,294 1004,456 1004,330 1004,309 1004,400 1004,306 1004,385 1004,326 1004,372 1004,485 1004,348 1004,321 1004,294 1004,290 1004,247 1004,251 1004,303 1004,324 1004,257 1004,240 1004,321 1004,405 1004,272 1004,236 1004,248 1004,226 1004,250 1004,258 1004,215 1004,207 1004,247 1004,291 1004,273 1004,286 1004,274 1004,379 1004,362 1004,294 1004,267 1004,290 1004,278 1004,302 1004,278 1004,287 1004,303 1004,436 1004,329 1004,313 1004,292 1004,292 1004,343 1004,294 1004,317 1004,285 1004,294 1004,384 1004,335 1004,266 1004,277 1004,347 1004,299 1004,299 1004,426 1004,313 1004,326 1004,374 1004,357 1004,335 1004,325 1004,305 1004,313 1004,327 1004,304 1004,315 1004,333 1004,359 1004,273 1004,287 1004,359 1004,316 1004,335 1004,287 1004,361 1004,300 1004,315 1004,347 1004,302 1004,275 1004,320 1004,309 1004,296 1004,293 1004,334 1004,347 1004,305 1004,448 1004,243 1004,238 1004,263 1004,277 1004,313 1004,282 1004,268 1004,262 1004,305 1004,277 1004,307 1004,337 1004,320 1004,364 1004,341 1004,307 1004,234 1004,241 1004,273 1004,271 1004,291 1004,346 1004,246 1004,307 1004,240 1004,413 1004,286 1004,295 1004,260 1004,341 1004,243 1004,393 1004,241 1004,270 1004,257 1004,250 1004,508 1004,228 1004,259 1004,351 1004,314 1004,264 1004,223 1004,253 1004,216 1004,240 1004,203 1004,171 1004,191 1004,173 1004,176 1004,225 1004,213 1004,195 1004,289 1004,194 1004,205 1004,347 1004,234 1004,240 1004,193 1004,180 1004,175 1004,132 1004,154 1004,181 1004,267 1004,182 1004,235 1004,199 1004,201 1004,293 1004,244 1004,291 1004,214 1004,240 1004,242 1004,130 1004,162 1004,88 1004,107 1004,170 1004,129 1004,161 1004,202 1004,230 1004,190 1004,200 1004,258 1004,307 1004,226 1004,232 1004,196 1004,268 1004,159 1004,168 1004,201 1004,176 1004,252 1004,211 1004,252 1004,206 1004,318 1004,218 1004,244 1004,316 1004,302 1004,254 1004,238 1004,245 1004,176 1004,199 1004,304 1004,249 1004,224 1004,241 1004,362 1004,330 1004,338 1004,297 1004,328 1004,304 1004,277 "/>
<polyline fill="none" opacity="1" stroke="#3CB44B" stroke-width="1" points="130,339 131,339 133,338 134,338 136,337 137,337 139,336 140,335 142,334 143,333 145,331 146,330 148,329 149,327 151,325 152,323 154,321 155,319 157,317 158,315 160,313 161,311 163,309 164,307 166,305 167,304 169,302 170,300 172,298 173,297 175,296 176,294 178,293 180,292 181,291 183,291 184,290 186,290 187,290 189,290 190,290 192,290 193,290 195,290 196,291 198,291 199,291 201,292 202,292 204,293 205,293 207,293 208,294 210,294 211,294 213,295 214,295 216,295 217,295 219,295 220,295 222,295 223,296 225,296 227,296 228,296 230,297 231,297 233,298 234,298 236,299 237,300 239,301 240,303 242,304 243,306 245,308 246,310 248,312 249,314 251,316 252,318 254,321 255,323 257,325 258,328 260,330 261,332 263,334 264,336 266,338 267,340 269,341 270,342 272,343 273,344 275,345 277,345 278,345 280,345 281,345 283,345 284,344 286,344 287,343 289,342 290,341 292,341 293,340 295,339 296,338 298,338 299,337 301,337 302,336 304,336 305,336 307,337 308,337 310,337 311,338 313,339 314,340 316,341 317,342 319,343 320,344 322,345 324,346 325,348 327,349 328,350 330,351 331,352 333,352 334,353 336,354 337,354 339,354 340,354 342,355 343,355 345,354 346,354 348,354 349,354 351,354 352,353 354,353 355,353 357,353 358,352 360,352 361,352 363,352 364,352 366,352 367,353 369,353 370,353 372,354 374,354 375,354 377,355 378,355 380,355 381,355 383,355 384,355 386,354 387,354 389,353 390,352 392,351 393,350 395,349 396,347 398,345 399,344 401,342 402,340 404,338 405,336 407,334 408,332 410,330 411,329 413,327 414,326 416,325 417,324 419,323 421,323 422,323 424,324 425,325 427,326 428,327 430,329 431,331 433,333 434,335 436,338 437,341 439,343 440,346 442,349 443,352 445,355 446,357 448,359 449,362 451,363 452,365 454,366 455,367 457,368 458,368 460,367 461,367 463,366 464,365 466,363 467,361 469,359 471,357 472,355 474,352 475,349 477,347 478,344 480,341 481,339 483,337 484,335 486,333 487,331 489,330 490,329 492,328 493,328 495,328 496,328 498,329 499,330 501,331 502,333 504,335 505,337 507,339 508,342 510,344 511,347 513,350 514,353 516,355 518,358 519,361 521,363 522,366 524,368 525,370 527,372 528,374 530,375 531,377 533,378 534,379 536,380 537,381 539,381 540,382 542,382 543,382 545,383 546,383 548,383 549,383 551,383 552,383 554,383 555,383 557,383 558,383 560,384 561,384 563,384 564,384 566,385 568,385 569,386 571,386 572,387 574,387 575,388 577,388 578,389 580,390 581,390 583,391 584,391 586,392 587,392 589,393 590,393 592,394 593,394 595,395 596,395 598,395 599,396 601,396 602,396 604,397 605,397 607,397 608,398 610,398 611,398 613,398 615,398 616,398 618,399 619,399 621,399 622,399 624,399 625,399 627,399 628,398 630,398 631,398 633,398 634,398 636,397 637,397 639,397 640,397 642,396 643,396 645,396 646,396 648,396 649,396 651,396 652,396 654,396 655,397 657,397 658,398 660,398 661,399 663,400 665,401 666,402 668,403 669,405 671,406 672,408 674,409 675,411 677,412 678,414 680,415 681,416 683,418 684,419 686,420 687,421 689,422 690,423 692,424 693,424 695,425 696,425 698,425 699,425 701,424 702,424 704,424 705,423 707,422 708,422 710,421 712,420 713,419 715,418 716,418 718,417 719,416 721,416 722,415 724,415 725,415 727,414 728,415 730,415 731,415 733,415 734,416 736,417 737,418 739,419 740,420 742,421 743,422 745,424 746,425 748,427 749,428 751,430 752,431 754,433 755,434 757,435 758,437 760,438 762,439 763,440 765,441 766,442 768,442 769,443 771,444 772,444 774,444 775,444 777,444 778,444 780,444 781,444 783,444 784,443 786,443 787,443 789,442 790,442 792,441 793,441 795,440 796,440 798,439 799,439 801,439 802,438 804,438 805,438 807,437 809,437 810,437 812,437 813,437 815,437 816,437 818,437 819,437 821,437 822,438 824,438 825,439 827,439 828,439 830,440 831,441 833,441 834,442 836,442 837,443 839,444 840,445 842,445 843,446 845,447 846,447 848,448 849,448 851,449 852,449 854,450 855,450 857,450 859,450 860,450 862,450 863,450 865,450 866,449 868,449 869,448 871,448 872,447 874,447 875,446 877,445 878,444 880,443 881,443 883,442 884,441 886,440 887,440 889,439 890,439 892,438 893,438 895,438 896,438 898,438 899,439 901,439 902,440 904,440 906,441 907,442 909,444 910,445 912,446 913,448 915,450 916,451 918,453 919,455 921,457 922,458 924,460 925,462 927,464 928,465 930,467 931,468 933,469 934,470 936,471 937,472 939,472 940,473 942,473 943,473 945,473 946,473 948,472 949,472 951,471 952,470 954,470 956,469 957,467 959,466 960,465 962,464 963,462 965,461 966,460 968,459 969,457 971,456 972,455 974,454 975,453 977,451 978,450 980,450 981,449 983,448 984,447 986,447 987,446 989,445 990,445 992,445 993,444 995,444 996,444 998,444 999,444 1001,443 1003,443 1004,443 1004,444 1004,444 1004,444 1004,444 1004,444 1004,445 1004,445 1004,445 1004,446 1004,447 1004,447 1004,448 1004,449 1004,450 1004,450 1004,451 1004,453 1004,454 1004,455 1004,456 1004,457 1004,459 1004,460 1004,461 1004,462 1004,464 1004,465 1004,466 1004,467 1004,469 1004,470 1004,470 1004,471 1004,472 1004,472 1004,473 1004,473 1004,473 1004,473 1004,473 1004,472 1004,472 1004,471 1004,470 1004,469 1004,468 1004,467 1004,465 1004,464 1004,462 1004,460 1004,458 1004,457 1004,455 1004,453 1004,451 1004,450 1004,448 1004,446 1004,445 1004,444 1004,442 1004,441 1004,440 1004,440 1004,439 1004,439 1004,438 1004,438 1004,438 1004,438 1004,438 1004,439 1004,439 1004,440 1004,440 1004,441 1004,442 1004,443 1004,443 1004,444 1004,445 1004,446 1004,447 1004,447 1004,448 1004,448 1004,449 1004,449 1004,450 1004,450 1004,450 1004,450 1004,450 1004,450 1004,450 1004,450 1004,449 1004,449 1004,448 1004,448 1004,447 1004,447 1004,446 1004,445 1004,445 1004,444 1004,443 1004,442 1004,442 1004,441 1004,441 1004,440 1004,439 1004,439 1004,439 1004,438 1004,438 1004,437 1004,437 1004,437 1004,437 1004,437 1004,437 1004,437 1004,437 1004,437 1004,437 1004,438 1004,438 1004,438 1004,439 1004,439 1004,439 1004,440 1004,440 1004,441 1004,441 1004,442 1004,442 1004,443 1004,443 1004,443 1004,444 1004,444 1004,444 1004,444 1004,444 1004,444 1004,444 1004,444 1004,444 1004,443 1004,442 1004,442 1004,441 1004,440 1004,439 1004,438 1004,437 1004,435 1004,434 1004,433 1004,431 1004,430 1004,428 1004,427 1004,425 1004,424 1004,422 1004,421 1004,420 1004,419 1004,418 1004,417 1004,416 1004,415 1004,415 1004,415 1004,415 1004,414 1004,415 1004,415 1004,415 1004,416 1004,416 1004,417 1004,418 1004,418 1004,419 1004,420 1004,421 1004,422 1004,422 1004,423 1004,424 1004,424 1004,424 1004,425 1004,425 1004,425 1004,425 1004,424 1004,424 1004,423 1004,422 1004,421 1004,420 1004,419 1004,418 1004,416 1004,415 1004,414 1004,412 1004,411 1004,409 1004,408 1004,406 1004,405 1004,403 1004,402 1004,401 1004,400 1004,399 1004,398 1004,398 1004,397 1004,397 1004,396 1004,396 1004,396 1004,396 1004,396 1004,396 1004,396 1004,396 1004,396 1004,397 1004,397 1004,397 1004,397 1004,398 1004,398 1004,398 1004,398 1004,398 1004,399 1004,399 1004,399 1004,399 1004,399 1004,399 1004,399 1004,398 1004,398 1004,398 1004,398 1004,398 1004,398 1004,397 1004,397 1004,397 1004,396 1004,396 1004,396 1004,395 1004,395 1004,395 1004,394 1004,394 1004,393 1004,393 1004,392 1004,392 1004,391 1004,391 1004,390 1004,390 1004,389 1004,388 1004,388 1004,387 1004,387 1004,386 1004,386 1004,385 1004,385 1004,384 1004,384 1004,384 1004,384 1004,383 1004,383 1004,383 1004,383 1004,383 1004,383 1004,383 1004,383 1004,383 1004,383 1004,382 1004,382 1004,382 1004,381 1004,381 1004,380 1004,379 1004,378 1004,377 1004,375 1004,374 1004,372 1004,370 1004,368 1004,366 1004,363 1004,361 1004,358 1004,355 1004,353 1004,350 1004,347 1004,344 1004,342 1004,339 1004,337 1004,335 1004,333 1004,331 1004,330 1004,329 1004,328 1004,328 1004,328 1004,328 1004,329 1004,330 1004,331 1004,333 1004,335 1004,337 1004,339 1004,341 1004,344 1004,347 1004,349 1004,352 1004,355 1004,357 1004,359 1004,361 1004,363 1004,365 1004,366 1004,367 1004,367 1004,368 1004,368 1004,367 1004,366 1004,365 1004,363 1004,362 1004,359 1004,357 1004,355 1004,352 1004,349 1004,346 1004,343 1004,341 1004,338 1004,335 1004,333 1004,331 1004,329 1004,327 1004,326 1004,325 1004,324 1004,323 1004,323 1004,323 1004,324 1004,325 1004,326 1004,327 1004,329 1004,330 1004,332 1004,334 1004,336 1004,338 1004,340 1004,342 1004,344 1004,345 1004,347 1004,349 1004,350 1004,351 1004,352 1004,353 1004,354 1004,354 1004,355 1004,355 1004,355 1004,355 1004,355 1004,355 1004,354 1004,354 1004,354 1004,353 1004,353 1004,353 1004,352 1004,352 1004,352 1004,352 1004,352 1004,352 1004,353 1004,353 1004,353 1004,353 1004,354 1004,354 1004,354 1004,354 1004,354 1004,355 1004,355 1004,354 1004,354 1004,354 1004,354 1004,353 1004,352 1004,352 1004,351 1004,350 1004,349 1004,348 1004,346 1004,345 1004,344 1004,343 1004,342 1004,341 1004,340 1004,339 1004,338 1004,337 1004,337 1004,337 1004,336 1004,336 1004,336 1004,337 1004,337 1004,338 1004,338 1004,339 1004,340 1004,341 1004,341 1004,342 1004,343 1004,344 1004,344 1004,345 1004,345 1004,345 1004,345 1004,345 1004,345 1004,344 1004,343 1004,342 1004,341 1004,340 1004,338 1004,336 1004,334 1004,332 1004,330 1004,328 1004,325 1004,323 1004,321 1004,318 1004,316 1004,314 1004,312 1004,310 1004,308 1004,306 1004,304 1004,303 1004,301 1004,300 1004,299 1004,298 1004,298 1004,297 1004,297 1004,296 1004,296 1004,296 1004,296 1004,295 1004,295 1004,295 1004,295 1004,295 1004,295 1004,295 1004,294 1004,294 1004,294 1004,293 1004,293 1004,293 1004,292 1004,292 1004,291 1004,291 1004,291 1004,290 1004,290 1004,290 1004,290 1004,290 1004,290 1004,290 1004,290 1004,291 1004,291 1004,292 1004,293 1004,294 1004,296 1004,297 1004,298 1004,300 1004,302 1004,304 1004,305 1004,307 1004,309 1004,311 1004,313 1004,315 1004,317 1004,319 1004,321 1004,323 1004,325 1004,327 1004,329 1004,330 1004,331 1004,333 1004,334 1004,335 1004,336 1004,337 1004,337 1004,338 1004,338 1004,339 "/>
<polyline fill="none" opacity="1" stroke="#FFE119" stroke-width="1" points="130,384 131,384 133,384 134,384 136,384 137,384 139,384 140,384 142,384 143,384 145,384 146,384 148,384 149,384 151,384 152,384 154,384 155,384 157,384 158,384 160,384 161,384 163,384 164,384 166,384 167,384 169,384 170,384 172,384 173,385 175,385 176,385 178,385 180,385 181,385 183,385 184,385 186,385 187,385 189,385 190,385 192,385 193,385 195,385 196,385 198,385 199,385 201,385 202,385 204,385 205,385 207,385 208,385 210,385 211,385 213,385 214,385 216,385 217,385 219,385 220,385 222,385 223,386 225,386 227,386 228,386 230,386 231,386 233,386 234,386 236,386 237,386 239,386 240,386 242,386 243,387 245,387 246,387 248,387 249,387 251,387 252,387 254,387 255,387 257,388 258,388 260,388 261,388 263,388 264,388 266,388 267,388 269,388 270,389 272,389 273,389 275,389 277,389 278,389 280,389 281,389 283,390 284,390 286,390 287,390 289,390 290,390 292,390 293,390 295,390 296,391 298,391 299,391 301,391 302,391 304,391 305,391 307,391 308,392 310,392 311,392 313,392 314,392 316,392 317,393 319,393 320,393 322,393 324,394 325,394 327,394 328,395 330,395 331,395 333,396 334,396 336,396 337,396 339,397 340,397 342,397 343,397 345,397 346,397 348,397 349,397 351,397 352,397 354,397 355,397 357,396 358,396 360,396 361,395 363,395 364,395 366,394 367,394 369,393 370,392 372,392 374,391 375,391 377,390 378,390 380,389 381,388 383,388 384,387 386,387 387,386 389,386 390,386 392,385 393,385 395,385 396,384 398,384 399,384 401,384 402,384 404,384 405,384 407,384 408,384 410,384 411,384 413,385 414,385 416,385 417,386 419,386 421,386 422,387 424,387 425,388 427,389 428,389 430,390 431,390 433,391 434,392 436,392 437,393 439,393 440,394 442,394 443,395 445,395 446,395 448,395 449,396 451,396 452,396 454,396 455,396 457,396 458,395 460,395 461,395 463,394 464,394 466,394 467,393 469,393 471,393 472,392 474,392 475,392 477,391 478,391 480,391 481,391 483,391 484,391 486,391 487,391 489,391 490,391 492,391 493,391 495,391 496,391 498,391 499,391 501,391 502,391 504,391 505,390 507,390 508,390 510,389 511,389 513,389 514,389 516,389 518,389 519,389 521,389 522,390 524,391 525,392 527,393 528,395 530,396 531,398 533,400 534,402 536,405 537,407 539,409 540,412 542,414 543,416 545,418 546,420 548,422 549,423 551,425 552,426 554,427 555,428 557,429 558,429 560,430 561,430 563,430 564,430 566,429 568,429 569,428 571,427 572,426 574,425 575,424 577,423 578,422 580,421 581,421 583,420 584,420 586,420 587,421 589,421 590,423 592,424 593,426 595,428 596,430 598,433 599,435 601,438 602,440 604,443 605,445 607,447 608,449 610,451 611,453 613,454 615,455 616,456 618,457 619,458 621,458 622,458 624,458 625,458 627,457 628,456 630,455 631,454 633,453 634,451 636,449 637,448 639,446 640,444 642,443 643,442 645,441 646,440 648,440 649,441 651,442 652,443 654,445 655,448 657,451 658,454 660,457 661,460 663,463 665,466 666,469 668,472 669,475 671,477 672,480 674,482 675,484 677,486 678,487 680,488 681,489 683,490 684,491 686,491 687,491 689,491 690,491 692,490 693,489 695,488 696,487 698,486 699,484 701,482 702,480 704,478 705,476 707,473 708,471 710,468 712,466 713,464 715,461 716,459 718,457 719,456 721,455 722,455 724,455 725,456 727,457 728,459 730,461 731,463 733,466 734,469 736,472 737,475 739,478 740,481 742,484 743,487 745,490 746,493 748,496 749,499 751,502 752,505 754,507 755,510 757,513 758,515 760,517 762,519 763,521 765,523 766,525 768,527 769,528 771,530 772,531 774,532 775,533 777,534 778,534 780,535 781,535 783,535 784,534 786,534 787,533 789,532 790,530 792,529 793,527 795,524 796,522 798,519 799,516 801,512 802,508 804,505 805,501 807,497 809,494 810,492 812,491 813,492 815,494 816,497 818,502 819,508 821,514 822,521 824,527 825,533 827,540 828,545 830,551 831,556 833,561 834,565 836,569 837,573 839,576 840,579 842,582 843,585 845,587 846,589 848,591 849,592 851,593 852,594 854,595 855,595 857,595 859,595 860,594 862,593 863,592 865,590 866,588 868,586 869,583 871,580 872,576 874,572 875,568 877,562 878,557 880,551 881,544 883,538 884,532 886,526 887,522 889,521 890,523 892,528 893,535 895,543 896,551 898,559 899,567 901,575 902,582 904,588 906,594 907,600 909,605 910,609 912,614 913,618 915,621 916,625 918,627 919,630 921,633 922,635 924,637 925,638 927,640 928,641 930,642 931,642 933,643 934,643 936,643 937,643 939,642 940,642 942,641 943,640 945,639 946,637 948,636 949,634 951,631 952,629 954,627 956,624 957,621 959,618 960,614 962,610 963,607 965,603 966,599 968,595 969,590 971,586 972,583 974,579 975,576 977,573 978,571 980,569 981,568 983,568 984,568 986,569 987,570 989,571 990,573 992,574 993,575 995,577 996,578 998,578 999,579 1001,579 1003,580 1004,579 1004,579 1004,578 1004,578 1004,577 1004,575 1004,574 1004,573 1004,571 1004,570 1004,569 1004,568 1004,568 1004,568 1004,569 1004,571 1004,573 1004,576 1004,579 1004,583 1004,586 1004,590 1004,595 1004,599 1004,603 1004,607 1004,610 1004,614 1004,618 1004,621 1004,624 1004,627 1004,629 1004,631 1004,634 1004,636 1004,637 1004,639 1004,640 1004,641 1004,642 1004,642 1004,643 1004,643 1004,643 1004,643 1004,642 1004,642 1004,641 1004,640 1004,638 1004,637 1004,635 1004,633 1004,630 1004,627 1004,625 1004,621 1004,618 1004,614 1004,609 1004,605 1004,600 1004,594 1004,588 1004,582 1004,575 1004,567 1004,559 1004,551 1004,543 1004,535 1004,528 1004,523 1004,521 1004,522 1004,526 1004,532 1004,538 1004,544 1004,551 1004,557 1004,562 1004,568 1004,572 1004,576 1004,580 1004,583 1004,586 1004,588 1004,590 1004,592 1004,593 1004,594 1004,595 1004,595 1004,595 1004,595 1004,594 1004,593 1004,592 1004,591 1004,589 1004,587 1004,585 1004,582 1004,579 1004,576 1004,573 1004,569 1004,565 1004,561 1004,556 1004,551 1004,545 1004,540 1004,533 1004,527 1004,521 1004,514 1004,508 1004,502 1004,497 1004,494 1004,492 1004,491 1004,492 1004,494 1004,497 1004,501 1004,505 1004,508 1004,512 1004,516 1004,519 1004,522 1004,524 1004,527 1004,529 1004,530 1004,532 1004,533 1004,534 1004,534 1004,535 1004,535 1004,535 1004,534 1004,534 1004,533 1004,532 1004,531 1004,530 1004,528 1004,527 1004,525 1004,523 1004,521 1004,519 1004,517 1004,515 1004,513 1004,510 1004,507 1004,505 1004,502 1004,499 1004,496 1004,493 1004,490 1004,487 1004,484 1004,481 1004,478 1004,475 1004,472 1004,469 1004,466 1004,463 1004,461 1004,459 1004,457 1004,456 1004,455 1004,455 1004,455 1004,456 1004,457 1004,459 1004,461 1004,464 1004,466 1004,468 1004,471 1004,473 1004,476 1004,478 1004,480 1004,482 1004,484 1004,486 1004,487 1004,488 1004,489 1004,490 1004,491 1004,491 1004,491 1004,491 1004,491 1004,490 1004,489 1004,488 1004,487 1004,486 1004,484 1004,482 1004,480 1004,477 1004,475 1004,472 1004,469 1004,466 1004,463 1004,460 1004,457 1004,454 1004,451 1004,448 1004,445 1004,443 1004,442 1004,441 1004,440 1004,440 1004,441 1004,442 1004,443 1004,444 1004,446 1004,448 1004,449 1004,451 1004,453 1004,454 1004,455 1004,456 1004,457 1004,458 1004,458 1004,458 1004,458 1004,458 1004,457 1004,456 1004,455 1004,454 1004,453 1004,451 1004,449 1004,447 1004,445 1004,443 1004,440 1004,438 1004,435 1004,433 1004,430 1004,428 1004,426 1004,424 1004,423 1004,421 1004,421 1004,420 1004,420 1004,420 1004,421 1004,421 1004,422 1004,423 1004,424 1004,425 1004,426 1004,427 1004,428 1004,429 1004,429 1004,430 1004,430 1004,430 1004,430 1004,429 1004,429 1004,428 1004,427 1004,426 1004,425 1004,423 1004,422 1004,420 1004,418 1004,416 1004,414 1004,412 1004,409 1004,407 1004,405 1004,402 1004,400 1004,398 1004,396 1004,395 1004,393 1004,392 1004,391 1004,390 1004,389 1004,389 1004,389 1004,389 1004,389 1004,389 1004,389 1004,389 1004,390 1004,390 1004,390 1004,391 1004,391 1004,391 1004,391 1004,391 1004,391 1004,391 1004,391 1004,391 1004,391 1004,391 1004,391 1004,391 1004,391 1004,391 1004,391 1004,391 1004,391 1004,391 1004,392 1004,392 1004,392 1004,393 1004,393 1004,393 1004,394 1004,394 1004,394 1004,395 1004,395 1004,395 1004,396 1004,396 1004,396 1004,396 1004,396 1004,396 1004,395 1004,395 1004,395 1004,395 1004,394 1004,394 1004,393 1004,393 1004,392 1004,392 1004,391 1004,390 1004,390 1004,389 1004,389 1004,388 1004,387 1004,387 1004,386 1004,386 1004,386 1004,385 1004,385 1004,385 1004,384 1004,384 1004,384 1004,384 1004,384 1004,384 1004,384 1004,384 1004,384 1004,384 1004,384 1004,385 1004,385 1004,385 1004,386 1004,386 1004,386 1004,387 1004,387 1004,388 1004,388 1004,389 1004,390 1004,390 1004,391 1004,391 1004,392 1004,392 1004,393 1004,394 1004,394 1004,395 1004,395 1004,395 1004,396 1004,396 1004,396 1004,397 1004,397 1004,397 1004,397 1004,397 1004,397 1004,397 1004,397 1004,397 1004,397 1004,397 1004,397 1004,396 1004,396 1004,396 1004,396 1004,395 1004,395 1004,395 1004,394 1004,394 1004,394 1004,393 1004,393 1004,393 1004,393 1004,392 1004,392 1004,392 1004,392 1004,392 1004,392 1004,391 1004,391 1004,391 1004,391 1004,391 1004,391 1004,391 1004,391 1004,390 1004,390 1004,390 1004,390 1004,390 1004,390 1004,390 1004,390 1004,390 1004,389 1004,389 1004,389 1004,389 1004,389 1004,389 1004,389 1004,389 1004,388 1004,388 1004,388 1004,388 1004,388 1004,388 1004,388 1004,388 1004,388 1004,387 1004,387 1004,387 1004,387 1004,387 1004,387 1004,387 1004,387 1004,387 1004,386 1004,386 1004,386 1004,386 1004,386 1004,386 1004,386 1004,386 1004,386 1004,386 1004,386 1004,386 1004,386 1004,385 1004,385 1004,385 1004,385 1004,385 1004,385 1004,385 1004,385 1004,385 1004,385 1004,385 1004,385 1004,385 1004,385 1004,385 1004,385 1004,385 1004,385 1004,385 1004,385 1004,385 1004,385 1004,385 1004,385 1004,385 1004,385 1004,385 1004,385 1004,385 1004,385 1004,385 1004,385 1004,385 1004,384 1004,384 1004,384 1004,384 1004,384 1004,384 1004,384 1004,384 1004,384 1004,384 1004,384 1004,384 1004,384 1004,384 1004,384 1004,384 1004,384 1004,384 1004,384 1004,384 1004,384 1004,384 1004,384 1004,384 1004,384 1004,384 1004,384 1004,384 "/>
<polyline fill="none" opacity="1" stroke="#0082C8" stroke-width="1" points="130,256 131,256 133,256 134,256 136,256 137,256 139,256 140,256 142,256 143,256 145,256 146,256 148,256 149,256 151,256 152,256 154,256 155,256 157,256 158,256 160,256 161,256 163,256 164,256 166,256 167,256 169,256 170,256 172,257 173,257 175,257 176,257 178,257 180,257 181,257 183,257 184,257 186,257 187,257 189,257 190,257 192,257 193,257 195,257 196,257 198,257 199,257 201,257 202,257 204,257 205,257 207,257 208,257 210,257 211,257 213,257 214,257 216,257 217,257 219,257 220,258 222,258 223,258 225,258 227,258 228,258 230,258 231,258 233,258 234,258 236,258 237,258 239,258 240,258 242,258 243,259 245,259 246,259 248,259 249,259 251,259 252,259 254,259 255,259 257,260 258,260 260,260 261,260 263,260 264,260 266,260 267,260 269,261 270,261 272,261 273,261 275,261 277,261 278,261 280,261 281,261 283,262 284,262 286,262 287,262 289,262 290,262 292,262 293,262 295,262 296,263 298,263 299,263 301,263 302,263 304,263 305,263 307,263 308,264 310,264 311,264 313,264 314,264 316,264 317,265 319,265 320,265 322,265 324,266 325,266 327,266 328,267 330,267 331,267 333,268 334,268 336,268 337,268 339,269 340,269 342,269 343,269 345,269 346,269 348,269 349,269 351,269 352,269 354,269 355,269 357,268 358,268 360,268 361,267 363,267 364,267 366,266 367,266 369,265 370,265 372,264 374,263 375,263 377,262 378,262 380,261 381,260 383,260 384,259 386,259 387,258 389,258 390,258 392,257 393,257 395,257 396,256 398,256 399,256 401,256 402,256 404,256 405,256 407,256 408,256 410,256 411,256 413,257 414,257 416,257 417,258 419,258 421,258 422,259 424,259 425,260 427,261 428,261 430,262 431,262 433,263 434,264 436,264 437,265 439,265 440,266 442,266 443,267 445,267 446,267 448,268 449,268 451,268 452,268 454,268 455,268 457,268 458,267 460,267 461,267 463,266 464,266 466,266 467,265 469,265 471,265 472,264 474,264 475,264 477,263 478,263 480,263 481,263 483,263 484,263 486,263 487,263 489,263 490,263 492,263 493,263 495,263 496,263 498,263 499,263 501,263 502,263 504,263 505,262 507,262 508,262 510,261 511,261 513,261 514,261 516,261 518,261 519,261 521,261 522,262 524,263 525,264 527,265 528,267 530,268 531,270 533,272 534,274 536,277 537,279 539,281 540,284 542,286 543,288 545,290 546,292 548,294 549,295 551,297 552,298 554,299 555,300 557,301 558,301 560,302 561,302 563,302 564,302 566,301 568,301 569,300 571,299 572,298 574,297 575,296 577,295 578,294 580,293 581,293 583,292 584,292 586,292 587,293 589,293 590,295 592,296 593,298 595,300 596,302 598,305 599,307 601,310 602,312 604,315 605,317 607,319 608,321 610,323 611,325 613,326 615,327 616,328 618,329 619,330 621,330 622,330 624,330 625,330 627,329 628,328 630,327 631,326 633,325 634,323 636,321 637,320 639,318 640,316 642,315 643,314 645,313 646,312 648,312 649,313 651,314 652,315 654,317 655,320 657,323 658,326 660,329 661,332 663,335 665,338 666,341 668,344 669,347 671,350 672,352 674,354 675,356 677,358 678,359 680,360 681,361 683,362 684,363 686,363 687,363 689,363 690,363 692,362 693,361 695,360 696,359 698,358 699,356 701,354 702,352 704,350 705,348 707,345 708,343 710,340 712,338 713,336 715,333 716,331 718,329 719,328 721,327 722,327 724,327 725,328 727,329 728,331 730,333 731,335 733,338 734,341 736,344 737,347 739,350 740,353 742,356 743,359 745,362 746,365 748,368 749,371 751,374 752,377 754,380 755,382 757,385 758,387 760,389 762,391 763,393 765,395 766,397 768,399 769,400 771,402 772,403 774,404 775,405 777,406 778,406 780,407 781,407 783,407 784,406 786,406 787,405 789,404 790,402 792,401 793,399 795,396 796,394 798,391 799,388 801,384 802,380 804,377 805,373 807,369 809,366 810,364 812,363 813,364 815,366 816,369 818,374 819,380 821,386 822,393 824,399 825,405 827,412 828,417 830,423 831,428 833,433 834,437 836,441 837,445 839,448 840,451 842,454 843,457 845,459 846,461 848,463 849,464 851,465 852,466 854,467 855,467 857,467 859,467 860,466 862,465 863,464 865,462 866,460 868,458 869,455 871,452 872,448 874,444 875,440 877,435 878,429 880,423 881,416 883,410 884,404 886,398 887,394 889,393 890,395 892,400 893,407 895,415 896,423 898,431 899,439 901,447 902,454 904,460 906,466 907,472 909,477 910,481 912,486 913,490 915,493 916,497 918,500 919,502 921,505 922,507 924,509 925,510 927,512 928,513 930,514 931,514 933,515 934,515 936,515 937,515 939,514 940,514 942,513 943,512 945,511 946,509 948,508 949,506 951,503 952,501 954,499 956,496 957,493 959,490 960,486 962,482 963,479 965,475 966,471 968,467 969,463 971,458 972,455 974,451 975,448 977,445 978,443 980,441 981,440 983,440 984,440 986,441 987,442 989,443 990,445 992,446 993,447 995,449 996,450 998,450 999,451 1001,451 1003,452 1004,451 1004,451 1004,450 1004,450 1004,449 1004,447 1004,446 1004,445 1004,443 1004,442 1004,441 1004,440 1004,440 1004,440 1004,441 1004,443 1004,445 1004,448 1004,451 1004,455 1004,458 1004,463 1004,467 1004,471 1004,475 1004,479 1004,482 1004,486 1004,490 1004,493 1004,496 1004,499 1004,501 1004,503 1004,506 1004,508 1004,509 1004,511 1004,512 1004,513 1004,514 1004,514 1004,515 1004,515 1004,515 1004,515 1004,514 1004,514 1004,513 1004,512 1004,510 1004,509 1004,507 1004,505 1004,502 1004,500 1004,497 1004,493 1004,490 1004,486 1004,481 1004,477 1004,472 1004,466 1004,460 1004,454 1004,447 1004,439 1004,431 1004,423 1004,415 1004,407 1004,400 1004,395 1004,393 1004,394 1004,398 1004,404 1004,410 1004,416 1004,423 1004,429 1004,435 1004,440 1004,444 1004,448 1004,452 1004,455 1004,458 1004,460 1004,462 1004,464 1004,465 1004,466 1004,467 1004,467 1004,467 1004,467 1004,466 1004,465 1004,464 1004,463 1004,461 1004,459 1004,457 1004,454 1004,451 1004,448 1004,445 1004,441 1004,437 1004,433 1004,428 1004,423 1004,417 1004,412 1004,405 1004,399 1004,393 1004,386 1004,380 1004,374 1004,369 1004,366 1004,364 1004,363 1004,364 1004,366 1004,369 1004,373 1004,377 1004,380 1004,384 1004,388 1004,391 1004,394 1004,396 1004,399 1004,401 1004,402 1004,404 1004,405 1004,406 1004,406 1004,407 1004,407 1004,407 1004,406 1004,406 1004,405 1004,404 1004,403 1004,402 1004,400 1004,399 1004,397 1004,395 1004,393 1004,391 1004,389 1004,387 1004,385 1004,382 1004,380 1004,377 1004,374 1004,371 1004,368 1004,365 1004,362 1004,359 1004,356 1004,353 1004,350 1004,347 1004,344 1004,341 1004,338 1004,335 1004,333 1004,331 1004,329 1004,328 1004,327 1004,327 1004,327 1004,328 1004,329 1004,331 1004,333 1004,336 1004,338 1004,340 1004,343 1004,345 1004,348 1004,350 1004,352 1004,354 1004,356 1004,358 1004,359 1004,360 1004,361 1004,362 1004,363 1004,363 1004,363 1004,363 1004,363 1004,362 1004,361 1004,360 1004,359 1004,358 1004,356 1004,354 1004,352 1004,350 1004,347 1004,344 1004,341 1004,338 1004,335 1004,332 1004,329 1004,326 1004,323 1004,320 1004,317 1004,315 1004,314 1004,313 1004,312 1004,312 1004,313 1004,314 1004,315 1004,316 1004,318 1004,320 1004,321 1004,323 1004,325 1004,326 1004,327 1004,328 1004,329 1004,330 1004,330 1004,330 1004,330 1004,330 1004,329 1004,328 1004,327 1004,326 1004,325 1004,323 1004,321 1004,319 1004,317 1004,315 1004,312 1004,310 1004,307 1004,305 1004,302 1004,300 1004,298 1004,296 1004,295 1004,293 1004,293 1004,292 1004,292 1004,292 1004,293 1004,293 1004,294 1004,295 1004,296 1004,297 1004,298 1004,299 1004,300 1004,301 1004,301 1004,302 1004,302 1004,302 1004,302 1004,301 1004,301 1004,300 1004,299 1004,298 1004,297 1004,295 1004,294 1004,292 1004,290 1004,288 1004,286 1004,284 1004,281 1004,279 1004,277 1004,274 1004,272 1004,270 1004,268 1004,267 1004,265 1004,264 1004,263 1004,262 1004,261 1004,261 1004,261 1004,261 1004,261 1004,261 1004,261 1004,261 1004,262 1004,262 1004,262 1004,263 1004,263 1004,263 1004,263 1004,263 1004,263 1004,263 1004,263 1004,263 1004,263 1004,263 1004,263 1004,263 1004,263 1004,263 1004,263 1004,263 1004,263 1004,263 1004,264 1004,264 1004,264 1004,265 1004,265 1004,265 1004,266 1004,266 1004,266 1004,267 1004,267 1004,267 1004,268 1004,268 1004,268 1004,268 1004,268 1004,268 1004,268 1004,267 1004,267 1004,267 1004,266 1004,266 1004,265 1004,265 1004,264 1004,264 1004,263 1004,262 1004,262 1004,261 1004,261 1004,260 1004,259 1004,259 1004,258 1004,258 1004,258 1004,257 1004,257 1004,257 1004,256 1004,256 1004,256 1004,256 1004,256 1004,256 1004,256 1004,256 1004,256 1004,256 1004,256 1004,257 1004,257 1004,257 1004,258 1004,258 1004,258 1004,259 1004,259 1004,260 1004,260 1004,261 1004,262 1004,262 1004,263 1004,263 1004,264 1004,265 1004,265 1004,266 1004,266 1004,267 1004,267 1004,267 1004,268 1004,268 1004,268 1004,269 1004,269 1004,269 1004,269 1004,269 1004,269 1004,269 1004,269 1004,269 1004,269 1004,269 1004,269 1004,268 1004,268 1004,268 1004,268 1004,267 1004,267 1004,267 1004,266 1004,266 1004,266 1004,265 1004,265 1004,265 1004,265 1004,264 1004,264 1004,264 1004,264 1004,264 1004,264 1004,263 1004,263 1004,263 1004,263 1004,263 1004,263 1004,263 1004,263 1004,262 1004,262 1004,262 1004,262 1004,262 1004,262 1004,262 1004,262 1004,262 1004,261 1004,261 1004,261 1004,261 1004,261 1004,261 1004,261 1004,261 1004,261 1004,260 1004,260 1004,260 1004,260 1004,260 1004,260 1004,260 1004,260 1004,259 1004,259 1004,259 1004,259 1004,259 1004,259 1004,259 1004,259 1004,259 1004,258 1004,258 1004,258 1004,258 1004,258 1004,258 1004,258 1004,258 1004,258 1004,258 1004,258 1004,258 1004,258 1004,258 1004,258 1004,257 1004,257 1004,257 1004,257 1004,257 1004,257 1004,257 1004,257 1004,257 1004,257 1004,257 1004,257 1004,257 1004,257 1004,257 1004,257 1004,257 1004,257 1004,257 1004,257 1004,257 1004,257 1004,257 1004,257 1004,257 1004,257 1004,257 1004,257 1004,257 1004,257 1004,257 1004,257 1004,256 1004,256 1004,256 1004,256 1004,256 1004,256 1004,256 1004,256 1004,256 1004,256 1004,256 1004,256 1004,256 1004,256 1004,256 1004,256 1004,256 1004,256 1004,256 1004,256 1004,256 1004,256 1004,256 1004,256 1004,256 1004,256 1004,256 "/>
<rect x="514" y="25" width="485" height="157" opacity="0.8" fill="#FFFFFF" stroke="none"/>
<rect x="514" y="25" width="485" height="157" opacity="1" fill="none" stroke="#000000"/>
<text x="554" y="35" dy="0.76em" text-anchor="start" font-family="sans-serif" font-size="24.193548387096776" opacity="1" fill="#000000">
(1) log_power
</text>
<text x="554" y="73" dy="0.76em" text-anchor="start" font-family="sans-serif" font-size="24.193548387096776" opacity="1" fill="#000000">
(2) spectral_envelope by cepstrum
</text>
<text x="554" y="110" dy="0.76em" text-anchor="start" font-family="sans-serif" font-size="24.193548387096776" opacity="1" fill="#000000">
(3) spectral_envelope by levinson-durbin
</text>
<text x="554" y="148" dy="0.76em" text-anchor="start" font-family="sans-serif" font-size="24.193548387096776" opacity="1" fill="#000000">
(4) spectral_envelope by burg
</text>
<polyline fill="none" opacity="1" stroke="#E6194B" stroke-width="1" points="524,47 544,47 "/>
<polyline fill="none" opacity="1" stroke="#3CB44B" stroke-width="1" points="524,85 544,85 "/>
<polyline fill="none" opacity="1" stroke="#FFE119" stroke-width="1" points="524,122 544,122 "/>
<polyline fill="none" opacity="1" stroke="#0082C8" stroke-width="1" points="524,160 544,160 "/>
</svg>
