<svg width="1024" height="768" viewBox="0 0 1024 768" xmlns="http://www.w3.org/2000/svg">
<rect x="0" y="0" width="1024" height="768" opacity="1" fill="#FFFFFF" stroke="none"/>
<line opacity="0.1" stroke="#000000" stroke-width="1" x1="130" y1="657" x2="130" y2="20"/>
<line opacity="0.1" stroke="#000000" stroke-width="1" x1="140" y1="657" x2="140" y2="20"/>
<line opacity="0.1" stroke="#000000" stroke-width="1" x1="151" y1="657" x2="151" y2="20"/>
<line opacity="0.1" stroke="#000000" stroke-width="1" x1="162" y1="657" x2="162" y2="20"/>
<line opacity="0.1" stroke="#000000" stroke-width="1" x1="173" y1="657" x2="173" y2="20"/>
<line opacity="0.1" stroke="#000000" stroke-width="1" x1="184" y1="657" x2="184" y2="20"/>
<line opacity="0.1" stroke="#000000" stroke-width="1" x1="195" y1="657" x2="195" y2="20"/>
<line opacity="0.1" stroke="#000000" stroke-width="1" x1="206" y1="657" x2="206" y2="20"/>
<line opacity="0.1" stroke="#000000" stroke-width="1" x1="217" y1="657" x2="217" y2="20"/>
<line opacity="0.1" stroke="#000000" stroke-width="1" x1="228" y1="657" x2="228" y2="20"/>
<line opacity="0.1" stroke="#000000" stroke-width="1" x1="239" y1="657" x2="239" y2="20"/>
<line opacity="0.1" stroke="#000000" stroke-width="1" x1="250" y1="657" x2="250" y2="20"/>
<line opacity="0.1" stroke="#000000" stroke-width="1" x1="260" y1="657" x2="260" y2="20"/>
<line opacity="0.1" stroke="#000000" stroke-width="1" x1="271" y1="657" x2="271" y2="20"/>
<line opacity="0.1" stroke="#000000" stroke-width="1" x1="282" y1="657" x2="282" y2="20"/>
<line opacity="0.1" stroke="#000000" stroke-width="1" x1="293" y1="657" x2="293" y2="20"/>
<line opacity="0.1" stroke="#000000" stroke-width="1" x1="304" y1="657" x2="304" y2="20"/>
<line opacity="0.1" stroke="#000000" stroke-width="1" x1="315" y1="657" x2="315" y2="20"/>
<line opacity="0.1" stroke="#000000" stroke-width="1" x1="326" y1="657" x2="326" y2="20"/>
<line opacity="0.1" stroke="#000000" stroke-width="1" x1="337" y1="657" x2="337" y2="20"/>
<line opacity="0.1" stroke="#000000" stroke-width="1" x1="348" y1="657" x2="348" y2="20"/>
<line opacity="0.1" stroke="#000000" stroke-width="1" x1="359" y1="657" x2="359" y2="20"/>
<line opacity="0.1" stroke="#000000" stroke-width="1" x1="370" y1="657" x2="370" y2="20"/>
<line opacity="0.1" stroke="#000000" stroke-width="1" x1="380" y1="657" x2="380" y2="20"/>
<line opacity="0.1" stroke="#000000" stroke-width="1" x1="391" y1="657" x2="391" y2="20"/>
<line opacity="0.1" stroke="#000000" stroke-width="1" x1="402" y1="657" x2="402" y2="20"/>
<line opacity="0.1" stroke="#000000" stroke-width="1" x1="413" y1="657" x2="413" y2="20"/>
<line opacity="0.1" stroke="#000000" stroke-width="1" x1="424" y1="657" x2="424" y2="20"/>
<line opacity="0.1" stroke="#000000" stroke-width="1" x1="435" y1="657" x2="435" y2="20"/>
<line opacity="0.1" stroke="#000000" stroke-width="1" x1="446" y1="657" x2="446" y2="20"/>
<line opacity="0.1" stroke="#000000" stroke-width="1" x1="457" y1="657" x2="457" y2="20"/>
<line opacity="0.1" stroke="#000000" stroke-width="1" x1="468" y1="657" x2="468" y2="20"/>
<line opacity="0.1" stroke="#000000" stroke-width="1" x1="479" y1="657" x2="479" y2="20"/>
<line opacity="0.1" stroke="#000000" stroke-width="1" x1="490" y1="657" x2="490" y2="20"/>
<line opacity="0.1" stroke="#000000" stroke-width="1" x1="501" y1="657" x2="501" y2="20"/>
<line opacity="0.1" stroke="#000000" stroke-width="1" x1="511" y1="657" x2="511" y2="20"/>
<line opacity="0.1" stroke="#000000" stroke-width="1" x1="522" y1="657" x2="522" y2="20"/>
<line opacity="0.1" stroke="#000000" stroke-width="1" x1="533" y1="657" x2="533" y2="20"/>
<line opacity="0.1" stroke="#000000" stroke-width="1" x1="544" y1="657" x2="544" y2="20"/>
<line opacity="0.1" stroke="#000000" stroke-width="1" x1="555" y1="657" x2="555" y2="20"/>
<line opacity="0.1" stroke="#000000" stroke-width="1" x1="566" y1="657" x2="566" y2="20"/>
<line opacity="0.1" stroke="#000000" stroke-width="1" x1="577" y1="657" x2="577" y2="20"/>
<line opacity="0.1" stroke="#000000" stroke-width="1" x1="588" y1="657" x2="588" y2="20"/>
<line opacity="0.1" stroke="#000000" stroke-width="1" x1="599" y1="657" x2="599" y2="20"/>
<line opacity="0.1" stroke="#000000" stroke-width="1" x1="610" y1="657" x2="610" y2="20"/>
<line opacity="0.1" stroke="#000000" stroke-width="1" x1="621" y1="657" x2="621" y2="20"/>
<line opacity="0.1" stroke="#000000" stroke-width="1" x1="631" y1="657" x2="631" y2="20"/>
<line opacity="0.1" stroke="#000000" stroke-width="1" x1="642" y1="657" x2="642" y2="20"/>
<line opacity="0.1" stroke="#000000" stroke-width="1" x1="653" y1="657" x2="653" y2="20"/>
<line opacity="0.1" stroke="#000000" stroke-width="1" x1="664" y1="657" x2="664" y2="20"/>
<line opacity="0.1" stroke="#000000" stroke-width="1" x1="675" y1="657" x2="675" y2="20"/>
<line opacity="0.1" stroke="#000000" stroke-width="1" x1="686" y1="657" x2="686" y2="20"/>
<line opacity="0.1" stroke="#000000" stroke-width="1" x1="697" y1="657" x2="697" y2="20"/>
<line opacity="0.1" stroke="#000000" stroke-width="1" x1="708" y1="657" x2="708" y2="20"/>
<line opacity="0.1" stroke="#000000" stroke-width="1" x1="719" y1="657" x2="719" y2="20"/>
<line opacity="0.1" stroke="#000000" stroke-width="1" x1="730" y1="657" x2="730" y2="20"/>
<line opacity="0.1" stroke="#000000" stroke-width="1" x1="741" y1="657" x2="741" y2="20"/>
<line opacity="0.1" stroke="#000000" stroke-width="1" x1="752" y1="657" x2="752" y2="20"/>
<line opacity="0.1" stroke="#000000" stroke-width="1" x1="762" y1="657" x2="762" y2="20"/>
<line opacity="0.1" stroke="#000000" stroke-width="1" x1="773" y1="657" x2="773" y2="20"/>
<line opacity="0.1" stroke="#000000" stroke-width="1" x1="784" y1="657" x2="784" y2="20"/>
<line opacity="0.1" stroke="#000000" stroke-width="1" x1="795" y1="657" x2="795" y2="20"/>
<line opacity="0.1" stroke="#000000" stroke-width="1" x1="806" y1="657" x2="806" y2="20"/>
<line opacity="0.1" stroke="#000000" stroke-width="1" x1="817" y1="657" x2="817" y2="20"/>
<line opacity="0.1" stroke="#000000" stroke-width="1" x1="828" y1="657" x2="828" y2="20"/>
<line opacity="0.1" stroke="#000000" stroke-width="1" x1="839" y1="657" x2="839" y2="20"/>
<line opacity="0.1" stroke="#000000" stroke-width="1" x1="850" y1="657" x2="850" y2="20"/>
<line opacity="0.1" stroke="#000000" stroke-width="1" x1="861" y1="657" x2="861" y2="20"/>
<line opacity="0.1" stroke="#000000" stroke-width="1" x1="872" y1="657" x2="872" y2="20"/>
<line opacity="0.1" stroke="#000000" stroke-width="1" x1="882" y1="657" x2="882" y2="20"/>
<line opacity="0.1" stroke="#000000" stroke-width="1" x1="893" y1="657" x2="893" y2="20"/>
<line opacity="0.1" stroke="#000000" stroke-width="1" x1="904" y1="657" x2="904" y2="20"/>
<line opacity="0.1" stroke="#000000" stroke-width="1" x1="915" y1="657" x2="915" y2="20"/>
<line opacity="0.1" stroke="#000000" stroke-width="1" x1="926" y1="657" x2="926" y2="20"/>
<line opacity="0.1" stroke="#000000" stroke-width="1" x1="937" y1="657" x2="937" y2="20"/>
<line opacity="0.1" stroke="#000000" stroke-width="1" x1="948" y1="657" x2="948" y2="20"/>
<line opacity="0.1" stroke="#000000" stroke-width="1" x1="959" y1="657" x2="959" y2="20"/>
<line opacity="0.1" stroke="#000000" stroke-width="1" x1="970" y1="657" x2="970" y2="20"/>
<line opacity="0.1" stroke="#000000" stroke-width="1" x1="981" y1="657" x2="981" y2="20"/>
<line opacity="0.1" stroke="#000000" stroke-width="1" x1="992" y1="657" x2="992" y2="20"/>
<line opacity="0.1" stroke="#000000" stroke-width="1" x1="1003" y1="657" x2="1003" y2="20"/>
<line opacity="0.1" stroke="#000000" stroke-width="1" x1="130" y1="657" x2="1003" y2="657"/>
<line opacity="0.1" stroke="#000000" stroke-width="1" x1="130" y1="650" x2="1003" y2="650"/>
<line opacity="0.1" stroke="#000000" stroke-width="1" x1="130" y1="642" x2="1003" y2="642"/>
<line opacity="0.1" stroke="#000000" stroke-width="1" x1="130" y1="634" x2="1003" y2="634"/>
<line opacity="0.1" stroke="#000000" stroke-width="1" x1="130" y1="626" x2="1003" y2="626"/>
<line opacity="0.1" stroke="#000000" stroke-width="1" x1="130" y1="618" x2="1003" y2="618"/>
<line opacity="0.1" stroke="#000000" stroke-width="1" x1="130" y1="610" x2="1003" y2="610"/>
<line opacity="0.1" stroke="#000000" stroke-width="1" x1="130" y1="602" x2="1003" y2="602"/>
<line opacity="0.1" stroke="#000000" stroke-width="1" x1="130" y1="594" x2="1003" y2="594"/>
<line opacity="0.1" stroke="#000000" stroke-width="1" x1="130" y1="586" x2="1003" y2="586"/>
<line opacity="0.1" stroke="#000000" stroke-width="1" x1="130" y1="578" x2="1003" y2="578"/>
<line opacity="0.1" stroke="#000000" stroke-width="1" x1="130" y1="570" x2="1003" y2="570"/>
<line opacity="0.1" stroke="#000000" stroke-width="1" x1="130" y1="562" x2="1003" y2="562"/>
<line opacity="0.1" stroke="#000000" stroke-width="1" x1="130" y1="554" x2="1003" y2="554"/>
<line opacity="0.1" stroke="#000000" stroke-width="1" x1="130" y1="546" x2="1003" y2="546"/>
<line opacity="0.1" stroke="#000000" stroke-width="1" x1="130" y1="538" x2="1003" y2="538"/>
<line opacity="0.1" stroke="#000000" stroke-width="1" x1="130" y1="530" x2="1003" y2="530"/>
<line opacity="0.1" stroke="#000000" stroke-width="1" x1="130" y1="522" x2="1003" y2="522"/>
<line opacity="0.1" stroke="#000000" stroke-width="1" x1="130" y1="514" x2="1003" y2="514"/>
<line opacity="0.1" stroke="#000000" stroke-width="1" x1="130" y1="506" x2="1003" y2="506"/>
<line opacity="0.1" stroke="#000000" stroke-width="1" x1="130" y1="498" x2="1003" y2="498"/>
<line opacity="0.1" stroke="#000000" stroke-width="1" x1="130" y1="490" x2="1003" y2="490"/>
<line opacity="0.1" stroke="#000000" stroke-width="1" x1="130" y1="482" x2="1003" y2="482"/>
<line opacity="0.1" stroke="#000000" stroke-width="1" x1="130" y1="474" x2="1003" y2="474"/>
<line opacity="0.1" stroke="#000000" stroke-width="1" x1="130" y1="466" x2="1003" y2="466"/>
<line opacity="0.1" stroke="#000000" stroke-width="1" x1="130" y1="458" x2="1003" y2="458"/>
<line opacity="0.1" stroke="#000000" stroke-width="1" x1="130" y1="450" x2="1003" y2="450"/>
<line opacity="0.1" stroke="#000000" stroke-width="1" x1="130" y1="443" x2="1003" y2="443"/>
<line opacity="0.1" stroke="#000000" stroke-width="1" x1="130" y1="435" x2="1003" y2="435"/>
<line opacity="0.1" stroke="#000000" stroke-width="1" x1="130" y1="427" x2="1003" y2="427"/>
<line opacity="0.1" stroke="#000000" stroke-width="1" x1="130" y1="419" x2="1003" y2="419"/>
<line opacity="0.1" stroke="#000000" stroke-width="1" x1="130" y1="411" x2="1003" y2="411"/>
<line opacity="0.1" stroke="#000000" stroke-width="1" x1="130" y1="403" x2="1003" y2="403"/>
<line opacity="0.1" stroke="#000000" stroke-width="1" x1="130" y1="395" x2="1003" y2="395"/>
<line opacity="0.1" stroke="#000000" stroke-width="1" x1="130" y1="387" x2="1003" y2="387"/>
<line opacity="0.1" stroke="#000000" stroke-width="1" x1="130" y1="379" x2="1003" y2="379"/>
<line opacity="0.1" stroke="#000000" stroke-width="1" x1="130" y1="371" x2="1003" y2="371"/>
<line opacity="0.1" stroke="#000000" stroke-width="1" x1="130" y1="363" x2="1003" y2="363"/>
<line opacity="0.1" stroke="#000000" stroke-width="1" x1="130" y1="355" x2="1003" y2="355"/>
<line opacity="0.1" stroke="#000000" stroke-width="1" x1="130" y1="347" x2="1003" y2="347"/>
<line opacity="0.1" stroke="#000000" stroke-width="1" x1="130" y1="339" x2="1003" y2="339"/>
<line opacity="0.1" stroke="#000000" stroke-width="1" x1="130" y1="331" x2="1003" y2="331"/>
<line opacity="0.1" stroke="#000000" stroke-width="1" x1="130" y1="323" x2="1003" y2="323"/>
<line opacity="0.1" stroke="#000000" stroke-width="1" x1="130" y1="315" x2="1003" y2="315"/>
<line opacity="0.1" stroke="#000000" stroke-width="1" x1="130" y1="307" x2="1003" y2="307"/>
<line opacity="0.1" stroke="#000000" stroke-width="1" x1="130" y1="299" x2="1003" y2="299"/>
<line opacity="0.1" stroke="#000000" stroke-width="1" x1="130" y1="291" x2="1003" y2="291"/>
<line opacity="0.1" stroke="#000000" stroke-width="1" x1="130" y1="283" x2="1003" y2="283"/>
<line opacity="0.1" stroke="#000000" stroke-width="1" x1="130" y1="275" x2="1003" y2="275"/>
<line opacity="0.1" stroke="#000000" stroke-width="1" x1="130" y1="267" x2="1003" y2="267"/>
<line opacity="0.1" stroke="#000000" stroke-width="1" x1="130" y1="259" x2="1003" y2="259"/>
<line opacity="0.1" stroke="#000000" stroke-width="1" x1="130" y1="251" x2="1003" y2="251"/>
<line opacity="0.1" stroke="#000000" stroke-width="1" x1="130" y1="243" x2="1003" y2="243"/>
<line opacity="0.1" stroke="#000000" stroke-width="1" x1="130" y1="235" x2="1003" y2="235"/>
<line opacity="0.1" stroke="#000000" stroke-width="1" x1="130" y1="228" x2="1003" y2="228"/>
<line opacity="0.1" stroke="#000000" stroke-width="1" x1="130" y1="220" x2="1003" y2="220"/>
<line opacity="0.1" stroke="#000000" stroke-width="1" x1="130" y1="212" x2="1003" y2="212"/>
<line opacity="0.1" stroke="#000000" stroke-width="1" x1="130" y1="204" x2="1003" y2="204"/>
<line opacity="0.1" stroke="#000000" stroke-width="1" x1="130" y1="196" x2="1003" y2="196"/>
<line opacity="0.1" stroke="#000000" stroke-width="1" x1="130" y1="188" x2="1003" y2="188"/>
<line opacity="0.1" stroke="#000000" stroke-width="1" x1="130" y1="180" x2="1003" y2="180"/>
<line opacity="0.1" stroke="#000000" stroke-width="1" x1="130" y1="172" x2="1003" y2="172"/>
<line opacity="0.1" stroke="#000000" stroke-width="1" x1="130" y1="164" x2="1003" y2="164"/>
<line opacity="0.1" stroke="#000000" stroke-width="1" x1="130" y1="156" x2="1003" y2="156"/>
<line opacity="0.1" stroke="#000000" stroke-width="1" x1="130" y1="148" x2="1003" y2="148"/>
<line opacity="0.1" stroke="#000000" stroke-width="1" x1="130" y1="140" x2="1003" y2="140"/>
<line opacity="0.1" stroke="#000000" stroke-width="1" x1="130" y1="132" x2="1003" y2="132"/>
<line opacity="0.1" stroke="#000000" stroke-width="1" x1="130" y1="124" x2="1003" y2="124"/>
<line opacity="0.1" stroke="#000000" stroke-width="1" x1="130" y1="116" x2="1003" y2="116"/>
<line opacity="0.1" stroke="#000000" stroke-width="1" x1="130" y1="108" x2="1003" y2="108"/>
<line opacity="0.1" stroke="#000000" stroke-width="1" x1="130" y1="100" x2="1003" y2="100"/>
<line opacity="0.1" stroke="#000000" stroke-width="1" x1="130" y1="92" x2="1003" y2="92"/>
<line opacity="0.1" stroke="#000000" stroke-width="1" x1="130" y1="84" x2="1003" y2="84"/>
<line opacity="0.1" stroke="#000000" stroke-width="1" x1="130" y1="76" x2="1003" y2="76"/>
<line opacity="0.1" stroke="#000000" stroke-width="1" x1="130" y1="68" x2="1003" y2="68"/>
<line opacity="0.1" stroke="#000000" stroke-width="1" x1="130" y1="60" x2="1003" y2="60"/>
<line opacity="0.1" stroke="#000000" stroke-width="1" x1="130" y1="52" x2="1003" y2="52"/>
<line opacity="0.1" stroke="#000000" stroke-width="1" x1="130" y1="44" x2="1003" y2="44"/>
<line opacity="0.1" stroke="#000000" stroke-width="1" x1="130" y1="36" x2="1003" y2="36"/>
<line opacity="0.1" stroke="#000000" stroke-width="1" x1="130" y1="28" x2="1003" y2="28"/>
<line opacity="0.1" stroke="#000000" stroke-width="1" x1="130" y1="20" x2="1003" y2="20"/>
<text x="20" y="339" dy="0.76em" text-anchor="middle" font-family="sans-serif" font-size="24.193548387096776" opacity="1" fill="#000000" transform="rotate(270, 20, 339)">
Power [dB]
</text>
<text x="567" y="748" dy="-0.5ex" text-anchor="middle" font-family="sans-serif" font-size="24.193548387096776" opacity="1" fill="#000000">
Frequency [Hz]
</text>
<line opacity="0.2" stroke="#000000" stroke-width="1" x1="130" y1="657" x2="130" y2="20"/>
<line opacity="0.2" stroke="#000000" stroke-width="1" x1="239" y1="657" x2="239" y2="20"/>
<line opacity="0.2" stroke="#000000" stroke-width="1" x1="348" y1="657" x2="348" y2="20"/>
<line opacity="0.2" stroke="#000000" stroke-width="1" x1="457" y1="657" x2="457" y2="20"/>
<line opacity="0.2" stroke="#000000" stroke-width="1" x1="566" y1="657" x2="566" y2="20"/>
<line opacity="0.2" stroke="#000000" stroke-width="1" x1="675" y1="657" x2="675" y2="20"/>
<line opacity="0.2" stroke="#000000" stroke-width="1" x1="784" y1="657" x2="784" y2="20"/>
<line opacity="0.2" stroke="#000000" stroke-width="1" x1="893" y1="657" x2="893" y2="20"/>
<line opacity="0.2" stroke="#000000" stroke-width="1" x1="1003" y1="657" x2="1003" y2="20"/>
<line opacity="0.2" stroke="#000000" stroke-width="1" x1="130" y1="657" x2="1003" y2="657"/>
<line opacity="0.2" stroke="#000000" stroke-width="1" x1="130" y1="578" x2="1003" y2="578"/>
<line opacity="0.2" stroke="#000000" stroke-width="1" x1="130" y1="498" x2="1003" y2="498"/>
<line opacity="0.2" stroke="#000000" stroke-width="1" x1="130" y1="419" x2="1003" y2="419"/>
<line opacity="0.2" stroke="#000000" stroke-width="1" x1="130" y1="339" x2="1003" y2="339"/>
<line opacity="0.2" stroke="#000000" stroke-width="1" x1="130" y1="259" x2="1003" y2="259"/>
<line opacity="0.2" stroke="#000000" stroke-width="1" x1="130" y1="180" x2="1003" y2="180"/>
<line opacity="0.2" stroke="#000000" stroke-width="1" x1="130" y1="100" x2="1003" y2="100"/>
<line opacity="0.2" stroke="#000000" stroke-width="1" x1="130" y1="20" x2="1003" y2="20"/>
<polyline fill="none" opacity="1" stroke="#000000" stroke-width="1" points="129,20 129,657 "/>
<text x="120" y="657" dy="0.5ex" text-anchor="end" font-family="sans-serif" font-size="24.193548387096776" opacity="1" fill="#000000">
-60.0
</text>
<polyline fill="none" opacity="1" stroke="#000000" stroke-width="1" points="124,657 129,657 "/>
<text x="120" y="578" dy="0.5ex" text-anchor="end" font-family="sans-serif" font-size="24.193548387096776" opacity="1" fill="#000000">
-50.0
</text>
<polyline fill="none" opacity="1" stroke="#000000" stroke-width="1" points="124,578 129,578 "/>
<text x="120" y="498" dy="0.5ex" text-anchor="end" font-family="sans-serif" font-size="24.193548387096776" opacity="1" fill="#000000">
-40.0
</text>
<polyline fill="none" opacity="1" stroke="#000000" stroke-width="1" points="124,498 129,498 "/>
<text x="120" y="419" dy="0.5ex" text-anchor="end" font-family="sans-serif" font-size="24.193548387096776" opacity="1" fill="#000000">
-30.0
</text>
<polyline fill="none" opacity="1" stroke="#000000" stroke-width="1" points="124,419 129,419 "/>
<text x="120" y="339" dy="0.5ex" text-anchor="end" font-family="sans-serif" font-size="24.193548387096776" opacity="1" fill="#000000">
-20.0
</text>
<polyline fill="none" opacity="1" stroke="#000000" stroke-width="1" points="124,339 129,339 "/>
<text x="120" y="259" dy="0.5ex" text-anchor="end" font-family="sans-serif" font-size="24.193548387096776" opacity="1" fill="#000000">
-10.0
</text>
<polyline fill="none" opacity="1" stroke="#000000" stroke-width="1" points="124,259 129,259 "/>
<text x="120" y="180" dy="0.5ex" text-anchor="end" font-family="sans-serif" font-size="24.193548387096776" opacity="1" fill="#000000">
0.0
</text>
<polyline fill="none" opacity="1" stroke="#000000" stroke-width="1" points="124,180 129,180 "/>
<text x="120" y="100" dy="0.5ex" text-anchor="end" font-family="sans-serif" font-size="24.193548387096776" opacity="1" fill="#000000">
10.0
</text>
<polyline fill="none" opacity="1" stroke="#000000" stroke-width="1" points="124,100 129,100 "/>
<text x="120" y="20" dy="0.5ex" text-anchor="end" font-family="sans-serif" font-size="24.193548387096776" opacity="1" fill="#000000">
20.0
</text>
<polyline fill="none" opacity="1" stroke="#000000" stroke-width="1" points="124,20 129,20 "/>
<polyline fill="none" opacity="1" stroke="#000000" stroke-width="1" points="130,658 1003,658 "/>
<text x="130" y="668" dy="0.76em" text-anchor="middle" font-family="sans-serif" font-size="24.193548387096776" opacity="1" fill="#000000">
0.0
</text>
<polyline fill="none" opacity="1" stroke="#000000" stroke-width="1" points="130,658 130,663 "/>
<text x="239" y="668" dy="0.76em" text-anchor="middle" font-family="sans-serif" font-size="24.193548387096776" opacity="1" fill="#000000">
1000.0
</text>
<polyline fill="none" opacity="1" stroke="#000000" stroke-width="1" points="239,658 239,663 "/>
<text x="348" y="668" dy="0.76em" text-anchor="middle" font-family="sans-serif" font-size="24.193548387096776" opacity="1" fill="#000000">
2000.0
</text>
<polyline fill="none" opacity="1" stroke="#000000" stroke-width="1" points="348,658 348,663 "/>
<text x="457" y="668" dy="0.76em" text-anchor="middle" font-family="sans-serif" font-size="24.193548387096776" opacity="1" fill="#000000">
3000.0
</text>
<polyline fill="none" opacity="1" stroke="#000000" stroke-width="1" points="457,658 457,663 "/>
<text x="566" y="668" dy="0.76em" text-anchor="middle" font-family="sans-serif" font-size="24.193548387096776" opacity="1" fill="#000000">
4000.0
</text>
<polyline fill="none" opacity="1" stroke="#000000" stroke-width="1" points="566,658 566,663 "/>
<text x="675" y="668" dy="0.76em" text-anchor="middle" font-family="sans-serif" font-size="24.193548387096776" opacity="1" fill="#000000">
5000.0
</text>
<polyline fill="none" opacity="1" stroke="#000000" stroke-width="1" points="675,658 675,663 "/>
<text x="784" y="668" dy="0.76em" text-anchor="middle" font-family="sans-serif" font-size="24.193548387096776" opacity="1" fill="#000000">
6000.0
</text>
<polyline fill="none" opacity="1" stroke="#000000" stroke-width="1" points="784,658 784,663 "/>
<text x="893" y="668" dy="0.76em" text-anchor="middle" font-family="sans-serif" font-size="24.193548387096776" opacity="1" fill="#000000">
7000.0
</text>
<polyline fill="none" opacity="1" stroke="#000000" stroke-width="1" points="893,658 893,663 "/>
<text x="1003" y="668" dy="0.76em" text-anchor="middle" font-family="sans-serif" font-size="24.193548387096776" opacity="1" fill="#000000">
8000.0
</text>
<polyline fill="none" opacity="1" stroke="#000000" stroke-width="1" points="1003,658 1003,663 "/>
<polyline fill="none" opacity="1" stroke="#E6194B" stroke-width="1" points="130,243 131,231 133,254 134,267 136,226 137,236 139,265 140,266 142,200 143,185 145,216 146,194 148,154 149,135 151,136 152,161 154,222 155,214 157,243 158,193 160,191 161,271 163,182 164,223 166,184 167,171 169,149 170,177 172,141 173,120 175,138 176,174 178,199 180,200 181,211 183,214 184,177 186,168 187,196 189,162 190,139 192,103 193,106 195,90 196,71 198,80 199,110 201,197 202,168 204,180 205,243 207,214 208,209 210,178 211,176 213,155 214,153 216,149 217,103 219,95 220,113 222,156 223,157 225,164 227,172 228,181 230,275 231,177 233,172 234,167 236,163 237,186 239,173 240,153 242,149 243,146 245,148 246,171 248,176 249,184 251,211 252,191 254,222 255,207 257,189 258,196 260,201 261,188 263,202 264,216 266,228 267,213 269,211 270,215 272,290 273,227 275,212 277,223 278,208 280,204 281,235 283,215 284,229 286,238 287,232 289,209 290,198 292,207 293,255 295,277 296,284 298,269 299,281 301,224 302,220 304,248 305,218 307,237 308,249 310,253 311,242 313,225 314,209 316,206 317,223 319,256 320,299 322,280 324,256 325,252 327,265 328,275 330,243 331,266 333,298 334,278 336,265 337,275 339,253 340,248 342,276 343,295 345,254 346,236 348,308 349,265 351,278 352,263 354,289 355,266 357,267 358,280 360,271 361,277 363,285 364,273 366,275 367,268 369,245 370,249 372,251 374,233 375,235 377,263 378,339 380,260 381,244 383,256 384,259 386,285 387,250 389,256 390,271 392,282 393,274 395,246 396,241 398,244 399,239 401,235 402,234 404,231 405,241 407,312 408,333 410,241 411,249 413,236 414,235 416,202 417,183 419,183 421,200 422,212 424,197 425,213 427,207 428,216 430,285 431,245 433,211 434,225 436,272 437,238 439,213 440,217 442,251 443,254 445,270 446,290 448,305 449,282 451,276 452,279 454,270 455,256 457,270 458,285 460,321 461,251 463,235 464,229 466,260 467,240 469,245 471,245 472,241 474,275 475,293 477,237 478,226 480,241 481,255 483,218 484,208 486,221 487,236 489,263 490,233 492,238 493,222 495,264 496,237 498,247 499,245 501,243 502,247 504,219 505,204 507,208 508,216 510,246 511,233 513,227 514,265 516,227 518,251 519,261 521,293 522,264 524,303 525,258 527,268 528,287 530,353 531,353 533,340 534,344 536,357 537,348 539,346 540,316 542,291 543,288 545,301 546,293 548,301 549,285 551,265 552,273 554,319 555,299 557,294 558,311 560,303 561,322 563,343 564,300 566,313 568,366 569,357 571,318 572,300 574,287 575,287 577,303 578,310 580,308 581,345 583,314 584,331 586,324 587,327 589,306 590,306 592,313 593,279 595,280 596,303 598,408 599,390 601,352 602,365 604,366 605,354 607,320 608,300 610,301 611,351 613,347 615,330 616,335 618,358 619,353 621,330 622,340 624,378 625,347 627,327 628,309 630,302 631,310 633,331 634,418 636,366 637,380 639,332 640,369 642,327 643,313 645,312 646,312 648,318 649,360 651,386 652,426 654,404 655,324 657,297 658,317 660,338 661,325 663,346 665,321 666,316 668,315 669,343 671,414 672,394 674,396 675,388 677,390 678,425 680,387 681,411 683,366 684,356 686,364 687,373 689,359 690,353 692,397 693,394 695,344 696,348 698,360 699,384 701,421 702,396 704,382 705,331 707,308 708,316 710,346 712,366 713,357 715,395 716,357 718,332 719,332 721,346 722,346 724,355 725,392 727,433 728,359 730,342 731,375 733,343 734,317 736,308 737,312 739,334 740,367 742,399 743,382 745,349 746,354 748,419 749,440 751,398 752,395 754,408 755,515 757,435 758,451 760,420 762,408 763,421 765,432 766,434 768,420 769,398 771,410 772,423 774,393 775,404 777,411 778,354 780,357 781,397 783,437 784,415 786,408 787,474 789,344 790,328 792,342 793,388 795,459 796,445 798,438 799,486 801,504 802,495 804,490 805,453 807,458 809,397 810,378 812,437 813,452 815,347 816,329 818,345 819,388 821,392 822,394 824,439 825,429 827,455 828,405 830,416 831,414 833,435 834,447 836,408 837,389 839,394 840,399 842,457 843,364 845,354 846,371 848,418 849,453 851,422 852,434 854,469 855,461 857,444 859,417 860,410 862,385 863,385 865,417 866,448 868,430 869,418 871,421 872,414 874,401 875,426 877,424 878,416 880,441 881,446 883,430 884,427 886,431 887,440 889,427 890,412 892,367 893,353 895,354 896,374 898,451 899,439 901,436 902,420 904,411 906,448 907,420 909,392 910,396 912,423 913,484 915,491 916,486 918,460 919,423 921,421 922,448 924,441 925,419 927,436 928,456 930,445 931,451 933,460 934,450 936,426 937,434 939,450 940,464 942,474 943,485 945,550 946,498 948,480 949,503 951,489 952,458 954,446 956,444 957,457 959,599 960,472 962,523 963,476 965,444 966,419 968,465 969,418 971,404 972,371 974,387 975,478 977,446 978,388 980,378 981,391 983,397 984,394 986,387 987,383 989,402 990,416 992,433 993,473 995,471 996,466 998,452 999,458 1001,464 1003,466 1004,464 1004,458 1004,452 1004,466 1004,471 1004,473 1004,433 1004,416 1004,402 1004,383 1004,387 1004,394 1004,397 1004,391 1004,378 1004,388 1004,446 1004,478 1004,387 1004,371 1004,404 1004,418 1004,465 1004,419 1004,444 1004,476 1004,523 1004,472 1004,599 1004,457 1004,444 1004,446 1004,458 1004,489 1004,503 1004,480 1004,498 1004,550 1004,485 1004,474 1004,464 1004,450 1004,434 1004,426 1004,450 1004,460 1004,451 1004,445 1004,456 1004,436 1004,419 1004,441 1004,448 1004,421 1004,423 1004,460 1004,486 1004,491 1004,484 1004,423 1004,396 1004,392 1004,420 1004,448 1004,411 1004,420 1004,436 1004,439 1004,451 1004,374 1004,354 1004,353 1004,367 1004,412 1004,427 1004,440 1004,431 1004,427 1004,430 1004,446 1004,441 1004,416 1004,424 1004,426 1004,401 1004,414 1004,421 1004,418 1004,430 1004,448 1004,417 1004,385 1004,385 1004,410 1004,417 1004,444 1004,461 1004,469 1004,434 1004,422 1004,453 1004,418 1004,371 1004,354 1004,364 1004,457 1004,399 1004,394 1004,389 1004,408 1004,447 1004,435 1004,414 1004,416 1004,405 1004,455 1004,429 1004,439 1004,394 1004,392 1004,388 1004,345 1004,329 1004,347 1004,452 1004,437 1004,378 1004,397 1004,458 1004,453 1004,490 1004,495 1004,504 1004,486 1004,438 1004,445 1004,459 1004,388 1004,342 1004,328 1004,344 1004,474 1004,408 1004,415 1004,437 1004,397 1004,357 1004,354 1004,411 1004,404 1004,393 1004,423 1004,410 1004,398 1004,420 1004,434 1004,432 1004,421 1004,408 1004,420 1004,451 1004,435 1004,515 1004,408 1004,395 1004,398 1004,440 1004,419 1004,354 1004,349 1004,382 1004,399 1004,367 1004,334 1004,312 1004,308 1004,317 1004,343 1004,375 1004,342 1004,359 1004,433 1004,392 1004,355 1004,346 1004,346 1004,332 1004,332 1004,357 1004,395 1004,357 1004,366 1004,346 1004,316 1004,308 1004,331 1004,382 1004,396 1004,421 1004,384 1004,360 1004,348 1004,344 1004,394 1004,397 1004,353 1004,359 1004,373 1004,364 1004,356 1004,366 1004,411 1004,387 1004,425 1004,390 1004,388 1004,396 1004,394 1004,414 1004,343 1004,315 1004,316 1004,321 1004,346 1004,325 1004,338 1004,317 1004,297 1004,324 1004,404 1004,426 1004,386 1004,360 1004,318 1004,312 1004,312 1004,313 1004,327 1004,369 1004,332 1004,380 1004,366 1004,418 1004,331 1004,310 1004,302 1004,309 1004,327 1004,347 1004,378 1004,340 1004,330 1004,353 1004,358 1004,335 1004,330 1004,347 1004,351 1004,301 1004,300 1004,320 1004,354 1004,366 1004,365 1004,352 1004,390 1004,408 1004,303 1004,280 1004,279 1004,313 1004,306 1004,306 1004,327 1004,324 1004,331 1004,314 1004,345 1004,308 1004,310 1004,303 1004,287 1004,287 1004,300 1004,318 1004,357 1004,366 1004,313 1004,300 1004,343 1004,322 1004,303 1004,311 1004,294 1004,299 1004,319 1004,273 1004,265 1004,285 1004,301 1004,293 1004,301 1004,288 1004,291 1004,316 1004,346 1004,348 1004,357 1004,344 1004,340 1004,353 1004,353 1004,287 1004,268 1004,258 1004,303 1004,264 1004,293 1004,261 1004,251 1004,227 1004,265 1004,227 1004,233 1004,246 1004,216 1004,208 1004,204 1004,219 1004,247 1004,243 1004,245 1004,247 1004,237 1004,264 1004,222 1004,238 1004,233 1004,263 1004,236 1004,221 1004,208 1004,218 1004,255 1004,241 1004,226 1004,237 1004,293 1004,275 1004,241 1004,245 1004,245 1004,240 1004,260 1004,229 1004,235 1004,251 1004,321 1004,285 1004,270 1004,256 1004,270 1004,279 1004,276 1004,282 1004,305 1004,290 1004,270 1004,254 1004,251 1004,217 1004,213 1004,238 1004,272 1004,225 1004,211 1004,245 1004,285 1004,216 1004,207 1004,213 1004,197 1004,212 1004,200 1004,183 1004,183 1004,202 1004,235 1004,236 1004,249 1004,241 1004,333 1004,312 1004,241 1004,231 1004,234 1004,235 1004,239 1004,244 1004,241 1004,246 1004,274 1004,282 1004,271 1004,256 1004,250 1004,285 1004,259 1004,256 1004,244 1004,260 1004,339 1004,263 1004,235 1004,233 1004,251 1004,249 1004,245 1004,268 1004,275 1004,273 1004,285 1004,277 1004,271 1004,280 1004,267 1004,266 1004,289 1004,263 1004,278 1004,265 1004,308 1004,236 1004,254 1004,295 1004,276 1004,248 1004,253 1004,275 1004,265 1004,278 1004,298 1004,266 1004,243 1004,275 1004,265 1004,252 1004,256 1004,280 1004,299 1004,256 1004,223 1004,206 1004,209 1004,225 1004,242 1004,253 1004,249 1004,237 1004,218 1004,248 1004,220 1004,224 1004,281 1004,269 1004,284 1004,277 1004,255 1004,207 1004,198 1004,209 1004,232 1004,238 1004,229 1004,215 1004,235 1004,204 1004,208 1004,223 1004,212 1004,227 1004,290 1004,215 1004,211 1004,213 1004,228 1004,216 1004,202 1004,188 1004,201 1004,196 1004,189 1004,207 1004,222 1004,191 1004,211 1004,184 1004,176 1004,171 1004,148 1004,146 1004,149 1004,153 1004,173 1004,186 1004,163 1004,167 1004,172 1004,177 1004,275 1004,181 1004,172 1004,164 1004,157 1004,156 1004,113 1004,95 1004,103 1004,149 1004,153 1004,155 1004,176 1004,178 1004,209 1004,214 1004,243 1004,180 1004,168 1004,197 1004,110 1004,80 1004,71 1004,90 1004,106 1004,103 1004,139 1004,162 1004,196 1004,168 1004,177 1004,214 1004,211 1004,200 1004,199 1004,174 1004,138 1004,120 1004,141 1004,177 1004,149 1004,171 1004,184 1004,223 1004,182 1004,271 1004,191 1004,193 1004,243 1004,214 1004,222 1004,161 1004,136 1004,135 1004,154 1004,194 1004,216 1004,185 1004,200 1004,266 1004,265 1004,236 1004,226 1004,267 1004,254 1004,231 "/>
<polyline fill="none" opacity="1" stroke="#3CB44B" stroke-width="1" points="130,270 131,270 133,270 134,270 136,270 137,269 139,269 140,268 142,268 143,267 145,266 146,265 148,265 149,264 151,263 152,261 154,260 155,259 157,258 158,256 160,255 161,253 163,252 164,250 166,249 167,247 169,246 170,245 172,243 173,242 175,240 176,239 178,238 180,237 181,236 183,236 184,235 186,235 187,234 189,234 190,234 192,234 193,234 195,235 196,235 198,235 199,236 201,237 202,237 204,238 205,238 207,239 208,240 210,240 211,241 213,242 214,242 216,243 217,243 219,244 220,244 222,245 223,246 225,246 227,247 228,248 230,248 231,249 233,250 234,251 236,252 237,253 239,254 240,256 242,257 243,258 245,260 246,261 248,263 249,264 251,266 252,267 254,269 255,270 257,272 258,273 260,274 261,276 263,277 264,278 266,279 267,280 269,281 270,281 272,282 273,283 275,283 277,284 278,284 280,284 281,284 283,285 284,285 286,285 287,285 289,285 290,285 292,285 293,285 295,285 296,285 298,286 299,286 301,286 302,287 304,287 305,288 307,288 308,289 310,290 311,291 313,291 314,292 316,293 317,294 319,295 320,295 322,296 324,297 325,298 327,298 328,299 330,299 331,299 333,300 334,300 336,300 337,300 339,300 340,300 342,300 343,300 345,299 346,299 348,299 349,298 351,298 352,298 354,297 355,297 357,297 358,296 360,296 361,296 363,296 364,295 366,295 367,295 369,295 370,295 372,295 374,295 375,295 377,295 378,295 380,294 381,294 383,294 384,294 386,293 387,293 389,292 390,292 392,291 393,290 395,289 396,288 398,287 399,286 401,285 402,284 404,283 405,282 407,280 408,279 410,279 411,278 413,277 414,277 416,276 417,276 419,276 421,277 422,277 424,278 425,279 427,280 428,281 430,282 431,284 433,286 434,287 436,289 437,291 439,292 440,294 442,295 443,297 445,298 446,299 448,300 449,301 451,302 452,302 454,303 455,303 457,303 458,302 460,302 461,301 463,300 464,299 466,298 467,297 469,295 471,294 472,292 474,291 475,289 477,288 478,286 480,285 481,284 483,283 484,282 486,282 487,282 489,282 490,282 492,283 493,284 495,285 496,286 498,288 499,290 501,292 502,294 504,297 505,299 507,302 508,304 510,307 511,309 513,312 514,314 516,316 518,318 519,320 521,322 522,323 524,325 525,326 527,327 528,328 530,329 531,330 533,330 534,331 536,331 537,331 539,331 540,331 542,331 543,330 545,330 546,329 548,329 549,329 551,328 552,328 554,327 555,327 557,326 558,326 560,326 561,326 563,326 564,326 566,326 568,326 569,326 571,326 572,327 574,327 575,328 577,328 578,329 580,330 581,330 583,331 584,332 586,332 587,333 589,334 590,335 592,335 593,336 595,337 596,337 598,338 599,339 601,339 602,340 604,340 605,340 607,341 608,341 610,341 611,341 613,341 615,341 616,341 618,341 619,341 621,341 622,340 624,340 625,340 627,339 628,339 630,339 631,339 633,338 634,338 636,338 637,338 639,338 640,338 642,338 643,338 645,338 646,338 648,339 649,339 651,340 652,341 654,341 655,342 657,343 658,344 660,345 661,346 663,347 665,348 666,349 668,350 669,351 671,352 672,353 674,354 675,354 677,355 678,355 680,356 681,356 683,356 684,356 686,355 687,355 689,354 690,354 692,353 693,352 695,351 696,350 698,349 699,348 701,347 702,346 704,344 705,343 707,342 708,341 710,341 712,340 713,339 715,339 716,339 718,339 719,339 721,340 722,340 724,341 725,342 727,343 728,345 730,346 731,348 733,349 734,351 736,353 737,355 739,357 740,358 742,360 743,362 745,363 746,365 748,366 749,368 751,369 752,370 754,371 755,371 757,372 758,372 760,373 762,373 763,373 765,373 766,373 768,372 769,372 771,372 772,371 774,371 775,371 777,370 778,370 780,370 781,369 783,369 784,369 786,369 787,369 789,369 790,369 792,369 793,369 795,369 796,369 798,370 799,370 801,370 802,370 804,371 805,371 807,371 809,371 810,371 812,371 813,371 815,370 816,370 818,370 819,369 821,369 822,369 824,368 825,367 827,367 828,366 830,366 831,365 833,365 834,364 836,364 837,364 839,364 840,364 842,364 843,364 845,364 846,364 848,365 849,365 851,366 852,366 854,367 855,368 857,369 859,369 860,370 862,371 863,371 865,372 866,372 868,373 869,373 871,373 872,373 874,373 875,373 877,372 878,372 880,372 881,371 883,370 884,370 886,369 887,368 889,367 890,366 892,366 893,365 895,365 896,364 898,364 899,364 901,364 902,364 904,365 906,366 907,366 909,368 910,369 912,370 913,372 915,374 916,376 918,377 919,379 921,381 922,383 924,385 925,387 927,389 928,391 930,392 931,394 933,395 934,396 936,397 937,397 939,398 940,398 942,398 943,398 945,397 946,397 948,396 949,395 951,393 952,392 954,391 956,389 957,388 959,386 960,384 962,383 963,381 965,379 966,378 968,376 969,375 971,374 972,373 974,372 975,371 977,371 978,370 980,370 981,370 983,370 984,370 986,370 987,371 989,371 990,371 992,372 993,372 995,372 996,373 998,373 999,373 1001,373 1003,373 1004,373 1004,373 1004,373 1004,373 1004,372 1004,372 1004,372 1004,371 1004,371 1004,371 1004,370 1004,370 1004,370 1004,370 1004,370 1004,370 1004,371 1004,371 1004,372 1004,373 1004,374 1004,375 1004,376 1004,378 1004,379 1004,381 1004,383 1004,384 1004,386 1004,388 1004,389 1004,391 1004,392 1004,393 1004,395 1004,396 1004,397 1004,397 1004,398 1004,398 1004,398 1004,398 1004,397 1004,397 1004,396 1004,395 1004,394 1004,392 1004,391 1004,389 1004,387 1004,385 1004,383 1004,381 1004,379 1004,377 1004,376 1004,374 1004,372 1004,370 1004,369 1004,368 1004,366 1004,366 1004,365 1004,364 1004,364 1004,364 1004,364 1004,364 1004,365 1004,365 1004,366 1004,366 1004,367 1004,368 1004,369 1004,370 1004,370 1004,371 1004,372 1004,372 1004,372 1004,373 1004,373 1004,373 1004,373 1004,373 1004,373 1004,372 1004,372 1004,371 1004,371 1004,370 1004,369 1004,369 1004,368 1004,367 1004,366 1004,366 1004,365 1004,365 1004,364 1004,364 1004,364 1004,364 1004,364 1004,364 1004,364 1004,364 1004,364 1004,365 1004,365 1004,366 1004,366 1004,367 1004,367 1004,368 1004,369 1004,369 1004,369 1004,370 1004,370 1004,370 1004,371 1004,371 1004,371 1004,371 1004,371 1004,371 1004,371 1004,370 1004,370 1004,370 1004,370 1004,369 1004,369 1004,369 1004,369 1004,369 1004,369 1004,369 1004,369 1004,369 1004,369 1004,369 1004,370 1004,370 1004,370 1004,371 1004,371 1004,371 1004,372 1004,372 1004,372 1004,373 1004,373 1004,373 1004,373 1004,373 1004,372 1004,372 1004,371 1004,371 1004,370 1004,369 1004,368 1004,366 1004,365 1004,363 1004,362 1004,360 1004,358 1004,357 1004,355 1004,353 1004,351 1004,349 1004,348 1004,346 1004,345 1004,343 1004,342 1004,341 1004,340 1004,340 1004,339 1004,339 1004,339 1004,339 1004,339 1004,340 1004,341 1004,341 1004,342 1004,343 1004,344 1004,346 1004,347 1004,348 1004,349 1004,350 1004,351 1004,352 1004,353 1004,354 1004,354 1004,355 1004,355 1004,356 1004,356 1004,356 1004,356 1004,355 1004,355 1004,354 1004,354 1004,353 1004,352 1004,351 1004,350 1004,349 1004,348 1004,347 1004,346 1004,345 1004,344 1004,343 1004,342 1004,341 1004,341 1004,340 1004,339 1004,339 1004,338 1004,338 1004,338 1004,338 1004,338 1004,338 1004,338 1004,338 1004,338 1004,338 1004,339 1004,339 1004,339 1004,339 1004,340 1004,340 1004,340 1004,341 1004,341 1004,341 1004,341 1004,341 1004,341 1004,341 1004,341 1004,341 1004,341 1004,340 1004,340 1004,340 1004,339 1004,339 1004,338 1004,337 1004,337 1004,336 1004,335 1004,335 1004,334 1004,333 1004,332 1004,332 1004,331 1004,330 1004,330 1004,329 1004,328 1004,328 1004,327 1004,327 1004,326 1004,326 1004,326 1004,326 1004,326 1004,326 1004,326 1004,326 1004,326 1004,326 1004,327 1004,327 1004,328 1004,328 1004,329 1004,329 1004,329 1004,330 1004,330 1004,331 1004,331 1004,331 1004,331 1004,331 1004,331 1004,330 1004,330 1004,329 1004,328 1004,327 1004,326 1004,325 1004,323 1004,322 1004,320 1004,318 1004,316 1004,314 1004,312 1004,309 1004,307 1004,304 1004,302 1004,299 1004,297 1004,294 1004,292 1004,290 1004,288 1004,286 1004,285 1004,284 1004,283 1004,282 1004,282 1004,282 1004,282 1004,282 1004,283 1004,284 1004,285 1004,286 1004,288 1004,289 1004,291 1004,292 1004,294 1004,295 1004,297 1004,298 1004,299 1004,300 1004,301 1004,302 1004,302 1004,303 1004,303 1004,303 1004,302 1004,302 1004,301 1004,300 1004,299 1004,298 1004,297 1004,295 1004,294 1004,292 1004,291 1004,289 1004,287 1004,286 1004,284 1004,282 1004,281 1004,280 1004,279 1004,278 1004,277 1004,277 1004,276 1004,276 1004,276 1004,277 1004,277 1004,278 1004,279 1004,279 1004,280 1004,282 1004,283 1004,284 1004,285 1004,286 1004,287 1004,288 1004,289 1004,290 1004,291 1004,292 1004,292 1004,293 1004,293 1004,294 1004,294 1004,294 1004,294 1004,295 1004,295 1004,295 1004,295 1004,295 1004,295 1004,295 1004,295 1004,295 1004,295 1004,296 1004,296 1004,296 1004,296 1004,297 1004,297 1004,297 1004,298 1004,298 1004,298 1004,299 1004,299 1004,299 1004,300 1004,300 1004,300 1004,300 1004,300 1004,300 1004,300 1004,300 1004,299 1004,299 1004,299 1004,298 1004,298 1004,297 1004,296 1004,295 1004,295 1004,294 1004,293 1004,292 1004,291 1004,291 1004,290 1004,289 1004,288 1004,288 1004,287 1004,287 1004,286 1004,286 1004,286 1004,285 1004,285 1004,285 1004,285 1004,285 1004,285 1004,285 1004,285 1004,285 1004,285 1004,284 1004,284 1004,284 1004,284 1004,283 1004,283 1004,282 1004,281 1004,281 1004,280 1004,279 1004,278 1004,277 1004,276 1004,274 1004,273 1004,272 1004,270 1004,269 1004,267 1004,266 1004,264 1004,263 1004,261 1004,260 1004,258 1004,257 1004,256 1004,254 1004,253 1004,252 1004,251 1004,250 1004,249 1004,248 1004,248 1004,247 1004,246 1004,246 1004,245 1004,244 1004,244 1004,243 1004,243 1004,242 1004,242 1004,241 1004,240 1004,240 1004,239 1004,238 1004,238 1004,237 1004,237 1004,236 1004,235 1004,235 1004,235 1004,234 1004,234 1004,234 1004,234 1004,234 1004,235 1004,235 1004,236 1004,236 1004,237 1004,238 1004,239 1004,240 1004,242 1004,243 1004,245 1004,246 1004,247 1004,249 1004,250 1004,252 1004,253 1004,255 1004,256 1004,258 1004,259 1004,260 1004,261 1004,263 1004,264 1004,265 1004,265 1004,266 1004,267 1004,268 1004,268 1004,269 1004,269 1004,270 1004,270 1004,270 1004,270 "/>
<polyline fill="none" opacity="1" stroke="#FFE119" stroke-width="1" points="130,450 131,450 133,450 134,450 136,450 137,450 139,450 140,450 142,450 143,450 145,451 146,451 148,451 149,451 151,451 152,451 154,451 155,451 157,451 158,451 160,451 161,451 163,451 164,451 166,451 167,451 169,451 170,451 172,451 173,451 175,451 176,451 178,451 180,451 181,451 183,451 184,451 186,451 187,451 189,451 190,451 192,451 193,452 195,452 196,452 198,452 199,452 201,452 202,452 204,452 205,452 207,452 208,452 210,452 211,452 213,452 214,452 216,452 217,452 219,452 220,452 222,452 223,452 225,452 227,452 228,452 230,452 231,452 233,452 234,452 236,452 237,452 239,452 240,453 242,453 243,453 245,453 246,453 248,453 249,453 251,453 252,453 254,453 255,454 257,454 258,454 260,454 261,454 263,454 264,454 266,454 267,454 269,454 270,455 272,455 273,455 275,455 277,455 278,455 280,455 281,455 283,455 284,455 286,456 287,456 289,456 290,456 292,456 293,456 295,456 296,456 298,456 299,456 301,457 302,457 304,457 305,457 307,457 308,457 310,457 311,457 313,458 314,458 316,458 317,458 319,458 320,459 322,459 324,459 325,459 327,460 328,460 330,460 331,460 333,461 334,461 336,461 337,461 339,462 340,462 342,462 343,462 345,462 346,462 348,462 349,462 351,462 352,462 354,462 355,462 357,461 358,461 360,461 361,461 363,460 364,460 366,459 367,459 369,458 370,458 372,457 374,457 375,456 377,456 378,455 380,455 381,454 383,454 384,453 386,453 387,453 389,452 390,452 392,452 393,451 395,451 396,451 398,451 399,451 401,450 402,450 404,450 405,450 407,450 408,451 410,451 411,451 413,451 414,451 416,452 417,452 419,452 421,453 422,453 424,454 425,454 427,455 428,455 430,456 431,456 433,457 434,457 436,458 437,458 439,459 440,459 442,459 443,460 445,460 446,460 448,461 449,461 451,461 452,461 454,461 455,461 457,461 458,460 460,460 461,460 463,460 464,459 466,459 467,459 469,458 471,458 472,458 474,457 475,457 477,457 478,457 480,457 481,456 483,456 484,456 486,456 487,456 489,456 490,456 492,457 493,457 495,457 496,457 498,457 499,457 501,457 502,456 504,456 505,456 507,456 508,456 510,455 511,455 513,455 514,455 516,455 518,455 519,455 521,455 522,456 524,456 525,457 527,458 528,460 530,461 531,463 533,465 534,467 536,469 537,471 539,473 540,475 542,477 543,478 545,480 546,482 548,484 549,485 551,486 552,487 554,488 555,489 557,490 558,490 560,491 561,491 563,491 564,491 566,490 568,490 569,489 571,488 572,488 574,487 575,486 577,485 578,484 580,483 581,483 583,482 584,482 586,482 587,483 589,483 590,484 592,486 593,487 595,489 596,491 598,493 599,495 601,498 602,500 604,502 605,504 607,506 608,508 610,509 611,511 613,512 615,513 616,514 618,515 619,515 621,515 622,515 624,515 625,515 627,514 628,514 630,513 631,512 633,511 634,509 636,508 637,506 639,505 640,503 642,502 643,501 645,500 646,500 648,500 649,500 651,501 652,502 654,504 655,506 657,509 658,511 660,514 661,517 663,520 665,522 666,525 668,528 669,530 671,532 672,534 674,536 675,538 677,539 678,541 680,542 681,543 683,543 684,544 686,544 687,544 689,544 690,544 692,543 693,543 695,542 696,541 698,539 699,538 701,536 702,535 704,533 705,531 707,529 708,527 710,524 712,522 713,520 715,518 716,516 718,515 719,514 721,513 722,513 724,513 725,513 727,514 728,516 730,518 731,520 733,522 734,525 736,527 737,530 739,533 740,535 742,538 743,541 745,544 746,546 748,549 749,551 751,554 752,556 754,559 755,561 757,563 758,565 760,567 762,569 763,571 765,573 766,574 768,576 769,577 771,578 772,579 774,580 775,581 777,582 778,582 780,582 781,582 783,582 784,582 786,582 787,581 789,580 790,579 792,577 793,575 795,573 796,571 798,569 799,566 801,563 802,559 804,556 805,553 807,550 809,547 810,545 812,544 813,545 815,547 816,550 818,554 819,559 821,565 822,570 824,576 825,581 827,587 828,592 830,596 831,601 833,605 834,609 836,612 837,616 839,619 840,622 842,624 843,626 845,628 846,630 848,631 849,633 851,634 852,634 854,635 855,635 857,635 859,635 860,634 862,633 863,632 865,631 866,629 868,627 869,625 871,622 872,619 874,615 875,611 877,607 878,602 880,596 881,591 883,585 884,580 886,575 887,572 889,571 890,572 892,577 893,582 895,589 896,597 898,604 899,611 901,617 902,623 904,629 906,634 907,639 909,644 910,648 912,652 913,655 915,658 916,658 918,658 919,658 921,658 922,658 924,658 925,658 927,658 928,658 930,658 931,658 933,658 934,658 936,658 937,658 939,658 940,658 942,658 943,658 945,658 946,658 948,658 949,658 951,658 952,658 954,658 956,658 957,658 959,655 960,652 962,649 963,645 965,642 966,638 968,635 969,631 971,628 972,624 974,621 975,618 977,616 978,614 980,613 981,612 983,612 984,612 986,612 987,613 989,614 990,616 992,617 993,618 995,619 996,620 998,621 999,621 1001,622 1003,622 1004,622 1004,621 1004,621 1004,620 1004,619 1004,618 1004,617 1004,616 1004,614 1004,613 1004,612 1004,612 1004,612 1004,612 1004,613 1004,614 1004,616 1004,618 1004,621 1004,624 1004,628 1004,631 1004,635 1004,638 1004,642 1004,645 1004,649 1004,652 1004,655 1004,658 1004,658 1004,658 1004,658 1004,658 1004,658 1004,658 1004,658 1004,658 1004,658 1004,658 1004,658 1004,658 1004,658 1004,658 1004,658 1004,658 1004,658 1004,658 1004,658 1004,658 1004,658 1004,658 1004,658 1004,658 1004,658 1004,658 1004,658 1004,658 1004,655 1004,652 1004,648 1004,644 1004,639 1004,634 1004,629 1004,623 1004,617 1004,611 1004,604 1004,597 1004,589 1004,582 1004,577 1004,572 1004,571 1004,572 1004,575 1004,580 1004,585 1004,591 1004,596 1004,602 1004,607 1004,611 1004,615 1004,619 1004,622 1004,625 1004,627 1004,629 1004,631 1004,632 1004,633 1004,634 1004,635 1004,635 1004,635 1004,635 1004,634 1004,634 1004,633 1004,631 1004,630 1004,628 1004,626 1004,624 1004,622 1004,619 1004,616 1004,612 1004,609 1004,605 1004,601 1004,596 1004,592 1004,587 1004,581 1004,576 1004,570 1004,565 1004,559 1004,554 1004,550 1004,547 1004,545 1004,544 1004,545 1004,547 1004,550 1004,553 1004,556 1004,559 1004,563 1004,566 1004,569 1004,571 1004,573 1004,575 1004,577 1004,579 1004,580 1004,581 1004,582 1004,582 1004,582 1004,582 1004,582 1004,582 1004,582 1004,581 1004,580 1004,579 1004,578 1004,577 1004,576 1004,574 1004,573 1004,571 1004,569 1004,567 1004,565 1004,563 1004,561 1004,559 1004,556 1004,554 1004,551 1004,549 1004,546 1004,544 1004,541 1004,538 1004,535 1004,533 1004,530 1004,527 1004,525 1004,522 1004,520 1004,518 1004,516 1004,514 1004,513 1004,513 1004,513 1004,513 1004,514 1004,515 1004,516 1004,518 1004,520 1004,522 1004,524 1004,527 1004,529 1004,531 1004,533 1004,535 1004,536 1004,538 1004,539 1004,541 1004,542 1004,543 1004,543 1004,544 1004,544 1004,544 1004,544 1004,544 1004,543 1004,543 1004,542 1004,541 1004,539 1004,538 1004,536 1004,534 1004,532 1004,530 1004,528 1004,525 1004,522 1004,520 1004,517 1004,514 1004,511 1004,509 1004,506 1004,504 1004,502 1004,501 1004,500 1004,500 1004,500 1004,500 1004,501 1004,502 1004,503 1004,505 1004,506 1004,508 1004,509 1004,511 1004,512 1004,513 1004,514 1004,514 1004,515 1004,515 1004,515 1004,515 1004,515 1004,515 1004,514 1004,513 1004,512 1004,511 1004,509 1004,508 1004,506 1004,504 1004,502 1004,500 1004,498 1004,495 1004,493 1004,491 1004,489 1004,487 1004,486 1004,484 1004,483 1004,483 1004,482 1004,482 1004,482 1004,483 1004,483 1004,484 1004,485 1004,486 1004,487 1004,488 1004,488 1004,489 1004,490 1004,490 1004,491 1004,491 1004,491 1004,491 1004,490 1004,490 1004,489 1004,488 1004,487 1004,486 1004,485 1004,484 1004,482 1004,480 1004,478 1004,477 1004,475 1004,473 1004,471 1004,469 1004,467 1004,465 1004,463 1004,461 1004,460 1004,458 1004,457 1004,456 1004,456 1004,455 1004,455 1004,455 1004,455 1004,455 1004,455 1004,455 1004,455 1004,456 1004,456 1004,456 1004,456 1004,456 1004,457 1004,457 1004,457 1004,457 1004,457 1004,457 1004,457 1004,456 1004,456 1004,456 1004,456 1004,456 1004,456 1004,456 1004,457 1004,457 1004,457 1004,457 1004,457 1004,458 1004,458 1004,458 1004,459 1004,459 1004,459 1004,460 1004,460 1004,460 1004,460 1004,461 1004,461 1004,461 1004,461 1004,461 1004,461 1004,461 1004,460 1004,460 1004,460 1004,459 1004,459 1004,459 1004,458 1004,458 1004,457 1004,457 1004,456 1004,456 1004,455 1004,455 1004,454 1004,454 1004,453 1004,453 1004,452 1004,452 1004,452 1004,451 1004,451 1004,451 1004,451 1004,451 1004,450 1004,450 1004,450 1004,450 1004,450 1004,451 1004,451 1004,451 1004,451 1004,451 1004,452 1004,452 1004,452 1004,453 1004,453 1004,453 1004,454 1004,454 1004,455 1004,455 1004,456 1004,456 1004,457 1004,457 1004,458 1004,458 1004,459 1004,459 1004,460 1004,460 1004,461 1004,461 1004,461 1004,461 1004,462 1004,462 1004,462 1004,462 1004,462 1004,462 1004,462 1004,462 1004,462 1004,462 1004,462 1004,462 1004,461 1004,461 1004,461 1004,461 1004,460 1004,460 1004,460 1004,460 1004,459 1004,459 1004,459 1004,459 1004,458 1004,458 1004,458 1004,458 1004,458 1004,457 1004,457 1004,457 1004,457 1004,457 1004,457 1004,457 1004,457 1004,456 1004,456 1004,456 1004,456 1004,456 1004,456 1004,456 1004,456 1004,456 1004,456 1004,455 1004,455 1004,455 1004,455 1004,455 1004,455 1004,455 1004,455 1004,455 1004,455 1004,454 1004,454 1004,454 1004,454 1004,454 1004,454 1004,454 1004,454 1004,454 1004,454 1004,453 1004,453 1004,453 1004,453 1004,453 1004,453 1004,453 1004,453 1004,453 1004,453 1004,452 1004,452 1004,452 1004,452 1004,452 1004,452 1004,452 1004,452 1004,452 1004,452 1004,452 1004,452 1004,452 1004,452 1004,452 1004,452 1004,452 1004,452 1004,452 1004,452 1004,452 1004,452 1004,452 1004,452 1004,452 1004,452 1004,452 1004,452 1004,452 1004,452 1004,452 1004,451 1004,451 1004,451 1004,451 1004,451 1004,451 1004,451 1004,451 1004,451 1004,451 1004,451 1004,451 1004,451 1004,451 1004,451 1004,451 1004,451 1004,451 1004,451 1004,451 1004,451 1004,451 1004,451 1004,451 1004,451 1004,451 1004,451 1004,451 1004,451 1004,451 1004,451 1004,451 1004,450 1004,450 1004,450 1004,450 1004,450 1004,450 1004,450 1004,450 1004,450 "/>
<polyline fill="none" opacity="1" stroke="#0082C8" stroke-width="1" points="130,226 131,226 133,226 134,226 136,226 137,226 139,226 140,226 142,227 143,227 145,227 146,227 148,227 149,227 151,227 152,227 154,227 155,227 157,227 158,227 160,227 161,227 163,227 164,227 166,227 167,227 169,227 170,227 172,227 173,227 175,227 176,227 178,227 180,227 181,227 183,227 184,227 186,227 187,227 189,227 190,227 192,228 193,228 195,228 196,228 198,228 199,228 201,228 202,228 204,228 205,228 207,228 208,228 210,228 211,228 213,228 214,228 216,228 217,228 219,228 220,228 222,228 223,228 225,228 227,228 228,228 230,228 231,228 233,228 234,228 236,228 237,228 239,229 240,229 242,229 243,229 245,229 246,229 248,229 249,229 251,229 252,229 254,229 255,230 257,230 258,230 260,230 261,230 263,230 264,230 266,230 267,230 269,231 270,231 272,231 273,231 275,231 277,231 278,231 280,231 281,231 283,231 284,232 286,232 287,232 289,232 290,232 292,232 293,232 295,232 296,232 298,232 299,232 301,233 302,233 304,233 305,233 307,233 308,233 310,233 311,233 313,234 314,234 316,234 317,234 319,234 320,235 322,235 324,235 325,235 327,236 328,236 330,236 331,236 333,237 334,237 336,237 337,237 339,238 340,238 342,238 343,238 345,238 346,238 348,238 349,238 351,238 352,238 354,238 355,238 357,237 358,237 360,237 361,237 363,236 364,236 366,235 367,235 369,234 370,234 372,234 374,233 375,232 377,232 378,231 380,231 381,230 383,230 384,230 386,229 387,229 389,228 390,228 392,228 393,227 395,227 396,227 398,227 399,227 401,226 402,226 404,226 405,226 407,226 408,227 410,227 411,227 413,227 414,227 416,228 417,228 419,228 421,229 422,229 424,230 425,230 427,231 428,231 430,232 431,232 433,233 434,233 436,234 437,234 439,235 440,235 442,236 443,236 445,236 446,236 448,237 449,237 451,237 452,237 454,237 455,237 457,237 458,237 460,236 461,236 463,236 464,235 466,235 467,235 469,234 471,234 472,234 474,233 475,233 477,233 478,233 480,233 481,232 483,232 484,232 486,232 487,232 489,232 490,233 492,233 493,233 495,233 496,233 498,233 499,233 501,233 502,232 504,232 505,232 507,232 508,232 510,231 511,231 513,231 514,231 516,231 518,231 519,231 521,231 522,232 524,232 525,233 527,234 528,236 530,237 531,239 533,241 534,243 536,245 537,247 539,249 540,251 542,253 543,255 545,256 546,258 548,260 549,261 551,262 552,263 554,264 555,265 557,266 558,266 560,267 561,267 563,267 564,267 566,266 568,266 569,265 571,265 572,264 574,263 575,262 577,261 578,260 580,259 581,259 583,258 584,258 586,258 587,259 589,259 590,260 592,262 593,263 595,265 596,267 598,269 599,271 601,274 602,276 604,278 605,280 607,282 608,284 610,285 611,287 613,288 615,289 616,290 618,291 619,291 621,291 622,291 624,291 625,291 627,290 628,290 630,289 631,288 633,287 634,285 636,284 637,282 639,281 640,279 642,278 643,277 645,276 646,276 648,276 649,276 651,277 652,278 654,280 655,282 657,285 658,287 660,290 661,293 663,296 665,299 666,301 668,304 669,306 671,308 672,310 674,312 675,314 677,315 678,317 680,318 681,319 683,319 684,320 686,320 687,320 689,320 690,320 692,319 693,319 695,318 696,317 698,316 699,314 701,313 702,311 704,309 705,307 707,305 708,303 710,300 712,298 713,296 715,294 716,292 718,291 719,290 721,289 722,289 724,289 725,289 727,290 728,292 730,294 731,296 733,298 734,301 736,303 737,306 739,309 740,311 742,314 743,317 745,320 746,322 748,325 749,327 751,330 752,332 754,335 755,337 757,339 758,341 760,343 762,345 763,347 765,349 766,350 768,352 769,353 771,354 772,355 774,356 775,357 777,358 778,358 780,358 781,358 783,358 784,358 786,358 787,357 789,356 790,355 792,353 793,351 795,349 796,347 798,345 799,342 801,339 802,335 804,332 805,329 807,326 809,323 810,321 812,320 813,321 815,323 816,326 818,330 819,335 821,341 822,346 824,352 825,357 827,363 828,368 830,372 831,377 833,381 834,385 836,389 837,392 839,395 840,398 842,400 843,402 845,404 846,406 848,407 849,409 851,410 852,410 854,411 855,411 857,411 859,411 860,410 862,409 863,408 865,407 866,405 868,403 869,401 871,398 872,395 874,391 875,387 877,383 878,378 880,373 881,367 883,361 884,356 886,351 887,348 889,347 890,348 892,353 893,359 895,365 896,373 898,380 899,387 901,393 902,399 904,405 906,410 907,415 909,420 910,424 912,428 913,431 915,434 916,437 918,440 919,442 921,444 922,446 924,448 925,449 927,450 928,451 930,452 931,453 933,453 934,453 936,453 937,453 939,453 940,452 942,451 943,451 945,449 946,448 948,447 949,445 951,443 952,441 954,439 956,436 957,434 959,431 960,428 962,425 963,421 965,418 966,414 968,411 969,407 971,404 972,400 974,397 975,394 977,392 978,390 980,389 981,388 983,388 984,388 986,389 987,389 989,390 990,392 992,393 993,394 995,395 996,396 998,397 999,397 1001,398 1003,398 1004,398 1004,397 1004,397 1004,396 1004,395 1004,394 1004,393 1004,392 1004,390 1004,389 1004,389 1004,388 1004,388 1004,388 1004,389 1004,390 1004,392 1004,394 1004,397 1004,400 1004,404 1004,407 1004,411 1004,414 1004,418 1004,421 1004,425 1004,428 1004,431 1004,434 1004,436 1004,439 1004,441 1004,443 1004,445 1004,447 1004,448 1004,449 1004,451 1004,451 1004,452 1004,453 1004,453 1004,453 1004,453 1004,453 1004,453 1004,452 1004,451 1004,450 1004,449 1004,448 1004,446 1004,444 1004,442 1004,440 1004,437 1004,434 1004,431 1004,428 1004,424 1004,420 1004,415 1004,410 1004,405 1004,399 1004,393 1004,387 1004,380 1004,373 1004,365 1004,359 1004,353 1004,348 1004,347 1004,348 1004,351 1004,356 1004,361 1004,367 1004,373 1004,378 1004,383 1004,387 1004,391 1004,395 1004,398 1004,401 1004,403 1004,405 1004,407 1004,408 1004,409 1004,410 1004,411 1004,411 1004,411 1004,411 1004,410 1004,410 1004,409 1004,407 1004,406 1004,404 1004,402 1004,400 1004,398 1004,395 1004,392 1004,389 1004,385 1004,381 1004,377 1004,372 1004,368 1004,363 1004,357 1004,352 1004,346 1004,341 1004,335 1004,330 1004,326 1004,323 1004,321 1004,320 1004,321 1004,323 1004,326 1004,329 1004,332 1004,335 1004,339 1004,342 1004,345 1004,347 1004,349 1004,351 1004,353 1004,355 1004,356 1004,357 1004,358 1004,358 1004,358 1004,358 1004,358 1004,358 1004,358 1004,357 1004,356 1004,355 1004,354 1004,353 1004,352 1004,350 1004,349 1004,347 1004,345 1004,343 1004,341 1004,339 1004,337 1004,335 1004,332 1004,330 1004,327 1004,325 1004,322 1004,320 1004,317 1004,314 1004,311 1004,309 1004,306 1004,303 1004,301 1004,298 1004,296 1004,294 1004,292 1004,290 1004,289 1004,289 1004,289 1004,289 1004,290 1004,291 1004,292 1004,294 1004,296 1004,298 1004,300 1004,303 1004,305 1004,307 1004,309 1004,311 1004,313 1004,314 1004,316 1004,317 1004,318 1004,319 1004,319 1004,320 1004,320 1004,320 1004,320 1004,320 1004,319 1004,319 1004,318 1004,317 1004,315 1004,314 1004,312 1004,310 1004,308 1004,306 1004,304 1004,301 1004,299 1004,296 1004,293 1004,290 1004,287 1004,285 1004,282 1004,280 1004,278 1004,277 1004,276 1004,276 1004,276 1004,276 1004,277 1004,278 1004,279 1004,281 1004,282 1004,284 1004,285 1004,287 1004,288 1004,289 1004,290 1004,290 1004,291 1004,291 1004,291 1004,291 1004,291 1004,291 1004,290 1004,289 1004,288 1004,287 1004,285 1004,284 1004,282 1004,280 1004,278 1004,276 1004,274 1004,271 1004,269 1004,267 1004,265 1004,263 1004,262 1004,260 1004,259 1004,259 1004,258 1004,258 1004,258 1004,259 1004,259 1004,260 1004,261 1004,262 1004,263 1004,264 1004,265 1004,265 1004,266 1004,266 1004,267 1004,267 1004,267 1004,267 1004,266 1004,266 1004,265 1004,264 1004,263 1004,262 1004,261 1004,260 1004,258 1004,256 1004,255 1004,253 1004,251 1004,249 1004,247 1004,245 1004,243 1004,241 1004,239 1004,237 1004,236 1004,234 1004,233 1004,232 1004,232 1004,231 1004,231 1004,231 1004,231 1004,231 1004,231 1004,231 1004,231 1004,232 1004,232 1004,232 1004,232 1004,232 1004,233 1004,233 1004,233 1004,233 1004,233 1004,233 1004,233 1004,233 1004,232 1004,232 1004,232 1004,232 1004,232 1004,232 1004,233 1004,233 1004,233 1004,233 1004,233 1004,234 1004,234 1004,234 1004,235 1004,235 1004,235 1004,236 1004,236 1004,236 1004,237 1004,237 1004,237 1004,237 1004,237 1004,237 1004,237 1004,237 1004,236 1004,236 1004,236 1004,236 1004,235 1004,235 1004,234 1004,234 1004,233 1004,233 1004,232 1004,232 1004,231 1004,231 1004,230 1004,230 1004,229 1004,229 1004,228 1004,228 1004,228 1004,227 1004,227 1004,227 1004,227 1004,227 1004,226 1004,226 1004,226 1004,226 1004,226 1004,227 1004,227 1004,227 1004,227 1004,227 1004,228 1004,228 1004,228 1004,229 1004,229 1004,230 1004,230 1004,230 1004,231 1004,231 1004,232 1004,232 1004,233 1004,234 1004,234 1004,234 1004,235 1004,235 1004,236 1004,236 1004,237 1004,237 1004,237 1004,237 1004,238 1004,238 1004,238 1004,238 1004,238 1004,238 1004,238 1004,238 1004,238 1004,238 1004,238 1004,238 1004,237 1004,237 1004,237 1004,237 1004,236 1004,236 1004,236 1004,236 1004,235 1004,235 1004,235 1004,235 1004,234 1004,234 1004,234 1004,234 1004,234 1004,233 1004,233 1004,233 1004,233 1004,233 1004,233 1004,233 1004,233 1004,232 1004,232 1004,232 1004,232 1004,232 1004,232 1004,232 1004,232 1004,232 1004,232 1004,232 1004,231 1004,231 1004,231 1004,231 1004,231 1004,231 1004,231 1004,231 1004,231 1004,231 1004,230 1004,230 1004,230 1004,230 1004,230 1004,230 1004,230 1004,230 1004,230 1004,229 1004,229 1004,229 1004,229 1004,229 1004,229 1004,229 1004,229 1004,229 1004,229 1004,229 1004,228 1004,228 1004,228 1004,228 1004,228 1004,228 1004,228 1004,228 1004,228 1004,228 1004,228 1004,228 1004,228 1004,228 1004,228 1004,228 1004,228 1004,228 1004,228 1004,228 1004,228 1004,228 1004,228 1004,228 1004,228 1004,228 1004,228 1004,228 1004,228 1004,228 1004,228 1004,227 1004,227 1004,227 1004,227 1004,227 1004,227 1004,227 1004,227 1004,227 1004,227 1004,227 1004,227 1004,227 1004,227 1004,227 1004,227 1004,227 1004,227 1004,227 1004,227 1004,227 1004,227 1004,227 1004,227 1004,227 1004,227 1004,227 1004,227 1004,227 1004,227 1004,227 1004,227 1004,227 1004,226 1004,226 1004,226 1004,226 1004,226 1004,226 1004,226 "/>
<rect x="514" y="25" width="485" height="157" opacity="0.8" fill="#FFFFFF" stroke="none"/>
<rect x="514" y="25" width="485" height="157" opacity="1" fill="none" stroke="#000000"/>
<text x="554" y="35" dy="0.76em" text-anchor="start" font-family="sans-serif" font-size="24.193548387096776" opacity="1" fill="#000000">
(1) log_power
</text>
<text x="554" y="73" dy="0.76em" text-anchor="start" font-family="sans-serif" font-size="24.193548387096776" opacity="1" fill="#000000">
(2) spectral_envelope by cepstrum
</text>
<text x="554" y="110" dy="0.76em" text-anchor="start" font-family="sans-serif" font-size="24.193548387096776" opacity="1" fill="#000000">
(3) spectral_envelope by levinson-durbin
</text>
<text x="554" y="148" dy="0.76em" text-anchor="start" font-family="sans-serif" font-size="24.193548387096776" opacity="1" fill="#000000">
(4) spectral_envelope by burg
</text>
<polyline fill="none" opacity="1" stroke="#E6194B" stroke-width="1" points="524,47 544,47 "/>
<polyline fill="none" opacity="1" stroke="#3CB44B" stroke-width="1" points="524,85 544,85 "/>
<polyline fill="none" opacity="1" stroke="#FFE119" stroke-width="1" points="524,122 544,122 "/>
<polyline fill="none" opacity="1" stroke="#0082C8" stroke-width="1" points="524,160 544,160 "/>
</svg>
