<svg width="1024" height="768" viewBox="0 0 1024 768" xmlns="http://www.w3.org/2000/svg">
<rect x="0" y="0" width="1024" height="768" opacity="1" fill="#FFFFFF" stroke="none"/>
<line opacity="0.1" stroke="#000000" stroke-width="1" x1="130" y1="657" x2="130" y2="20"/>
<line opacity="0.1" stroke="#000000" stroke-width="1" x1="140" y1="657" x2="140" y2="20"/>
<line opacity="0.1" stroke="#000000" stroke-width="1" x1="151" y1="657" x2="151" y2="20"/>
<line opacity="0.1" stroke="#000000" stroke-width="1" x1="162" y1="657" x2="162" y2="20"/>
<line opacity="0.1" stroke="#000000" stroke-width="1" x1="173" y1="657" x2="173" y2="20"/>
<line opacity="0.1" stroke="#000000" stroke-width="1" x1="184" y1="657" x2="184" y2="20"/>
<line opacity="0.1" stroke="#000000" stroke-width="1" x1="195" y1="657" x2="195" y2="20"/>
<line opacity="0.1" stroke="#000000" stroke-width="1" x1="206" y1="657" x2="206" y2="20"/>
<line opacity="0.1" stroke="#000000" stroke-width="1" x1="217" y1="657" x2="217" y2="20"/>
<line opacity="0.1" stroke="#000000" stroke-width="1" x1="228" y1="657" x2="228" y2="20"/>
<line opacity="0.1" stroke="#000000" stroke-width="1" x1="239" y1="657" x2="239" y2="20"/>
<line opacity="0.1" stroke="#000000" stroke-width="1" x1="250" y1="657" x2="250" y2="20"/>
<line opacity="0.1" stroke="#000000" stroke-width="1" x1="260" y1="657" x2="260" y2="20"/>
<line opacity="0.1" stroke="#000000" stroke-width="1" x1="271" y1="657" x2="271" y2="20"/>
<line opacity="0.1" stroke="#000000" stroke-width="1" x1="282" y1="657" x2="282" y2="20"/>
<line opacity="0.1" stroke="#000000" stroke-width="1" x1="293" y1="657" x2="293" y2="20"/>
<line opacity="0.1" stroke="#000000" stroke-width="1" x1="304" y1="657" x2="304" y2="20"/>
<line opacity="0.1" stroke="#000000" stroke-width="1" x1="315" y1="657" x2="315" y2="20"/>
<line opacity="0.1" stroke="#000000" stroke-width="1" x1="326" y1="657" x2="326" y2="20"/>
<line opacity="0.1" stroke="#000000" stroke-width="1" x1="337" y1="657" x2="337" y2="20"/>
<line opacity="0.1" stroke="#000000" stroke-width="1" x1="348" y1="657" x2="348" y2="20"/>
<line opacity="0.1" stroke="#000000" stroke-width="1" x1="359" y1="657" x2="359" y2="20"/>
<line opacity="0.1" stroke="#000000" stroke-width="1" x1="370" y1="657" x2="370" y2="20"/>
<line opacity="0.1" stroke="#000000" stroke-width="1" x1="380" y1="657" x2="380" y2="20"/>
<line opacity="0.1" stroke="#000000" stroke-width="1" x1="391" y1="657" x2="391" y2="20"/>
<line opacity="0.1" stroke="#000000" stroke-width="1" x1="402" y1="657" x2="402" y2="20"/>
<line opacity="0.1" stroke="#000000" stroke-width="1" x1="413" y1="657" x2="413" y2="20"/>
<line opacity="0.1" stroke="#000000" stroke-width="1" x1="424" y1="657" x2="424" y2="20"/>
<line opacity="0.1" stroke="#000000" stroke-width="1" x1="435" y1="657" x2="435" y2="20"/>
<line opacity="0.1" stroke="#000000" stroke-width="1" x1="446" y1="657" x2="446" y2="20"/>
<line opacity="0.1" stroke="#000000" stroke-width="1" x1="457" y1="657" x2="457" y2="20"/>
<line opacity="0.1" stroke="#000000" stroke-width="1" x1="468" y1="657" x2="468" y2="20"/>
<line opacity="0.1" stroke="#000000" stroke-width="1" x1="479" y1="657" x2="479" y2="20"/>
<line opacity="0.1" stroke="#000000" stroke-width="1" x1="490" y1="657" x2="490" y2="20"/>
<line opacity="0.1" stroke="#000000" stroke-width="1" x1="501" y1="657" x2="501" y2="20"/>
<line opacity="0.1" stroke="#000000" stroke-width="1" x1="511" y1="657" x2="511" y2="20"/>
<line opacity="0.1" stroke="#000000" stroke-width="1" x1="522" y1="657" x2="522" y2="20"/>
<line opacity="0.1" stroke="#000000" stroke-width="1" x1="533" y1="657" x2="533" y2="20"/>
<line opacity="0.1" stroke="#000000" stroke-width="1" x1="544" y1="657" x2="544" y2="20"/>
<line opacity="0.1" stroke="#000000" stroke-width="1" x1="555" y1="657" x2="555" y2="20"/>
<line opacity="0.1" stroke="#000000" stroke-width="1" x1="566" y1="657" x2="566" y2="20"/>
<line opacity="0.1" stroke="#000000" stroke-width="1" x1="577" y1="657" x2="577" y2="20"/>
<line opacity="0.1" stroke="#000000" stroke-width="1" x1="588" y1="657" x2="588" y2="20"/>
<line opacity="0.1" stroke="#000000" stroke-width="1" x1="599" y1="657" x2="599" y2="20"/>
<line opacity="0.1" stroke="#000000" stroke-width="1" x1="610" y1="657" x2="610" y2="20"/>
<line opacity="0.1" stroke="#000000" stroke-width="1" x1="621" y1="657" x2="621" y2="20"/>
<line opacity="0.1" stroke="#000000" stroke-width="1" x1="631" y1="657" x2="631" y2="20"/>
<line opacity="0.1" stroke="#000000" stroke-width="1" x1="642" y1="657" x2="642" y2="20"/>
<line opacity="0.1" stroke="#000000" stroke-width="1" x1="653" y1="657" x2="653" y2="20"/>
<line opacity="0.1" stroke="#000000" stroke-width="1" x1="664" y1="657" x2="664" y2="20"/>
<line opacity="0.1" stroke="#000000" stroke-width="1" x1="675" y1="657" x2="675" y2="20"/>
<line opacity="0.1" stroke="#000000" stroke-width="1" x1="686" y1="657" x2="686" y2="20"/>
<line opacity="0.1" stroke="#000000" stroke-width="1" x1="697" y1="657" x2="697" y2="20"/>
<line opacity="0.1" stroke="#000000" stroke-width="1" x1="708" y1="657" x2="708" y2="20"/>
<line opacity="0.1" stroke="#000000" stroke-width="1" x1="719" y1="657" x2="719" y2="20"/>
<line opacity="0.1" stroke="#000000" stroke-width="1" x1="730" y1="657" x2="730" y2="20"/>
<line opacity="0.1" stroke="#000000" stroke-width="1" x1="741" y1="657" x2="741" y2="20"/>
<line opacity="0.1" stroke="#000000" stroke-width="1" x1="752" y1="657" x2="752" y2="20"/>
<line opacity="0.1" stroke="#000000" stroke-width="1" x1="762" y1="657" x2="762" y2="20"/>
<line opacity="0.1" stroke="#000000" stroke-width="1" x1="773" y1="657" x2="773" y2="20"/>
<line opacity="0.1" stroke="#000000" stroke-width="1" x1="784" y1="657" x2="784" y2="20"/>
<line opacity="0.1" stroke="#000000" stroke-width="1" x1="795" y1="657" x2="795" y2="20"/>
<line opacity="0.1" stroke="#000000" stroke-width="1" x1="806" y1="657" x2="806" y2="20"/>
<line opacity="0.1" stroke="#000000" stroke-width="1" x1="817" y1="657" x2="817" y2="20"/>
<line opacity="0.1" stroke="#000000" stroke-width="1" x1="828" y1="657" x2="828" y2="20"/>
<line opacity="0.1" stroke="#000000" stroke-width="1" x1="839" y1="657" x2="839" y2="20"/>
<line opacity="0.1" stroke="#000000" stroke-width="1" x1="850" y1="657" x2="850" y2="20"/>
<line opacity="0.1" stroke="#000000" stroke-width="1" x1="861" y1="657" x2="861" y2="20"/>
<line opacity="0.1" stroke="#000000" stroke-width="1" x1="872" y1="657" x2="872" y2="20"/>
<line opacity="0.1" stroke="#000000" stroke-width="1" x1="882" y1="657" x2="882" y2="20"/>
<line opacity="0.1" stroke="#000000" stroke-width="1" x1="893" y1="657" x2="893" y2="20"/>
<line opacity="0.1" stroke="#000000" stroke-width="1" x1="904" y1="657" x2="904" y2="20"/>
<line opacity="0.1" stroke="#000000" stroke-width="1" x1="915" y1="657" x2="915" y2="20"/>
<line opacity="0.1" stroke="#000000" stroke-width="1" x1="926" y1="657" x2="926" y2="20"/>
<line opacity="0.1" stroke="#000000" stroke-width="1" x1="937" y1="657" x2="937" y2="20"/>
<line opacity="0.1" stroke="#000000" stroke-width="1" x1="948" y1="657" x2="948" y2="20"/>
<line opacity="0.1" stroke="#000000" stroke-width="1" x1="959" y1="657" x2="959" y2="20"/>
<line opacity="0.1" stroke="#000000" stroke-width="1" x1="970" y1="657" x2="970" y2="20"/>
<line opacity="0.1" stroke="#000000" stroke-width="1" x1="981" y1="657" x2="981" y2="20"/>
<line opacity="0.1" stroke="#000000" stroke-width="1" x1="992" y1="657" x2="992" y2="20"/>
<line opacity="0.1" stroke="#000000" stroke-width="1" x1="1003" y1="657" x2="1003" y2="20"/>
<line opacity="0.1" stroke="#000000" stroke-width="1" x1="130" y1="657" x2="1003" y2="657"/>
<line opacity="0.1" stroke="#000000" stroke-width="1" x1="130" y1="650" x2="1003" y2="650"/>
<line opacity="0.1" stroke="#000000" stroke-width="1" x1="130" y1="642" x2="1003" y2="642"/>
<line opacity="0.1" stroke="#000000" stroke-width="1" x1="130" y1="634" x2="1003" y2="634"/>
<line opacity="0.1" stroke="#000000" stroke-width="1" x1="130" y1="626" x2="1003" y2="626"/>
<line opacity="0.1" stroke="#000000" stroke-width="1" x1="130" y1="618" x2="1003" y2="618"/>
<line opacity="0.1" stroke="#000000" stroke-width="1" x1="130" y1="610" x2="1003" y2="610"/>
<line opacity="0.1" stroke="#000000" stroke-width="1" x1="130" y1="602" x2="1003" y2="602"/>
<line opacity="0.1" stroke="#000000" stroke-width="1" x1="130" y1="594" x2="1003" y2="594"/>
<line opacity="0.1" stroke="#000000" stroke-width="1" x1="130" y1="586" x2="1003" y2="586"/>
<line opacity="0.1" stroke="#000000" stroke-width="1" x1="130" y1="578" x2="1003" y2="578"/>
<line opacity="0.1" stroke="#000000" stroke-width="1" x1="130" y1="570" x2="1003" y2="570"/>
<line opacity="0.1" stroke="#000000" stroke-width="1" x1="130" y1="562" x2="1003" y2="562"/>
<line opacity="0.1" stroke="#000000" stroke-width="1" x1="130" y1="554" x2="1003" y2="554"/>
<line opacity="0.1" stroke="#000000" stroke-width="1" x1="130" y1="546" x2="1003" y2="546"/>
<line opacity="0.1" stroke="#000000" stroke-width="1" x1="130" y1="538" x2="1003" y2="538"/>
<line opacity="0.1" stroke="#000000" stroke-width="1" x1="130" y1="530" x2="1003" y2="530"/>
<line opacity="0.1" stroke="#000000" stroke-width="1" x1="130" y1="522" x2="1003" y2="522"/>
<line opacity="0.1" stroke="#000000" stroke-width="1" x1="130" y1="514" x2="1003" y2="514"/>
<line opacity="0.1" stroke="#000000" stroke-width="1" x1="130" y1="506" x2="1003" y2="506"/>
<line opacity="0.1" stroke="#000000" stroke-width="1" x1="130" y1="498" x2="1003" y2="498"/>
<line opacity="0.1" stroke="#000000" stroke-width="1" x1="130" y1="490" x2="1003" y2="490"/>
<line opacity="0.1" stroke="#000000" stroke-width="1" x1="130" y1="482" x2="1003" y2="482"/>
<line opacity="0.1" stroke="#000000" stroke-width="1" x1="130" y1="474" x2="1003" y2="474"/>
<line opacity="0.1" stroke="#000000" stroke-width="1" x1="130" y1="466" x2="1003" y2="466"/>
<line opacity="0.1" stroke="#000000" stroke-width="1" x1="130" y1="458" x2="1003" y2="458"/>
<line opacity="0.1" stroke="#000000" stroke-width="1" x1="130" y1="450" x2="1003" y2="450"/>
<line opacity="0.1" stroke="#000000" stroke-width="1" x1="130" y1="443" x2="1003" y2="443"/>
<line opacity="0.1" stroke="#000000" stroke-width="1" x1="130" y1="435" x2="1003" y2="435"/>
<line opacity="0.1" stroke="#000000" stroke-width="1" x1="130" y1="427" x2="1003" y2="427"/>
<line opacity="0.1" stroke="#000000" stroke-width="1" x1="130" y1="419" x2="1003" y2="419"/>
<line opacity="0.1" stroke="#000000" stroke-width="1" x1="130" y1="411" x2="1003" y2="411"/>
<line opacity="0.1" stroke="#000000" stroke-width="1" x1="130" y1="403" x2="1003" y2="403"/>
<line opacity="0.1" stroke="#000000" stroke-width="1" x1="130" y1="395" x2="1003" y2="395"/>
<line opacity="0.1" stroke="#000000" stroke-width="1" x1="130" y1="387" x2="1003" y2="387"/>
<line opacity="0.1" stroke="#000000" stroke-width="1" x1="130" y1="379" x2="1003" y2="379"/>
<line opacity="0.1" stroke="#000000" stroke-width="1" x1="130" y1="371" x2="1003" y2="371"/>
<line opacity="0.1" stroke="#000000" stroke-width="1" x1="130" y1="363" x2="1003" y2="363"/>
<line opacity="0.1" stroke="#000000" stroke-width="1" x1="130" y1="355" x2="1003" y2="355"/>
<line opacity="0.1" stroke="#000000" stroke-width="1" x1="130" y1="347" x2="1003" y2="347"/>
<line opacity="0.1" stroke="#000000" stroke-width="1" x1="130" y1="339" x2="1003" y2="339"/>
<line opacity="0.1" stroke="#000000" stroke-width="1" x1="130" y1="331" x2="1003" y2="331"/>
<line opacity="0.1" stroke="#000000" stroke-width="1" x1="130" y1="323" x2="1003" y2="323"/>
<line opacity="0.1" stroke="#000000" stroke-width="1" x1="130" y1="315" x2="1003" y2="315"/>
<line opacity="0.1" stroke="#000000" stroke-width="1" x1="130" y1="307" x2="1003" y2="307"/>
<line opacity="0.1" stroke="#000000" stroke-width="1" x1="130" y1="299" x2="1003" y2="299"/>
<line opacity="0.1" stroke="#000000" stroke-width="1" x1="130" y1="291" x2="1003" y2="291"/>
<line opacity="0.1" stroke="#000000" stroke-width="1" x1="130" y1="283" x2="1003" y2="283"/>
<line opacity="0.1" stroke="#000000" stroke-width="1" x1="130" y1="275" x2="1003" y2="275"/>
<line opacity="0.1" stroke="#000000" stroke-width="1" x1="130" y1="267" x2="1003" y2="267"/>
<line opacity="0.1" stroke="#000000" stroke-width="1" x1="130" y1="259" x2="1003" y2="259"/>
<line opacity="0.1" stroke="#000000" stroke-width="1" x1="130" y1="251" x2="1003" y2="251"/>
<line opacity="0.1" stroke="#000000" stroke-width="1" x1="130" y1="243" x2="1003" y2="243"/>
<line opacity="0.1" stroke="#000000" stroke-width="1" x1="130" y1="235" x2="1003" y2="235"/>
<line opacity="0.1" stroke="#000000" stroke-width="1" x1="130" y1="228" x2="1003" y2="228"/>
<line opacity="0.1" stroke="#000000" stroke-width="1" x1="130" y1="220" x2="1003" y2="220"/>
<line opacity="0.1" stroke="#000000" stroke-width="1" x1="130" y1="212" x2="1003" y2="212"/>
<line opacity="0.1" stroke="#000000" stroke-width="1" x1="130" y1="204" x2="1003" y2="204"/>
<line opacity="0.1" stroke="#000000" stroke-width="1" x1="130" y1="196" x2="1003" y2="196"/>
<line opacity="0.1" stroke="#000000" stroke-width="1" x1="130" y1="188" x2="1003" y2="188"/>
<line opacity="0.1" stroke="#000000" stroke-width="1" x1="130" y1="180" x2="1003" y2="180"/>
<line opacity="0.1" stroke="#000000" stroke-width="1" x1="130" y1="172" x2="1003" y2="172"/>
<line opacity="0.1" stroke="#000000" stroke-width="1" x1="130" y1="164" x2="1003" y2="164"/>
<line opacity="0.1" stroke="#000000" stroke-width="1" x1="130" y1="156" x2="1003" y2="156"/>
<line opacity="0.1" stroke="#000000" stroke-width="1" x1="130" y1="148" x2="1003" y2="148"/>
<line opacity="0.1" stroke="#000000" stroke-width="1" x1="130" y1="140" x2="1003" y2="140"/>
<line opacity="0.1" stroke="#000000" stroke-width="1" x1="130" y1="132" x2="1003" y2="132"/>
<line opacity="0.1" stroke="#000000" stroke-width="1" x1="130" y1="124" x2="1003" y2="124"/>
<line opacity="0.1" stroke="#000000" stroke-width="1" x1="130" y1="116" x2="1003" y2="116"/>
<line opacity="0.1" stroke="#000000" stroke-width="1" x1="130" y1="108" x2="1003" y2="108"/>
<line opacity="0.1" stroke="#000000" stroke-width="1" x1="130" y1="100" x2="1003" y2="100"/>
<line opacity="0.1" stroke="#000000" stroke-width="1" x1="130" y1="92" x2="1003" y2="92"/>
<line opacity="0.1" stroke="#000000" stroke-width="1" x1="130" y1="84" x2="1003" y2="84"/>
<line opacity="0.1" stroke="#000000" stroke-width="1" x1="130" y1="76" x2="1003" y2="76"/>
<line opacity="0.1" stroke="#000000" stroke-width="1" x1="130" y1="68" x2="1003" y2="68"/>
<line opacity="0.1" stroke="#000000" stroke-width="1" x1="130" y1="60" x2="1003" y2="60"/>
<line opacity="0.1" stroke="#000000" stroke-width="1" x1="130" y1="52" x2="1003" y2="52"/>
<line opacity="0.1" stroke="#000000" stroke-width="1" x1="130" y1="44" x2="1003" y2="44"/>
<line opacity="0.1" stroke="#000000" stroke-width="1" x1="130" y1="36" x2="1003" y2="36"/>
<line opacity="0.1" stroke="#000000" stroke-width="1" x1="130" y1="28" x2="1003" y2="28"/>
<line opacity="0.1" stroke="#000000" stroke-width="1" x1="130" y1="20" x2="1003" y2="20"/>
<text x="20" y="339" dy="0.76em" text-anchor="middle" font-family="sans-serif" font-size="24.193548387096776" opacity="1" fill="#000000" transform="rotate(270, 20, 339)">
Power [dB]
</text>
<text x="567" y="748" dy="-0.5ex" text-anchor="middle" font-family="sans-serif" font-size="24.193548387096776" opacity="1" fill="#000000">
Frequency [Hz]
</text>
<line opacity="0.2" stroke="#000000" stroke-width="1" x1="130" y1="657" x2="130" y2="20"/>
<line opacity="0.2" stroke="#000000" stroke-width="1" x1="239" y1="657" x2="239" y2="20"/>
<line opacity="0.2" stroke="#000000" stroke-width="1" x1="348" y1="657" x2="348" y2="20"/>
<line opacity="0.2" stroke="#000000" stroke-width="1" x1="457" y1="657" x2="457" y2="20"/>
<line opacity="0.2" stroke="#000000" stroke-width="1" x1="566" y1="657" x2="566" y2="20"/>
<line opacity="0.2" stroke="#000000" stroke-width="1" x1="675" y1="657" x2="675" y2="20"/>
<line opacity="0.2" stroke="#000000" stroke-width="1" x1="784" y1="657" x2="784" y2="20"/>
<line opacity="0.2" stroke="#000000" stroke-width="1" x1="893" y1="657" x2="893" y2="20"/>
<line opacity="0.2" stroke="#000000" stroke-width="1" x1="1003" y1="657" x2="1003" y2="20"/>
<line opacity="0.2" stroke="#000000" stroke-width="1" x1="130" y1="657" x2="1003" y2="657"/>
<line opacity="0.2" stroke="#000000" stroke-width="1" x1="130" y1="578" x2="1003" y2="578"/>
<line opacity="0.2" stroke="#000000" stroke-width="1" x1="130" y1="498" x2="1003" y2="498"/>
<line opacity="0.2" stroke="#000000" stroke-width="1" x1="130" y1="419" x2="1003" y2="419"/>
<line opacity="0.2" stroke="#000000" stroke-width="1" x1="130" y1="339" x2="1003" y2="339"/>
<line opacity="0.2" stroke="#000000" stroke-width="1" x1="130" y1="259" x2="1003" y2="259"/>
<line opacity="0.2" stroke="#000000" stroke-width="1" x1="130" y1="180" x2="1003" y2="180"/>
<line opacity="0.2" stroke="#000000" stroke-width="1" x1="130" y1="100" x2="1003" y2="100"/>
<line opacity="0.2" stroke="#000000" stroke-width="1" x1="130" y1="20" x2="1003" y2="20"/>
<polyline fill="none" opacity="1" stroke="#000000" stroke-width="1" points="129,20 129,657 "/>
<text x="120" y="657" dy="0.5ex" text-anchor="end" font-family="sans-serif" font-size="24.193548387096776" opacity="1" fill="#000000">
-60.0
</text>
<polyline fill="none" opacity="1" stroke="#000000" stroke-width="1" points="124,657 129,657 "/>
<text x="120" y="578" dy="0.5ex" text-anchor="end" font-family="sans-serif" font-size="24.193548387096776" opacity="1" fill="#000000">
-50.0
</text>
<polyline fill="none" opacity="1" stroke="#000000" stroke-width="1" points="124,578 129,578 "/>
<text x="120" y="498" dy="0.5ex" text-anchor="end" font-family="sans-serif" font-size="24.193548387096776" opacity="1" fill="#000000">
-40.0
</text>
<polyline fill="none" opacity="1" stroke="#000000" stroke-width="1" points="124,498 129,498 "/>
<text x="120" y="419" dy="0.5ex" text-anchor="end" font-family="sans-serif" font-size="24.193548387096776" opacity="1" fill="#000000">
-30.0
</text>
<polyline fill="none" opacity="1" stroke="#000000" stroke-width="1" points="124,419 129,419 "/>
<text x="120" y="339" dy="0.5ex" text-anchor="end" font-family="sans-serif" font-size="24.193548387096776" opacity="1" fill="#000000">
-20.0
</text>
<polyline fill="none" opacity="1" stroke="#000000" stroke-width="1" points="124,339 129,339 "/>
<text x="120" y="259" dy="0.5ex" text-anchor="end" font-family="sans-serif" font-size="24.193548387096776" opacity="1" fill="#000000">
-10.0
</text>
<polyline fill="none" opacity="1" stroke="#000000" stroke-width="1" points="124,259 129,259 "/>
<text x="120" y="180" dy="0.5ex" text-anchor="end" font-family="sans-serif" font-size="24.193548387096776" opacity="1" fill="#000000">
0.0
</text>
<polyline fill="none" opacity="1" stroke="#000000" stroke-width="1" points="124,180 129,180 "/>
<text x="120" y="100" dy="0.5ex" text-anchor="end" font-family="sans-serif" font-size="24.193548387096776" opacity="1" fill="#000000">
10.0
</text>
<polyline fill="none" opacity="1" stroke="#000000" stroke-width="1" points="124,100 129,100 "/>
<text x="120" y="20" dy="0.5ex" text-anchor="end" font-family="sans-serif" font-size="24.193548387096776" opacity="1" fill="#000000">
20.0
</text>
<polyline fill="none" opacity="1" stroke="#000000" stroke-width="1" points="124,20 129,20 "/>
<polyline fill="none" opacity="1" stroke="#000000" stroke-width="1" points="130,658 1003,658 "/>
<text x="130" y="668" dy="0.76em" text-anchor="middle" font-family="sans-serif" font-size="24.193548387096776" opacity="1" fill="#000000">
0.0
</text>
<polyline fill="none" opacity="1" stroke="#000000" stroke-width="1" points="130,658 130,663 "/>
<text x="239" y="668" dy="0.76em" text-anchor="middle" font-family="sans-serif" font-size="24.193548387096776" opacity="1" fill="#000000">
1000.0
</text>
<polyline fill="none" opacity="1" stroke="#000000" stroke-width="1" points="239,658 239,663 "/>
<text x="348" y="668" dy="0.76em" text-anchor="middle" font-family="sans-serif" font-size="24.193548387096776" opacity="1" fill="#000000">
2000.0
</text>
<polyline fill="none" opacity="1" stroke="#000000" stroke-width="1" points="348,658 348,663 "/>
<text x="457" y="668" dy="0.76em" text-anchor="middle" font-family="sans-serif" font-size="24.193548387096776" opacity="1" fill="#000000">
3000.0
</text>
<polyline fill="none" opacity="1" stroke="#000000" stroke-width="1" points="457,658 457,663 "/>
<text x="566" y="668" dy="0.76em" text-anchor="middle" font-family="sans-serif" font-size="24.193548387096776" opacity="1" fill="#000000">
4000.0
</text>
<polyline fill="none" opacity="1" stroke="#000000" stroke-width="1" points="566,658 566,663 "/>
<text x="675" y="668" dy="0.76em" text-anchor="middle" font-family="sans-serif" font-size="24.193548387096776" opacity="1" fill="#000000">
5000.0
</text>
<polyline fill="none" opacity="1" stroke="#000000" stroke-width="1" points="675,658 675,663 "/>
<text x="784" y="668" dy="0.76em" text-anchor="middle" font-family="sans-serif" font-size="24.193548387096776" opacity="1" fill="#000000">
6000.0
</text>
<polyline fill="none" opacity="1" stroke="#000000" stroke-width="1" points="784,658 784,663 "/>
<text x="893" y="668" dy="0.76em" text-anchor="middle" font-family="sans-serif" font-size="24.193548387096776" opacity="1" fill="#000000">
7000.0
</text>
<polyline fill="none" opacity="1" stroke="#000000" stroke-width="1" points="893,658 893,663 "/>
<text x="1003" y="668" dy="0.76em" text-anchor="middle" font-family="sans-serif" font-size="24.193548387096776" opacity="1" fill="#000000">
8000.0
</text>
<polyline fill="none" opacity="1" stroke="#000000" stroke-width="1" points="1003,658 1003,663 "/>
<polyline fill="none" opacity="1" stroke="#E6194B" stroke-width="1" points="130,243 131,245 133,269 134,289 136,262 137,299 139,291 140,319 142,214 143,198 145,220 146,269 148,177 149,157 151,217 152,211 154,225 155,267 157,279 158,216 160,194 161,280 163,182 164,223 166,187 167,223 169,157 170,178 172,150 173,141 175,237 176,174 178,205 180,201 181,271 183,228 184,177 186,169 187,204 189,179 190,144 192,116 193,151 195,97 196,80 198,144 199,116 201,214 202,213 204,190 205,257 207,216 208,259 210,179 211,176 213,208 214,162 216,236 217,161 219,137 220,118 222,156 223,160 225,172 227,212 228,207 230,306 231,182 233,172 234,255 236,174 237,189 239,199 240,156 242,154 243,169 245,152 246,180 248,212 249,192 251,224 252,197 254,233 255,277 257,310 258,229 260,202 261,447 263,221 264,228 266,239 267,214 269,346 270,215 272,301 273,230 275,261 277,253 278,364 280,213 281,271 283,217 284,305 286,257 287,240 289,241 290,213 292,207 293,271 295,301 296,321 298,283 299,297 301,271 302,245 304,269 305,232 307,237 308,250 310,276 311,245 313,232 314,210 316,215 317,395 319,269 320,306 322,295 324,259 325,261 327,273 328,283 330,243 331,267 333,306 334,279 336,265 337,318 339,254 340,296 342,279 343,317 345,254 346,241 348,316 349,294 351,278 352,268 354,289 355,277 357,269 358,287 360,295 361,315 363,330 364,288 366,276 367,376 369,264 370,264 372,306 374,245 375,235 377,296 378,339 380,260 381,252 383,280 384,260 386,303 387,258 389,258 390,276 392,290 393,384 395,268 396,254 398,245 399,266 401,246 402,256 404,236 405,260 407,319 408,334 410,242 411,253 413,241 414,258 416,219 417,183 419,190 421,228 422,222 424,200 425,219 427,209 428,241 430,357 431,283 433,212 434,227 436,286 437,267 439,222 440,219 442,256 443,260 445,283 446,307 448,427 449,328 451,287 452,340 454,270 455,352 457,273 458,292 460,402 461,260 463,260 464,361 466,280 467,268 469,250 471,251 472,241 474,310 475,382 477,243 478,228 480,263 481,286 483,218 484,214 486,263 487,261 489,282 490,245 492,248 493,228 495,303 496,263 498,261 499,329 501,246 502,293 504,234 505,208 507,209 508,266 510,264 511,242 513,227 514,265 516,237 518,259 519,262 521,350 522,291 524,308 525,336 527,305 528,293 530,353 531,359 533,392 534,391 536,374 537,387 539,393 540,359 542,307 543,289 545,330 546,293 548,304 549,285 551,280 552,335 554,395 555,302 557,311 558,324 560,307 561,397 563,369 564,323 566,340 568,366 569,368 571,344 572,307 574,294 575,342 577,349 578,314 580,309 581,448 583,531 584,345 586,327 587,354 589,319 590,315 592,381 593,328 595,293 596,308 598,418 599,392 601,371 602,418 604,373 605,368 607,329 608,303 610,324 611,389 613,360 615,339 616,340 618,395 619,396 621,338 622,340 624,379 625,350 627,487 628,312 630,303 631,333 633,425 634,419 636,370 637,393 639,336 640,408 642,336 643,323 645,347 646,325 648,318 649,361 651,387 652,446 654,413 655,329 657,305 658,338 660,339 661,327 663,411 665,325 666,390 668,317 669,344 671,416 672,415 674,440 675,401 677,399 678,426 680,401 681,438 683,393 684,386 686,365 687,381 689,438 690,361 692,397 693,430 695,358 696,349 698,391 699,430 701,423 702,419 704,397 705,381 707,513 708,396 710,384 712,399 713,428 715,475 716,370 718,353 719,379 721,383 722,398 724,426 725,427 727,496 728,412 730,374 731,389 733,401 734,340 736,310 737,312 739,342 740,405 742,414 743,418 745,364 746,363 748,434 749,452 751,462 752,395 754,439 755,518 757,438 758,464 760,566 762,414 763,421 765,437 766,437 768,420 769,415 771,500 772,427 774,393 775,425 777,445 778,411 780,441 781,438 783,466 784,435 786,417 787,489 789,352 790,330 792,342 793,388 795,472 796,512 798,483 799,499 801,504 802,495 804,495 805,473 807,463 809,400 810,404 812,529 813,453 815,366 816,341 818,353 819,390 821,399 822,453 824,447 825,464 827,455 828,421 830,427 831,436 833,445 834,464 836,465 837,447 839,399 840,413 842,457 843,386 845,383 846,414 848,511 849,560 851,434 852,461 854,553 855,462 857,490 859,453 860,422 862,408 863,443 865,418 866,452 868,514 869,454 871,430 872,465 874,428 875,426 877,447 878,476 880,444 881,446 883,464 884,434 886,438 887,451 889,431 890,421 892,368 893,354 895,357 896,379 898,453 899,523 901,436 902,478 904,474 906,464 907,436 909,491 910,409 912,423 913,490 915,491 916,507 918,521 919,490 921,432 922,450 924,498 925,433 927,436 928,456 930,501 931,462 933,484 934,472 936,429 937,434 939,455 940,464 942,481 943,508 945,575 946,525 948,480 949,505 951,501 952,461 954,449 956,493 957,534 959,624 960,500 962,535 963,477 965,444 966,421 968,605 969,450 971,413 972,394 974,434 975,603 977,453 978,390 980,382 981,392 983,397 984,409 986,399 987,383 989,403 990,468 992,439 993,523 995,487 996,478 998,452 999,493 1001,469 1003,466 1004,469 1004,493 1004,452 1004,478 1004,487 1004,523 1004,439 1004,468 1004,403 1004,383 1004,399 1004,409 1004,397 1004,392 1004,382 1004,390 1004,453 1004,603 1004,434 1004,394 1004,413 1004,450 1004,605 1004,421 1004,444 1004,477 1004,535 1004,500 1004,624 1004,534 1004,493 1004,449 1004,461 1004,501 1004,505 1004,480 1004,525 1004,575 1004,508 1004,481 1004,464 1004,455 1004,434 1004,429 1004,472 1004,484 1004,462 1004,501 1004,456 1004,436 1004,433 1004,498 1004,450 1004,432 1004,490 1004,521 1004,507 1004,491 1004,490 1004,423 1004,409 1004,491 1004,436 1004,464 1004,474 1004,478 1004,436 1004,523 1004,453 1004,379 1004,357 1004,354 1004,368 1004,421 1004,431 1004,451 1004,438 1004,434 1004,464 1004,446 1004,444 1004,476 1004,447 1004,426 1004,428 1004,465 1004,430 1004,454 1004,514 1004,452 1004,418 1004,443 1004,408 1004,422 1004,453 1004,490 1004,462 1004,553 1004,461 1004,434 1004,560 1004,511 1004,414 1004,383 1004,386 1004,457 1004,413 1004,399 1004,447 1004,465 1004,464 1004,445 1004,436 1004,427 1004,421 1004,455 1004,464 1004,447 1004,453 1004,399 1004,390 1004,353 1004,341 1004,366 1004,453 1004,529 1004,404 1004,400 1004,463 1004,473 1004,495 1004,495 1004,504 1004,499 1004,483 1004,512 1004,472 1004,388 1004,342 1004,330 1004,352 1004,489 1004,417 1004,435 1004,466 1004,438 1004,441 1004,411 1004,445 1004,425 1004,393 1004,427 1004,500 1004,415 1004,420 1004,437 1004,437 1004,421 1004,414 1004,566 1004,464 1004,438 1004,518 1004,439 1004,395 1004,462 1004,452 1004,434 1004,363 1004,364 1004,418 1004,414 1004,405 1004,342 1004,312 1004,310 1004,340 1004,401 1004,389 1004,374 1004,412 1004,496 1004,427 1004,426 1004,398 1004,383 1004,379 1004,353 1004,370 1004,475 1004,428 1004,399 1004,384 1004,396 1004,513 1004,381 1004,397 1004,419 1004,423 1004,430 1004,391 1004,349 1004,358 1004,430 1004,397 1004,361 1004,438 1004,381 1004,365 1004,386 1004,393 1004,438 1004,401 1004,426 1004,399 1004,401 1004,440 1004,415 1004,416 1004,344 1004,317 1004,390 1004,325 1004,411 1004,327 1004,339 1004,338 1004,305 1004,329 1004,413 1004,446 1004,387 1004,361 1004,318 1004,325 1004,347 1004,323 1004,336 1004,408 1004,336 1004,393 1004,370 1004,419 1004,425 1004,333 1004,303 1004,312 1004,487 1004,350 1004,379 1004,340 1004,338 1004,396 1004,395 1004,340 1004,339 1004,360 1004,389 1004,324 1004,303 1004,329 1004,368 1004,373 1004,418 1004,371 1004,392 1004,418 1004,308 1004,293 1004,328 1004,381 1004,315 1004,319 1004,354 1004,327 1004,345 1004,531 1004,448 1004,309 1004,314 1004,349 1004,342 1004,294 1004,307 1004,344 1004,368 1004,366 1004,340 1004,323 1004,369 1004,397 1004,307 1004,324 1004,311 1004,302 1004,395 1004,335 1004,280 1004,285 1004,304 1004,293 1004,330 1004,289 1004,307 1004,359 1004,393 1004,387 1004,374 1004,391 1004,392 1004,359 1004,353 1004,293 1004,305 1004,336 1004,308 1004,291 1004,350 1004,262 1004,259 1004,237 1004,265 1004,227 1004,242 1004,264 1004,266 1004,209 1004,208 1004,234 1004,293 1004,246 1004,329 1004,261 1004,263 1004,303 1004,228 1004,248 1004,245 1004,282 1004,261 1004,263 1004,214 1004,218 1004,286 1004,263 1004,228 1004,243 1004,382 1004,310 1004,241 1004,251 1004,250 1004,268 1004,280 1004,361 1004,260 1004,260 1004,402 1004,292 1004,273 1004,352 1004,270 1004,340 1004,287 1004,328 1004,427 1004,307 1004,283 1004,260 1004,256 1004,219 1004,222 1004,267 1004,286 1004,227 1004,212 1004,283 1004,357 1004,241 1004,209 1004,219 1004,200 1004,222 1004,228 1004,190 1004,183 1004,219 1004,258 1004,241 1004,253 1004,242 1004,334 1004,319 1004,260 1004,236 1004,256 1004,246 1004,266 1004,245 1004,254 1004,268 1004,384 1004,290 1004,276 1004,258 1004,258 1004,303 1004,260 1004,280 1004,252 1004,260 1004,339 1004,296 1004,235 1004,245 1004,306 1004,264 1004,264 1004,376 1004,276 1004,288 1004,330 1004,315 1004,295 1004,287 1004,269 1004,277 1004,289 1004,268 1004,278 1004,294 1004,316 1004,241 1004,254 1004,317 1004,279 1004,296 1004,254 1004,318 1004,265 1004,279 1004,306 1004,267 1004,243 1004,283 1004,273 1004,261 1004,259 1004,295 1004,306 1004,269 1004,395 1004,215 1004,210 1004,232 1004,245 1004,276 1004,250 1004,237 1004,232 1004,269 1004,245 1004,271 1004,297 1004,283 1004,321 1004,301 1004,271 1004,207 1004,213 1004,241 1004,240 1004,257 1004,305 1004,217 1004,271 1004,213 1004,364 1004,253 1004,261 1004,230 1004,301 1004,215 1004,346 1004,214 1004,239 1004,228 1004,221 1004,447 1004,202 1004,229 1004,310 1004,277 1004,233 1004,197 1004,224 1004,192 1004,212 1004,180 1004,152 1004,169 1004,154 1004,156 1004,199 1004,189 1004,174 1004,255 1004,172 1004,182 1004,306 1004,207 1004,212 1004,172 1004,160 1004,156 1004,118 1004,137 1004,161 1004,236 1004,162 1004,208 1004,176 1004,179 1004,259 1004,216 1004,257 1004,190 1004,213 1004,214 1004,116 1004,144 1004,80 1004,97 1004,151 1004,116 1004,144 1004,179 1004,204 1004,169 1004,177 1004,228 1004,271 1004,201 1004,205 1004,174 1004,237 1004,141 1004,150 1004,178 1004,157 1004,223 1004,187 1004,223 1004,182 1004,280 1004,194 1004,216 1004,279 1004,267 1004,225 1004,211 1004,217 1004,157 1004,177 1004,269 1004,220 1004,198 1004,214 1004,319 1004,291 1004,299 1004,262 1004,289 1004,269 1004,245 "/>
<polyline fill="none" opacity="1" stroke="#3CB44B" stroke-width="1" points="130,299 131,299 133,299 134,298 136,298 137,297 139,297 140,296 142,295 143,294 145,293 146,292 148,291 149,290 151,288 152,287 154,285 155,284 157,282 158,280 160,278 161,277 163,275 164,273 166,271 167,269 169,268 170,266 172,264 173,263 175,262 176,260 178,259 180,258 181,258 183,257 184,257 186,256 187,256 189,256 190,256 192,257 193,257 195,258 196,258 198,259 199,259 201,260 202,260 204,261 205,262 207,262 208,263 210,263 211,264 213,264 214,265 216,265 217,265 219,266 220,266 222,267 223,267 225,268 227,268 228,269 230,270 231,271 233,272 234,273 236,275 237,276 239,278 240,279 242,281 243,283 245,285 246,287 248,289 249,291 251,293 252,295 254,297 255,299 257,301 258,303 260,305 261,306 263,307 264,309 266,310 267,310 269,311 270,312 272,312 273,312 275,312 277,312 278,312 280,311 281,311 283,310 284,310 286,309 287,308 289,307 290,307 292,306 293,305 295,304 296,304 298,304 299,303 301,303 302,303 304,303 305,304 307,304 308,305 310,305 311,306 313,307 314,308 316,309 317,310 319,311 320,312 322,313 324,314 325,315 327,316 328,316 330,317 331,317 333,318 334,318 336,318 337,319 339,319 340,319 342,318 343,318 345,318 346,318 348,317 349,317 351,317 352,316 354,316 355,316 357,316 358,316 360,315 361,315 363,315 364,316 366,316 367,316 369,316 370,316 372,316 374,317 375,317 377,317 378,317 380,317 381,317 383,317 384,316 386,316 387,315 389,314 390,313 392,312 393,311 395,310 396,309 398,307 399,305 401,304 402,302 404,301 405,299 407,298 408,296 410,295 411,294 413,293 414,293 416,292 417,292 419,293 421,294 422,295 424,296 425,298 427,299 428,301 430,304 431,306 433,309 434,311 436,314 437,316 439,319 440,321 442,323 443,325 445,327 446,329 448,330 449,331 451,332 452,333 454,333 455,333 457,333 458,332 460,331 461,330 463,329 464,327 466,325 467,324 469,321 471,319 472,317 474,315 475,313 477,310 478,308 480,306 481,305 483,303 484,302 486,301 487,301 489,301 490,301 492,301 493,302 495,304 496,305 498,307 499,309 501,312 502,314 504,317 505,319 507,322 508,325 510,327 511,330 513,333 514,335 516,337 518,339 519,341 521,343 522,345 524,346 525,348 527,349 528,350 530,350 531,351 533,351 534,352 536,352 537,352 539,352 540,352 542,352 543,352 545,352 546,352 548,352 549,352 551,351 552,351 554,351 555,351 557,351 558,352 560,352 561,352 563,352 564,352 566,353 568,353 569,354 571,354 572,354 574,355 575,355 577,356 578,356 580,357 581,357 583,357 584,358 586,358 587,358 589,359 590,359 592,359 593,359 595,360 596,360 598,360 599,360 601,360 602,361 604,361 605,361 607,361 608,361 610,361 611,361 613,361 615,361 616,361 618,361 619,361 621,361 622,361 624,361 625,361 627,361 628,361 630,360 631,360 633,360 634,360 636,359 637,359 639,359 640,359 642,359 643,359 645,359 646,359 648,359 649,359 651,359 652,360 654,360 655,361 657,361 658,362 660,363 661,364 663,365 665,366 666,367 668,368 669,369 671,371 672,372 674,373 675,374 677,375 678,377 680,378 681,379 683,379 684,380 686,381 687,382 689,382 690,382 692,382 693,383 695,383 696,382 698,382 699,382 701,381 702,381 704,380 705,379 707,379 708,378 710,377 712,376 713,376 715,375 716,374 718,374 719,373 721,373 722,373 724,372 725,372 727,373 728,373 730,373 731,374 733,374 734,375 736,376 737,377 739,378 740,379 742,380 743,381 745,383 746,384 748,385 749,386 751,388 752,389 754,390 755,391 757,392 758,393 760,393 762,394 763,395 765,395 766,396 768,396 769,396 771,396 772,397 774,396 775,396 777,396 778,396 780,396 781,395 783,395 784,395 786,394 787,394 789,393 790,393 792,392 793,392 795,391 796,391 798,390 799,390 801,390 802,389 804,389 805,389 807,388 809,388 810,388 812,388 813,388 815,388 816,388 818,388 819,389 821,389 822,389 824,389 825,390 827,390 828,391 830,391 831,392 833,392 834,393 836,393 837,394 839,394 840,395 842,395 843,396 845,396 846,397 848,397 849,397 851,398 852,398 854,398 855,398 857,398 859,398 860,398 862,398 863,398 865,398 866,397 868,397 869,396 871,396 872,395 874,394 875,394 877,393 878,392 880,392 881,391 883,390 884,390 886,389 887,388 889,388 890,388 892,387 893,387 895,387 896,387 898,388 899,388 901,389 902,389 904,390 906,391 907,392 909,393 910,395 912,396 913,397 915,399 916,400 918,402 919,403 921,405 922,406 924,408 925,409 927,410 928,411 930,412 931,413 933,414 934,415 936,416 937,416 939,417 940,417 942,417 943,417 945,417 946,417 948,416 949,416 951,415 952,414 954,413 956,413 957,412 959,411 960,410 962,408 963,407 965,406 966,405 968,404 969,403 971,402 972,401 974,400 975,399 977,398 978,397 980,396 981,395 983,395 984,394 986,393 987,393 989,392 990,392 992,392 993,391 995,391 996,391 998,391 999,391 1001,391 1003,391 1004,391 1004,391 1004,391 1004,391 1004,391 1004,391 1004,392 1004,392 1004,392 1004,393 1004,393 1004,394 1004,395 1004,395 1004,396 1004,397 1004,398 1004,399 1004,400 1004,401 1004,402 1004,403 1004,404 1004,405 1004,406 1004,407 1004,408 1004,410 1004,411 1004,412 1004,413 1004,413 1004,414 1004,415 1004,416 1004,416 1004,417 1004,417 1004,417 1004,417 1004,417 1004,417 1004,416 1004,416 1004,415 1004,414 1004,413 1004,412 1004,411 1004,410 1004,409 1004,408 1004,406 1004,405 1004,403 1004,402 1004,400 1004,399 1004,397 1004,396 1004,395 1004,393 1004,392 1004,391 1004,390 1004,389 1004,389 1004,388 1004,388 1004,387 1004,387 1004,387 1004,387 1004,388 1004,388 1004,388 1004,389 1004,390 1004,390 1004,391 1004,392 1004,392 1004,393 1004,394 1004,394 1004,395 1004,396 1004,396 1004,397 1004,397 1004,398 1004,398 1004,398 1004,398 1004,398 1004,398 1004,398 1004,398 1004,398 1004,398 1004,397 1004,397 1004,397 1004,396 1004,396 1004,395 1004,395 1004,394 1004,394 1004,393 1004,393 1004,392 1004,392 1004,391 1004,391 1004,390 1004,390 1004,389 1004,389 1004,389 1004,389 1004,388 1004,388 1004,388 1004,388 1004,388 1004,388 1004,388 1004,388 1004,389 1004,389 1004,389 1004,390 1004,390 1004,390 1004,391 1004,391 1004,392 1004,392 1004,393 1004,393 1004,394 1004,394 1004,395 1004,395 1004,395 1004,396 1004,396 1004,396 1004,396 1004,396 1004,397 1004,396 1004,396 1004,396 1004,396 1004,395 1004,395 1004,394 1004,393 1004,393 1004,392 1004,391 1004,390 1004,389 1004,388 1004,386 1004,385 1004,384 1004,383 1004,381 1004,380 1004,379 1004,378 1004,377 1004,376 1004,375 1004,374 1004,374 1004,373 1004,373 1004,373 1004,372 1004,372 1004,373 1004,373 1004,373 1004,374 1004,374 1004,375 1004,376 1004,376 1004,377 1004,378 1004,379 1004,379 1004,380 1004,381 1004,381 1004,382 1004,382 1004,382 1004,383 1004,383 1004,382 1004,382 1004,382 1004,382 1004,381 1004,380 1004,379 1004,379 1004,378 1004,377 1004,375 1004,374 1004,373 1004,372 1004,371 1004,369 1004,368 1004,367 1004,366 1004,365 1004,364 1004,363 1004,362 1004,361 1004,361 1004,360 1004,360 1004,359 1004,359 1004,359 1004,359 1004,359 1004,359 1004,359 1004,359 1004,359 1004,359 1004,359 1004,360 1004,360 1004,360 1004,360 1004,361 1004,361 1004,361 1004,361 1004,361 1004,361 1004,361 1004,361 1004,361 1004,361 1004,361 1004,361 1004,361 1004,361 1004,361 1004,361 1004,361 1004,361 1004,360 1004,360 1004,360 1004,360 1004,360 1004,359 1004,359 1004,359 1004,359 1004,358 1004,358 1004,358 1004,357 1004,357 1004,357 1004,356 1004,356 1004,355 1004,355 1004,354 1004,354 1004,354 1004,353 1004,353 1004,352 1004,352 1004,352 1004,352 1004,352 1004,351 1004,351 1004,351 1004,351 1004,351 1004,352 1004,352 1004,352 1004,352 1004,352 1004,352 1004,352 1004,352 1004,352 1004,352 1004,352 1004,351 1004,351 1004,350 1004,350 1004,349 1004,348 1004,346 1004,345 1004,343 1004,341 1004,339 1004,337 1004,335 1004,333 1004,330 1004,327 1004,325 1004,322 1004,319 1004,317 1004,314 1004,312 1004,309 1004,307 1004,305 1004,304 1004,302 1004,301 1004,301 1004,301 1004,301 1004,301 1004,302 1004,303 1004,305 1004,306 1004,308 1004,310 1004,313 1004,315 1004,317 1004,319 1004,321 1004,324 1004,325 1004,327 1004,329 1004,330 1004,331 1004,332 1004,333 1004,333 1004,333 1004,333 1004,332 1004,331 1004,330 1004,329 1004,327 1004,325 1004,323 1004,321 1004,319 1004,316 1004,314 1004,311 1004,309 1004,306 1004,304 1004,301 1004,299 1004,298 1004,296 1004,295 1004,294 1004,293 1004,292 1004,292 1004,293 1004,293 1004,294 1004,295 1004,296 1004,298 1004,299 1004,301 1004,302 1004,304 1004,305 1004,307 1004,309 1004,310 1004,311 1004,312 1004,313 1004,314 1004,315 1004,316 1004,316 1004,317 1004,317 1004,317 1004,317 1004,317 1004,317 1004,317 1004,316 1004,316 1004,316 1004,316 1004,316 1004,316 1004,315 1004,315 1004,315 1004,316 1004,316 1004,316 1004,316 1004,316 1004,317 1004,317 1004,317 1004,318 1004,318 1004,318 1004,318 1004,319 1004,319 1004,319 1004,318 1004,318 1004,318 1004,317 1004,317 1004,316 1004,316 1004,315 1004,314 1004,313 1004,312 1004,311 1004,310 1004,309 1004,308 1004,307 1004,306 1004,305 1004,305 1004,304 1004,304 1004,303 1004,303 1004,303 1004,303 1004,304 1004,304 1004,304 1004,305 1004,306 1004,307 1004,307 1004,308 1004,309 1004,310 1004,310 1004,311 1004,311 1004,312 1004,312 1004,312 1004,312 1004,312 1004,312 1004,311 1004,310 1004,310 1004,309 1004,307 1004,306 1004,305 1004,303 1004,301 1004,299 1004,297 1004,295 1004,293 1004,291 1004,289 1004,287 1004,285 1004,283 1004,281 1004,279 1004,278 1004,276 1004,275 1004,273 1004,272 1004,271 1004,270 1004,269 1004,268 1004,268 1004,267 1004,267 1004,266 1004,266 1004,265 1004,265 1004,265 1004,264 1004,264 1004,263 1004,263 1004,262 1004,262 1004,261 1004,260 1004,260 1004,259 1004,259 1004,258 1004,258 1004,257 1004,257 1004,256 1004,256 1004,256 1004,256 1004,257 1004,257 1004,258 1004,258 1004,259 1004,260 1004,262 1004,263 1004,264 1004,266 1004,268 1004,269 1004,271 1004,273 1004,275 1004,277 1004,278 1004,280 1004,282 1004,284 1004,285 1004,287 1004,288 1004,290 1004,291 1004,292 1004,293 1004,294 1004,295 1004,296 1004,297 1004,297 1004,298 1004,298 1004,299 1004,299 "/>
<polyline fill="none" opacity="1" stroke="#FFE119" stroke-width="1" points="130,450 131,450 133,450 134,450 136,450 137,450 139,450 140,450 142,450 143,450 145,451 146,451 148,451 149,451 151,451 152,451 154,451 155,451 157,451 158,451 160,451 161,451 163,451 164,451 166,451 167,451 169,451 170,451 172,451 173,451 175,451 176,451 178,451 180,451 181,451 183,451 184,451 186,451 187,451 189,451 190,451 192,451 193,452 195,452 196,452 198,452 199,452 201,452 202,452 204,452 205,452 207,452 208,452 210,452 211,452 213,452 214,452 216,452 217,452 219,452 220,452 222,452 223,452 225,452 227,452 228,452 230,452 231,452 233,452 234,452 236,452 237,452 239,452 240,453 242,453 243,453 245,453 246,453 248,453 249,453 251,453 252,453 254,453 255,454 257,454 258,454 260,454 261,454 263,454 264,454 266,454 267,454 269,454 270,455 272,455 273,455 275,455 277,455 278,455 280,455 281,455 283,455 284,455 286,456 287,456 289,456 290,456 292,456 293,456 295,456 296,456 298,456 299,456 301,457 302,457 304,457 305,457 307,457 308,457 310,457 311,457 313,458 314,458 316,458 317,458 319,458 320,459 322,459 324,459 325,459 327,460 328,460 330,460 331,460 333,461 334,461 336,461 337,461 339,462 340,462 342,462 343,462 345,462 346,462 348,462 349,462 351,462 352,462 354,462 355,462 357,461 358,461 360,461 361,461 363,460 364,460 366,459 367,459 369,458 370,458 372,457 374,457 375,456 377,456 378,455 380,455 381,454 383,454 384,453 386,453 387,453 389,452 390,452 392,452 393,451 395,451 396,451 398,451 399,451 401,450 402,450 404,450 405,450 407,450 408,451 410,451 411,451 413,451 414,451 416,452 417,452 419,452 421,453 422,453 424,454 425,454 427,455 428,455 430,456 431,456 433,457 434,457 436,458 437,458 439,459 440,459 442,459 443,460 445,460 446,460 448,461 449,461 451,461 452,461 454,461 455,461 457,461 458,460 460,460 461,460 463,460 464,459 466,459 467,459 469,458 471,458 472,458 474,457 475,457 477,457 478,457 480,457 481,456 483,456 484,456 486,456 487,456 489,456 490,456 492,457 493,457 495,457 496,457 498,457 499,457 501,457 502,456 504,456 505,456 507,456 508,456 510,455 511,455 513,455 514,455 516,455 518,455 519,455 521,455 522,456 524,456 525,457 527,458 528,460 530,461 531,463 533,465 534,467 536,469 537,471 539,473 540,475 542,477 543,478 545,480 546,482 548,484 549,485 551,486 552,487 554,488 555,489 557,490 558,490 560,491 561,491 563,491 564,491 566,490 568,490 569,489 571,488 572,488 574,487 575,486 577,485 578,484 580,483 581,483 583,482 584,482 586,482 587,483 589,483 590,484 592,486 593,487 595,489 596,491 598,493 599,495 601,498 602,500 604,502 605,504 607,506 608,508 610,509 611,511 613,512 615,513 616,514 618,515 619,515 621,515 622,515 624,515 625,515 627,514 628,514 630,513 631,512 633,511 634,509 636,508 637,506 639,505 640,503 642,502 643,501 645,500 646,500 648,500 649,500 651,501 652,502 654,504 655,506 657,509 658,511 660,514 661,517 663,520 665,522 666,525 668,528 669,530 671,532 672,534 674,536 675,538 677,539 678,541 680,542 681,543 683,543 684,544 686,544 687,544 689,544 690,544 692,543 693,543 695,542 696,541 698,539 699,538 701,536 702,535 704,533 705,531 707,529 708,527 710,524 712,522 713,520 715,518 716,516 718,515 719,514 721,513 722,513 724,513 725,513 727,514 728,516 730,518 731,520 733,522 734,525 736,527 737,530 739,533 740,535 742,538 743,541 745,544 746,546 748,549 749,551 751,554 752,556 754,559 755,561 757,563 758,565 760,567 762,569 763,571 765,573 766,574 768,576 769,577 771,578 772,579 774,580 775,581 777,582 778,582 780,582 781,582 783,582 784,582 786,582 787,581 789,580 790,579 792,577 793,575 795,573 796,571 798,569 799,566 801,563 802,559 804,556 805,553 807,550 809,547 810,545 812,544 813,545 815,547 816,550 818,554 819,559 821,565 822,570 824,576 825,581 827,587 828,592 830,596 831,601 833,605 834,609 836,612 837,616 839,619 840,622 842,624 843,626 845,628 846,630 848,631 849,633 851,634 852,634 854,635 855,635 857,635 859,635 860,634 862,633 863,632 865,631 866,629 868,627 869,625 871,622 872,619 874,615 875,611 877,607 878,602 880,596 881,591 883,585 884,580 886,575 887,572 889,571 890,572 892,577 893,582 895,589 896,597 898,604 899,611 901,617 902,623 904,629 906,634 907,639 909,644 910,648 912,652 913,655 915,658 916,658 918,658 919,658 921,658 922,658 924,658 925,658 927,658 928,658 930,658 931,658 933,658 934,658 936,658 937,658 939,658 940,658 942,658 943,658 945,658 946,658 948,658 949,658 951,658 952,658 954,658 956,658 957,658 959,655 960,652 962,649 963,645 965,642 966,638 968,635 969,631 971,628 972,624 974,621 975,618 977,616 978,614 980,613 981,612 983,612 984,612 986,612 987,613 989,614 990,616 992,617 993,618 995,619 996,620 998,621 999,621 1001,622 1003,622 1004,622 1004,621 1004,621 1004,620 1004,619 1004,618 1004,617 1004,616 1004,614 1004,613 1004,612 1004,612 1004,612 1004,612 1004,613 1004,614 1004,616 1004,618 1004,621 1004,624 1004,628 1004,631 1004,635 1004,638 1004,642 1004,645 1004,649 1004,652 1004,655 1004,658 1004,658 1004,658 1004,658 1004,658 1004,658 1004,658 1004,658 1004,658 1004,658 1004,658 1004,658 1004,658 1004,658 1004,658 1004,658 1004,658 1004,658 1004,658 1004,658 1004,658 1004,658 1004,658 1004,658 1004,658 1004,658 1004,658 1004,658 1004,658 1004,655 1004,652 1004,648 1004,644 1004,639 1004,634 1004,629 1004,623 1004,617 1004,611 1004,604 1004,597 1004,589 1004,582 1004,577 1004,572 1004,571 1004,572 1004,575 1004,580 1004,585 1004,591 1004,596 1004,602 1004,607 1004,611 1004,615 1004,619 1004,622 1004,625 1004,627 1004,629 1004,631 1004,632 1004,633 1004,634 1004,635 1004,635 1004,635 1004,635 1004,634 1004,634 1004,633 1004,631 1004,630 1004,628 1004,626 1004,624 1004,622 1004,619 1004,616 1004,612 1004,609 1004,605 1004,601 1004,596 1004,592 1004,587 1004,581 1004,576 1004,570 1004,565 1004,559 1004,554 1004,550 1004,547 1004,545 1004,544 1004,545 1004,547 1004,550 1004,553 1004,556 1004,559 1004,563 1004,566 1004,569 1004,571 1004,573 1004,575 1004,577 1004,579 1004,580 1004,581 1004,582 1004,582 1004,582 1004,582 1004,582 1004,582 1004,582 1004,581 1004,580 1004,579 1004,578 1004,577 1004,576 1004,574 1004,573 1004,571 1004,569 1004,567 1004,565 1004,563 1004,561 1004,559 1004,556 1004,554 1004,551 1004,549 1004,546 1004,544 1004,541 1004,538 1004,535 1004,533 1004,530 1004,527 1004,525 1004,522 1004,520 1004,518 1004,516 1004,514 1004,513 1004,513 1004,513 1004,513 1004,514 1004,515 1004,516 1004,518 1004,520 1004,522 1004,524 1004,527 1004,529 1004,531 1004,533 1004,535 1004,536 1004,538 1004,539 1004,541 1004,542 1004,543 1004,543 1004,544 1004,544 1004,544 1004,544 1004,544 1004,543 1004,543 1004,542 1004,541 1004,539 1004,538 1004,536 1004,534 1004,532 1004,530 1004,528 1004,525 1004,522 1004,520 1004,517 1004,514 1004,511 1004,509 1004,506 1004,504 1004,502 1004,501 1004,500 1004,500 1004,500 1004,500 1004,501 1004,502 1004,503 1004,505 1004,506 1004,508 1004,509 1004,511 1004,512 1004,513 1004,514 1004,514 1004,515 1004,515 1004,515 1004,515 1004,515 1004,515 1004,514 1004,513 1004,512 1004,511 1004,509 1004,508 1004,506 1004,504 1004,502 1004,500 1004,498 1004,495 1004,493 1004,491 1004,489 1004,487 1004,486 1004,484 1004,483 1004,483 1004,482 1004,482 1004,482 1004,483 1004,483 1004,484 1004,485 1004,486 1004,487 1004,488 1004,488 1004,489 1004,490 1004,490 1004,491 1004,491 1004,491 1004,491 1004,490 1004,490 1004,489 1004,488 1004,487 1004,486 1004,485 1004,484 1004,482 1004,480 1004,478 1004,477 1004,475 1004,473 1004,471 1004,469 1004,467 1004,465 1004,463 1004,461 1004,460 1004,458 1004,457 1004,456 1004,456 1004,455 1004,455 1004,455 1004,455 1004,455 1004,455 1004,455 1004,455 1004,456 1004,456 1004,456 1004,456 1004,456 1004,457 1004,457 1004,457 1004,457 1004,457 1004,457 1004,457 1004,456 1004,456 1004,456 1004,456 1004,456 1004,456 1004,456 1004,457 1004,457 1004,457 1004,457 1004,457 1004,458 1004,458 1004,458 1004,459 1004,459 1004,459 1004,460 1004,460 1004,460 1004,460 1004,461 1004,461 1004,461 1004,461 1004,461 1004,461 1004,461 1004,460 1004,460 1004,460 1004,459 1004,459 1004,459 1004,458 1004,458 1004,457 1004,457 1004,456 1004,456 1004,455 1004,455 1004,454 1004,454 1004,453 1004,453 1004,452 1004,452 1004,452 1004,451 1004,451 1004,451 1004,451 1004,451 1004,450 1004,450 1004,450 1004,450 1004,450 1004,451 1004,451 1004,451 1004,451 1004,451 1004,452 1004,452 1004,452 1004,453 1004,453 1004,453 1004,454 1004,454 1004,455 1004,455 1004,456 1004,456 1004,457 1004,457 1004,458 1004,458 1004,459 1004,459 1004,460 1004,460 1004,461 1004,461 1004,461 1004,461 1004,462 1004,462 1004,462 1004,462 1004,462 1004,462 1004,462 1004,462 1004,462 1004,462 1004,462 1004,462 1004,461 1004,461 1004,461 1004,461 1004,460 1004,460 1004,460 1004,460 1004,459 1004,459 1004,459 1004,459 1004,458 1004,458 1004,458 1004,458 1004,458 1004,457 1004,457 1004,457 1004,457 1004,457 1004,457 1004,457 1004,457 1004,456 1004,456 1004,456 1004,456 1004,456 1004,456 1004,456 1004,456 1004,456 1004,456 1004,455 1004,455 1004,455 1004,455 1004,455 1004,455 1004,455 1004,455 1004,455 1004,455 1004,454 1004,454 1004,454 1004,454 1004,454 1004,454 1004,454 1004,454 1004,454 1004,454 1004,453 1004,453 1004,453 1004,453 1004,453 1004,453 1004,453 1004,453 1004,453 1004,453 1004,452 1004,452 1004,452 1004,452 1004,452 1004,452 1004,452 1004,452 1004,452 1004,452 1004,452 1004,452 1004,452 1004,452 1004,452 1004,452 1004,452 1004,452 1004,452 1004,452 1004,452 1004,452 1004,452 1004,452 1004,452 1004,452 1004,452 1004,452 1004,452 1004,452 1004,452 1004,451 1004,451 1004,451 1004,451 1004,451 1004,451 1004,451 1004,451 1004,451 1004,451 1004,451 1004,451 1004,451 1004,451 1004,451 1004,451 1004,451 1004,451 1004,451 1004,451 1004,451 1004,451 1004,451 1004,451 1004,451 1004,451 1004,451 1004,451 1004,451 1004,451 1004,451 1004,451 1004,450 1004,450 1004,450 1004,450 1004,450 1004,450 1004,450 1004,450 1004,450 "/>
<polyline fill="none" opacity="1" stroke="#0082C8" stroke-width="1" points="130,226 131,226 133,226 134,226 136,226 137,226 139,226 140,226 142,227 143,227 145,227 146,227 148,227 149,227 151,227 152,227 154,227 155,227 157,227 158,227 160,227 161,227 163,227 164,227 166,227 167,227 169,227 170,227 172,227 173,227 175,227 176,227 178,227 180,227 181,227 183,227 184,227 186,227 187,227 189,227 190,227 192,228 193,228 195,228 196,228 198,228 199,228 201,228 202,228 204,228 205,228 207,228 208,228 210,228 211,228 213,228 214,228 216,228 217,228 219,228 220,228 222,228 223,228 225,228 227,228 228,228 230,228 231,228 233,228 234,228 236,228 237,228 239,229 240,229 242,229 243,229 245,229 246,229 248,229 249,229 251,229 252,229 254,229 255,230 257,230 258,230 260,230 261,230 263,230 264,230 266,230 267,230 269,231 270,231 272,231 273,231 275,231 277,231 278,231 280,231 281,231 283,231 284,232 286,232 287,232 289,232 290,232 292,232 293,232 295,232 296,232 298,232 299,232 301,233 302,233 304,233 305,233 307,233 308,233 310,233 311,233 313,234 314,234 316,234 317,234 319,234 320,235 322,235 324,235 325,235 327,236 328,236 330,236 331,236 333,237 334,237 336,237 337,237 339,238 340,238 342,238 343,238 345,238 346,238 348,238 349,238 351,238 352,238 354,238 355,238 357,237 358,237 360,237 361,237 363,236 364,236 366,235 367,235 369,234 370,234 372,234 374,233 375,232 377,232 378,231 380,231 381,230 383,230 384,230 386,229 387,229 389,228 390,228 392,228 393,227 395,227 396,227 398,227 399,227 401,226 402,226 404,226 405,226 407,226 408,227 410,227 411,227 413,227 414,227 416,228 417,228 419,228 421,229 422,229 424,230 425,230 427,231 428,231 430,232 431,232 433,233 434,233 436,234 437,234 439,235 440,235 442,236 443,236 445,236 446,236 448,237 449,237 451,237 452,237 454,237 455,237 457,237 458,237 460,236 461,236 463,236 464,235 466,235 467,235 469,234 471,234 472,234 474,233 475,233 477,233 478,233 480,233 481,232 483,232 484,232 486,232 487,232 489,232 490,233 492,233 493,233 495,233 496,233 498,233 499,233 501,233 502,232 504,232 505,232 507,232 508,232 510,231 511,231 513,231 514,231 516,231 518,231 519,231 521,231 522,232 524,232 525,233 527,234 528,236 530,237 531,239 533,241 534,243 536,245 537,247 539,249 540,251 542,253 543,255 545,256 546,258 548,260 549,261 551,262 552,263 554,264 555,265 557,266 558,266 560,267 561,267 563,267 564,267 566,266 568,266 569,265 571,265 572,264 574,263 575,262 577,261 578,260 580,259 581,259 583,258 584,258 586,258 587,259 589,259 590,260 592,262 593,263 595,265 596,267 598,269 599,271 601,274 602,276 604,278 605,280 607,282 608,284 610,285 611,287 613,288 615,289 616,290 618,291 619,291 621,291 622,291 624,291 625,291 627,290 628,290 630,289 631,288 633,287 634,285 636,284 637,282 639,281 640,279 642,278 643,277 645,276 646,276 648,276 649,276 651,277 652,278 654,280 655,282 657,285 658,287 660,290 661,293 663,296 665,299 666,301 668,304 669,306 671,308 672,310 674,312 675,314 677,315 678,317 680,318 681,319 683,319 684,320 686,320 687,320 689,320 690,320 692,319 693,319 695,318 696,317 698,316 699,314 701,313 702,311 704,309 705,307 707,305 708,303 710,300 712,298 713,296 715,294 716,292 718,291 719,290 721,289 722,289 724,289 725,289 727,290 728,292 730,294 731,296 733,298 734,301 736,303 737,306 739,309 740,311 742,314 743,317 745,320 746,322 748,325 749,327 751,330 752,332 754,335 755,337 757,339 758,341 760,343 762,345 763,347 765,349 766,350 768,352 769,353 771,354 772,355 774,356 775,357 777,358 778,358 780,358 781,358 783,358 784,358 786,358 787,357 789,356 790,355 792,353 793,351 795,349 796,347 798,345 799,342 801,339 802,335 804,332 805,329 807,326 809,323 810,321 812,320 813,321 815,323 816,326 818,330 819,335 821,341 822,346 824,352 825,357 827,363 828,368 830,372 831,377 833,381 834,385 836,389 837,392 839,395 840,398 842,400 843,402 845,404 846,406 848,407 849,409 851,410 852,410 854,411 855,411 857,411 859,411 860,410 862,409 863,408 865,407 866,405 868,403 869,401 871,398 872,395 874,391 875,387 877,383 878,378 880,373 881,367 883,361 884,356 886,351 887,348 889,347 890,348 892,353 893,359 895,365 896,373 898,380 899,387 901,393 902,399 904,405 906,410 907,415 909,420 910,424 912,428 913,431 915,434 916,437 918,440 919,442 921,444 922,446 924,448 925,449 927,450 928,451 930,452 931,453 933,453 934,453 936,453 937,453 939,453 940,452 942,451 943,451 945,449 946,448 948,447 949,445 951,443 952,441 954,439 956,436 957,434 959,431 960,428 962,425 963,421 965,418 966,414 968,411 969,407 971,404 972,400 974,397 975,394 977,392 978,390 980,389 981,388 983,388 984,388 986,389 987,389 989,390 990,392 992,393 993,394 995,395 996,396 998,397 999,397 1001,398 1003,398 1004,398 1004,397 1004,397 1004,396 1004,395 1004,394 1004,393 1004,392 1004,390 1004,389 1004,389 1004,388 1004,388 1004,388 1004,389 1004,390 1004,392 1004,394 1004,397 1004,400 1004,404 1004,407 1004,411 1004,414 1004,418 1004,421 1004,425 1004,428 1004,431 1004,434 1004,436 1004,439 1004,441 1004,443 1004,445 1004,447 1004,448 1004,449 1004,451 1004,451 1004,452 1004,453 1004,453 1004,453 1004,453 1004,453 1004,453 1004,452 1004,451 1004,450 1004,449 1004,448 1004,446 1004,444 1004,442 1004,440 1004,437 1004,434 1004,431 1004,428 1004,424 1004,420 1004,415 1004,410 1004,405 1004,399 1004,393 1004,387 1004,380 1004,373 1004,365 1004,359 1004,353 1004,348 1004,347 1004,348 1004,351 1004,356 1004,361 1004,367 1004,373 1004,378 1004,383 1004,387 1004,391 1004,395 1004,398 1004,401 1004,403 1004,405 1004,407 1004,408 1004,409 1004,410 1004,411 1004,411 1004,411 1004,411 1004,410 1004,410 1004,409 1004,407 1004,406 1004,404 1004,402 1004,400 1004,398 1004,395 1004,392 1004,389 1004,385 1004,381 1004,377 1004,372 1004,368 1004,363 1004,357 1004,352 1004,346 1004,341 1004,335 1004,330 1004,326 1004,323 1004,321 1004,320 1004,321 1004,323 1004,326 1004,329 1004,332 1004,335 1004,339 1004,342 1004,345 1004,347 1004,349 1004,351 1004,353 1004,355 1004,356 1004,357 1004,358 1004,358 1004,358 1004,358 1004,358 1004,358 1004,358 1004,357 1004,356 1004,355 1004,354 1004,353 1004,352 1004,350 1004,349 1004,347 1004,345 1004,343 1004,341 1004,339 1004,337 1004,335 1004,332 1004,330 1004,327 1004,325 1004,322 1004,320 1004,317 1004,314 1004,311 1004,309 1004,306 1004,303 1004,301 1004,298 1004,296 1004,294 1004,292 1004,290 1004,289 1004,289 1004,289 1004,289 1004,290 1004,291 1004,292 1004,294 1004,296 1004,298 1004,300 1004,303 1004,305 1004,307 1004,309 1004,311 1004,313 1004,314 1004,316 1004,317 1004,318 1004,319 1004,319 1004,320 1004,320 1004,320 1004,320 1004,320 1004,319 1004,319 1004,318 1004,317 1004,315 1004,314 1004,312 1004,310 1004,308 1004,306 1004,304 1004,301 1004,299 1004,296 1004,293 1004,290 1004,287 1004,285 1004,282 1004,280 1004,278 1004,277 1004,276 1004,276 1004,276 1004,276 1004,277 1004,278 1004,279 1004,281 1004,282 1004,284 1004,285 1004,287 1004,288 1004,289 1004,290 1004,290 1004,291 1004,291 1004,291 1004,291 1004,291 1004,291 1004,290 1004,289 1004,288 1004,287 1004,285 1004,284 1004,282 1004,280 1004,278 1004,276 1004,274 1004,271 1004,269 1004,267 1004,265 1004,263 1004,262 1004,260 1004,259 1004,259 1004,258 1004,258 1004,258 1004,259 1004,259 1004,260 1004,261 1004,262 1004,263 1004,264 1004,265 1004,265 1004,266 1004,266 1004,267 1004,267 1004,267 1004,267 1004,266 1004,266 1004,265 1004,264 1004,263 1004,262 1004,261 1004,260 1004,258 1004,256 1004,255 1004,253 1004,251 1004,249 1004,247 1004,245 1004,243 1004,241 1004,239 1004,237 1004,236 1004,234 1004,233 1004,232 1004,232 1004,231 1004,231 1004,231 1004,231 1004,231 1004,231 1004,231 1004,231 1004,232 1004,232 1004,232 1004,232 1004,232 1004,233 1004,233 1004,233 1004,233 1004,233 1004,233 1004,233 1004,233 1004,232 1004,232 1004,232 1004,232 1004,232 1004,232 1004,233 1004,233 1004,233 1004,233 1004,233 1004,234 1004,234 1004,234 1004,235 1004,235 1004,235 1004,236 1004,236 1004,236 1004,237 1004,237 1004,237 1004,237 1004,237 1004,237 1004,237 1004,237 1004,236 1004,236 1004,236 1004,236 1004,235 1004,235 1004,234 1004,234 1004,233 1004,233 1004,232 1004,232 1004,231 1004,231 1004,230 1004,230 1004,229 1004,229 1004,228 1004,228 1004,228 1004,227 1004,227 1004,227 1004,227 1004,227 1004,226 1004,226 1004,226 1004,226 1004,226 1004,227 1004,227 1004,227 1004,227 1004,227 1004,228 1004,228 1004,228 1004,229 1004,229 1004,230 1004,230 1004,230 1004,231 1004,231 1004,232 1004,232 1004,233 1004,234 1004,234 1004,234 1004,235 1004,235 1004,236 1004,236 1004,237 1004,237 1004,237 1004,237 1004,238 1004,238 1004,238 1004,238 1004,238 1004,238 1004,238 1004,238 1004,238 1004,238 1004,238 1004,238 1004,237 1004,237 1004,237 1004,237 1004,236 1004,236 1004,236 1004,236 1004,235 1004,235 1004,235 1004,235 1004,234 1004,234 1004,234 1004,234 1004,234 1004,233 1004,233 1004,233 1004,233 1004,233 1004,233 1004,233 1004,233 1004,232 1004,232 1004,232 1004,232 1004,232 1004,232 1004,232 1004,232 1004,232 1004,232 1004,232 1004,231 1004,231 1004,231 1004,231 1004,231 1004,231 1004,231 1004,231 1004,231 1004,231 1004,230 1004,230 1004,230 1004,230 1004,230 1004,230 1004,230 1004,230 1004,230 1004,229 1004,229 1004,229 1004,229 1004,229 1004,229 1004,229 1004,229 1004,229 1004,229 1004,229 1004,228 1004,228 1004,228 1004,228 1004,228 1004,228 1004,228 1004,228 1004,228 1004,228 1004,228 1004,228 1004,228 1004,228 1004,228 1004,228 1004,228 1004,228 1004,228 1004,228 1004,228 1004,228 1004,228 1004,228 1004,228 1004,228 1004,228 1004,228 1004,228 1004,228 1004,228 1004,227 1004,227 1004,227 1004,227 1004,227 1004,227 1004,227 1004,227 1004,227 1004,227 1004,227 1004,227 1004,227 1004,227 1004,227 1004,227 1004,227 1004,227 1004,227 1004,227 1004,227 1004,227 1004,227 1004,227 1004,227 1004,227 1004,227 1004,227 1004,227 1004,227 1004,227 1004,227 1004,227 1004,226 1004,226 1004,226 1004,226 1004,226 1004,226 1004,226 "/>
<rect x="514" y="25" width="485" height="157" opacity="0.8" fill="#FFFFFF" stroke="none"/>
<rect x="514" y="25" width="485" height="157" opacity="1" fill="none" stroke="#000000"/>
<text x="554" y="35" dy="0.76em" text-anchor="start" font-family="sans-serif" font-size="24.193548387096776" opacity="1" fill="#000000">
(1) log_power
</text>
<text x="554" y="73" dy="0.76em" text-anchor="start" font-family="sans-serif" font-size="24.193548387096776" opacity="1" fill="#000000">
(2) spectral_envelope by cepstrum
</text>
<text x="554" y="110" dy="0.76em" text-anchor="start" font-family="sans-serif" font-size="24.193548387096776" opacity="1" fill="#000000">
(3) spectral_envelope by levinson-durbin
</text>
<text x="554" y="148" dy="0.76em" text-anchor="start" font-family="sans-serif" font-size="24.193548387096776" opacity="1" fill="#000000">
(4) spectral_envelope by burg
</text>
<polyline fill="none" opacity="1" stroke="#E6194B" stroke-width="1" points="524,47 544,47 "/>
<polyline fill="none" opacity="1" stroke="#3CB44B" stroke-width="1" points="524,85 544,85 "/>
<polyline fill="none" opacity="1" stroke="#FFE119" stroke-width="1" points="524,122 544,122 "/>
<polyline fill="none" opacity="1" stroke="#0082C8" stroke-width="1" points="524,160 544,160 "/>
</svg>
